<?xml version="1.0" encoding="UTF-8"?>
<!--Generator: Apple Native CoreSVG 149-->
<!DOCTYPE svg
PUBLIC "-//W3C//DTD SVG 1.1//EN"
       "http://www.w3.org/Graphics/SVG/1.1/DTD/svg11.dtd">
<svg version="1.1" xmlns="http://www.w3.org/2000/svg" xmlns:xlink="http://www.w3.org/1999/xlink" width="3300" height="2200">
 <!--glyph: "uni100889.medium", point size: 100.000000, font version: "Version 16.0d18e1", template writer version: "8"-->
 <g id="Notes">
  <rect height="2200" id="artboard" style="fill:white;opacity:1" width="3300" x="0" y="0"/>
  <line id="" style="fill:none;stroke:black;opacity:1;stroke-width:0.5;" x1="263" x2="3036" y1="292" y2="292"/>
  <text style="stroke:none;fill:black;font-family:-apple-system,&quot;SF Pro Display&quot;,&quot;SF Pro Text&quot;,Helvetica,sans-serif;font-weight:bold;" transform="matrix(1 0 0 1 263 322)">Weight/Scale Variations</text>
  <text style="stroke:none;fill:black;font-family:-apple-system,&quot;SF Pro Display&quot;,&quot;SF Pro Text&quot;,Helvetica,sans-serif;text-anchor:middle;" transform="matrix(1 0 0 1 559.711 322)">Ultralight</text>
  <text style="stroke:none;fill:black;font-family:-apple-system,&quot;SF Pro Display&quot;,&quot;SF Pro Text&quot;,Helvetica,sans-serif;text-anchor:middle;" transform="matrix(1 0 0 1 856.422 322)">Thin</text>
  <text style="stroke:none;fill:black;font-family:-apple-system,&quot;SF Pro Display&quot;,&quot;SF Pro Text&quot;,Helvetica,sans-serif;text-anchor:middle;" transform="matrix(1 0 0 1 1153.13 322)">Light</text>
  <text style="stroke:none;fill:black;font-family:-apple-system,&quot;SF Pro Display&quot;,&quot;SF Pro Text&quot;,Helvetica,sans-serif;text-anchor:middle;" transform="matrix(1 0 0 1 1449.84 322)">Regular</text>
  <text style="stroke:none;fill:black;font-family:-apple-system,&quot;SF Pro Display&quot;,&quot;SF Pro Text&quot;,Helvetica,sans-serif;text-anchor:middle;" transform="matrix(1 0 0 1 1746.56 322)">Medium</text>
  <text style="stroke:none;fill:black;font-family:-apple-system,&quot;SF Pro Display&quot;,&quot;SF Pro Text&quot;,Helvetica,sans-serif;text-anchor:middle;" transform="matrix(1 0 0 1 2043.27 322)">Semibold</text>
  <text style="stroke:none;fill:black;font-family:-apple-system,&quot;SF Pro Display&quot;,&quot;SF Pro Text&quot;,Helvetica,sans-serif;text-anchor:middle;" transform="matrix(1 0 0 1 2339.98 322)">Bold</text>
  <text style="stroke:none;fill:black;font-family:-apple-system,&quot;SF Pro Display&quot;,&quot;SF Pro Text&quot;,Helvetica,sans-serif;text-anchor:middle;" transform="matrix(1 0 0 1 2636.69 322)">Heavy</text>
  <text style="stroke:none;fill:black;font-family:-apple-system,&quot;SF Pro Display&quot;,&quot;SF Pro Text&quot;,Helvetica,sans-serif;text-anchor:middle;" transform="matrix(1 0 0 1 2933.4 322)">Black</text>
  <line id="" style="fill:none;stroke:black;opacity:1;stroke-width:0.5;" x1="263" x2="3036" y1="1903" y2="1903"/>
  <g id="" transform="matrix(1 0 0 1 263 1933)">
   <path d="M9.24805 0.830078C13.5547 0.830078 17.1387-2.74414 17.1387-7.05078C17.1387-11.3574 13.5449-14.9316 9.23828-14.9316C4.94141-14.9316 1.36719-11.3574 1.36719-7.05078C1.36719-2.74414 4.95117 0.830078 9.24805 0.830078ZM9.24805-0.654297C5.70312-0.654297 2.87109-3.49609 2.87109-7.05078C2.87109-10.6055 5.69336-13.4473 9.23828-13.4473C12.793-13.4473 15.6348-10.6055 15.6445-7.05078C15.6543-3.49609 12.8027-0.654297 9.24805-0.654297ZM6.39648-6.31836L8.50586-6.31836L8.50586-4.19922C8.50586-3.75977 8.79883-3.45703 9.22852-3.45703C9.67773-3.45703 9.9707-3.75977 9.9707-4.19922L9.9707-6.31836L12.0996-6.31836C12.5391-6.31836 12.8418-6.61133 12.8418-7.04102C12.8418-7.48047 12.5391-7.7832 12.0996-7.7832L9.9707-7.7832L9.9707-9.89258C9.9707-10.3418 9.67773-10.6445 9.22852-10.6445C8.79883-10.6445 8.50586-10.3418 8.50586-9.89258L8.50586-7.7832L6.39648-7.7832C5.94727-7.7832 5.64453-7.48047 5.64453-7.04102C5.64453-6.61133 5.94727-6.31836 6.39648-6.31836Z"/>
  </g>
  <g id="" transform="matrix(1 0 0 1 281.506 1933)">
   <path d="M11.709 2.91016C17.1582 2.91016 21.6699-1.61133 21.6699-7.05078C21.6699-12.5 17.1484-17.0117 11.6992-17.0117C6.25977-17.0117 1.74805-12.5 1.74805-7.05078C1.74805-1.61133 6.26953 2.91016 11.709 2.91016ZM11.709 1.25C7.09961 1.25 3.41797-2.44141 3.41797-7.05078C3.41797-11.6602 7.08984-15.3516 11.6992-15.3516C16.3086-15.3516 20-11.6602 20.0098-7.05078C20.0195-2.44141 16.3184 1.25 11.709 1.25ZM7.98828-6.23047L10.8789-6.23047L10.8789-3.32031C10.8789-2.83203 11.2109-2.5 11.6895-2.5C12.1777-2.5 12.5195-2.83203 12.5195-3.32031L12.5195-6.23047L15.4297-6.23047C15.918-6.23047 16.25-6.5625 16.25-7.04102C16.25-7.5293 15.918-7.87109 15.4297-7.87109L12.5195-7.87109L12.5195-10.7617C12.5195-11.2695 12.1777-11.6016 11.6895-11.6016C11.2109-11.6016 10.8789-11.2598 10.8789-10.7617L10.8789-7.87109L7.98828-7.87109C7.48047-7.87109 7.14844-7.5293 7.14844-7.04102C7.14844-6.5625 7.49023-6.23047 7.98828-6.23047Z"/>
  </g>
  <g id="" transform="matrix(1 0 0 1 304.924 1933)">
   <path d="M14.9707 5.66406C21.9336 5.66406 27.6953-0.0976562 27.6953-7.05078C27.6953-14.0137 21.9238-19.7754 14.9609-19.7754C8.00781-19.7754 2.25586-14.0137 2.25586-7.05078C2.25586-0.0976562 8.01758 5.66406 14.9707 5.66406ZM14.9707 3.84766C8.93555 3.84766 4.08203-1.01562 4.08203-7.05078C4.08203-13.0957 8.92578-17.9492 14.9609-17.9492C21.0059-17.9492 25.8594-13.0957 25.8691-7.05078C25.8789-1.01562 21.0156 3.84766 14.9707 3.84766ZM10.0586-6.14258L14.0625-6.14258L14.0625-2.12891C14.0625-1.5918 14.4336-1.2207 14.9512-1.2207C15.4883-1.2207 15.8594-1.5918 15.8594-2.12891L15.8594-6.14258L19.8828-6.14258C20.4102-6.14258 20.791-6.51367 20.791-7.03125C20.791-7.56836 20.4199-7.94922 19.8828-7.94922L15.8594-7.94922L15.8594-11.9531C15.8594-12.5098 15.4883-12.8809 14.9512-12.8809C14.4336-12.8809 14.0625-12.5 14.0625-11.9531L14.0625-7.94922L10.0586-7.94922C9.50195-7.94922 9.13086-7.56836 9.13086-7.03125C9.13086-6.51367 9.51172-6.14258 10.0586-6.14258Z"/>
  </g>
  <text style="stroke:none;fill:black;font-family:-apple-system,&quot;SF Pro Display&quot;,&quot;SF Pro Text&quot;,Helvetica,sans-serif;font-weight:bold;" transform="matrix(1 0 0 1 263 1953)">Design Variations</text>
  <text style="stroke:none;fill:black;font-family:-apple-system,&quot;SF Pro Display&quot;,&quot;SF Pro Text&quot;,Helvetica,sans-serif;" transform="matrix(1 0 0 1 263 1971)">Symbols are supported in up to nine weights and three scales.</text>
  <text style="stroke:none;fill:black;font-family:-apple-system,&quot;SF Pro Display&quot;,&quot;SF Pro Text&quot;,Helvetica,sans-serif;" transform="matrix(1 0 0 1 263 1989)">For optimal layout with text and other symbols, vertically align</text>
  <text style="stroke:none;fill:black;font-family:-apple-system,&quot;SF Pro Display&quot;,&quot;SF Pro Text&quot;,Helvetica,sans-serif;" transform="matrix(1 0 0 1 263 2007)">symbols with the adjacent text.</text>
  <line id="" style="fill:none;stroke:#00AEEF;stroke-width:0.5;opacity:1.0;" x1="776" x2="776" y1="1919" y2="1933"/>
  <g id="" transform="matrix(1 0 0 1 776 1933)">
   <path d="M3.31055 0.126953C3.82812 0.126953 4.08203-0.0683594 4.26758-0.605469L5.52734-4.0625L11.2891-4.0625L12.5488-0.605469C12.7344-0.0683594 12.9883 0.126953 13.4961 0.126953C14.0137 0.126953 14.3457-0.185547 14.3457-0.673828C14.3457-0.839844 14.3164-0.986328 14.2383-1.20117L9.6582-13.3887C9.43359-13.9941 9.0332-14.2871 8.4082-14.2871C7.80273-14.2871 7.39258-13.9941 7.17773-13.3984L2.59766-1.19141C2.51953-0.976562 2.49023-0.830078 2.49023-0.664062C2.49023-0.175781 2.80273 0.126953 3.31055 0.126953ZM6.00586-5.53711L8.37891-12.1094L8.42773-12.1094L10.8008-5.53711Z"/>
  </g>
  <line id="" style="fill:none;stroke:#00AEEF;stroke-width:0.5;opacity:1.0;" x1="792.836" x2="792.836" y1="1919" y2="1933"/>
  <text style="stroke:none;fill:black;font-family:-apple-system,&quot;SF Pro Display&quot;,&quot;SF Pro Text&quot;,Helvetica,sans-serif;font-weight:bold;" transform="matrix(1 0 0 1 776 1953)">Margins</text>
  <text style="stroke:none;fill:black;font-family:-apple-system,&quot;SF Pro Display&quot;,&quot;SF Pro Text&quot;,Helvetica,sans-serif;" transform="matrix(1 0 0 1 776 1971)">Leading and trailing margins on the left and right side of each symbol</text>
  <text style="stroke:none;fill:black;font-family:-apple-system,&quot;SF Pro Display&quot;,&quot;SF Pro Text&quot;,Helvetica,sans-serif;" transform="matrix(1 0 0 1 776 1989)">can be adjusted by modifying the x-location of the margin guidelines.</text>
  <text style="stroke:none;fill:black;font-family:-apple-system,&quot;SF Pro Display&quot;,&quot;SF Pro Text&quot;,Helvetica,sans-serif;" transform="matrix(1 0 0 1 776 2007)">Modifications are automatically applied proportionally to all</text>
  <text style="stroke:none;fill:black;font-family:-apple-system,&quot;SF Pro Display&quot;,&quot;SF Pro Text&quot;,Helvetica,sans-serif;" transform="matrix(1 0 0 1 776 2025)">scales and weights.</text>
  <g id="" transform="matrix(1 0 0 1 1289 1933)">
   <path d="M2.8418 1.86523L4.54102 3.57422C5.40039 4.44336 6.38672 4.38477 7.31445 3.35938L17.4902-7.85156C17.7539-7.76367 18.0273-7.7832 18.3398-7.8418L19.4043-8.03711L20.0684-7.36328L20.0293-6.80664C19.9902-6.30859 20.1172-5.92773 20.6055-5.44922L21.3672-4.70703C21.8457-4.22852 22.4609-4.19922 22.9297-4.66797L25.8398-7.58789C26.3086-8.05664 26.2891-8.65234 25.8105-9.13086L25.0391-9.89258C24.5605-10.3711 24.1895-10.5273 23.7109-10.4883L23.1348-10.4395L22.4902-11.0742L22.7344-12.1973C22.8613-12.7637 22.7051-13.2031 22.1191-13.7891L19.9219-15.9766C16.582-19.2969 12.1484-19.2188 9.25781-16.3281C8.83789-15.918 8.80859-15.3418 9.04297-14.9512C9.27734-14.5898 9.73633-14.3555 10.3809-14.5215C11.8457-14.8633 13.3691-14.9219 14.7949-13.9844L14.209-12.5293C14.0137-12.0508 13.9844-11.6504 14.1113-11.2891L3.04688-0.898438C2.06055 0.0195312 1.98242 0.996094 2.8418 1.86523ZM10.752-15.957C13.1836-17.7344 16.4746-17.4316 18.7012-15.2051L21.1328-12.793C21.3672-12.5586 21.4062-12.373 21.3379-12.0312L21.0156-10.5469L22.5195-9.0625L23.5059-9.12109C23.7598-9.13086 23.8379-9.11133 24.0332-8.91602L24.6094-8.33984L22.168-5.89844L21.5918-6.47461C21.3965-6.66992 21.3672-6.74805 21.377-7.01172L21.4453-7.98828L19.9512-9.47266L18.4277-9.21875C18.1055-9.15039 17.959-9.17969 17.7148-9.41406L15.7129-11.416C15.459-11.6504 15.4297-11.8164 15.5859-12.1875L16.4648-14.2773C14.9023-15.7324 12.8711-16.3574 10.8398-15.7617C10.6836-15.7227 10.625-15.8496 10.752-15.957ZM5.27344 2.30469L4.10156 1.14258C3.63281 0.683594 3.74023 0.341797 4.14062-0.0195312L14.9512-10.1953L16.416-8.71094L6.42578 2.27539C6.07422 2.67578 5.74219 2.77344 5.27344 2.30469Z"/>
  </g>
  <text style="stroke:none;fill:black;font-family:-apple-system,&quot;SF Pro Display&quot;,&quot;SF Pro Text&quot;,Helvetica,sans-serif;font-weight:bold;" transform="matrix(1 0 0 1 1289 1953)">Exporting</text>
  <text style="stroke:none;fill:black;font-family:-apple-system,&quot;SF Pro Display&quot;,&quot;SF Pro Text&quot;,Helvetica,sans-serif;" transform="matrix(1 0 0 1 1289 1971)">Symbols should be outlined when exporting to ensure the</text>
  <text style="stroke:none;fill:black;font-family:-apple-system,&quot;SF Pro Display&quot;,&quot;SF Pro Text&quot;,Helvetica,sans-serif;" transform="matrix(1 0 0 1 1289 1989)">design is preserved when submitting to Xcode.</text>
  <text id="template-version" style="stroke:none;fill:black;font-family:-apple-system,&quot;SF Pro Display&quot;,&quot;SF Pro Text&quot;,Helvetica,sans-serif;text-anchor:end;" transform="matrix(1 0 0 1 3036 1933)">Template v.2.0</text>
  <text style="stroke:none;fill:black;font-family:-apple-system,&quot;SF Pro Display&quot;,&quot;SF Pro Text&quot;,Helvetica,sans-serif;text-anchor:end;" transform="matrix(1 0 0 1 3036 1951)">Requires Xcode 12 or greater</text>
  <text style="stroke:none;fill:black;font-family:-apple-system,&quot;SF Pro Display&quot;,&quot;SF Pro Text&quot;,Helvetica,sans-serif;text-anchor:end;" transform="matrix(1 0 0 1 3036 1969)">Generated from lock.rectangle.fill</text>
  <text style="stroke:none;fill:black;font-family:-apple-system,&quot;SF Pro Display&quot;,&quot;SF Pro Text&quot;,Helvetica,sans-serif;text-anchor:end;" transform="matrix(1 0 0 1 3036 1987)">Typeset at 100 points</text>
  <text style="stroke:none;fill:black;font-family:-apple-system,&quot;SF Pro Display&quot;,&quot;SF Pro Text&quot;,Helvetica,sans-serif;" transform="matrix(1 0 0 1 263 726)">Small</text>
  <text style="stroke:none;fill:black;font-family:-apple-system,&quot;SF Pro Display&quot;,&quot;SF Pro Text&quot;,Helvetica,sans-serif;" transform="matrix(1 0 0 1 263 1156)">Medium</text>
  <text style="stroke:none;fill:black;font-family:-apple-system,&quot;SF Pro Display&quot;,&quot;SF Pro Text&quot;,Helvetica,sans-serif;" transform="matrix(1 0 0 1 263 1586)">Large</text>
 </g>
 <g id="Guides">
  <g id="H-reference" style="fill:#27AAE1;stroke:none;" transform="matrix(1 0 0 1 339 696)">
   <path d="M0.976562 0L3.66211 0L12.9883-24.4629L45.752-24.4629L55.127 0L57.7637 0L30.6152-70.459L28.125-70.459ZM29.3457-67.1387L29.4434-67.1387L44.873-26.709L13.8672-26.709Z"/>
  </g>
  <line id="Baseline-S" style="fill:none;stroke:#27AAE1;opacity:1;stroke-width:0.5;" x1="263" x2="3036" y1="696" y2="696"/>
  <line id="Capline-S" style="fill:none;stroke:#27AAE1;opacity:1;stroke-width:0.5;" x1="263" x2="3036" y1="625.541" y2="625.541"/>
  <g id="H-reference" style="fill:#27AAE1;stroke:none;" transform="matrix(1 0 0 1 339 1126)">
   <path d="M0.976562 0L3.66211 0L12.9883-24.4629L45.752-24.4629L55.127 0L57.7637 0L30.6152-70.459L28.125-70.459ZM29.3457-67.1387L29.4434-67.1387L44.873-26.709L13.8672-26.709Z"/>
  </g>
  <line id="Baseline-M" style="fill:none;stroke:#27AAE1;opacity:1;stroke-width:0.5;" x1="263" x2="3036" y1="1126" y2="1126"/>
  <line id="Capline-M" style="fill:none;stroke:#27AAE1;opacity:1;stroke-width:0.5;" x1="263" x2="3036" y1="1055.54" y2="1055.54"/>
  <g id="H-reference" style="fill:#27AAE1;stroke:none;" transform="matrix(1 0 0 1 339 1556)">
   <path d="M0.976562 0L3.66211 0L12.9883-24.4629L45.752-24.4629L55.127 0L57.7637 0L30.6152-70.459L28.125-70.459ZM29.3457-67.1387L29.4434-67.1387L44.873-26.709L13.8672-26.709Z"/>
  </g>
  <line id="Baseline-L" style="fill:none;stroke:#27AAE1;opacity:1;stroke-width:0.5;" x1="263" x2="3036" y1="1556" y2="1556"/>
  <line id="Capline-L" style="fill:none;stroke:#27AAE1;opacity:1;stroke-width:0.5;" x1="263" x2="3036" y1="1485.54" y2="1485.54"/>
  <line id="left-margin" style="fill:none;stroke:#00AEEF;stroke-width:0.5;opacity:1.0;" x1="1379.82" x2="1379.82" y1="1030.79" y2="1150.12"/>
  <line id="right-margin" style="fill:none;stroke:#00AEEF;stroke-width:0.5;opacity:1.0;" x1="1519.86" x2="1519.86" y1="1030.79" y2="1150.12"/>
 </g>
 <g id="Symbols">
  <g id="Black-L" transform="matrix(1 0 0 1 2841.51 1556)">
   <path d="M39.9902 26.5137L143.799 26.5137C159.082 26.5137 167.725 17.8711 167.725 2.68555L167.725-73.0957C167.725-88.2812 159.082-96.875 143.799-96.875L39.9902-96.875C24.7559-96.875 16.0645-88.2812 16.0645-73.0957L16.0645 2.68555C16.0645 17.8711 24.7559 26.5137 39.9902 26.5137ZM68.457-10.9375L68.457-35.1562C68.457-39.3555 70.0684-41.7969 73.1934-42.5781L73.1934-48.8281C73.1934-61.2793 80.7617-69.6289 91.9434-69.6289C103.125-69.6289 110.693-61.2793 110.693-48.8281L110.693-42.5293C113.77-41.7969 115.381-39.3555 115.381-35.1562L115.381-10.9375C115.381-5.46875 112.939-3.02734 107.959-3.02734L75.9277-3.02734C70.8984-3.02734 68.457-5.46875 68.457-10.9375ZM84.1309-42.9688L99.707-42.9688L99.707-49.3164C99.707-55.1758 96.6309-58.8867 91.8457-58.8867C87.1582-58.8867 84.1309-55.127 84.1309-49.3164Z"/>
  </g>
  <g id="Heavy-L" transform="matrix(1 0 0 1 2545.23 1556)">
   <path d="M38.8184 25.4883L144.092 25.4883C158.74 25.4883 166.846 17.4316 166.846 2.88086L166.846-73.2422C166.846-87.793 158.74-95.8496 144.092-95.8496L38.8184-95.8496C24.2188-95.8496 16.0645-87.793 16.0645-73.2422L16.0645 2.88086C16.0645 17.4316 24.2188 25.4883 38.8184 25.4883ZM68.0664-10.791L68.0664-35.4492C68.0664-39.7461 69.7266-42.1387 73.0957-42.7734L73.0957-49.4629C73.0957-61.7188 80.5176-69.9219 91.5039-69.9219C102.49-69.9219 109.912-61.7188 109.912-49.4629L109.912-42.7734C113.232-42.1387 114.893-39.7461 114.893-35.4492L114.893-10.791C114.893-5.46875 112.549-3.07617 107.666-3.07617L75.3418-3.07617C70.4102-3.07617 68.0664-5.46875 68.0664-10.791ZM82.8613-43.1152L100.098-43.1152L100.098-49.9512C100.098-56.2988 96.6797-60.3516 91.4551-60.3516C86.2305-60.3516 82.8613-56.25 82.8613-49.9512Z"/>
  </g>
  <g id="Bold-L" transform="matrix(1 0 0 1 2249.01 1556)">
   <path d="M37.5 24.3652L144.385 24.3652C158.35 24.3652 165.869 16.8945 165.869 3.07617L165.869-73.3887C165.869-87.207 158.35-94.7266 144.385-94.7266L37.5-94.7266C23.6328-94.7266 16.0645-87.2559 16.0645-73.3887L16.0645 3.07617C16.0645 16.8945 23.6328 24.3652 37.5 24.3652ZM67.5781-10.5957L67.5781-35.7422C67.5781-40.1855 69.3848-42.5293 72.9492-43.0176L72.9492-50.1465C72.9492-62.207 80.2246-70.2637 91.0156-70.2637C101.758-70.2637 109.082-62.207 109.082-50.1465L109.082-43.0176C112.598-42.5293 114.404-40.1855 114.404-35.7422L114.404-10.5957C114.404-5.41992 112.109-3.07617 107.324-3.07617L74.6582-3.07617C69.873-3.07617 67.5781-5.41992 67.5781-10.5957ZM81.4453-43.2617L100.537-43.2617L100.537-50.6836C100.537-57.5195 96.7285-61.9629 90.9668-61.9629C85.2051-61.9629 81.4453-57.4707 81.4453-50.6836Z"/>
  </g>
  <g id="Semibold-L" transform="matrix(1 0 0 1 1952.64 1556)">
   <path d="M36.6211 23.584L144.629 23.584C158.057 23.584 165.186 16.5039 165.186 3.17383L165.186-73.5352C165.186-86.8164 158.057-93.9453 144.629-93.9453L36.6211-93.9453C23.1934-93.9453 16.0645-86.8652 16.0645-73.5352L16.0645 3.17383C16.0645 16.5527 23.1934 23.584 36.6211 23.584ZM67.2363-10.498L67.2363-35.9375C67.2363-40.5273 69.1406-42.8223 72.8516-43.2129L72.8516-50.6348C72.8516-62.5 80.0293-70.459 90.6738-70.459C101.27-70.459 108.496-62.5 108.496-50.6348L108.496-43.1641C112.207-42.8223 114.062-40.5273 114.062-35.9375L114.062-10.498C114.062-5.41992 111.768-3.125 107.129-3.125L74.2188-3.125C69.5312-3.125 67.2363-5.41992 67.2363-10.498ZM80.4199-43.3594L100.879-43.3594L100.879-51.2207C100.879-58.3496 96.7773-63.0859 90.625-63.0859C84.5215-63.0859 80.4199-58.3496 80.4199-51.2207Z"/>
  </g>
  <g id="Medium-L" transform="matrix(1 0 0 1 1656.2 1556)">
   <path d="M35.9375 22.998L144.775 22.998C157.861 22.998 164.648 16.2109 164.648 3.27148L164.648-73.6328C164.648-86.5234 157.861-93.3105 144.775-93.3105L35.9375-93.3105C22.9004-93.3105 16.0645-86.5723 16.0645-73.6328L16.0645 3.27148C16.0645 16.2598 22.9004 22.998 35.9375 22.998ZM66.9922-10.4004L66.9922-36.084C66.9922-40.7227 68.9453-43.0176 72.7539-43.3105L72.7539-51.0254C72.7539-62.793 79.8828-70.6543 90.3809-70.6543C100.928-70.6543 108.057-62.793 108.057-51.0254L108.057-43.3105C111.865-43.0176 113.77-40.7227 113.77-36.084L113.77-10.4004C113.77-5.41992 111.572-3.125 106.934-3.125L73.877-3.125C69.2383-3.125 66.9922-5.41992 66.9922-10.4004ZM79.6875-43.4082L101.123-43.4082L101.123-51.6113C101.123-58.9844 96.8262-63.916 90.3809-63.916C83.9844-63.916 79.6875-58.9844 79.6875-51.6113Z"/>
  </g>
  <g id="Regular-L" transform="matrix(1 0 0 1 1359.81 1556)">
   <path d="M35.0586 22.2168L144.971 22.2168C157.617 22.2168 164.014 15.8691 164.014 3.41797L164.014-73.7305C164.014-86.1816 157.617-92.5293 144.971-92.5293L35.0586-92.5293C22.4609-92.5293 16.0645-86.2305 16.0645-73.7305L16.0645 3.41797C16.0645 15.918 22.4609 22.2168 35.0586 22.2168ZM66.6992-10.3027L66.6992-36.2793C66.6992-41.0156 68.6523-43.3105 72.6562-43.5059L72.6562-51.5137C72.6562-63.0859 79.6875-70.8496 90.0879-70.8496C100.439-70.8496 107.471-63.0859 107.471-51.5137L107.471-43.5059C111.475-43.3105 113.428-41.0156 113.428-36.2793L113.428-10.3027C113.428-5.37109 111.279-3.125 106.689-3.125L73.4375-3.125C68.8477-3.125 66.6992-5.37109 66.6992-10.3027ZM78.7109-43.5547L101.416-43.5547L101.416-52.0996C101.416-59.8633 96.875-65.0391 90.0879-65.0391C83.252-65.0391 78.7109-59.8633 78.7109-52.0996Z"/>
  </g>
  <g id="Light-L" transform="matrix(1 0 0 1 1063.56 1556)">
   <path d="M34.0332 21.4355L145.117 21.4355C157.031 21.4355 163.086 15.2344 163.086 3.56445L163.086-73.8281C163.086-85.5469 157.031-91.6992 145.117-91.6992L34.0332-91.6992C22.168-91.6992 16.0645-85.6445 16.0645-73.8281L16.0645 3.56445C16.0645 15.3809 22.168 21.4355 34.0332 21.4355ZM66.3574-10.3027L66.3574-36.4746C66.3574-41.4062 68.457-43.6523 72.7539-43.7988L72.7539-52.3438C72.7539-63.4277 79.541-70.8008 89.5996-70.8008C99.707-70.8008 106.494-63.4277 106.494-52.3438L106.494-43.7988C110.791-43.6523 112.891-41.4062 112.891-36.4746L112.891-10.3027C112.891-5.22461 110.645-2.97852 106.006-2.97852L73.1934-2.97852C68.6035-2.97852 66.3574-5.22461 66.3574-10.3027ZM77.7344-43.7988L101.514-43.7988L101.514-52.6855C101.514-60.6445 96.7285-65.918 89.5996-65.918C82.5195-65.918 77.7344-60.6445 77.7344-52.6855Z"/>
  </g>
  <g id="Thin-L" transform="matrix(1 0 0 1 767.433 1556)">
   <path d="M32.666 20.3613L145.312 20.3613C156.201 20.3613 161.914 14.4531 161.914 3.75977L161.914-73.9746C161.914-84.7168 156.201-90.5762 145.312-90.5762L32.666-90.5762C21.7773-90.5762 16.0645-84.8633 16.0645-73.9746L16.0645 3.75977C16.0645 14.6484 21.7773 20.3613 32.666 20.3613ZM65.918-10.2539L65.918-36.7188C65.918-41.8945 68.2129-44.1406 72.8516-44.1895L72.8516-53.418C72.8516-63.8184 79.3457-70.7031 89.0137-70.7031C98.7305-70.7031 105.225-63.8184 105.225-53.418L105.225-44.1895C109.863-44.1406 112.158-41.8945 112.158-36.7188L112.158-10.2539C112.158-5.07812 109.863-2.83203 105.127-2.83203L72.9492-2.83203C68.2129-2.83203 65.918-5.07812 65.918-10.2539ZM76.416-44.1895L101.611-44.1895L101.611-53.4668C101.611-61.6699 96.582-67.1387 89.0137-67.1387C81.4941-67.1387 76.416-61.6699 76.416-53.4668Z"/>
  </g>
  <g id="Ultralight-L" transform="matrix(1 0 0 1 471.015 1556)">
   <path d="M31.9824 19.7754L145.41 19.7754C155.811 19.7754 161.328 14.0625 161.328 3.85742L161.328-74.0723C161.328-84.2773 155.811-89.9902 145.41-89.9902L31.9824-89.9902C21.582-89.9902 16.0645-84.4727 16.0645-74.0723L16.0645 3.85742C16.0645 14.2578 21.582 19.7754 31.9824 19.7754ZM65.6738-10.2539L65.6738-36.8652C65.6738-42.1387 68.0664-44.3848 72.9004-44.3848L72.9004-53.9551C72.9004-64.0137 79.248-70.6543 88.7207-70.6543C98.1934-70.6543 104.59-64.0137 104.59-53.9551L104.59-44.3848C109.424-44.3848 111.768-42.1387 111.768-36.8652L111.768-10.2539C111.768-4.98047 109.424-2.73438 104.639-2.73438L72.8027-2.73438C68.0176-2.73438 65.6738-4.98047 65.6738-10.2539ZM75.7812-44.3848L101.709-44.3848L101.709-53.8574C101.709-62.207 96.4844-67.7246 88.7207-67.7246C81.0059-67.7246 75.7812-62.207 75.7812-53.8574Z"/>
  </g>
  <g id="Black-M" transform="matrix(1 0 0 1 2861.84 1126)">
   <path d="M31.9824 13.5742L111.133 13.5742C123.389 13.5742 130.664 6.29883 130.664-5.95703L130.664-64.4043C130.664-76.6602 123.389-83.9355 111.133-83.9355L31.9824-83.9355C19.7266-83.9355 12.4512-76.6602 12.4512-64.4043L12.4512-5.95703C12.4512 6.29883 19.7266 13.5742 31.9824 13.5742ZM53.418-16.6016L53.418-34.9121C53.418-38.0859 54.5898-40.0391 56.8848-40.8203L56.8848-45.3125C56.8848-54.9805 62.8418-61.4746 71.582-61.4746C80.3711-61.4746 86.2793-54.9805 86.2793-45.3125L86.2793-40.7227C88.5254-40.0391 89.6973-38.0859 89.6973-34.9121L89.6973-16.6016C89.6973-12.1582 87.6953-10.2051 83.6914-10.2051L59.5215-10.2051C55.4199-10.2051 53.418-12.1582 53.418-16.6016ZM66.4062-41.1621L76.709-41.1621L76.709-45.5566C76.709-49.6094 74.707-52.0996 71.4844-52.0996C68.3594-52.0996 66.4062-49.5605 66.4062-45.5566Z"/>
  </g>
  <g id="Heavy-M" transform="matrix(1 0 0 1 2565.5 1126)">
   <path d="M31.0059 12.6465L111.426 12.6465C123.193 12.6465 129.932 5.9082 129.932-5.81055L129.932-64.5508C129.932-76.2695 123.193-83.0566 111.426-83.0566L31.0059-83.0566C19.2383-83.0566 12.4512-76.3184 12.4512-64.5508L12.4512-5.81055C12.4512 5.9082 19.2383 12.6465 31.0059 12.6465ZM53.0762-16.4062L53.0762-35.1562C53.0762-38.4277 54.2969-40.332 56.7383-40.9668L56.7383-45.8008C56.7383-55.3711 62.5977-61.8164 71.1914-61.8164C79.8828-61.8164 85.6934-55.3711 85.6934-45.8008L85.6934-40.918C88.0859-40.332 89.3555-38.4277 89.3555-35.1562L89.3555-16.4062C89.3555-12.1582 87.4512-10.2539 83.5449-10.2539L58.9355-10.2539C54.9805-10.2539 53.0762-12.1582 53.0762-16.4062ZM65.2344-41.2598L77.1484-41.2598L77.1484-46.1426C77.1484-50.6348 74.8047-53.418 71.1426-53.418C67.5781-53.418 65.2344-50.5859 65.2344-46.1426Z"/>
  </g>
  <g id="Bold-M" transform="matrix(1 0 0 1 2269.18 1126)">
   <path d="M29.8828 11.6699L111.719 11.6699C122.949 11.6699 129.15 5.46875 129.15-5.66406L129.15-64.6973C129.15-75.8789 122.949-82.0312 111.719-82.0312L29.8828-82.0312C18.6523-82.0312 12.4512-75.8789 12.4512-64.6973L12.4512-5.66406C12.4512 5.51758 18.6523 11.6699 29.8828 11.6699ZM52.6367-16.2598L52.6367-35.4492C52.6367-38.8184 53.9551-40.6738 56.5918-41.1133L56.5918-46.3379C56.5918-55.8105 62.3535-62.1582 70.8008-62.1582C79.2969-62.1582 85.0586-55.8105 85.0586-46.3379L85.0586-41.1133C87.6465-40.6738 88.9648-38.8184 88.9648-35.4492L88.9648-16.2598C88.9648-12.1582 87.1582-10.3027 83.3984-10.3027L58.252-10.3027C54.4922-10.3027 52.6367-12.1582 52.6367-16.2598ZM63.9648-41.3574L77.6367-41.3574L77.6367-46.7773C77.6367-51.7578 74.9023-54.9316 70.8008-54.9316C66.6504-54.9316 63.9648-51.709 63.9648-46.7773Z"/>
  </g>
  <g id="Semibold-M" transform="matrix(1 0 0 1 1972.76 1126)">
   <path d="M29.1016 10.9863L111.914 10.9863C122.803 10.9863 128.564 5.17578 128.564-5.56641L128.564-64.8438C128.564-75.5859 122.803-81.3477 111.914-81.3477L29.1016-81.3477C18.2617-81.3477 12.4512-75.5859 12.4512-64.8438L12.4512-5.56641C12.4512 5.22461 18.2617 10.9863 29.1016 10.9863ZM52.3926-16.1133L52.3926-35.6445C52.3926-39.0625 53.7598-40.8691 56.4941-41.2598L56.4941-46.7285C56.4941-56.1523 62.1582-62.4512 70.5566-62.4512C78.9062-62.4512 84.6191-56.1523 84.6191-46.7285L84.6191-41.2109C87.3047-40.8691 88.7207-39.0625 88.7207-35.6445L88.7207-16.1133C88.7207-12.1582 86.9141-10.3516 83.3008-10.3516L57.8125-10.3516C54.1504-10.3516 52.3926-12.1582 52.3926-16.1133ZM63.0859-41.4062L77.9785-41.4062L77.9785-47.2168C77.9785-52.4902 75-56.0059 70.5078-56.0059C66.0645-56.0059 63.0859-52.4902 63.0859-47.2168Z"/>
  </g>
  <g id="Medium-M" transform="matrix(1 0 0 1 1676.24 1126)">
   <path d="M28.5156 10.4492L112.061 10.4492C122.656 10.4492 128.174 4.98047 128.174-5.46875L128.174-64.8926C128.174-75.3418 122.656-80.8105 112.061-80.8105L28.5156-80.8105C17.9688-80.8105 12.4512-75.3906 12.4512-64.8926L12.4512-5.46875C12.4512 4.98047 17.9688 10.4492 28.5156 10.4492ZM52.1484-16.0645L52.1484-35.791C52.1484-39.2578 53.5645-41.0645 56.3965-41.3574L56.3965-47.0215C56.3965-56.3477 62.0117-62.6465 70.3125-62.6465C78.6133-62.6465 84.2773-56.3477 84.2773-47.0215L84.2773-41.3086C87.1094-41.0645 88.4766-39.2578 88.4766-35.791L88.4766-16.0645C88.4766-12.1582 86.7676-10.4004 83.2031-10.4004L57.4707-10.4004C53.8574-10.4004 52.1484-12.1582 52.1484-16.0645ZM62.4512-41.4551L78.2227-41.4551L78.2227-47.5586C78.2227-53.0762 75.0488-56.7871 70.3125-56.7871C65.5762-56.7871 62.4512-53.0762 62.4512-47.5586Z"/>
  </g>
  <g id="Regular-M" transform="matrix(1 0 0 1 1379.82 1126)">
   <path d="M27.7832 9.76562L112.256 9.76562C122.51 9.76562 127.588 4.6875 127.588-5.37109L127.588-64.9902C127.588-75.0488 122.51-80.127 112.256-80.127L27.7832-80.127C17.5781-80.127 12.4512-75.0977 12.4512-64.9902L12.4512-5.37109C12.4512 4.73633 17.5781 9.76562 27.7832 9.76562ZM51.8555-15.918L51.8555-35.9375C51.8555-39.502 53.3203-41.2598 56.2988-41.4551L56.2988-47.3633C56.2988-56.6895 61.8652-62.8906 70.0684-62.8906C78.2715-62.8906 83.8379-56.6895 83.8379-47.3633L83.8379-41.4551C86.7676-41.2598 88.2324-39.502 88.2324-35.9375L88.2324-15.918C88.2324-12.1582 86.5723-10.4004 83.1055-10.4004L57.0312-10.4004C53.5156-10.4004 51.8555-12.1582 51.8555-15.918ZM61.5723-41.5039L78.5645-41.5039L78.5645-47.9492C78.5645-53.8574 75.1465-57.8125 70.0684-57.8125C64.9414-57.8125 61.5723-53.8574 61.5723-47.9492Z"/>
  </g>
  <g id="Light-M" transform="matrix(1 0 0 1 1083.5 1126)">
   <path d="M26.8555 9.0332L112.402 9.0332C121.973 9.0332 126.807 4.15039 126.807-5.22461L126.807-65.0879C126.807-74.5117 121.973-79.3945 112.402-79.3945L26.8555-79.3945C17.334-79.3945 12.4512-74.5605 12.4512-65.0879L12.4512-5.22461C12.4512 4.19922 17.334 9.0332 26.8555 9.0332ZM51.5625-15.918L51.5625-36.1328C51.5625-39.8438 53.1738-41.6016 56.3477-41.748L56.3477-48.0957C56.3477-56.9336 61.7188-62.793 69.6777-62.793C77.5879-62.793 82.959-56.9336 82.959-48.0957L82.959-41.748C86.1816-41.6016 87.7441-39.8438 87.7441-36.1328L87.7441-15.918C87.7441-12.0605 86.0352-10.3027 82.4707-10.3027L56.8359-10.3027C53.2715-10.3027 51.5625-12.0605 51.5625-15.918ZM60.6934-41.748L78.6133-41.748L78.6133-48.4863C78.6133-54.5898 75.0488-58.5938 69.6777-58.5938C64.3066-58.5938 60.6934-54.5898 60.6934-48.4863Z"/>
  </g>
  <g id="Thin-M" transform="matrix(1 0 0 1 787.33 1126)">
   <path d="M25.6348 8.05664L112.598 8.05664C121.24 8.05664 125.732 3.4668 125.732-5.0293L125.732-65.2344C125.732-73.7305 121.24-78.3691 112.598-78.3691L25.6348-78.3691C16.9922-78.3691 12.4512-73.877 12.4512-65.2344L12.4512-5.0293C12.4512 3.56445 16.9922 8.05664 25.6348 8.05664ZM51.1719-15.8691L51.1719-36.3281C51.1719-40.2832 52.9297-42.041 56.4453-42.0898L56.4453-49.0723C56.4453-57.2754 61.5723-62.7441 69.1406-62.7441C76.709-62.7441 81.8359-57.2754 81.8359-49.0723L81.8359-42.0898C85.3516-42.041 87.0605-40.2832 87.0605-36.3281L87.0605-15.8691C87.0605-11.9141 85.3027-10.1562 81.6895-10.1562L56.5918-10.1562C52.9785-10.1562 51.1719-11.9141 51.1719-15.8691ZM59.5215-42.0898L78.7598-42.0898L78.7598-49.2188C78.7598-55.5176 74.9023-59.668 69.1406-59.668C63.3789-59.668 59.5215-55.5176 59.5215-49.2188Z"/>
  </g>
  <g id="Ultralight-M" transform="matrix(1 0 0 1 490.888 1126)">
   <path d="M25 7.56836L112.695 7.56836C120.85 7.56836 125.195 3.125 125.195-4.98047L125.195-65.2832C125.195-73.3887 120.85-77.832 112.695-77.832L25-77.832C16.7969-77.832 12.4512-73.4863 12.4512-65.2832L12.4512-4.98047C12.4512 3.22266 16.7969 7.56836 25 7.56836ZM50.9766-15.8691L50.9766-36.4746C50.9766-40.5273 52.7832-42.2363 56.4941-42.2363L56.4941-49.5605C56.4941-57.4707 61.4746-62.6953 68.8477-62.6953C76.2695-62.6953 81.25-57.4707 81.25-49.5605L81.25-42.2363C84.9121-42.2363 86.7676-40.5273 86.7676-36.4746L86.7676-15.8691C86.7676-11.8164 84.9121-10.0586 81.25-10.0586L56.4941-10.0586C52.7832-10.0586 50.9766-11.8164 50.9766-15.8691ZM58.9355-42.2363L78.8086-42.2363L78.8086-49.5605C78.8086-56.0059 74.8047-60.2539 68.8477-60.2539C62.9395-60.2539 58.9355-56.0059 58.9355-49.5605Z"/>
  </g>
  <g id="Black-S" transform="matrix(1 0 0 1 2877.35 696)">
   <path d="M25 2.92969L87.1094 2.92969C96.6797 2.92969 102.344-2.73438 102.344-12.3047L102.344-58.1055C102.344-67.6758 96.6797-73.3398 87.1094-73.3398L25-73.3398C15.4297-73.3398 9.76562-67.6758 9.76562-58.1055L9.76562-12.3047C9.76562-2.73438 15.4297 2.92969 25 2.92969ZM41.8457-20.6055L41.8457-35.0098C41.8457-37.5 42.7734-39.0137 44.5801-39.5996L44.5801-43.1641C44.5801-50.7324 49.2188-55.8105 56.0547-55.8105C62.9395-55.8105 67.5781-50.7324 67.5781-43.1641L67.5781-39.5508C69.3359-39.0137 70.2637-37.5 70.2637-35.0098L70.2637-20.6055C70.2637-17.1387 68.7012-15.625 65.5762-15.625L46.582-15.625C43.4082-15.625 41.8457-17.1387 41.8457-20.6055ZM51.9531-39.8926L60.1562-39.8926L60.1562-43.3594C60.1562-46.582 58.5449-48.5352 56.0059-48.5352C53.5156-48.5352 51.9531-46.5332 51.9531-43.3594Z"/>
  </g>
  <g id="Heavy-S" transform="matrix(1 0 0 1 2580.88 696)">
   <path d="M24.3652 2.34375L87.3047 2.34375C96.582 2.34375 101.855-2.97852 101.855-12.207L101.855-58.2031C101.855-67.4316 96.582-72.7539 87.3047-72.7539L24.3652-72.7539C15.0879-72.7539 9.76562-67.4316 9.76562-58.2031L9.76562-12.207C9.76562-2.97852 15.0879 2.34375 24.3652 2.34375ZM41.6016-20.5078L41.6016-35.1562C41.6016-37.6953 42.5781-39.209 44.4336-39.6973L44.4336-43.457C44.4336-51.0254 49.0723-56.0547 55.8105-56.0547C62.6465-56.0547 67.2363-51.0254 67.2363-43.457L67.2363-39.6484C69.0918-39.209 70.0684-37.6953 70.0684-35.1562L70.0684-20.5078C70.0684-17.1387 68.5547-15.6738 65.5273-15.6738L46.1426-15.6738C43.0664-15.6738 41.6016-17.1387 41.6016-20.5078ZM51.1719-39.9414L60.4492-39.9414L60.4492-43.75C60.4492-47.2656 58.6426-49.4629 55.7617-49.4629C52.9785-49.4629 51.1719-47.2168 51.1719-43.75Z"/>
  </g>
  <g id="Bold-S" transform="matrix(1 0 0 1 2284.41 696)">
   <path d="M23.6328 1.66016L87.5 1.66016C96.4844 1.66016 101.367-3.22266 101.367-12.1094L101.367-58.3008C101.367-67.1875 96.4844-72.0703 87.5-72.0703L23.6328-72.0703C14.6973-72.0703 9.76562-67.1875 9.76562-58.3008L9.76562-12.1094C9.76562-3.22266 14.6973 1.66016 23.6328 1.66016ZM41.3086-20.3613L41.3086-35.3516C41.3086-37.9883 42.334-39.4043 44.3359-39.7949L44.3359-43.7988C44.3359-51.3184 48.877-56.3477 55.5664-56.3477C62.2559-56.3477 66.8457-51.3184 66.8457-43.7988L66.8457-39.7461C68.7988-39.4043 69.8242-37.9883 69.8242-35.3516L69.8242-20.3613C69.8242-17.1875 68.4082-15.7227 65.4785-15.7227L45.6543-15.7227C42.7246-15.7227 41.3086-17.1875 41.3086-20.3613ZM50.293-39.9414L60.8398-39.9414L60.8398-44.1406C60.8398-48.0469 58.7402-50.5371 55.5176-50.5371C52.3438-50.5371 50.293-47.998 50.293-44.1406Z"/>
  </g>
  <g id="Semibold-S" transform="matrix(1 0 0 1 1987.9 696)">
   <path d="M23.0957 1.17188L87.6465 1.17188C96.3867 1.17188 100.977-3.36914 100.977-12.0117L100.977-58.3984C100.977-67.041 96.3867-71.582 87.6465-71.582L23.0957-71.582C14.4043-71.582 9.76562-67.041 9.76562-58.3984L9.76562-12.0117C9.76562-3.36914 14.4043 1.17188 23.0957 1.17188ZM41.1133-20.2637L41.1133-35.498C41.1133-38.1348 42.1387-39.5508 44.2383-39.8438L44.2383-43.9941C44.2383-51.5137 48.7305-56.5918 55.3711-56.5918C62.0605-56.5918 66.5527-51.5137 66.5527-43.9941L66.5527-39.8438C68.6035-39.5508 69.6289-38.1348 69.6289-35.498L69.6289-20.2637C69.6289-17.1875 68.2617-15.7715 65.4297-15.7715L45.3125-15.7715C42.4805-15.7715 41.1133-17.1875 41.1133-20.2637ZM49.707-39.9902L61.084-39.9902L61.084-44.4336C61.084-48.5352 58.7891-51.2695 55.3711-51.2695C51.9531-51.2695 49.707-48.5352 49.707-44.4336Z"/>
  </g>
  <g id="Medium-S" transform="matrix(1 0 0 1 1691.31 696)">
   <path d="M22.7051 0.830078L87.7441 0.830078C96.3379 0.830078 100.732-3.51562 100.732-11.9629L100.732-58.4473C100.732-66.8945 96.3379-71.2402 87.7441-71.2402L22.7051-71.2402C14.209-71.2402 9.76562-66.8945 9.76562-58.4473L9.76562-11.9629C9.76562-3.51562 14.209 0.830078 22.7051 0.830078ZM40.9668-20.2148L40.9668-35.5957C40.9668-38.2812 42.041-39.6484 44.1406-39.8926L44.1406-44.1895C44.1406-51.709 48.6328-56.7383 55.2246-56.7383C61.8652-56.7383 66.3574-51.709 66.3574-44.1895L66.3574-39.8926C68.457-39.6484 69.5312-38.2812 69.5312-35.5957L69.5312-20.2148C69.5312-17.1875 68.2129-15.8203 65.4297-15.8203L45.0684-15.8203C42.2852-15.8203 40.9668-17.1875 40.9668-20.2148ZM49.2188-39.9902L61.2305-39.9902L61.2305-44.6777C61.2305-48.9746 58.8379-51.8066 55.2246-51.8066C51.6113-51.8066 49.2188-48.9258 49.2188-44.6777Z"/>
  </g>
  <g id="Regular-S" transform="matrix(1 0 0 1 1394.79 696)">
   <path d="M22.2168 0.390625L87.8906 0.390625C96.2402 0.390625 100.342-3.71094 100.342-11.9141L100.342-58.4961C100.342-66.6992 96.2402-70.8008 87.8906-70.8008L22.2168-70.8008C13.916-70.8008 9.76562-66.6992 9.76562-58.4961L9.76562-11.9141C9.76562-3.71094 13.916 0.390625 22.2168 0.390625ZM40.7715-20.1172L40.7715-35.7422C40.7715-38.4277 41.8457-39.7949 44.043-39.9902L44.043-44.3848C44.043-51.9043 48.5352-56.9336 55.0781-56.9336C61.6211-56.9336 66.0645-51.9043 66.0645-44.3848L66.0645-39.9902C68.2617-39.7949 69.3359-38.4277 69.3359-35.7422L69.3359-20.1172C69.3359-17.2363 68.0664-15.8691 65.3809-15.8691L44.7266-15.8691C42.041-15.8691 40.7715-17.2363 40.7715-20.1172ZM48.6328-40.0391L61.4746-40.0391L61.4746-44.9707C61.4746-49.4629 58.9355-52.5391 55.0781-52.5391C51.2207-52.5391 48.6328-49.4629 48.6328-44.9707Z"/>
  </g>
  <g id="Light-S" transform="matrix(1 0 0 1 1098.42 696)">
   <path d="M21.3867-0.292969L88.0371-0.292969C95.752-0.292969 99.6582-4.15039 99.6582-11.7676L99.6582-58.5938C99.6582-66.2109 95.752-70.1172 88.0371-70.1172L21.3867-70.1172C13.6719-70.1172 9.76562-66.2598 9.76562-58.5938L9.76562-11.7676C9.76562-4.15039 13.6719-0.292969 21.3867-0.292969ZM40.5273-20.1172L40.5273-35.8887C40.5273-38.7207 41.6992-40.0879 44.0918-40.2344L44.0918-45.0684C44.0918-52.1484 48.3887-56.8848 54.7363-56.8848C61.0352-56.8848 65.332-52.1484 65.332-45.0684L65.332-40.2344C67.7246-40.0879 68.8965-38.7207 68.8965-35.8887L68.8965-20.1172C68.8965-17.1387 67.5781-15.7715 64.8438-15.7715L44.5801-15.7715C41.8457-15.7715 40.5273-17.1387 40.5273-20.1172ZM47.8516-40.2344L61.5723-40.2344L61.5723-45.4102C61.5723-50.0977 58.8379-53.2227 54.7363-53.2227C50.6348-53.2227 47.8516-50.0977 47.8516-45.4102Z"/>
  </g>
  <g id="Thin-S" transform="matrix(1 0 0 1 802.174 696)">
   <path d="M20.3125-1.12305L88.1836-1.12305C95.1172-1.12305 98.7305-4.78516 98.7305-11.6211L98.7305-58.6914C98.7305-65.5762 95.1172-69.2383 88.1836-69.2383L20.3125-69.2383C13.3789-69.2383 9.76562-65.625 9.76562-58.6914L9.76562-11.6211C9.76562-4.6875 13.3789-1.12305 20.3125-1.12305ZM40.1855-20.0684L40.1855-36.0352C40.1855-39.1113 41.5039-40.4785 44.1895-40.5273L44.1895-45.8984C44.1895-52.4414 48.2422-56.7871 54.248-56.7871C60.2539-56.7871 64.3066-52.4414 64.3066-45.8984L64.3066-40.5273C66.9922-40.4785 68.3594-39.1113 68.3594-36.0352L68.3594-20.0684C68.3594-16.9922 66.9434-15.625 64.1113-15.625L44.3848-15.625C41.5527-15.625 40.1855-16.9922 40.1855-20.0684ZM46.8262-40.5273L61.6699-40.5273L61.6699-46.0449C61.6699-50.9277 58.6914-54.1992 54.248-54.1992C49.8047-54.1992 46.8262-50.9277 46.8262-46.0449Z"/>
  </g>
  <g id="Ultralight-S" transform="matrix(1 0 0 1 505.707 696)">
   <path d="M19.7754-1.5625L88.2812-1.5625C94.8242-1.5625 98.2422-5.12695 98.2422-11.5234L98.2422-58.7891C98.2422-65.2344 94.8242-68.75 88.2812-68.75L19.7754-68.75C13.2324-68.75 9.76562-65.2832 9.76562-58.7891L9.76562-11.5234C9.76562-5.0293 13.2324-1.5625 19.7754-1.5625ZM39.9902-20.0684L39.9902-36.1816C39.9902-39.3066 41.4062-40.6738 44.2383-40.6738L44.2383-46.3379C44.2383-52.5879 48.1445-56.7383 54.0039-56.7383C59.8633-56.7383 63.7695-52.5879 63.7695-46.3379L63.7695-40.6738C66.6504-40.6738 68.0176-39.3066 68.0176-36.1816L68.0176-20.0684C68.0176-16.8945 66.6504-15.5273 63.7695-15.5273L44.2871-15.5273C41.4062-15.5273 39.9902-16.8945 39.9902-20.0684ZM46.2891-40.6738L61.7188-40.6738L61.7188-46.3867C61.7188-51.3672 58.5938-54.6875 54.0039-54.6875C49.4141-54.6875 46.2891-51.3672 46.2891-46.3867Z"/>
  </g>
 </g>
</svg>
