<?xml version="1.0" encoding="UTF-8"?>
<!--Generator: Apple Native CoreSVG 123-->
<!DOCTYPE svg
PUBLIC "-//W3C//DTD SVG 1.1//EN"
       "http://www.w3.org/Graphics/SVG/1.1/DTD/svg11.dtd">
<svg version="1.1" xmlns="http://www.w3.org/2000/svg" xmlns:xlink="http://www.w3.org/1999/xlink" width="3300" height="2200">
 <!--glyph: "uni100431.medium", point size: 100.000000, font version: "Version 15.0d7e11", template writer version: "5"-->
 <g id="Notes">
  <rect height="2200" id="artboard" style="fill:white;opacity:1" width="3300" x="0" y="0"/>
  <line id="" style="fill:none;stroke:black;opacity:1;stroke-width:0.5;" x1="263" x2="3036" y1="292" y2="292"/>
  <text style="stroke:none;fill:black;font-family:-apple-system,&quot;SF Pro Display&quot;,&quot;SF Pro Text&quot;,Helvetica,sans-serif;font-weight:bold;" transform="matrix(1 0 0 1 263 322)">Weight/Scale Variations</text>
  <text style="stroke:none;fill:black;font-family:-apple-system,&quot;SF Pro Display&quot;,&quot;SF Pro Text&quot;,Helvetica,sans-serif;text-anchor:middle;" transform="matrix(1 0 0 1 559.711 322)">Ultralight</text>
  <text style="stroke:none;fill:black;font-family:-apple-system,&quot;SF Pro Display&quot;,&quot;SF Pro Text&quot;,Helvetica,sans-serif;text-anchor:middle;" transform="matrix(1 0 0 1 856.422 322)">Thin</text>
  <text style="stroke:none;fill:black;font-family:-apple-system,&quot;SF Pro Display&quot;,&quot;SF Pro Text&quot;,Helvetica,sans-serif;text-anchor:middle;" transform="matrix(1 0 0 1 1153.13 322)">Light</text>
  <text style="stroke:none;fill:black;font-family:-apple-system,&quot;SF Pro Display&quot;,&quot;SF Pro Text&quot;,Helvetica,sans-serif;text-anchor:middle;" transform="matrix(1 0 0 1 1449.84 322)">Regular</text>
  <text style="stroke:none;fill:black;font-family:-apple-system,&quot;SF Pro Display&quot;,&quot;SF Pro Text&quot;,Helvetica,sans-serif;text-anchor:middle;" transform="matrix(1 0 0 1 1746.56 322)">Medium</text>
  <text style="stroke:none;fill:black;font-family:-apple-system,&quot;SF Pro Display&quot;,&quot;SF Pro Text&quot;,Helvetica,sans-serif;text-anchor:middle;" transform="matrix(1 0 0 1 2043.27 322)">Semibold</text>
  <text style="stroke:none;fill:black;font-family:-apple-system,&quot;SF Pro Display&quot;,&quot;SF Pro Text&quot;,Helvetica,sans-serif;text-anchor:middle;" transform="matrix(1 0 0 1 2339.98 322)">Bold</text>
  <text style="stroke:none;fill:black;font-family:-apple-system,&quot;SF Pro Display&quot;,&quot;SF Pro Text&quot;,Helvetica,sans-serif;text-anchor:middle;" transform="matrix(1 0 0 1 2636.69 322)">Heavy</text>
  <text style="stroke:none;fill:black;font-family:-apple-system,&quot;SF Pro Display&quot;,&quot;SF Pro Text&quot;,Helvetica,sans-serif;text-anchor:middle;" transform="matrix(1 0 0 1 2933.4 322)">Black</text>
  <line id="" style="fill:none;stroke:black;opacity:1;stroke-width:0.5;" x1="263" x2="3036" y1="1903" y2="1903"/>
  <g id="" transform="matrix(1 0 0 1 263 1933)">
   <path d="M 9.24805 0.830078 C 13.5547 0.830078 17.1387 -2.74414 17.1387 -7.05078 C 17.1387 -11.3574 13.5449 -14.9316 9.23828 -14.9316 C 4.94141 -14.9316 1.36719 -11.3574 1.36719 -7.05078 C 1.36719 -2.74414 4.95117 0.830078 9.24805 0.830078 Z M 9.24805 -0.654297 C 5.70312 -0.654297 2.87109 -3.49609 2.87109 -7.05078 C 2.87109 -10.6055 5.69336 -13.4473 9.23828 -13.4473 C 12.793 -13.4473 15.6348 -10.6055 15.6445 -7.05078 C 15.6543 -3.49609 12.8027 -0.654297 9.24805 -0.654297 Z M 9.22852 -3.42773 C 9.69727 -3.42773 9.9707 -3.74023 9.9707 -4.25781 L 9.9707 -6.31836 L 12.1973 -6.31836 C 12.6953 -6.31836 13.0371 -6.57227 13.0371 -7.04102 C 13.0371 -7.51953 12.7148 -7.7832 12.1973 -7.7832 L 9.9707 -7.7832 L 9.9707 -10.0098 C 9.9707 -10.5273 9.69727 -10.8496 9.22852 -10.8496 C 8.75977 -10.8496 8.50586 -10.5078 8.50586 -10.0098 L 8.50586 -7.7832 L 6.29883 -7.7832 C 5.78125 -7.7832 5.44922 -7.51953 5.44922 -7.04102 C 5.44922 -6.57227 5.80078 -6.31836 6.29883 -6.31836 L 8.50586 -6.31836 L 8.50586 -4.25781 C 8.50586 -3.75977 8.75977 -3.42773 9.22852 -3.42773 Z"/>
  </g>
  <g id="" transform="matrix(1 0 0 1 281.506 1933)">
   <path d="M 11.709 2.91016 C 17.1582 2.91016 21.6699 -1.60156 21.6699 -7.05078 C 21.6699 -12.4902 17.1484 -17.0117 11.6992 -17.0117 C 6.25977 -17.0117 1.74805 -12.4902 1.74805 -7.05078 C 1.74805 -1.60156 6.26953 2.91016 11.709 2.91016 Z M 11.709 1.25 C 7.09961 1.25 3.41797 -2.44141 3.41797 -7.05078 C 3.41797 -11.6504 7.08984 -15.3516 11.6992 -15.3516 C 16.3086 -15.3516 20 -11.6504 20.0098 -7.05078 C 20.0195 -2.44141 16.3184 1.25 11.709 1.25 Z M 11.6895 -2.41211 C 12.207 -2.41211 12.5195 -2.77344 12.5195 -3.33984 L 12.5195 -6.23047 L 15.5762 -6.23047 C 16.123 -6.23047 16.5039 -6.51367 16.5039 -7.03125 C 16.5039 -7.55859 16.1426 -7.86133 15.5762 -7.86133 L 12.5195 -7.86133 L 12.5195 -10.9277 C 12.5195 -11.5039 12.207 -11.8555 11.6895 -11.8555 C 11.1719 -11.8555 10.8789 -11.4844 10.8789 -10.9277 L 10.8789 -7.86133 L 7.83203 -7.86133 C 7.26562 -7.86133 6.89453 -7.55859 6.89453 -7.03125 C 6.89453 -6.51367 7.28516 -6.23047 7.83203 -6.23047 L 10.8789 -6.23047 L 10.8789 -3.33984 C 10.8789 -2.79297 11.1719 -2.41211 11.6895 -2.41211 Z"/>
  </g>
  <g id="" transform="matrix(1 0 0 1 304.924 1933)">
   <path d="M 14.9707 5.67383 C 21.9336 5.67383 27.6953 -0.078125 27.6953 -7.04102 C 27.6953 -14.0039 21.9238 -19.7559 14.9609 -19.7559 C 8.00781 -19.7559 2.25586 -14.0039 2.25586 -7.04102 C 2.25586 -0.078125 8.01758 5.67383 14.9707 5.67383 Z M 14.9707 3.85742 C 8.93555 3.85742 4.08203 -1.00586 4.08203 -7.04102 C 4.08203 -13.0762 8.92578 -17.9395 14.9609 -17.9395 C 21.0059 -17.9395 25.8594 -13.0762 25.8691 -7.04102 C 25.8789 -1.00586 21.0156 3.85742 14.9707 3.85742 Z M 14.9512 -1.06445 C 15.5176 -1.06445 15.8691 -1.45508 15.8691 -2.06055 L 15.8691 -6.13281 L 20.1074 -6.13281 C 20.6934 -6.13281 21.1133 -6.46484 21.1133 -7.02148 C 21.1133 -7.59766 20.7227 -7.93945 20.1074 -7.93945 L 15.8691 -7.93945 L 15.8691 -12.1875 C 15.8691 -12.8027 15.5176 -13.1934 14.9512 -13.1934 C 14.3848 -13.1934 14.0625 -12.7832 14.0625 -12.1875 L 14.0625 -7.93945 L 9.83398 -7.93945 C 9.21875 -7.93945 8.80859 -7.59766 8.80859 -7.02148 C 8.80859 -6.46484 9.23828 -6.13281 9.83398 -6.13281 L 14.0625 -6.13281 L 14.0625 -2.06055 C 14.0625 -1.47461 14.3848 -1.06445 14.9512 -1.06445 Z"/>
  </g>
  <text style="stroke:none;fill:black;font-family:-apple-system,&quot;SF Pro Display&quot;,&quot;SF Pro Text&quot;,Helvetica,sans-serif;font-weight:bold;" transform="matrix(1 0 0 1 263 1953)">Design Variations</text>
  <text style="stroke:none;fill:black;font-family:-apple-system,&quot;SF Pro Display&quot;,&quot;SF Pro Text&quot;,Helvetica,sans-serif;" transform="matrix(1 0 0 1 263 1971)">Symbols are supported in up to nine weights and three scales.</text>
  <text style="stroke:none;fill:black;font-family:-apple-system,&quot;SF Pro Display&quot;,&quot;SF Pro Text&quot;,Helvetica,sans-serif;" transform="matrix(1 0 0 1 263 1989)">For optimal layout with text and other symbols, vertically align</text>
  <text style="stroke:none;fill:black;font-family:-apple-system,&quot;SF Pro Display&quot;,&quot;SF Pro Text&quot;,Helvetica,sans-serif;" transform="matrix(1 0 0 1 263 2007)">symbols with the adjacent text.</text>
  <rect height="14" id="" style="fill:#00AEEF;stroke:none;opacity:0.4;" width="3" x="776" y="1919"/>
  <g id="" transform="matrix(1 0 0 1 779 1933)">
   <path d="M 10.5273 0 L 12.373 0 L 7.17773 -14.0918 L 5.43945 -14.0918 L 0.244141 0 L 2.08984 0 L 3.50586 -4.0332 L 9.11133 -4.0332 Z M 6.2793 -11.9531 L 6.33789 -11.9531 L 8.59375 -5.52734 L 4.02344 -5.52734 Z"/>
  </g>
  <rect height="14" id="" style="fill:#00AEEF;stroke:none;opacity:0.4;" width="3" x="791.617" y="1919"/>
  <text style="stroke:none;fill:black;font-family:-apple-system,&quot;SF Pro Display&quot;,&quot;SF Pro Text&quot;,Helvetica,sans-serif;font-weight:bold;" transform="matrix(1 0 0 1 776 1953)">Margins</text>
  <text style="stroke:none;fill:black;font-family:-apple-system,&quot;SF Pro Display&quot;,&quot;SF Pro Text&quot;,Helvetica,sans-serif;" transform="matrix(1 0 0 1 776 1971)">Leading and trailing margins on the left and right side of each symbol</text>
  <text style="stroke:none;fill:black;font-family:-apple-system,&quot;SF Pro Display&quot;,&quot;SF Pro Text&quot;,Helvetica,sans-serif;" transform="matrix(1 0 0 1 776 1989)">can be adjusted by modifying the width of the blue rectangles.</text>
  <text style="stroke:none;fill:black;font-family:-apple-system,&quot;SF Pro Display&quot;,&quot;SF Pro Text&quot;,Helvetica,sans-serif;" transform="matrix(1 0 0 1 776 2007)">Modifications are automatically applied proportionally to all</text>
  <text style="stroke:none;fill:black;font-family:-apple-system,&quot;SF Pro Display&quot;,&quot;SF Pro Text&quot;,Helvetica,sans-serif;" transform="matrix(1 0 0 1 776 2025)">scales and weights.</text>
  <g id="" transform="matrix(1 0 0 1 1289 1933)">
   <path d="M 2.83203 3.11523 L 4.375 4.6582 C 5.22461 5.48828 6.19141 5.41992 7.06055 4.46289 L 17.2754 -6.66016 C 17.7051 -6.36719 18.0957 -6.37695 18.5645 -6.47461 L 19.6094 -6.68945 L 20.3027 -5.99609 L 20.2539 -5.47852 C 20.1855 -4.95117 20.3516 -4.53125 20.8496 -4.0332 L 21.6602 -3.22266 C 22.168 -2.71484 22.8223 -2.68555 23.3008 -3.16406 L 26.5527 -6.41602 C 27.0312 -6.89453 27.0117 -7.54883 26.5039 -8.05664 L 25.6836 -8.87695 C 25.1855 -9.375 24.7754 -9.55078 24.2383 -9.47266 L 23.7109 -9.41406 L 23.0566 -10.0781 L 23.3398 -11.2207 C 23.4863 -11.7871 23.3398 -12.2559 22.7148 -12.8613 L 20.3027 -15.2539 C 16.7578 -18.7793 12.2266 -18.6719 9.11133 -15.5371 C 8.69141 -15.1074 8.64258 -14.5215 8.91602 -14.0918 C 9.15039 -13.7207 9.62891 -13.4961 10.2734 -13.6621 C 11.7871 -14.043 13.3008 -13.9258 14.7852 -12.9199 L 14.1602 -11.3379 C 13.9258 -10.752 13.9453 -10.2734 14.1797 -9.83398 L 3.01758 0.439453 C 2.08008 1.30859 1.97266 2.25586 2.83203 3.11523 Z M 10.6738 -15.1465 C 13.3398 -17.1387 16.6504 -16.8262 19.0527 -14.4141 L 21.6797 -11.8066 C 21.9141 -11.5723 21.9434 -11.3867 21.8848 -11.0938 L 21.5039 -9.53125 L 23.0762 -7.95898 L 24.043 -8.04688 C 24.3262 -8.07617 24.4141 -8.05664 24.6387 -7.83203 L 25.2637 -7.20703 L 22.5098 -4.46289 L 21.8848 -5.07812 C 21.6602 -5.30273 21.6406 -5.40039 21.6699 -5.68359 L 21.7578 -6.64062 L 20.1953 -8.20312 L 18.5742 -7.89062 C 18.291 -7.83203 18.1445 -7.83203 17.9102 -8.07617 L 15.7324 -10.2539 C 15.5078 -10.4883 15.4785 -10.625 15.6055 -10.9473 L 16.5527 -13.2227 C 14.9512 -14.7559 12.8418 -15.6055 10.8008 -14.9512 C 10.7129 -14.9219 10.6445 -14.9414 10.6152 -14.9805 C 10.5859 -15.0293 10.5859 -15.0781 10.6738 -15.1465 Z M 4.10156 2.41211 C 3.61328 1.91406 3.78906 1.61133 4.12109 1.30859 L 15.0781 -8.80859 L 16.3086 -7.57812 L 6.15234 3.34961 C 5.84961 3.68164 5.46875 3.7793 5.06836 3.37891 Z"/>
  </g>
  <text style="stroke:none;fill:black;font-family:-apple-system,&quot;SF Pro Display&quot;,&quot;SF Pro Text&quot;,Helvetica,sans-serif;font-weight:bold;" transform="matrix(1 0 0 1 1289 1953)">Exporting</text>
  <text style="stroke:none;fill:black;font-family:-apple-system,&quot;SF Pro Display&quot;,&quot;SF Pro Text&quot;,Helvetica,sans-serif;" transform="matrix(1 0 0 1 1289 1971)">Symbols should be outlined when exporting to ensure the</text>
  <text style="stroke:none;fill:black;font-family:-apple-system,&quot;SF Pro Display&quot;,&quot;SF Pro Text&quot;,Helvetica,sans-serif;" transform="matrix(1 0 0 1 1289 1989)">design is preserved when submitting to Xcode.</text>
  <text id="template-version" style="stroke:none;fill:black;font-family:-apple-system,&quot;SF Pro Display&quot;,&quot;SF Pro Text&quot;,Helvetica,sans-serif;text-anchor:end;" transform="matrix(1 0 0 1 3036 1933)">Template v.1.0</text>
  <text style="stroke:none;fill:black;font-family:-apple-system,&quot;SF Pro Display&quot;,&quot;SF Pro Text&quot;,Helvetica,sans-serif;text-anchor:end;" transform="matrix(1 0 0 1 3036 1951)">Generated from timer</text>
  <text style="stroke:none;fill:black;font-family:-apple-system,&quot;SF Pro Display&quot;,&quot;SF Pro Text&quot;,Helvetica,sans-serif;text-anchor:end;" transform="matrix(1 0 0 1 3036 1969)">Typeset at 100 points</text>
  <text style="stroke:none;fill:black;font-family:-apple-system,&quot;SF Pro Display&quot;,&quot;SF Pro Text&quot;,Helvetica,sans-serif;" transform="matrix(1 0 0 1 263 726)">Small</text>
  <text style="stroke:none;fill:black;font-family:-apple-system,&quot;SF Pro Display&quot;,&quot;SF Pro Text&quot;,Helvetica,sans-serif;" transform="matrix(1 0 0 1 263 1156)">Medium</text>
  <text style="stroke:none;fill:black;font-family:-apple-system,&quot;SF Pro Display&quot;,&quot;SF Pro Text&quot;,Helvetica,sans-serif;" transform="matrix(1 0 0 1 263 1586)">Large</text>
 </g>
 <g id="Guides">
  <g id="H-reference" style="fill:#27AAE1;stroke:none;" transform="matrix(1 0 0 1 339 696)">
   <path d="M 54.9316 0 L 57.666 0 L 30.5664 -70.459 L 28.0762 -70.459 L 0.976562 0 L 3.66211 0 L 12.9395 -24.4629 L 45.7031 -24.4629 Z M 29.1992 -67.0898 L 29.4434 -67.0898 L 44.8242 -26.709 L 13.8184 -26.709 Z"/>
  </g>
  <line id="Baseline-S" style="fill:none;stroke:#27AAE1;opacity:1;stroke-width:0.577;" x1="263" x2="3036" y1="696" y2="696"/>
  <line id="Capline-S" style="fill:none;stroke:#27AAE1;opacity:1;stroke-width:0.577;" x1="263" x2="3036" y1="625.541" y2="625.541"/>
  <g id="H-reference" style="fill:#27AAE1;stroke:none;" transform="matrix(1 0 0 1 339 1126)">
   <path d="M 54.9316 0 L 57.666 0 L 30.5664 -70.459 L 28.0762 -70.459 L 0.976562 0 L 3.66211 0 L 12.9395 -24.4629 L 45.7031 -24.4629 Z M 29.1992 -67.0898 L 29.4434 -67.0898 L 44.8242 -26.709 L 13.8184 -26.709 Z"/>
  </g>
  <line id="Baseline-M" style="fill:none;stroke:#27AAE1;opacity:1;stroke-width:0.577;" x1="263" x2="3036" y1="1126" y2="1126"/>
  <line id="Capline-M" style="fill:none;stroke:#27AAE1;opacity:1;stroke-width:0.577;" x1="263" x2="3036" y1="1055.54" y2="1055.54"/>
  <g id="H-reference" style="fill:#27AAE1;stroke:none;" transform="matrix(1 0 0 1 339 1556)">
   <path d="M 54.9316 0 L 57.666 0 L 30.5664 -70.459 L 28.0762 -70.459 L 0.976562 0 L 3.66211 0 L 12.9395 -24.4629 L 45.7031 -24.4629 Z M 29.1992 -67.0898 L 29.4434 -67.0898 L 44.8242 -26.709 L 13.8184 -26.709 Z"/>
  </g>
  <line id="Baseline-L" style="fill:none;stroke:#27AAE1;opacity:1;stroke-width:0.577;" x1="263" x2="3036" y1="1556" y2="1556"/>
  <line id="Capline-L" style="fill:none;stroke:#27AAE1;opacity:1;stroke-width:0.577;" x1="263" x2="3036" y1="1485.54" y2="1485.54"/>
  <rect height="119.336" id="left-margin" style="fill:#00AEEF;stroke:none;opacity:0.4;" width="8.74023" x="1391.3" y="1030.79"/>
  <rect height="119.336" id="right-margin" style="fill:#00AEEF;stroke:none;opacity:0.4;" width="8.74023" x="1499.65" y="1030.79"/>
 </g>
 <g id="Symbols">
  <g id="Black-L" transform="matrix(1 0 0 1 2854.05 1556)">
   <path d="M 79.3457 32.8125 C 117.334 32.8125 147.412 2.68555 147.412 -35.2539 C 147.412 -73.1934 117.383 -103.32 79.3457 -103.32 C 73.7305 -103.32 69.7266 -100 69.7266 -94.5312 L 69.7266 -75.1465 C 69.7266 -70.3613 73.2422 -66.7969 77.9785 -66.7969 C 82.7148 -66.7969 86.1328 -70.3613 86.1328 -75.1465 L 86.1328 -83.0078 C 109.326 -79.6387 126.953 -59.5215 126.953 -35.2539 C 126.953 -9.08203 105.859 12.3535 79.3457 12.3535 C 52.7832 12.3535 31.6895 -9.08203 31.7383 -35.2539 C 31.7383 -45.1172 34.9609 -54.7852 40.332 -62.5488 C 44.1895 -68.5059 45.3125 -73.4375 40.5762 -77.832 C 36.0352 -82.0801 28.8086 -81.4941 24.2676 -75.0488 C 16.2109 -63.916 11.2793 -50.0488 11.2793 -35.2539 C 11.2793 2.68555 41.3574 32.8125 79.3457 32.8125 Z M 89.7949 -23.3398 C 95.8008 -29.5898 94.5312 -38.4277 87.5 -42.9199 L 59.4238 -61.0352 C 53.6133 -64.7461 48.584 -59.5703 52.2461 -53.8086 L 70.3613 -25.7324 C 74.8535 -18.75 83.6914 -17.3828 89.7949 -23.3398 Z"/>
  </g>
  <g id="Heavy-L" transform="matrix(1 0 0 1 2558.39 1556)">
   <path d="M 78.2715 31.7383 C 115.527 31.7383 145.312 1.95312 145.312 -35.2539 C 145.312 -72.4609 115.576 -102.246 78.3203 -102.246 C 73.2422 -102.246 69.873 -99.3164 69.873 -94.4336 L 69.873 -73.8281 C 69.873 -69.5801 72.9004 -66.4062 77.0996 -66.4062 C 81.2988 -66.4062 84.2773 -69.5801 84.2773 -73.8281 L 84.2773 -84.6191 C 108.789 -81.543 127.49 -60.6445 127.49 -35.2539 C 127.49 -8.10547 105.713 13.9648 78.2715 13.9648 C 50.8789 13.9648 29.0039 -8.10547 29.0527 -35.2539 C 29.0527 -46.0449 32.7148 -56.3965 38.8184 -64.5508 C 42.1875 -69.5801 43.0664 -73.9746 39.0137 -77.7832 C 35.1562 -81.4453 28.9062 -80.957 25 -75.4883 C 16.5039 -64.3555 11.2793 -50.293 11.2793 -35.2539 C 11.2793 1.95312 41.0645 31.7383 78.2715 31.7383 Z M 88.5254 -24.0234 C 94.1895 -29.9805 93.0176 -38.2812 86.3281 -42.627 L 57.0801 -61.9629 C 52.002 -65.2832 47.4121 -60.6445 50.6836 -55.5664 L 70.0195 -26.3672 C 74.3652 -19.6777 82.7148 -18.4082 88.5254 -24.0234 Z"/>
  </g>
  <g id="Bold-L" transform="matrix(1 0 0 1 2262.88 1556)">
   <path d="M 77.0996 30.5664 C 113.525 30.5664 142.92 1.12305 142.92 -35.2539 C 142.92 -71.6309 113.525 -101.074 77.1484 -101.074 C 72.7539 -101.074 70.0195 -98.5352 70.0195 -94.2871 L 70.0195 -72.3145 C 70.0195 -68.75 72.5586 -66.0156 76.123 -66.0156 C 79.6875 -66.0156 82.1777 -68.75 82.1777 -72.3145 L 82.1777 -86.3281 C 108.154 -83.7402 128.125 -61.8652 128.125 -35.2539 C 128.125 -7.03125 105.469 15.8203 77.0996 15.8203 C 48.7305 15.8203 26.0254 -7.03125 26.0254 -35.2539 C 26.0742 -47.0703 30.2246 -58.1543 37.1094 -66.8457 C 39.8926 -70.8496 40.5273 -74.5605 37.2559 -77.7344 C 34.1309 -80.7617 29.0527 -80.4199 25.7812 -76.0254 C 16.7969 -64.8438 11.2793 -50.5859 11.2793 -35.2539 C 11.2793 1.12305 40.7227 30.5664 77.0996 30.5664 Z M 87.0605 -24.8535 C 92.4316 -30.4199 91.3086 -38.1348 84.9609 -42.3828 L 54.4922 -63.0859 C 50.1465 -65.918 46.1426 -61.8652 48.9746 -57.5684 L 69.6777 -27.0508 C 73.877 -20.752 81.5918 -19.5312 87.0605 -24.8535 Z"/>
  </g>
  <g id="Semibold-L" transform="matrix(1 0 0 1 1966.97 1556)">
   <path d="M 76.2695 29.7852 C 112.109 29.7852 141.309 0.585938 141.309 -35.2051 C 141.309 -71.0449 112.158 -100.244 76.3184 -100.244 C 72.3633 -100.244 70.1172 -97.9492 70.1172 -94.2383 L 70.1172 -71.2402 C 70.1172 -68.1152 72.3145 -65.7227 75.4395 -65.7227 C 78.6133 -65.7227 80.7617 -68.1152 80.7617 -71.2402 L 80.7617 -87.5488 C 107.764 -85.2051 128.564 -62.7441 128.564 -35.2051 C 128.564 -6.29883 105.322 17.0898 76.2695 17.0898 C 47.2656 17.0898 23.9258 -6.29883 23.9746 -35.2051 C 24.0234 -47.8027 28.5156 -59.4238 35.9863 -68.4082 C 38.3301 -71.6797 38.7695 -75 36.084 -77.6855 C 33.3984 -80.2734 29.1016 -79.9805 26.3184 -76.3672 C 16.9922 -65.1855 11.2793 -50.7812 11.2793 -35.2051 C 11.2793 0.585938 40.4785 29.7852 76.2695 29.7852 Z M 86.084 -25.3906 C 91.2109 -30.7617 90.1367 -38.0371 84.0332 -42.1875 L 52.6855 -63.8184 C 48.877 -66.3574 45.2637 -62.6953 47.8027 -58.9355 L 69.3848 -27.5391 C 73.5352 -21.4844 80.8594 -20.3125 86.084 -25.3906 Z"/>
  </g>
  <g id="Medium-L" transform="matrix(1 0 0 1 1670.87 1556)">
   <path d="M 75.6836 29.1992 C 111.035 29.1992 140.088 0.146484 140.088 -35.2051 C 140.088 -70.6055 111.084 -99.6094 75.7324 -99.6094 C 72.1191 -99.6094 70.2148 -97.5586 70.2148 -94.1406 L 70.2148 -70.459 C 70.2148 -67.6758 72.1191 -65.4785 74.9512 -65.4785 C 77.7832 -65.4785 79.6875 -67.6758 79.6875 -70.459 L 79.6875 -88.4277 C 107.422 -86.3281 128.906 -63.3789 128.906 -35.2051 C 128.906 -5.76172 105.225 18.0176 75.6836 18.0176 C 46.1426 18.0176 22.3633 -5.76172 22.4121 -35.2051 C 22.4609 -48.3398 27.1973 -60.3516 35.1074 -69.5801 C 37.1582 -72.3145 37.4512 -75.293 35.1562 -77.6367 C 32.8613 -79.9316 29.1504 -79.6875 26.7578 -76.6113 C 17.1875 -65.4297 11.2793 -50.9277 11.2793 -35.2051 C 11.2793 0.146484 40.2832 29.1992 75.6836 29.1992 Z M 85.3516 -25.8301 C 90.2832 -30.957 89.209 -37.9883 83.3496 -42.041 L 51.3184 -64.3555 C 47.9004 -66.6992 44.5801 -63.3301 46.875 -59.9609 L 69.1895 -27.8809 C 73.2422 -22.0215 80.2734 -20.8984 85.3516 -25.8301 Z"/>
  </g>
  <g id="Regular-L" transform="matrix(1 0 0 1 1374.97 1556)">
   <path d="M 74.8535 28.3691 C 109.668 28.3691 138.477 -0.390625 138.477 -35.2051 C 138.477 -70.0195 109.717 -98.7793 74.9023 -98.7793 C 71.7285 -98.7793 70.3125 -97.0215 70.3125 -94.0918 L 70.3125 -69.4336 C 70.3125 -67.0898 71.875 -65.1855 74.3164 -65.1855 C 76.709 -65.1855 78.2715 -67.0898 78.2715 -69.4336 L 78.2715 -89.5996 C 106.982 -87.793 129.297 -64.2578 129.297 -35.2051 C 129.297 -5.0293 105.078 19.2871 74.8535 19.2871 C 44.6777 19.2871 20.3125 -5.0293 20.3613 -35.2051 C 20.4102 -49.0234 25.5371 -61.5723 33.9355 -71.0938 C 35.5957 -73.1445 35.7422 -75.7324 33.9355 -77.5879 C 32.1777 -79.4922 29.248 -79.2969 27.2949 -76.9531 C 17.3828 -65.7715 11.2793 -51.123 11.2793 -35.2051 C 11.2793 -0.390625 40.0879 28.3691 74.8535 28.3691 Z M 84.375 -26.3672 C 89.0625 -31.2988 88.0859 -37.8906 82.4219 -41.8457 L 49.5117 -65.0879 C 46.6309 -67.0898 43.7012 -64.1602 45.752 -61.2793 L 68.9453 -28.3691 C 72.9004 -22.7539 79.4922 -21.6797 84.375 -26.3672 Z"/>
  </g>
  <g id="Light-L" transform="matrix(1 0 0 1 1079.18 1556)">
   <path d="M 73.9258 27.4902 C 108.301 27.4902 136.621 -0.830078 136.621 -35.1562 C 136.621 -69.5312 108.35 -97.8516 73.9746 -97.8516 C 71.0449 -97.8516 69.873 -96.3867 69.873 -93.8965 L 69.873 -68.9453 C 69.873 -67.1387 71.0449 -65.6738 72.998 -65.6738 C 74.9023 -65.6738 76.0742 -67.1387 76.0742 -68.9453 L 76.0742 -90.8691 C 106.104 -89.6484 129.688 -65.2344 129.688 -35.1562 C 129.688 -4.3457 104.785 20.6055 73.9258 20.6055 C 43.1152 20.6055 18.1641 -4.3457 18.1641 -35.1562 C 18.2129 -49.7559 23.8281 -62.9395 32.9102 -72.8516 C 34.2285 -74.4141 34.3262 -76.3672 33.0078 -77.7832 C 31.6406 -79.1992 29.4434 -79.1016 27.9297 -77.3926 C 17.627 -66.2109 11.2793 -51.3672 11.2793 -35.1562 C 11.2793 -0.830078 39.5996 27.4902 73.9258 27.4902 Z M 82.6172 -27.4414 C 86.9629 -32.0312 85.9863 -38.0371 80.8594 -41.748 L 48.4863 -64.9414 C 45.9473 -66.6992 43.457 -64.209 45.2637 -61.6699 L 68.457 -29.2969 C 72.1191 -24.1699 78.125 -23.1445 82.6172 -27.4414 Z"/>
  </g>
  <g id="Thin-L" transform="matrix(1 0 0 1 783.693 1556)">
   <path d="M 72.7051 26.3184 C 106.494 26.3184 134.18 -1.36719 134.18 -35.1074 C 134.18 -68.8965 106.494 -96.582 72.7051 -96.582 C 70.0684 -96.582 69.3359 -95.5566 69.3359 -93.6523 L 69.3359 -68.3105 C 69.3359 -67.1875 69.9707 -66.2598 71.2402 -66.2598 C 72.5586 -66.2598 73.1934 -67.1875 73.1934 -68.3105 L 73.1934 -92.5781 C 104.932 -92.0898 130.176 -66.6016 130.176 -35.1074 C 130.176 -3.41797 104.443 22.3145 72.7051 22.3145 C 41.0156 22.3145 15.2832 -3.41797 15.2832 -35.1074 C 15.2832 -50.6836 21.5332 -64.7949 31.5918 -75.1953 C 32.4219 -76.0742 32.5195 -77.2461 31.7383 -78.0762 C 30.9082 -78.8574 29.6875 -78.8574 28.8086 -77.9297 C 18.0176 -66.7969 11.2793 -51.6602 11.2793 -35.1074 C 11.2793 -1.36719 38.9648 26.3184 72.7051 26.3184 Z M 80.3223 -28.9062 C 84.1309 -33.0078 83.252 -38.2812 78.7598 -41.6016 L 47.1191 -64.7461 C 45.0684 -66.2109 43.1152 -64.2578 44.6777 -62.207 L 67.7734 -30.5664 C 71.0449 -26.0742 76.3184 -25.0977 80.3223 -28.9062 Z"/>
  </g>
  <g id="Ultralight-L" transform="matrix(1 0 0 1 487.616 1556)">
   <path d="M 72.1191 25.7324 C 105.566 25.7324 132.91 -1.61133 132.91 -35.1074 C 132.91 -68.5547 105.566 -95.8984 72.0703 -95.8984 C 69.5801 -95.8984 69.043 -95.1172 69.043 -93.5059 L 69.043 -68.0176 C 69.043 -67.1875 69.3848 -66.5527 70.3613 -66.5527 C 71.3379 -66.5527 71.6797 -67.1875 71.6797 -68.0176 L 71.6797 -93.4082 C 104.248 -93.4082 130.42 -67.334 130.42 -35.1074 C 130.42 -2.97852 104.248 23.2422 72.1191 23.2422 C 39.9414 23.2422 13.7695 -2.97852 13.7695 -35.1074 C 13.7695 -51.1719 20.3613 -65.7227 30.9082 -76.3672 C 31.4941 -76.9531 31.5918 -77.6855 31.0547 -78.2227 C 30.5664 -78.7109 29.834 -78.7109 29.248 -78.1738 C 18.2129 -67.0898 11.2793 -51.8555 11.2793 -35.1074 C 11.2793 -1.61133 38.623 25.7324 72.1191 25.7324 Z M 79.1504 -29.6875 C 82.7148 -33.4961 81.8359 -38.3789 77.6855 -41.5039 L 46.3867 -64.6484 C 44.5801 -65.9668 42.9688 -64.3066 44.3359 -62.5 L 67.3828 -31.25 C 70.5078 -27.0508 75.3906 -26.123 79.1504 -29.6875 Z"/>
  </g>
  <g id="Black-M" transform="matrix(1 0 0 1 2870.97 1126)">
   <path d="M 62.4023 18.4082 C 92.627 18.4082 116.113 -5.07812 116.113 -35.2539 C 116.113 -65.4297 92.627 -88.916 62.4023 -88.916 C 57.373 -88.916 53.6621 -86.0352 53.6621 -81.25 L 53.6621 -67.7246 C 53.6621 -63.5254 56.7383 -60.4492 60.8887 -60.4492 C 65.0391 -60.4492 68.0664 -63.5254 68.0664 -67.7246 L 68.0664 -70.8984 C 85.0098 -68.0176 97.8027 -53.0762 97.8027 -35.2539 C 97.8027 -15.8691 82.1777 0.146484 62.4023 0.146484 C 42.6758 0.146484 27.002 -15.8691 27.002 -35.2539 C 27.002 -42.041 29.1504 -48.9746 32.7148 -54.6387 C 36.2793 -60.2051 37.4023 -64.4531 33.0566 -68.4082 C 28.9062 -72.2168 22.3145 -71.6309 18.2129 -65.7227 C 12.3535 -57.1289 8.74023 -46.5332 8.74023 -35.2539 C 8.74023 -5.07812 32.1777 18.4082 62.4023 18.4082 Z M 70.3613 -25.6348 C 75.2441 -30.7129 74.2188 -37.9395 68.5547 -41.4551 L 48.6328 -53.8574 C 43.4082 -57.1289 39.0625 -52.6367 42.2852 -47.5098 L 54.6875 -27.5879 C 58.1543 -21.9238 65.4297 -20.8008 70.3613 -25.6348 Z"/>
  </g>
  <g id="Heavy-M" transform="matrix(1 0 0 1 2575.19 1126)">
   <path d="M 61.5234 17.5293 C 91.0156 17.5293 114.258 -5.76172 114.258 -35.2539 C 114.258 -64.7461 91.0156 -88.0371 61.5234 -88.0371 C 57.0312 -88.0371 53.9062 -85.4492 53.9062 -81.2012 L 53.9062 -66.4062 C 53.9062 -62.6465 56.5918 -59.9121 60.2539 -59.9121 C 63.9648 -59.9121 66.6016 -62.6465 66.6016 -66.4062 L 66.6016 -72.2656 C 84.668 -69.6777 98.3398 -54.0527 98.3398 -35.2539 C 98.3398 -15.0391 82.0312 1.61133 61.5234 1.61133 C 40.9668 1.61133 24.6582 -15.0391 24.6582 -35.2539 C 24.6582 -42.8711 27.1973 -50.3418 31.3477 -56.3477 C 34.4238 -61.084 35.3027 -64.8926 31.5918 -68.3105 C 28.0273 -71.6309 22.3633 -71.1426 18.8477 -66.1133 C 12.5488 -57.4707 8.74023 -46.7285 8.74023 -35.2539 C 8.74023 -5.76172 31.9824 17.5293 61.5234 17.5293 Z M 69.4336 -26.123 C 74.0723 -30.957 73.0469 -37.793 67.6758 -41.2109 L 46.3867 -54.9316 C 41.7969 -57.8125 37.8906 -53.8086 40.7227 -49.3164 L 54.4434 -27.9785 C 57.9102 -22.6074 64.7461 -21.5332 69.4336 -26.123 Z"/>
  </g>
  <g id="Bold-M" transform="matrix(1 0 0 1 2279.5 1126)">
   <path d="M 60.498 16.5039 C 89.209 16.5039 112.207 -6.54297 112.207 -35.2539 C 112.207 -63.9648 89.209 -87.0117 60.498 -87.0117 C 56.6895 -87.0117 54.1992 -84.7656 54.1992 -81.1035 L 54.1992 -64.8926 C 54.1992 -61.7188 56.4453 -59.3262 59.6191 -59.3262 C 62.7441 -59.3262 64.9902 -61.7188 64.9902 -64.8926 L 64.9902 -73.7793 C 84.2285 -71.4844 98.9258 -55.127 98.9258 -35.2539 C 98.9258 -14.0625 81.8848 3.22266 60.498 3.22266 C 39.1113 3.22266 22.0215 -14.0625 22.0215 -35.2539 C 22.0703 -43.7988 24.9512 -51.9043 29.7852 -58.3496 C 32.3242 -62.0605 32.959 -65.332 29.9316 -68.1641 C 27.0508 -70.9473 22.4121 -70.5566 19.4824 -66.5039 C 12.8418 -57.8613 8.74023 -46.9727 8.74023 -35.2539 C 8.74023 -6.54297 31.7383 16.5039 60.498 16.5039 Z M 68.3594 -26.6602 C 72.7539 -31.2012 71.8262 -37.5977 66.6992 -40.918 L 43.7988 -56.1523 C 39.9902 -58.6426 36.5234 -55.127 39.0137 -51.3184 L 54.1992 -28.4668 C 57.5684 -23.3398 63.916 -22.3633 68.3594 -26.6602 Z"/>
  </g>
  <g id="Semibold-M" transform="matrix(1 0 0 1 1983.5 1126)">
   <path d="M 59.7656 15.7715 C 87.9395 15.7715 110.791 -7.08008 110.791 -35.2539 C 110.791 -63.3789 87.9883 -86.2793 59.8145 -86.2793 C 56.4453 -86.2793 54.3945 -84.2773 54.3945 -81.0547 L 54.3945 -63.8184 C 54.3945 -61.0352 56.3477 -58.9355 59.1309 -58.9355 C 61.9141 -58.9355 63.8672 -61.0352 63.8672 -63.8184 L 63.8672 -74.8047 C 83.9355 -72.7051 99.3164 -55.8594 99.3164 -35.2539 C 99.3164 -13.3789 81.7871 4.3457 59.7656 4.3457 C 37.793 4.3457 20.166 -13.3789 20.2148 -35.2539 C 20.2637 -44.3848 23.4375 -52.9785 28.7598 -59.668 C 30.8594 -62.7441 31.2988 -65.6738 28.8086 -68.1152 C 26.416 -70.459 22.4609 -70.2148 19.9707 -66.8457 C 12.9883 -58.1543 8.74023 -47.1191 8.74023 -35.2539 C 8.74023 -7.08008 31.5918 15.7715 59.7656 15.7715 Z M 67.627 -27.0508 C 71.8262 -31.3965 70.9473 -37.4512 66.0156 -40.7227 L 42.041 -56.9824 C 38.7207 -59.1797 35.5957 -56.0547 37.793 -52.7344 L 54.0527 -28.8086 C 57.3242 -23.8281 63.3789 -22.9004 67.627 -27.0508 Z"/>
  </g>
  <g id="Medium-M" transform="matrix(1 0 0 1 1687.3 1126)">
   <path d="M 59.2285 15.2832 C 87.0117 15.2832 109.766 -7.4707 109.766 -35.2539 C 109.766 -62.9883 87.0605 -85.7422 59.2773 -85.7422 C 56.25 -85.7422 54.541 -83.9355 54.541 -81.0059 L 54.541 -63.0371 C 54.541 -60.5469 56.2988 -58.5938 58.7891 -58.5938 C 61.2793 -58.5938 63.0371 -60.5469 63.0371 -63.0371 L 63.0371 -75.5859 C 83.6914 -73.6816 99.6094 -56.3965 99.6094 -35.2539 C 99.6094 -12.8418 81.6895 5.17578 59.2285 5.17578 C 36.8164 5.17578 18.7988 -12.8418 18.8477 -35.2539 C 18.8965 -44.873 22.2656 -53.8086 27.9297 -60.6934 C 29.7852 -63.2324 30.0781 -65.918 27.9785 -68.0176 C 25.8789 -70.1172 22.5098 -69.9219 20.3125 -67.041 C 13.1348 -58.3496 8.74023 -47.2656 8.74023 -35.2539 C 8.74023 -7.4707 31.4941 15.2832 59.2285 15.2832 Z M 67.0898 -27.3438 C 71.0938 -31.543 70.2637 -37.3047 65.4785 -40.625 L 40.7227 -57.6172 C 37.793 -59.6191 34.9121 -56.7383 36.8652 -53.8086 L 53.9062 -29.0527 C 57.1777 -24.2188 62.9395 -23.3398 67.0898 -27.3438 Z"/>
  </g>
  <g id="Regular-M" transform="matrix(1 0 0 1 1391.3 1126)">
   <path d="M 58.5449 14.5508 C 85.791 14.5508 108.35 -8.00781 108.35 -35.2539 C 108.35 -62.4512 85.8398 -85.0586 58.5938 -85.0586 C 56.0059 -85.0586 54.7363 -83.4961 54.7363 -80.957 L 54.7363 -62.0117 C 54.7363 -59.9121 56.2012 -58.2031 58.3008 -58.2031 C 60.4492 -58.2031 61.9141 -59.9121 61.9141 -62.0117 L 61.9141 -76.6113 C 83.3984 -74.9023 100 -57.1289 100 -35.2539 C 100 -12.207 81.5918 6.25 58.5449 6.25 C 35.498 6.25 16.9922 -12.207 17.041 -35.2539 C 17.0898 -45.5078 20.752 -54.834 26.9043 -62.0117 C 28.3691 -63.916 28.4668 -66.2109 26.8555 -67.9199 C 25.2441 -69.6777 22.5586 -69.5312 20.752 -67.334 C 13.3301 -58.6426 8.74023 -47.4121 8.74023 -35.2539 C 8.74023 -8.00781 31.3477 14.5508 58.5449 14.5508 Z M 66.3574 -27.7344 C 70.2148 -31.7383 69.4336 -37.207 64.7949 -40.4297 L 38.9648 -58.4473 C 36.5234 -60.1562 33.9844 -57.6172 35.6934 -55.1758 L 53.7109 -29.3457 C 56.9824 -24.707 62.4023 -23.877 66.3574 -27.7344 Z"/>
  </g>
  <g id="Light-M" transform="matrix(1 0 0 1 1095.42 1126)">
   <path d="M 57.7148 13.7695 C 84.5215 13.7695 106.689 -8.39844 106.689 -35.2051 C 106.689 -62.0117 84.5703 -84.1797 57.7637 -84.1797 C 55.3711 -84.1797 54.3457 -82.9102 54.3457 -80.7617 L 54.3457 -61.5723 C 54.3457 -59.9609 55.4199 -58.5938 57.1289 -58.5938 C 58.8379 -58.5938 59.9609 -59.9609 59.9609 -61.5723 L 59.9609 -77.7832 C 82.6172 -76.5625 100.342 -58.0566 100.342 -35.2051 C 100.342 -11.5723 81.3477 7.4707 57.7148 7.4707 C 34.082 7.4707 15.0391 -11.5723 15.0879 -35.2051 C 15.0879 -46.1426 19.2383 -56.1035 25.9766 -63.623 C 27.1484 -65.0391 27.2461 -66.7969 25.9766 -68.1152 C 24.7559 -69.4336 22.7051 -69.3359 21.3379 -67.7246 C 13.5742 -59.0332 8.74023 -47.6074 8.74023 -35.2051 C 8.74023 -8.39844 30.9082 13.7695 57.7148 13.7695 Z M 64.7949 -28.7109 C 68.3105 -32.4219 67.5781 -37.3535 63.3789 -40.332 L 38.0371 -58.3496 C 35.9375 -59.8145 33.7891 -57.666 35.3027 -55.5664 L 53.2715 -30.2246 C 56.25 -26.0254 61.1816 -25.1953 64.7949 -28.7109 Z"/>
  </g>
  <g id="Thin-M" transform="matrix(1 0 0 1 799.806 1126)">
   <path d="M 56.6406 12.7441 C 82.9102 12.7441 104.492 -8.83789 104.492 -35.1562 C 104.492 -61.4746 82.9102 -83.0566 56.6406 -83.0566 C 54.4922 -83.0566 53.8574 -82.1777 53.8574 -80.5664 L 53.8574 -61.0352 C 53.8574 -59.9609 54.4434 -59.1309 55.6152 -59.1309 C 56.7383 -59.1309 57.3242 -59.9609 57.3242 -61.0352 L 57.3242 -79.2969 C 81.5918 -78.7598 100.781 -59.2285 100.781 -35.1562 C 100.781 -10.791 81.0059 8.98438 56.6406 8.98438 C 32.2266 8.98438 12.4512 -10.791 12.4512 -35.1562 C 12.4512 -47.0215 17.1875 -57.7148 24.7559 -65.6738 C 25.5371 -66.5527 25.5859 -67.627 24.8535 -68.3594 C 24.1211 -69.1406 22.9492 -69.0918 22.1191 -68.2129 C 13.8672 -59.5703 8.74023 -47.9004 8.74023 -35.1562 C 8.74023 -8.83789 30.3223 12.7441 56.6406 12.7441 Z M 62.7441 -30.0293 C 65.8203 -33.3008 65.1367 -37.5488 61.4746 -40.1855 L 36.8164 -58.1543 C 35.1074 -59.3262 33.4961 -57.7148 34.7168 -56.0547 L 52.6367 -31.3477 C 55.3223 -27.7344 59.5703 -26.9531 62.7441 -30.0293 Z"/>
  </g>
  <g id="Ultralight-M" transform="matrix(1 0 0 1 503.656 1126)">
   <path d="M 56.0547 12.207 C 82.0801 12.207 103.369 -9.08203 103.369 -35.1562 C 103.369 -61.1816 82.0801 -82.4707 56.0547 -82.4707 C 54.0527 -82.4707 53.6133 -81.7871 53.6133 -80.4199 L 53.6133 -60.7422 C 53.6133 -60.0098 53.9551 -59.4238 54.7852 -59.4238 C 55.6641 -59.4238 56.0059 -60.0098 56.0059 -60.7422 L 56.0059 -80.0781 C 81.0547 -79.8828 100.977 -59.8633 100.977 -35.1562 C 100.977 -10.3516 80.8594 9.81445 56.0547 9.81445 C 31.2988 9.81445 11.1328 -10.3516 11.1328 -35.1562 C 11.1328 -47.4609 16.1133 -58.5938 24.1699 -66.748 C 24.707 -67.2852 24.7559 -68.0176 24.2676 -68.5059 C 23.7793 -68.9453 23.0957 -68.9453 22.5586 -68.457 C 14.0625 -59.8145 8.74023 -48.0469 8.74023 -35.1562 C 8.74023 -9.08203 30.0293 12.207 56.0547 12.207 Z M 61.6699 -30.7129 C 64.5508 -33.7402 63.8672 -37.6465 60.498 -40.1367 L 36.1816 -58.0566 C 34.7168 -59.1309 33.3496 -57.7637 34.4727 -56.2988 L 52.3438 -31.9336 C 54.834 -28.6133 58.7402 -27.832 61.6699 -30.7129 Z"/>
  </g>
  <g id="Black-S" transform="matrix(1 0 0 1 2884.57 696)">
   <path d="M 48.8281 6.73828 C 72.4609 6.73828 90.8203 -11.6699 90.8203 -35.2539 C 90.8203 -58.8379 72.4609 -77.2461 48.8281 -77.2461 C 44.9219 -77.2461 42.041 -75 42.041 -71.2891 L 42.041 -60.5957 C 42.041 -57.3242 44.4336 -54.9316 47.6562 -54.9316 C 50.8789 -54.9316 53.2227 -57.3242 53.2227 -60.5957 L 53.2227 -63.2324 C 66.6016 -61.0352 76.6602 -49.2676 76.6602 -35.2539 C 76.6602 -20.0195 64.3555 -7.42188 48.8281 -7.42188 C 33.3008 -7.42188 20.9961 -20.0195 20.9961 -35.2539 C 20.9961 -40.625 22.7051 -46.0938 25.5371 -50.5371 C 28.2715 -54.834 29.1504 -58.1543 25.7812 -61.2305 C 22.5586 -64.1602 17.4805 -63.7207 14.3066 -59.1309 C 9.66797 -52.3926 6.83594 -44.0918 6.83594 -35.2539 C 6.83594 -11.6699 25.1953 6.73828 48.8281 6.73828 Z M 55.0781 -27.7344 C 58.8867 -31.6895 58.0566 -37.3535 53.6621 -40.0879 L 37.9395 -49.9023 C 33.8867 -52.4414 30.5176 -48.9746 33.0078 -44.9707 L 42.8223 -29.248 C 45.5566 -24.8535 51.2207 -23.9746 55.0781 -27.7344 Z"/>
  </g>
  <g id="Heavy-S" transform="matrix(1 0 0 1 2588.47 696)">
   <path d="M 48.2422 6.15234 C 71.3379 6.15234 89.5996 -12.1582 89.5996 -35.2539 C 89.5996 -58.3496 71.3867 -76.6602 48.2422 -76.6602 C 44.7266 -76.6602 42.2852 -74.6094 42.2852 -71.2402 L 42.2852 -59.6191 C 42.2852 -56.6895 44.4336 -54.4922 47.3145 -54.4922 C 50.2441 -54.4922 52.3438 -56.6895 52.3438 -59.6191 L 52.3438 -64.1602 C 66.3574 -62.1094 77.002 -49.9023 77.002 -35.2539 C 77.002 -19.4336 64.2578 -6.44531 48.2422 -6.44531 C 32.1777 -6.44531 19.3848 -19.4336 19.4336 -35.2539 C 19.4336 -41.1621 21.3379 -47.0215 24.5605 -51.709 C 27.002 -55.3711 27.6855 -58.3984 24.7559 -61.1328 C 21.9727 -63.7207 17.4805 -63.3789 14.6973 -59.375 C 9.81445 -52.6367 6.83594 -44.2383 6.83594 -35.2539 C 6.83594 -12.1582 25.0977 6.15234 48.2422 6.15234 Z M 54.541 -27.9785 C 58.2031 -31.7871 57.4219 -37.207 53.125 -39.8926 L 36.2793 -50.7324 C 32.7148 -53.0273 29.6387 -49.8535 31.8848 -46.3379 L 42.7246 -29.4922 C 45.4102 -25.1953 50.8301 -24.3652 54.541 -27.9785 Z"/>
  </g>
  <g id="Bold-S" transform="matrix(1 0 0 1 2292.44 696)">
   <path d="M 47.5586 5.46875 C 70.1172 5.46875 88.2324 -12.6953 88.2324 -35.2539 C 88.2324 -57.8125 70.166 -75.9766 47.5586 -75.9766 C 44.5312 -75.9766 42.5293 -74.1699 42.5293 -71.1914 L 42.5293 -58.4961 C 42.5293 -55.957 44.3848 -54.0039 46.9727 -54.0039 C 49.5117 -54.0039 51.3184 -55.957 51.3184 -58.4961 L 51.3184 -65.1855 C 66.1621 -63.2812 77.4414 -50.5859 77.4414 -35.2539 C 77.4414 -18.75 64.209 -5.37109 47.5586 -5.37109 C 30.9082 -5.37109 17.627 -18.75 17.627 -35.2539 C 17.6758 -41.7969 19.873 -48.0469 23.5352 -53.0273 C 25.5371 -56.0059 26.0254 -58.6914 23.6328 -60.9863 C 21.2891 -63.2324 17.5293 -62.9395 15.1367 -59.668 C 9.96094 -52.8809 6.83594 -44.3848 6.83594 -35.2539 C 6.83594 -12.6953 24.9512 5.46875 47.5586 5.46875 Z M 53.9062 -28.3203 C 57.4219 -31.9336 56.6895 -37.0117 52.5391 -39.6973 L 34.4727 -51.709 C 31.3965 -53.6621 28.6133 -50.8789 30.5664 -47.8516 L 42.5781 -29.7363 C 45.2637 -25.6348 50.3418 -24.8535 53.9062 -28.3203 Z"/>
  </g>
  <g id="Semibold-S" transform="matrix(1 0 0 1 1996.2 696)">
   <path d="M 47.0703 4.98047 C 69.2871 4.98047 87.3047 -13.0859 87.3047 -35.2539 C 87.3047 -57.4219 69.2871 -75.4883 47.1191 -75.4883 C 44.4336 -75.4883 42.7246 -73.8281 42.7246 -71.1914 L 42.7246 -57.7637 C 42.7246 -55.4199 44.3848 -53.6621 46.6797 -53.6621 C 49.0234 -53.6621 50.6348 -55.4199 50.6348 -57.7637 L 50.6348 -65.8691 C 65.9668 -64.0625 77.6855 -51.0742 77.6855 -35.2539 C 77.6855 -18.3105 64.1113 -4.58984 47.0703 -4.58984 C 30.0293 -4.58984 16.4062 -18.3105 16.4062 -35.2539 C 16.4551 -42.2363 18.7988 -48.7793 22.7539 -53.9062 C 24.5605 -56.3965 24.9023 -58.8867 22.8027 -60.9375 C 20.8008 -62.8906 17.5293 -62.6465 15.4297 -59.8633 C 10.1074 -53.0762 6.83594 -44.4824 6.83594 -35.2539 C 6.83594 -13.0859 24.9023 4.98047 47.0703 4.98047 Z M 53.4668 -28.5156 C 56.8359 -32.0312 56.1523 -36.9141 52.1484 -39.5996 L 33.2031 -52.3438 C 30.4688 -54.1504 27.9297 -51.5625 29.6875 -48.877 L 42.4805 -29.8828 C 45.166 -25.8789 50.0488 -25.1465 53.4668 -28.5156 Z"/>
  </g>
  <g id="Medium-S" transform="matrix(1 0 0 1 1699.83 696)">
   <path d="M 46.7285 4.63867 C 68.6035 4.63867 86.6211 -13.3789 86.6211 -35.2539 C 86.6211 -57.1289 68.6523 -75.1465 46.7773 -75.1465 C 44.3359 -75.1465 42.8711 -73.584 42.8711 -71.1426 L 42.8711 -57.1777 C 42.8711 -55.0293 44.3848 -53.3691 46.4844 -53.3691 C 48.6328 -53.3691 50.1465 -55.0293 50.1465 -57.1777 L 50.1465 -66.3574 C 65.8691 -64.6973 77.8809 -51.4648 77.8809 -35.2539 C 77.8809 -17.9199 64.0625 -4.05273 46.7285 -4.05273 C 29.3457 -4.05273 15.4785 -17.9199 15.4785 -35.2539 C 15.5273 -42.5293 18.0176 -49.3164 22.2168 -54.5898 C 23.7793 -56.7383 24.0234 -59.0332 22.2168 -60.8398 C 20.459 -62.6465 17.5293 -62.4512 15.6738 -60.0098 C 10.1562 -53.2227 6.83594 -44.5801 6.83594 -35.2539 C 6.83594 -13.3789 24.8047 4.63867 46.7285 4.63867 Z M 53.1738 -28.6621 C 56.4453 -32.0801 55.7617 -36.8164 51.8555 -39.4531 L 32.2266 -52.832 C 29.7852 -54.4922 27.3926 -52.0508 29.0527 -49.6582 L 42.3828 -30.0293 C 45.0684 -26.123 49.8047 -25.3906 53.1738 -28.6621 Z"/>
  </g>
  <g id="Regular-S" transform="matrix(1 0 0 1 1403.58 696)">
   <path d="M 46.2402 4.15039 C 67.7734 4.15039 85.6934 -13.7207 85.6934 -35.2539 C 85.6934 -56.7871 67.8223 -74.6582 46.2891 -74.6582 C 44.1895 -74.6582 43.0664 -73.291 43.0664 -71.0938 L 43.0664 -56.4453 C 43.0664 -54.541 44.3848 -53.0273 46.2402 -53.0273 C 48.1445 -53.0273 49.4629 -54.541 49.4629 -56.4453 L 49.4629 -67.041 C 65.7227 -65.4785 78.1738 -51.9531 78.1738 -35.2539 C 78.1738 -17.4805 64.0137 -3.27148 46.2402 -3.27148 C 28.5156 -3.27148 14.2578 -17.4805 14.3066 -35.2539 C 14.3555 -42.9688 16.9922 -50 21.4844 -55.4688 C 22.8027 -57.1777 22.9004 -59.2285 21.4355 -60.791 C 19.9707 -62.3047 17.5781 -62.1582 15.9668 -60.2051 C 10.3027 -53.3691 6.83594 -44.6777 6.83594 -35.2539 C 6.83594 -13.7207 24.7559 4.15039 46.2402 4.15039 Z M 52.7344 -28.8574 C 55.9082 -32.1777 55.2734 -36.6699 51.416 -39.3555 L 30.957 -53.5156 C 28.9062 -54.9316 26.709 -52.7344 28.1738 -50.6836 L 42.334 -30.2246 C 44.9707 -26.3672 49.4629 -25.6836 52.7344 -28.8574 Z"/>
  </g>
  <g id="Light-S" transform="matrix(1 0 0 1 1107.6 696)">
   <path d="M 45.5078 3.4668 C 66.6992 3.4668 84.2285 -14.0625 84.2285 -35.2051 C 84.2285 -56.3965 66.748 -73.9258 45.5566 -73.9258 C 43.6035 -73.9258 42.7246 -72.8027 42.7246 -70.9473 L 42.7246 -56.0547 C 42.7246 -54.5898 43.7012 -53.3691 45.2148 -53.3691 C 46.7285 -53.3691 47.7051 -54.5898 47.7051 -56.0547 L 47.7051 -68.1152 C 65.0391 -66.9922 78.4668 -52.7344 78.4668 -35.2051 C 78.4668 -16.9434 63.8184 -2.24609 45.5078 -2.24609 C 27.2461 -2.24609 12.5 -16.9434 12.5488 -35.2051 C 12.5977 -43.5547 15.625 -51.0742 20.7031 -56.8848 C 21.7285 -58.1543 21.8262 -59.7656 20.7031 -60.9375 C 19.5801 -62.1094 17.7246 -62.0117 16.5039 -60.5469 C 10.498 -53.7109 6.83594 -44.873 6.83594 -35.2051 C 6.83594 -14.0625 24.3652 3.4668 45.5078 3.4668 Z M 51.3672 -29.7363 C 54.248 -32.7637 53.6133 -36.8164 50.1953 -39.2578 L 30.127 -53.3691 C 28.3691 -54.6387 26.5137 -52.7832 27.7832 -51.0254 L 41.8945 -30.957 C 44.3359 -27.5391 48.3887 -26.8555 51.3672 -29.7363 Z"/>
  </g>
  <g id="Thin-S" transform="matrix(1 0 0 1 811.867 696)">
   <path d="M 44.5801 2.53906 C 65.2832 2.53906 82.2754 -14.4531 82.2754 -35.2051 C 82.2754 -55.9082 65.2832 -72.9004 44.5801 -72.9004 C 42.8711 -72.9004 42.2852 -72.168 42.2852 -70.8008 L 42.2852 -55.5664 C 42.2852 -54.5898 42.8223 -53.8574 43.8477 -53.8574 C 44.8242 -53.8574 45.4102 -54.5898 45.4102 -55.5664 L 45.4102 -69.4824 C 64.1113 -68.8965 78.8574 -53.8086 78.8574 -35.2051 C 78.8574 -16.2109 63.5254 -0.878906 44.5801 -0.878906 C 25.5859 -0.878906 10.2539 -16.2109 10.2539 -35.2051 C 10.2539 -44.2871 13.8184 -52.5391 19.6289 -58.6914 C 20.3125 -59.4727 20.3613 -60.4492 19.6777 -61.1328 C 18.9941 -61.8652 17.9199 -61.8164 17.1875 -60.9375 C 10.791 -54.1992 6.83594 -45.1172 6.83594 -35.2051 C 6.83594 -14.4531 23.877 2.53906 44.5801 2.53906 Z M 49.5605 -30.9082 C 52.0508 -33.5449 51.4648 -37.0117 48.5352 -39.1602 L 29.0527 -53.2227 C 27.6367 -54.1992 26.2695 -52.832 27.2949 -51.416 L 41.3574 -31.9824 C 43.5059 -29.0039 46.9727 -28.418 49.5605 -30.9082 Z"/>
  </g>
  <g id="Ultralight-S" transform="matrix(1 0 0 1 515.644 696)">
   <path d="M 44.043 2.05078 C 64.502 2.05078 81.2988 -14.6973 81.2988 -35.1562 C 81.2988 -55.6152 64.5508 -72.3633 44.043 -72.3633 C 42.4805 -72.3633 42.041 -71.8262 42.041 -70.6543 L 42.041 -55.2734 C 42.041 -54.6387 42.3828 -54.1016 43.1152 -54.1016 C 43.8965 -54.1016 44.2383 -54.6387 44.2383 -55.2734 L 44.2383 -70.166 C 63.623 -69.9219 79.0527 -54.3457 79.0527 -35.1562 C 79.0527 -15.8691 63.3789 -0.146484 44.043 -0.146484 C 24.7559 -0.146484 9.08203 -15.8691 9.08203 -35.1562 C 9.08203 -44.6777 12.8906 -53.2715 19.0918 -59.668 C 19.5312 -60.1562 19.6289 -60.791 19.1406 -61.2305 C 18.7012 -61.7188 18.0176 -61.7188 17.5293 -61.1816 C 10.9375 -54.4434 6.83594 -45.2148 6.83594 -35.1562 C 6.83594 -14.6973 23.584 2.05078 44.043 2.05078 Z M 48.584 -31.4941 C 50.8789 -33.9355 50.3418 -37.1094 47.6562 -39.0625 L 28.5156 -53.125 C 27.2949 -54.0039 26.1719 -52.8809 27.0508 -51.6602 L 41.0645 -32.5195 C 43.0664 -29.7852 46.1914 -29.1992 48.584 -31.4941 Z"/>
  </g>
 </g>
</svg>
