<?xml version="1.0" encoding="UTF-8"?>
<!--Generator: Apple Native CoreSVG 123-->
<!DOCTYPE svg
PUBLIC "-//W3C//DTD SVG 1.1//EN"
       "http://www.w3.org/Graphics/SVG/1.1/DTD/svg11.dtd">
<svg version="1.1" xmlns="http://www.w3.org/2000/svg" xmlns:xlink="http://www.w3.org/1999/xlink" width="3300" height="2200">
 <!--glyph: "uni10027A.medium", point size: 100.000000, font version: "Version 15.0d7e11", template writer version: "5"-->
 <g id="Notes">
  <rect height="2200" id="artboard" style="fill:white;opacity:1" width="3300" x="0" y="0"/>
  <line id="" style="fill:none;stroke:black;opacity:1;stroke-width:0.5;" x1="263" x2="3036" y1="292" y2="292"/>
  <text style="stroke:none;fill:black;font-family:-apple-system,&quot;SF Pro Display&quot;,&quot;SF Pro Text&quot;,Helvetica,sans-serif;font-weight:bold;" transform="matrix(1 0 0 1 263 322)">Weight/Scale Variations</text>
  <text style="stroke:none;fill:black;font-family:-apple-system,&quot;SF Pro Display&quot;,&quot;SF Pro Text&quot;,Helvetica,sans-serif;text-anchor:middle;" transform="matrix(1 0 0 1 559.711 322)">Ultralight</text>
  <text style="stroke:none;fill:black;font-family:-apple-system,&quot;SF Pro Display&quot;,&quot;SF Pro Text&quot;,Helvetica,sans-serif;text-anchor:middle;" transform="matrix(1 0 0 1 856.422 322)">Thin</text>
  <text style="stroke:none;fill:black;font-family:-apple-system,&quot;SF Pro Display&quot;,&quot;SF Pro Text&quot;,Helvetica,sans-serif;text-anchor:middle;" transform="matrix(1 0 0 1 1153.13 322)">Light</text>
  <text style="stroke:none;fill:black;font-family:-apple-system,&quot;SF Pro Display&quot;,&quot;SF Pro Text&quot;,Helvetica,sans-serif;text-anchor:middle;" transform="matrix(1 0 0 1 1449.84 322)">Regular</text>
  <text style="stroke:none;fill:black;font-family:-apple-system,&quot;SF Pro Display&quot;,&quot;SF Pro Text&quot;,Helvetica,sans-serif;text-anchor:middle;" transform="matrix(1 0 0 1 1746.56 322)">Medium</text>
  <text style="stroke:none;fill:black;font-family:-apple-system,&quot;SF Pro Display&quot;,&quot;SF Pro Text&quot;,Helvetica,sans-serif;text-anchor:middle;" transform="matrix(1 0 0 1 2043.27 322)">Semibold</text>
  <text style="stroke:none;fill:black;font-family:-apple-system,&quot;SF Pro Display&quot;,&quot;SF Pro Text&quot;,Helvetica,sans-serif;text-anchor:middle;" transform="matrix(1 0 0 1 2339.98 322)">Bold</text>
  <text style="stroke:none;fill:black;font-family:-apple-system,&quot;SF Pro Display&quot;,&quot;SF Pro Text&quot;,Helvetica,sans-serif;text-anchor:middle;" transform="matrix(1 0 0 1 2636.69 322)">Heavy</text>
  <text style="stroke:none;fill:black;font-family:-apple-system,&quot;SF Pro Display&quot;,&quot;SF Pro Text&quot;,Helvetica,sans-serif;text-anchor:middle;" transform="matrix(1 0 0 1 2933.4 322)">Black</text>
  <line id="" style="fill:none;stroke:black;opacity:1;stroke-width:0.5;" x1="263" x2="3036" y1="1903" y2="1903"/>
  <g id="" transform="matrix(1 0 0 1 263 1933)">
   <path d="M 9.24805 0.830078 C 13.5547 0.830078 17.1387 -2.74414 17.1387 -7.05078 C 17.1387 -11.3574 13.5449 -14.9316 9.23828 -14.9316 C 4.94141 -14.9316 1.36719 -11.3574 1.36719 -7.05078 C 1.36719 -2.74414 4.95117 0.830078 9.24805 0.830078 Z M 9.24805 -0.654297 C 5.70312 -0.654297 2.87109 -3.49609 2.87109 -7.05078 C 2.87109 -10.6055 5.69336 -13.4473 9.23828 -13.4473 C 12.793 -13.4473 15.6348 -10.6055 15.6445 -7.05078 C 15.6543 -3.49609 12.8027 -0.654297 9.24805 -0.654297 Z M 9.22852 -3.42773 C 9.69727 -3.42773 9.9707 -3.74023 9.9707 -4.25781 L 9.9707 -6.31836 L 12.1973 -6.31836 C 12.6953 -6.31836 13.0371 -6.57227 13.0371 -7.04102 C 13.0371 -7.51953 12.7148 -7.7832 12.1973 -7.7832 L 9.9707 -7.7832 L 9.9707 -10.0098 C 9.9707 -10.5273 9.69727 -10.8496 9.22852 -10.8496 C 8.75977 -10.8496 8.50586 -10.5078 8.50586 -10.0098 L 8.50586 -7.7832 L 6.29883 -7.7832 C 5.78125 -7.7832 5.44922 -7.51953 5.44922 -7.04102 C 5.44922 -6.57227 5.80078 -6.31836 6.29883 -6.31836 L 8.50586 -6.31836 L 8.50586 -4.25781 C 8.50586 -3.75977 8.75977 -3.42773 9.22852 -3.42773 Z"/>
  </g>
  <g id="" transform="matrix(1 0 0 1 281.506 1933)">
   <path d="M 11.709 2.91016 C 17.1582 2.91016 21.6699 -1.60156 21.6699 -7.05078 C 21.6699 -12.4902 17.1484 -17.0117 11.6992 -17.0117 C 6.25977 -17.0117 1.74805 -12.4902 1.74805 -7.05078 C 1.74805 -1.60156 6.26953 2.91016 11.709 2.91016 Z M 11.709 1.25 C 7.09961 1.25 3.41797 -2.44141 3.41797 -7.05078 C 3.41797 -11.6504 7.08984 -15.3516 11.6992 -15.3516 C 16.3086 -15.3516 20 -11.6504 20.0098 -7.05078 C 20.0195 -2.44141 16.3184 1.25 11.709 1.25 Z M 11.6895 -2.41211 C 12.207 -2.41211 12.5195 -2.77344 12.5195 -3.33984 L 12.5195 -6.23047 L 15.5762 -6.23047 C 16.123 -6.23047 16.5039 -6.51367 16.5039 -7.03125 C 16.5039 -7.55859 16.1426 -7.86133 15.5762 -7.86133 L 12.5195 -7.86133 L 12.5195 -10.9277 C 12.5195 -11.5039 12.207 -11.8555 11.6895 -11.8555 C 11.1719 -11.8555 10.8789 -11.4844 10.8789 -10.9277 L 10.8789 -7.86133 L 7.83203 -7.86133 C 7.26562 -7.86133 6.89453 -7.55859 6.89453 -7.03125 C 6.89453 -6.51367 7.28516 -6.23047 7.83203 -6.23047 L 10.8789 -6.23047 L 10.8789 -3.33984 C 10.8789 -2.79297 11.1719 -2.41211 11.6895 -2.41211 Z"/>
  </g>
  <g id="" transform="matrix(1 0 0 1 304.924 1933)">
   <path d="M 14.9707 5.67383 C 21.9336 5.67383 27.6953 -0.078125 27.6953 -7.04102 C 27.6953 -14.0039 21.9238 -19.7559 14.9609 -19.7559 C 8.00781 -19.7559 2.25586 -14.0039 2.25586 -7.04102 C 2.25586 -0.078125 8.01758 5.67383 14.9707 5.67383 Z M 14.9707 3.85742 C 8.93555 3.85742 4.08203 -1.00586 4.08203 -7.04102 C 4.08203 -13.0762 8.92578 -17.9395 14.9609 -17.9395 C 21.0059 -17.9395 25.8594 -13.0762 25.8691 -7.04102 C 25.8789 -1.00586 21.0156 3.85742 14.9707 3.85742 Z M 14.9512 -1.06445 C 15.5176 -1.06445 15.8691 -1.45508 15.8691 -2.06055 L 15.8691 -6.13281 L 20.1074 -6.13281 C 20.6934 -6.13281 21.1133 -6.46484 21.1133 -7.02148 C 21.1133 -7.59766 20.7227 -7.93945 20.1074 -7.93945 L 15.8691 -7.93945 L 15.8691 -12.1875 C 15.8691 -12.8027 15.5176 -13.1934 14.9512 -13.1934 C 14.3848 -13.1934 14.0625 -12.7832 14.0625 -12.1875 L 14.0625 -7.93945 L 9.83398 -7.93945 C 9.21875 -7.93945 8.80859 -7.59766 8.80859 -7.02148 C 8.80859 -6.46484 9.23828 -6.13281 9.83398 -6.13281 L 14.0625 -6.13281 L 14.0625 -2.06055 C 14.0625 -1.47461 14.3848 -1.06445 14.9512 -1.06445 Z"/>
  </g>
  <text style="stroke:none;fill:black;font-family:-apple-system,&quot;SF Pro Display&quot;,&quot;SF Pro Text&quot;,Helvetica,sans-serif;font-weight:bold;" transform="matrix(1 0 0 1 263 1953)">Design Variations</text>
  <text style="stroke:none;fill:black;font-family:-apple-system,&quot;SF Pro Display&quot;,&quot;SF Pro Text&quot;,Helvetica,sans-serif;" transform="matrix(1 0 0 1 263 1971)">Symbols are supported in up to nine weights and three scales.</text>
  <text style="stroke:none;fill:black;font-family:-apple-system,&quot;SF Pro Display&quot;,&quot;SF Pro Text&quot;,Helvetica,sans-serif;" transform="matrix(1 0 0 1 263 1989)">For optimal layout with text and other symbols, vertically align</text>
  <text style="stroke:none;fill:black;font-family:-apple-system,&quot;SF Pro Display&quot;,&quot;SF Pro Text&quot;,Helvetica,sans-serif;" transform="matrix(1 0 0 1 263 2007)">symbols with the adjacent text.</text>
  <rect height="14" id="" style="fill:#00AEEF;stroke:none;opacity:0.4;" width="3" x="776" y="1919"/>
  <g id="" transform="matrix(1 0 0 1 779 1933)">
   <path d="M 10.5273 0 L 12.373 0 L 7.17773 -14.0918 L 5.43945 -14.0918 L 0.244141 0 L 2.08984 0 L 3.50586 -4.0332 L 9.11133 -4.0332 Z M 6.2793 -11.9531 L 6.33789 -11.9531 L 8.59375 -5.52734 L 4.02344 -5.52734 Z"/>
  </g>
  <rect height="14" id="" style="fill:#00AEEF;stroke:none;opacity:0.4;" width="3" x="791.617" y="1919"/>
  <text style="stroke:none;fill:black;font-family:-apple-system,&quot;SF Pro Display&quot;,&quot;SF Pro Text&quot;,Helvetica,sans-serif;font-weight:bold;" transform="matrix(1 0 0 1 776 1953)">Margins</text>
  <text style="stroke:none;fill:black;font-family:-apple-system,&quot;SF Pro Display&quot;,&quot;SF Pro Text&quot;,Helvetica,sans-serif;" transform="matrix(1 0 0 1 776 1971)">Leading and trailing margins on the left and right side of each symbol</text>
  <text style="stroke:none;fill:black;font-family:-apple-system,&quot;SF Pro Display&quot;,&quot;SF Pro Text&quot;,Helvetica,sans-serif;" transform="matrix(1 0 0 1 776 1989)">can be adjusted by modifying the width of the blue rectangles.</text>
  <text style="stroke:none;fill:black;font-family:-apple-system,&quot;SF Pro Display&quot;,&quot;SF Pro Text&quot;,Helvetica,sans-serif;" transform="matrix(1 0 0 1 776 2007)">Modifications are automatically applied proportionally to all</text>
  <text style="stroke:none;fill:black;font-family:-apple-system,&quot;SF Pro Display&quot;,&quot;SF Pro Text&quot;,Helvetica,sans-serif;" transform="matrix(1 0 0 1 776 2025)">scales and weights.</text>
  <g id="" transform="matrix(1 0 0 1 1289 1933)">
   <path d="M 2.83203 3.11523 L 4.375 4.6582 C 5.22461 5.48828 6.19141 5.41992 7.06055 4.46289 L 17.2754 -6.66016 C 17.7051 -6.36719 18.0957 -6.37695 18.5645 -6.47461 L 19.6094 -6.68945 L 20.3027 -5.99609 L 20.2539 -5.47852 C 20.1855 -4.95117 20.3516 -4.53125 20.8496 -4.0332 L 21.6602 -3.22266 C 22.168 -2.71484 22.8223 -2.68555 23.3008 -3.16406 L 26.5527 -6.41602 C 27.0312 -6.89453 27.0117 -7.54883 26.5039 -8.05664 L 25.6836 -8.87695 C 25.1855 -9.375 24.7754 -9.55078 24.2383 -9.47266 L 23.7109 -9.41406 L 23.0566 -10.0781 L 23.3398 -11.2207 C 23.4863 -11.7871 23.3398 -12.2559 22.7148 -12.8613 L 20.3027 -15.2539 C 16.7578 -18.7793 12.2266 -18.6719 9.11133 -15.5371 C 8.69141 -15.1074 8.64258 -14.5215 8.91602 -14.0918 C 9.15039 -13.7207 9.62891 -13.4961 10.2734 -13.6621 C 11.7871 -14.043 13.3008 -13.9258 14.7852 -12.9199 L 14.1602 -11.3379 C 13.9258 -10.752 13.9453 -10.2734 14.1797 -9.83398 L 3.01758 0.439453 C 2.08008 1.30859 1.97266 2.25586 2.83203 3.11523 Z M 10.6738 -15.1465 C 13.3398 -17.1387 16.6504 -16.8262 19.0527 -14.4141 L 21.6797 -11.8066 C 21.9141 -11.5723 21.9434 -11.3867 21.8848 -11.0938 L 21.5039 -9.53125 L 23.0762 -7.95898 L 24.043 -8.04688 C 24.3262 -8.07617 24.4141 -8.05664 24.6387 -7.83203 L 25.2637 -7.20703 L 22.5098 -4.46289 L 21.8848 -5.07812 C 21.6602 -5.30273 21.6406 -5.40039 21.6699 -5.68359 L 21.7578 -6.64062 L 20.1953 -8.20312 L 18.5742 -7.89062 C 18.291 -7.83203 18.1445 -7.83203 17.9102 -8.07617 L 15.7324 -10.2539 C 15.5078 -10.4883 15.4785 -10.625 15.6055 -10.9473 L 16.5527 -13.2227 C 14.9512 -14.7559 12.8418 -15.6055 10.8008 -14.9512 C 10.7129 -14.9219 10.6445 -14.9414 10.6152 -14.9805 C 10.5859 -15.0293 10.5859 -15.0781 10.6738 -15.1465 Z M 4.10156 2.41211 C 3.61328 1.91406 3.78906 1.61133 4.12109 1.30859 L 15.0781 -8.80859 L 16.3086 -7.57812 L 6.15234 3.34961 C 5.84961 3.68164 5.46875 3.7793 5.06836 3.37891 Z"/>
  </g>
  <text style="stroke:none;fill:black;font-family:-apple-system,&quot;SF Pro Display&quot;,&quot;SF Pro Text&quot;,Helvetica,sans-serif;font-weight:bold;" transform="matrix(1 0 0 1 1289 1953)">Exporting</text>
  <text style="stroke:none;fill:black;font-family:-apple-system,&quot;SF Pro Display&quot;,&quot;SF Pro Text&quot;,Helvetica,sans-serif;" transform="matrix(1 0 0 1 1289 1971)">Symbols should be outlined when exporting to ensure the</text>
  <text style="stroke:none;fill:black;font-family:-apple-system,&quot;SF Pro Display&quot;,&quot;SF Pro Text&quot;,Helvetica,sans-serif;" transform="matrix(1 0 0 1 1289 1989)">design is preserved when submitting to Xcode.</text>
  <text id="template-version" style="stroke:none;fill:black;font-family:-apple-system,&quot;SF Pro Display&quot;,&quot;SF Pro Text&quot;,Helvetica,sans-serif;text-anchor:end;" transform="matrix(1 0 0 1 3036 1933)">Template v.1.0</text>
  <text style="stroke:none;fill:black;font-family:-apple-system,&quot;SF Pro Display&quot;,&quot;SF Pro Text&quot;,Helvetica,sans-serif;text-anchor:end;" transform="matrix(1 0 0 1 3036 1951)">Generated from person.crop.square.fill</text>
  <text style="stroke:none;fill:black;font-family:-apple-system,&quot;SF Pro Display&quot;,&quot;SF Pro Text&quot;,Helvetica,sans-serif;text-anchor:end;" transform="matrix(1 0 0 1 3036 1969)">Typeset at 100 points</text>
  <text style="stroke:none;fill:black;font-family:-apple-system,&quot;SF Pro Display&quot;,&quot;SF Pro Text&quot;,Helvetica,sans-serif;" transform="matrix(1 0 0 1 263 726)">Small</text>
  <text style="stroke:none;fill:black;font-family:-apple-system,&quot;SF Pro Display&quot;,&quot;SF Pro Text&quot;,Helvetica,sans-serif;" transform="matrix(1 0 0 1 263 1156)">Medium</text>
  <text style="stroke:none;fill:black;font-family:-apple-system,&quot;SF Pro Display&quot;,&quot;SF Pro Text&quot;,Helvetica,sans-serif;" transform="matrix(1 0 0 1 263 1586)">Large</text>
 </g>
 <g id="Guides">
  <g id="H-reference" style="fill:#27AAE1;stroke:none;" transform="matrix(1 0 0 1 339 696)">
   <path d="M 54.9316 0 L 57.666 0 L 30.5664 -70.459 L 28.0762 -70.459 L 0.976562 0 L 3.66211 0 L 12.9395 -24.4629 L 45.7031 -24.4629 Z M 29.1992 -67.0898 L 29.4434 -67.0898 L 44.8242 -26.709 L 13.8184 -26.709 Z"/>
  </g>
  <line id="Baseline-S" style="fill:none;stroke:#27AAE1;opacity:1;stroke-width:0.577;" x1="263" x2="3036" y1="696" y2="696"/>
  <line id="Capline-S" style="fill:none;stroke:#27AAE1;opacity:1;stroke-width:0.577;" x1="263" x2="3036" y1="625.541" y2="625.541"/>
  <g id="H-reference" style="fill:#27AAE1;stroke:none;" transform="matrix(1 0 0 1 339 1126)">
   <path d="M 54.9316 0 L 57.666 0 L 30.5664 -70.459 L 28.0762 -70.459 L 0.976562 0 L 3.66211 0 L 12.9395 -24.4629 L 45.7031 -24.4629 Z M 29.1992 -67.0898 L 29.4434 -67.0898 L 44.8242 -26.709 L 13.8184 -26.709 Z"/>
  </g>
  <line id="Baseline-M" style="fill:none;stroke:#27AAE1;opacity:1;stroke-width:0.577;" x1="263" x2="3036" y1="1126" y2="1126"/>
  <line id="Capline-M" style="fill:none;stroke:#27AAE1;opacity:1;stroke-width:0.577;" x1="263" x2="3036" y1="1055.54" y2="1055.54"/>
  <g id="H-reference" style="fill:#27AAE1;stroke:none;" transform="matrix(1 0 0 1 339 1556)">
   <path d="M 54.9316 0 L 57.666 0 L 30.5664 -70.459 L 28.0762 -70.459 L 0.976562 0 L 3.66211 0 L 12.9395 -24.4629 L 45.7031 -24.4629 Z M 29.1992 -67.0898 L 29.4434 -67.0898 L 44.8242 -26.709 L 13.8184 -26.709 Z"/>
  </g>
  <line id="Baseline-L" style="fill:none;stroke:#27AAE1;opacity:1;stroke-width:0.577;" x1="263" x2="3036" y1="1556" y2="1556"/>
  <line id="Capline-L" style="fill:none;stroke:#27AAE1;opacity:1;stroke-width:0.577;" x1="263" x2="3036" y1="1485.54" y2="1485.54"/>
  <rect height="119.336" id="left-margin" style="fill:#00AEEF;stroke:none;opacity:0.4;" width="12.4512" x="1392.45" y="1030.79"/>
  <rect height="119.336" id="right-margin" style="fill:#00AEEF;stroke:none;opacity:0.4;" width="12.4512" x="1494.79" y="1030.79"/>
 </g>
 <g id="Symbols">
  <g id="Black-L" transform="matrix(1 0 0 1 2855.62 1556)">
   <path d="M 39.9902 26.5137 L 115.576 26.5137 C 130.811 26.5137 139.502 17.8711 139.502 2.68555 L 139.502 -73.0957 C 139.502 -88.2812 130.811 -96.875 115.576 -96.875 L 39.9902 -96.875 C 24.7559 -96.875 16.0645 -88.2812 16.0645 -73.0957 L 16.0645 2.68555 C 16.0645 17.8711 24.7559 26.5137 39.9902 26.5137 Z M 77.7832 -24.9023 C 64.6973 -24.9023 54.8828 -35.9375 54.8828 -49.8535 C 54.8828 -63.0371 64.9414 -74.3652 77.7832 -74.3652 C 90.625 -74.3652 100.684 -63.0371 100.684 -49.8535 C 100.684 -35.9375 90.8691 -24.9023 77.7832 -24.9023 Z M 77.7832 -13.6719 C 95.4102 -13.6719 112.695 -4.83398 119.238 10.4004 C 118.994 11.2305 117.871 11.4258 116.699 11.4258 L 38.8672 11.4258 C 37.6953 11.4258 36.5723 11.2305 36.2793 10.4004 C 42.8711 -4.83398 60.1074 -13.6719 77.7832 -13.6719 Z"/>
  </g>
  <g id="Heavy-L" transform="matrix(1 0 0 1 2559.93 1556)">
   <path d="M 38.8184 25.4883 L 114.697 25.4883 C 129.346 25.4883 137.451 17.4316 137.451 2.88086 L 137.451 -73.2422 C 137.451 -87.793 129.346 -95.8496 114.697 -95.8496 L 38.8184 -95.8496 C 24.2188 -95.8496 16.0645 -87.793 16.0645 -73.2422 L 16.0645 2.88086 C 16.0645 17.4316 24.2188 25.4883 38.8184 25.4883 Z M 76.7578 -24.8047 C 63.916 -24.8047 54.1992 -35.6445 54.1992 -49.4141 C 54.1992 -62.5 64.1113 -73.5352 76.7578 -73.5352 C 89.4043 -73.5352 99.3164 -62.5 99.3164 -49.4141 C 99.3164 -35.6445 89.5508 -24.8047 76.7578 -24.8047 Z M 76.7578 -13.8672 C 96.1426 -13.8672 112.695 -3.51562 119.043 10.7422 C 118.848 11.7188 117.627 12.0605 116.162 12.0605 L 37.3535 12.0605 C 35.9375 12.0605 34.668 11.7188 34.4727 10.7422 C 40.8203 -3.51562 57.373 -13.8672 76.7578 -13.8672 Z"/>
  </g>
  <g id="Bold-L" transform="matrix(1 0 0 1 2264.37 1556)">
   <path d="M 37.5 24.3652 L 113.721 24.3652 C 127.637 24.3652 135.156 16.8945 135.156 3.07617 L 135.156 -73.3887 C 135.156 -87.207 127.637 -94.7266 113.721 -94.7266 L 37.5 -94.7266 C 23.6328 -94.7266 16.0645 -87.2559 16.0645 -73.3887 L 16.0645 3.07617 C 16.0645 16.8945 23.6328 24.3652 37.5 24.3652 Z M 75.6348 -24.707 C 63.0859 -24.707 53.418 -35.2539 53.418 -48.9258 C 53.418 -61.8164 63.2324 -72.6074 75.6348 -72.6074 C 88.0371 -72.6074 97.8027 -61.8164 97.8027 -48.9258 C 97.8027 -35.2539 88.1348 -24.707 75.6348 -24.707 Z M 75.6348 -14.1113 C 96.9727 -14.1113 112.695 -2.05078 118.799 11.1816 C 118.652 12.2559 117.285 12.793 115.625 12.793 L 35.6445 12.793 C 33.9355 12.793 32.6172 12.2559 32.4219 11.1816 C 38.5254 -2.05078 54.2969 -14.1113 75.6348 -14.1113 Z"/>
  </g>
  <g id="Semibold-L" transform="matrix(1 0 0 1 1968.44 1556)">
   <path d="M 36.6211 23.584 L 113.037 23.584 C 126.514 23.584 133.594 16.5039 133.594 3.17383 L 133.594 -73.5352 C 133.594 -86.8164 126.514 -93.9453 113.037 -93.9453 L 36.6211 -93.9453 C 23.1934 -93.9453 16.0645 -86.8652 16.0645 -73.5352 L 16.0645 3.17383 C 16.0645 16.5527 23.1934 23.584 36.6211 23.584 Z M 74.8047 -24.6094 C 62.5 -24.6094 52.9297 -35.0098 52.9297 -48.584 C 52.9297 -61.377 62.5977 -71.9727 74.8047 -71.9727 C 87.0605 -71.9727 96.7285 -61.377 96.7285 -48.584 C 96.7285 -35.0098 87.1582 -24.6094 74.8047 -24.6094 Z M 74.8535 -14.2578 C 97.5098 -14.2578 112.744 -1.02539 118.652 11.4258 C 118.506 12.6465 117.09 13.2812 115.234 13.2812 L 34.4727 13.2812 C 32.6172 13.2812 31.1523 12.6465 31.0547 11.4258 C 36.9629 -1.02539 52.1484 -14.2578 74.8535 -14.2578 Z"/>
  </g>
  <g id="Medium-L" transform="matrix(1 0 0 1 1672.31 1556)">
   <path d="M 35.9375 22.998 L 112.5 22.998 C 125.635 22.998 132.422 16.2109 132.422 3.27148 L 132.422 -73.6328 C 132.422 -86.5234 125.635 -93.3105 112.5 -93.3105 L 35.9375 -93.3105 C 22.9004 -93.3105 16.0645 -86.5723 16.0645 -73.6328 L 16.0645 3.27148 C 16.0645 16.2598 22.9004 22.998 35.9375 22.998 Z M 74.2188 -24.5605 C 62.0605 -24.5605 52.5391 -34.8145 52.5391 -48.3398 C 52.5391 -61.0352 62.1094 -71.5332 74.2188 -71.5332 C 86.3281 -71.5332 95.9473 -61.0352 95.9473 -48.3398 C 95.9473 -34.8145 86.377 -24.5605 74.2188 -24.5605 Z M 74.2676 -14.4043 C 97.9492 -14.4043 112.744 -0.244141 118.506 11.6699 C 118.408 12.9395 116.943 13.623 114.941 13.623 L 33.5938 13.623 C 31.5918 13.623 30.0781 12.9395 29.9805 11.6699 C 35.7422 -0.244141 50.5371 -14.4043 74.2676 -14.4043 Z"/>
  </g>
  <g id="Regular-L" transform="matrix(1 0 0 1 1376.38 1556)">
   <path d="M 35.0586 22.2168 L 111.816 22.2168 C 124.463 22.2168 130.859 15.8691 130.859 3.41797 L 130.859 -73.7305 C 130.859 -86.1816 124.463 -92.5293 111.816 -92.5293 L 35.0586 -92.5293 C 22.4609 -92.5293 16.0645 -86.2305 16.0645 -73.7305 L 16.0645 3.41797 C 16.0645 15.918 22.4609 22.2168 35.0586 22.2168 Z M 73.4375 -24.4629 C 61.4746 -24.4629 52.002 -34.5703 52.002 -47.998 C 52.002 -60.5957 61.4746 -70.8984 73.4375 -70.8984 C 85.4004 -70.8984 94.9219 -60.5957 94.9219 -47.998 C 94.9219 -34.5703 85.4004 -24.4629 73.4375 -24.4629 Z M 73.4863 -14.5508 C 98.4863 -14.5508 112.744 0.732422 118.359 11.9141 C 118.311 13.3301 116.699 14.1113 114.551 14.1113 L 32.4219 14.1113 C 30.2246 14.1113 28.6621 13.3301 28.6133 11.9141 C 34.1797 0.732422 48.4375 -14.5508 73.4863 -14.5508 Z"/>
  </g>
  <g id="Light-L" transform="matrix(1 0 0 1 1080.5 1556)">
   <path d="M 34.0332 21.4355 L 111.23 21.4355 C 123.096 21.4355 129.199 15.2344 129.199 3.56445 L 129.199 -73.8281 C 129.199 -85.5469 123.096 -91.6992 111.23 -91.6992 L 34.0332 -91.6992 C 22.168 -91.6992 16.0645 -85.6445 16.0645 -73.8281 L 16.0645 3.56445 C 16.0645 15.3809 22.168 21.4355 34.0332 21.4355 Z M 72.6074 -25.2441 C 60.791 -25.2441 51.3672 -35.2539 51.3672 -48.4863 C 51.3672 -60.9863 60.791 -71.2402 72.6074 -71.2402 C 84.4727 -71.2402 93.8965 -60.9863 93.8965 -48.4863 C 93.8965 -35.2539 84.4727 -25.2441 72.6074 -25.2441 Z M 72.6562 -15.1855 C 101.367 -15.1855 114.551 4.24805 118.066 12.5977 C 118.018 14.2578 116.113 15.1367 113.477 15.1367 L 31.7871 15.1367 C 29.1504 15.1367 27.2949 14.2578 27.2461 12.5977 C 30.7617 4.24805 43.8965 -15.1855 72.6562 -15.1855 Z"/>
  </g>
  <g id="Thin-L" transform="matrix(1 0 0 1 784.889 1556)">
   <path d="M 32.666 20.3613 L 110.352 20.3613 C 121.24 20.3613 127.002 14.4531 127.002 3.75977 L 127.002 -73.9746 C 127.002 -84.7168 121.24 -90.5762 110.352 -90.5762 L 32.666 -90.5762 C 21.7773 -90.5762 16.0645 -84.8633 16.0645 -73.9746 L 16.0645 3.75977 C 16.0645 14.6484 21.7773 20.3613 32.666 20.3613 Z M 71.5332 -26.2207 C 59.8145 -26.2207 50.5371 -36.084 50.5371 -49.1699 C 50.5371 -61.5234 59.8145 -71.6797 71.5332 -71.6797 C 83.2031 -71.6797 92.4805 -61.5234 92.4805 -49.1699 C 92.4805 -36.084 83.2031 -26.2207 71.5332 -26.2207 Z M 71.582 -16.0645 C 105.225 -16.0645 116.943 8.88672 117.676 13.4766 C 117.676 15.5273 115.332 16.5039 112.109 16.5039 L 30.9082 16.5039 C 27.6855 16.5039 25.4883 15.5273 25.4395 13.4766 C 26.1719 8.88672 37.9395 -16.0645 71.582 -16.0645 Z"/>
  </g>
  <g id="Ultralight-L" transform="matrix(1 0 0 1 488.739 1556)">
   <path d="M 31.9824 19.7754 L 109.961 19.7754 C 120.312 19.7754 125.879 14.0625 125.879 3.85742 L 125.879 -74.0723 C 125.879 -84.2773 120.312 -89.9902 109.961 -89.9902 L 31.9824 -89.9902 C 21.582 -89.9902 16.0645 -84.4727 16.0645 -74.0723 L 16.0645 3.85742 C 16.0645 14.2578 21.582 19.7754 31.9824 19.7754 Z M 70.9473 -26.7578 C 59.3262 -26.7578 50.0977 -36.5234 50.0977 -49.5117 C 50.0977 -61.7676 59.3262 -71.875 70.9473 -71.875 C 82.5684 -71.875 91.7969 -61.7676 91.7969 -49.5117 C 91.7969 -36.5234 82.5684 -26.7578 70.9473 -26.7578 Z M 71.0449 -16.5039 C 107.178 -16.5039 118.164 11.2305 117.48 13.916 C 117.48 16.2109 114.941 17.1875 111.426 17.1875 L 30.4688 17.1875 C 26.9531 17.1875 24.5605 16.2109 24.5605 13.916 C 23.877 11.2305 34.8633 -16.5039 71.0449 -16.5039 Z"/>
  </g>
  <g id="Black-M" transform="matrix(1 0 0 1 2872.19 1126)">
   <path d="M 31.9824 13.5742 L 90.4297 13.5742 C 102.686 13.5742 109.961 6.29883 109.961 -5.95703 L 109.961 -64.4043 C 109.961 -76.6602 102.686 -83.9355 90.4297 -83.9355 L 31.9824 -83.9355 C 19.7266 -83.9355 12.4512 -76.6602 12.4512 -64.4043 L 12.4512 -5.95703 C 12.4512 6.29883 19.7266 13.5742 31.9824 13.5742 Z M 61.1816 -27.7832 C 50.7812 -27.7832 43.1152 -36.5723 43.1152 -47.4121 C 43.1152 -57.7637 51.0254 -66.8457 61.1816 -66.8457 C 71.3867 -66.8457 79.2969 -57.7637 79.2969 -47.4121 C 79.2969 -36.5723 71.6309 -27.7832 61.1816 -27.7832 Z M 61.1816 -18.5547 C 74.5117 -18.5547 88.2324 -11.5723 92.5293 0 C 92.2852 0.634766 91.4062 0.634766 90.5762 0.634766 L 31.8359 0.634766 C 31.0059 0.634766 30.127 0.634766 29.834 0 C 34.1309 -11.5723 47.9004 -18.5547 61.1816 -18.5547 Z"/>
  </g>
  <g id="Heavy-M" transform="matrix(1 0 0 1 2576.39 1126)">
   <path d="M 31.0059 12.6465 L 89.6484 12.6465 C 101.416 12.6465 108.154 5.9082 108.154 -5.81055 L 108.154 -64.5508 C 108.154 -76.2695 101.416 -83.0566 89.6484 -83.0566 L 31.0059 -83.0566 C 19.2383 -83.0566 12.4512 -76.3184 12.4512 -64.5508 L 12.4512 -5.81055 C 12.4512 5.9082 19.2383 12.6465 31.0059 12.6465 Z M 60.3027 -27.4414 C 50.1465 -27.4414 42.5293 -36.0352 42.5293 -46.8262 C 42.5293 -57.0312 50.3418 -65.8691 60.3027 -65.8691 C 70.2637 -65.8691 78.0762 -57.0312 78.0762 -46.8262 C 78.0762 -36.0352 70.459 -27.4414 60.3027 -27.4414 Z M 60.3027 -18.6523 C 74.5605 -18.6523 87.793 -11.0352 92.3828 0.244141 C 92.1875 0.927734 91.2598 1.02539 90.2832 1.02539 L 30.3711 1.02539 C 29.3457 1.02539 28.418 0.927734 28.2227 0.244141 C 32.8125 -11.0352 46.0449 -18.6523 60.3027 -18.6523 Z"/>
  </g>
  <g id="Bold-M" transform="matrix(1 0 0 1 2280.68 1126)">
   <path d="M 29.8828 11.6699 L 88.7207 11.6699 C 99.9512 11.6699 106.152 5.46875 106.152 -5.66406 L 106.152 -64.6973 C 106.152 -75.8789 99.9512 -82.0312 88.7207 -82.0312 L 29.8828 -82.0312 C 18.6523 -82.0312 12.4512 -75.8789 12.4512 -64.6973 L 12.4512 -5.66406 C 12.4512 5.51758 18.6523 11.6699 29.8828 11.6699 Z M 59.3262 -27.0996 C 49.4141 -27.0996 41.8945 -35.4492 41.8945 -46.1426 C 41.8945 -56.25 49.5605 -64.7461 59.3262 -64.7461 C 69.043 -64.7461 76.709 -56.25 76.709 -46.1426 C 76.709 -35.4492 69.1895 -27.0996 59.3262 -27.0996 Z M 59.3262 -18.7012 C 74.6094 -18.7012 87.3047 -10.4492 92.2363 0.488281 C 92.0898 1.2207 91.1133 1.51367 89.9414 1.51367 L 28.6621 1.51367 C 27.5391 1.51367 26.5625 1.2207 26.416 0.488281 C 31.2988 -10.4492 43.9941 -18.7012 59.3262 -18.7012 Z"/>
  </g>
  <g id="Semibold-M" transform="matrix(1 0 0 1 1984.65 1126)">
   <path d="M 29.1016 10.9863 L 88.0859 10.9863 C 98.9746 10.9863 104.785 5.17578 104.785 -5.56641 L 104.785 -64.8438 C 104.785 -75.5859 98.9746 -81.3477 88.0859 -81.3477 L 29.1016 -81.3477 C 18.2617 -81.3477 12.4512 -75.5859 12.4512 -64.8438 L 12.4512 -5.56641 C 12.4512 5.22461 18.2617 10.9863 29.1016 10.9863 Z M 58.5938 -26.8555 C 48.9258 -26.8555 41.4551 -35.0586 41.4551 -45.6543 C 41.4551 -55.6641 49.0234 -64.0137 58.5938 -64.0137 C 68.2129 -64.0137 75.7812 -55.6641 75.7812 -45.6543 C 75.7812 -35.0586 68.3105 -26.8555 58.5938 -26.8555 Z M 58.6426 -18.75 C 74.6582 -18.75 86.9629 -10.0586 92.0898 0.634766 C 91.9922 1.46484 91.0156 1.85547 89.7461 1.85547 L 27.5391 1.85547 C 26.2695 1.85547 25.2441 1.46484 25.1465 0.634766 C 30.2734 -10.0586 42.5781 -18.75 58.6426 -18.75 Z"/>
  </g>
  <g id="Medium-M" transform="matrix(1 0 0 1 1688.47 1126)">
   <path d="M 28.5156 10.4492 L 87.6465 10.4492 C 98.2422 10.4492 103.711 4.98047 103.711 -5.46875 L 103.711 -64.8926 C 103.711 -75.3418 98.2422 -80.8105 87.6465 -80.8105 L 28.5156 -80.8105 C 17.9688 -80.8105 12.4512 -75.3906 12.4512 -64.8926 L 12.4512 -5.46875 C 12.4512 4.98047 17.9688 10.4492 28.5156 10.4492 Z M 58.1055 -26.709 C 48.5352 -26.709 41.1133 -34.7656 41.1133 -45.3125 C 41.1133 -55.2246 48.584 -63.4277 58.1055 -63.4277 C 67.5781 -63.4277 75.0488 -55.2246 75.0488 -45.3125 C 75.0488 -34.7656 67.627 -26.709 58.1055 -26.709 Z M 58.1055 -18.7988 C 74.6582 -18.7988 86.7188 -9.7168 91.9922 0.78125 C 91.8945 1.61133 90.918 2.09961 89.5508 2.09961 L 26.6602 2.09961 C 25.293 2.09961 24.2676 1.61133 24.1699 0.78125 C 29.4922 -9.7168 41.5039 -18.7988 58.1055 -18.7988 Z"/>
  </g>
  <g id="Regular-M" transform="matrix(1 0 0 1 1392.45 1126)">
   <path d="M 27.7832 9.76562 L 87.0117 9.76562 C 97.2656 9.76562 102.344 4.6875 102.344 -5.37109 L 102.344 -64.9902 C 102.344 -75.0488 97.2656 -80.127 87.0117 -80.127 L 27.7832 -80.127 C 17.5781 -80.127 12.4512 -75.0977 12.4512 -64.9902 L 12.4512 -5.37109 C 12.4512 4.73633 17.5781 9.76562 27.7832 9.76562 Z M 57.4219 -26.4648 C 48.0957 -26.4648 40.6738 -34.375 40.6738 -44.873 C 40.6738 -54.6875 48.0957 -62.6953 57.4219 -62.6953 C 66.748 -62.6953 74.1211 -54.6875 74.1211 -44.873 C 74.1211 -34.375 66.748 -26.4648 57.4219 -26.4648 Z M 57.4219 -18.8477 C 74.707 -18.8477 86.377 -9.32617 91.8945 0.927734 C 91.8457 1.85547 90.8203 2.44141 89.3555 2.44141 L 25.4883 2.44141 C 24.0723 2.44141 22.998 1.85547 22.9492 0.927734 C 28.4668 -9.32617 40.1367 -18.8477 57.4219 -18.8477 Z"/>
  </g>
  <g id="Light-M" transform="matrix(1 0 0 1 1096.47 1126)">
   <path d="M 26.8555 9.0332 L 86.4746 9.0332 C 95.9961 9.0332 100.879 4.15039 100.879 -5.22461 L 100.879 -65.0879 C 100.879 -74.5117 95.9961 -79.3945 86.4746 -79.3945 L 26.8555 -79.3945 C 17.334 -79.3945 12.4512 -74.5605 12.4512 -65.0879 L 12.4512 -5.22461 C 12.4512 4.19922 17.334 9.0332 26.8555 9.0332 Z M 56.6406 -27.1484 C 47.4121 -27.1484 40.0879 -34.9609 40.0879 -45.3125 C 40.0879 -55.0293 47.4121 -62.9883 56.6406 -62.9883 C 65.8691 -62.9883 73.1934 -55.0293 73.1934 -45.3125 C 73.1934 -34.9609 65.8691 -27.1484 56.6406 -27.1484 Z M 56.6895 -19.4336 C 77.2949 -19.4336 87.9883 -6.20117 91.6016 1.51367 C 91.6016 2.68555 90.2832 3.36914 88.4277 3.36914 L 24.9023 3.36914 C 23.0957 3.36914 21.7773 2.68555 21.7285 1.51367 C 25.3418 -6.20117 36.0352 -19.4336 56.6895 -19.4336 Z"/>
  </g>
  <g id="Thin-M" transform="matrix(1 0 0 1 800.758 1126)">
   <path d="M 25.6348 8.05664 L 85.7422 8.05664 C 94.3848 8.05664 98.877 3.4668 98.877 -5.0293 L 98.877 -65.2344 C 98.877 -73.7305 94.3848 -78.3691 85.7422 -78.3691 L 25.6348 -78.3691 C 16.9922 -78.3691 12.4512 -73.877 12.4512 -65.2344 L 12.4512 -5.0293 C 12.4512 3.56445 16.9922 8.05664 25.6348 8.05664 Z M 55.6641 -28.0273 C 46.582 -28.0273 39.3555 -35.6934 39.3555 -45.8984 C 39.3555 -55.4688 46.582 -63.3789 55.6641 -63.3789 C 64.7461 -63.3789 71.9727 -55.4688 71.9727 -45.8984 C 71.9727 -35.6934 64.7461 -28.0273 55.6641 -28.0273 Z M 55.7129 -20.2148 C 80.7129 -20.2148 90.0879 -2.05078 91.2598 2.34375 C 91.2598 3.85742 89.5508 4.54102 87.207 4.54102 L 24.1699 4.54102 C 21.7773 4.54102 20.1172 3.85742 20.1172 2.34375 C 21.2891 -2.05078 30.6641 -20.2148 55.7129 -20.2148 Z"/>
  </g>
  <g id="Ultralight-M" transform="matrix(1 0 0 1 504.535 1126)">
   <path d="M 25 7.56836 L 85.3516 7.56836 C 93.5059 7.56836 97.9004 3.125 97.9004 -4.98047 L 97.9004 -65.2832 C 97.9004 -73.3887 93.5059 -77.832 85.3516 -77.832 L 25 -77.832 C 16.7969 -77.832 12.4512 -73.4863 12.4512 -65.2832 L 12.4512 -4.98047 C 12.4512 3.22266 16.7969 7.56836 25 7.56836 Z M 55.1758 -28.5156 C 46.1426 -28.5156 38.9648 -36.084 38.9648 -46.1914 C 38.9648 -55.7129 46.1426 -63.5742 55.1758 -63.5742 C 64.209 -63.5742 71.3379 -55.7129 71.3379 -46.1914 C 71.3379 -36.084 64.209 -28.5156 55.1758 -28.5156 Z M 55.2246 -20.6055 C 82.4707 -20.6055 91.2109 0.0488281 91.1133 2.73438 C 91.1133 4.44336 89.209 5.17578 86.5723 5.17578 L 23.7793 5.17578 C 21.1426 5.17578 19.2871 4.44336 19.2871 2.73438 C 19.1895 0.0488281 27.9297 -20.6055 55.2246 -20.6055 Z"/>
  </g>
  <g id="Black-S" transform="matrix(1 0 0 1 2885.5 696)">
   <path d="M 25 2.92969 L 70.8008 2.92969 C 80.3711 2.92969 86.0352 -2.73438 86.0352 -12.3047 L 86.0352 -58.1055 C 86.0352 -67.6758 80.3711 -73.3398 70.8008 -73.3398 L 25 -73.3398 C 15.4297 -73.3398 9.76562 -67.6758 9.76562 -58.1055 L 9.76562 -12.3047 C 9.76562 -2.73438 15.4297 2.92969 25 2.92969 Z M 47.9004 -29.3457 C 39.7461 -29.3457 33.7402 -36.2305 33.7402 -44.7266 C 33.7402 -52.832 39.9414 -59.9121 47.9004 -59.9121 C 55.8594 -59.9121 62.0605 -52.832 62.0605 -44.7266 C 62.0605 -36.2305 56.0547 -29.3457 47.9004 -29.3457 Z M 47.9004 -22.168 C 58.3496 -22.168 69.0918 -16.6992 72.5098 -7.61719 C 72.3145 -7.12891 71.6309 -7.12891 70.9473 -7.12891 L 24.8535 -7.12891 C 24.1699 -7.12891 23.4863 -7.12891 23.291 -7.61719 C 26.709 -16.6992 37.4512 -22.168 47.9004 -22.168 Z"/>
  </g>
  <g id="Heavy-S" transform="matrix(1 0 0 1 2589.4 696)">
   <path d="M 24.3652 2.34375 L 70.2637 2.34375 C 79.541 2.34375 84.8145 -2.97852 84.8145 -12.207 L 84.8145 -58.2031 C 84.8145 -67.4316 79.541 -72.7539 70.2637 -72.7539 L 24.3652 -72.7539 C 15.0879 -72.7539 9.76562 -67.4316 9.76562 -58.2031 L 9.76562 -12.207 C 9.76562 -2.97852 15.0879 2.34375 24.3652 2.34375 Z M 47.3145 -29.0527 C 39.3066 -29.0527 33.3496 -35.791 33.3496 -44.1895 C 33.3496 -52.2461 39.502 -59.1309 47.3145 -59.1309 C 55.127 -59.1309 61.2305 -52.2461 61.2305 -44.1895 C 61.2305 -35.791 55.2734 -29.0527 47.3145 -29.0527 Z M 47.3145 -22.168 C 58.1055 -22.168 68.5547 -16.6504 72.4121 -7.51953 C 72.2656 -6.98242 71.582 -6.88477 70.8496 -6.88477 L 23.7793 -6.88477 C 23.0469 -6.88477 22.3145 -6.98242 22.168 -7.51953 C 26.0254 -16.6504 36.4746 -22.168 47.3145 -22.168 Z"/>
  </g>
  <g id="Bold-S" transform="matrix(1 0 0 1 2293.35 696)">
   <path d="M 23.6328 1.66016 L 69.6289 1.66016 C 78.6133 1.66016 83.4961 -3.22266 83.4961 -12.1094 L 83.4961 -58.3008 C 83.4961 -67.1875 78.6133 -72.0703 69.6289 -72.0703 L 23.6328 -72.0703 C 14.6973 -72.0703 9.76562 -67.1875 9.76562 -58.3008 L 9.76562 -12.1094 C 9.76562 -3.22266 14.6973 1.66016 23.6328 1.66016 Z M 46.6309 -28.7109 C 38.8672 -28.7109 32.959 -35.2539 32.959 -43.6523 C 32.959 -51.5625 38.9648 -58.252 46.6309 -58.252 C 54.2969 -58.252 60.3027 -51.5625 60.3027 -43.6523 C 60.3027 -35.2539 54.3945 -28.7109 46.6309 -28.7109 Z M 46.6309 -22.1191 C 57.8125 -22.1191 68.0176 -16.6016 72.3145 -7.42188 C 72.2168 -6.88477 71.5332 -6.64062 70.7031 -6.64062 L 22.5586 -6.64062 C 21.7285 -6.64062 21.0449 -6.88477 20.9473 -7.42188 C 25.2441 -16.6016 35.4492 -22.1191 46.6309 -22.1191 Z"/>
  </g>
  <g id="Semibold-S" transform="matrix(1 0 0 1 1997.1 696)">
   <path d="M 23.0957 1.17188 L 69.1895 1.17188 C 77.9297 1.17188 82.5684 -3.36914 82.5684 -12.0117 L 82.5684 -58.3984 C 82.5684 -67.041 77.9297 -71.582 69.1895 -71.582 L 23.0957 -71.582 C 14.4043 -71.582 9.76562 -67.041 9.76562 -58.3984 L 9.76562 -12.0117 C 9.76562 -3.36914 14.4043 1.17188 23.0957 1.17188 Z M 46.1426 -28.4668 C 38.5254 -28.4668 32.666 -34.9121 32.666 -43.2617 C 32.666 -51.123 38.623 -57.666 46.1426 -57.666 C 53.7109 -57.666 59.668 -51.123 59.668 -43.2617 C 59.668 -34.9121 53.7598 -28.4668 46.1426 -28.4668 Z M 46.1426 -22.1191 C 57.6172 -22.1191 67.5781 -16.5527 72.2656 -7.32422 C 72.168 -6.78711 71.4844 -6.44531 70.6055 -6.44531 L 21.7285 -6.44531 C 20.8496 -6.44531 20.166 -6.78711 20.0684 -7.32422 C 24.707 -16.5527 34.668 -22.1191 46.1426 -22.1191 Z"/>
  </g>
  <g id="Medium-S" transform="matrix(1 0 0 1 1700.75 696)">
   <path d="M 22.7051 0.830078 L 68.8965 0.830078 C 77.4414 0.830078 81.8359 -3.51562 81.8359 -11.9629 L 81.8359 -58.4473 C 81.8359 -66.8945 77.4414 -71.2402 68.8965 -71.2402 L 22.7051 -71.2402 C 14.209 -71.2402 9.76562 -66.8945 9.76562 -58.4473 L 9.76562 -11.9629 C 9.76562 -3.51562 14.209 0.830078 22.7051 0.830078 Z M 45.8008 -28.2715 C 38.2812 -28.2715 32.4219 -34.6191 32.4219 -42.9199 C 32.4219 -50.7324 38.3301 -57.1777 45.8008 -57.1777 C 53.2715 -57.1777 59.1797 -50.7324 59.1797 -42.9199 C 59.1797 -34.6191 53.3203 -28.2715 45.8008 -28.2715 Z M 45.8008 -22.1191 C 57.4707 -22.1191 67.2852 -16.5039 72.2168 -7.27539 C 72.1191 -6.68945 71.4355 -6.34766 70.5566 -6.34766 L 21.0938 -6.34766 C 20.2148 -6.34766 19.4824 -6.68945 19.4336 -7.27539 C 24.3164 -16.5039 34.1309 -22.1191 45.8008 -22.1191 Z"/>
  </g>
  <g id="Regular-S" transform="matrix(1 0 0 1 1404.51 696)">
   <path d="M 22.2168 0.390625 L 68.457 0.390625 C 76.8066 0.390625 80.9082 -3.71094 80.9082 -11.9141 L 80.9082 -58.4961 C 80.9082 -66.6992 76.8066 -70.8008 68.457 -70.8008 L 22.2168 -70.8008 C 13.916 -70.8008 9.76562 -66.6992 9.76562 -58.4961 L 9.76562 -11.9141 C 9.76562 -3.71094 13.916 0.390625 22.2168 0.390625 Z M 45.3613 -28.0273 C 37.9883 -28.0273 32.1289 -34.2773 32.1289 -42.5293 C 32.1289 -50.293 37.9883 -56.5918 45.3613 -56.5918 C 52.6855 -56.5918 58.5449 -50.293 58.5449 -42.5293 C 58.5449 -34.2773 52.6855 -28.0273 45.3613 -28.0273 Z M 45.3613 -22.1191 C 57.2754 -22.1191 66.8945 -16.4551 72.1191 -7.17773 C 72.0703 -6.5918 71.3867 -6.15234 70.459 -6.15234 L 20.2637 -6.15234 C 19.3359 -6.15234 18.6035 -6.5918 18.5547 -7.17773 C 23.7793 -16.4551 33.3984 -22.1191 45.3613 -22.1191 Z"/>
  </g>
  <g id="Light-S" transform="matrix(1 0 0 1 1108.46 696)">
   <path d="M 21.3867 -0.292969 L 67.9688 -0.292969 C 75.7324 -0.292969 79.5898 -4.15039 79.5898 -11.7676 L 79.5898 -58.5938 C 79.5898 -66.2109 75.7324 -70.1172 67.9688 -70.1172 L 21.3867 -70.1172 C 13.6719 -70.1172 9.76562 -66.2598 9.76562 -58.5938 L 9.76562 -11.7676 C 9.76562 -4.15039 13.6719 -0.292969 21.3867 -0.292969 Z M 44.6777 -28.6133 C 37.4023 -28.6133 31.6406 -34.7656 31.6406 -42.9688 C 31.6406 -50.5859 37.4023 -56.8359 44.6777 -56.8359 C 51.9531 -56.8359 57.7148 -50.5859 57.7148 -42.9688 C 57.7148 -34.7656 51.9531 -28.6133 44.6777 -28.6133 Z M 44.6777 -22.6074 C 59.5703 -22.6074 68.3105 -13.6719 71.875 -6.64062 C 71.875 -5.85938 70.9473 -5.37109 69.6289 -5.37109 L 19.7754 -5.37109 C 18.457 -5.37109 17.5293 -5.85938 17.4805 -6.64062 C 21.0449 -13.6719 29.834 -22.6074 44.6777 -22.6074 Z"/>
  </g>
  <g id="Thin-S" transform="matrix(1 0 0 1 812.599 696)">
   <path d="M 20.3125 -1.12305 L 67.334 -1.12305 C 74.2676 -1.12305 77.8809 -4.78516 77.8809 -11.6211 L 77.8809 -58.6914 C 77.8809 -65.5762 74.2676 -69.2383 67.334 -69.2383 L 20.3125 -69.2383 C 13.3789 -69.2383 9.76562 -65.625 9.76562 -58.6914 L 9.76562 -11.6211 C 9.76562 -4.6875 13.3789 -1.12305 20.3125 -1.12305 Z M 43.7988 -29.4434 C 36.6699 -29.4434 31.0059 -35.4492 31.0059 -43.457 C 31.0059 -51.0254 36.6699 -57.1777 43.7988 -57.1777 C 50.9766 -57.1777 56.6406 -51.0254 56.6406 -43.457 C 56.6406 -35.4492 50.9766 -29.4434 43.7988 -29.4434 Z M 43.8477 -23.291 C 62.5977 -23.291 70.2148 -10.0098 71.582 -5.95703 C 71.582 -4.83398 70.3125 -4.29688 68.5547 -4.29688 L 19.0918 -4.29688 C 17.334 -4.29688 16.1133 -4.83398 16.0645 -5.95703 C 17.4805 -10.0098 25.0488 -23.291 43.8477 -23.291 Z"/>
  </g>
  <g id="Ultralight-S" transform="matrix(1 0 0 1 516.352 696)">
   <path d="M 19.7754 -1.5625 L 66.9922 -1.5625 C 73.5352 -1.5625 76.9531 -5.12695 76.9531 -11.5234 L 76.9531 -58.7891 C 76.9531 -65.2344 73.5352 -68.75 66.9922 -68.75 L 19.7754 -68.75 C 13.2324 -68.75 9.76562 -65.2832 9.76562 -58.7891 L 9.76562 -11.5234 C 9.76562 -5.0293 13.2324 -1.5625 19.7754 -1.5625 Z M 43.3594 -29.834 C 36.2793 -29.834 30.6641 -35.791 30.6641 -43.75 C 30.6641 -51.2207 36.2793 -57.373 43.3594 -57.373 C 50.4395 -57.373 56.1035 -51.2207 56.1035 -43.75 C 56.1035 -35.791 50.4395 -29.834 43.3594 -29.834 Z M 43.4082 -23.6328 C 64.1602 -23.6328 71.1426 -8.1543 71.4355 -5.61523 C 71.4355 -4.29688 69.9707 -3.75977 68.0176 -3.75977 L 18.75 -3.75977 C 16.748 -3.75977 15.332 -4.29688 15.332 -5.61523 C 15.625 -8.1543 22.6074 -23.6328 43.4082 -23.6328 Z"/>
  </g>
 </g>
</svg>
