<?xml version="1.0" encoding="UTF-8"?>
<!--Generator: Apple Native CoreSVG 175-->
<!DOCTYPE svg
PUBLIC "-//W3C//DTD SVG 1.1//EN"
       "http://www.w3.org/Graphics/SVG/1.1/DTD/svg11.dtd">
<svg version="1.1" xmlns="http://www.w3.org/2000/svg" xmlns:xlink="http://www.w3.org/1999/xlink" width="3300" height="2200">
 <!--glyph: "uni10018A.medium", point size: 100.0, font version: "17.0d12e1", template writer version: "65.1"-->
 <g id="Notes">
  <rect height="2200" id="artboard" style="fill:white;opacity:1" width="3300" x="0" y="0"/>
  <line style="fill:none;stroke:black;opacity:1;stroke-width:0.5;" x1="263" x2="3036" y1="292" y2="292"/>
  <text style="stroke:none;fill:black;font-family:sans-serif;font-size:13;font-weight:bold;" transform="matrix(1 0 0 1 263 322)">Weight/Scale Variations</text>
  <text style="stroke:none;fill:black;font-family:sans-serif;font-size:13;text-anchor:middle;" transform="matrix(1 0 0 1 559.711 322)">Ultralight</text>
  <text style="stroke:none;fill:black;font-family:sans-serif;font-size:13;text-anchor:middle;" transform="matrix(1 0 0 1 856.422 322)">Thin</text>
  <text style="stroke:none;fill:black;font-family:sans-serif;font-size:13;text-anchor:middle;" transform="matrix(1 0 0 1 1153.13 322)">Light</text>
  <text style="stroke:none;fill:black;font-family:sans-serif;font-size:13;text-anchor:middle;" transform="matrix(1 0 0 1 1449.84 322)">Regular</text>
  <text style="stroke:none;fill:black;font-family:sans-serif;font-size:13;text-anchor:middle;" transform="matrix(1 0 0 1 1746.56 322)">Medium</text>
  <text style="stroke:none;fill:black;font-family:sans-serif;font-size:13;text-anchor:middle;" transform="matrix(1 0 0 1 2043.27 322)">Semibold</text>
  <text style="stroke:none;fill:black;font-family:sans-serif;font-size:13;text-anchor:middle;" transform="matrix(1 0 0 1 2339.98 322)">Bold</text>
  <text style="stroke:none;fill:black;font-family:sans-serif;font-size:13;text-anchor:middle;" transform="matrix(1 0 0 1 2636.69 322)">Heavy</text>
  <text style="stroke:none;fill:black;font-family:sans-serif;font-size:13;text-anchor:middle;" transform="matrix(1 0 0 1 2933.4 322)">Black</text>
  <line style="fill:none;stroke:black;opacity:1;stroke-width:0.5;" x1="263" x2="3036" y1="1903" y2="1903"/>
  <g transform="matrix(1 0 0 1 263 1933)">
   <path d="M9.24805 0.830078Q10.8691 0.830078 12.2949 0.214844Q13.7207-0.400391 14.8096-1.49414Q15.8984-2.58789 16.5186-4.01367Q17.1387-5.43945 17.1387-7.05078Q17.1387-8.66211 16.5186-10.0879Q15.8984-11.5137 14.8047-12.6074Q13.7109-13.7012 12.2852-14.3164Q10.8594-14.9316 9.23828-14.9316Q7.62695-14.9316 6.20117-14.3164Q4.77539-13.7012 3.69141-12.6074Q2.60742-11.5137 1.9873-10.0879Q1.36719-8.66211 1.36719-7.05078Q1.36719-5.43945 1.9873-4.01367Q2.60742-2.58789 3.69629-1.49414Q4.78516-0.400391 6.21094 0.214844Q7.63672 0.830078 9.24805 0.830078ZM9.24805-0.654297Q7.91992-0.654297 6.7627-1.14746Q5.60547-1.64062 4.73145-2.51953Q3.85742-3.39844 3.36426-4.56055Q2.87109-5.72266 2.87109-7.05078Q2.87109-8.37891 3.35938-9.54102Q3.84766-10.7031 4.72168-11.582Q5.5957-12.4609 6.75293-12.9541Q7.91016-13.4473 9.23828-13.4473Q10.5762-13.4473 11.7334-12.9541Q12.8906-12.4609 13.7695-11.582Q14.6484-10.7031 15.1465-9.54102Q15.6445-8.37891 15.6445-7.05078Q15.6445-5.72266 15.1514-4.56055Q14.6582-3.39844 13.7842-2.51953Q12.9102-1.64062 11.748-1.14746Q10.5859-0.654297 9.24805-0.654297ZM5.6543-7.05078Q5.6543-6.72852 5.85938-6.52832Q6.06445-6.32812 6.40625-6.32812L8.51562-6.32812L8.51562-4.20898Q8.51562-3.88672 8.71094-3.67676Q8.90625-3.4668 9.23828-3.4668Q9.56055-3.4668 9.77051-3.67676Q9.98047-3.88672 9.98047-4.20898L9.98047-6.32812L12.0898-6.32812Q12.4219-6.32812 12.627-6.52832Q12.832-6.72852 12.832-7.05078Q12.832-7.38281 12.627-7.58789Q12.4219-7.79297 12.0898-7.79297L9.98047-7.79297L9.98047-9.90234Q9.98047-10.2344 9.77051-10.4443Q9.56055-10.6543 9.23828-10.6543Q8.90625-10.6543 8.71094-10.4443Q8.51562-10.2344 8.51562-9.90234L8.51562-7.79297L6.40625-7.79297Q6.06445-7.79297 5.85938-7.58789Q5.6543-7.38281 5.6543-7.05078Z"/>
  </g>
  <g transform="matrix(1 0 0 1 281.867 1933)">
   <path d="M11.709 2.91016Q13.75 2.91016 15.5518 2.12891Q17.3535 1.34766 18.7305-0.0292969Q20.1074-1.40625 20.8887-3.20801Q21.6699-5.00977 21.6699-7.05078Q21.6699-9.0918 20.8887-10.8936Q20.1074-12.6953 18.7305-14.0723Q17.3535-15.4492 15.5469-16.2305Q13.7402-17.0117 11.6992-17.0117Q9.6582-17.0117 7.85645-16.2305Q6.05469-15.4492 4.68262-14.0723Q3.31055-12.6953 2.5293-10.8936Q1.74805-9.0918 1.74805-7.05078Q1.74805-5.00977 2.5293-3.20801Q3.31055-1.40625 4.6875-0.0292969Q6.06445 1.34766 7.86621 2.12891Q9.66797 2.91016 11.709 2.91016ZM11.709 1.25Q9.98047 1.25 8.47656 0.605469Q6.97266-0.0390625 5.83496-1.17676Q4.69727-2.31445 4.05762-3.81836Q3.41797-5.32227 3.41797-7.05078Q3.41797-8.7793 4.05762-10.2832Q4.69727-11.7871 5.83008-12.9297Q6.96289-14.0723 8.4668-14.7119Q9.9707-15.3516 11.6992-15.3516Q13.4277-15.3516 14.9316-14.7119Q16.4355-14.0723 17.5781-12.9297Q18.7207-11.7871 19.3652-10.2832Q20.0098-8.7793 20.0098-7.05078Q20.0098-5.32227 19.3701-3.81836Q18.7305-2.31445 17.5928-1.17676Q16.4551-0.0390625 14.9463 0.605469Q13.4375 1.25 11.709 1.25ZM7.17773-7.05078Q7.17773-6.69922 7.41211-6.47461Q7.64648-6.25 8.01758-6.25L10.8887-6.25L10.8887-3.36914Q10.8887-2.99805 11.1133-2.76855Q11.3379-2.53906 11.6895-2.53906Q12.0605-2.53906 12.29-2.76855Q12.5195-2.99805 12.5195-3.36914L12.5195-6.25L15.4004-6.25Q15.7715-6.25 16.001-6.47461Q16.2305-6.69922 16.2305-7.05078Q16.2305-7.42188 16.001-7.65137Q15.7715-7.88086 15.4004-7.88086L12.5195-7.88086L12.5195-10.752Q12.5195-11.1328 12.29-11.3623Q12.0605-11.5918 11.6895-11.5918Q11.3379-11.5918 11.1133-11.3574Q10.8887-11.123 10.8887-10.752L10.8887-7.88086L8.01758-7.88086Q7.63672-7.88086 7.40723-7.65137Q7.17773-7.42188 7.17773-7.05078Z"/>
  </g>
  <g transform="matrix(1 0 0 1 305.646 1933)">
   <path d="M14.9707 5.66406Q17.0605 5.66406 18.96 5.01465Q20.8594 4.36523 22.4512 3.19336Q24.043 2.02148 25.2197 0.429688Q26.3965-1.16211 27.0459-3.06641Q27.6953-4.9707 27.6953-7.05078Q27.6953-9.14062 27.0459-11.04Q26.3965-12.9395 25.2197-14.5312Q24.043-16.123 22.4512-17.2998Q20.8594-18.4766 18.9551-19.126Q17.0508-19.7754 14.9609-19.7754Q12.8711-19.7754 10.9717-19.126Q9.07227-18.4766 7.48535-17.2998Q5.89844-16.123 4.72168-14.5312Q3.54492-12.9395 2.90039-11.04Q2.25586-9.14062 2.25586-7.05078Q2.25586-4.9707 2.90527-3.06641Q3.55469-1.16211 4.72656 0.429688Q5.89844 2.02148 7.49023 3.19336Q9.08203 4.36523 10.9814 5.01465Q12.8809 5.66406 14.9707 5.66406ZM14.9707 3.84766Q13.1641 3.84766 11.5283 3.2959Q9.89258 2.74414 8.53516 1.74805Q7.17773 0.751953 6.17676-0.610352Q5.17578-1.97266 4.62891-3.6084Q4.08203-5.24414 4.08203-7.05078Q4.08203-8.86719 4.62891-10.5029Q5.17578-12.1387 6.17188-13.501Q7.16797-14.8633 8.52539-15.8594Q9.88281-16.8555 11.5186-17.4023Q13.1543-17.9492 14.9609-17.9492Q16.7773-17.9492 18.4131-17.4023Q20.0488-16.8555 21.4111-15.8594Q22.7734-14.8633 23.7695-13.501Q24.7656-12.1387 25.3174-10.5029Q25.8691-8.86719 25.8691-7.05078Q25.8789-5.24414 25.332-3.6084Q24.7852-1.97266 23.7842-0.610352Q22.7832 0.751953 21.4209 1.74805Q20.0586 2.74414 18.4229 3.2959Q16.7871 3.84766 14.9707 3.84766ZM9.19922-7.05078Q9.19922-6.66992 9.45801-6.4209Q9.7168-6.17188 10.1172-6.17188L14.0625-6.17188L14.0625-2.2168Q14.0625-1.81641 14.3115-1.55762Q14.5605-1.29883 14.9512-1.29883Q15.3516-1.29883 15.6104-1.55273Q15.8691-1.80664 15.8691-2.2168L15.8691-6.17188L19.8242-6.17188Q20.2246-6.17188 20.4785-6.4209Q20.7324-6.66992 20.7324-7.05078Q20.7324-7.46094 20.4785-7.71484Q20.2246-7.96875 19.8242-7.96875L15.8691-7.96875L15.8691-11.9141Q15.8691-12.3242 15.6104-12.583Q15.3516-12.8418 14.9512-12.8418Q14.5605-12.8418 14.3115-12.583Q14.0625-12.3242 14.0625-11.9141L14.0625-7.96875L10.1172-7.96875Q9.70703-7.96875 9.45312-7.71484Q9.19922-7.46094 9.19922-7.05078Z"/>
  </g>
  <text style="stroke:none;fill:black;font-family:sans-serif;font-size:13;font-weight:bold;" transform="matrix(1 0 0 1 263 1953)">Design Variations</text>
  <text style="stroke:none;fill:black;font-family:sans-serif;font-size:13;" transform="matrix(1 0 0 1 263 1971)">Symbols are supported in up to nine weights and three scales.</text>
  <text style="stroke:none;fill:black;font-family:sans-serif;font-size:13;" transform="matrix(1 0 0 1 263 1989)">For optimal layout with text and other symbols, vertically align</text>
  <text style="stroke:none;fill:black;font-family:sans-serif;font-size:13;" transform="matrix(1 0 0 1 263 2007)">symbols with the adjacent text.</text>
  <line style="fill:none;stroke:#00AEEF;stroke-width:0.5;opacity:1.0;" x1="776" x2="776" y1="1919" y2="1933"/>
  <g transform="matrix(1 0 0 1 776 1933)">
   <path d="M3.31055 0.15625Q3.70117 0.15625 3.91602-0.00976562Q4.13086-0.175781 4.26758-0.585938L5.52734-4.0332L11.2891-4.0332L12.5488-0.585938Q12.6855-0.175781 12.9004-0.00976562Q13.1152 0.15625 13.4961 0.15625Q13.8867 0.15625 14.1162-0.0585938Q14.3457-0.273438 14.3457-0.644531Q14.3457-0.869141 14.2383-1.17188L9.6582-13.3691Q9.48242-13.8184 9.17969-14.043Q8.87695-14.2676 8.4082-14.2676Q7.5-14.2676 7.17773-13.3789L2.59766-1.16211Q2.49023-0.859375 2.49023-0.634766Q2.49023-0.263672 2.70996-0.0537109Q2.92969 0.15625 3.31055 0.15625ZM6.00586-5.51758L8.37891-12.0898L8.42773-12.0898L10.8008-5.51758Z"/>
  </g>
  <line style="fill:none;stroke:#00AEEF;stroke-width:0.5;opacity:1.0;" x1="793.197" x2="793.197" y1="1919" y2="1933"/>
  <text style="stroke:none;fill:black;font-family:sans-serif;font-size:13;font-weight:bold;" transform="matrix(1 0 0 1 776 1953)">Margins</text>
  <text style="stroke:none;fill:black;font-family:sans-serif;font-size:13;" transform="matrix(1 0 0 1 776 1971)">Leading and trailing margins on the left and right side of each symbol</text>
  <text style="stroke:none;fill:black;font-family:sans-serif;font-size:13;" transform="matrix(1 0 0 1 776 1989)">can be adjusted by modifying the x-location of the margin guidelines.</text>
  <text style="stroke:none;fill:black;font-family:sans-serif;font-size:13;" transform="matrix(1 0 0 1 776 2007)">Modifications are automatically applied proportionally to all</text>
  <text style="stroke:none;fill:black;font-family:sans-serif;font-size:13;" transform="matrix(1 0 0 1 776 2025)">scales and weights.</text>
  <g transform="matrix(1 0 0 1 1289 1933)">
   <path d="M2.8418 1.86523L4.54102 3.57422Q5.18555 4.22852 5.90332 4.17969Q6.62109 4.13086 7.31445 3.35938L18.0078-8.42773L17.041-9.4043L6.42578 2.27539Q6.16211 2.57812 5.89355 2.61719Q5.625 2.65625 5.27344 2.30469L4.10156 1.14258Q3.75 0.791016 3.79395 0.522461Q3.83789 0.253906 4.14062-0.0195312L15.6152-10.8203L14.6387-11.7871L3.04688-0.898438Q2.30469-0.214844 2.25098 0.498047Q2.19727 1.21094 2.8418 1.86523ZM9.25781-16.3281Q8.94531-16.0254 8.90625-15.6348Q8.86719-15.2441 9.04297-14.9512Q9.21875-14.6777 9.55566-14.541Q9.89258-14.4043 10.3809-14.5215Q11.4746-14.7754 12.5977-14.7314Q13.7207-14.6875 14.7949-13.9844L14.209-12.5293Q13.9551-11.9043 14.0674-11.4404Q14.1797-10.9766 14.5801-10.5664L16.875-8.25195Q17.2363-7.88086 17.5781-7.82227Q17.9199-7.76367 18.3398-7.8418L19.4043-8.03711L20.0684-7.36328L20.0293-6.80664Q20-6.43555 20.1221-6.12305Q20.2441-5.81055 20.6055-5.44922L21.3672-4.70703Q21.7285-4.3457 22.1533-4.33105Q22.5781-4.31641 22.9297-4.66797L25.8398-7.58789Q26.1914-7.93945 26.1816-8.35449Q26.1719-8.76953 25.8105-9.13086L25.0391-9.89258Q24.6875-10.2539 24.3799-10.3857Q24.0723-10.5176 23.7109-10.4883L23.1348-10.4395L22.4902-11.0742L22.7344-12.1973Q22.832-12.6172 22.6953-12.9834Q22.5586-13.3496 22.1191-13.7891L19.9219-15.9766Q18.6719-17.2168 17.2607-17.8369Q15.8496-18.457 14.4189-18.4814Q12.9883-18.5059 11.665-17.959Q10.3418-17.4121 9.25781-16.3281ZM10.752-15.957Q11.6602-16.6211 12.7002-16.9043Q13.7402-17.1875 14.8047-17.085Q15.8691-16.9824 16.8701-16.5137Q17.8711-16.0449 18.7012-15.2051L21.1328-12.793Q21.3086-12.6172 21.3525-12.4512Q21.3965-12.2852 21.3379-12.0312L21.0156-10.5469L22.5195-9.0625L23.5059-9.12109Q23.6914-9.13086 23.7891-9.09668Q23.8867-9.0625 24.0332-8.91602L24.6094-8.33984L22.168-5.89844L21.5918-6.47461Q21.4453-6.62109 21.4062-6.71875Q21.3672-6.81641 21.377-7.01172L21.4453-7.98828L19.9512-9.47266L18.4277-9.21875Q18.1836-9.16992 18.042-9.2041Q17.9004-9.23828 17.7148-9.41406L15.7129-11.416Q15.5176-11.5918 15.4932-11.7529Q15.4688-11.9141 15.5859-12.1875L16.4648-14.2773Q15.293-15.3711 13.8281-15.791Q12.3633-16.2109 10.8398-15.7617Q10.7227-15.7324 10.6885-15.8057Q10.6543-15.8789 10.752-15.957Z"/>
  </g>
  <text style="stroke:none;fill:black;font-family:sans-serif;font-size:13;font-weight:bold;" transform="matrix(1 0 0 1 1289 1953)">Exporting</text>
  <text style="stroke:none;fill:black;font-family:sans-serif;font-size:13;" transform="matrix(1 0 0 1 1289 1971)">Symbols should be outlined when exporting to ensure the</text>
  <text style="stroke:none;fill:black;font-family:sans-serif;font-size:13;" transform="matrix(1 0 0 1 1289 1989)">design is preserved when submitting to Xcode.</text>
  <text id="template-version" style="stroke:none;fill:black;font-family:sans-serif;font-size:13;text-anchor:end;" transform="matrix(1 0 0 1 3036 1933)">Template v.3.0</text>
  <text style="stroke:none;fill:black;font-family:sans-serif;font-size:13;text-anchor:end;" transform="matrix(1 0 0 1 3036 1951)">Requires Xcode 13 or greater</text>
  <text id="descriptive-name" style="stroke:none;fill:black;font-family:sans-serif;font-size:13;text-anchor:end;" transform="matrix(1 0 0 1 3036 1969)">Generated from chevron.right</text>
  <text style="stroke:none;fill:black;font-family:sans-serif;font-size:13;text-anchor:end;" transform="matrix(1 0 0 1 3036 1987)">Typeset at 100 points</text>
  <text style="stroke:none;fill:black;font-family:sans-serif;font-size:13;" transform="matrix(1 0 0 1 263 726)">Small</text>
  <text style="stroke:none;fill:black;font-family:sans-serif;font-size:13;" transform="matrix(1 0 0 1 263 1156)">Medium</text>
  <text style="stroke:none;fill:black;font-family:sans-serif;font-size:13;" transform="matrix(1 0 0 1 263 1586)">Large</text>
 </g>
 <g id="Guides">
  <g id="H-reference" style="fill:#27AAE1;stroke:none;" transform="matrix(1 0 0 1 339 696)">
   <path d="M0.993347 0L3.6377 0L29.3282-67.1326L30.0301-67.1326L30.0301-70.459L28.1227-70.459ZM11.6882-24.4797L46.9818-24.4797L46.2311-26.7288L12.4382-26.7288ZM55.1193 0L57.7637 0L30.6381-70.459L29.4327-70.459L29.4327-67.1326Z"/>
  </g>
  <line id="Baseline-S" style="fill:none;stroke:#27AAE1;opacity:1;stroke-width:0.5;" x1="263" x2="3036" y1="696" y2="696"/>
  <line id="Capline-S" style="fill:none;stroke:#27AAE1;opacity:1;stroke-width:0.5;" x1="263" x2="3036" y1="625.541" y2="625.541"/>
  <g id="H-reference" style="fill:#27AAE1;stroke:none;" transform="matrix(1 0 0 1 339 1126)">
   <path d="M0.993347 0L3.6377 0L29.3282-67.1326L30.0301-67.1326L30.0301-70.459L28.1227-70.459ZM11.6882-24.4797L46.9818-24.4797L46.2311-26.7288L12.4382-26.7288ZM55.1193 0L57.7637 0L30.6381-70.459L29.4327-70.459L29.4327-67.1326Z"/>
  </g>
  <line id="Baseline-M" style="fill:none;stroke:#27AAE1;opacity:1;stroke-width:0.5;" x1="263" x2="3036" y1="1126" y2="1126"/>
  <line id="Capline-M" style="fill:none;stroke:#27AAE1;opacity:1;stroke-width:0.5;" x1="263" x2="3036" y1="1055.54" y2="1055.54"/>
  <g id="H-reference" style="fill:#27AAE1;stroke:none;" transform="matrix(1 0 0 1 339 1556)">
   <path d="M0.993347 0L3.6377 0L29.3282-67.1326L30.0301-67.1326L30.0301-70.459L28.1227-70.459ZM11.6882-24.4797L46.9818-24.4797L46.2311-26.7288L12.4382-26.7288ZM55.1193 0L57.7637 0L30.6381-70.459L29.4327-70.459L29.4327-67.1326Z"/>
  </g>
  <line id="Baseline-L" style="fill:none;stroke:#27AAE1;opacity:1;stroke-width:0.5;" x1="263" x2="3036" y1="1556" y2="1556"/>
  <line id="Capline-L" style="fill:none;stroke:#27AAE1;opacity:1;stroke-width:0.5;" x1="263" x2="3036" y1="1485.54" y2="1485.54"/>
  <line id="left-margin-Ultralight-S" style="fill:none;stroke:#00AEEF;stroke-width:0.5;opacity:1.0;" x1="533.212" x2="533.212" y1="600.785" y2="720.121"/>
  <line id="right-margin-Ultralight-S" style="fill:none;stroke:#00AEEF;stroke-width:0.5;opacity:1.0;" x1="586.211" x2="586.211" y1="600.785" y2="720.121"/>
  <line id="left-margin-Thin-S" style="fill:none;stroke:#00AEEF;stroke-width:0.5;opacity:1.0;" x1="829.379" x2="829.379" y1="600.785" y2="720.121"/>
  <line id="right-margin-Thin-S" style="fill:none;stroke:#00AEEF;stroke-width:0.5;opacity:1.0;" x1="883.465" x2="883.465" y1="600.785" y2="720.121"/>
  <line id="left-margin-Light-S" style="fill:none;stroke:#00AEEF;stroke-width:0.5;opacity:1.0;" x1="1125.03" x2="1125.03" y1="600.785" y2="720.121"/>
  <line id="right-margin-Light-S" style="fill:none;stroke:#00AEEF;stroke-width:0.5;opacity:1.0;" x1="1181.24" x2="1181.24" y1="600.785" y2="720.121"/>
  <line id="left-margin-Regular-S" style="fill:none;stroke:#00AEEF;stroke-width:0.5;opacity:1.0;" x1="1420.94" x2="1420.94" y1="600.785" y2="720.121"/>
  <line id="right-margin-Regular-S" style="fill:none;stroke:#00AEEF;stroke-width:0.5;opacity:1.0;" x1="1478.75" x2="1478.75" y1="600.785" y2="720.121"/>
  <line id="left-margin-Medium-S" style="fill:none;stroke:#00AEEF;stroke-width:0.5;opacity:1.0;" x1="1716.92" x2="1716.92" y1="600.785" y2="720.121"/>
  <line id="right-margin-Medium-S" style="fill:none;stroke:#00AEEF;stroke-width:0.5;opacity:1.0;" x1="1776.19" x2="1776.19" y1="600.785" y2="720.121"/>
  <line id="left-margin-Semibold-S" style="fill:none;stroke:#00AEEF;stroke-width:0.5;opacity:1.0;" x1="2013.07" x2="2013.07" y1="600.785" y2="720.121"/>
  <line id="right-margin-Semibold-S" style="fill:none;stroke:#00AEEF;stroke-width:0.5;opacity:1.0;" x1="2073.46" x2="2073.46" y1="600.785" y2="720.121"/>
  <line id="left-margin-Bold-S" style="fill:none;stroke:#00AEEF;stroke-width:0.5;opacity:1.0;" x1="2309.05" x2="2309.05" y1="600.785" y2="720.121"/>
  <line id="right-margin-Bold-S" style="fill:none;stroke:#00AEEF;stroke-width:0.5;opacity:1.0;" x1="2370.91" x2="2370.91" y1="600.785" y2="720.121"/>
  <line id="left-margin-Heavy-S" style="fill:none;stroke:#00AEEF;stroke-width:0.5;opacity:1.0;" x1="2604.69" x2="2604.69" y1="600.785" y2="720.121"/>
  <line id="right-margin-Heavy-S" style="fill:none;stroke:#00AEEF;stroke-width:0.5;opacity:1.0;" x1="2668.69" x2="2668.69" y1="600.785" y2="720.121"/>
  <line id="left-margin-Black-S" style="fill:none;stroke:#00AEEF;stroke-width:0.5;opacity:1.0;" x1="2900.44" x2="2900.44" y1="600.785" y2="720.121"/>
  <line id="right-margin-Black-S" style="fill:none;stroke:#00AEEF;stroke-width:0.5;opacity:1.0;" x1="2966.36" x2="2966.36" y1="600.785" y2="720.121"/>
  <line id="left-margin-Ultralight-M" style="fill:none;stroke:#00AEEF;stroke-width:0.5;opacity:1.0;" x1="526.108" x2="526.108" y1="1030.79" y2="1150.12"/>
  <line id="right-margin-Ultralight-M" style="fill:none;stroke:#00AEEF;stroke-width:0.5;opacity:1.0;" x1="593.315" x2="593.315" y1="1030.79" y2="1150.12"/>
  <line id="left-margin-Thin-M" style="fill:none;stroke:#00AEEF;stroke-width:0.5;opacity:1.0;" x1="822.203" x2="822.203" y1="1030.79" y2="1150.12"/>
  <line id="right-margin-Thin-M" style="fill:none;stroke:#00AEEF;stroke-width:0.5;opacity:1.0;" x1="890.641" x2="890.641" y1="1030.79" y2="1150.12"/>
  <line id="left-margin-Light-M" style="fill:none;stroke:#00AEEF;stroke-width:0.5;opacity:1.0;" x1="1117.71" x2="1117.71" y1="1030.79" y2="1150.12"/>
  <line id="right-margin-Light-M" style="fill:none;stroke:#00AEEF;stroke-width:0.5;opacity:1.0;" x1="1188.55" x2="1188.55" y1="1030.79" y2="1150.12"/>
  <line id="left-margin-Regular-M" style="fill:none;stroke:#00AEEF;stroke-width:0.5;opacity:1.0;" x1="1413.52" x2="1413.52" y1="1030.79" y2="1150.12"/>
  <line id="right-margin-Regular-M" style="fill:none;stroke:#00AEEF;stroke-width:0.5;opacity:1.0;" x1="1486.17" x2="1486.17" y1="1030.79" y2="1150.12"/>
  <line id="left-margin-Medium-M" style="fill:none;stroke:#00AEEF;stroke-width:0.5;opacity:1.0;" x1="1709.27" x2="1709.27" y1="1030.79" y2="1150.12"/>
  <line id="right-margin-Medium-M" style="fill:none;stroke:#00AEEF;stroke-width:0.5;opacity:1.0;" x1="1783.84" x2="1783.84" y1="1030.79" y2="1150.12"/>
  <line id="left-margin-Semibold-M" style="fill:none;stroke:#00AEEF;stroke-width:0.5;opacity:1.0;" x1="2005.25" x2="2005.25" y1="1030.79" y2="1150.12"/>
  <line id="right-margin-Semibold-M" style="fill:none;stroke:#00AEEF;stroke-width:0.5;opacity:1.0;" x1="2081.29" x2="2081.29" y1="1030.79" y2="1150.12"/>
  <line id="left-margin-Bold-M" style="fill:none;stroke:#00AEEF;stroke-width:0.5;opacity:1.0;" x1="2300.99" x2="2300.99" y1="1030.79" y2="1150.12"/>
  <line id="right-margin-Bold-M" style="fill:none;stroke:#00AEEF;stroke-width:0.5;opacity:1.0;" x1="2378.97" x2="2378.97" y1="1030.79" y2="1150.12"/>
  <line id="left-margin-Heavy-M" style="fill:none;stroke:#00AEEF;stroke-width:0.5;opacity:1.0;" x1="2596.29" x2="2596.29" y1="1030.79" y2="1150.12"/>
  <line id="right-margin-Heavy-M" style="fill:none;stroke:#00AEEF;stroke-width:0.5;opacity:1.0;" x1="2677.08" x2="2677.08" y1="1030.79" y2="1150.12"/>
  <line id="left-margin-Black-M" style="fill:none;stroke:#00AEEF;stroke-width:0.5;opacity:1.0;" x1="2891.75" x2="2891.75" y1="1030.79" y2="1150.12"/>
  <line id="right-margin-Black-M" style="fill:none;stroke:#00AEEF;stroke-width:0.5;opacity:1.0;" x1="2975.05" x2="2975.05" y1="1030.79" y2="1150.12"/>
  <line id="left-margin-Ultralight-L" style="fill:none;stroke:#00AEEF;stroke-width:0.5;opacity:1.0;" x1="516.611" x2="516.611" y1="1460.79" y2="1580.12"/>
  <line id="right-margin-Ultralight-L" style="fill:none;stroke:#00AEEF;stroke-width:0.5;opacity:1.0;" x1="602.811" x2="602.811" y1="1460.79" y2="1580.12"/>
  <line id="left-margin-Thin-L" style="fill:none;stroke:#00AEEF;stroke-width:0.5;opacity:1.0;" x1="812.635" x2="812.635" y1="1460.79" y2="1580.12"/>
  <line id="right-margin-Thin-L" style="fill:none;stroke:#00AEEF;stroke-width:0.5;opacity:1.0;" x1="900.209" x2="900.209" y1="1460.79" y2="1580.12"/>
  <line id="left-margin-Light-L" style="fill:none;stroke:#00AEEF;stroke-width:0.5;opacity:1.0;" x1="1108" x2="1108" y1="1460.79" y2="1580.12"/>
  <line id="right-margin-Light-L" style="fill:none;stroke:#00AEEF;stroke-width:0.5;opacity:1.0;" x1="1198.26" x2="1198.26" y1="1460.79" y2="1580.12"/>
  <line id="left-margin-Regular-L" style="fill:none;stroke:#00AEEF;stroke-width:0.5;opacity:1.0;" x1="1403.7" x2="1403.7" y1="1460.79" y2="1580.12"/>
  <line id="right-margin-Regular-L" style="fill:none;stroke:#00AEEF;stroke-width:0.5;opacity:1.0;" x1="1495.99" x2="1495.99" y1="1460.79" y2="1580.12"/>
  <line id="left-margin-Medium-L" style="fill:none;stroke:#00AEEF;stroke-width:0.5;opacity:1.0;" x1="1699.27" x2="1699.27" y1="1460.79" y2="1580.12"/>
  <line id="right-margin-Medium-L" style="fill:none;stroke:#00AEEF;stroke-width:0.5;opacity:1.0;" x1="1793.85" x2="1793.85" y1="1460.79" y2="1580.12"/>
  <line id="left-margin-Semibold-L" style="fill:none;stroke:#00AEEF;stroke-width:0.5;opacity:1.0;" x1="1995.1" x2="1995.1" y1="1460.79" y2="1580.12"/>
  <line id="right-margin-Semibold-L" style="fill:none;stroke:#00AEEF;stroke-width:0.5;opacity:1.0;" x1="2091.44" x2="2091.44" y1="1460.79" y2="1580.12"/>
  <line id="left-margin-Bold-L" style="fill:none;stroke:#00AEEF;stroke-width:0.5;opacity:1.0;" x1="2290.65" x2="2290.65" y1="1460.79" y2="1580.12"/>
  <line id="right-margin-Bold-L" style="fill:none;stroke:#00AEEF;stroke-width:0.5;opacity:1.0;" x1="2389.31" x2="2389.31" y1="1460.79" y2="1580.12"/>
  <line id="left-margin-Heavy-L" style="fill:none;stroke:#00AEEF;stroke-width:0.5;opacity:1.0;" x1="2585.68" x2="2585.68" y1="1460.79" y2="1580.12"/>
  <line id="right-margin-Heavy-L" style="fill:none;stroke:#00AEEF;stroke-width:0.5;opacity:1.0;" x1="2687.7" x2="2687.7" y1="1460.79" y2="1580.12"/>
  <line id="left-margin-Black-L" style="fill:none;stroke:#00AEEF;stroke-width:0.5;opacity:1.0;" x1="2880.89" x2="2880.89" y1="1460.79" y2="1580.12"/>
  <line id="right-margin-Black-L" style="fill:none;stroke:#00AEEF;stroke-width:0.5;opacity:1.0;" x1="2985.91" x2="2985.91" y1="1460.79" y2="1580.12"/>
 </g>
 <g id="Symbols">
  <g id="Black-L" transform="matrix(1 0 0 1 2880.89 1556)">
   <path d="M98.1934-35.2539Q98.1445-38.3789 96.9971-40.9424Q95.8496-43.5059 93.2617-45.9961L47.0215-91.5039Q43.457-95.0684 38.2324-95.0684Q34.668-95.0684 31.7383-93.335Q28.8086-91.6016 27.0508-88.6963Q25.293-85.791 25.293-82.3242Q25.293-76.9531 29.541-72.8516L68.2617-35.3516L29.541 2.29492Q25.293 6.49414 25.293 11.8164Q25.293 15.332 27.0508 18.2373Q28.8086 21.1426 31.7383 22.876Q34.668 24.6094 38.2324 24.6094Q43.457 24.6094 47.0215 20.9961L93.2617-24.5117Q95.8984-27.0508 97.0459-29.6387Q98.1934-32.2266 98.1934-35.2539Z"/>
  </g>
  <g id="Heavy-L" transform="matrix(1 0 0 1 2585.68 1556)">
   <path d="M94.8975-35.2539Q94.8601-37.8952 93.8911-40.0608Q92.9222-42.2264 90.7608-44.3016L43.5875-90.4671Q40.5296-93.5242 36.0542-93.5242Q33.0086-93.5242 30.5111-92.0502Q28.0136-90.5762 26.5148-88.097Q25.016-85.6178 25.016-82.6469Q25.016-78.0823 28.5957-74.6033L69.2184-35.3287L28.5957 4.04663Q25.016 7.6004 25.016 12.1277Q25.016 15.1474 26.5148 17.6266Q28.0136 20.1057 30.5111 21.5797Q33.0086 23.0537 36.0542 23.0537Q40.5296 23.0537 43.5875 19.9593L90.7608-26.2062Q92.9596-28.3188 93.9285-30.5088Q94.8975-32.6988 94.8975-35.2539Z"/>
  </g>
  <g id="Bold-L" transform="matrix(1 0 0 1 2290.65 1556)">
   <path d="M91.2109-35.2539Q91.1865-37.3535 90.4175-39.0747Q89.6484-40.7959 87.9639-42.4072L39.7461-89.3066Q37.2559-91.7969 33.6182-91.7969Q31.1523-91.7969 29.1382-90.6128Q27.124-89.4287 25.9155-87.4268Q24.707-85.4248 24.707-83.0078Q24.707-79.3457 27.5391-76.5625L70.2881-35.3027L27.5391 6.00586Q24.707 8.83789 24.707 12.4756Q24.707 14.9414 25.9155 16.9434Q27.124 18.9453 29.1382 20.1294Q31.1523 21.3135 33.6182 21.3135Q37.2559 21.3135 39.7461 18.7988L87.9639-28.1006Q89.6729-29.7363 90.4419-31.4819Q91.2109-33.2275 91.2109-35.2539Z"/>
  </g>
  <g id="Semibold-L" transform="matrix(1 0 0 1 1995.1 1556)">
   <path d="M88.6696-35.2539Q88.6536-36.9804 88.0222-38.3949Q87.3909-39.8094 86.0352-41.1011L37.0979-88.5071Q34.9983-90.6059 31.9382-90.6059Q29.8729-90.6059 28.1918-89.6217Q26.5106-88.6375 25.502-86.9644Q24.4934-85.2913 24.4934-83.2565Q24.4934-80.217 26.8105-77.9137L71.0258-35.2852L26.8105 7.35703Q24.4934 9.69086 24.4934 12.7159Q24.4934 14.7995 25.502 16.4726Q26.5106 18.1458 28.1918 19.1296Q29.8729 20.1134 31.9382 20.1134Q34.9983 20.1134 37.0979 17.9993L86.0352-29.4067Q87.4069-30.7137 88.0383-32.1529Q88.6696-33.5922 88.6696-35.2539Z"/>
  </g>
  <g id="Medium-L" transform="matrix(1 0 0 1 1699.27 1556)">
   <path d="M86.7424-35.2539Q86.7332-36.6974 86.2064-37.8796Q85.6796-39.0617 84.5734-40.11L35.0899-87.9005Q33.287-89.7034 30.6648-89.7034Q28.9024-89.7034 27.4742-88.8706Q26.046-88.0379 25.1888-86.6142Q24.3317-85.1906 24.3317-83.445Q24.3317-80.8769 26.2581-78.9375L71.5851-35.2715L26.2581 8.38089Q24.3317 10.3378 24.3317 12.8975Q24.3317 14.6912 25.1888 16.1152Q26.046 17.5392 27.4742 18.3716Q28.9024 19.2039 30.6648 19.2039Q33.287 19.2039 35.0899 17.3927L84.5734-30.3978Q85.688-31.4552 86.2152-32.6618Q86.7424-33.8684 86.7424-35.2539Z"/>
  </g>
  <g id="Regular-L" transform="matrix(1 0 0 1 1403.7 1556)">
   <path d="M84.2285-35.2539Q84.2285-36.3281 83.8379-37.207Q83.4473-38.0859 82.666-38.8184L32.4707-87.1094Q31.0547-88.5254 29.0039-88.5254Q27.6367-88.5254 26.5381-87.8906Q25.4395-87.2559 24.7803-86.1572Q24.1211-85.0586 24.1211-83.6914Q24.1211-81.7383 25.5371-80.2734L72.3145-35.2539L25.5371 9.7168Q24.1211 11.1816 24.1211 13.1348Q24.1211 14.5508 24.7803 15.6494Q25.4395 16.748 26.5381 17.3828Q27.6367 18.0176 29.0039 18.0176Q31.0547 18.0176 32.4707 16.6016L82.666-31.6895Q83.4473-32.4219 83.8379-33.3252Q84.2285-34.2285 84.2285-35.2539Z"/>
  </g>
  <g id="Light-L" transform="matrix(1 0 0 1 1108 1556)">
   <path d="M82.1999-35.2539Q82.1999-36.116 81.8851-36.7908Q81.5704-37.4657 80.9555-38.031L30.397-85.5202Q29.3289-86.5883 27.7779-86.5883Q26.7738-86.5883 25.9476-86.1198Q25.1213-85.6514 24.6212-84.8251Q24.1211-83.9989 24.1211-82.9651Q24.1211-81.4964 25.1587-80.4398L73.2376-35.2539L25.1587 9.88312Q24.1211 10.9543 24.1211 12.4084Q24.1211 13.4758 24.6212 14.3021Q25.1213 15.1283 25.9476 15.6044Q26.7738 16.0805 27.7779 16.0805Q29.3289 16.0805 30.397 15.0124L80.9555-32.4921Q81.5704-33.0574 81.8851-33.749Q82.1999-34.4406 82.1999-35.2539Z"/>
  </g>
  <g id="Thin-L" transform="matrix(1 0 0 1 812.635 1556)">
   <path d="M79.5181-35.2539Q79.5181-35.836 79.303-36.2404Q79.0878-36.6447 78.6934-36.9904L27.6543-83.4183Q27.047-84.0256 26.1566-84.0256Q25.6332-84.0256 25.1671-83.7776Q24.7009-83.5297 24.411-83.0639Q24.1211-82.5981 24.1211-82.0038Q24.1211-81.176 24.6582-80.6602L74.4591-35.2539L24.6582 10.1036Q24.1211 10.6544 24.1211 11.4471Q24.1211 12.0544 24.411 12.5206Q24.7009 12.9868 25.1671 13.2523Q25.6332 13.5178 26.1566 13.5178Q27.047 13.5178 27.6543 12.9105L78.6934-33.5526Q79.0878-33.8982 79.303-34.3094Q79.5181-34.7206 79.5181-35.2539Z"/>
  </g>
  <g id="Ultralight-L" transform="matrix(1 0 0 1 516.611 1556)">
   <path d="M78.1433-35.2539Q78.1433-35.6926 77.98-35.9585Q77.8168-36.2244 77.5345-36.4571L26.2497-82.341Q25.8781-82.7133 25.3258-82.7133Q25.0481-82.7133 24.7669-82.5779Q24.4858-82.4425 24.3034-82.1613Q24.1211-81.8802 24.1211-81.5117Q24.1211-81.012 24.4019-80.7732L75.0847-35.2539L24.4019 10.2165Q24.1211 10.5003 24.1211 10.955Q24.1211 11.3266 24.3034 11.6077Q24.4858 11.8889 24.7669 12.0472Q25.0481 12.2055 25.3258 12.2055Q25.8781 12.2055 26.2497 11.8332L77.5345-34.0965Q77.8168-34.3292 77.98-34.5966Q78.1433-34.864 78.1433-35.2539Z"/>
  </g>
  <g id="Black-M" transform="matrix(1 0 0 1 2891.75 1126)">
   <path d="M78.2227-35.2539Q78.1738-37.9883 77.1484-40.2588Q76.123-42.5293 73.8281-44.7754L38.7207-79.1504Q35.5957-82.2754 31.0547-82.2754Q28.0273-82.2754 25.4639-80.7617Q22.9004-79.248 21.3623-76.7334Q19.8242-74.2188 19.8242-71.1914Q19.8242-66.5039 23.584-62.9395L52.3926-35.3027L23.584-7.56836Q19.8242-3.90625 19.8242 0.732422Q19.8242 3.75977 21.3623 6.27441Q22.9004 8.78906 25.4639 10.3027Q28.0273 11.8164 31.0547 11.8164Q35.5957 11.8164 38.7207 8.69141L73.8281-25.7324Q76.1719-27.9785 77.1973-30.2734Q78.2227-32.5684 78.2227-35.2539Z"/>
  </g>
  <g id="Heavy-M" transform="matrix(1 0 0 1 2596.29 1126)">
   <path d="M75.4456-35.2539Q75.4082-37.5618 74.5384-39.4867Q73.6687-41.4116 71.7537-43.2884L35.8047-78.4935Q33.1062-81.1806 29.1878-81.1806Q26.5869-81.1806 24.3862-79.8859Q22.1855-78.5912 20.8725-76.4339Q19.5595-74.2767 19.5595-71.6637Q19.5595-67.6567 22.731-64.6103L53.1303-35.2913L22.731-5.89752Q19.5595-2.7771 19.5595 1.19324Q19.5595 3.80554 20.8725 5.96313Q22.1855 8.12073 24.3862 9.41544Q26.5869 10.7101 29.1878 10.7101Q33.1062 10.7101 35.8047 8.01163L71.7537-27.2194Q73.7053-29.0962 74.5754-31.0398Q75.4456-32.9834 75.4456-35.2539Z"/>
  </g>
  <g id="Bold-M" transform="matrix(1 0 0 1 2300.99 1126)">
   <path d="M72.3389-35.2539Q72.3145-37.085 71.6187-38.623Q70.9229-40.1611 69.4336-41.626L32.5439-77.7588Q30.3223-79.9561 27.0996-79.9561Q24.9756-79.9561 23.1812-78.9062Q21.3867-77.8564 20.3247-76.0986Q19.2627-74.3408 19.2627-72.1924Q19.2627-68.9453 21.7773-66.4795L53.9551-35.2783L21.7773-4.02832Q19.2627-1.51367 19.2627 1.70898Q19.2627 3.85742 20.3247 5.61523Q21.3867 7.37305 23.1812 8.42285Q24.9756 9.47266 27.0996 9.47266Q30.3223 9.47266 32.5439 7.25098L69.4336-28.8818Q70.9473-30.3467 71.6431-31.897Q72.3389-33.4473 72.3389-35.2539Z"/>
  </g>
  <g id="Semibold-M" transform="matrix(1 0 0 1 2005.25 1126)">
   <path d="M70.1973-35.2539Q70.1813-36.7561 69.6056-38.0276Q69.03-39.299 67.8337-40.4793L30.2956-77.2522Q28.4027-79.1115 25.6599-79.1115Q23.8647-79.1115 22.3503-78.2307Q20.8359-77.3499 19.9471-75.8675Q19.0582-74.3851 19.0582-72.5571Q19.0582-69.8341 21.1197-67.7681L54.5242-35.2692L21.1197-2.73972Q19.0582-0.642395 19.0582 2.06451Q19.0582 3.89328 19.9471 5.37529Q20.8359 6.8573 22.3503 7.73849Q23.8647 8.61969 25.6599 8.61969Q28.4027 8.61969 30.2956 6.72684L67.8337-30.0285Q69.0453-31.2088 69.6213-32.4879Q70.1973-33.7669 70.1973-35.2539Z"/>
  </g>
  <g id="Medium-M" transform="matrix(1 0 0 1 1709.27 1126)">
   <path d="M68.573-35.2539Q68.5646-36.5067 68.0798-37.5759Q67.5949-38.6452 66.6214-39.6103L28.5904-76.8684Q26.947-78.4714 24.5682-78.4714Q23.0225-78.4714 21.7201-77.7187Q20.4178-76.9661 19.6606-75.6924Q18.9034-74.4186 18.9034-72.8333Q18.9034-70.5078 20.6207-68.7454L54.9553-35.2631L20.6207-1.76239Q18.9034 0.0175476 18.9034 2.33383Q18.9034 3.91998 19.6606 5.19333Q20.4178 6.46667 21.7201 7.2197Q23.0225 7.97272 24.5682 7.97272Q26.947 7.97272 28.5904 6.32935L66.6214-30.8975Q67.6033-31.8626 68.0882-32.9361Q68.573-34.0096 68.573-35.2539Z"/>
  </g>
  <g id="Regular-M" transform="matrix(1 0 0 1 1413.52 1126)">
   <path d="M66.4551-35.2539Q66.4551-36.1816 66.0889-36.9873Q65.7227-37.793 65.0391-38.4766L26.3672-76.3672Q25.0488-77.6367 23.1445-77.6367Q21.9238-77.6367 20.8984-77.0508Q19.873-76.4648 19.2871-75.4639Q18.7012-74.4629 18.7012-73.1934Q18.7012-71.3867 19.9707-70.0195L55.5176-35.2539L19.9707-0.488281Q18.7012 0.878906 18.7012 2.68555Q18.7012 3.95508 19.2871 4.95605Q19.873 5.95703 20.8984 6.54297Q21.9238 7.12891 23.1445 7.12891Q25.0488 7.12891 26.3672 5.81055L65.0391-32.0312Q65.7227-32.7148 66.0889-33.5205Q66.4551-34.3262 66.4551-35.2539Z"/>
  </g>
  <g id="Light-M" transform="matrix(1 0 0 1 1117.71 1126)">
   <path d="M64.6233-35.2539Q64.6233-36.0001 64.333-36.6165Q64.0427-37.233 63.5101-37.7655L24.5056-74.9443Q23.5046-75.8957 22.0551-75.8957Q21.1517-75.8957 20.3762-75.4612Q19.6007-75.0267 19.1509-74.268Q18.7012-73.5092 18.7012-72.5426Q18.7012-71.1746 19.6381-70.1706L56.3499-35.2539L19.6381-0.337219Q18.7012 0.666809 18.7012 2.03476Q18.7012 3.0014 19.1509 3.75252Q19.6007 4.50363 20.3762 4.94576Q21.1517 5.38788 22.0551 5.38788Q23.5046 5.38788 24.5056 4.38766L63.5101-32.7423Q64.0427-33.2748 64.333-33.8989Q64.6233-34.523 64.6233-35.2539Z"/>
  </g>
  <g id="Thin-M" transform="matrix(1 0 0 1 822.203 1126)">
   <path d="M62.2017-35.2539Q62.2017-35.7597 62.011-36.1259Q61.8202-36.4922 61.4883-36.824L22.0428-73.0629Q21.463-73.5939 20.6131-73.5939Q20.1309-73.5939 19.6857-73.3597Q19.2406-73.1255 18.9709-72.6868Q18.7012-72.2481 18.7012-71.682Q18.7012-70.8946 19.1971-70.3712L57.4509-35.2539L19.1971-0.136566Q18.7012 0.38681 18.7012 1.17416Q18.7012 1.74026 18.9709 2.16141Q19.2406 2.58255 19.6857 2.83432Q20.1309 3.08609 20.6131 3.08609Q21.463 3.08609 22.0428 2.50626L61.4883-33.6838Q61.8202-34.0157 62.011-34.3994Q62.2017-34.7832 62.2017-35.2539Z"/>
  </g>
  <g id="Ultralight-M" transform="matrix(1 0 0 1 526.108 1126)">
   <path d="M60.9604-35.2539Q60.9604-35.6369 60.8212-35.8749Q60.6819-36.113 60.453-36.3426L20.7817-72.0985Q20.417-72.4144 19.8753-72.4144Q19.6083-72.4144 19.3321-72.2828Q19.0559-72.1512 18.8786-71.8765Q18.7012-71.6019 18.7012-71.241Q18.7012-70.7512 18.972-70.4735L58.0154-35.2539L18.972-0.0343323Q18.7012 0.243378 18.7012 0.733185Q18.7012 1.09406 18.8786 1.34583Q19.0559 1.5976 19.3321 1.75209Q19.6083 1.90659 19.8753 1.90659Q20.417 1.90659 20.7817 1.5419L60.453-34.1652Q60.6819-34.3948 60.8212-34.6558Q60.9604-34.9167 60.9604-35.2539Z"/>
  </g>
  <g id="Black-S" transform="matrix(1 0 0 1 2900.44 696)">
   <path d="M62.0117-35.2539Q61.9629-39.6484 58.3984-43.1152L31.1035-69.7754Q28.5645-72.3145 24.8535-72.3145Q21.0938-72.3145 18.3594-69.6289Q15.625-66.9434 15.625-63.2324Q15.625-59.375 18.7012-56.4453L40.8691-35.3027L18.7012-14.0625Q15.625-11.084 15.625-7.22656Q15.625-3.51562 18.3594-0.830078Q21.0938 1.85547 24.8535 1.85547Q28.5645 1.85547 31.1035-0.683594L58.3984-27.3926Q60.3516-29.248 61.1816-31.1279Q62.0117-33.0078 62.0117-35.2539Z"/>
  </g>
  <g id="Heavy-S" transform="matrix(1 0 0 1 2604.69 696)">
   <path d="M59.8679-35.2539Q59.8305-39.003 56.8199-41.9395L28.8445-69.3832Q26.6281-71.5996 23.4016-71.5996Q20.1141-71.5996 17.7544-69.2772Q15.3946-66.9548 15.3946-63.7161Q15.3946-60.3889 18.0214-57.8514L41.3994-35.2913L18.0214-12.6564Q15.3946-10.0815 15.3946-6.7543Q15.3946-3.51562 17.7544-1.19324Q20.1141 1.12915 23.4016 1.12915Q26.6281 1.12915 28.8445-1.08719L56.8199-28.5683Q58.4503-30.1353 59.1591-31.7387Q59.8679-33.342 59.8679-35.2539Z"/>
  </g>
  <g id="Bold-S" transform="matrix(1 0 0 1 2309.05 696)">
   <path d="M57.4707-35.2539Q57.4463-38.2812 55.0537-40.625L26.3184-68.9453Q24.4629-70.8008 21.7773-70.8008Q19.0186-70.8008 17.0776-68.8843Q15.1367-66.9678 15.1367-64.2578Q15.1367-61.5234 17.2607-59.4238L41.9922-35.2783L17.2607-11.084Q15.1367-8.95996 15.1367-6.22559Q15.1367-3.51562 17.0776-1.59912Q19.0186 0.317383 21.7773 0.317383Q24.4629 0.317383 26.3184-1.53809L55.0537-29.8828Q56.3232-31.1279 56.897-32.4219Q57.4707-33.7158 57.4707-35.2539Z"/>
  </g>
  <g id="Semibold-S" transform="matrix(1 0 0 1 2013.07 696)">
   <path d="M55.8174-35.2539Q55.8022-37.7838 53.8361-39.7186L24.5766-68.6432Q22.9698-70.2499 20.6573-70.2499Q18.2632-70.2499 16.6111-68.6134Q14.959-66.9769 14.959-64.6309Q14.959-62.3055 16.7366-60.508L42.4011-35.2692L16.7366-9.99985Q14.959-8.1871 14.959-5.8609Q14.959-3.51562 16.6111-1.87912Q18.2632-0.242615 20.6573-0.242615Q22.9698-0.242615 24.5766-1.84937L53.8361-30.7892Q54.8569-31.8123 55.3371-32.893Q55.8174-33.9737 55.8174-35.2539Z"/>
  </g>
  <g id="Medium-S" transform="matrix(1 0 0 1 1716.92 696)">
   <path d="M54.5647-35.2539Q54.5555-37.4062 52.9129-39.0312L23.2559-68.4143Q21.8376-69.8318 19.8082-69.8318Q17.6903-69.8318 16.2571-68.4074Q14.8239-66.983 14.8239-64.9139Q14.8239-62.8983 16.3391-61.3304L42.7109-35.2631L16.3391-9.1774Q14.8239-7.6004 14.8239-5.58472Q14.8239-3.51562 16.2571-2.09122Q17.6903-0.666809 19.8082-0.666809Q21.8376-0.666809 23.2559-2.08511L52.9129-31.4766Q53.7453-32.3311 54.155-33.25Q54.5647-34.169 54.5647-35.2539Z"/>
  </g>
  <g id="Regular-S" transform="matrix(1 0 0 1 1420.94 696)">
   <path d="M52.9297-35.2539Q52.9297-36.9141 51.709-38.1348L21.5332-68.1152Q20.3613-69.2871 18.7012-69.2871Q16.9434-69.2871 15.7959-68.1396Q14.6484-66.9922 14.6484-65.2832Q14.6484-63.6719 15.8203-62.4023L43.1152-35.2539L15.8203-8.10547Q14.6484-6.83594 14.6484-5.22461Q14.6484-3.51562 15.7959-2.36816Q16.9434-1.2207 18.7012-1.2207Q20.3613-1.2207 21.5332-2.39258L51.709-32.373Q52.2949-33.0078 52.6123-33.7158Q52.9297-34.4238 52.9297-35.2539Z"/>
  </g>
  <g id="Light-S" transform="matrix(1 0 0 1 1125.03 696)">
   <path d="M51.3252-35.2539Q51.3252-36.5509 50.3464-37.4992L19.8982-66.8587Q18.9987-67.7582 17.7322-67.7582Q16.4139-67.7582 15.5312-66.8907Q14.6484-66.0233 14.6484-64.7079Q14.6484-63.4903 15.5327-62.5389L43.8416-35.2539L15.5327-7.9689Q14.6484-7.01752 14.6484-5.79987Q14.6484-4.48456 15.5312-3.6171Q16.4139-2.74963 17.7322-2.74963Q18.9987-2.74963 19.8982-3.64914L50.3464-33.0086Q50.8118-33.4923 51.0685-34.0412Q51.3252-34.5901 51.3252-35.2539Z"/>
  </g>
  <g id="Thin-S" transform="matrix(1 0 0 1 829.379 696)">
   <path d="M49.2035-35.2539Q49.2035-36.0703 48.5451-36.6585L17.7368-65.1978Q17.1974-65.7364 16.4513-65.7364Q15.7127-65.7364 15.1806-65.2393Q14.6484-64.7423 14.6484-63.9473Q14.6484-63.25 15.1527-62.719L44.8029-35.2539L15.1527-7.78885Q14.6484-7.25784 14.6484-6.56052Q14.6484-5.76553 15.1806-5.26848Q15.7127-4.77142 16.4513-4.77142Q17.1974-4.77142 17.7368-5.31006L48.5451-33.8493Q48.8495-34.1331 49.0265-34.4719Q49.2035-34.8106 49.2035-35.2539Z"/>
  </g>
  <g id="Ultralight-S" transform="matrix(1 0 0 1 533.212 696)">
   <path d="M48.1163-35.2539Q48.1163-35.8246 47.6219-36.2274L16.629-64.3463Q16.2743-64.7011 15.7951-64.7011Q15.3542-64.7011 15.0013-64.3936Q14.6484-64.0862 14.6484-63.5574Q14.6484-63.1271 14.9574-62.8113L45.295-35.2539L14.9574-7.69653Q14.6484-7.38068 14.6484-6.95038Q14.6484-6.42166 15.0013-6.1142Q15.3542-5.80673 15.7951-5.80673Q16.2743-5.80673 16.629-6.1615L47.6219-34.2804Q47.8447-34.4612 47.9805-34.6924Q48.1163-34.9236 48.1163-35.2539Z"/>
  </g>
 </g>
</svg>
