<?xml version="1.0" encoding="UTF-8"?>
<!--Generator: Apple Native CoreSVG 149-->
<!DOCTYPE svg
PUBLIC "-//W3C//DTD SVG 1.1//EN"
       "http://www.w3.org/Graphics/SVG/1.1/DTD/svg11.dtd">
<svg version="1.1" xmlns="http://www.w3.org/2000/svg" xmlns:xlink="http://www.w3.org/1999/xlink" width="3300" height="2200">
 <!--glyph: "uni100C26.medium", point size: 100.000000, font version: "Version 16.0d18e1", template writer version: "8"-->
 <g id="Notes">
  <rect height="2200" id="artboard" style="fill:white;opacity:1" width="3300" x="0" y="0"/>
  <line id="" style="fill:none;stroke:black;opacity:1;stroke-width:0.5;" x1="263" x2="3036" y1="292" y2="292"/>
  <text style="stroke:none;fill:black;font-family:-apple-system,&quot;SF Pro Display&quot;,&quot;SF Pro Text&quot;,Helvetica,sans-serif;font-weight:bold;" transform="matrix(1 0 0 1 263 322)">Weight/Scale Variations</text>
  <text style="stroke:none;fill:black;font-family:-apple-system,&quot;SF Pro Display&quot;,&quot;SF Pro Text&quot;,Helvetica,sans-serif;text-anchor:middle;" transform="matrix(1 0 0 1 559.711 322)">Ultralight</text>
  <text style="stroke:none;fill:black;font-family:-apple-system,&quot;SF Pro Display&quot;,&quot;SF Pro Text&quot;,Helvetica,sans-serif;text-anchor:middle;" transform="matrix(1 0 0 1 856.422 322)">Thin</text>
  <text style="stroke:none;fill:black;font-family:-apple-system,&quot;SF Pro Display&quot;,&quot;SF Pro Text&quot;,Helvetica,sans-serif;text-anchor:middle;" transform="matrix(1 0 0 1 1153.13 322)">Light</text>
  <text style="stroke:none;fill:black;font-family:-apple-system,&quot;SF Pro Display&quot;,&quot;SF Pro Text&quot;,Helvetica,sans-serif;text-anchor:middle;" transform="matrix(1 0 0 1 1449.84 322)">Regular</text>
  <text style="stroke:none;fill:black;font-family:-apple-system,&quot;SF Pro Display&quot;,&quot;SF Pro Text&quot;,Helvetica,sans-serif;text-anchor:middle;" transform="matrix(1 0 0 1 1746.56 322)">Medium</text>
  <text style="stroke:none;fill:black;font-family:-apple-system,&quot;SF Pro Display&quot;,&quot;SF Pro Text&quot;,Helvetica,sans-serif;text-anchor:middle;" transform="matrix(1 0 0 1 2043.27 322)">Semibold</text>
  <text style="stroke:none;fill:black;font-family:-apple-system,&quot;SF Pro Display&quot;,&quot;SF Pro Text&quot;,Helvetica,sans-serif;text-anchor:middle;" transform="matrix(1 0 0 1 2339.98 322)">Bold</text>
  <text style="stroke:none;fill:black;font-family:-apple-system,&quot;SF Pro Display&quot;,&quot;SF Pro Text&quot;,Helvetica,sans-serif;text-anchor:middle;" transform="matrix(1 0 0 1 2636.69 322)">Heavy</text>
  <text style="stroke:none;fill:black;font-family:-apple-system,&quot;SF Pro Display&quot;,&quot;SF Pro Text&quot;,Helvetica,sans-serif;text-anchor:middle;" transform="matrix(1 0 0 1 2933.4 322)">Black</text>
  <line id="" style="fill:none;stroke:black;opacity:1;stroke-width:0.5;" x1="263" x2="3036" y1="1903" y2="1903"/>
  <g id="" transform="matrix(1 0 0 1 263 1933)">
   <path d="M9.24805 0.830078C13.5547 0.830078 17.1387-2.74414 17.1387-7.05078C17.1387-11.3574 13.5449-14.9316 9.23828-14.9316C4.94141-14.9316 1.36719-11.3574 1.36719-7.05078C1.36719-2.74414 4.95117 0.830078 9.24805 0.830078ZM9.24805-0.654297C5.70312-0.654297 2.87109-3.49609 2.87109-7.05078C2.87109-10.6055 5.69336-13.4473 9.23828-13.4473C12.793-13.4473 15.6348-10.6055 15.6445-7.05078C15.6543-3.49609 12.8027-0.654297 9.24805-0.654297ZM6.39648-6.31836L8.50586-6.31836L8.50586-4.19922C8.50586-3.75977 8.79883-3.45703 9.22852-3.45703C9.67773-3.45703 9.9707-3.75977 9.9707-4.19922L9.9707-6.31836L12.0996-6.31836C12.5391-6.31836 12.8418-6.61133 12.8418-7.04102C12.8418-7.48047 12.5391-7.7832 12.0996-7.7832L9.9707-7.7832L9.9707-9.89258C9.9707-10.3418 9.67773-10.6445 9.22852-10.6445C8.79883-10.6445 8.50586-10.3418 8.50586-9.89258L8.50586-7.7832L6.39648-7.7832C5.94727-7.7832 5.64453-7.48047 5.64453-7.04102C5.64453-6.61133 5.94727-6.31836 6.39648-6.31836Z"/>
  </g>
  <g id="" transform="matrix(1 0 0 1 281.506 1933)">
   <path d="M11.709 2.91016C17.1582 2.91016 21.6699-1.61133 21.6699-7.05078C21.6699-12.5 17.1484-17.0117 11.6992-17.0117C6.25977-17.0117 1.74805-12.5 1.74805-7.05078C1.74805-1.61133 6.26953 2.91016 11.709 2.91016ZM11.709 1.25C7.09961 1.25 3.41797-2.44141 3.41797-7.05078C3.41797-11.6602 7.08984-15.3516 11.6992-15.3516C16.3086-15.3516 20-11.6602 20.0098-7.05078C20.0195-2.44141 16.3184 1.25 11.709 1.25ZM7.98828-6.23047L10.8789-6.23047L10.8789-3.32031C10.8789-2.83203 11.2109-2.5 11.6895-2.5C12.1777-2.5 12.5195-2.83203 12.5195-3.32031L12.5195-6.23047L15.4297-6.23047C15.918-6.23047 16.25-6.5625 16.25-7.04102C16.25-7.5293 15.918-7.87109 15.4297-7.87109L12.5195-7.87109L12.5195-10.7617C12.5195-11.2695 12.1777-11.6016 11.6895-11.6016C11.2109-11.6016 10.8789-11.2598 10.8789-10.7617L10.8789-7.87109L7.98828-7.87109C7.48047-7.87109 7.14844-7.5293 7.14844-7.04102C7.14844-6.5625 7.49023-6.23047 7.98828-6.23047Z"/>
  </g>
  <g id="" transform="matrix(1 0 0 1 304.924 1933)">
   <path d="M14.9707 5.66406C21.9336 5.66406 27.6953-0.0976562 27.6953-7.05078C27.6953-14.0137 21.9238-19.7754 14.9609-19.7754C8.00781-19.7754 2.25586-14.0137 2.25586-7.05078C2.25586-0.0976562 8.01758 5.66406 14.9707 5.66406ZM14.9707 3.84766C8.93555 3.84766 4.08203-1.01562 4.08203-7.05078C4.08203-13.0957 8.92578-17.9492 14.9609-17.9492C21.0059-17.9492 25.8594-13.0957 25.8691-7.05078C25.8789-1.01562 21.0156 3.84766 14.9707 3.84766ZM10.0586-6.14258L14.0625-6.14258L14.0625-2.12891C14.0625-1.5918 14.4336-1.2207 14.9512-1.2207C15.4883-1.2207 15.8594-1.5918 15.8594-2.12891L15.8594-6.14258L19.8828-6.14258C20.4102-6.14258 20.791-6.51367 20.791-7.03125C20.791-7.56836 20.4199-7.94922 19.8828-7.94922L15.8594-7.94922L15.8594-11.9531C15.8594-12.5098 15.4883-12.8809 14.9512-12.8809C14.4336-12.8809 14.0625-12.5 14.0625-11.9531L14.0625-7.94922L10.0586-7.94922C9.50195-7.94922 9.13086-7.56836 9.13086-7.03125C9.13086-6.51367 9.51172-6.14258 10.0586-6.14258Z"/>
  </g>
  <text style="stroke:none;fill:black;font-family:-apple-system,&quot;SF Pro Display&quot;,&quot;SF Pro Text&quot;,Helvetica,sans-serif;font-weight:bold;" transform="matrix(1 0 0 1 263 1953)">Design Variations</text>
  <text style="stroke:none;fill:black;font-family:-apple-system,&quot;SF Pro Display&quot;,&quot;SF Pro Text&quot;,Helvetica,sans-serif;" transform="matrix(1 0 0 1 263 1971)">Symbols are supported in up to nine weights and three scales.</text>
  <text style="stroke:none;fill:black;font-family:-apple-system,&quot;SF Pro Display&quot;,&quot;SF Pro Text&quot;,Helvetica,sans-serif;" transform="matrix(1 0 0 1 263 1989)">For optimal layout with text and other symbols, vertically align</text>
  <text style="stroke:none;fill:black;font-family:-apple-system,&quot;SF Pro Display&quot;,&quot;SF Pro Text&quot;,Helvetica,sans-serif;" transform="matrix(1 0 0 1 263 2007)">symbols with the adjacent text.</text>
  <line id="" style="fill:none;stroke:#00AEEF;stroke-width:0.5;opacity:1.0;" x1="776" x2="776" y1="1919" y2="1933"/>
  <g id="" transform="matrix(1 0 0 1 776 1933)">
   <path d="M3.31055 0.126953C3.82812 0.126953 4.08203-0.0683594 4.26758-0.605469L5.52734-4.0625L11.2891-4.0625L12.5488-0.605469C12.7344-0.0683594 12.9883 0.126953 13.4961 0.126953C14.0137 0.126953 14.3457-0.185547 14.3457-0.673828C14.3457-0.839844 14.3164-0.986328 14.2383-1.20117L9.6582-13.3887C9.43359-13.9941 9.0332-14.2871 8.4082-14.2871C7.80273-14.2871 7.39258-13.9941 7.17773-13.3984L2.59766-1.19141C2.51953-0.976562 2.49023-0.830078 2.49023-0.664062C2.49023-0.175781 2.80273 0.126953 3.31055 0.126953ZM6.00586-5.53711L8.37891-12.1094L8.42773-12.1094L10.8008-5.53711Z"/>
  </g>
  <line id="" style="fill:none;stroke:#00AEEF;stroke-width:0.5;opacity:1.0;" x1="792.836" x2="792.836" y1="1919" y2="1933"/>
  <text style="stroke:none;fill:black;font-family:-apple-system,&quot;SF Pro Display&quot;,&quot;SF Pro Text&quot;,Helvetica,sans-serif;font-weight:bold;" transform="matrix(1 0 0 1 776 1953)">Margins</text>
  <text style="stroke:none;fill:black;font-family:-apple-system,&quot;SF Pro Display&quot;,&quot;SF Pro Text&quot;,Helvetica,sans-serif;" transform="matrix(1 0 0 1 776 1971)">Leading and trailing margins on the left and right side of each symbol</text>
  <text style="stroke:none;fill:black;font-family:-apple-system,&quot;SF Pro Display&quot;,&quot;SF Pro Text&quot;,Helvetica,sans-serif;" transform="matrix(1 0 0 1 776 1989)">can be adjusted by modifying the x-location of the margin guidelines.</text>
  <text style="stroke:none;fill:black;font-family:-apple-system,&quot;SF Pro Display&quot;,&quot;SF Pro Text&quot;,Helvetica,sans-serif;" transform="matrix(1 0 0 1 776 2007)">Modifications are automatically applied proportionally to all</text>
  <text style="stroke:none;fill:black;font-family:-apple-system,&quot;SF Pro Display&quot;,&quot;SF Pro Text&quot;,Helvetica,sans-serif;" transform="matrix(1 0 0 1 776 2025)">scales and weights.</text>
  <g id="" transform="matrix(1 0 0 1 1289 1933)">
   <path d="M2.8418 1.86523L4.54102 3.57422C5.40039 4.44336 6.38672 4.38477 7.31445 3.35938L17.4902-7.85156C17.7539-7.76367 18.0273-7.7832 18.3398-7.8418L19.4043-8.03711L20.0684-7.36328L20.0293-6.80664C19.9902-6.30859 20.1172-5.92773 20.6055-5.44922L21.3672-4.70703C21.8457-4.22852 22.4609-4.19922 22.9297-4.66797L25.8398-7.58789C26.3086-8.05664 26.2891-8.65234 25.8105-9.13086L25.0391-9.89258C24.5605-10.3711 24.1895-10.5273 23.7109-10.4883L23.1348-10.4395L22.4902-11.0742L22.7344-12.1973C22.8613-12.7637 22.7051-13.2031 22.1191-13.7891L19.9219-15.9766C16.582-19.2969 12.1484-19.2188 9.25781-16.3281C8.83789-15.918 8.80859-15.3418 9.04297-14.9512C9.27734-14.5898 9.73633-14.3555 10.3809-14.5215C11.8457-14.8633 13.3691-14.9219 14.7949-13.9844L14.209-12.5293C14.0137-12.0508 13.9844-11.6504 14.1113-11.2891L3.04688-0.898438C2.06055 0.0195312 1.98242 0.996094 2.8418 1.86523ZM10.752-15.957C13.1836-17.7344 16.4746-17.4316 18.7012-15.2051L21.1328-12.793C21.3672-12.5586 21.4062-12.373 21.3379-12.0312L21.0156-10.5469L22.5195-9.0625L23.5059-9.12109C23.7598-9.13086 23.8379-9.11133 24.0332-8.91602L24.6094-8.33984L22.168-5.89844L21.5918-6.47461C21.3965-6.66992 21.3672-6.74805 21.377-7.01172L21.4453-7.98828L19.9512-9.47266L18.4277-9.21875C18.1055-9.15039 17.959-9.17969 17.7148-9.41406L15.7129-11.416C15.459-11.6504 15.4297-11.8164 15.5859-12.1875L16.4648-14.2773C14.9023-15.7324 12.8711-16.3574 10.8398-15.7617C10.6836-15.7227 10.625-15.8496 10.752-15.957ZM5.27344 2.30469L4.10156 1.14258C3.63281 0.683594 3.74023 0.341797 4.14062-0.0195312L14.9512-10.1953L16.416-8.71094L6.42578 2.27539C6.07422 2.67578 5.74219 2.77344 5.27344 2.30469Z"/>
  </g>
  <text style="stroke:none;fill:black;font-family:-apple-system,&quot;SF Pro Display&quot;,&quot;SF Pro Text&quot;,Helvetica,sans-serif;font-weight:bold;" transform="matrix(1 0 0 1 1289 1953)">Exporting</text>
  <text style="stroke:none;fill:black;font-family:-apple-system,&quot;SF Pro Display&quot;,&quot;SF Pro Text&quot;,Helvetica,sans-serif;" transform="matrix(1 0 0 1 1289 1971)">Symbols should be outlined when exporting to ensure the</text>
  <text style="stroke:none;fill:black;font-family:-apple-system,&quot;SF Pro Display&quot;,&quot;SF Pro Text&quot;,Helvetica,sans-serif;" transform="matrix(1 0 0 1 1289 1989)">design is preserved when submitting to Xcode.</text>
  <text id="template-version" style="stroke:none;fill:black;font-family:-apple-system,&quot;SF Pro Display&quot;,&quot;SF Pro Text&quot;,Helvetica,sans-serif;text-anchor:end;" transform="matrix(1 0 0 1 3036 1933)">Template v.2.0</text>
  <text style="stroke:none;fill:black;font-family:-apple-system,&quot;SF Pro Display&quot;,&quot;SF Pro Text&quot;,Helvetica,sans-serif;text-anchor:end;" transform="matrix(1 0 0 1 3036 1951)">Requires Xcode 12 or greater</text>
  <text style="stroke:none;fill:black;font-family:-apple-system,&quot;SF Pro Display&quot;,&quot;SF Pro Text&quot;,Helvetica,sans-serif;text-anchor:end;" transform="matrix(1 0 0 1 3036 1969)">Generated from arrowshape.zigzag.forward</text>
  <text style="stroke:none;fill:black;font-family:-apple-system,&quot;SF Pro Display&quot;,&quot;SF Pro Text&quot;,Helvetica,sans-serif;text-anchor:end;" transform="matrix(1 0 0 1 3036 1987)">Typeset at 100 points</text>
  <text style="stroke:none;fill:black;font-family:-apple-system,&quot;SF Pro Display&quot;,&quot;SF Pro Text&quot;,Helvetica,sans-serif;" transform="matrix(1 0 0 1 263 726)">Small</text>
  <text style="stroke:none;fill:black;font-family:-apple-system,&quot;SF Pro Display&quot;,&quot;SF Pro Text&quot;,Helvetica,sans-serif;" transform="matrix(1 0 0 1 263 1156)">Medium</text>
  <text style="stroke:none;fill:black;font-family:-apple-system,&quot;SF Pro Display&quot;,&quot;SF Pro Text&quot;,Helvetica,sans-serif;" transform="matrix(1 0 0 1 263 1586)">Large</text>
 </g>
 <g id="Guides">
  <g id="H-reference" style="fill:#27AAE1;stroke:none;" transform="matrix(1 0 0 1 339 696)">
   <path d="M0.976562 0L3.66211 0L12.9883-24.4629L45.752-24.4629L55.127 0L57.7637 0L30.6152-70.459L28.125-70.459ZM29.3457-67.1387L29.4434-67.1387L44.873-26.709L13.8672-26.709Z"/>
  </g>
  <line id="Baseline-S" style="fill:none;stroke:#27AAE1;opacity:1;stroke-width:0.5;" x1="263" x2="3036" y1="696" y2="696"/>
  <line id="Capline-S" style="fill:none;stroke:#27AAE1;opacity:1;stroke-width:0.5;" x1="263" x2="3036" y1="625.541" y2="625.541"/>
  <g id="H-reference" style="fill:#27AAE1;stroke:none;" transform="matrix(1 0 0 1 339 1126)">
   <path d="M0.976562 0L3.66211 0L12.9883-24.4629L45.752-24.4629L55.127 0L57.7637 0L30.6152-70.459L28.125-70.459ZM29.3457-67.1387L29.4434-67.1387L44.873-26.709L13.8672-26.709Z"/>
  </g>
  <line id="Baseline-M" style="fill:none;stroke:#27AAE1;opacity:1;stroke-width:0.5;" x1="263" x2="3036" y1="1126" y2="1126"/>
  <line id="Capline-M" style="fill:none;stroke:#27AAE1;opacity:1;stroke-width:0.5;" x1="263" x2="3036" y1="1055.54" y2="1055.54"/>
  <g id="H-reference" style="fill:#27AAE1;stroke:none;" transform="matrix(1 0 0 1 339 1556)">
   <path d="M0.976562 0L3.66211 0L12.9883-24.4629L45.752-24.4629L55.127 0L57.7637 0L30.6152-70.459L28.125-70.459ZM29.3457-67.1387L29.4434-67.1387L44.873-26.709L13.8672-26.709Z"/>
  </g>
  <line id="Baseline-L" style="fill:none;stroke:#27AAE1;opacity:1;stroke-width:0.5;" x1="263" x2="3036" y1="1556" y2="1556"/>
  <line id="Capline-L" style="fill:none;stroke:#27AAE1;opacity:1;stroke-width:0.5;" x1="263" x2="3036" y1="1485.54" y2="1485.54"/>
  <line id="left-margin" style="fill:none;stroke:#00AEEF;stroke-width:0.5;opacity:1.0;" x1="1378.87" x2="1378.87" y1="1030.79" y2="1150.12"/>
  <line id="right-margin" style="fill:none;stroke:#00AEEF;stroke-width:0.5;opacity:1.0;" x1="1520.82" x2="1520.82" y1="1030.79" y2="1150.12"/>
 </g>
 <g id="Symbols">
  <g id="Black-L" transform="matrix(1 0 0 1 2834.99 1556)">
   <path d="M35.5957 25.5859L74.2188 25.5859C87.7441 25.5859 93.75 19.1895 93.75 5.71289L93.75-3.17383L105.029-3.17383L105.029 14.209C105.029 21.1426 110.352 26.416 117.236 26.416C121.777 26.416 125.244 24.707 129.541 20.7031L179.98-25.9766C182.568-28.3691 183.936-32.1289 183.936-35.2051C183.936-38.4277 182.617-41.9434 180.029-44.3848L129.541-90.918C124.805-95.2148 121.582-96.7773 117.285-96.7773C110.352-96.7773 105.029-91.3574 105.029-84.4727L105.029-66.0156L72.9492-66.0156C58.252-66.0156 51.8066-59.0332 51.8066-44.4336L51.8066-36.1816L35.5957-36.1816C23.3887-36.1816 16.0645-29.1992 16.0645-17.4316L16.0645 6.88477C16.0645 18.9941 22.9492 25.5859 35.5957 25.5859ZM122.559 1.36719C121.973 1.36719 121.484 0.878906 121.484 0.146484L121.484-21.8262C121.484-23.2422 120.898-23.8281 119.482-23.8281L76.2695-23.8281C73.5352-23.8281 72.0703-25.3418 72.0703-28.2715L72.0703-44.2383C72.0703-47.1191 73.5352-48.7305 76.2695-48.7305L119.482-48.7305C120.898-48.7305 121.484-49.3164 121.484-50.7324L121.484-70.6543C121.484-71.3867 121.973-71.8262 122.559-71.8262C122.9-71.8262 123.242-71.7285 123.535-71.4844L160.791-36.1328C161.182-35.7422 161.328-35.5469 161.328-35.2051C161.328-34.9121 161.182-34.6191 160.791-34.2285L123.535 0.927734C123.242 1.2207 122.9 1.36719 122.559 1.36719ZM38.5742 9.66797C36.0352 9.66797 34.6191 8.25195 34.6191 5.51758L34.6191-16.0645C34.6191-18.75 36.0352-20.2148 38.5742-20.2148L53.2227-20.2148L53.2227-19.6289C53.2227-15.5273 55.0293-12.0117 58.9844-8.25195L75.1953 5.22461L75.1953 5.51758C75.1953 8.25195 73.7793 9.66797 71.2402 9.66797Z"/>
  </g>
  <g id="Heavy-L" transform="matrix(1 0 0 1 2540.11 1556)">
   <path d="M34.375 24.3164L72.7051 24.3164C85.4004 24.3164 91.0156 18.457 91.0156 5.81055L91.0156-4.49219L104.102-4.49219L104.102 14.4043C104.102 20.6055 108.838 25.293 114.99 25.293C119.141 25.293 122.314 23.6816 126.221 20.0684L176.465-26.6113C179.053-29.0039 180.273-32.4219 180.273-35.2051C180.273-38.1836 179.102-41.4062 176.514-43.8477L126.221-90.332C121.924-94.2383 118.994-95.752 115.088-95.752C108.838-95.752 104.102-90.8691 104.102-84.668L104.102-64.6484L69.873-64.6484C56.2988-64.6484 50.3418-58.3008 50.3418-44.8242L50.3418-35.5469L34.375-35.5469C22.7051-35.5469 16.0645-29.1992 16.0645-17.8711L16.0645 6.68945C16.0645 18.3105 22.3633 24.3164 34.375 24.3164ZM119.775 3.4668C119.189 3.4668 118.701 2.97852 118.701 2.29492L118.701-20.4102C118.701-21.8262 118.115-22.4609 116.699-22.4609L72.5098-22.4609C69.4336-22.4609 67.8223-24.1699 67.8223-27.4414L67.8223-44.5801C67.8223-47.9004 69.4336-49.6094 72.5098-49.6094L116.699-49.6094C118.115-49.6094 118.701-50.2441 118.701-51.6602L118.701-72.9492C118.701-73.6328 119.189-74.0723 119.775-74.0723C120.117-74.0723 120.459-73.9258 120.801-73.6328L160.107-36.377C160.596-35.8887 160.742-35.5957 160.742-35.2051C160.742-34.9121 160.596-34.5703 160.107-34.082L120.801 2.97852C120.459 3.32031 120.117 3.4668 119.775 3.4668ZM36.8164 10.1562C33.8379 10.1562 32.2754 8.54492 32.2754 5.37109L32.2754-16.5039C32.2754-19.6777 33.8379-21.3379 36.8164-21.3379L51.416-21.3379L51.416-19.7266C51.416-15.6738 53.0762-12.3535 56.9336-8.93555L74.8047 4.88281L74.8047 5.37109C74.8047 8.54492 73.2422 10.1562 70.3125 10.1562Z"/>
  </g>
  <g id="Bold-L" transform="matrix(1 0 0 1 2245.45 1556)">
   <path d="M33.0078 22.9492L71.0449 22.9492C82.8125 22.9492 87.9883 17.5781 87.9883 5.9082L87.9883-5.9082L103.076-5.9082L103.076 14.5996C103.076 19.9707 107.08 24.0234 112.5 24.0234C116.162 24.0234 119.043 22.5586 122.51 19.3359L172.559-27.3438C175.146-29.7363 176.172-32.7637 176.172-35.2539C176.172-37.8906 175.146-40.7715 172.559-43.2129L122.51-89.6484C118.701-93.1641 116.113-94.5801 112.598-94.5801C107.08-94.5801 103.076-90.2832 103.076-84.9121L103.076-63.0859L66.4062-63.0859C54.0527-63.0859 48.6328-57.4707 48.6328-45.2148L48.6328-34.8145L33.0078-34.8145C21.9238-34.8145 16.0645-29.1992 16.0645-18.3594L16.0645 6.49414C16.0645 17.5293 21.6797 22.9492 33.0078 22.9492ZM116.65 5.81055C116.064 5.81055 115.625 5.37109 115.625 4.6875L115.625-18.8965C115.625-20.3125 115.039-20.8984 113.623-20.8984L68.3594-20.8984C64.8438-20.8984 63.0859-22.8027 63.0859-26.5625L63.0859-44.9219C63.0859-48.6816 64.8438-50.6348 68.3594-50.6348L113.623-50.6348C115.039-50.6348 115.625-51.2207 115.625-52.6367L115.625-75.5371C115.625-76.1719 116.064-76.5625 116.65-76.5625C117.041-76.5625 117.432-76.3672 117.725-76.0742L159.326-36.6211C159.863-36.084 160.059-35.6934 160.059-35.2539C160.059-34.8633 159.912-34.4727 159.326-33.9355L117.725 5.27344C117.334 5.61523 116.992 5.81055 116.65 5.81055ZM34.8145 10.7422C31.3965 10.7422 29.6875 8.88672 29.6875 5.22461L29.6875-17.041C29.6875-20.752 31.3965-22.6074 34.8145-22.6074L49.4141-22.6074L49.4141-19.8242C49.4141-15.8203 50.8789-12.7441 54.6387-9.66797L74.3652 4.54102L74.3652 5.22461C74.3652 8.88672 72.6562 10.7422 69.2383 10.7422Z"/>
  </g>
  <g id="Semibold-L" transform="matrix(1 0 0 1 1950.15 1556)">
   <path d="M32.0801 21.9727L69.873 21.9727C81.0059 21.9727 85.8887 16.9922 85.8887 5.95703L85.8887-6.93359L102.393-6.93359L102.393 14.7461C102.393 19.5312 105.908 23.1934 110.791 23.1934C114.111 23.1934 116.797 21.8262 119.971 18.8477L169.824-27.832C172.412-30.2246 173.389-32.959 173.389-35.3027C173.389-37.6953 172.461-40.332 169.873-42.7734L119.971-89.209C116.504-92.4316 114.111-93.75 110.84-93.75C105.908-93.75 102.393-89.8926 102.393-85.0586L102.393-62.0605L64.0137-62.0605C52.5391-62.0605 47.5098-56.9336 47.5098-45.5078L47.5098-34.3262L32.0801-34.3262C21.3867-34.3262 16.0645-29.1992 16.0645-18.7012L16.0645 6.34766C16.0645 16.9434 21.2402 21.9727 32.0801 21.9727ZM114.502 7.42188C113.916 7.42188 113.477 6.98242 113.477 6.34766L113.477-17.8223C113.477-19.2383 112.891-19.8242 111.475-19.8242L65.4785-19.8242C61.6699-19.8242 59.8145-21.875 59.8145-25.9277L59.8145-45.166C59.8145-49.2676 61.6699-51.3184 65.4785-51.3184L111.475-51.3184C112.891-51.3184 113.477-51.9043 113.477-53.3203L113.477-77.2949C113.477-77.8809 113.916-78.3203 114.502-78.3203C114.941-78.3203 115.283-78.0762 115.625-77.7832L158.74-36.8164C159.375-36.1816 159.619-35.7422 159.619-35.3027C159.619-34.8633 159.424-34.4238 158.74-33.7891L115.625 6.83594C115.186 7.22656 114.844 7.42188 114.502 7.42188ZM33.4473 11.1328C29.7363 11.1328 27.8809 9.13086 27.8809 5.07812L27.8809-17.4316C27.8809-21.4844 29.7363-23.4863 33.4473-23.4863L47.998-23.4863L47.998-19.9219C47.998-15.918 49.3652-13.0371 53.0273-10.2051L74.0723 4.24805L74.0723 5.07812C74.0723 9.13086 72.2168 11.1328 68.5059 11.1328Z"/>
  </g>
  <g id="Medium-L" transform="matrix(1 0 0 1 1654.51 1556)">
   <path d="M31.3477 21.2402L68.9941 21.2402C79.6387 21.2402 84.2773 16.5527 84.2773 6.00586L84.2773-7.66602L101.807-7.66602L101.807 14.8438C101.807 19.2383 105.029 22.5098 109.473 22.5098C112.598 22.5098 115.088 21.2402 118.018 18.5059L167.773-28.2227C170.361-30.6152 171.24-33.1543 171.24-35.3027C171.24-37.5488 170.41-39.9902 167.822-42.4805L118.018-88.8672C114.795-91.8457 112.598-93.1641 109.57-93.1641C105.029-93.1641 101.807-89.5996 101.807-85.2051L101.807-61.2305L62.207-61.2305C51.3672-61.2305 46.6309-56.4941 46.6309-45.752L46.6309-33.9355L31.3477-33.9355C20.9961-33.9355 16.0645-29.1504 16.0645-18.9453L16.0645 6.25C16.0645 16.5527 20.8984 21.2402 31.3477 21.2402ZM112.842 8.64258C112.256 8.64258 111.865 8.20312 111.865 7.61719L111.865-16.9922C111.865-18.4082 111.279-18.9941 109.863-18.9941L63.2812-18.9941C59.2773-18.9941 57.373-21.1426 57.373-25.4883L57.373-45.3613C57.373-49.707 59.2773-51.8555 63.2812-51.8555L109.863-51.8555C111.279-51.8555 111.865-52.4414 111.865-53.8574L111.865-78.6133C111.865-79.248 112.305-79.6387 112.842-79.6387C113.33-79.6387 113.672-79.3457 114.062-79.0527L158.35-36.9141C159.033-36.2793 159.277-35.791 159.277-35.3027C159.277-34.8145 159.082-34.375 158.35-33.6914L114.014 8.05664C113.574 8.44727 113.232 8.64258 112.842 8.64258ZM32.373 11.4258C28.4668 11.4258 26.5137 9.32617 26.5137 5.0293L26.5137-17.7246C26.5137-22.0215 28.4668-24.1211 32.373-24.1211L46.9238-24.1211L46.9238-19.9707C46.9238-16.0156 48.1934-13.2324 51.8066-10.5957L73.877 4.05273L73.877 5.0293C73.877 9.32617 71.9238 11.4258 67.9688 11.4258Z"/>
  </g>
  <g id="Regular-L" transform="matrix(1 0 0 1 1359.2 1556)">
   <path d="M30.4199 20.2637L67.8711 20.2637C77.832 20.2637 82.2266 16.0156 82.2266 6.10352L82.2266-8.64258L101.123-8.64258L101.123 14.9414C101.123 18.7988 103.857 21.6797 107.764 21.6797C110.547 21.6797 112.842 20.459 115.479 18.0176L165.137-28.7109C167.725-31.1035 168.408-33.3496 168.408-35.3516C168.408-37.4023 167.725-39.5996 165.137-42.041L115.479-88.3789C112.598-91.1133 110.645-92.3828 107.861-92.3828C103.857-92.3828 101.123-89.209 101.123-85.3516L101.123-60.2051L59.8145-60.2051C49.8535-60.2051 45.459-55.9082 45.459-45.9961L45.459-33.4473L30.4199-33.4473C20.459-33.4473 16.0645-29.1504 16.0645-19.2383L16.0645 6.10352C16.0645 16.0156 20.459 20.2637 30.4199 20.2637ZM110.693 10.2539C110.107 10.2539 109.766 9.81445 109.766 9.22852L109.766-15.9668C109.766-17.334 109.18-17.9688 107.764-17.9688L60.4004-17.9688C56.2012-17.9688 54.1016-20.2148 54.1016-24.8535L54.1016-45.6055C54.1016-50.2441 56.2012-52.5391 60.4004-52.5391L107.764-52.5391C109.18-52.5391 109.766-53.125 109.766-54.541L109.766-80.3711C109.766-80.957 110.156-81.3477 110.742-81.3477C111.23-81.3477 111.572-81.0547 111.963-80.7129L157.812-37.1094C158.545-36.377 158.838-35.8887 158.838-35.3516C158.838-34.8145 158.594-34.3262 157.812-33.5938L111.914 9.61914C111.475 10.0586 111.084 10.2539 110.693 10.2539ZM31.0059 11.8164C26.8066 11.8164 24.7559 9.57031 24.7559 4.88281L24.7559-18.0664C24.7559-22.7051 26.8066-25 31.0059-25L45.5566-25L45.5566-20.0195C45.5566-16.1133 46.6797-13.4766 50.2441-11.084L73.584 3.80859L73.584 4.88281C73.584 9.57031 71.4844 11.8164 67.2852 11.8164Z"/>
  </g>
  <g id="Light-L" transform="matrix(1 0 0 1 1063.78 1556)">
   <path d="M28.8086 17.7734L65.4785 17.7734C74.2188 17.7734 78.2227 13.8184 78.2227 4.98047L78.2227-10.2539L100.83-10.2539L100.83 14.6973C100.83 18.0176 102.979 20.5078 106.396 20.5078C108.838 20.5078 110.791 19.3848 112.891 17.4316L162.402-28.9062C165.234-31.543 165.869-33.5449 165.869-35.4492C165.869-37.3535 165.283-39.3066 162.402-41.9922L112.891-88.1348C110.645-90.2344 108.887-91.4062 106.445-91.4062C102.979-91.4062 100.83-88.7207 100.83-85.4004L100.83-59.2285L58.9355-59.2285C50.1953-59.2285 46.1914-55.3223 46.1914-46.4844L46.1914-34.7168L28.8086-34.7168C20.0684-34.7168 16.0645-30.7617 16.0645-21.9238L16.0645 4.98047C16.0645 13.8184 20.0684 17.7734 28.8086 17.7734ZM108.447 12.0117C107.812 12.0117 107.422 11.5723 107.422 10.8887L107.422-15.4297C107.422-16.748 106.885-17.2852 105.566-17.2852L59.3262-17.2852C54.9805-17.2852 52.832-19.5801 52.832-24.2676L52.832-46.2402C52.832-50.9277 54.9805-53.2227 59.3262-53.2227L105.566-53.2227C106.885-53.2227 107.422-53.7598 107.422-55.0781L107.422-82.0801C107.422-82.7148 107.861-83.1543 108.496-83.1543C109.033-83.1543 109.473-82.7637 109.912-82.373L157.129-37.9395C158.203-36.9141 158.594-36.1816 158.594-35.4492C158.594-34.668 158.252-33.9844 157.129-32.9102L109.863 11.2793C109.277 11.8164 108.838 12.0117 108.447 12.0117ZM29.1992 11.2793C24.8535 11.2793 22.7051 8.93555 22.7051 4.24805L22.7051-21.1914C22.7051-25.8789 24.8535-28.2227 29.1992-28.2227L46.2891-28.2227L46.2891-20.6543C46.2891-16.6992 47.3145-14.209 50.8789-11.5723L71.582 2.68555L71.582 4.24805C71.582 8.93555 69.4336 11.2793 65.0879 11.2793Z"/>
  </g>
  <g id="Thin-L" transform="matrix(1 0 0 1 768.751 1556)">
   <path d="M26.709 14.4043L62.3047 14.4043C69.3848 14.4043 72.9004 10.9375 72.9004 3.56445L72.9004-12.3535L100.391-12.3535L100.391 14.3555C100.391 16.9434 101.855 18.9941 104.639 18.9941C106.543 18.9941 108.057 18.0176 109.473 16.6992L158.838-29.1504C161.963-32.1289 162.451-33.8379 162.451-35.5469C162.451-37.3047 162.012-38.9648 158.838-41.9434L109.473-87.793C108.057-89.1113 106.543-90.1367 104.639-90.1367C101.855-90.1367 100.391-88.0371 100.391-85.4492L100.391-57.959L57.8125-57.959C50.6836-57.959 47.168-54.4922 47.168-47.0703L47.168-36.377L26.709-36.377C19.5801-36.377 16.0645-32.8613 16.0645-25.4883L16.0645 3.56445C16.0645 10.9375 19.5801 14.4043 26.709 14.4043ZM105.42 14.3555C104.736 14.3555 104.346 13.8184 104.346 13.0371L104.346-14.6973C104.346-15.918 103.906-16.3574 102.686-16.3574L57.8613-16.3574C53.3203-16.3574 51.123-18.75 51.123-23.4863L51.123-47.0215C51.123-51.7578 53.3203-54.1504 57.8613-54.1504L102.686-54.1504C103.906-54.1504 104.346-54.5898 104.346-55.8105L104.346-84.375C104.346-85.0586 104.785-85.5469 105.518-85.5469C106.201-85.5469 106.641-85.1074 107.178-84.6191L156.201-39.0625C157.764-37.5977 158.252-36.6211 158.252-35.5469C158.252-34.5215 157.812-33.5449 156.201-32.0312L107.129 13.4277C106.348 14.1602 105.908 14.3555 105.42 14.3555ZM26.7578 10.5469C22.2168 10.5469 20.0195 8.10547 20.0195 3.41797L20.0195-25.3418C20.0195-30.0781 22.2168-32.4707 26.7578-32.4707L47.2168-32.4707L47.2168-21.5332C47.2168-17.4805 48.0957-15.1367 51.709-12.2559L68.9453 1.17188L68.9453 3.41797C68.9453 8.10547 66.748 10.5469 62.207 10.5469Z"/>
  </g>
  <g id="Ultralight-L" transform="matrix(1 0 0 1 472.919 1556)">
   <path d="M25.6348 12.7441L60.6445 12.7441C66.9434 12.7441 70.166 9.47266 70.166 2.83203L70.166-13.4277L100.195-13.4277L100.195 14.1602C100.195 16.4062 101.27 18.2129 103.711 18.2129C105.322 18.2129 106.689 17.2852 107.715 16.3574L156.982-29.2969C160.254-32.4219 160.742-33.9844 160.742-35.6445C160.742-37.2559 160.352-38.8184 156.982-41.9434L107.715-87.5977C106.738-88.5742 105.322-89.502 103.711-89.502C101.27-89.502 100.195-87.6953 100.195-85.4492L100.195-57.3242L57.2266-57.3242C50.9277-57.3242 47.7051-54.0527 47.7051-47.4121L47.7051-37.207L25.6348-37.207C19.3359-37.207 16.0645-33.9355 16.0645-27.2949L16.0645 2.83203C16.0645 9.47266 19.3359 12.7441 25.6348 12.7441ZM103.906 15.5762C103.125 15.5762 102.734 14.9902 102.734 14.1602L102.734-14.3555C102.734-15.5273 102.344-15.918 101.172-15.918L57.1289-15.918C52.5391-15.918 50.2441-18.3594 50.2441-23.0957L50.2441-47.4609C50.2441-52.1973 52.5391-54.6387 57.1289-54.6387L101.172-54.6387C102.344-54.6387 102.734-55.0293 102.734-56.2012L102.734-85.5469C102.734-86.2793 103.223-86.7676 103.955-86.7676C104.736-86.7676 105.225-86.2793 105.811-85.7422L155.713-39.6484C157.52-37.9395 158.105-36.8164 158.105-35.6445C158.105-34.4238 157.617-33.3008 155.713-31.5918L105.713 14.5508C104.883 15.332 104.395 15.5762 103.906 15.5762ZM25.5371 10.1562C20.8984 10.1562 18.6523 7.71484 18.6523 2.97852L18.6523-27.4414C18.6523-32.1777 20.8984-34.6191 25.5371-34.6191L47.6562-34.6191L47.6562-21.9727C47.6562-17.8223 48.5352-15.625 52.1484-12.5977L67.627 0.390625L67.627 2.97852C67.627 7.71484 65.332 10.1562 60.7422 10.1562Z"/>
  </g>
  <g id="Black-M" transform="matrix(1 0 0 1 2855.35 1126)">
   <path d="M28.3691 12.2559L58.252 12.2559C69.2383 12.2559 74.1699 6.78711 74.1699-4.19922L74.1699-9.52148L82.4707-9.52148L82.4707 2.73438C82.4707 8.78906 87.1582 13.4277 93.1641 13.4277C97.0215 13.4277 99.9023 11.9629 103.467 8.64258L142.725-27.2949C144.873-29.2969 146.143-32.5684 146.143-35.2051C146.143-38.0371 144.922-41.0645 142.822-43.0664L103.467-79.0527C99.5605-82.5684 96.7285-83.8379 93.1641-83.8379C87.1582-83.8379 82.4707-79.1504 82.4707-73.1445L82.4707-60.4004L60.2539-60.4004C48.0469-60.4004 42.5781-54.3457 42.5781-42.0898L42.5781-37.5L28.3691-37.5C18.8965-37.5 12.4512-31.3965 12.4512-22.3145L12.4512-2.92969C12.4512 6.5918 18.3594 12.2559 28.3691 12.2559ZM97.5586-8.74023C97.0703-8.74023 96.6309-9.17969 96.6309-9.81445L96.6309-26.416C96.6309-27.4902 96.1914-27.8809 95.1172-27.8809L63.5742-27.8809C61.8652-27.8809 60.8887-28.9062 60.8887-30.5664L60.8887-42.0898C60.8887-43.7988 61.8652-44.873 63.5742-44.873L95.1172-44.873C96.1914-44.873 96.6309-45.2637 96.6309-46.3379L96.6309-60.498C96.6309-61.1328 97.0703-61.5234 97.5586-61.5234C97.8027-61.5234 98.0469-61.4746 98.291-61.2793L125.195-36.084C125.586-35.6934 125.684-35.498 125.684-35.2051C125.684-34.9609 125.586-34.7168 125.195-34.3262L98.291-9.13086C98.0469-8.88672 97.8027-8.74023 97.5586-8.74023ZM31.3477-1.41602C29.834-1.41602 28.9062-2.29492 28.9062-3.80859L28.9062-21.3867C28.9062-22.9004 29.834-23.8281 31.3477-23.8281L44.043-23.8281L44.043-23.3887C44.043-20.0684 45.6055-17.1875 48.877-13.7207L57.7148-4.05273L57.7148-3.80859C57.7148-2.29492 56.7871-1.41602 55.2734-1.41602Z"/>
  </g>
  <g id="Heavy-M" transform="matrix(1 0 0 1 2560.3 1126)">
   <path d="M27.4414 11.5234L57.2754 11.5234C67.627 11.5234 72.2168 6.54297 72.2168-3.85742L72.2168-10.498L81.543-10.498L81.543 2.97852C81.543 8.34961 85.6934 12.5 91.0645 12.5C94.5801 12.5 97.2168 11.1816 100.537 8.10547L139.6-27.9297C141.699-29.8828 142.773-32.8125 142.773-35.2051C142.773-37.7441 141.748-40.4785 139.648-42.4316L100.537-78.4668C96.9238-81.7383 94.3848-82.9102 91.1133-82.9102C85.6934-82.9102 81.543-78.7598 81.543-73.3398L81.543-59.1797L57.0801-59.1797C45.752-59.1797 40.7715-53.7109 40.7715-42.3828L40.7715-36.4746L27.4414-36.4746C18.2129-36.4746 12.4512-31.0059 12.4512-22.0703L12.4512-2.88086C12.4512 6.39648 17.8223 11.5234 27.4414 11.5234ZM95.0684-6.93359C94.6289-6.93359 94.1895-7.32422 94.1895-7.91016L94.1895-25.0488C94.1895-26.123 93.75-26.5625 92.6758-26.5625L59.7656-26.5625C57.7148-26.5625 56.5918-27.7344 56.5918-29.8828L56.5918-42.2852C56.5918-44.4336 57.7148-45.6543 59.7656-45.6543L92.6758-45.6543C93.75-45.6543 94.1895-46.0938 94.1895-47.168L94.1895-62.5488C94.1895-63.1348 94.6289-63.5254 95.0684-63.5254C95.3613-63.5254 95.6055-63.4277 95.8496-63.2324L124.609-36.1328C125-35.7422 125.098-35.5469 125.098-35.2051C125.098-34.9609 125-34.7168 124.609-34.3262L95.8496-7.27539C95.6055-7.03125 95.3613-6.93359 95.0684-6.93359ZM29.8828-0.732422C27.9297-0.732422 26.8555-1.80664 26.8555-3.80859L26.8555-21.0938C26.8555-23.0957 27.9297-24.2188 29.8828-24.2188L41.8945-24.2188L41.8945-23.291C41.8945-20.0684 43.3105-17.3828 46.4355-14.3066L57.8125-4.10156L57.8125-3.80859C57.8125-1.80664 56.7383-0.732422 54.834-0.732422Z"/>
  </g>
  <g id="Bold-M" transform="matrix(1 0 0 1 2265.47 1126)">
   <path d="M26.416 10.7422L56.1035 10.7422C65.8203 10.7422 70.0684 6.25 70.0684-3.41797L70.0684-11.6211L80.5176-11.6211L80.5176 3.27148C80.5176 7.91016 84.0332 11.4746 88.7207 11.4746C91.8457 11.4746 94.2383 10.2539 97.2168 7.51953L136.133-28.6621C138.135-30.5176 139.062-33.1055 139.062-35.2539C139.062-37.4512 138.184-39.8926 136.182-41.7969L97.2168-77.832C93.9941-80.8105 91.748-81.9336 88.7695-81.9336C84.0332-81.9336 80.5176-78.2715 80.5176-73.584L80.5176-57.7637L53.5645-57.7637C43.2129-57.7637 38.7207-52.9785 38.7207-42.7246L38.7207-35.3027L26.416-35.3027C17.4805-35.3027 12.4512-30.5176 12.4512-21.8262L12.4512-2.7832C12.4512 6.15234 17.2363 10.7422 26.416 10.7422ZM92.334-4.88281C91.8457-4.88281 91.5039-5.22461 91.5039-5.76172L91.5039-23.4863C91.5039-24.6094 91.0645-25.0488 89.9414-25.0488L55.5176-25.0488C53.0273-25.0488 51.7578-26.416 51.7578-29.0527L51.7578-42.5293C51.7578-45.166 53.0273-46.5332 55.5176-46.5332L89.9414-46.5332C91.0645-46.5332 91.5039-47.0215 91.5039-48.0957L91.5039-64.8926C91.5039-65.3809 91.8945-65.7227 92.334-65.7227C92.627-65.7227 92.8711-65.625 93.1152-65.3809L123.926-36.1328C124.316-35.7422 124.463-35.5469 124.463-35.2539C124.463-34.9609 124.316-34.7168 123.926-34.3262L93.1152-5.27344C92.8711-4.98047 92.5781-4.88281 92.334-4.88281ZM28.2227 0.0488281C25.8301 0.0488281 24.6094-1.2207 24.6094-3.75977L24.6094-20.752C24.6094-23.291 25.8301-24.6582 28.2227-24.6582L39.502-24.6582L39.502-23.2422C39.502-20.0684 40.7227-17.5781 43.7012-14.9902L57.9102-4.19922L57.9102-3.75977C57.9102-1.2207 56.6895 0.0488281 54.3457 0.0488281Z"/>
  </g>
  <g id="Semibold-M" transform="matrix(1 0 0 1 1970.02 1126)">
   <path d="M25.7324 10.1562L55.3223 10.1562C64.5508 10.1562 68.6035 6.05469 68.6035-3.125L68.6035-12.4023L79.7852-12.4023L79.7852 3.4668C79.7852 7.61719 82.9102 10.7422 87.1094 10.7422C89.9414 10.7422 92.1875 9.61914 94.9219 7.08008L133.74-29.1504C135.645-31.0059 136.475-33.3008 136.475-35.2539C136.475-37.2559 135.693-39.502 133.74-41.3086L94.9219-77.3926C91.9434-80.127 89.9414-81.25 87.1582-81.25C82.9102-81.25 79.7852-77.9297 79.7852-73.7793L79.7852-56.7871L51.123-56.7871C41.4551-56.7871 37.3047-52.4902 37.3047-42.9199L37.3047-34.5215L25.7324-34.5215C16.9434-34.5215 12.4512-30.1758 12.4512-21.6309L12.4512-2.68555C12.4512 6.00586 16.7969 10.1562 25.7324 10.1562ZM90.4297-3.4668C89.9902-3.4668 89.6484-3.80859 89.6484-4.29688L89.6484-22.4609C89.6484-23.5352 89.1602-24.0234 88.0859-24.0234L52.5879-24.0234C49.8535-24.0234 48.4863-25.5371 48.4863-28.5156L48.4863-42.6758C48.4863-45.6543 49.8535-47.168 52.5879-47.168L88.0859-47.168C89.1602-47.168 89.6484-47.6562 89.6484-48.7305L89.6484-66.4551C89.6484-66.9434 89.9902-67.2363 90.4297-67.2363C90.7227-67.2363 90.9668-67.0898 91.2109-66.8945L123.486-36.1816C123.877-35.791 124.023-35.5469 124.023-35.2539C124.023-34.9609 123.877-34.7168 123.486-34.3262L91.2109-3.85742C90.9668-3.61328 90.6738-3.4668 90.4297-3.4668ZM27.0996 0.585938C24.4141 0.585938 23.0469-0.830078 23.0469-3.75977L23.0469-20.5566C23.0469-23.4863 24.4141-24.9512 27.0996-24.9512L37.8418-24.9512L37.8418-23.1934C37.8418-20.0684 38.9648-17.7246 41.8457-15.4297L58.0078-4.24805L58.0078-3.75977C58.0078-0.830078 56.6406 0.585938 54.0039 0.585938Z"/>
  </g>
  <g id="Medium-M" transform="matrix(1 0 0 1 1674.29 1126)">
   <path d="M25.1953 9.76562L54.7363 9.76562C63.623 9.76562 67.4805 5.9082 67.4805-2.88086L67.4805-12.9883L79.248-12.9883L79.248 3.61328C79.248 7.42188 82.0801 10.2051 85.8887 10.2051C88.5254 10.2051 90.625 9.13086 93.2129 6.73828L131.885-29.541C133.789-31.3477 134.521-33.4473 134.521-35.2539C134.521-37.1094 133.838-39.1602 131.885-40.9668L93.2129-77.0508C90.3809-79.6387 88.5742-80.7129 85.9375-80.7129C82.0801-80.7129 79.248-77.6855 79.248-73.877L79.248-56.0547L49.2676-56.0547C40.1367-56.0547 36.2305-52.0996 36.2305-43.1152L36.2305-33.9355L25.1953-33.9355C16.5527-33.9355 12.4512-29.9316 12.4512-21.4844L12.4512-2.63672C12.4512 5.85938 16.4551 9.76562 25.1953 9.76562ZM88.9648-2.39258C88.5254-2.39258 88.2324-2.68555 88.2324-3.17383L88.2324-21.6309C88.2324-22.7539 87.7441-23.2422 86.6211-23.2422L50.3418-23.2422C47.4121-23.2422 45.9473-24.8535 45.9473-28.0762L45.9473-42.7734C45.9473-46.0449 47.4121-47.6074 50.3418-47.6074L86.6211-47.6074C87.7441-47.6074 88.2324-48.1445 88.2324-49.2188L88.2324-67.6758C88.2324-68.1152 88.5742-68.4082 88.9648-68.4082C89.3066-68.4082 89.5508-68.2617 89.7949-68.0176L123.145-36.1816C123.535-35.791 123.682-35.5469 123.682-35.2539C123.682-34.9609 123.535-34.7168 123.145-34.3262L89.7949-2.7832C89.502-2.53906 89.2578-2.39258 88.9648-2.39258ZM26.2207 1.02539C23.291 1.02539 21.875-0.585938 21.875-3.75977L21.875-20.3613C21.875-23.584 23.291-25.1465 26.2207-25.1465L36.5723-25.1465L36.5723-23.1445C36.5723-20.0684 37.5977-17.8223 40.4297-15.7715L58.0566-4.24805L58.0566-3.75977C58.0566-0.585938 56.6406 1.02539 53.7109 1.02539Z"/>
  </g>
  <g id="Regular-M" transform="matrix(1 0 0 1 1378.87 1126)">
   <path d="M24.5117 9.22852L53.9551 9.22852C62.4023 9.22852 66.0156 5.71289 66.0156-2.58789L66.0156-13.7207L78.5645-13.7207L78.5645 3.80859C78.5645 7.08008 80.957 9.52148 84.2773 9.52148C86.6699 9.52148 88.623 8.54492 90.9668 6.34766L129.492-30.0293C131.396-31.7871 131.982-33.6426 131.982-35.2539C131.982-36.9141 131.396-38.7695 129.492-40.5273L90.9668-76.5625C88.3789-79.0039 86.7676-80.0781 84.375-80.0781C80.957-80.0781 78.5645-77.3438 78.5645-74.0723L78.5645-55.127L46.875-55.127C38.4277-55.127 34.8145-51.6113 34.8145-43.3105L34.8145-33.1055L24.5117-33.1055C16.0645-33.1055 12.4512-29.6387 12.4512-21.3379L12.4512-2.58789C12.4512 5.71289 16.0645 9.22852 24.5117 9.22852ZM87.1094-0.976562C86.6699-0.976562 86.4258-1.26953 86.4258-1.70898L86.4258-20.6055C86.4258-21.7285 85.8887-22.2168 84.7656-22.2168L47.4609-22.2168C44.2383-22.2168 42.6758-23.9746 42.6758-27.5391L42.6758-42.9199C42.6758-46.5332 44.2383-48.2422 47.4609-48.2422L84.7656-48.2422C85.8887-48.2422 86.4258-48.7305 86.4258-49.8535L86.4258-69.2383C86.4258-69.6289 86.6699-69.9219 87.1094-69.9219C87.4023-69.9219 87.6953-69.7266 87.9395-69.5312L122.705-36.1816C123.096-35.8398 123.242-35.5469 123.242-35.2539C123.242-34.9609 123.096-34.7168 122.705-34.3262L87.9395-1.41602C87.6465-1.12305 87.3535-0.976562 87.1094-0.976562ZM25.0977 1.5625C21.875 1.5625 20.3125-0.195312 20.3125-3.75977L20.3125-20.166C20.3125-23.7305 21.875-25.4395 25.0977-25.4395L34.9121-25.4395L34.9121-23.0957C34.9121-20.1172 35.8398-17.9688 38.5742-16.2598L58.1543-4.29688L58.1543-3.75977C58.1543-0.195312 56.5918 1.5625 53.3691 1.5625Z"/>
  </g>
  <g id="Light-M" transform="matrix(1 0 0 1 1083.31 1126)">
   <path d="M23.0469 6.93359L51.8066 6.93359C59.1309 6.93359 62.4023 3.75977 62.4023-3.56445L62.4023-15.1855L78.2715-15.1855L78.2715 3.56445C78.2715 6.39648 80.1758 8.49609 83.0566 8.49609C85.1074 8.49609 86.7676 7.56836 88.6719 5.85938L127.1-30.2246C129.15-32.1777 129.688-33.8379 129.688-35.3516C129.688-36.8652 129.199-38.5254 127.1-40.4785L88.6719-76.3672C86.6211-78.2715 85.1562-79.1992 83.1055-79.1992C80.1758-79.1992 78.2715-76.9043 78.2715-74.0723L78.2715-54.248L46.0938-54.248C38.7207-54.248 35.498-51.0742 35.498-43.75L35.498-34.2773L23.0469-34.2773C15.7227-34.2773 12.4512-31.0547 12.4512-23.7305L12.4512-3.56445C12.4512 3.75977 15.7227 6.93359 23.0469 6.93359ZM85.0586 0.585938C84.5703 0.585938 84.3262 0.244141 84.3262-0.244141L84.3262-20.1172C84.3262-21.1914 83.8867-21.6309 82.8125-21.6309L46.4844-21.6309C43.1152-21.6309 41.5039-23.3887 41.5039-27.002L41.5039-43.5059C41.5039-47.1191 43.1152-48.877 46.4844-48.877L82.8125-48.877C83.8867-48.877 84.3262-49.3164 84.3262-50.3906L84.3262-70.8008C84.3262-71.2402 84.6191-71.5332 85.0586-71.5332C85.498-71.5332 85.791-71.2891 86.084-71.0449L122.07-36.9629C122.754-36.2793 122.998-35.8398 122.998-35.3516C122.998-34.8633 122.803-34.4238 122.07-33.7402L86.084 0.0976562C85.6445 0.439453 85.3516 0.585938 85.0586 0.585938ZM23.4375 1.02539C20.1172 1.02539 18.5059-0.732422 18.5059-4.3457L18.5059-22.9492C18.5059-26.5625 20.1172-28.3203 23.4375-28.3203L35.5469-28.3203L35.5469-23.6816C35.5469-20.6055 36.377-18.6035 39.1113-16.6992L56.3477-5.32227L56.3477-4.3457C56.3477-0.732422 54.7363 1.02539 51.416 1.02539Z"/>
  </g>
  <g id="Thin-M" transform="matrix(1 0 0 1 788.112 1126)">
   <path d="M21.1426 3.95508L48.9746 3.95508C54.834 3.95508 57.666 1.17188 57.666-4.88281L57.666-17.041L77.8809-17.041L77.8809 3.27148C77.8809 5.41992 79.1992 7.12891 81.4453 7.12891C83.0566 7.12891 84.3262 6.34766 85.5957 5.17578L123.877-30.4688C126.221-32.7148 126.66-34.082 126.66-35.4492C126.66-36.8164 126.27-38.2324 123.877-40.4785L85.5957-76.0254C84.2773-77.2461 83.0566-78.0762 81.4941-78.0762C79.1992-78.0762 77.8809-76.3184 77.8809-74.1211L77.8809-53.125L45.0684-53.125C39.1602-53.125 36.377-50.3418 36.377-44.2871L36.377-35.7422L21.1426-35.7422C15.2832-35.7422 12.4512-32.959 12.4512-26.9043L12.4512-4.88281C12.4512 1.17188 15.2832 3.95508 21.1426 3.95508ZM82.373 2.68555C81.8359 2.68555 81.543 2.29492 81.543 1.70898L81.543-19.4824C81.543-20.459 81.1523-20.8008 80.1758-20.8008L45.166-20.8008C41.6992-20.8008 39.9902-22.6562 39.9902-26.3184L39.9902-44.1895C39.9902-47.8516 41.6992-49.707 45.166-49.707L80.1758-49.707C81.1523-49.707 81.543-50.0488 81.543-51.0254L81.543-72.8027C81.543-73.3398 81.8848-73.6816 82.4219-73.6816C82.9102-73.6816 83.252-73.3887 83.6426-73.0469L121.24-37.9883C122.363-36.9141 122.705-36.2305 122.705-35.4492C122.705-34.7168 122.412-34.0332 121.24-32.959L83.5938 2.00195C83.0566 2.53906 82.7148 2.68555 82.373 2.68555ZM21.2891 0.390625C17.7734 0.390625 16.1133-1.46484 16.1133-5.12695L16.1133-26.6602C16.1133-30.3223 17.7734-32.1777 21.2891-32.1777L36.377-32.1777L36.377-24.4141C36.377-21.2891 37.1094-19.4824 39.8926-17.2852L54.0039-6.68945L54.0039-5.12695C54.0039-1.46484 52.2949 0.390625 48.8281 0.390625Z"/>
  </g>
  <g id="Ultralight-M" transform="matrix(1 0 0 1 492.182 1126)">
   <path d="M20.166 2.44141L47.5098 2.44141C52.5879 2.44141 55.2246-0.146484 55.2246-5.51758L55.2246-18.0176L77.6855-18.0176L77.6855 3.125C77.6855 4.98047 78.6621 6.44531 80.6641 6.44531C81.9824 6.44531 83.1055 5.71289 84.0332 4.83398L122.217-30.6152C124.707-32.959 125.098-34.2285 125.098-35.498C125.098-36.8164 124.756-38.0371 122.217-40.4297L84.0332-75.8789C83.1055-76.709 81.9824-77.4902 80.6641-77.4902C78.6621-77.4902 77.6855-75.9766 77.6855-74.1699L77.6855-52.5391L44.5312-52.5391C39.4043-52.5391 36.8164-49.9512 36.8164-44.5801L36.8164-36.5234L20.166-36.5234C15.0879-36.5234 12.4512-33.8867 12.4512-28.5156L12.4512-5.51758C12.4512-0.146484 15.0879 2.44141 20.166 2.44141ZM80.957 3.75977C80.4199 3.75977 80.0781 3.32031 80.0781 2.73438L80.0781-19.1406C80.0781-20.0684 79.7852-20.4102 78.8574-20.4102L44.5312-20.4102C40.9668-20.4102 39.209-22.2656 39.209-25.9277L39.209-44.5801C39.209-48.2422 40.9668-50.1465 44.5312-50.1465L78.8574-50.1465C79.7852-50.1465 80.0781-50.4395 80.0781-51.3672L80.0781-73.877C80.0781-74.4141 80.4688-74.8047 81.0547-74.8047C81.5918-74.8047 81.9824-74.4141 82.4219-74.0234L120.801-38.4766C122.119-37.207 122.559-36.377 122.559-35.498C122.559-34.6191 122.217-33.7891 120.801-32.5684L82.373 3.02734C81.7383 3.61328 81.3477 3.75977 80.957 3.75977ZM20.166 0.0488281C16.6016 0.0488281 14.8438-1.80664 14.8438-5.51758L14.8438-28.5645C14.8438-32.2266 16.6016-34.1309 20.166-34.1309L36.8164-34.1309L36.8164-24.8047C36.8164-21.6309 37.5-19.9219 40.2832-17.5781L52.832-7.37305L52.832-5.51758C52.832-1.80664 51.0742 0.0488281 47.5098 0.0488281Z"/>
  </g>
  <g id="Black-S" transform="matrix(1 0 0 1 2872.36 696)">
   <path d="M22.168 1.95312L45.6055 1.95312C54.1504 1.95312 58.0078-2.29492 58.0078-10.8887L58.0078-15.1367L64.5508-15.1367L64.5508-5.46875C64.5508-0.78125 68.1641 2.83203 72.8516 2.83203C75.8301 2.83203 78.0762 1.70898 80.8594-0.878906L111.621-29.0527C113.281-30.6152 114.258-33.1543 114.258-35.2051C114.258-37.4023 113.33-39.7461 111.67-41.3086L80.8594-69.5312C77.832-72.2656 75.6348-73.2422 72.8516-73.2422C68.1641-73.2422 64.5508-69.6289 64.5508-64.9414L64.5508-54.8828L46.9727-54.8828C37.4512-54.8828 33.2031-50.1465 33.2031-40.625L33.2031-36.9141L22.168-36.9141C14.7461-36.9141 9.76562-32.1777 9.76562-25.0488L9.76562-9.91211C9.76562-2.44141 14.3555 1.95312 22.168 1.95312ZM76.2695-14.3555C75.8789-14.3555 75.5371-14.6973 75.5371-15.1855L75.5371-28.2227C75.5371-29.0527 75.1953-29.3945 74.3652-29.3945L49.5117-29.3945C48.1445-29.3945 47.3633-30.1758 47.3633-31.543L47.3633-40.625C47.3633-41.9922 48.1445-42.8223 49.5117-42.8223L74.3652-42.8223C75.1953-42.8223 75.5371-43.1641 75.5371-43.9941L75.5371-55.1758C75.5371-55.6641 75.8789-55.957 76.2695-55.957C76.4648-55.957 76.6602-55.9082 76.8555-55.7617L98.0469-35.8887C98.3398-35.5957 98.4375-35.4492 98.4375-35.2051C98.4375-35.0098 98.3398-34.8145 98.0469-34.5215L76.8555-14.6484C76.6602-14.4531 76.4648-14.3555 76.2695-14.3555ZM24.4629-8.69141C23.2422-8.69141 22.5098-9.375 22.5098-10.5957L22.5098-24.3164C22.5098-25.5371 23.2422-26.2695 24.4629-26.2695L34.3262-26.2695L34.3262-25.9277C34.3262-23.3398 35.5469-21.0938 38.0859-18.4082L45.2637-10.791L45.2637-10.5957C45.2637-9.375 44.5312-8.69141 43.3105-8.69141Z"/>
  </g>
  <g id="Heavy-S" transform="matrix(1 0 0 1 2576.8 696)">
   <path d="M21.6309 1.66016L45.0684 1.66016C53.2715 1.66016 56.9336-2.29492 56.9336-10.498L56.9336-15.7227L63.8672-15.7227L63.8672-5.22461C63.8672-1.02539 67.1387 2.24609 71.3867 2.24609C74.1211 2.24609 76.2695 1.17188 78.8574-1.2207L109.521-29.541C111.084-31.0059 111.963-33.3496 111.963-35.2051C111.963-37.207 111.133-39.3555 109.521-40.8691L78.8574-69.0918C76.0254-71.7285 74.0234-72.6562 71.3867-72.6562C67.1387-72.6562 63.8672-69.3359 63.8672-65.0879L63.8672-54.0039L44.6289-54.0039C35.6934-54.0039 31.7383-49.707 31.7383-40.8203L31.7383-35.9863L21.6309-35.9863C14.2578-35.9863 9.76562-31.6895 9.76562-24.6094L9.76562-9.7168C9.76562-2.39258 13.9648 1.66016 21.6309 1.66016ZM74.6094-13.1348C74.2188-13.1348 73.9258-13.4277 73.9258-13.8672L73.9258-27.2461C73.9258-28.0762 73.584-28.418 72.7051-28.418L46.7285-28.418C45.0684-28.418 44.1895-29.3457 44.1895-31.0547L44.1895-40.7227C44.1895-42.4316 45.0684-43.3594 46.7285-43.3594L72.7051-43.3594C73.584-43.3594 73.9258-43.75 73.9258-44.5801L73.9258-56.5918C73.9258-57.0312 74.2188-57.2754 74.6094-57.2754C74.8047-57.2754 75-57.2266 75.1953-57.0801L97.6562-35.8398C97.9492-35.5469 97.998-35.4492 97.998-35.2051C97.998-35.0098 97.9492-34.8633 97.6562-34.5703L75.1953-13.4277C75-13.2324 74.8047-13.1348 74.6094-13.1348ZM23.5352-8.10547C22.0215-8.10547 21.1426-8.93555 21.1426-10.5469L21.1426-23.7793C21.1426-25.3906 22.0215-26.2695 23.5352-26.2695L32.6172-26.2695L32.6172-25.8301C32.6172-23.291 33.7402-21.1426 36.1816-18.7988L45.5566-10.7422L45.5566-10.5469C45.5566-8.93555 44.6777-8.10547 43.1641-8.10547Z"/>
  </g>
  <g id="Bold-S" transform="matrix(1 0 0 1 2281.38 696)">
   <path d="M21.0449 1.31836L44.4824 1.31836C52.2949 1.31836 55.7129-2.24609 55.7129-10.0586L55.7129-16.4062L63.1348-16.4062L63.1348-4.98047C63.1348-1.26953 65.9668 1.5625 69.7266 1.5625C72.2656 1.5625 74.2188 0.585938 76.6113-1.66016L107.129-30.0781C108.643-31.4941 109.375-33.5449 109.375-35.2051C109.375-36.9629 108.691-38.916 107.178-40.332L76.6113-68.6523C73.9746-71.0938 72.168-72.0215 69.7754-72.0215C65.9668-72.0215 63.1348-69.043 63.1348-65.2832L63.1348-53.0762L42.041-53.0762C33.6914-53.0762 30.0781-49.2676 30.0781-41.0156L30.0781-34.9609L21.0449-34.9609C13.7207-34.9609 9.76562-31.1523 9.76562-24.1211L9.76562-9.57031C9.76562-2.34375 13.5254 1.31836 21.0449 1.31836ZM72.7539-11.7676C72.4121-11.7676 72.1191-12.0605 72.1191-12.4512L72.1191-26.123C72.1191-27.002 71.7285-27.3926 70.8496-27.3926L43.5547-27.3926C41.6504-27.3926 40.6738-28.418 40.6738-30.5176L40.6738-40.8203C40.6738-42.8711 41.6504-43.9941 43.5547-43.9941L70.8496-43.9941C71.7285-43.9941 72.1191-44.3359 72.1191-45.2148L72.1191-58.1543C72.1191-58.5449 72.4121-58.7891 72.7539-58.7891C72.9492-58.7891 73.1445-58.6914 73.3398-58.5449L97.2656-35.7422C97.4609-35.5469 97.5586-35.4004 97.5586-35.2051C97.5586-35.0586 97.4609-34.9121 97.2656-34.668L73.3398-12.0605C73.1445-11.8652 72.9492-11.7676 72.7539-11.7676ZM22.4609-7.42188C20.6055-7.42188 19.6777-8.44727 19.6777-10.4492L19.6777-23.1934C19.6777-25.1953 20.6055-26.2207 22.4609-26.2207L30.7129-26.2207L30.7129-25.6836C30.7129-23.2422 31.6895-21.2402 33.9844-19.2871L45.8496-10.6445L45.8496-10.4492C45.8496-8.44727 44.873-7.42188 43.0176-7.42188Z"/>
  </g>
  <g id="Semibold-S" transform="matrix(1 0 0 1 1985.55 696)">
   <path d="M20.6055 1.07422L44.043 1.07422C51.6602 1.07422 54.8828-2.24609 54.8828-9.7168L54.8828-16.8945L62.5977-16.8945L62.5977-4.83398C62.5977-1.41602 65.1855 1.12305 68.6035 1.12305C70.9473 1.12305 72.8027 0.195312 75.0977-1.95312L105.518-30.4199C106.934-31.7871 107.617-33.6914 107.617-35.2051C107.617-36.8164 106.982-38.623 105.518-39.9902L75.0977-68.3105C72.5586-70.6543 70.9473-71.5332 68.6523-71.5332C65.1855-71.5332 62.5977-68.7988 62.5977-65.4297L62.5977-52.3926L40.2344-52.3926C32.3242-52.3926 28.9551-48.9258 28.9551-41.1133L28.9551-34.2773L20.6055-34.2773C13.3789-34.2773 9.76562-30.8105 9.76562-23.7793L9.76562-9.42383C9.76562-2.29492 13.2324 1.07422 20.6055 1.07422ZM71.4355-10.8398C71.1426-10.8398 70.8984-11.084 70.8984-11.4258L70.8984-25.3418C70.8984-26.2207 70.5078-26.6113 69.5801-26.6113L41.4062-26.6113C39.3066-26.6113 38.2324-27.7832 38.2324-30.127L38.2324-40.8691C38.2324-43.2129 39.3066-44.3848 41.4062-44.3848L69.5801-44.3848C70.5078-44.3848 70.8984-44.7754 70.8984-45.6543L70.8984-59.2285C70.8984-59.6191 71.1426-59.8145 71.4844-59.8145C71.6797-59.8145 71.875-59.7168 72.0215-59.5703L96.9238-35.6934C97.1191-35.498 97.2168-35.4004 97.2168-35.2051C97.2168-35.0586 97.1191-34.9121 96.9238-34.7168L72.0215-11.084C71.875-10.9375 71.6797-10.8398 71.4355-10.8398ZM21.7285-6.98242C19.6777-6.98242 18.6035-8.10547 18.6035-10.4004L18.6035-22.8027C18.6035-25.0488 19.6777-26.2207 21.7285-26.2207L29.3457-26.2207L29.3457-25.5859C29.3457-23.1934 30.2734-21.2891 32.5195-19.5801L46.0449-10.5957L46.0449-10.4004C46.0449-8.10547 45.0195-6.98242 42.9199-6.98242Z"/>
  </g>
  <g id="Medium-S" transform="matrix(1 0 0 1 1689.5 696)">
   <path d="M20.3125 0.927734L43.75 0.927734C51.123 0.927734 54.248-2.24609 54.248-9.47266L54.248-17.2363L62.207-17.2363L62.207-4.6875C62.207-1.5625 64.5996 0.78125 67.7246 0.78125C69.9707 0.78125 71.7285-0.0976562 73.9258-2.14844L104.248-30.7129C105.664-32.0312 106.299-33.7891 106.299-35.2051C106.299-36.7188 105.664-38.3789 104.297-39.7461L73.9258-68.0664C71.4844-70.3125 69.9707-71.1914 67.8223-71.1914C64.5996-71.1914 62.207-68.6523 62.207-65.5273L62.207-51.9043L38.8672-51.9043C31.2988-51.9043 28.0762-48.6816 28.0762-41.2598L28.0762-33.7402L20.3125-33.7402C13.0859-33.7402 9.76562-30.5176 9.76562-23.5352L9.76562-9.32617C9.76562-2.24609 13.0371 0.927734 20.3125 0.927734ZM70.5078-10.1074C70.166-10.1074 69.9219-10.3516 69.9219-10.6934L69.9219-24.7559C69.9219-25.6836 69.5312-26.0742 68.6523-26.0742L39.7949-26.0742C37.5-26.0742 36.4258-27.2949 36.4258-29.834L36.4258-40.918C36.4258-43.457 37.5-44.7266 39.7949-44.7266L68.6523-44.7266C69.5312-44.7266 69.9219-45.1172 69.9219-45.9961L69.9219-60.0586C69.9219-60.4004 70.166-60.5957 70.5078-60.5957C70.7031-60.5957 70.8984-60.498 71.0449-60.3516L96.7285-35.6445C96.875-35.498 96.9727-35.3516 96.9727-35.2051C96.9727-35.0586 96.9238-34.9609 96.7285-34.7656L71.0449-10.4004C70.8984-10.2051 70.7031-10.1074 70.5078-10.1074ZM21.1914-6.64062C18.9453-6.64062 17.8223-7.86133 17.8223-10.3516L17.8223-22.4609C17.8223-25 18.9453-26.1719 21.1914-26.1719L28.3691-26.1719L28.3691-25.5371C28.3691-23.1445 29.1992-21.3379 31.3965-19.8242L46.1914-10.5469L46.1914-10.3516C46.1914-7.86133 45.1172-6.64062 42.8711-6.64062Z"/>
  </g>
  <g id="Regular-S" transform="matrix(1 0 0 1 1393.67 696)">
   <path d="M19.873 0.683594L43.3105 0.683594C50.4883 0.683594 53.4668-2.19727 53.4668-9.17969L53.4668-17.7246L61.6699-17.7246L61.6699-4.54102C61.6699-1.70898 63.8184 0.341797 66.6016 0.341797C68.6523 0.341797 70.3125-0.488281 72.4121-2.44141L102.637-31.1035C104.004-32.3242 104.541-33.9355 104.541-35.2051C104.541-36.5723 104.004-38.0859 102.637-39.4043L72.4121-67.7246C70.0684-69.9219 68.75-70.752 66.6992-70.752C63.8184-70.752 61.6699-68.457 61.6699-65.625L61.6699-51.2207L37.1094-51.2207C29.9316-51.2207 26.9531-48.3398 26.9531-41.3574L26.9531-33.0566L19.873-33.0566C12.7441-33.0566 9.76562-30.1758 9.76562-23.1934L9.76562-9.17969C9.76562-2.19727 12.7441 0.683594 19.873 0.683594ZM69.2383-9.17969C68.8965-9.17969 68.7012-9.375 68.7012-9.66797L68.7012-23.9746C68.7012-24.9023 68.3105-25.3418 67.3828-25.3418L37.6465-25.3418C35.2051-25.3418 33.9844-26.6602 33.9844-29.4434L33.9844-41.0156C33.9844-43.7988 35.2051-45.1172 37.6465-45.1172L67.3828-45.1172C68.3105-45.1172 68.7012-45.5566 68.7012-46.4844L68.7012-61.1328C68.7012-61.4258 68.8965-61.6211 69.2383-61.6211C69.4336-61.6211 69.6289-61.5234 69.7754-61.377L96.4355-35.5957C96.582-35.4492 96.6309-35.3516 96.6309-35.2051C96.6309-35.1074 96.582-34.9609 96.4355-34.8145L69.7754-9.42383C69.6289-9.27734 69.4336-9.17969 69.2383-9.17969ZM20.459-6.20117C17.9688-6.20117 16.7969-7.51953 16.7969-10.3027L16.7969-22.0703C16.7969-24.8535 17.9688-26.1719 20.459-26.1719L27.0508-26.1719L27.0508-25.4395C27.0508-23.1445 27.832-21.3867 29.9316-20.1172L46.3867-10.498L46.3867-10.3027C46.3867-7.51953 45.2148-6.20117 42.7734-6.20117Z"/>
  </g>
  <g id="Light-S" transform="matrix(1 0 0 1 1097.98 696)">
   <path d="M18.6035-1.31836L41.4062-1.31836C47.5586-1.31836 50.2441-3.95508 50.2441-10.0586L50.2441-18.9453L61.4258-18.9453L61.4258-4.73633C61.4258-2.34375 63.1348-0.585938 65.5273-0.585938C67.2852-0.585938 68.7012-1.31836 70.3613-2.88086L100.488-31.25C102.051-32.666 102.49-34.082 102.49-35.3027C102.49-36.5234 102.051-37.8906 100.488-39.3555L70.3613-67.5293C68.5547-69.2383 67.334-70.0195 65.625-70.0195C63.1348-70.0195 61.4258-68.0176 61.4258-65.6738L61.4258-50.4883L36.377-50.4883C30.2246-50.4883 27.5391-47.8516 27.5391-41.748L27.5391-34.0332L18.6035-34.0332C12.4512-34.0332 9.76562-31.3965 9.76562-25.293L9.76562-10.0586C9.76562-3.95508 12.4512-1.31836 18.6035-1.31836ZM67.4316-7.76367C67.0898-7.76367 66.8457-8.00781 66.8457-8.39844L66.8457-23.584C66.8457-24.4141 66.5039-24.8047 65.625-24.8047L36.7676-24.8047C34.2285-24.8047 32.959-26.1719 32.959-29.0039L32.959-41.5039C32.959-44.2871 34.2285-45.6543 36.7676-45.6543L65.625-45.6543C66.5039-45.6543 66.8457-46.0449 66.8457-46.9238L66.8457-62.5C66.8457-62.8418 67.0898-63.0859 67.4316-63.0859C67.7246-63.0859 67.9199-62.8906 68.1641-62.6953L95.8984-36.2793C96.2891-35.8887 96.4355-35.5957 96.4355-35.3027C96.4355-35.0098 96.3379-34.7168 95.8984-34.2773L68.1152-8.1543C67.8711-7.86133 67.627-7.76367 67.4316-7.76367ZM18.9941-6.64062C16.4551-6.64062 15.1855-8.00781 15.1855-10.791L15.1855-24.5605C15.1855-27.3438 16.4551-28.7109 18.9941-28.7109L27.5879-28.7109L27.5879-25.9277C27.5879-23.584 28.3203-21.9727 30.4199-20.5566L44.8242-11.4258L44.8242-10.791C44.8242-8.00781 43.6035-6.64062 41.0156-6.64062Z"/>
  </g>
  <g id="Thin-S" transform="matrix(1 0 0 1 802.614 696)">
   <path d="M16.9434-3.95508L38.916-3.95508C43.75-3.95508 46.0449-6.20117 46.0449-11.1816L46.0449-20.6055L61.084-20.6055L61.084-4.98047C61.084-3.17383 62.2559-1.75781 64.1113-1.75781C65.4785-1.75781 66.5527-2.44141 67.627-3.41797L97.6562-31.4453C99.4629-33.1543 99.8047-34.2773 99.8047-35.4004C99.8047-36.5234 99.4629-37.6465 97.6562-39.3555L67.627-67.2852C66.5039-68.3594 65.4785-68.9941 64.1602-68.9941C62.2559-68.9941 61.084-67.5293 61.084-65.6738L61.084-49.4629L35.498-49.4629C30.6152-49.4629 28.3203-47.2168 28.3203-42.2363L28.3203-35.3516L16.9434-35.3516C12.0605-35.3516 9.76562-33.0566 9.76562-28.125L9.76562-11.1816C9.76562-6.20117 12.0605-3.95508 16.9434-3.95508ZM65.0391-5.9082C64.6484-5.9082 64.4043-6.20117 64.4043-6.64062L64.4043-22.998C64.4043-23.7793 64.1113-24.0723 63.3301-24.0723L35.6445-24.0723C32.959-24.0723 31.6406-25.5371 31.6406-28.3691L31.6406-42.1387C31.6406-44.9707 32.959-46.3867 35.6445-46.3867L63.3301-46.3867C64.1113-46.3867 64.4043-46.6797 64.4043-47.4609L64.4043-64.3066C64.4043-64.6973 64.6484-64.9414 65.0879-64.9414C65.4297-64.9414 65.7227-64.6973 66.0156-64.4531L95.166-37.1582C95.9473-36.4258 96.1914-35.9375 96.1914-35.4004C96.1914-34.8633 95.9961-34.375 95.166-33.5938L65.9668-6.39648C65.5762-6.05469 65.2832-5.9082 65.0391-5.9082ZM17.0898-7.17773C14.4043-7.17773 13.0859-8.64258 13.0859-11.4746L13.0859-27.832C13.0859-30.6641 14.4043-32.0801 17.0898-32.0801L28.3203-32.0801L28.3203-26.6113C28.3203-24.1699 28.9551-22.7051 31.1035-21.0449L42.7734-12.5977L42.7734-11.4746C42.7734-8.64258 41.4551-7.17773 38.7695-7.17773Z"/>
  </g>
  <g id="Ultralight-S" transform="matrix(1 0 0 1 506.611 696)">
   <path d="M16.0645-5.32227L37.5977-5.32227C41.7969-5.32227 43.8965-7.37305 43.8965-11.7676L43.8965-21.4844L60.9375-21.4844L60.9375-5.12695C60.9375-3.61328 61.7676-2.39258 63.3789-2.39258C64.502-2.39258 65.4297-2.97852 66.2598-3.75977L96.1914-31.543C98.0957-33.3984 98.3887-34.375 98.3887-35.4492C98.3887-36.4746 98.1445-37.5 96.1914-39.3066L66.2598-67.1387C65.4297-67.8711 64.502-68.457 63.4277-68.457C61.7676-68.457 60.9375-67.2363 60.9375-65.7227L60.9375-48.9258L35.0098-48.9258C30.8105-48.9258 28.7109-46.875 28.7109-42.4805L28.7109-36.0352L16.0645-36.0352C11.8652-36.0352 9.76562-33.9355 9.76562-29.541L9.76562-11.7676C9.76562-7.37305 11.8652-5.32227 16.0645-5.32227ZM63.8184-4.93164C63.3789-4.93164 63.1348-5.27344 63.1348-5.76172L63.1348-22.7051C63.1348-23.4863 62.8906-23.7305 62.1582-23.7305L35.0586-23.7305C32.2754-23.7305 30.9082-25.1953 30.9082-28.0273L30.9082-42.4316C30.9082-45.3125 32.2754-46.7773 35.0586-46.7773L62.1582-46.7773C62.8906-46.7773 63.1348-47.0215 63.1348-47.8027L63.1348-65.2344C63.1348-65.6738 63.4277-65.918 63.8672-65.918C64.2578-65.918 64.5508-65.6738 64.8926-65.3809L94.7754-37.6465C95.752-36.7188 96.0938-36.084 96.0938-35.4492C96.0938-34.7656 95.8008-34.1797 94.7754-33.252L64.8438-5.51758C64.4043-5.07812 64.1113-4.93164 63.8184-4.93164ZM16.1133-7.51953C13.3301-7.51953 11.9629-8.93555 11.9629-11.8164L11.9629-29.4922C11.9629-32.373 13.3301-33.8379 16.1133-33.8379L28.7109-33.8379L28.7109-26.9531C28.7109-24.5117 29.248-23.0957 31.4453-21.3379L41.6992-13.2324L41.6992-11.8164C41.6992-8.93555 40.332-7.51953 37.5977-7.51953Z"/>
  </g>
 </g>
</svg>
