<?xml version="1.0" encoding="UTF-8"?>
<!--Generator: Apple Native CoreSVG 123-->
<!DOCTYPE svg
PUBLIC "-//W3C//DTD SVG 1.1//EN"
       "http://www.w3.org/Graphics/SVG/1.1/DTD/svg11.dtd">
<svg version="1.1" xmlns="http://www.w3.org/2000/svg" xmlns:xlink="http://www.w3.org/1999/xlink" width="3300" height="2200">
 <!--glyph: "uni1003EC.medium", point size: 100.000000, font version: "Version 15.0d7e11", template writer version: "5"-->
 <g id="Notes">
  <rect height="2200" id="artboard" style="fill:white;opacity:1" width="3300" x="0" y="0"/>
  <line id="" style="fill:none;stroke:black;opacity:1;stroke-width:0.5;" x1="263" x2="3036" y1="292" y2="292"/>
  <text style="stroke:none;fill:black;font-family:-apple-system,&quot;SF Pro Display&quot;,&quot;SF Pro Text&quot;,Helvetica,sans-serif;font-weight:bold;" transform="matrix(1 0 0 1 263 322)">Weight/Scale Variations</text>
  <text style="stroke:none;fill:black;font-family:-apple-system,&quot;SF Pro Display&quot;,&quot;SF Pro Text&quot;,Helvetica,sans-serif;text-anchor:middle;" transform="matrix(1 0 0 1 559.711 322)">Ultralight</text>
  <text style="stroke:none;fill:black;font-family:-apple-system,&quot;SF Pro Display&quot;,&quot;SF Pro Text&quot;,Helvetica,sans-serif;text-anchor:middle;" transform="matrix(1 0 0 1 856.422 322)">Thin</text>
  <text style="stroke:none;fill:black;font-family:-apple-system,&quot;SF Pro Display&quot;,&quot;SF Pro Text&quot;,Helvetica,sans-serif;text-anchor:middle;" transform="matrix(1 0 0 1 1153.13 322)">Light</text>
  <text style="stroke:none;fill:black;font-family:-apple-system,&quot;SF Pro Display&quot;,&quot;SF Pro Text&quot;,Helvetica,sans-serif;text-anchor:middle;" transform="matrix(1 0 0 1 1449.84 322)">Regular</text>
  <text style="stroke:none;fill:black;font-family:-apple-system,&quot;SF Pro Display&quot;,&quot;SF Pro Text&quot;,Helvetica,sans-serif;text-anchor:middle;" transform="matrix(1 0 0 1 1746.56 322)">Medium</text>
  <text style="stroke:none;fill:black;font-family:-apple-system,&quot;SF Pro Display&quot;,&quot;SF Pro Text&quot;,Helvetica,sans-serif;text-anchor:middle;" transform="matrix(1 0 0 1 2043.27 322)">Semibold</text>
  <text style="stroke:none;fill:black;font-family:-apple-system,&quot;SF Pro Display&quot;,&quot;SF Pro Text&quot;,Helvetica,sans-serif;text-anchor:middle;" transform="matrix(1 0 0 1 2339.98 322)">Bold</text>
  <text style="stroke:none;fill:black;font-family:-apple-system,&quot;SF Pro Display&quot;,&quot;SF Pro Text&quot;,Helvetica,sans-serif;text-anchor:middle;" transform="matrix(1 0 0 1 2636.69 322)">Heavy</text>
  <text style="stroke:none;fill:black;font-family:-apple-system,&quot;SF Pro Display&quot;,&quot;SF Pro Text&quot;,Helvetica,sans-serif;text-anchor:middle;" transform="matrix(1 0 0 1 2933.4 322)">Black</text>
  <line id="" style="fill:none;stroke:black;opacity:1;stroke-width:0.5;" x1="263" x2="3036" y1="1903" y2="1903"/>
  <g id="" transform="matrix(1 0 0 1 263 1933)">
   <path d="M 9.24805 0.830078 C 13.5547 0.830078 17.1387 -2.74414 17.1387 -7.05078 C 17.1387 -11.3574 13.5449 -14.9316 9.23828 -14.9316 C 4.94141 -14.9316 1.36719 -11.3574 1.36719 -7.05078 C 1.36719 -2.74414 4.95117 0.830078 9.24805 0.830078 Z M 9.24805 -0.654297 C 5.70312 -0.654297 2.87109 -3.49609 2.87109 -7.05078 C 2.87109 -10.6055 5.69336 -13.4473 9.23828 -13.4473 C 12.793 -13.4473 15.6348 -10.6055 15.6445 -7.05078 C 15.6543 -3.49609 12.8027 -0.654297 9.24805 -0.654297 Z M 9.22852 -3.42773 C 9.69727 -3.42773 9.9707 -3.74023 9.9707 -4.25781 L 9.9707 -6.31836 L 12.1973 -6.31836 C 12.6953 -6.31836 13.0371 -6.57227 13.0371 -7.04102 C 13.0371 -7.51953 12.7148 -7.7832 12.1973 -7.7832 L 9.9707 -7.7832 L 9.9707 -10.0098 C 9.9707 -10.5273 9.69727 -10.8496 9.22852 -10.8496 C 8.75977 -10.8496 8.50586 -10.5078 8.50586 -10.0098 L 8.50586 -7.7832 L 6.29883 -7.7832 C 5.78125 -7.7832 5.44922 -7.51953 5.44922 -7.04102 C 5.44922 -6.57227 5.80078 -6.31836 6.29883 -6.31836 L 8.50586 -6.31836 L 8.50586 -4.25781 C 8.50586 -3.75977 8.75977 -3.42773 9.22852 -3.42773 Z"/>
  </g>
  <g id="" transform="matrix(1 0 0 1 281.506 1933)">
   <path d="M 11.709 2.91016 C 17.1582 2.91016 21.6699 -1.60156 21.6699 -7.05078 C 21.6699 -12.4902 17.1484 -17.0117 11.6992 -17.0117 C 6.25977 -17.0117 1.74805 -12.4902 1.74805 -7.05078 C 1.74805 -1.60156 6.26953 2.91016 11.709 2.91016 Z M 11.709 1.25 C 7.09961 1.25 3.41797 -2.44141 3.41797 -7.05078 C 3.41797 -11.6504 7.08984 -15.3516 11.6992 -15.3516 C 16.3086 -15.3516 20 -11.6504 20.0098 -7.05078 C 20.0195 -2.44141 16.3184 1.25 11.709 1.25 Z M 11.6895 -2.41211 C 12.207 -2.41211 12.5195 -2.77344 12.5195 -3.33984 L 12.5195 -6.23047 L 15.5762 -6.23047 C 16.123 -6.23047 16.5039 -6.51367 16.5039 -7.03125 C 16.5039 -7.55859 16.1426 -7.86133 15.5762 -7.86133 L 12.5195 -7.86133 L 12.5195 -10.9277 C 12.5195 -11.5039 12.207 -11.8555 11.6895 -11.8555 C 11.1719 -11.8555 10.8789 -11.4844 10.8789 -10.9277 L 10.8789 -7.86133 L 7.83203 -7.86133 C 7.26562 -7.86133 6.89453 -7.55859 6.89453 -7.03125 C 6.89453 -6.51367 7.28516 -6.23047 7.83203 -6.23047 L 10.8789 -6.23047 L 10.8789 -3.33984 C 10.8789 -2.79297 11.1719 -2.41211 11.6895 -2.41211 Z"/>
  </g>
  <g id="" transform="matrix(1 0 0 1 304.924 1933)">
   <path d="M 14.9707 5.67383 C 21.9336 5.67383 27.6953 -0.078125 27.6953 -7.04102 C 27.6953 -14.0039 21.9238 -19.7559 14.9609 -19.7559 C 8.00781 -19.7559 2.25586 -14.0039 2.25586 -7.04102 C 2.25586 -0.078125 8.01758 5.67383 14.9707 5.67383 Z M 14.9707 3.85742 C 8.93555 3.85742 4.08203 -1.00586 4.08203 -7.04102 C 4.08203 -13.0762 8.92578 -17.9395 14.9609 -17.9395 C 21.0059 -17.9395 25.8594 -13.0762 25.8691 -7.04102 C 25.8789 -1.00586 21.0156 3.85742 14.9707 3.85742 Z M 14.9512 -1.06445 C 15.5176 -1.06445 15.8691 -1.45508 15.8691 -2.06055 L 15.8691 -6.13281 L 20.1074 -6.13281 C 20.6934 -6.13281 21.1133 -6.46484 21.1133 -7.02148 C 21.1133 -7.59766 20.7227 -7.93945 20.1074 -7.93945 L 15.8691 -7.93945 L 15.8691 -12.1875 C 15.8691 -12.8027 15.5176 -13.1934 14.9512 -13.1934 C 14.3848 -13.1934 14.0625 -12.7832 14.0625 -12.1875 L 14.0625 -7.93945 L 9.83398 -7.93945 C 9.21875 -7.93945 8.80859 -7.59766 8.80859 -7.02148 C 8.80859 -6.46484 9.23828 -6.13281 9.83398 -6.13281 L 14.0625 -6.13281 L 14.0625 -2.06055 C 14.0625 -1.47461 14.3848 -1.06445 14.9512 -1.06445 Z"/>
  </g>
  <text style="stroke:none;fill:black;font-family:-apple-system,&quot;SF Pro Display&quot;,&quot;SF Pro Text&quot;,Helvetica,sans-serif;font-weight:bold;" transform="matrix(1 0 0 1 263 1953)">Design Variations</text>
  <text style="stroke:none;fill:black;font-family:-apple-system,&quot;SF Pro Display&quot;,&quot;SF Pro Text&quot;,Helvetica,sans-serif;" transform="matrix(1 0 0 1 263 1971)">Symbols are supported in up to nine weights and three scales.</text>
  <text style="stroke:none;fill:black;font-family:-apple-system,&quot;SF Pro Display&quot;,&quot;SF Pro Text&quot;,Helvetica,sans-serif;" transform="matrix(1 0 0 1 263 1989)">For optimal layout with text and other symbols, vertically align</text>
  <text style="stroke:none;fill:black;font-family:-apple-system,&quot;SF Pro Display&quot;,&quot;SF Pro Text&quot;,Helvetica,sans-serif;" transform="matrix(1 0 0 1 263 2007)">symbols with the adjacent text.</text>
  <rect height="14" id="" style="fill:#00AEEF;stroke:none;opacity:0.4;" width="3" x="776" y="1919"/>
  <g id="" transform="matrix(1 0 0 1 779 1933)">
   <path d="M 10.5273 0 L 12.373 0 L 7.17773 -14.0918 L 5.43945 -14.0918 L 0.244141 0 L 2.08984 0 L 3.50586 -4.0332 L 9.11133 -4.0332 Z M 6.2793 -11.9531 L 6.33789 -11.9531 L 8.59375 -5.52734 L 4.02344 -5.52734 Z"/>
  </g>
  <rect height="14" id="" style="fill:#00AEEF;stroke:none;opacity:0.4;" width="3" x="791.617" y="1919"/>
  <text style="stroke:none;fill:black;font-family:-apple-system,&quot;SF Pro Display&quot;,&quot;SF Pro Text&quot;,Helvetica,sans-serif;font-weight:bold;" transform="matrix(1 0 0 1 776 1953)">Margins</text>
  <text style="stroke:none;fill:black;font-family:-apple-system,&quot;SF Pro Display&quot;,&quot;SF Pro Text&quot;,Helvetica,sans-serif;" transform="matrix(1 0 0 1 776 1971)">Leading and trailing margins on the left and right side of each symbol</text>
  <text style="stroke:none;fill:black;font-family:-apple-system,&quot;SF Pro Display&quot;,&quot;SF Pro Text&quot;,Helvetica,sans-serif;" transform="matrix(1 0 0 1 776 1989)">can be adjusted by modifying the width of the blue rectangles.</text>
  <text style="stroke:none;fill:black;font-family:-apple-system,&quot;SF Pro Display&quot;,&quot;SF Pro Text&quot;,Helvetica,sans-serif;" transform="matrix(1 0 0 1 776 2007)">Modifications are automatically applied proportionally to all</text>
  <text style="stroke:none;fill:black;font-family:-apple-system,&quot;SF Pro Display&quot;,&quot;SF Pro Text&quot;,Helvetica,sans-serif;" transform="matrix(1 0 0 1 776 2025)">scales and weights.</text>
  <g id="" transform="matrix(1 0 0 1 1289 1933)">
   <path d="M 2.83203 3.11523 L 4.375 4.6582 C 5.22461 5.48828 6.19141 5.41992 7.06055 4.46289 L 17.2754 -6.66016 C 17.7051 -6.36719 18.0957 -6.37695 18.5645 -6.47461 L 19.6094 -6.68945 L 20.3027 -5.99609 L 20.2539 -5.47852 C 20.1855 -4.95117 20.3516 -4.53125 20.8496 -4.0332 L 21.6602 -3.22266 C 22.168 -2.71484 22.8223 -2.68555 23.3008 -3.16406 L 26.5527 -6.41602 C 27.0312 -6.89453 27.0117 -7.54883 26.5039 -8.05664 L 25.6836 -8.87695 C 25.1855 -9.375 24.7754 -9.55078 24.2383 -9.47266 L 23.7109 -9.41406 L 23.0566 -10.0781 L 23.3398 -11.2207 C 23.4863 -11.7871 23.3398 -12.2559 22.7148 -12.8613 L 20.3027 -15.2539 C 16.7578 -18.7793 12.2266 -18.6719 9.11133 -15.5371 C 8.69141 -15.1074 8.64258 -14.5215 8.91602 -14.0918 C 9.15039 -13.7207 9.62891 -13.4961 10.2734 -13.6621 C 11.7871 -14.043 13.3008 -13.9258 14.7852 -12.9199 L 14.1602 -11.3379 C 13.9258 -10.752 13.9453 -10.2734 14.1797 -9.83398 L 3.01758 0.439453 C 2.08008 1.30859 1.97266 2.25586 2.83203 3.11523 Z M 10.6738 -15.1465 C 13.3398 -17.1387 16.6504 -16.8262 19.0527 -14.4141 L 21.6797 -11.8066 C 21.9141 -11.5723 21.9434 -11.3867 21.8848 -11.0938 L 21.5039 -9.53125 L 23.0762 -7.95898 L 24.043 -8.04688 C 24.3262 -8.07617 24.4141 -8.05664 24.6387 -7.83203 L 25.2637 -7.20703 L 22.5098 -4.46289 L 21.8848 -5.07812 C 21.6602 -5.30273 21.6406 -5.40039 21.6699 -5.68359 L 21.7578 -6.64062 L 20.1953 -8.20312 L 18.5742 -7.89062 C 18.291 -7.83203 18.1445 -7.83203 17.9102 -8.07617 L 15.7324 -10.2539 C 15.5078 -10.4883 15.4785 -10.625 15.6055 -10.9473 L 16.5527 -13.2227 C 14.9512 -14.7559 12.8418 -15.6055 10.8008 -14.9512 C 10.7129 -14.9219 10.6445 -14.9414 10.6152 -14.9805 C 10.5859 -15.0293 10.5859 -15.0781 10.6738 -15.1465 Z M 4.10156 2.41211 C 3.61328 1.91406 3.78906 1.61133 4.12109 1.30859 L 15.0781 -8.80859 L 16.3086 -7.57812 L 6.15234 3.34961 C 5.84961 3.68164 5.46875 3.7793 5.06836 3.37891 Z"/>
  </g>
  <text style="stroke:none;fill:black;font-family:-apple-system,&quot;SF Pro Display&quot;,&quot;SF Pro Text&quot;,Helvetica,sans-serif;font-weight:bold;" transform="matrix(1 0 0 1 1289 1953)">Exporting</text>
  <text style="stroke:none;fill:black;font-family:-apple-system,&quot;SF Pro Display&quot;,&quot;SF Pro Text&quot;,Helvetica,sans-serif;" transform="matrix(1 0 0 1 1289 1971)">Symbols should be outlined when exporting to ensure the</text>
  <text style="stroke:none;fill:black;font-family:-apple-system,&quot;SF Pro Display&quot;,&quot;SF Pro Text&quot;,Helvetica,sans-serif;" transform="matrix(1 0 0 1 1289 1989)">design is preserved when submitting to Xcode.</text>
  <text id="template-version" style="stroke:none;fill:black;font-family:-apple-system,&quot;SF Pro Display&quot;,&quot;SF Pro Text&quot;,Helvetica,sans-serif;text-anchor:end;" transform="matrix(1 0 0 1 3036 1933)">Template v.1.0</text>
  <text style="stroke:none;fill:black;font-family:-apple-system,&quot;SF Pro Display&quot;,&quot;SF Pro Text&quot;,Helvetica,sans-serif;text-anchor:end;" transform="matrix(1 0 0 1 3036 1951)">Generated from photo.fill.on.rectangle.fill</text>
  <text style="stroke:none;fill:black;font-family:-apple-system,&quot;SF Pro Display&quot;,&quot;SF Pro Text&quot;,Helvetica,sans-serif;text-anchor:end;" transform="matrix(1 0 0 1 3036 1969)">Typeset at 100 points</text>
  <text style="stroke:none;fill:black;font-family:-apple-system,&quot;SF Pro Display&quot;,&quot;SF Pro Text&quot;,Helvetica,sans-serif;" transform="matrix(1 0 0 1 263 726)">Small</text>
  <text style="stroke:none;fill:black;font-family:-apple-system,&quot;SF Pro Display&quot;,&quot;SF Pro Text&quot;,Helvetica,sans-serif;" transform="matrix(1 0 0 1 263 1156)">Medium</text>
  <text style="stroke:none;fill:black;font-family:-apple-system,&quot;SF Pro Display&quot;,&quot;SF Pro Text&quot;,Helvetica,sans-serif;" transform="matrix(1 0 0 1 263 1586)">Large</text>
 </g>
 <g id="Guides">
  <g id="H-reference" style="fill:#27AAE1;stroke:none;" transform="matrix(1 0 0 1 339 696)">
   <path d="M 54.9316 0 L 57.666 0 L 30.5664 -70.459 L 28.0762 -70.459 L 0.976562 0 L 3.66211 0 L 12.9395 -24.4629 L 45.7031 -24.4629 Z M 29.1992 -67.0898 L 29.4434 -67.0898 L 44.8242 -26.709 L 13.8184 -26.709 Z"/>
  </g>
  <line id="Baseline-S" style="fill:none;stroke:#27AAE1;opacity:1;stroke-width:0.577;" x1="263" x2="3036" y1="696" y2="696"/>
  <line id="Capline-S" style="fill:none;stroke:#27AAE1;opacity:1;stroke-width:0.577;" x1="263" x2="3036" y1="625.541" y2="625.541"/>
  <g id="H-reference" style="fill:#27AAE1;stroke:none;" transform="matrix(1 0 0 1 339 1126)">
   <path d="M 54.9316 0 L 57.666 0 L 30.5664 -70.459 L 28.0762 -70.459 L 0.976562 0 L 3.66211 0 L 12.9395 -24.4629 L 45.7031 -24.4629 Z M 29.1992 -67.0898 L 29.4434 -67.0898 L 44.8242 -26.709 L 13.8184 -26.709 Z"/>
  </g>
  <line id="Baseline-M" style="fill:none;stroke:#27AAE1;opacity:1;stroke-width:0.577;" x1="263" x2="3036" y1="1126" y2="1126"/>
  <line id="Capline-M" style="fill:none;stroke:#27AAE1;opacity:1;stroke-width:0.577;" x1="263" x2="3036" y1="1055.54" y2="1055.54"/>
  <g id="H-reference" style="fill:#27AAE1;stroke:none;" transform="matrix(1 0 0 1 339 1556)">
   <path d="M 54.9316 0 L 57.666 0 L 30.5664 -70.459 L 28.0762 -70.459 L 0.976562 0 L 3.66211 0 L 12.9395 -24.4629 L 45.7031 -24.4629 Z M 29.1992 -67.0898 L 29.4434 -67.0898 L 44.8242 -26.709 L 13.8184 -26.709 Z"/>
  </g>
  <line id="Baseline-L" style="fill:none;stroke:#27AAE1;opacity:1;stroke-width:0.577;" x1="263" x2="3036" y1="1556" y2="1556"/>
  <line id="Capline-L" style="fill:none;stroke:#27AAE1;opacity:1;stroke-width:0.577;" x1="263" x2="3036" y1="1485.54" y2="1485.54"/>
  <rect height="119.336" id="left-margin" style="fill:#00AEEF;stroke:none;opacity:0.4;" width="12.4512" x="1372.84" y="1030.79"/>
  <rect height="119.336" id="right-margin" style="fill:#00AEEF;stroke:none;opacity:0.4;" width="12.4512" x="1514.4" y="1030.79"/>
 </g>
 <g id="Symbols">
  <g id="Black-L" transform="matrix(1 0 0 1 2829.35 1556)">
   <path d="M 39.7461 -53.9551 C 39.7461 -75.4883 52.002 -87.6953 73.584 -87.6953 L 156.934 -87.6953 L 156.934 -87.9395 C 156.934 -101.172 148.291 -109.766 133.057 -109.766 L 39.9902 -109.766 C 24.707 -109.766 16.0645 -101.172 16.0645 -85.9375 L 16.0645 -18.4082 C 16.0645 -3.22266 24.707 5.37109 39.1602 5.37109 L 39.7461 5.37109 Z M 75.0488 39.1113 L 168.115 39.1113 C 183.35 39.1113 192.041 30.4688 192.041 15.2832 L 192.041 -52.4902 C 192.041 -67.6758 183.35 -76.3184 168.115 -76.3184 L 75.0488 -76.3184 C 59.8145 -76.3184 51.1719 -67.6758 51.1719 -52.4902 L 51.1719 15.2832 C 51.1719 30.4688 59.8145 39.1113 75.0488 39.1113 Z M 105.371 -17.2363 C 97.9004 -17.2363 91.3086 -23.877 91.3086 -31.3477 C 91.3086 -39.0625 97.9004 -45.6543 105.371 -45.6543 C 113.037 -45.6543 119.629 -39.0625 119.629 -31.3477 C 119.629 -23.877 113.037 -17.2363 105.371 -17.2363 Z M 78.2715 18.8477 C 74.7559 18.8477 71.9727 16.3574 71.9727 12.5 L 71.9727 7.86133 L 83.0566 -2.29492 C 86.2305 -5.22461 89.0137 -6.98242 92.1875 -6.98242 C 95.3613 -6.98242 98.1934 -5.12695 101.514 -2.24609 L 110.01 5.17578 L 131.592 -14.1602 C 135.4 -17.627 138.77 -19.7266 142.48 -19.7266 C 146.191 -19.7266 149.609 -17.627 153.32 -14.1602 L 171.24 2.58789 L 171.24 12.5 C 171.24 16.3574 168.555 18.8477 164.697 18.8477 Z"/>
  </g>
  <g id="Heavy-L" transform="matrix(1 0 0 1 2533.88 1556)">
   <path d="M 39.5996 -54.3457 C 39.5996 -74.7559 51.123 -86.1816 71.582 -86.1816 L 155.469 -86.1816 L 155.469 -86.9629 C 155.469 -100 147.314 -108.057 132.715 -108.057 L 38.8184 -108.057 C 24.1699 -108.057 16.0645 -100 16.0645 -85.4492 L 16.0645 -18.1152 C 16.0645 -3.56445 24.1699 4.54102 38.1836 4.54102 L 39.5996 4.54102 Z M 72.9004 37.2559 L 166.797 37.2559 C 181.445 37.2559 189.551 29.1504 189.551 14.5996 L 189.551 -53.0273 C 189.551 -67.5781 181.445 -75.6348 166.797 -75.6348 L 72.9004 -75.6348 C 58.3008 -75.6348 50.1465 -67.5781 50.1465 -53.0273 L 50.1465 14.5996 C 50.1465 29.1504 58.3008 37.2559 72.9004 37.2559 Z M 101.855 -18.3105 C 94.2871 -18.3105 87.6465 -24.9023 87.6465 -32.5195 C 87.6465 -40.332 94.2871 -46.9238 101.855 -46.9238 C 109.619 -46.9238 116.211 -40.332 116.211 -32.5195 C 116.211 -24.9023 109.619 -18.3105 101.855 -18.3105 Z M 75.3418 19.7266 C 71.0938 19.7266 68.1152 16.9922 68.1152 12.4512 L 68.1152 7.95898 L 79.6875 -2.58789 C 83.3008 -5.9082 86.1328 -7.95898 89.5508 -7.95898 C 92.9688 -7.95898 95.9473 -5.81055 99.707 -2.53906 L 107.812 4.58984 L 129.541 -14.8926 C 133.887 -18.7988 137.451 -21.2402 141.504 -21.2402 C 145.605 -21.2402 149.219 -18.8477 153.467 -14.8438 L 171.631 2.19727 L 171.631 12.4512 C 171.631 16.9922 168.75 19.7266 164.209 19.7266 Z"/>
  </g>
  <g id="Bold-L" transform="matrix(1 0 0 1 2238.54 1556)">
   <path d="M 39.4531 -54.7852 C 39.4531 -73.9746 50.0977 -84.5215 69.3848 -84.5215 L 153.809 -84.5215 L 153.809 -85.8398 C 153.809 -98.6816 146.24 -106.201 132.324 -106.201 L 37.5 -106.201 C 23.584 -106.201 16.0645 -98.6816 16.0645 -84.8633 L 16.0645 -17.7246 C 16.0645 -3.90625 23.584 3.56445 37.1094 3.56445 L 39.4531 3.56445 Z M 70.5078 35.1562 L 165.332 35.1562 C 179.248 35.1562 186.816 27.6855 186.816 13.8672 L 186.816 -53.6133 C 186.816 -67.4316 179.248 -74.9512 165.332 -74.9512 L 70.5078 -74.9512 C 56.5918 -74.9512 49.0723 -67.4805 49.0723 -53.6133 L 49.0723 13.8672 C 49.0723 27.6855 56.5918 35.1562 70.5078 35.1562 Z M 97.9492 -19.4824 C 90.1855 -19.4824 83.5938 -26.0742 83.5938 -33.8867 C 83.5938 -41.748 90.1855 -48.3887 97.9492 -48.3887 C 105.811 -48.3887 112.354 -41.748 112.354 -33.8867 C 112.354 -26.0742 105.811 -19.4824 97.9492 -19.4824 Z M 72.0703 20.752 C 66.9922 20.752 63.8184 17.6758 63.8184 12.4512 L 63.8184 8.05664 L 75.9277 -2.97852 C 79.9805 -6.68945 82.9102 -9.0332 86.5723 -9.0332 C 90.2832 -9.0332 93.4082 -6.54297 97.6074 -2.92969 L 105.322 3.95508 L 127.246 -15.625 C 132.227 -20.1172 135.986 -22.998 140.43 -22.998 C 144.922 -22.998 148.828 -20.166 153.662 -15.625 L 172.07 1.80664 L 172.07 12.4512 C 172.07 17.7246 168.896 20.752 163.672 20.752 Z"/>
  </g>
  <g id="Semibold-L" transform="matrix(1 0 0 1 1942.78 1556)">
   <path d="M 39.3555 -55.0781 C 39.3555 -73.4375 49.3652 -83.3984 67.8711 -83.3984 L 152.637 -83.3496 L 152.637 -85.1074 C 152.637 -97.7539 145.508 -104.883 132.08 -104.883 L 36.6211 -104.883 C 23.1445 -104.883 16.0645 -97.8027 16.0645 -84.4727 L 16.0645 -17.4805 C 16.0645 -4.15039 23.1445 2.92969 36.377 2.92969 L 39.3555 2.92969 Z M 68.8965 33.7402 L 164.307 33.7402 C 177.783 33.7402 184.912 26.6602 184.912 13.3789 L 184.912 -54.0527 C 184.912 -67.334 177.783 -74.4629 164.307 -74.4629 L 68.8965 -74.4629 C 55.4199 -74.4629 48.291 -67.3828 48.291 -54.0527 L 48.291 13.3301 C 48.291 26.709 55.4199 33.7402 68.8965 33.7402 Z M 95.2637 -20.3125 C 87.3535 -20.3125 80.7617 -26.9043 80.7617 -34.7656 C 80.7617 -42.7246 87.3535 -49.3652 95.2637 -49.3652 C 103.174 -49.3652 109.717 -42.7246 109.717 -34.7656 C 109.717 -26.9043 103.174 -20.3125 95.2637 -20.3125 Z M 69.8242 21.4355 C 64.1602 21.4355 60.8398 18.1641 60.8398 12.4023 L 60.8398 8.1543 L 73.3398 -3.22266 C 77.7344 -7.22656 80.6641 -9.81445 84.5215 -9.81445 C 88.4766 -9.81445 91.6504 -7.08008 96.1914 -3.17383 L 103.662 3.4668 L 125.684 -16.1621 C 131.055 -20.9961 135.01 -24.1699 139.697 -24.1699 C 144.434 -24.1699 148.535 -21.0938 153.76 -16.1621 L 172.363 1.51367 L 172.363 12.4512 C 172.363 18.2129 169.043 21.4355 163.33 21.4355 Z"/>
  </g>
  <g id="Medium-L" transform="matrix(1 0 0 1 1646.8 1556)">
   <path d="M 39.3066 -55.2734 C 39.3066 -73.0469 48.8281 -82.5195 66.6992 -82.5195 L 151.758 -82.4707 L 151.758 -84.5215 C 151.758 -97.0703 144.971 -103.857 131.885 -103.857 L 35.9375 -103.857 C 22.8516 -103.857 16.0645 -97.1191 16.0645 -84.1797 L 16.0645 -17.2852 C 16.0645 -4.3457 22.8516 2.39258 35.791 2.39258 L 39.3066 2.39258 Z M 67.627 32.666 L 163.574 32.666 C 176.611 32.666 183.447 25.9277 183.447 12.9883 L 183.447 -54.3457 C 183.447 -67.2852 176.611 -74.0723 163.574 -74.0723 L 67.627 -74.0723 C 54.541 -74.0723 47.7539 -67.334 47.7539 -54.3457 L 47.7539 12.9395 C 47.7539 25.9277 54.541 32.666 67.627 32.666 Z M 93.2129 -20.8984 C 85.2051 -20.8984 78.6133 -27.4902 78.6133 -35.498 C 78.6133 -43.457 85.2051 -50.0977 93.2129 -50.0977 C 101.172 -50.0977 107.764 -43.457 107.764 -35.498 C 107.764 -27.4902 101.172 -20.8984 93.2129 -20.8984 Z M 68.1152 21.9238 C 62.0605 21.9238 58.5938 18.5547 58.5938 12.4023 L 58.5938 8.20312 L 71.3867 -3.36914 C 76.0254 -7.61719 79.0039 -10.3516 83.0078 -10.3516 C 87.0605 -10.3516 90.332 -7.51953 95.1172 -3.36914 L 102.344 3.125 L 124.463 -16.6016 C 130.176 -21.6797 134.229 -25.0488 139.111 -25.0488 C 144.092 -25.0488 148.291 -21.7773 153.857 -16.5527 L 172.607 1.26953 L 172.607 12.4512 C 172.607 18.6035 169.141 21.9238 163.037 21.9238 Z"/>
  </g>
  <g id="Regular-L" transform="matrix(1 0 0 1 1351.04 1556)">
   <path d="M 39.209 -55.5664 C 39.209 -72.5098 48.1445 -81.3477 65.1855 -81.3477 L 150.635 -81.3477 L 150.635 -83.7891 C 150.635 -96.1914 144.238 -102.588 131.641 -102.588 L 35.0586 -102.588 C 22.4121 -102.588 16.0645 -96.2402 16.0645 -83.7891 L 16.0645 -17.041 C 16.0645 -4.54102 22.4121 1.75781 35.0586 1.75781 L 39.209 1.75781 Z M 66.0156 31.25 L 162.549 31.25 C 175.146 31.25 181.543 24.9023 181.543 12.5 L 181.543 -54.7363 C 181.543 -67.1875 175.146 -73.584 162.549 -73.584 L 66.0156 -73.584 C 53.3691 -73.584 46.9727 -67.2363 46.9727 -54.7363 L 46.9727 12.4512 C 46.9727 24.9512 53.3691 31.25 66.0156 31.25 Z M 90.5273 -21.7285 C 82.4219 -21.7285 75.8301 -28.2715 75.8301 -36.377 C 75.8301 -44.4336 82.4219 -51.0742 90.5273 -51.0742 C 98.5352 -51.0742 105.127 -44.4336 105.127 -36.377 C 105.127 -28.2715 98.5352 -21.7285 90.5273 -21.7285 Z M 65.8691 22.6074 C 59.2285 22.6074 55.6641 19.043 55.6641 12.4023 L 55.6641 8.30078 L 68.7988 -3.61328 C 73.7793 -8.1543 76.7578 -11.1328 80.957 -11.1328 C 85.2539 -11.1328 88.623 -8.00781 93.7012 -3.61328 L 100.684 2.68555 L 122.949 -17.0898 C 129.053 -22.6074 133.252 -26.2207 138.379 -26.2207 C 143.604 -26.2207 148.047 -22.7051 154.004 -17.0898 L 172.9 0.976562 L 172.9 12.4512 C 172.9 19.0918 169.238 22.6074 162.695 22.6074 Z"/>
  </g>
  <g id="Light-L" transform="matrix(1 0 0 1 1055.04 1556)">
   <path d="M 39.5508 -55.957 C 39.5508 -71.6797 47.8516 -79.8828 63.5742 -79.8828 L 149.951 -79.834 L 149.951 -83.4473 C 149.951 -95.1172 143.799 -101.27 131.934 -101.27 L 34.0332 -101.27 C 22.168 -101.27 16.0645 -95.2148 16.0645 -83.4473 L 16.0645 -16.1621 C 16.0645 -4.39453 22.168 1.70898 34.0332 1.70898 L 39.5508 1.70898 Z M 64.209 30.0781 L 162.158 30.0781 C 173.975 30.0781 180.127 23.9746 180.127 12.2559 L 180.127 -55.3711 C 180.127 -67.041 173.975 -73.1934 162.158 -73.1934 L 64.209 -73.1934 C 52.3438 -73.1934 46.2402 -67.1387 46.2402 -55.3711 L 46.2402 12.207 C 46.2402 24.0234 52.3438 30.0781 64.209 30.0781 Z M 89.2578 -21.9727 C 81.1035 -21.9727 74.4629 -28.5645 74.4629 -36.7188 C 74.4629 -44.7754 81.1035 -51.4648 89.2578 -51.4648 C 97.3145 -51.4648 103.906 -44.7754 103.906 -36.7188 C 103.906 -28.5645 97.3145 -21.9727 89.2578 -21.9727 Z M 64.8438 23.4863 C 56.9824 23.4863 52.8809 19.3848 52.8809 11.4746 L 52.8809 8.83789 L 68.9941 -5.71289 C 73.0957 -9.47266 75.8301 -11.8164 79.6875 -11.8164 C 83.5938 -11.8164 86.6699 -9.375 90.8691 -5.66406 L 99.2188 1.95312 L 123.682 -19.5312 C 128.76 -23.9746 132.422 -26.8555 137.109 -26.8555 C 141.895 -26.8555 145.85 -24.0723 150.732 -19.4824 L 173.486 2.39258 L 173.486 11.5234 C 173.486 19.4336 169.336 23.4863 161.523 23.4863 Z"/>
  </g>
  <g id="Thin-L" transform="matrix(1 0 0 1 759.279 1556)">
   <path d="M 40.0391 -56.543 C 40.0391 -70.5566 47.4609 -77.9297 61.4746 -77.9297 L 149.023 -77.832 L 149.023 -83.0078 C 149.023 -93.7012 143.262 -99.5605 132.373 -99.5605 L 32.666 -99.5605 C 21.7773 -99.5605 16.0645 -93.8477 16.0645 -83.0078 L 16.0645 -14.9902 C 16.0645 -4.15039 21.7773 1.61133 32.666 1.61133 L 40.0391 1.61133 Z M 61.8652 28.5156 L 161.621 28.5156 C 172.461 28.5156 178.223 22.7051 178.223 12.0117 L 178.223 -56.1523 C 178.223 -66.8457 172.461 -72.7051 161.621 -72.7051 L 61.8652 -72.7051 C 51.0254 -72.7051 45.2637 -66.9922 45.2637 -56.1523 L 45.2637 11.9141 C 45.2637 22.8027 51.0254 28.5156 61.8652 28.5156 Z M 87.5488 -22.3145 C 79.3457 -22.3145 72.6562 -28.9551 72.6562 -37.1582 C 72.6562 -45.2637 79.3457 -52.002 87.5488 -52.002 C 95.6543 -52.002 102.295 -45.2637 102.295 -37.1582 C 102.295 -28.9551 95.6543 -22.3145 87.5488 -22.3145 Z M 63.5254 24.6094 C 54.0039 24.6094 49.2188 19.873 49.2188 10.2539 L 49.2188 9.57031 L 69.2383 -8.49609 C 72.2656 -11.2305 74.5605 -12.7441 77.9785 -12.7441 C 81.4453 -12.7441 84.082 -11.1328 87.1094 -8.39844 L 97.2656 1.02539 L 124.707 -22.7051 C 128.369 -25.8301 131.348 -27.6367 135.4 -27.6367 C 139.648 -27.6367 143.018 -25.8789 146.436 -22.6074 L 174.268 4.19922 L 174.268 10.3027 C 174.268 19.9219 169.482 24.6094 159.961 24.6094 Z"/>
  </g>
  <g id="Ultralight-L" transform="matrix(1 0 0 1 463.056 1556)">
   <path d="M 40.332 -56.7871 C 40.332 -69.9707 47.2656 -76.9043 60.4004 -76.9043 L 148.535 -76.8555 L 148.535 -82.7637 C 148.535 -92.9688 143.018 -98.6816 132.617 -98.6816 L 31.9824 -98.6816 C 21.582 -98.6816 16.0645 -93.1641 16.0645 -82.7637 L 16.0645 -14.4043 C 16.0645 -4.00391 21.582 1.5625 31.9824 1.5625 L 40.332 1.5625 Z M 60.6934 27.7344 L 161.328 27.7344 C 171.729 27.7344 177.246 22.0703 177.246 11.8652 L 177.246 -56.543 C 177.246 -66.748 171.729 -72.4609 161.328 -72.4609 L 60.6934 -72.4609 C 50.293 -72.4609 44.7754 -66.8945 44.7754 -56.543 L 44.7754 11.7676 C 44.7754 22.168 50.293 27.7344 60.6934 27.7344 Z M 86.6699 -22.5098 C 78.418 -22.5098 71.7285 -29.1504 71.7285 -37.4023 C 71.7285 -45.5078 78.418 -52.2949 86.6699 -52.2949 C 94.7754 -52.2949 101.465 -45.5078 101.465 -37.4023 C 101.465 -29.1504 94.7754 -22.5098 86.6699 -22.5098 Z M 62.8418 25.1465 C 52.5879 25.1465 47.4609 20.2148 47.3145 9.96094 L 69.3848 -9.91211 C 71.8262 -12.1582 73.877 -13.2324 77.0996 -13.2324 C 80.3711 -13.2324 82.7148 -12.0605 85.1562 -9.81445 L 96.2402 0.537109 L 125.195 -24.3164 C 128.174 -26.8066 130.811 -28.0762 134.521 -28.0762 C 138.477 -28.0762 141.553 -26.8066 144.238 -24.2188 L 174.707 5.17578 L 174.707 9.7168 C 174.707 20.166 169.531 25.1465 159.131 25.1465 Z"/>
  </g>
  <g id="Black-M" transform="matrix(1 0 0 1 2851.47 1126)">
   <path d="M 31.2012 -49.4629 C 31.2012 -66.8945 41.4062 -77.0996 58.8379 -77.0996 L 123.291 -77.0996 L 123.291 -77.2461 C 123.291 -87.3047 116.016 -94.5801 103.76 -94.5801 L 31.9824 -94.5801 C 19.7266 -94.5801 12.4512 -87.3047 12.4512 -75.0488 L 12.4512 -22.168 C 12.4512 -9.91211 19.7266 -2.63672 31.1035 -2.63672 L 31.2012 -2.63672 Z M 60.1074 24.2188 L 131.885 24.2188 C 144.141 24.2188 151.416 16.9434 151.416 4.6875 L 151.416 -48.1934 C 151.416 -60.4492 144.141 -67.7246 131.885 -67.7246 L 60.1074 -67.7246 C 47.8516 -67.7246 40.5762 -60.4492 40.5762 -48.1934 L 40.5762 4.6875 C 40.5762 16.9434 47.8516 24.2188 60.1074 24.2188 Z M 85.6934 -20.0195 C 80.127 -20.0195 74.9512 -25.1953 74.9512 -30.7617 C 74.9512 -36.7188 80.127 -41.7969 85.6934 -41.7969 C 91.5527 -41.7969 96.6797 -36.7188 96.6797 -30.7617 C 96.6797 -25.1953 91.5527 -20.0195 85.6934 -20.0195 Z M 64.0625 5.95703 C 61.6699 5.95703 59.5215 4.05273 59.5215 1.26953 L 59.5215 -1.66016 L 68.9941 -10.4004 C 70.459 -11.7676 72.3633 -12.3535 74.3164 -12.3535 C 76.2695 -12.3535 78.125 -11.6699 79.6387 -10.3027 L 87.4023 -3.51562 L 105.127 -19.2871 C 106.787 -20.752 108.838 -21.4844 111.035 -21.4844 C 113.232 -21.4844 115.283 -20.752 116.895 -19.2871 L 132.471 -4.6875 L 132.471 1.26953 C 132.471 4.05273 130.469 5.95703 127.637 5.95703 Z"/>
  </g>
  <g id="Heavy-M" transform="matrix(1 0 0 1 2555.93 1126)">
   <path d="M 30.957 -49.7559 C 30.957 -66.3574 40.4785 -75.8789 57.0801 -75.8789 L 121.826 -75.8789 L 121.826 -76.2695 C 121.826 -86.3281 115.039 -93.0664 103.271 -93.0664 L 31.0059 -93.0664 C 19.1895 -93.0664 12.4512 -86.3281 12.4512 -74.6094 L 12.4512 -22.0703 C 12.4512 -10.3027 19.1895 -3.56445 30.3223 -3.56445 L 30.957 -3.56445 Z M 58.2031 22.5098 L 130.518 22.5098 C 142.285 22.5098 149.072 15.7715 149.072 4.00391 L 149.072 -48.6328 C 149.072 -60.3516 142.285 -67.1387 130.518 -67.1387 L 58.2031 -67.1387 C 46.4355 -67.1387 39.6973 -60.3516 39.6973 -48.6328 L 39.6973 4.00391 C 39.6973 15.7715 46.4355 22.5098 58.2031 22.5098 Z M 82.2266 -21.0938 C 76.4648 -21.0938 71.2891 -26.2695 71.2891 -31.9824 C 71.2891 -37.9883 76.4648 -43.1152 82.2266 -43.1152 C 88.1348 -43.1152 93.2617 -37.9883 93.2617 -31.9824 C 93.2617 -26.2695 88.1348 -21.0938 82.2266 -21.0938 Z M 61.1328 6.68945 C 58.252 6.68945 56.0059 4.6875 56.0059 1.51367 L 56.0059 -1.70898 L 65.2832 -10.2051 C 67.4316 -12.1582 69.4824 -13.2812 71.7773 -13.2812 C 74.0723 -13.2812 76.1719 -12.0605 78.3691 -10.1562 L 85.4004 -3.95508 L 102.686 -19.3848 C 105.225 -21.6309 107.617 -22.998 110.303 -22.998 C 112.988 -22.998 115.43 -21.6797 117.871 -19.3848 L 132.764 -5.46875 L 132.764 1.51367 C 132.764 4.6875 130.615 6.68945 127.441 6.68945 Z"/>
  </g>
  <g id="Bold-M" transform="matrix(1 0 0 1 2260.51 1126)">
   <path d="M 30.6641 -50.0977 C 30.6641 -65.7715 39.4531 -74.4629 55.127 -74.4629 L 120.215 -74.4629 L 120.215 -75.1465 C 120.215 -85.2051 114.014 -91.3574 102.783 -91.3574 L 29.8828 -91.3574 C 18.6523 -91.3574 12.4512 -85.2051 12.4512 -74.0723 L 12.4512 -21.9238 C 12.4512 -10.7422 18.6523 -4.58984 29.4434 -4.58984 L 30.6641 -4.58984 Z M 56.1523 20.6055 L 129.053 20.6055 C 140.234 20.6055 146.484 14.4531 146.484 3.27148 L 146.484 -49.1211 C 146.484 -60.2539 140.234 -66.4551 129.053 -66.4551 L 56.1523 -66.4551 C 44.873 -66.4551 38.7207 -60.2539 38.7207 -49.1211 L 38.7207 3.27148 C 38.7207 14.4531 44.873 20.6055 56.1523 20.6055 Z M 78.3203 -22.3145 C 72.3633 -22.3145 67.2363 -27.4414 67.2363 -33.3496 C 67.2363 -39.4043 72.3633 -44.5312 78.3203 -44.5312 C 84.3262 -44.5312 89.4043 -39.4043 89.4043 -33.3496 C 89.4043 -27.4414 84.3262 -22.3145 78.3203 -22.3145 Z M 57.8613 7.51953 C 54.4434 7.51953 52.0996 5.37109 52.0996 1.75781 L 52.0996 -1.75781 L 61.084 -9.96094 C 64.0137 -12.5977 66.2109 -14.2578 68.8965 -14.2578 C 71.6309 -14.2578 73.9746 -12.5488 76.9531 -9.91211 L 83.1543 -4.49219 L 100 -19.5312 C 103.467 -22.7051 106.299 -24.707 109.521 -24.707 C 112.744 -24.707 115.625 -22.7539 119.043 -19.5312 L 133.057 -6.29883 L 133.057 1.75781 C 133.057 5.37109 130.811 7.51953 127.197 7.51953 Z"/>
  </g>
  <g id="Semibold-M" transform="matrix(1 0 0 1 1964.7 1126)">
   <path d="M 30.4688 -50.3418 C 30.4688 -65.332 38.7207 -73.4863 53.8086 -73.4863 L 119.092 -73.4863 L 119.092 -74.3652 C 119.092 -84.4238 113.281 -90.1855 102.441 -90.1855 L 29.1016 -90.1855 C 18.2617 -90.1855 12.4512 -84.4727 12.4512 -73.6816 L 12.4512 -21.8262 C 12.4512 -11.0352 18.2617 -5.27344 28.8086 -5.27344 L 30.4688 -5.27344 Z M 54.6875 19.2871 L 128.027 19.2871 C 138.867 19.2871 144.678 13.5254 144.678 2.7832 L 144.678 -49.4629 C 144.678 -60.2051 138.867 -65.9668 128.027 -65.9668 L 54.6875 -65.9668 C 43.7988 -65.9668 38.0371 -60.2051 38.0371 -49.4629 L 38.0371 2.73438 C 38.0371 13.5254 43.7988 19.2871 54.6875 19.2871 Z M 75.5859 -23.1445 C 69.5801 -23.1445 64.4531 -28.2715 64.4531 -34.2773 C 64.4531 -40.4297 69.5801 -45.5566 75.5859 -45.5566 C 81.6895 -45.5566 86.7676 -40.4297 86.7676 -34.2773 C 86.7676 -28.2715 81.6895 -23.1445 75.5859 -23.1445 Z M 55.5664 8.10547 C 51.8066 8.10547 49.4141 5.81055 49.4141 1.9043 L 49.4141 -1.75781 L 58.252 -9.81445 C 61.6699 -12.9395 63.9648 -14.9414 66.9434 -14.9414 C 69.9219 -14.9414 72.4609 -12.8418 75.9766 -9.76562 L 81.5918 -4.83398 L 98.0957 -19.6289 C 102.295 -23.3887 105.371 -25.8789 108.936 -25.8789 C 112.598 -25.8789 115.723 -23.4375 119.824 -19.6289 L 133.301 -6.88477 L 133.301 1.9043 C 133.301 5.81055 130.908 8.10547 127.051 8.10547 Z"/>
  </g>
  <g id="Medium-M" transform="matrix(1 0 0 1 1668.67 1126)">
   <path d="M 30.3711 -50.5371 C 30.3711 -65.0391 38.1836 -72.7539 52.7832 -72.7539 L 118.262 -72.7539 L 118.262 -73.7793 C 118.262 -83.8379 112.695 -89.3066 102.148 -89.3066 L 28.5156 -89.3066 C 17.9199 -89.3066 12.4512 -83.8867 12.4512 -73.3887 L 12.4512 -21.7285 C 12.4512 -11.2793 17.9199 -5.81055 28.3691 -5.81055 L 30.3711 -5.81055 Z M 53.6133 18.2617 L 127.246 18.2617 C 137.793 18.2617 143.311 12.8418 143.311 2.39258 L 143.311 -49.707 C 143.311 -60.1562 137.793 -65.625 127.246 -65.625 L 53.6133 -65.625 C 43.0176 -65.625 37.5 -60.1562 37.5 -49.707 L 37.5 2.34375 C 37.5 12.8418 43.0176 18.2617 53.6133 18.2617 Z M 73.584 -23.7793 C 67.4316 -23.7793 62.3535 -28.8574 62.3535 -35.0098 C 62.3535 -41.1621 67.4316 -46.2891 73.584 -46.2891 C 79.6875 -46.2891 84.7656 -41.1621 84.7656 -35.0098 C 84.7656 -28.8574 79.6875 -23.7793 73.584 -23.7793 Z M 53.8574 8.54492 C 49.8047 8.54492 47.3633 6.15234 47.3633 2.05078 L 47.3633 -1.80664 L 56.0547 -9.7168 C 59.8633 -13.1836 62.2559 -15.4785 65.4297 -15.4785 C 68.6523 -15.4785 71.2891 -13.0859 75.2441 -9.66797 L 80.4199 -5.07812 L 96.6797 -19.7266 C 101.367 -23.9258 104.639 -26.7578 108.545 -26.7578 C 112.451 -26.7578 115.82 -24.0234 120.41 -19.7266 L 133.447 -7.37305 L 133.447 2.05078 C 133.447 6.20117 131.006 8.54492 126.904 8.54492 Z"/>
  </g>
  <g id="Regular-M" transform="matrix(1 0 0 1 1372.84 1126)">
   <path d="M 30.1758 -50.7812 C 30.1758 -64.5996 37.5 -71.8262 51.416 -71.8262 L 117.139 -71.8262 L 117.139 -73.0469 C 117.139 -83.1055 112.012 -88.1836 101.807 -88.1836 L 27.7832 -88.1836 C 17.5293 -88.1836 12.4512 -83.1055 12.4512 -73.0469 L 12.4512 -21.6309 C 12.4512 -11.5723 17.5293 -6.54297 27.7832 -6.54297 L 30.1758 -6.54297 Z M 52.1484 16.9922 L 126.221 16.9922 C 136.377 16.9922 141.553 11.9141 141.553 1.85547 L 141.553 -50.0488 C 141.553 -60.0586 136.377 -65.1367 126.221 -65.1367 L 52.1484 -65.1367 C 41.9434 -65.1367 36.8164 -60.1074 36.8164 -50.0488 L 36.8164 1.85547 C 36.8164 11.9141 41.9434 16.9922 52.1484 16.9922 Z M 70.8984 -24.6094 C 64.6484 -24.6094 59.5703 -29.6875 59.5703 -35.9375 C 59.5703 -42.1387 64.6484 -47.2656 70.8984 -47.2656 C 77.0996 -47.2656 82.1777 -42.1387 82.1777 -35.9375 C 82.1777 -29.6875 77.0996 -24.6094 70.8984 -24.6094 Z M 51.6113 9.13086 C 47.2168 9.13086 44.6777 6.64062 44.6777 2.19727 L 44.6777 -1.80664 L 53.2227 -9.57031 C 57.5195 -13.4766 60.0586 -16.1621 63.4766 -16.1621 C 66.9922 -16.1621 69.7754 -13.3789 74.2676 -9.52148 L 78.8574 -5.41992 L 94.8242 -19.8242 C 100.195 -24.6582 103.711 -27.9297 107.959 -27.9297 C 112.305 -27.9297 115.967 -24.7559 121.191 -19.8242 L 133.691 -7.95898 L 133.691 2.19727 C 133.691 6.64062 131.104 9.13086 126.758 9.13086 Z"/>
  </g>
  <g id="Light-M" transform="matrix(1 0 0 1 1076.79 1126)">
   <path d="M 30.5176 -51.123 C 30.5176 -63.8672 37.207 -70.5078 50 -70.5078 L 116.504 -70.459 L 116.504 -72.7539 C 116.504 -82.1289 111.621 -87.0117 102.1 -87.0117 L 26.8555 -87.0117 C 17.2852 -87.0117 12.4512 -82.1777 12.4512 -72.7539 L 12.4512 -20.8496 C 12.4512 -11.377 17.2852 -6.5918 26.8555 -6.5918 L 30.5176 -6.5918 Z M 50.5859 15.918 L 125.83 15.918 C 135.352 15.918 140.234 11.084 140.234 1.66016 L 140.234 -50.5371 C 140.234 -59.9609 135.352 -64.8438 125.83 -64.8438 L 50.5859 -64.8438 C 41.0156 -64.8438 36.1816 -60.0098 36.1816 -50.5371 L 36.1816 1.66016 C 36.1816 11.084 41.0156 15.918 50.5859 15.918 Z M 69.7266 -24.8535 C 63.4277 -24.8535 58.3496 -29.9316 58.3496 -36.2305 C 58.3496 -42.4805 63.4277 -47.6562 69.7266 -47.6562 C 75.9766 -47.6562 81.0547 -42.4805 81.0547 -36.2305 C 81.0547 -29.9316 75.9766 -24.8535 69.7266 -24.8535 Z M 50.7324 9.86328 C 45.166 9.86328 42.2363 6.93359 42.2363 1.36719 L 42.2363 -1.31836 L 53.3691 -11.4258 C 56.9336 -14.6973 59.1797 -16.748 62.3047 -16.748 C 65.5273 -16.748 68.0176 -14.5996 71.6797 -11.377 L 77.5391 -6.10352 L 95.5078 -21.9727 C 99.9023 -25.8789 102.979 -28.4668 106.836 -28.4668 C 110.742 -28.4668 114.014 -25.9766 118.262 -21.9238 L 134.18 -6.68945 L 134.18 1.41602 C 134.18 6.98242 131.201 9.86328 125.684 9.86328 Z"/>
  </g>
  <g id="Thin-M" transform="matrix(1 0 0 1 780.934 1126)">
   <path d="M 30.957 -51.6113 C 30.957 -62.8418 36.8652 -68.75 48.0957 -68.75 L 115.674 -68.7012 L 115.674 -72.3633 C 115.674 -80.8594 111.133 -85.4492 102.49 -85.4492 L 25.6348 -85.4492 C 16.9922 -85.4492 12.4512 -80.957 12.4512 -72.3633 L 12.4512 -19.8242 C 12.4512 -11.1816 16.9922 -6.68945 25.6348 -6.68945 L 30.957 -6.68945 Z M 48.4863 14.502 L 125.342 14.502 C 133.984 14.502 138.525 9.96094 138.525 1.41602 L 138.525 -51.2695 C 138.525 -59.7656 133.984 -64.4043 125.342 -64.4043 L 48.4863 -64.4043 C 39.7949 -64.4043 35.3027 -59.8633 35.3027 -51.2695 L 35.3027 1.36719 C 35.3027 10.0098 39.7949 14.502 48.4863 14.502 Z M 68.2129 -25.1465 C 61.8652 -25.1465 56.7383 -30.2734 56.7383 -36.6211 C 56.7383 -42.9199 61.8652 -48.1445 68.2129 -48.1445 C 74.4629 -48.1445 79.6387 -42.9199 79.6387 -36.6211 C 79.6387 -30.2734 74.4629 -25.1465 68.2129 -25.1465 Z M 49.5117 10.8887 C 42.4805 10.8887 38.916 7.37305 38.916 0.292969 L 38.916 -0.683594 L 53.6133 -13.916 C 56.2012 -16.2598 58.0566 -17.627 60.791 -17.627 C 63.5742 -17.627 65.7227 -16.1621 68.3105 -13.8672 L 75.7812 -6.93359 L 96.4355 -24.8047 C 99.5605 -27.5391 102.051 -29.1992 105.273 -29.1992 C 108.691 -29.1992 111.426 -27.5879 114.404 -24.7559 L 134.912 -5.07812 L 134.912 0.341797 C 134.912 7.42188 131.299 10.8887 124.316 10.8887 Z"/>
  </g>
  <g id="Ultralight-M" transform="matrix(1 0 0 1 484.662 1126)">
   <path d="M 31.1523 -51.8555 C 31.1523 -62.3535 36.6699 -67.8223 47.168 -67.8223 L 115.234 -67.7734 L 115.234 -72.1191 C 115.234 -80.2246 110.889 -84.668 102.734 -84.668 L 25 -84.668 C 16.7969 -84.668 12.4512 -80.3223 12.4512 -72.1191 L 12.4512 -19.2383 C 12.4512 -11.084 16.7969 -6.73828 25 -6.73828 L 31.1523 -6.73828 Z M 47.4121 13.7695 L 125.098 13.7695 C 133.301 13.7695 137.646 9.375 137.646 1.31836 L 137.646 -51.6113 C 137.646 -59.668 133.301 -64.1602 125.098 -64.1602 L 47.4121 -64.1602 C 39.209 -64.1602 34.8633 -59.8145 34.8633 -51.6113 L 34.8633 1.26953 C 34.8633 9.42383 39.209 13.7695 47.4121 13.7695 Z M 67.4316 -25.293 C 61.084 -25.293 55.9082 -30.4688 55.9082 -36.8164 C 55.9082 -43.1152 61.084 -48.3887 67.4316 -48.3887 C 73.7305 -48.3887 78.9062 -43.1152 78.9062 -36.8164 C 78.9062 -30.4688 73.7305 -25.293 67.4316 -25.293 Z M 48.9258 11.377 C 41.1133 11.377 37.2559 7.56836 37.2559 -0.292969 L 37.2559 -0.341797 L 53.7109 -15.1855 C 55.8105 -17.041 57.4707 -18.0176 60.0098 -18.0176 C 62.5977 -18.0176 64.502 -16.9922 66.6016 -15.0879 L 74.9023 -7.37305 L 96.875 -26.2695 C 99.3652 -28.418 101.514 -29.541 104.492 -29.541 C 107.666 -29.541 110.107 -28.418 112.451 -26.2207 L 135.254 -4.19922 L 135.254 -0.195312 C 135.254 7.61719 131.348 11.377 123.584 11.377 Z"/>
  </g>
  <g id="Black-S" transform="matrix(1 0 0 1 2869.29 696)">
   <path d="M 24.4141 -46.3867 C 24.4141 -60.0098 32.373 -67.9688 45.9961 -67.9688 L 96.4844 -67.9688 L 96.4844 -68.0664 C 96.4844 -75.9766 90.8203 -81.6406 81.25 -81.6406 L 25 -81.6406 C 15.4297 -81.6406 9.76562 -75.9766 9.76562 -66.4062 L 9.76562 -25 C 9.76562 -15.4297 15.4297 -9.76562 24.3164 -9.76562 L 24.4141 -9.76562 Z M 46.9727 11.2305 L 103.223 11.2305 C 112.793 11.2305 118.457 5.56641 118.457 -4.00391 L 118.457 -45.4102 C 118.457 -54.9805 112.793 -60.6445 103.223 -60.6445 L 46.9727 -60.6445 C 37.4023 -60.6445 31.7383 -54.9805 31.7383 -45.4102 L 31.7383 -4.00391 C 31.7383 5.56641 37.4023 11.2305 46.9727 11.2305 Z M 66.8945 -23.3887 C 62.5 -23.3887 58.4473 -27.4414 58.4473 -31.8359 C 58.4473 -36.4746 62.5 -40.4785 66.8945 -40.4785 C 71.4844 -40.4785 75.4883 -36.4746 75.4883 -31.8359 C 75.4883 -27.4414 71.4844 -23.3887 66.8945 -23.3887 Z M 50 -2.92969 C 48.0957 -2.92969 46.3867 -4.39453 46.3867 -6.5918 L 46.3867 -8.93555 L 53.7598 -15.7227 C 54.9805 -16.8457 56.4941 -17.3828 58.0566 -17.3828 C 59.6191 -17.3828 61.084 -16.7969 62.3535 -15.6738 L 68.3594 -10.4004 L 82.1777 -22.7051 C 83.5449 -23.9258 85.2051 -24.5605 86.9629 -24.5605 C 88.7207 -24.5605 90.3809 -23.9258 91.6992 -22.7051 L 103.809 -11.377 L 103.809 -6.5918 C 103.809 -4.39453 102.246 -2.92969 100 -2.92969 Z"/>
  </g>
  <g id="Heavy-S" transform="matrix(1 0 0 1 2573.41 696)">
   <path d="M 24.2188 -46.582 C 24.2188 -59.668 31.6895 -67.1387 44.8242 -67.1387 L 95.459 -67.1387 L 95.459 -67.334 C 95.459 -75.3418 90.1367 -80.6152 80.8594 -80.6152 L 24.3652 -80.6152 C 15.0391 -80.6152 9.76562 -75.3418 9.76562 -66.0645 L 9.76562 -25 C 9.76562 -15.7227 15.0391 -10.4492 23.8281 -10.4492 L 24.2188 -10.4492 Z M 45.7031 10.0586 L 102.246 10.0586 C 111.523 10.0586 116.797 4.73633 116.797 -4.49219 L 116.797 -45.7031 C 116.797 -54.9316 111.523 -60.2051 102.246 -60.2051 L 45.7031 -60.2051 C 36.4258 -60.2051 31.1523 -54.9316 31.1523 -45.7031 L 31.1523 -4.49219 C 31.1523 4.73633 36.4258 10.0586 45.7031 10.0586 Z M 64.3555 -24.1699 C 59.8633 -24.1699 55.8105 -28.2227 55.8105 -32.7148 C 55.8105 -37.4023 59.8633 -41.4062 64.3555 -41.4062 C 68.9941 -41.4062 72.998 -37.4023 72.998 -32.7148 C 72.998 -28.2227 68.9941 -24.1699 64.3555 -24.1699 Z M 47.8516 -2.44141 C 45.7031 -2.44141 43.9941 -3.95508 43.9941 -6.34766 L 43.9941 -9.0332 L 50.8789 -15.3809 C 52.7344 -17.041 54.3457 -18.0176 56.25 -18.0176 C 58.1055 -18.0176 59.7656 -16.9922 61.6699 -15.332 L 66.9434 -10.6934 L 80.2246 -22.5586 C 82.373 -24.5117 84.375 -25.6836 86.5234 -25.6836 C 88.7207 -25.6836 90.7227 -24.5117 92.8223 -22.5586 L 103.955 -12.1094 L 103.955 -6.34766 C 103.955 -3.95508 102.344 -2.44141 99.9512 -2.44141 Z"/>
  </g>
  <g id="Bold-S" transform="matrix(1 0 0 1 2277.6 696)">
   <path d="M 23.9746 -46.8262 C 23.9746 -59.3262 30.957 -66.2598 43.5059 -66.2598 L 94.2871 -66.2598 L 94.2871 -66.5527 C 94.2871 -74.5605 89.3555 -79.4434 80.4199 -79.4434 L 23.6328 -79.4434 C 14.6484 -79.4434 9.76562 -74.6094 9.76562 -65.7227 L 9.76562 -25 C 9.76562 -16.1133 14.6484 -11.2305 23.291 -11.2305 L 23.9746 -11.2305 Z M 44.2871 8.69141 L 101.123 8.69141 C 110.059 8.69141 114.99 3.85742 114.99 -5.0293 L 114.99 -45.9961 C 114.99 -54.8828 110.059 -59.7168 101.123 -59.7168 L 44.2871 -59.7168 C 35.3516 -59.7168 30.4688 -54.8828 30.4688 -45.9961 L 30.4688 -5.0293 C 30.4688 3.85742 35.3516 8.69141 44.2871 8.69141 Z M 61.5234 -25.0977 C 56.8848 -25.0977 52.8809 -29.1016 52.8809 -33.7402 C 52.8809 -38.4766 56.8848 -42.4805 61.5234 -42.4805 C 66.2109 -42.4805 70.2148 -38.4766 70.2148 -33.7402 C 70.2148 -29.1016 66.2109 -25.0977 61.5234 -25.0977 Z M 45.459 -1.9043 C 43.0176 -1.9043 41.3086 -3.51562 41.3086 -6.05469 L 41.3086 -9.13086 L 47.7051 -14.9414 C 50.1953 -17.2363 52.002 -18.7012 54.1992 -18.7012 C 56.3965 -18.7012 58.3008 -17.1387 60.8887 -14.9414 L 65.3809 -10.9863 L 78.0762 -22.4121 C 81.1035 -25.1465 83.3984 -26.9043 86.084 -26.9043 C 88.7207 -26.9043 91.0645 -25.1465 94.043 -22.4121 L 104.15 -12.9395 L 104.15 -6.05469 C 104.15 -3.4668 102.49 -1.9043 99.9023 -1.9043 Z"/>
  </g>
  <g id="Semibold-S" transform="matrix(1 0 0 1 1981.52 696)">
   <path d="M 23.7793 -46.9727 C 23.7793 -59.082 30.4199 -65.625 42.5781 -65.625 L 93.5059 -65.625 L 93.5059 -65.9668 C 93.5059 -74.0723 88.8672 -78.6621 80.127 -78.6621 L 23.0957 -78.6621 C 14.3555 -78.6621 9.76562 -74.0723 9.76562 -65.4297 L 9.76562 -25 C 9.76562 -16.3574 14.3555 -11.7676 22.9004 -11.7676 L 23.7793 -11.7676 Z M 43.3594 7.8125 L 100.391 7.8125 C 109.082 7.8125 113.721 3.22266 113.721 -5.41992 L 113.721 -46.1914 C 113.721 -54.834 109.082 -59.4238 100.391 -59.4238 L 43.3594 -59.4238 C 34.6191 -59.4238 29.9805 -54.834 29.9805 -46.1914 L 29.9805 -5.41992 C 29.9805 3.22266 34.6191 7.8125 43.3594 7.8125 Z M 59.5215 -25.7324 C 54.834 -25.7324 50.8301 -29.6875 50.8301 -34.4238 C 50.8301 -39.209 54.834 -43.2129 59.5215 -43.2129 C 64.3066 -43.2129 68.2617 -39.209 68.2617 -34.4238 C 68.2617 -29.6875 64.3066 -25.7324 59.5215 -25.7324 Z M 43.7988 -1.51367 C 41.2109 -1.51367 39.4531 -3.17383 39.4531 -5.85938 L 39.4531 -9.17969 L 45.5078 -14.6973 C 48.4375 -17.3828 50.3418 -19.1406 52.7832 -19.1406 C 55.2246 -19.1406 57.3242 -17.2852 60.3516 -14.6484 L 64.3066 -11.1816 L 76.6113 -22.3145 C 80.1758 -25.5371 82.7637 -27.7344 85.7422 -27.7344 C 88.7207 -27.7344 91.3574 -25.6348 94.873 -22.3145 L 104.248 -13.4766 L 104.248 -5.85938 C 104.248 -3.17383 102.539 -1.51367 99.9023 -1.51367 Z"/>
  </g>
  <g id="Medium-S" transform="matrix(1 0 0 1 1685.3 696)">
   <path d="M 23.6328 -47.0703 C 23.6328 -58.8867 30.0293 -65.1367 41.8945 -65.1367 L 92.8711 -65.1367 L 92.8711 -65.5273 C 92.8711 -73.6816 88.4277 -78.0273 79.9316 -78.0273 L 22.7051 -78.0273 C 14.1602 -78.0273 9.76562 -73.6816 9.76562 -65.2344 L 9.76562 -25 C 9.76562 -16.5527 14.1602 -12.1582 22.6074 -12.1582 L 23.6328 -12.1582 Z M 42.627 7.08008 L 99.8047 7.08008 C 108.35 7.08008 112.744 2.73438 112.744 -5.71289 L 112.744 -46.3379 C 112.744 -54.7852 108.35 -59.1797 99.8047 -59.1797 L 42.627 -59.1797 C 34.0332 -59.1797 29.6387 -54.7852 29.6387 -46.3379 L 29.6387 -5.71289 C 29.6387 2.73438 34.0332 7.08008 42.627 7.08008 Z M 58.0566 -26.1719 C 53.2715 -26.1719 49.2676 -30.1758 49.2676 -34.9609 C 49.2676 -39.7461 53.2715 -43.75 58.0566 -43.75 C 62.8418 -43.75 66.7969 -39.7461 66.7969 -34.9609 C 66.7969 -30.1758 62.8418 -26.1719 58.0566 -26.1719 Z M 42.5293 -1.2207 C 39.7949 -1.2207 38.0859 -2.92969 38.0859 -5.71289 L 38.0859 -9.22852 L 43.7988 -14.502 C 47.1191 -17.4805 49.1211 -19.4824 51.709 -19.4824 C 54.3457 -19.4824 56.543 -17.3828 59.9609 -14.4531 L 63.5254 -11.377 L 75.4395 -22.2168 C 79.4922 -25.8789 82.2754 -28.418 85.498 -28.418 C 88.7207 -28.418 91.5527 -25.9766 95.5566 -22.2168 L 104.346 -13.916 L 104.346 -5.71289 C 104.346 -2.92969 102.637 -1.2207 99.8535 -1.2207 Z"/>
  </g>
  <g id="Regular-S" transform="matrix(1 0 0 1 1389.2 696)">
   <path d="M 23.4863 -47.2168 C 23.4863 -58.6426 29.4922 -64.5508 40.9668 -64.5508 L 92.0898 -64.5508 L 92.0898 -64.9902 C 92.0898 -73.1934 87.9395 -77.2461 79.6387 -77.2461 L 22.2168 -77.2461 C 13.8672 -77.2461 9.76562 -73.1934 9.76562 -64.9902 L 9.76562 -24.9512 C 9.76562 -16.748 13.8672 -12.6953 22.2168 -12.6953 L 23.4863 -12.6953 Z M 41.6504 6.20117 L 99.0723 6.20117 C 107.373 6.20117 111.523 2.09961 111.523 -6.10352 L 111.523 -46.582 C 111.523 -54.7852 107.373 -58.8379 99.0723 -58.8379 L 41.6504 -58.8379 C 33.3008 -58.8379 29.1992 -54.7852 29.1992 -46.582 L 29.1992 -6.10352 C 29.1992 2.09961 33.3008 6.20117 41.6504 6.20117 Z M 56.1035 -26.8066 C 51.2207 -26.8066 47.2656 -30.7617 47.2656 -35.6445 C 47.2656 -40.4785 51.2207 -44.4824 56.1035 -44.4824 C 60.9375 -44.4824 64.9414 -40.4785 64.9414 -35.6445 C 64.9414 -30.7617 60.9375 -26.8066 56.1035 -26.8066 Z M 40.8691 -0.878906 C 37.9883 -0.878906 36.2305 -2.58789 36.2305 -5.51758 L 36.2305 -9.27734 L 41.6504 -14.209 C 45.3613 -17.627 47.4609 -19.9707 50.293 -19.9707 C 53.1738 -19.9707 55.5176 -17.5293 59.4238 -14.209 L 62.4512 -11.5723 L 73.9746 -22.1191 C 78.6133 -26.3184 81.6406 -29.248 85.1562 -29.248 C 88.7207 -29.248 91.7969 -26.416 96.3867 -22.1191 L 104.492 -14.4531 L 104.492 -5.51758 C 104.492 -2.58789 102.686 -0.878906 99.8535 -0.878906 Z"/>
  </g>
  <g id="Light-S" transform="matrix(1 0 0 1 1093.07 696)">
   <path d="M 23.7793 -47.5586 C 23.7793 -57.959 29.248 -63.3789 39.7461 -63.3789 L 91.5527 -63.3301 L 91.5527 -64.7461 C 91.5527 -72.3633 87.5977 -76.2207 79.8828 -76.2207 L 21.3867 -76.2207 C 13.6719 -76.2207 9.76562 -72.3633 9.76562 -64.7461 L 9.76562 -24.2676 C 9.76562 -16.6016 13.6719 -12.7441 21.3867 -12.7441 L 23.7793 -12.7441 Z M 40.2344 5.22461 L 98.7305 5.22461 C 106.445 5.22461 110.352 1.36719 110.352 -6.25 L 110.352 -47.0215 C 110.352 -54.6387 106.445 -58.5449 98.7305 -58.5449 L 40.2344 -58.5449 C 32.5195 -58.5449 28.6133 -54.6875 28.6133 -47.0215 L 28.6133 -6.25 C 28.6133 1.36719 32.5195 5.22461 40.2344 5.22461 Z M 55.0781 -27.002 C 50.1953 -27.002 46.1914 -31.0059 46.1914 -35.8887 C 46.1914 -40.7715 50.1953 -44.8242 55.0781 -44.8242 C 59.9609 -44.8242 63.9648 -40.7715 63.9648 -35.8887 C 63.9648 -31.0059 59.9609 -27.002 55.0781 -27.002 Z M 40.0879 -0.195312 C 36.1816 -0.195312 34.0332 -2.29492 34.0332 -6.25 L 34.0332 -8.83789 L 41.7969 -15.8691 C 44.873 -18.6523 46.7285 -20.5078 49.2676 -20.5078 C 51.9043 -20.5078 54.0039 -18.6035 57.1777 -15.8691 L 61.2793 -12.1582 L 74.5605 -24.0234 C 78.3691 -27.4414 80.957 -29.7363 84.1309 -29.7363 C 87.3535 -29.7363 90.0879 -27.4902 93.7988 -24.0234 L 104.932 -13.3789 L 104.932 -6.20117 C 104.932 -2.29492 102.783 -0.195312 98.877 -0.195312 Z"/>
  </g>
  <g id="Thin-S" transform="matrix(1 0 0 1 797.096 696)">
   <path d="M 24.1699 -47.9492 C 24.1699 -57.0801 28.9551 -61.8164 38.0859 -61.8164 L 90.8203 -61.7676 L 90.8203 -64.4043 C 90.8203 -71.2402 87.207 -74.9023 80.2246 -74.9023 L 20.3125 -74.9023 C 13.3789 -74.9023 9.76562 -71.2891 9.76562 -64.4043 L 9.76562 -23.3398 C 9.76562 -16.4551 13.3789 -12.8418 20.3125 -12.8418 L 24.1699 -12.8418 Z M 38.3789 4.00391 L 98.3398 4.00391 C 105.273 4.00391 108.887 0.390625 108.887 -6.44531 L 108.887 -47.6562 C 108.887 -54.4922 105.273 -58.1543 98.3398 -58.1543 L 38.3789 -58.1543 C 31.4453 -58.1543 27.832 -54.5898 27.832 -47.6562 L 27.832 -6.49414 C 27.832 0.439453 31.4453 4.00391 38.3789 4.00391 Z M 53.7598 -27.2461 C 48.7793 -27.2461 44.7754 -31.2988 44.7754 -36.2305 C 44.7754 -41.1621 48.7793 -45.2148 53.7598 -45.2148 C 58.6426 -45.2148 62.6953 -41.1621 62.6953 -36.2305 C 62.6953 -31.2988 58.6426 -27.2461 53.7598 -27.2461 Z M 39.0625 0.683594 C 33.8379 0.683594 31.1523 -1.95312 31.1523 -7.17773 L 31.1523 -8.30078 L 41.9434 -18.0664 C 44.1895 -20.0684 45.7031 -21.2402 47.9492 -21.2402 C 50.1953 -21.2402 51.9531 -20.0195 54.1992 -18.0176 L 59.7168 -12.8906 L 75.3906 -26.5137 C 78.0762 -28.9062 80.127 -30.3711 82.8125 -30.3711 C 85.5469 -30.3711 87.793 -28.9062 90.3809 -26.5137 L 105.566 -11.9141 L 105.566 -7.17773 C 105.566 -1.9043 102.881 0.683594 97.6562 0.683594 Z"/>
  </g>
  <g id="Ultralight-S" transform="matrix(1 0 0 1 500.776 696)">
   <path d="M 24.3652 -48.1934 C 24.3652 -56.5918 28.8086 -61.0352 37.207 -61.0352 L 90.4297 -60.9863 L 90.4297 -64.209 C 90.4297 -70.6543 86.9629 -74.1699 80.4199 -74.1699 L 19.7754 -74.1699 C 13.2324 -74.1699 9.76562 -70.752 9.76562 -64.209 L 9.76562 -22.8516 C 9.76562 -16.3086 13.2324 -12.8906 19.7754 -12.8906 L 24.3652 -12.8906 Z M 37.4023 3.36914 L 98.0957 3.36914 C 104.639 3.36914 108.105 -0.146484 108.105 -6.54297 L 108.105 -47.998 C 108.105 -54.3945 104.639 -57.959 98.0957 -57.959 L 37.4023 -57.959 C 30.9082 -57.959 27.4414 -54.4922 27.4414 -47.998 L 27.4414 -6.5918 C 27.4414 -0.0976562 30.9082 3.36914 37.4023 3.36914 Z M 53.0273 -27.3926 C 48.0469 -27.3926 43.9941 -31.4453 43.9941 -36.4258 C 43.9941 -41.3574 48.0469 -45.459 53.0273 -45.459 C 57.959 -45.459 62.0117 -41.3574 62.0117 -36.4258 C 62.0117 -31.4453 57.959 -27.3926 53.0273 -27.3926 Z M 38.5254 1.17188 C 32.6172 1.17188 29.6387 -1.75781 29.6387 -7.71484 L 29.6387 -7.95898 L 42.0898 -19.1895 C 43.8477 -20.8008 45.166 -21.6309 47.2168 -21.6309 C 49.3164 -21.6309 50.8789 -20.752 52.6367 -19.1406 L 58.9355 -13.2812 L 75.7812 -27.832 C 77.9297 -29.6387 79.6875 -30.6641 82.0801 -30.6641 C 84.6191 -30.6641 86.6211 -29.6875 88.623 -27.7832 L 105.908 -11.1816 L 105.908 -7.66602 C 105.908 -1.70898 102.93 1.17188 97.0215 1.17188 Z"/>
  </g>
 </g>
</svg>
