<?xml version="1.0" encoding="UTF-8"?>
<!--Generator: Apple Native CoreSVG 149-->
<!DOCTYPE svg
PUBLIC "-//W3C//DTD SVG 1.1//EN"
       "http://www.w3.org/Graphics/SVG/1.1/DTD/svg11.dtd">
<svg version="1.1" xmlns="http://www.w3.org/2000/svg" xmlns:xlink="http://www.w3.org/1999/xlink" width="3300" height="2200">
 <!--glyph: "uni100D54.medium", point size: 100.000000, font version: "Version 16.0d18e1", template writer version: "8"-->
 <g id="Notes">
  <rect height="2200" id="artboard" style="fill:white;opacity:1" width="3300" x="0" y="0"/>
  <line id="" style="fill:none;stroke:black;opacity:1;stroke-width:0.5;" x1="263" x2="3036" y1="292" y2="292"/>
  <text style="stroke:none;fill:black;font-family:-apple-system,&quot;SF Pro Display&quot;,&quot;SF Pro Text&quot;,Helvetica,sans-serif;font-weight:bold;" transform="matrix(1 0 0 1 263 322)">Weight/Scale Variations</text>
  <text style="stroke:none;fill:black;font-family:-apple-system,&quot;SF Pro Display&quot;,&quot;SF Pro Text&quot;,Helvetica,sans-serif;text-anchor:middle;" transform="matrix(1 0 0 1 559.711 322)">Ultralight</text>
  <text style="stroke:none;fill:black;font-family:-apple-system,&quot;SF Pro Display&quot;,&quot;SF Pro Text&quot;,Helvetica,sans-serif;text-anchor:middle;" transform="matrix(1 0 0 1 856.422 322)">Thin</text>
  <text style="stroke:none;fill:black;font-family:-apple-system,&quot;SF Pro Display&quot;,&quot;SF Pro Text&quot;,Helvetica,sans-serif;text-anchor:middle;" transform="matrix(1 0 0 1 1153.13 322)">Light</text>
  <text style="stroke:none;fill:black;font-family:-apple-system,&quot;SF Pro Display&quot;,&quot;SF Pro Text&quot;,Helvetica,sans-serif;text-anchor:middle;" transform="matrix(1 0 0 1 1449.84 322)">Regular</text>
  <text style="stroke:none;fill:black;font-family:-apple-system,&quot;SF Pro Display&quot;,&quot;SF Pro Text&quot;,Helvetica,sans-serif;text-anchor:middle;" transform="matrix(1 0 0 1 1746.56 322)">Medium</text>
  <text style="stroke:none;fill:black;font-family:-apple-system,&quot;SF Pro Display&quot;,&quot;SF Pro Text&quot;,Helvetica,sans-serif;text-anchor:middle;" transform="matrix(1 0 0 1 2043.27 322)">Semibold</text>
  <text style="stroke:none;fill:black;font-family:-apple-system,&quot;SF Pro Display&quot;,&quot;SF Pro Text&quot;,Helvetica,sans-serif;text-anchor:middle;" transform="matrix(1 0 0 1 2339.98 322)">Bold</text>
  <text style="stroke:none;fill:black;font-family:-apple-system,&quot;SF Pro Display&quot;,&quot;SF Pro Text&quot;,Helvetica,sans-serif;text-anchor:middle;" transform="matrix(1 0 0 1 2636.69 322)">Heavy</text>
  <text style="stroke:none;fill:black;font-family:-apple-system,&quot;SF Pro Display&quot;,&quot;SF Pro Text&quot;,Helvetica,sans-serif;text-anchor:middle;" transform="matrix(1 0 0 1 2933.4 322)">Black</text>
  <line id="" style="fill:none;stroke:black;opacity:1;stroke-width:0.5;" x1="263" x2="3036" y1="1903" y2="1903"/>
  <g id="" transform="matrix(1 0 0 1 263 1933)">
   <path d="M9.24805 0.830078C13.5547 0.830078 17.1387-2.74414 17.1387-7.05078C17.1387-11.3574 13.5449-14.9316 9.23828-14.9316C4.94141-14.9316 1.36719-11.3574 1.36719-7.05078C1.36719-2.74414 4.95117 0.830078 9.24805 0.830078ZM9.24805-0.654297C5.70312-0.654297 2.87109-3.49609 2.87109-7.05078C2.87109-10.6055 5.69336-13.4473 9.23828-13.4473C12.793-13.4473 15.6348-10.6055 15.6445-7.05078C15.6543-3.49609 12.8027-0.654297 9.24805-0.654297ZM6.39648-6.31836L8.50586-6.31836L8.50586-4.19922C8.50586-3.75977 8.79883-3.45703 9.22852-3.45703C9.67773-3.45703 9.9707-3.75977 9.9707-4.19922L9.9707-6.31836L12.0996-6.31836C12.5391-6.31836 12.8418-6.61133 12.8418-7.04102C12.8418-7.48047 12.5391-7.7832 12.0996-7.7832L9.9707-7.7832L9.9707-9.89258C9.9707-10.3418 9.67773-10.6445 9.22852-10.6445C8.79883-10.6445 8.50586-10.3418 8.50586-9.89258L8.50586-7.7832L6.39648-7.7832C5.94727-7.7832 5.64453-7.48047 5.64453-7.04102C5.64453-6.61133 5.94727-6.31836 6.39648-6.31836Z"/>
  </g>
  <g id="" transform="matrix(1 0 0 1 281.506 1933)">
   <path d="M11.709 2.91016C17.1582 2.91016 21.6699-1.61133 21.6699-7.05078C21.6699-12.5 17.1484-17.0117 11.6992-17.0117C6.25977-17.0117 1.74805-12.5 1.74805-7.05078C1.74805-1.61133 6.26953 2.91016 11.709 2.91016ZM11.709 1.25C7.09961 1.25 3.41797-2.44141 3.41797-7.05078C3.41797-11.6602 7.08984-15.3516 11.6992-15.3516C16.3086-15.3516 20-11.6602 20.0098-7.05078C20.0195-2.44141 16.3184 1.25 11.709 1.25ZM7.98828-6.23047L10.8789-6.23047L10.8789-3.32031C10.8789-2.83203 11.2109-2.5 11.6895-2.5C12.1777-2.5 12.5195-2.83203 12.5195-3.32031L12.5195-6.23047L15.4297-6.23047C15.918-6.23047 16.25-6.5625 16.25-7.04102C16.25-7.5293 15.918-7.87109 15.4297-7.87109L12.5195-7.87109L12.5195-10.7617C12.5195-11.2695 12.1777-11.6016 11.6895-11.6016C11.2109-11.6016 10.8789-11.2598 10.8789-10.7617L10.8789-7.87109L7.98828-7.87109C7.48047-7.87109 7.14844-7.5293 7.14844-7.04102C7.14844-6.5625 7.49023-6.23047 7.98828-6.23047Z"/>
  </g>
  <g id="" transform="matrix(1 0 0 1 304.924 1933)">
   <path d="M14.9707 5.66406C21.9336 5.66406 27.6953-0.0976562 27.6953-7.05078C27.6953-14.0137 21.9238-19.7754 14.9609-19.7754C8.00781-19.7754 2.25586-14.0137 2.25586-7.05078C2.25586-0.0976562 8.01758 5.66406 14.9707 5.66406ZM14.9707 3.84766C8.93555 3.84766 4.08203-1.01562 4.08203-7.05078C4.08203-13.0957 8.92578-17.9492 14.9609-17.9492C21.0059-17.9492 25.8594-13.0957 25.8691-7.05078C25.8789-1.01562 21.0156 3.84766 14.9707 3.84766ZM10.0586-6.14258L14.0625-6.14258L14.0625-2.12891C14.0625-1.5918 14.4336-1.2207 14.9512-1.2207C15.4883-1.2207 15.8594-1.5918 15.8594-2.12891L15.8594-6.14258L19.8828-6.14258C20.4102-6.14258 20.791-6.51367 20.791-7.03125C20.791-7.56836 20.4199-7.94922 19.8828-7.94922L15.8594-7.94922L15.8594-11.9531C15.8594-12.5098 15.4883-12.8809 14.9512-12.8809C14.4336-12.8809 14.0625-12.5 14.0625-11.9531L14.0625-7.94922L10.0586-7.94922C9.50195-7.94922 9.13086-7.56836 9.13086-7.03125C9.13086-6.51367 9.51172-6.14258 10.0586-6.14258Z"/>
  </g>
  <text style="stroke:none;fill:black;font-family:-apple-system,&quot;SF Pro Display&quot;,&quot;SF Pro Text&quot;,Helvetica,sans-serif;font-weight:bold;" transform="matrix(1 0 0 1 263 1953)">Design Variations</text>
  <text style="stroke:none;fill:black;font-family:-apple-system,&quot;SF Pro Display&quot;,&quot;SF Pro Text&quot;,Helvetica,sans-serif;" transform="matrix(1 0 0 1 263 1971)">Symbols are supported in up to nine weights and three scales.</text>
  <text style="stroke:none;fill:black;font-family:-apple-system,&quot;SF Pro Display&quot;,&quot;SF Pro Text&quot;,Helvetica,sans-serif;" transform="matrix(1 0 0 1 263 1989)">For optimal layout with text and other symbols, vertically align</text>
  <text style="stroke:none;fill:black;font-family:-apple-system,&quot;SF Pro Display&quot;,&quot;SF Pro Text&quot;,Helvetica,sans-serif;" transform="matrix(1 0 0 1 263 2007)">symbols with the adjacent text.</text>
  <line id="" style="fill:none;stroke:#00AEEF;stroke-width:0.5;opacity:1.0;" x1="776" x2="776" y1="1919" y2="1933"/>
  <g id="" transform="matrix(1 0 0 1 776 1933)">
   <path d="M3.31055 0.126953C3.82812 0.126953 4.08203-0.0683594 4.26758-0.605469L5.52734-4.0625L11.2891-4.0625L12.5488-0.605469C12.7344-0.0683594 12.9883 0.126953 13.4961 0.126953C14.0137 0.126953 14.3457-0.185547 14.3457-0.673828C14.3457-0.839844 14.3164-0.986328 14.2383-1.20117L9.6582-13.3887C9.43359-13.9941 9.0332-14.2871 8.4082-14.2871C7.80273-14.2871 7.39258-13.9941 7.17773-13.3984L2.59766-1.19141C2.51953-0.976562 2.49023-0.830078 2.49023-0.664062C2.49023-0.175781 2.80273 0.126953 3.31055 0.126953ZM6.00586-5.53711L8.37891-12.1094L8.42773-12.1094L10.8008-5.53711Z"/>
  </g>
  <line id="" style="fill:none;stroke:#00AEEF;stroke-width:0.5;opacity:1.0;" x1="792.836" x2="792.836" y1="1919" y2="1933"/>
  <text style="stroke:none;fill:black;font-family:-apple-system,&quot;SF Pro Display&quot;,&quot;SF Pro Text&quot;,Helvetica,sans-serif;font-weight:bold;" transform="matrix(1 0 0 1 776 1953)">Margins</text>
  <text style="stroke:none;fill:black;font-family:-apple-system,&quot;SF Pro Display&quot;,&quot;SF Pro Text&quot;,Helvetica,sans-serif;" transform="matrix(1 0 0 1 776 1971)">Leading and trailing margins on the left and right side of each symbol</text>
  <text style="stroke:none;fill:black;font-family:-apple-system,&quot;SF Pro Display&quot;,&quot;SF Pro Text&quot;,Helvetica,sans-serif;" transform="matrix(1 0 0 1 776 1989)">can be adjusted by modifying the x-location of the margin guidelines.</text>
  <text style="stroke:none;fill:black;font-family:-apple-system,&quot;SF Pro Display&quot;,&quot;SF Pro Text&quot;,Helvetica,sans-serif;" transform="matrix(1 0 0 1 776 2007)">Modifications are automatically applied proportionally to all</text>
  <text style="stroke:none;fill:black;font-family:-apple-system,&quot;SF Pro Display&quot;,&quot;SF Pro Text&quot;,Helvetica,sans-serif;" transform="matrix(1 0 0 1 776 2025)">scales and weights.</text>
  <g id="" transform="matrix(1 0 0 1 1289 1933)">
   <path d="M2.8418 1.86523L4.54102 3.57422C5.40039 4.44336 6.38672 4.38477 7.31445 3.35938L17.4902-7.85156C17.7539-7.76367 18.0273-7.7832 18.3398-7.8418L19.4043-8.03711L20.0684-7.36328L20.0293-6.80664C19.9902-6.30859 20.1172-5.92773 20.6055-5.44922L21.3672-4.70703C21.8457-4.22852 22.4609-4.19922 22.9297-4.66797L25.8398-7.58789C26.3086-8.05664 26.2891-8.65234 25.8105-9.13086L25.0391-9.89258C24.5605-10.3711 24.1895-10.5273 23.7109-10.4883L23.1348-10.4395L22.4902-11.0742L22.7344-12.1973C22.8613-12.7637 22.7051-13.2031 22.1191-13.7891L19.9219-15.9766C16.582-19.2969 12.1484-19.2188 9.25781-16.3281C8.83789-15.918 8.80859-15.3418 9.04297-14.9512C9.27734-14.5898 9.73633-14.3555 10.3809-14.5215C11.8457-14.8633 13.3691-14.9219 14.7949-13.9844L14.209-12.5293C14.0137-12.0508 13.9844-11.6504 14.1113-11.2891L3.04688-0.898438C2.06055 0.0195312 1.98242 0.996094 2.8418 1.86523ZM10.752-15.957C13.1836-17.7344 16.4746-17.4316 18.7012-15.2051L21.1328-12.793C21.3672-12.5586 21.4062-12.373 21.3379-12.0312L21.0156-10.5469L22.5195-9.0625L23.5059-9.12109C23.7598-9.13086 23.8379-9.11133 24.0332-8.91602L24.6094-8.33984L22.168-5.89844L21.5918-6.47461C21.3965-6.66992 21.3672-6.74805 21.377-7.01172L21.4453-7.98828L19.9512-9.47266L18.4277-9.21875C18.1055-9.15039 17.959-9.17969 17.7148-9.41406L15.7129-11.416C15.459-11.6504 15.4297-11.8164 15.5859-12.1875L16.4648-14.2773C14.9023-15.7324 12.8711-16.3574 10.8398-15.7617C10.6836-15.7227 10.625-15.8496 10.752-15.957ZM5.27344 2.30469L4.10156 1.14258C3.63281 0.683594 3.74023 0.341797 4.14062-0.0195312L14.9512-10.1953L16.416-8.71094L6.42578 2.27539C6.07422 2.67578 5.74219 2.77344 5.27344 2.30469Z"/>
  </g>
  <text style="stroke:none;fill:black;font-family:-apple-system,&quot;SF Pro Display&quot;,&quot;SF Pro Text&quot;,Helvetica,sans-serif;font-weight:bold;" transform="matrix(1 0 0 1 1289 1953)">Exporting</text>
  <text style="stroke:none;fill:black;font-family:-apple-system,&quot;SF Pro Display&quot;,&quot;SF Pro Text&quot;,Helvetica,sans-serif;" transform="matrix(1 0 0 1 1289 1971)">Symbols should be outlined when exporting to ensure the</text>
  <text style="stroke:none;fill:black;font-family:-apple-system,&quot;SF Pro Display&quot;,&quot;SF Pro Text&quot;,Helvetica,sans-serif;" transform="matrix(1 0 0 1 1289 1989)">design is preserved when submitting to Xcode.</text>
  <text id="template-version" style="stroke:none;fill:black;font-family:-apple-system,&quot;SF Pro Display&quot;,&quot;SF Pro Text&quot;,Helvetica,sans-serif;text-anchor:end;" transform="matrix(1 0 0 1 3036 1933)">Template v.2.0</text>
  <text style="stroke:none;fill:black;font-family:-apple-system,&quot;SF Pro Display&quot;,&quot;SF Pro Text&quot;,Helvetica,sans-serif;text-anchor:end;" transform="matrix(1 0 0 1 3036 1951)">Requires Xcode 12 or greater</text>
  <text style="stroke:none;fill:black;font-family:-apple-system,&quot;SF Pro Display&quot;,&quot;SF Pro Text&quot;,Helvetica,sans-serif;text-anchor:end;" transform="matrix(1 0 0 1 3036 1969)">Generated from shield.checkerboard</text>
  <text style="stroke:none;fill:black;font-family:-apple-system,&quot;SF Pro Display&quot;,&quot;SF Pro Text&quot;,Helvetica,sans-serif;text-anchor:end;" transform="matrix(1 0 0 1 3036 1987)">Typeset at 100 points</text>
  <text style="stroke:none;fill:black;font-family:-apple-system,&quot;SF Pro Display&quot;,&quot;SF Pro Text&quot;,Helvetica,sans-serif;" transform="matrix(1 0 0 1 263 726)">Small</text>
  <text style="stroke:none;fill:black;font-family:-apple-system,&quot;SF Pro Display&quot;,&quot;SF Pro Text&quot;,Helvetica,sans-serif;" transform="matrix(1 0 0 1 263 1156)">Medium</text>
  <text style="stroke:none;fill:black;font-family:-apple-system,&quot;SF Pro Display&quot;,&quot;SF Pro Text&quot;,Helvetica,sans-serif;" transform="matrix(1 0 0 1 263 1586)">Large</text>
 </g>
 <g id="Guides">
  <g id="H-reference" style="fill:#27AAE1;stroke:none;" transform="matrix(1 0 0 1 339 696)">
   <path d="M0.976562 0L3.66211 0L12.9883-24.4629L45.752-24.4629L55.127 0L57.7637 0L30.6152-70.459L28.125-70.459ZM29.3457-67.1387L29.4434-67.1387L44.873-26.709L13.8672-26.709Z"/>
  </g>
  <line id="Baseline-S" style="fill:none;stroke:#27AAE1;opacity:1;stroke-width:0.5;" x1="263" x2="3036" y1="696" y2="696"/>
  <line id="Capline-S" style="fill:none;stroke:#27AAE1;opacity:1;stroke-width:0.5;" x1="263" x2="3036" y1="625.541" y2="625.541"/>
  <g id="H-reference" style="fill:#27AAE1;stroke:none;" transform="matrix(1 0 0 1 339 1126)">
   <path d="M0.976562 0L3.66211 0L12.9883-24.4629L45.752-24.4629L55.127 0L57.7637 0L30.6152-70.459L28.125-70.459ZM29.3457-67.1387L29.4434-67.1387L44.873-26.709L13.8672-26.709Z"/>
  </g>
  <line id="Baseline-M" style="fill:none;stroke:#27AAE1;opacity:1;stroke-width:0.5;" x1="263" x2="3036" y1="1126" y2="1126"/>
  <line id="Capline-M" style="fill:none;stroke:#27AAE1;opacity:1;stroke-width:0.5;" x1="263" x2="3036" y1="1055.54" y2="1055.54"/>
  <g id="H-reference" style="fill:#27AAE1;stroke:none;" transform="matrix(1 0 0 1 339 1556)">
   <path d="M0.976562 0L3.66211 0L12.9883-24.4629L45.752-24.4629L55.127 0L57.7637 0L30.6152-70.459L28.125-70.459ZM29.3457-67.1387L29.4434-67.1387L44.873-26.709L13.8672-26.709Z"/>
  </g>
  <line id="Baseline-L" style="fill:none;stroke:#27AAE1;opacity:1;stroke-width:0.5;" x1="263" x2="3036" y1="1556" y2="1556"/>
  <line id="Capline-L" style="fill:none;stroke:#27AAE1;opacity:1;stroke-width:0.5;" x1="263" x2="3036" y1="1485.54" y2="1485.54"/>
  <line id="left-margin" style="fill:none;stroke:#00AEEF;stroke-width:0.5;opacity:1.0;" x1="1391.45" x2="1391.45" y1="1030.79" y2="1150.12"/>
  <line id="right-margin" style="fill:none;stroke:#00AEEF;stroke-width:0.5;opacity:1.0;" x1="1508.24" x2="1508.24" y1="1030.79" y2="1150.12"/>
 </g>
 <g id="Symbols">
  <g id="Black-L" transform="matrix(1 0 0 1 2854.32 1556)">
   <path d="M79.0527 31.6895C80.4688 31.6895 82.4219 31.1035 84.1309 30.2734C121.777 11.6699 135.4 0.634766 135.4-22.5586L135.4-68.3105C135.4-78.6621 132.227-83.2031 122.998-87.1582C117.725-89.4531 94.7754-96.8262 90.0879-98.2422C86.7188-99.2676 82.373-99.9023 79.0527-99.9023C75.7812-99.9023 71.4355-99.1699 68.0664-98.2422C63.3789-97.0215 40.3809-89.4043 35.1562-87.1582C25.9277-83.2031 22.7539-78.6621 22.7539-68.3105L22.7539-22.5586C22.7539 0.634766 36.377 11.6699 73.9746 30.2734C75.6836 31.1035 77.6855 31.6895 79.0527 31.6895ZM79.0527 11.7676C78.5156 11.7676 78.0273 11.6699 76.3184 10.5957C48.584-6.5918 41.1621-9.81445 41.1621-25.0977L41.1621-35.2539L79.4922-35.2539L79.4922-81.8359C80.9082-81.7871 82.373-81.3965 84.9121-80.6152C89.8438-78.8574 105.957-73.4863 114.697-70.1172C116.406-69.4336 116.992-68.3594 116.992-66.0156L116.992-35.2539L79.541-35.2539L79.541 11.7188C79.3457 11.7676 79.1992 11.7676 79.0527 11.7676Z"/>
  </g>
  <g id="Heavy-L" transform="matrix(1 0 0 1 2558.76 1556)">
   <path d="M77.9297 31.1523C79.2969 31.1523 81.1523 30.6152 82.8125 29.7852C119.922 10.7422 133.154 0.439453 133.154-22.5098L133.154-68.75C133.154-78.2715 130.127-82.2266 121.729-85.8398C115.723-88.3789 93.1152-95.8496 87.5488-97.6562C84.5703-98.5352 80.8594-99.1211 77.9297-99.1211C75-99.1211 71.2891-98.4375 68.3105-97.6562C62.793-96.0938 40.1367-88.3301 34.1309-85.8398C25.7812-82.2754 22.7539-78.2715 22.7539-68.75L22.7539-22.5098C22.7539 0.439453 35.9863 10.6934 73.0469 29.7852C74.707 30.6152 76.6113 31.1523 77.9297 31.1523ZM77.9297 13.6719C77.2949 13.6719 76.6113 13.4766 74.9512 12.4512C46.875-4.98047 38.8184-8.64258 38.8184-24.9023L38.8184-35.2539L78.4668-35.2539L78.4668-83.252C79.6875-83.2031 80.957-82.8613 83.0566-82.1777C88.916-79.9805 105.859-74.2188 114.648-70.8496C116.504-70.166 117.09-69.0918 117.09-66.6504L117.09-35.2539L78.5156-35.2539L78.5156 13.623C78.3203 13.6719 78.125 13.6719 77.9297 13.6719Z"/>
  </g>
  <g id="Bold-L" transform="matrix(1 0 0 1 2263.29 1556)">
   <path d="M76.6602 30.5664C77.9297 30.5664 79.7363 30.0293 81.2988 29.1992C117.871 9.76562 130.615 0.244141 130.615-22.4121L130.615-69.2871C130.615-77.832 127.734-81.1523 120.312-84.3262C113.477-87.1582 91.2598-94.7754 84.7168-96.9238C82.2266-97.7051 79.1992-98.2422 76.6602-98.2422C74.1699-98.2422 71.1426-97.6074 68.6035-96.9238C62.0605-95.0195 39.8926-87.1094 33.0566-84.3262C25.6348-81.2012 22.7539-77.832 22.7539-69.2871L22.7539-22.4121C22.7539 0.244141 35.5469 9.66797 72.0215 29.1992C73.6328 30.0293 75.4395 30.5664 76.6602 30.5664ZM76.6602 15.7715C75.8789 15.7715 75.0488 15.5273 73.4375 14.4531C44.9707-3.125 36.1816-7.32422 36.1816-24.6094L36.1816-35.2539L77.3926-35.2539L77.3926-84.8633C78.3203-84.7656 79.4434-84.4727 81.0059-83.9355C87.8906-81.2988 105.811-75 114.648-71.7285C116.602-70.9961 117.139-69.9219 117.139-67.334L117.139-35.2539L77.3926-35.2539L77.3926 15.7227C77.1484 15.7715 76.9043 15.7715 76.6602 15.7715Z"/>
  </g>
  <g id="Semibold-L" transform="matrix(1 0 0 1 1967.46 1556)">
   <path d="M75.7812 30.1758C77.002 30.1758 78.7109 29.6387 80.2734 28.8086C116.455 9.08203 128.857 0.0976562 128.857-22.3633L128.857-69.6777C128.857-77.5391 126.074-80.4199 119.336-83.3008C111.914-86.3281 89.9902-93.9941 82.7637-96.4355C80.5664-97.168 78.0273-97.6562 75.7812-97.6562C73.584-97.6562 71.0449-97.0703 68.7988-96.4355C61.6211-94.2871 39.6973-86.2793 32.2754-83.3008C25.5371-80.4688 22.7051-77.5391 22.7051-69.6777L22.7051-22.3633C22.7051 0.0976562 35.2539 8.93555 71.3379 28.8086C72.9004 29.6387 74.6094 30.1758 75.7812 30.1758ZM75.7812 17.2363C74.9023 17.2363 74.0234 16.8945 72.3633 15.8691C43.6523-1.85547 34.4238-6.44531 34.4238-24.4141L34.4238-35.2539L76.6113-35.2539L76.6113-85.9375C77.4414-85.8398 78.3691-85.5469 79.5898-85.1562C87.1582-82.1777 105.762-75.5371 114.648-72.3145C116.65-71.5332 117.188-70.459 117.188-67.8223L117.188-35.2539L76.6113-35.2539L76.6113 17.1387C76.3184 17.2363 76.0742 17.2363 75.7812 17.2363Z"/>
  </g>
  <g id="Medium-L" transform="matrix(1 0 0 1 1671.41 1556)">
   <path d="M75.1465 29.834C76.3184 29.834 77.9785 29.3457 79.4922 28.5156C115.381 8.54492 127.539 0 127.539-22.3145L127.539-69.9707C127.539-77.2949 124.854-79.8828 118.555-82.5195C110.742-85.6934 89.0625-93.457 81.2988-96.0938C79.3457-96.7285 77.1484-97.168 75.1465-97.168C73.1445-97.168 70.9473-96.6309 68.9941-96.0938C61.2305-93.7012 39.5508-85.6445 31.6895-82.5195C25.4395-79.9316 22.7051-77.2949 22.7051-69.9707L22.7051-22.3145C22.7051 0 35.0098 8.39844 70.8008 28.5156C72.3145 29.3457 73.9746 29.834 75.1465 29.834ZM75.1465 18.3594C74.2188 18.3594 73.1934 17.9688 71.582 16.9434C42.627-0.878906 33.0566-5.76172 33.0566-24.2676L33.0566-35.2539L76.0254-35.2539L76.0254-86.7676C76.709-86.6211 77.5391-86.4258 78.5156-86.0352C86.6211-82.8613 105.713-75.9766 114.648-72.7539C116.699-71.9727 117.236-70.8984 117.236-68.1641L117.236-35.2539L76.0254-35.2539L76.0254 18.2129C75.7324 18.3105 75.4395 18.3594 75.1465 18.3594Z"/>
  </g>
  <g id="Regular-L" transform="matrix(1 0 0 1 1375.58 1556)">
   <path d="M74.2676 29.4434C75.3906 29.4434 77.002 29.0039 78.4668 28.125C113.965 7.86133 125.83-0.146484 125.83-22.2656L125.83-70.3125C125.83-77.002 123.193-79.1504 117.578-81.4941C109.18-84.8633 87.793-92.7246 79.3945-95.6055C77.7344-96.1914 75.9766-96.582 74.2676-96.582C72.5586-96.582 70.8496-96.0938 69.1895-95.6055C60.791-92.9688 39.3555-84.8145 30.957-81.4941C25.3418-79.248 22.7051-77.002 22.7051-70.3125L22.7051-22.2656C22.7051-0.146484 34.7168 7.66602 70.0684 28.125C71.582 29.0039 73.1934 29.4434 74.2676 29.4434ZM74.2676 19.8242C73.2422 19.8242 72.1191 19.3359 70.5078 18.3105C41.3086 0.341797 31.25-4.88281 31.25-24.1211L31.25-35.2539L75.293-35.2539L75.293-87.793C75.8301-87.6953 76.416-87.5 77.0996-87.2559C85.9375-83.7891 105.664-76.5137 114.648-73.3398C116.748-72.5586 117.285-71.4355 117.285-68.6523L117.285-35.2539L75.293-35.2539L75.293 19.6777C74.9512 19.7754 74.6094 19.8242 74.2676 19.8242Z"/>
  </g>
  <g id="Light-L" transform="matrix(1 0 0 1 1080.31 1556)">
   <path d="M72.8027 28.6133C74.0723 28.6133 75.6836 28.0273 77.002 27.2461C112.012 6.68945 123.291-0.585938 123.291-21.6309L123.291-69.3848C123.291-76.2207 121.045-78.418 114.99-80.8105C105.273-84.668 87.4512-91.3574 77.6855-94.7754C76.0742-95.3125 74.4629-95.7031 72.8027-95.7031C71.1914-95.7031 69.5801-95.2637 67.9688-94.7754C58.252-91.4062 40.3809-84.6191 30.6641-80.8105C24.6094-78.4668 22.3633-76.2207 22.3633-69.3848L22.3633-21.6309C22.3633-0.585938 33.8379 6.39648 68.6523 27.2461C69.9707 28.0273 71.582 28.6133 72.8027 28.6133ZM72.8027 21.3867C71.7773 21.3867 70.5566 20.8008 69.2871 19.9219C39.9902 1.51367 28.9062-3.75977 28.9062-22.8027L28.9062-35.2539L73.4375-35.2539L73.4375-89.0625C74.1699-88.9648 75.0488-88.6719 76.123-88.2324C83.9355-85.2051 105.469-77.0996 113.379-74.2188C116.064-73.1934 116.748-71.8262 116.748-68.1641L116.748-35.2539L73.4375-35.2539L73.4375 21.2891C73.1934 21.3379 72.998 21.3867 72.8027 21.3867Z"/>
  </g>
  <g id="Thin-L" transform="matrix(1 0 0 1 785.524 1556)">
   <path d="M70.8984 27.4902C72.3145 27.4902 73.9258 26.7578 75 26.0742C109.424 5.12695 119.922-1.2207 119.922-20.8008L119.922-68.1641C119.922-75.0977 118.115-77.4414 111.523-79.9805C100.049-84.3262 87.0117-89.5996 75.4883-93.6523C73.877-94.1895 72.4609-94.5801 70.8984-94.5801C69.3359-94.5801 67.9199-94.1895 66.3086-93.6523C54.8828-89.3555 41.6992-84.3262 30.2734-79.9805C23.6816-77.4902 21.875-75.0977 21.875-68.1641L21.875-20.8008C21.875-1.2207 32.666 4.6875 66.7969 26.0742C67.8711 26.7578 69.4824 27.4902 70.8984 27.4902ZM70.8984 23.4375C69.7754 23.4375 68.457 22.7051 67.627 22.0703C38.2324 3.02734 25.7812-2.29492 25.7812-20.9961L25.7812-35.2539L70.9473-35.2539L70.9473-90.6738C71.7773-90.6738 73.1445-90.2344 74.7559-89.5996C81.2988-87.1094 105.176-77.9297 111.67-75.3906C115.088-74.0234 116.016-72.3145 116.016-67.4805L116.016-35.2539L70.9473-35.2539L70.9473 23.4375Z"/>
  </g>
  <g id="Ultralight-L" transform="matrix(1 0 0 1 489.789 1556)">
   <path d="M69.9219 26.9531C71.3867 26.9531 72.998 26.0742 74.0234 25.4883C108.105 4.29688 118.213-1.5625 118.213-20.3613L118.213-67.5293C118.213-74.5605 116.65-76.9043 109.766-79.541C97.4121-84.1797 86.7676-88.7207 74.3652-93.0664C72.7539-93.6035 71.4355-94.043 69.9219-94.043C68.4082-94.043 67.0898-93.6523 65.4785-93.0664C53.1738-88.3301 42.4316-84.1797 30.0781-79.541C23.1934-77.002 21.6309-74.5605 21.6309-67.5293L21.6309-20.3613C21.6309-1.5625 32.0801 3.80859 65.8203 25.4883C66.7969 26.0742 68.4082 26.9531 69.9219 26.9531ZM115.625-35.2539L69.6777-35.2539L69.6777 24.5117C68.7988 24.5117 67.3828 23.6816 66.748 23.1445C37.3047 3.80859 24.1699-1.51367 24.1699-20.1172L24.1699-35.2539L69.6777-35.2539L69.6777-91.4551C69.9219-91.4551 69.9219-91.4551 69.9219-91.4551C70.8008-91.4551 72.3145-90.9668 74.0723-90.2832C79.9316-88.0859 105.078-78.3203 110.84-76.0254C114.648-74.4629 115.625-72.5586 115.625-67.0898L115.625-20.1172C115.625-19.6289 115.625-19.1406 115.625-18.7012ZM113.525-9.17969C112.061-5.85938 109.766-2.92969 106.641-0.0488281ZM104.346 2.00195C97.8027 7.37305 88.3789 12.9883 75.8301 21.3379Z"/>
  </g>
  <g id="Black-M" transform="matrix(1 0 0 1 2871.39 1126)">
   <path d="M62.0117 16.9434C63.2812 16.9434 64.8926 16.3574 66.2109 15.7227C95.8008 1.66016 106.592-7.4707 106.592-25.1465L106.592-59.7168C106.592-68.9941 104.15-73.291 95.6055-76.9531C91.8457-78.5645 75.4395-83.5449 72.3145-84.4727C69.1406-85.4004 65.0391-85.9863 62.0117-85.9863C58.9844-85.9863 54.8828-85.3516 51.709-84.4727C48.584-83.5938 32.1777-78.5645 28.3691-76.9531C19.873-73.291 17.4316-68.9941 17.4316-59.7168L17.4316-25.1465C17.4316-7.4707 28.2227 1.66016 57.8125 15.7227C59.1309 16.3574 60.7422 16.9434 62.0117 16.9434ZM60.3027-1.31836C39.209-14.6484 33.7402-16.5039 33.7402-27.002L33.7402-35.2539L61.9141-35.2539L61.9141-70.0684L62.0117-70.0684C63.5254-70.0684 64.9414-69.6777 67.7246-68.8477C69.8242-68.2129 82.0801-64.2578 88.1836-61.7188C89.6973-61.084 90.2832-60.1074 90.2832-57.959L90.2832-35.2539L61.9629-35.2539L61.9629-0.488281C61.7188-0.488281 61.4746-0.537109 60.3027-1.31836Z"/>
  </g>
  <g id="Heavy-M" transform="matrix(1 0 0 1 2575.53 1126)">
   <path d="M61.1816 16.5527C62.3047 16.5527 63.8672 16.0645 65.1367 15.4297C94.2871 1.02539 104.785-7.51953 104.785-25.2441L104.785-60.498C104.785-68.75 102.393-72.4609 94.9219-75.6348C90.6738-77.4414 73.7305-82.8125 69.9707-83.9844C67.2852-84.8145 63.8184-85.3516 61.1816-85.3516C58.4961-85.3516 55.0293-84.7656 52.3438-83.9844C48.584-82.959 31.6406-77.4414 27.3926-75.6348C19.9219-72.4609 17.5293-68.75 17.5293-60.498L17.5293-25.2441C17.5293-7.51953 28.0273 0.976562 57.1777 15.4297C58.4961 16.0645 60.0098 16.5527 61.1816 16.5527ZM59.1309 0.292969C37.6953-13.1348 31.8359-15.5273 31.8359-27.0996L31.8359-35.2539L61.3281-35.2539L61.3281-71.2891C62.4512-71.3379 63.6719-70.9961 65.9668-70.3125C69.3359-69.1406 82.0801-64.8926 88.5254-62.3047C89.9902-61.7188 90.4785-60.8398 90.4785-58.7891L90.4785-35.2539L61.377-35.2539L61.377 1.12305C61.1816 1.17188 61.1816 1.17188 61.1816 1.17188C60.7422 1.17188 60.3516 1.02539 59.1309 0.292969Z"/>
  </g>
  <g id="Bold-M" transform="matrix(1 0 0 1 2279.77 1126)">
   <path d="M60.2051 16.1621C61.2305 16.1621 62.6465 15.7227 63.9648 15.0391C92.627 0.244141 102.783-7.61719 102.783-25.3418L102.783-61.3281C102.783-68.5059 100.439-71.4844 94.1406-74.1699C89.3555-76.2207 71.875-82.0312 67.3828-83.4961C65.1855-84.1797 62.4023-84.6191 60.2051-84.6191C58.0078-84.6191 55.2246-84.082 53.0273-83.4961C48.584-82.2266 31.0547-76.1719 26.2695-74.1699C19.9707-71.5332 17.627-68.5059 17.627-61.3281L17.627-25.3418C17.627-7.61719 27.832 0.195312 56.4941 15.0391C57.7637 15.7227 59.1797 16.1621 60.2051 16.1621ZM60.2051 3.02734C59.668 3.02734 59.1309 2.83203 57.8613 2.05078C35.9863-11.4746 29.6875-14.4043 29.6875-27.1973L29.6875-35.2539L60.6445-35.2539L60.6445-72.7051C61.5723-72.6562 62.5-72.3633 64.0137-71.9238C68.7988-70.1172 82.0312-65.5762 88.8672-62.9883C90.332-62.4023 90.7715-61.6211 90.7715-59.7168L90.7715-35.2539L60.6934-35.2539L60.6934 2.92969C60.498 2.97852 60.3516 3.02734 60.2051 3.02734Z"/>
  </g>
  <g id="Semibold-M" transform="matrix(1 0 0 1 1983.72 1126)">
   <path d="M59.5703 15.8691C60.498 15.8691 61.8652 15.4785 63.1348 14.7949C91.4551-0.244141 101.416-7.66602 101.416-25.4395L101.416-61.9141C101.416-68.3594 99.1211-70.8496 93.6035-73.1934C88.4766-75.3418 70.5566-81.4941 65.625-83.1055C63.7207-83.7402 61.4746-84.1309 59.5703-84.1309C57.666-84.1309 55.3711-83.6426 53.5156-83.1055C48.584-81.7383 30.6641-75.293 25.4883-73.1934C20.0195-70.8496 17.6758-68.3594 17.6758-61.9141L17.6758-25.4395C17.6758-7.66602 27.6855-0.292969 56.0059 14.7949C57.2754 15.4785 58.6426 15.8691 59.5703 15.8691ZM59.5703 4.29688C58.9355 4.29688 58.3008 4.10156 56.9336 3.22266C34.8633-10.3027 28.1738-13.6719 28.1738-27.2461L28.1738-35.2539L60.2051-35.2539L60.2051-73.6328C60.8887-73.584 61.6211-73.3887 62.6953-72.998C68.4082-70.8008 82.0312-66.0156 89.1602-63.4277C90.5273-62.9395 90.918-62.1582 90.918-60.3516L90.918-35.2539L60.2539-35.2539L60.2539 4.19922C59.9609 4.24805 59.7656 4.29688 59.5703 4.29688Z"/>
  </g>
  <g id="Medium-M" transform="matrix(1 0 0 1 1687.5 1126)">
   <path d="M59.0332 15.625C59.9121 15.625 61.2305 15.332 62.5 14.6484C90.5762-0.634766 100.342-7.71484 100.342-25.4883L100.342-62.3535C100.342-68.2129 98.0957-70.3125 93.1641-72.4121C87.793-74.707 69.5312-81.0547 64.2578-82.8613C62.5977-83.3984 60.7422-83.7402 59.0332-83.7402C57.373-83.7402 55.4688-83.3008 53.8574-82.8613C48.584-81.3477 30.3223-74.6582 24.9512-72.4121C20.0195-70.3613 17.7734-68.2129 17.7734-62.3535L17.7734-25.4883C17.7734-7.71484 27.5391-0.732422 55.6152 14.6484C56.8848 15.332 58.2031 15.625 59.0332 15.625ZM59.0332 5.27344C58.3496 5.27344 57.666 5.0293 56.25 4.15039C33.9844-9.42383 27.0508-13.0859 27.0508-27.2949L27.0508-35.2539L59.8633-35.2539L59.8633-74.3652C60.3516-74.2676 60.9375-74.1211 61.6699-73.877C68.1152-71.3379 82.0312-66.4062 89.3066-63.8184C90.7227-63.2812 91.0645-62.5488 91.0645-60.791L91.0645-35.2539L59.8633-35.2539L59.8633 5.12695C59.5703 5.22461 59.3262 5.27344 59.0332 5.27344Z"/>
  </g>
  <g id="Regular-M" transform="matrix(1 0 0 1 1391.45 1126)">
   <path d="M58.3984 15.3809C59.1797 15.3809 60.4492 15.0879 61.6699 14.4043C89.4531-1.17188 98.9746-7.76367 98.9746-25.5859L98.9746-62.9395C98.9746-68.0664 96.7773-69.6777 92.627-71.4355C86.8652-73.8281 68.2617-80.5176 62.5-82.5195C61.1816-82.959 59.7656-83.252 58.3984-83.252C57.0312-83.252 55.6152-82.8613 54.3457-82.5195C48.584-80.8594 29.9316-73.7793 24.1699-71.4355C20.0684-69.7266 17.8223-68.0664 17.8223-62.9395L17.8223-25.5859C17.8223-7.76367 27.3926-1.2207 55.127 14.4043C56.3965 15.0879 57.6172 15.3809 58.3984 15.3809ZM58.3984 6.54297C57.6172 6.54297 56.8359 6.25 55.3711 5.37109C32.8125-8.30078 25.5859-12.3047 25.5859-27.3926L25.5859-35.2539L59.4238-35.2539L59.4238-75.2441C59.7168-75.1953 60.0098-75.0977 60.3516-74.9512C67.7246-72.0215 82.0312-66.8457 89.5996-64.2578C90.918-63.7695 91.2109-63.0859 91.2109-61.4258L91.2109-35.2539L59.4238-35.2539L59.4238 6.34766C59.0332 6.49414 58.7402 6.54297 58.3984 6.54297Z"/>
  </g>
  <g id="Light-M" transform="matrix(1 0 0 1 1096.03 1126)">
   <path d="M57.0801 14.5996C58.0078 14.5996 59.2285 14.209 60.3516 13.5742C87.6953-2.24609 96.7285-8.20312 96.7285-25L96.7285-62.1094C96.7285-67.334 94.7754-69.043 90.2832-70.8496C83.3496-73.6328 67.9199-79.3457 60.9863-81.7383C59.7168-82.1777 58.3984-82.4707 57.0801-82.4707C55.7617-82.4707 54.4922-82.1289 53.2227-81.7383C46.2891-79.4922 30.8594-73.584 23.9258-70.8496C19.4336-69.0918 17.4805-67.334 17.4805-62.1094L17.4805-25C17.4805-8.20312 26.6113-2.39258 53.8574 13.5742C54.9316 14.209 56.2012 14.5996 57.0801 14.5996ZM57.0801 7.91016C56.2988 7.91016 55.3711 7.51953 54.248 6.78711C31.5918-7.27539 23.4863-11.3281 23.4863-26.1719L23.4863-35.2539L57.7637-35.2539L57.7637-76.3672C58.252-76.3184 58.7891-76.123 59.4238-75.8789C65.9668-73.3398 81.8359-67.4316 88.4277-65.0391C90.2832-64.3555 90.7227-63.4277 90.7227-60.9863L90.7227-35.2539L57.7637-35.2539L57.7637 7.86133C57.5195 7.91016 57.3242 7.91016 57.0801 7.91016Z"/>
  </g>
  <g id="Thin-M" transform="matrix(1 0 0 1 801.051 1126)">
   <path d="M55.3711 13.623C56.3965 13.623 57.666 13.0859 58.5449 12.5488C85.3516-3.61328 93.7012-8.74023 93.7012-24.2188L93.7012-61.0352C93.7012-66.3574 92.1875-68.1641 87.1582-70.0684C78.6621-73.3398 67.5293-77.7832 58.9844-80.7129C57.7148-81.1523 56.5918-81.4941 55.3711-81.4941C54.1504-81.4941 53.0273-81.1523 51.7578-80.7129C43.2617-77.6367 32.0312-73.3398 23.5352-70.0684C18.5547-68.2129 17.041-66.3574 17.041-61.0352L17.041-24.2188C17.041-8.74023 25.5859-3.95508 52.1484 12.5488C53.0762 13.0859 54.2969 13.623 55.3711 13.623ZM52.7344 8.69141C29.9805-5.9082 20.6543-10.0098 20.6543-24.6094L20.6543-35.2539L55.5176-35.2539L55.5176-77.832C56.0059-77.832 57.0312-77.5391 58.252-77.0508C63.5742-75.0488 81.5918-68.1152 86.9141-66.1133C89.4043-65.1367 90.0879-63.8672 90.0879-60.3516L90.0879-35.2539L55.5176-35.2539L55.5176 9.76562C55.3711 9.81445 55.3711 9.81445 55.3711 9.81445C54.4922 9.81445 53.5156 9.22852 52.7344 8.69141Z"/>
  </g>
  <g id="Ultralight-M" transform="matrix(1 0 0 1 505.243 1126)">
   <path d="M54.4922 13.1348C55.6152 13.1348 56.8359 12.5 57.666 12.0117C84.1797-4.3457 92.1387-9.0332 92.1387-23.8281L92.1387-60.4492C92.1387-65.8691 90.8203-67.6758 85.5957-69.6777C76.2695-73.1934 67.2852-76.9531 57.959-80.2246C56.6895-80.6641 55.6641-80.957 54.4922-80.957C53.2715-80.957 52.2461-80.6641 50.9766-80.2246C41.6992-76.709 32.666-73.1934 23.3887-69.6777C18.1152-67.7734 16.8457-65.8691 16.8457-60.4492L16.8457-23.8281C16.8457-9.0332 25.0488-4.73633 51.3184 12.0117C52.0996 12.5 53.3691 13.1348 54.4922 13.1348ZM52.002 9.66797C29.1992-5.22461 19.2383-9.32617 19.2383-23.7793L19.2383-35.2539L54.3945-35.2539L54.3945-78.5645L54.4922-78.5645C55.1758-78.5645 56.2988-78.1738 57.6172-77.6855C62.3535-75.9277 81.4453-68.5059 86.1328-66.6504C88.9648-65.5273 89.7461-64.0625 89.7461-60.0586L89.7461-35.2539L54.3945-35.2539L54.3945 10.7422C53.6133 10.7422 52.5391 10.1074 52.002 9.66797ZM87.0117-13.1836C86.4746-12.2559 85.8398-11.377 85.1074-10.5469ZM77.5879-3.95508C75.1465-2.19727 72.3145-0.292969 69.0918 1.75781Z"/>
  </g>
  <g id="Black-S" transform="matrix(1 0 0 1 2884.86 696)">
   <path d="M48.5352 5.61523C49.5117 5.61523 50.7812 5.17578 51.8066 4.6875C74.9512-6.34766 83.3984-13.4766 83.3984-27.3438L83.3984-54.4922C83.3984-61.6699 81.4941-64.9902 74.9023-67.8223C71.9238-69.0918 58.9844-73.0469 56.4941-73.7793C54.0527-74.5117 50.8789-74.9512 48.5352-74.9512C46.1914-74.9512 43.0176-74.4629 40.5762-73.7793C38.0859-73.0957 25.1465-69.0918 22.168-67.8223C15.5762-64.9902 13.6719-61.6699 13.6719-54.4922L13.6719-27.3438C13.6719-13.4766 22.1191-6.34766 45.2637 4.6875C46.2891 5.17578 47.5586 5.61523 48.5352 5.61523ZM48.5352-7.91016C48.291-7.91016 48.0957-7.95898 47.168-8.54492C30.6152-18.9941 26.3184-20.5078 26.3184-28.8086L26.3184-35.2539L48.4863-35.2539L48.4863-62.5977L48.5352-62.5977C49.707-62.5977 50.7812-62.3047 52.9297-61.6699C54.6875-61.1328 64.3066-58.0078 69.1406-56.0059C70.3125-55.5176 70.752-54.7852 70.752-53.125L70.752-35.2539L48.5352-35.2539Z"/>
  </g>
  <g id="Heavy-S" transform="matrix(1 0 0 1 2588.67 696)">
   <path d="M48.0469 5.41992C48.9258 5.41992 50.0977 5.0293 51.123 4.54102C74.0234-6.73828 82.2754-13.4766 82.2754-27.4902L82.2754-55.1758C82.2754-61.5723 80.3711-64.4043 74.6094-66.8945C71.4355-68.2617 57.7148-72.6562 54.8828-73.4863C52.7832-74.1699 50.0977-74.5605 48.0469-74.5605C45.9961-74.5605 43.2617-74.0723 41.1621-73.4863C38.3301-72.7539 24.6582-68.2617 21.4355-66.8945C15.6738-64.4043 13.7695-61.5723 13.7695-55.1758L13.7695-27.4902C13.7695-13.4766 22.0703-6.73828 44.9219 4.54102C45.9473 5.0293 47.168 5.41992 48.0469 5.41992ZM46.3867-7.51953C29.5898-17.9688 25.0977-19.873 25.0977-29.0039L25.0977-35.2539L48.2422-35.2539L48.2422-63.4277C49.0234-63.4277 49.9512-63.1836 51.709-62.6953C54.4922-61.6699 64.3066-58.3984 69.5312-56.3965C70.6055-55.957 70.9961-55.2734 70.9961-53.8086L70.9961-35.2539L48.2422-35.2539L48.2422-6.83594C48.0469-6.78711 48.0469-6.78711 48.0469-6.78711C47.7051-6.78711 47.4121-6.88477 46.3867-7.51953Z"/>
  </g>
  <g id="Bold-S" transform="matrix(1 0 0 1 2292.52 696)">
   <path d="M47.4609 5.17578C48.2422 5.17578 49.3652 4.88281 50.3906 4.3457C72.9492-7.17773 81.0059-13.4766 81.0059-27.6367L81.0059-55.9082C81.0059-61.4746 79.1016-63.7695 74.3164-65.8691C70.8496-67.334 56.2988-72.168 53.0762-73.1934C51.3672-73.7305 49.1699-74.0723 47.4609-74.0723C45.752-74.0723 43.5547-73.6816 41.8457-73.1934C38.623-72.3633 24.0723-67.334 20.6055-65.8691C15.8203-63.7695 13.916-61.4746 13.916-55.9082L13.916-27.6367C13.916-13.4766 21.9727-7.17773 44.5312 4.3457C45.5566 4.88281 46.6797 5.17578 47.4609 5.17578ZM47.4609-5.56641C47.0215-5.56641 46.6309-5.66406 45.5566-6.34766C28.4668-16.7969 23.6816-19.1406 23.6816-29.248L23.6816-35.2539L47.9004-35.2539L47.9004-64.3555C48.5352-64.3066 49.2676-64.1113 50.3418-63.7695C54.2969-62.3047 64.3066-58.8867 69.9219-56.7871C70.9473-56.3965 71.2402-55.8594 71.2402-54.541L71.2402-35.2539L47.9492-35.2539L47.9492-5.61523C47.7539-5.56641 47.6074-5.56641 47.4609-5.56641Z"/>
  </g>
  <g id="Semibold-S" transform="matrix(1 0 0 1 1996.2 696)">
   <path d="M47.0703 5.0293C47.7539 5.0293 48.8281 4.78516 49.8535 4.24805C72.2168-7.4707 80.1758-13.4766 80.1758-27.7344L80.1758-56.4453C80.1758-61.4258 78.2715-63.3301 74.0723-65.1367C70.459-66.6992 55.3223-71.875 51.8555-72.998C50.3906-73.4863 48.584-73.7793 47.0703-73.7793C45.5566-73.7793 43.75-73.3887 42.2852-72.998C38.8184-72.1191 23.6816-66.6504 20.0195-65.1367C15.8691-63.3789 13.9648-61.4258 13.9648-56.4453L13.9648-27.7344C13.9648-13.4766 21.9238-7.51953 44.2871 4.24805C45.3125 4.78516 46.3867 5.0293 47.0703 5.0293ZM47.0703-4.6875C46.582-4.6875 46.0938-4.83398 44.9707-5.51758C27.6367-16.0156 22.7539-18.6523 22.7539-29.3945L22.7539-35.2539L47.7051-35.2539L47.7051-64.9902C48.1445-64.9414 48.6816-64.7949 49.3652-64.5508C54.1504-62.6953 64.3066-59.1797 70.2148-57.0801C71.1426-56.7383 71.3867-56.2012 71.3867-55.0781L71.3867-35.2539L47.7051-35.2539L47.7051-4.78516C47.4609-4.73633 47.2656-4.6875 47.0703-4.6875Z"/>
  </g>
  <g id="Medium-S" transform="matrix(1 0 0 1 1699.78 696)">
   <path d="M46.7773 4.93164C47.4121 4.93164 48.4375 4.6875 49.4629 4.15039C71.6309-7.71484 79.4922-13.4766 79.4922-27.832L79.4922-56.8359C79.4922-61.377 77.5879-62.9883 73.9258-64.5996C70.166-66.2109 54.5898-71.6309 50.8789-72.8516C49.6094-73.2422 48.0957-73.5352 46.7773-73.5352C45.459-73.5352 43.8965-73.1934 42.627-72.8516C38.9648-71.9238 23.3887-66.1621 19.6289-64.5996C15.918-63.0371 14.0137-61.377 14.0137-56.8359L14.0137-27.832C14.0137-13.4766 21.9238-7.71484 44.043 4.15039C45.1172 4.6875 46.1426 4.93164 46.7773 4.93164ZM46.7773-4.05273C46.2402-4.05273 45.7031-4.19922 44.4824-4.93164C27.0508-15.4297 22.0215-18.2617 22.0215-29.4922L22.0215-35.2539L47.5586-35.2539L47.5586-65.4785C47.8516-65.3809 48.2422-65.2832 48.6328-65.1367C54.0527-63.0371 64.3066-59.4238 70.459-57.3242C71.3379-56.9824 71.5332-56.4941 71.5332-55.4688L71.5332-35.2539L47.5586-35.2539L47.5586-4.19922C47.2656-4.10156 47.0215-4.05273 46.7773-4.05273Z"/>
  </g>
  <g id="Regular-S" transform="matrix(1 0 0 1 1403.46 696)">
   <path d="M46.3867 4.78516C46.9238 4.78516 47.9004 4.58984 48.9746 4.00391C70.8984-8.00781 78.6621-13.4766 78.6621-27.9297L78.6621-57.3242C78.6621-61.3281 76.7578-62.5488 73.7305-63.8672C69.7754-65.5762 53.6133-71.2891 49.6582-72.6562C48.6328-72.998 47.5098-73.2422 46.3867-73.2422C45.2637-73.2422 44.0918-72.9004 43.1152-72.6562C39.1602-71.6797 22.998-65.5273 19.043-63.8672C16.0156-62.5977 14.1113-61.3281 14.1113-57.3242L14.1113-27.9297C14.1113-13.4766 21.875-8.05664 43.7988 4.00391C44.873 4.58984 45.8496 4.78516 46.3867 4.78516ZM46.3867-3.22266C45.8008-3.22266 45.2148-3.36914 43.8965-4.10156C26.2695-14.6484 21.0449-17.7734 21.0449-29.6387L21.0449-35.2539L47.3633-35.2539L47.3633-66.0156C47.4609-66.0156 47.6074-65.9668 47.7051-65.918C53.9062-63.4277 64.3066-59.7656 70.7031-57.6172C71.5332-57.3242 71.6797-56.8848 71.6797-56.0059L71.6797-35.2539L47.3633-35.2539L47.3633-3.36914C46.9727-3.22266 46.6797-3.22266 46.3867-3.22266Z"/>
  </g>
  <g id="Light-S" transform="matrix(1 0 0 1 1107.89 696)">
   <path d="M45.2148 4.10156C45.8984 4.10156 46.875 3.85742 47.8027 3.32031C69.3848-8.98438 76.6113-13.8672 76.6113-27.4414L76.6113-56.5918C76.6113-60.6445 75-61.9629 71.6309-63.3789C66.6504-65.3809 53.3203-70.2637 48.3398-71.9727C47.3145-72.3145 46.2891-72.5586 45.2148-72.5586C44.1895-72.5586 43.1152-72.2168 42.1387-71.9727C37.1094-70.4102 23.8281-65.3809 18.8477-63.3789C15.4297-62.0117 13.8184-60.6445 13.8184-56.5918L13.8184-27.4414C13.8184-13.8672 21.1426-9.08203 42.6758 3.32031C43.6035 3.85742 44.5801 4.10156 45.2148 4.10156ZM45.2148-1.95312C44.6289-1.95312 43.9453-2.19727 42.9199-2.83203C25.1953-13.7207 19.1895-16.8945 19.1895-28.6133L19.1895-35.2539L45.8984-35.2539L45.8984-67.041C46.1914-66.9922 46.5332-66.8457 46.9238-66.6992C52.3438-64.5996 64.1602-60.2539 69.7266-58.3008C70.9473-57.8125 71.2891-57.1777 71.2891-55.5664L71.2891-35.2539L45.8984-35.2539L45.8984-2.05078C45.6543-2.00195 45.459-1.95312 45.2148-1.95312Z"/>
  </g>
  <g id="Thin-S" transform="matrix(1 0 0 1 812.721 696)">
   <path d="M43.7012 3.22266C44.4824 3.22266 45.459 2.83203 46.2402 2.39258C67.334-10.2051 73.9746-14.3555 73.9746-26.7578L73.9746-55.6641C73.9746-59.8145 72.7051-61.1816 68.8965-62.6953C62.5488-65.1367 52.9785-68.8477 46.582-71.0938C45.6055-71.4355 44.6777-71.6797 43.7012-71.6797C42.7246-71.6797 41.7969-71.3867 40.8203-71.0938C34.4727-68.7988 24.9023-65.1367 18.5059-62.6953C14.6973-61.2305 13.4277-59.8145 13.4277-55.6641L13.4277-26.7578C13.4277-14.3555 20.2148-10.4004 41.2109 2.39258C41.9434 2.83203 42.9199 3.22266 43.7012 3.22266ZM41.6016-1.17188C23.8281-12.5488 16.6992-15.7227 16.6992-27.1973L16.6992-35.2539L43.9453-35.2539L43.9453-68.3594C44.4336-68.3105 45.0684-68.0664 45.8496-67.7734C50.2441-66.0645 63.9648-60.8887 68.4082-59.2285C70.2148-58.4961 70.7031-57.5684 70.7031-55.0293L70.7031-35.2539L43.9453-35.2539L43.9453-0.341797C43.7012-0.292969 43.7012-0.292969 43.7012-0.292969C43.0664-0.292969 42.2852-0.732422 41.6016-1.17188Z"/>
  </g>
  <g id="Ultralight-S" transform="matrix(1 0 0 1 516.791 696)">
   <path d="M42.9199 2.7832C43.7988 2.7832 44.7754 2.29492 45.4102 1.9043C66.2598-10.8398 72.6074-14.6484 72.6074-26.416L72.6074-55.127C72.6074-59.375 71.5332-60.791 67.4805-62.3535C60.4004-65.0391 52.7832-68.1152 45.7031-70.6055C44.7266-70.9473 43.8477-71.1914 42.9199-71.1914C41.9922-71.1914 41.1621-70.9473 40.1855-70.6055C33.1055-67.9688 25.4395-65.0391 18.3594-62.3535C14.3066-60.8398 13.2324-59.375 13.2324-55.127L13.2324-26.416C13.2324-14.6484 19.7754-11.1328 40.4297 1.9043C41.0645 2.29492 42.041 2.7832 42.9199 2.7832ZM42.9199 0.537109C42.2363 0.537109 41.4062 0.0488281 40.9668-0.292969C23.0957-11.9141 15.4297-15.1367 15.4297-26.4648L15.4297-35.2539L42.9199-35.2539L42.9199-68.9941C43.457-68.9941 44.2871-68.7012 45.3125-68.3105C49.1699-66.8457 63.8672-61.1816 67.7246-59.7168C69.8242-58.8379 70.4102-57.7637 70.4102-54.7363L70.4102-35.2539L42.9199-35.2539Z"/>
  </g>
 </g>
</svg>
