<?xml version="1.0" encoding="UTF-8"?>
<!--Generator: Apple Native CoreSVG 123-->
<!DOCTYPE svg
PUBLIC "-//W3C//DTD SVG 1.1//EN"
       "http://www.w3.org/Graphics/SVG/1.1/DTD/svg11.dtd">
<svg version="1.1" xmlns="http://www.w3.org/2000/svg" xmlns:xlink="http://www.w3.org/1999/xlink" width="3300" height="2200">
 <!--glyph: "uni10006D.medium", point size: 100.000000, font version: "Version 15.0d7e11", template writer version: "5"-->
 <g id="Notes">
  <rect height="2200" id="artboard" style="fill:white;opacity:1" width="3300" x="0" y="0"/>
  <line id="" style="fill:none;stroke:black;opacity:1;stroke-width:0.5;" x1="263" x2="3036" y1="292" y2="292"/>
  <text style="stroke:none;fill:black;font-family:-apple-system,&quot;SF Pro Display&quot;,&quot;SF Pro Text&quot;,Helvetica,sans-serif;font-weight:bold;" transform="matrix(1 0 0 1 263 322)">Weight/Scale Variations</text>
  <text style="stroke:none;fill:black;font-family:-apple-system,&quot;SF Pro Display&quot;,&quot;SF Pro Text&quot;,Helvetica,sans-serif;text-anchor:middle;" transform="matrix(1 0 0 1 559.711 322)">Ultralight</text>
  <text style="stroke:none;fill:black;font-family:-apple-system,&quot;SF Pro Display&quot;,&quot;SF Pro Text&quot;,Helvetica,sans-serif;text-anchor:middle;" transform="matrix(1 0 0 1 856.422 322)">Thin</text>
  <text style="stroke:none;fill:black;font-family:-apple-system,&quot;SF Pro Display&quot;,&quot;SF Pro Text&quot;,Helvetica,sans-serif;text-anchor:middle;" transform="matrix(1 0 0 1 1153.13 322)">Light</text>
  <text style="stroke:none;fill:black;font-family:-apple-system,&quot;SF Pro Display&quot;,&quot;SF Pro Text&quot;,Helvetica,sans-serif;text-anchor:middle;" transform="matrix(1 0 0 1 1449.84 322)">Regular</text>
  <text style="stroke:none;fill:black;font-family:-apple-system,&quot;SF Pro Display&quot;,&quot;SF Pro Text&quot;,Helvetica,sans-serif;text-anchor:middle;" transform="matrix(1 0 0 1 1746.56 322)">Medium</text>
  <text style="stroke:none;fill:black;font-family:-apple-system,&quot;SF Pro Display&quot;,&quot;SF Pro Text&quot;,Helvetica,sans-serif;text-anchor:middle;" transform="matrix(1 0 0 1 2043.27 322)">Semibold</text>
  <text style="stroke:none;fill:black;font-family:-apple-system,&quot;SF Pro Display&quot;,&quot;SF Pro Text&quot;,Helvetica,sans-serif;text-anchor:middle;" transform="matrix(1 0 0 1 2339.98 322)">Bold</text>
  <text style="stroke:none;fill:black;font-family:-apple-system,&quot;SF Pro Display&quot;,&quot;SF Pro Text&quot;,Helvetica,sans-serif;text-anchor:middle;" transform="matrix(1 0 0 1 2636.69 322)">Heavy</text>
  <text style="stroke:none;fill:black;font-family:-apple-system,&quot;SF Pro Display&quot;,&quot;SF Pro Text&quot;,Helvetica,sans-serif;text-anchor:middle;" transform="matrix(1 0 0 1 2933.4 322)">Black</text>
  <line id="" style="fill:none;stroke:black;opacity:1;stroke-width:0.5;" x1="263" x2="3036" y1="1903" y2="1903"/>
  <g id="" transform="matrix(1 0 0 1 263 1933)">
   <path d="M 9.24805 0.830078 C 13.5547 0.830078 17.1387 -2.74414 17.1387 -7.05078 C 17.1387 -11.3574 13.5449 -14.9316 9.23828 -14.9316 C 4.94141 -14.9316 1.36719 -11.3574 1.36719 -7.05078 C 1.36719 -2.74414 4.95117 0.830078 9.24805 0.830078 Z M 9.24805 -0.654297 C 5.70312 -0.654297 2.87109 -3.49609 2.87109 -7.05078 C 2.87109 -10.6055 5.69336 -13.4473 9.23828 -13.4473 C 12.793 -13.4473 15.6348 -10.6055 15.6445 -7.05078 C 15.6543 -3.49609 12.8027 -0.654297 9.24805 -0.654297 Z M 9.22852 -3.42773 C 9.69727 -3.42773 9.9707 -3.74023 9.9707 -4.25781 L 9.9707 -6.31836 L 12.1973 -6.31836 C 12.6953 -6.31836 13.0371 -6.57227 13.0371 -7.04102 C 13.0371 -7.51953 12.7148 -7.7832 12.1973 -7.7832 L 9.9707 -7.7832 L 9.9707 -10.0098 C 9.9707 -10.5273 9.69727 -10.8496 9.22852 -10.8496 C 8.75977 -10.8496 8.50586 -10.5078 8.50586 -10.0098 L 8.50586 -7.7832 L 6.29883 -7.7832 C 5.78125 -7.7832 5.44922 -7.51953 5.44922 -7.04102 C 5.44922 -6.57227 5.80078 -6.31836 6.29883 -6.31836 L 8.50586 -6.31836 L 8.50586 -4.25781 C 8.50586 -3.75977 8.75977 -3.42773 9.22852 -3.42773 Z"/>
  </g>
  <g id="" transform="matrix(1 0 0 1 281.506 1933)">
   <path d="M 11.709 2.91016 C 17.1582 2.91016 21.6699 -1.60156 21.6699 -7.05078 C 21.6699 -12.4902 17.1484 -17.0117 11.6992 -17.0117 C 6.25977 -17.0117 1.74805 -12.4902 1.74805 -7.05078 C 1.74805 -1.60156 6.26953 2.91016 11.709 2.91016 Z M 11.709 1.25 C 7.09961 1.25 3.41797 -2.44141 3.41797 -7.05078 C 3.41797 -11.6504 7.08984 -15.3516 11.6992 -15.3516 C 16.3086 -15.3516 20 -11.6504 20.0098 -7.05078 C 20.0195 -2.44141 16.3184 1.25 11.709 1.25 Z M 11.6895 -2.41211 C 12.207 -2.41211 12.5195 -2.77344 12.5195 -3.33984 L 12.5195 -6.23047 L 15.5762 -6.23047 C 16.123 -6.23047 16.5039 -6.51367 16.5039 -7.03125 C 16.5039 -7.55859 16.1426 -7.86133 15.5762 -7.86133 L 12.5195 -7.86133 L 12.5195 -10.9277 C 12.5195 -11.5039 12.207 -11.8555 11.6895 -11.8555 C 11.1719 -11.8555 10.8789 -11.4844 10.8789 -10.9277 L 10.8789 -7.86133 L 7.83203 -7.86133 C 7.26562 -7.86133 6.89453 -7.55859 6.89453 -7.03125 C 6.89453 -6.51367 7.28516 -6.23047 7.83203 -6.23047 L 10.8789 -6.23047 L 10.8789 -3.33984 C 10.8789 -2.79297 11.1719 -2.41211 11.6895 -2.41211 Z"/>
  </g>
  <g id="" transform="matrix(1 0 0 1 304.924 1933)">
   <path d="M 14.9707 5.67383 C 21.9336 5.67383 27.6953 -0.078125 27.6953 -7.04102 C 27.6953 -14.0039 21.9238 -19.7559 14.9609 -19.7559 C 8.00781 -19.7559 2.25586 -14.0039 2.25586 -7.04102 C 2.25586 -0.078125 8.01758 5.67383 14.9707 5.67383 Z M 14.9707 3.85742 C 8.93555 3.85742 4.08203 -1.00586 4.08203 -7.04102 C 4.08203 -13.0762 8.92578 -17.9395 14.9609 -17.9395 C 21.0059 -17.9395 25.8594 -13.0762 25.8691 -7.04102 C 25.8789 -1.00586 21.0156 3.85742 14.9707 3.85742 Z M 14.9512 -1.06445 C 15.5176 -1.06445 15.8691 -1.45508 15.8691 -2.06055 L 15.8691 -6.13281 L 20.1074 -6.13281 C 20.6934 -6.13281 21.1133 -6.46484 21.1133 -7.02148 C 21.1133 -7.59766 20.7227 -7.93945 20.1074 -7.93945 L 15.8691 -7.93945 L 15.8691 -12.1875 C 15.8691 -12.8027 15.5176 -13.1934 14.9512 -13.1934 C 14.3848 -13.1934 14.0625 -12.7832 14.0625 -12.1875 L 14.0625 -7.93945 L 9.83398 -7.93945 C 9.21875 -7.93945 8.80859 -7.59766 8.80859 -7.02148 C 8.80859 -6.46484 9.23828 -6.13281 9.83398 -6.13281 L 14.0625 -6.13281 L 14.0625 -2.06055 C 14.0625 -1.47461 14.3848 -1.06445 14.9512 -1.06445 Z"/>
  </g>
  <text style="stroke:none;fill:black;font-family:-apple-system,&quot;SF Pro Display&quot;,&quot;SF Pro Text&quot;,Helvetica,sans-serif;font-weight:bold;" transform="matrix(1 0 0 1 263 1953)">Design Variations</text>
  <text style="stroke:none;fill:black;font-family:-apple-system,&quot;SF Pro Display&quot;,&quot;SF Pro Text&quot;,Helvetica,sans-serif;" transform="matrix(1 0 0 1 263 1971)">Symbols are supported in up to nine weights and three scales.</text>
  <text style="stroke:none;fill:black;font-family:-apple-system,&quot;SF Pro Display&quot;,&quot;SF Pro Text&quot;,Helvetica,sans-serif;" transform="matrix(1 0 0 1 263 1989)">For optimal layout with text and other symbols, vertically align</text>
  <text style="stroke:none;fill:black;font-family:-apple-system,&quot;SF Pro Display&quot;,&quot;SF Pro Text&quot;,Helvetica,sans-serif;" transform="matrix(1 0 0 1 263 2007)">symbols with the adjacent text.</text>
  <rect height="14" id="" style="fill:#00AEEF;stroke:none;opacity:0.4;" width="3" x="776" y="1919"/>
  <g id="" transform="matrix(1 0 0 1 779 1933)">
   <path d="M 10.5273 0 L 12.373 0 L 7.17773 -14.0918 L 5.43945 -14.0918 L 0.244141 0 L 2.08984 0 L 3.50586 -4.0332 L 9.11133 -4.0332 Z M 6.2793 -11.9531 L 6.33789 -11.9531 L 8.59375 -5.52734 L 4.02344 -5.52734 Z"/>
  </g>
  <rect height="14" id="" style="fill:#00AEEF;stroke:none;opacity:0.4;" width="3" x="791.617" y="1919"/>
  <text style="stroke:none;fill:black;font-family:-apple-system,&quot;SF Pro Display&quot;,&quot;SF Pro Text&quot;,Helvetica,sans-serif;font-weight:bold;" transform="matrix(1 0 0 1 776 1953)">Margins</text>
  <text style="stroke:none;fill:black;font-family:-apple-system,&quot;SF Pro Display&quot;,&quot;SF Pro Text&quot;,Helvetica,sans-serif;" transform="matrix(1 0 0 1 776 1971)">Leading and trailing margins on the left and right side of each symbol</text>
  <text style="stroke:none;fill:black;font-family:-apple-system,&quot;SF Pro Display&quot;,&quot;SF Pro Text&quot;,Helvetica,sans-serif;" transform="matrix(1 0 0 1 776 1989)">can be adjusted by modifying the width of the blue rectangles.</text>
  <text style="stroke:none;fill:black;font-family:-apple-system,&quot;SF Pro Display&quot;,&quot;SF Pro Text&quot;,Helvetica,sans-serif;" transform="matrix(1 0 0 1 776 2007)">Modifications are automatically applied proportionally to all</text>
  <text style="stroke:none;fill:black;font-family:-apple-system,&quot;SF Pro Display&quot;,&quot;SF Pro Text&quot;,Helvetica,sans-serif;" transform="matrix(1 0 0 1 776 2025)">scales and weights.</text>
  <g id="" transform="matrix(1 0 0 1 1289 1933)">
   <path d="M 2.83203 3.11523 L 4.375 4.6582 C 5.22461 5.48828 6.19141 5.41992 7.06055 4.46289 L 17.2754 -6.66016 C 17.7051 -6.36719 18.0957 -6.37695 18.5645 -6.47461 L 19.6094 -6.68945 L 20.3027 -5.99609 L 20.2539 -5.47852 C 20.1855 -4.95117 20.3516 -4.53125 20.8496 -4.0332 L 21.6602 -3.22266 C 22.168 -2.71484 22.8223 -2.68555 23.3008 -3.16406 L 26.5527 -6.41602 C 27.0312 -6.89453 27.0117 -7.54883 26.5039 -8.05664 L 25.6836 -8.87695 C 25.1855 -9.375 24.7754 -9.55078 24.2383 -9.47266 L 23.7109 -9.41406 L 23.0566 -10.0781 L 23.3398 -11.2207 C 23.4863 -11.7871 23.3398 -12.2559 22.7148 -12.8613 L 20.3027 -15.2539 C 16.7578 -18.7793 12.2266 -18.6719 9.11133 -15.5371 C 8.69141 -15.1074 8.64258 -14.5215 8.91602 -14.0918 C 9.15039 -13.7207 9.62891 -13.4961 10.2734 -13.6621 C 11.7871 -14.043 13.3008 -13.9258 14.7852 -12.9199 L 14.1602 -11.3379 C 13.9258 -10.752 13.9453 -10.2734 14.1797 -9.83398 L 3.01758 0.439453 C 2.08008 1.30859 1.97266 2.25586 2.83203 3.11523 Z M 10.6738 -15.1465 C 13.3398 -17.1387 16.6504 -16.8262 19.0527 -14.4141 L 21.6797 -11.8066 C 21.9141 -11.5723 21.9434 -11.3867 21.8848 -11.0938 L 21.5039 -9.53125 L 23.0762 -7.95898 L 24.043 -8.04688 C 24.3262 -8.07617 24.4141 -8.05664 24.6387 -7.83203 L 25.2637 -7.20703 L 22.5098 -4.46289 L 21.8848 -5.07812 C 21.6602 -5.30273 21.6406 -5.40039 21.6699 -5.68359 L 21.7578 -6.64062 L 20.1953 -8.20312 L 18.5742 -7.89062 C 18.291 -7.83203 18.1445 -7.83203 17.9102 -8.07617 L 15.7324 -10.2539 C 15.5078 -10.4883 15.4785 -10.625 15.6055 -10.9473 L 16.5527 -13.2227 C 14.9512 -14.7559 12.8418 -15.6055 10.8008 -14.9512 C 10.7129 -14.9219 10.6445 -14.9414 10.6152 -14.9805 C 10.5859 -15.0293 10.5859 -15.0781 10.6738 -15.1465 Z M 4.10156 2.41211 C 3.61328 1.91406 3.78906 1.61133 4.12109 1.30859 L 15.0781 -8.80859 L 16.3086 -7.57812 L 6.15234 3.34961 C 5.84961 3.68164 5.46875 3.7793 5.06836 3.37891 Z"/>
  </g>
  <text style="stroke:none;fill:black;font-family:-apple-system,&quot;SF Pro Display&quot;,&quot;SF Pro Text&quot;,Helvetica,sans-serif;font-weight:bold;" transform="matrix(1 0 0 1 1289 1953)">Exporting</text>
  <text style="stroke:none;fill:black;font-family:-apple-system,&quot;SF Pro Display&quot;,&quot;SF Pro Text&quot;,Helvetica,sans-serif;" transform="matrix(1 0 0 1 1289 1971)">Symbols should be outlined when exporting to ensure the</text>
  <text style="stroke:none;fill:black;font-family:-apple-system,&quot;SF Pro Display&quot;,&quot;SF Pro Text&quot;,Helvetica,sans-serif;" transform="matrix(1 0 0 1 1289 1989)">design is preserved when submitting to Xcode.</text>
  <text id="template-version" style="stroke:none;fill:black;font-family:-apple-system,&quot;SF Pro Display&quot;,&quot;SF Pro Text&quot;,Helvetica,sans-serif;text-anchor:end;" transform="matrix(1 0 0 1 3036 1933)">Template v.1.0</text>
  <text style="stroke:none;fill:black;font-family:-apple-system,&quot;SF Pro Display&quot;,&quot;SF Pro Text&quot;,Helvetica,sans-serif;text-anchor:end;" transform="matrix(1 0 0 1 3036 1951)">Generated from arrowtriangle.right.circle.fill</text>
  <text style="stroke:none;fill:black;font-family:-apple-system,&quot;SF Pro Display&quot;,&quot;SF Pro Text&quot;,Helvetica,sans-serif;text-anchor:end;" transform="matrix(1 0 0 1 3036 1969)">Typeset at 100 points</text>
  <text style="stroke:none;fill:black;font-family:-apple-system,&quot;SF Pro Display&quot;,&quot;SF Pro Text&quot;,Helvetica,sans-serif;" transform="matrix(1 0 0 1 263 726)">Small</text>
  <text style="stroke:none;fill:black;font-family:-apple-system,&quot;SF Pro Display&quot;,&quot;SF Pro Text&quot;,Helvetica,sans-serif;" transform="matrix(1 0 0 1 263 1156)">Medium</text>
  <text style="stroke:none;fill:black;font-family:-apple-system,&quot;SF Pro Display&quot;,&quot;SF Pro Text&quot;,Helvetica,sans-serif;" transform="matrix(1 0 0 1 263 1586)">Large</text>
 </g>
 <g id="Guides">
  <g id="H-reference" style="fill:#27AAE1;stroke:none;" transform="matrix(1 0 0 1 339 696)">
   <path d="M 54.9316 0 L 57.666 0 L 30.5664 -70.459 L 28.0762 -70.459 L 0.976562 0 L 3.66211 0 L 12.9395 -24.4629 L 45.7031 -24.4629 Z M 29.1992 -67.0898 L 29.4434 -67.0898 L 44.8242 -26.709 L 13.8184 -26.709 Z"/>
  </g>
  <line id="Baseline-S" style="fill:none;stroke:#27AAE1;opacity:1;stroke-width:0.577;" x1="263" x2="3036" y1="696" y2="696"/>
  <line id="Capline-S" style="fill:none;stroke:#27AAE1;opacity:1;stroke-width:0.577;" x1="263" x2="3036" y1="625.541" y2="625.541"/>
  <g id="H-reference" style="fill:#27AAE1;stroke:none;" transform="matrix(1 0 0 1 339 1126)">
   <path d="M 54.9316 0 L 57.666 0 L 30.5664 -70.459 L 28.0762 -70.459 L 0.976562 0 L 3.66211 0 L 12.9395 -24.4629 L 45.7031 -24.4629 Z M 29.1992 -67.0898 L 29.4434 -67.0898 L 44.8242 -26.709 L 13.8184 -26.709 Z"/>
  </g>
  <line id="Baseline-M" style="fill:none;stroke:#27AAE1;opacity:1;stroke-width:0.577;" x1="263" x2="3036" y1="1126" y2="1126"/>
  <line id="Capline-M" style="fill:none;stroke:#27AAE1;opacity:1;stroke-width:0.577;" x1="263" x2="3036" y1="1055.54" y2="1055.54"/>
  <g id="H-reference" style="fill:#27AAE1;stroke:none;" transform="matrix(1 0 0 1 339 1556)">
   <path d="M 54.9316 0 L 57.666 0 L 30.5664 -70.459 L 28.0762 -70.459 L 0.976562 0 L 3.66211 0 L 12.9395 -24.4629 L 45.7031 -24.4629 Z M 29.1992 -67.0898 L 29.4434 -67.0898 L 44.8242 -26.709 L 13.8184 -26.709 Z"/>
  </g>
  <line id="Baseline-L" style="fill:none;stroke:#27AAE1;opacity:1;stroke-width:0.577;" x1="263" x2="3036" y1="1556" y2="1556"/>
  <line id="Capline-L" style="fill:none;stroke:#27AAE1;opacity:1;stroke-width:0.577;" x1="263" x2="3036" y1="1485.54" y2="1485.54"/>
  <rect height="119.336" id="left-margin" style="fill:#00AEEF;stroke:none;opacity:0.4;" width="8.74023" x="1391.3" y="1030.79"/>
  <rect height="119.336" id="right-margin" style="fill:#00AEEF;stroke:none;opacity:0.4;" width="8.74023" x="1499.65" y="1030.79"/>
 </g>
 <g id="Symbols">
  <g id="Black-L" transform="matrix(1 0 0 1 2854.05 1556)">
   <path d="M 79.3457 32.8613 C 116.748 32.8613 147.412 2.19727 147.412 -35.2051 C 147.412 -72.6074 116.748 -103.271 79.2969 -103.271 C 41.8945 -103.271 11.2793 -72.6074 11.2793 -35.2051 C 11.2793 2.19727 41.9434 32.8613 79.3457 32.8613 Z M 68.1152 -10.5469 C 65.0879 -8.83789 61.4258 -10.498 61.4258 -13.7207 L 61.4258 -56.7383 C 61.4258 -59.9609 65.1367 -61.6211 68.1152 -59.9609 L 104.443 -38.8672 C 107.178 -37.2559 107.178 -33.1543 104.443 -31.543 Z"/>
  </g>
  <g id="Heavy-L" transform="matrix(1 0 0 1 2558.39 1556)">
   <path d="M 78.2715 31.7871 C 115.088 31.7871 145.312 1.61133 145.312 -35.2051 C 145.312 -72.0215 115.039 -102.197 78.2715 -102.197 C 41.4551 -102.197 11.2793 -72.0215 11.2793 -35.2051 C 11.2793 1.61133 41.5039 31.7871 78.2715 31.7871 Z M 66.9434 -10.5469 C 63.9648 -8.83789 60.4492 -10.4492 60.4492 -13.5742 L 60.4492 -56.8848 C 60.4492 -60.0098 64.0625 -61.5723 66.9434 -59.9121 L 103.174 -38.7207 C 105.859 -37.1582 105.859 -33.252 103.174 -31.6406 Z"/>
  </g>
  <g id="Bold-L" transform="matrix(1 0 0 1 2262.88 1556)">
   <path d="M 77.0996 30.6152 C 113.232 30.6152 142.92 0.878906 142.92 -35.2051 C 142.92 -71.3379 113.184 -101.025 77.0508 -101.025 C 40.9668 -101.025 11.2793 -71.3379 11.2793 -35.2051 C 11.2793 0.878906 41.0156 30.6152 77.0996 30.6152 Z M 65.625 -10.5957 C 62.7441 -8.88672 59.3262 -10.4004 59.3262 -13.4277 L 59.3262 -57.0801 C 59.3262 -60.0586 62.8418 -61.5234 65.625 -59.9121 L 101.758 -38.623 C 104.346 -37.1094 104.395 -33.3008 101.758 -31.7383 Z"/>
  </g>
  <g id="Semibold-L" transform="matrix(1 0 0 1 1966.97 1556)">
   <path d="M 76.2695 29.7852 C 111.914 29.7852 141.309 0.439453 141.309 -35.2051 C 141.309 -70.8496 111.865 -100.244 76.2695 -100.244 C 40.625 -100.244 11.2793 -70.8496 11.2793 -35.2051 C 11.2793 0.439453 40.6738 29.7852 76.2695 29.7852 Z M 64.6973 -10.5957 C 61.8652 -8.88672 58.5938 -10.3516 58.5938 -13.2812 L 58.5938 -57.1777 C 58.5938 -60.1074 62.0117 -61.4746 64.6973 -59.8633 L 100.781 -38.5254 C 103.369 -37.0117 103.369 -33.3496 100.781 -31.8359 Z"/>
  </g>
  <g id="Medium-L" transform="matrix(1 0 0 1 1670.87 1556)">
   <path d="M 75.6836 29.1992 C 110.938 29.1992 140.088 0.0488281 140.088 -35.2051 C 140.088 -70.459 110.889 -99.6094 75.6348 -99.6094 C 40.3809 -99.6094 11.2793 -70.459 11.2793 -35.2051 C 11.2793 0.0488281 40.3809 29.1992 75.6836 29.1992 Z M 64.0137 -10.5957 C 61.2305 -8.93555 58.0078 -10.3027 58.0078 -13.1836 L 58.0078 -57.2754 C 58.0078 -60.1074 61.377 -61.4258 64.0137 -59.8633 L 100.049 -38.4766 C 102.588 -36.9629 102.637 -33.3984 100.049 -31.8848 Z"/>
  </g>
  <g id="Regular-L" transform="matrix(1 0 0 1 1374.97 1556)">
   <path d="M 74.8535 28.3691 C 109.668 28.3691 138.477 -0.390625 138.477 -35.2051 C 138.477 -70.0195 109.619 -98.7793 74.8047 -98.7793 C 40.0391 -98.7793 11.2793 -70.0195 11.2793 -35.2051 C 11.2793 -0.390625 40.0879 28.3691 74.8535 28.3691 Z M 63.1348 -10.5957 C 60.4004 -8.93555 57.2754 -10.2539 57.2754 -13.0859 L 57.2754 -57.373 C 57.2754 -60.1562 60.5469 -61.377 63.1348 -59.8633 L 99.0723 -38.3789 C 101.562 -36.9141 101.611 -33.4473 99.0723 -31.9336 Z"/>
  </g>
  <g id="Light-L" transform="matrix(1 0 0 1 1079.18 1556)">
   <path d="M 73.9258 27.4902 C 108.301 27.4902 136.621 -0.830078 136.621 -35.1562 C 136.621 -69.5312 108.252 -97.8516 73.9258 -97.8516 C 39.5508 -97.8516 11.2793 -69.5312 11.2793 -35.1562 C 11.2793 -0.830078 39.5996 27.4902 73.9258 27.4902 Z M 61.8652 -10.1074 C 59.375 -8.59375 56.4941 -9.86328 56.4941 -12.4023 L 56.4941 -58.0078 C 56.4941 -60.5469 59.4727 -61.7676 61.8652 -60.3027 L 98.6328 -38.1836 C 100.977 -36.7676 101.025 -33.5449 98.6328 -32.0801 Z"/>
  </g>
  <g id="Thin-L" transform="matrix(1 0 0 1 783.693 1556)">
   <path d="M 72.7051 26.3184 C 106.494 26.3184 134.18 -1.36719 134.18 -35.1074 C 134.18 -68.8965 106.494 -96.582 72.7051 -96.582 C 38.9648 -96.582 11.2793 -68.8965 11.2793 -35.1074 C 11.2793 -1.36719 38.9648 26.3184 72.7051 26.3184 Z M 60.2051 -9.47266 C 58.0566 -8.1543 55.4688 -9.27734 55.4688 -11.5234 L 55.4688 -58.8379 C 55.4688 -61.084 58.0566 -62.2559 60.2051 -60.9375 L 97.998 -37.8906 C 100.195 -36.5234 100.195 -33.6426 97.998 -32.2266 Z"/>
  </g>
  <g id="Ultralight-L" transform="matrix(1 0 0 1 487.616 1556)">
   <path d="M 72.1191 25.7324 C 105.566 25.7324 132.91 -1.61133 132.91 -35.1074 C 132.91 -68.5547 105.566 -95.8984 72.1191 -95.8984 C 38.623 -95.8984 11.2793 -68.5547 11.2793 -35.1074 C 11.2793 -1.61133 38.623 25.7324 72.1191 25.7324 Z M 59.375 -9.13086 C 57.373 -7.91016 54.9316 -8.98438 54.9316 -11.084 L 54.9316 -59.2773 C 54.9316 -61.377 57.3242 -62.5 59.375 -61.2305 L 97.6562 -37.793 C 99.8047 -36.4258 99.8047 -33.6914 97.6562 -32.3242 Z"/>
  </g>
  <g id="Black-M" transform="matrix(1 0 0 1 2870.97 1126)">
   <path d="M 62.4023 18.457 C 91.9922 18.457 116.113 -5.61523 116.113 -35.2051 C 116.113 -64.7949 91.9922 -88.8672 62.4023 -88.8672 C 32.8125 -88.8672 8.74023 -64.7949 8.74023 -35.2051 C 8.74023 -5.61523 32.8125 18.457 62.4023 18.457 Z M 53.7109 -15.8691 C 51.3672 -14.5508 48.5352 -15.918 48.5352 -18.4082 L 48.5352 -52.0508 C 48.5352 -54.541 51.3672 -55.957 53.7109 -54.6875 L 82.4219 -38.0859 C 84.5215 -36.8164 84.5215 -33.5938 82.4219 -32.3242 Z"/>
  </g>
  <g id="Heavy-M" transform="matrix(1 0 0 1 2575.19 1126)">
   <path d="M 61.5234 17.5781 C 90.5273 17.5781 114.258 -6.15234 114.258 -35.2051 C 114.258 -64.2578 90.5273 -87.9883 61.4746 -87.9883 C 32.4707 -87.9883 8.74023 -64.2578 8.74023 -35.2051 C 8.74023 -6.15234 32.4707 17.5781 61.5234 17.5781 Z M 52.7344 -15.9668 C 50.4395 -14.6484 47.6562 -15.9668 47.6562 -18.4082 L 47.6562 -52.0508 C 47.6562 -54.4922 50.4883 -55.8105 52.7344 -54.541 L 81.1523 -37.9883 C 83.252 -36.7676 83.252 -33.6426 81.1523 -32.373 Z"/>
  </g>
  <g id="Bold-M" transform="matrix(1 0 0 1 2279.5 1126)">
   <path d="M 60.498 16.5039 C 88.8672 16.5039 112.207 -6.78711 112.207 -35.2051 C 112.207 -63.623 88.8672 -86.9629 60.4492 -86.9629 C 32.0312 -86.9629 8.74023 -63.623 8.74023 -35.2051 C 8.74023 -6.78711 32.0801 16.5039 60.498 16.5039 Z M 51.6602 -16.1133 C 49.3652 -14.7949 46.6797 -16.0156 46.6797 -18.457 L 46.6797 -52.0508 C 46.6797 -54.4434 49.4629 -55.6152 51.6602 -54.3457 L 79.7363 -37.9395 C 81.7871 -36.7188 81.7871 -33.6914 79.7363 -32.4707 Z"/>
  </g>
  <g id="Semibold-M" transform="matrix(1 0 0 1 1983.5 1126)">
   <path d="M 59.7656 15.8203 C 87.7441 15.8203 110.791 -7.22656 110.791 -35.2051 C 110.791 -63.1836 87.6953 -86.2793 59.7656 -86.2793 C 31.7871 -86.2793 8.74023 -63.1836 8.74023 -35.2051 C 8.74023 -7.22656 31.7871 15.8203 59.7656 15.8203 Z M 50.9277 -16.2109 C 48.6816 -14.8926 45.9961 -16.0645 45.9961 -18.457 L 45.9961 -52.0508 C 45.9961 -54.3945 48.7793 -55.5176 50.9277 -54.248 L 78.7598 -37.8906 C 80.8105 -36.6699 80.8105 -33.7402 78.7598 -32.5195 Z"/>
  </g>
  <g id="Medium-M" transform="matrix(1 0 0 1 1687.3 1126)">
   <path d="M 59.2285 15.2832 C 86.9141 15.2832 109.766 -7.56836 109.766 -35.2051 C 109.766 -62.8906 86.8652 -85.7422 59.1797 -85.7422 C 31.543 -85.7422 8.74023 -62.8906 8.74023 -35.2051 C 8.74023 -7.56836 31.5918 15.2832 59.2285 15.2832 Z M 50.3906 -16.3086 C 48.0957 -14.9902 45.5078 -16.1133 45.5078 -18.457 L 45.5078 -52.0508 C 45.5078 -54.3457 48.2422 -55.4199 50.3906 -54.1504 L 78.0273 -37.8418 C 80.0293 -36.6699 80.0781 -33.7891 78.0273 -32.5684 Z"/>
  </g>
  <g id="Regular-M" transform="matrix(1 0 0 1 1391.3 1126)">
   <path d="M 58.5449 14.5508 C 85.791 14.5508 108.35 -8.00781 108.35 -35.2539 C 108.35 -62.4512 85.7422 -85.0586 58.4961 -85.0586 C 31.2988 -85.0586 8.74023 -62.4512 8.74023 -35.2539 C 8.74023 -8.00781 31.3477 14.5508 58.5449 14.5508 Z M 49.6582 -16.4062 C 47.3633 -15.0391 44.8242 -16.1133 44.8242 -18.457 L 44.8242 -52.0508 C 44.8242 -54.2969 47.5098 -55.2734 49.6582 -54.0527 L 77.0508 -37.793 C 79.0527 -36.6211 79.1016 -33.8379 77.0508 -32.6172 Z"/>
  </g>
  <g id="Light-M" transform="matrix(1 0 0 1 1095.42 1126)">
   <path d="M 57.7148 13.7695 C 84.5215 13.7695 106.689 -8.39844 106.689 -35.2051 C 106.689 -62.0117 84.5215 -84.1797 57.666 -84.1797 C 30.8594 -84.1797 8.74023 -62.0117 8.74023 -35.2051 C 8.74023 -8.39844 30.9082 13.7695 57.7148 13.7695 Z M 48.5352 -15.9668 C 46.4844 -14.7461 44.1406 -15.7227 44.1406 -17.8711 L 44.1406 -52.6367 C 44.1406 -54.6875 46.582 -55.6152 48.5352 -54.4434 L 76.6602 -37.5977 C 78.5156 -36.4746 78.5645 -33.8867 76.6602 -32.7148 Z"/>
  </g>
  <g id="Thin-M" transform="matrix(1 0 0 1 799.806 1126)">
   <path d="M 56.6406 12.7441 C 82.9102 12.7441 104.492 -8.83789 104.492 -35.1562 C 104.492 -61.4746 82.9102 -83.0566 56.5918 -83.0566 C 30.3223 -83.0566 8.74023 -61.4746 8.74023 -35.1562 C 8.74023 -8.83789 30.3223 12.7441 56.6406 12.7441 Z M 47.0215 -15.3809 C 45.2637 -14.3066 43.2129 -15.2344 43.2129 -17.041 L 43.2129 -53.3691 C 43.2129 -55.1758 45.3125 -56.0547 47.0215 -55.0293 L 76.0742 -37.3535 C 77.832 -36.2793 77.832 -33.9844 76.0742 -32.8613 Z"/>
  </g>
  <g id="Ultralight-M" transform="matrix(1 0 0 1 503.656 1126)">
   <path d="M 56.0547 12.207 C 82.0801 12.207 103.369 -9.08203 103.369 -35.1562 C 103.369 -61.1816 82.0801 -82.4707 56.0547 -82.4707 C 30.0293 -82.4707 8.74023 -61.1816 8.74023 -35.1562 C 8.74023 -9.08203 30.0293 12.207 56.0547 12.207 Z M 46.2402 -15.0879 C 44.6289 -14.1113 42.7246 -14.9902 42.7246 -16.6504 L 42.7246 -53.7598 C 42.7246 -55.4199 44.6289 -56.2988 46.2402 -55.2734 L 75.7812 -37.2559 C 77.4414 -36.1816 77.4414 -34.0332 75.7812 -32.959 Z"/>
  </g>
  <g id="Black-S" transform="matrix(1 0 0 1 2884.57 696)">
   <path d="M 48.8281 6.78711 C 71.9727 6.78711 90.8203 -12.0605 90.8203 -35.2051 C 90.8203 -58.3496 71.9727 -77.1973 48.8281 -77.1973 C 25.6836 -77.1973 6.83594 -58.3496 6.83594 -35.2051 C 6.83594 -12.0605 25.6836 6.78711 48.8281 6.78711 Z M 41.9922 -20.0684 C 40.1855 -19.043 37.9395 -20.1172 37.9395 -22.0703 L 37.9395 -48.3887 C 37.9395 -50.3418 40.1855 -51.4648 41.9922 -50.4395 L 64.4531 -37.4512 C 66.1133 -36.4746 66.1133 -33.9355 64.4531 -32.959 Z"/>
  </g>
  <g id="Heavy-S" transform="matrix(1 0 0 1 2588.47 696)">
   <path d="M 48.2422 6.15234 C 70.9961 6.15234 89.5996 -12.4512 89.5996 -35.2051 C 89.5996 -57.959 70.9961 -76.6113 48.1934 -76.6113 C 25.4395 -76.6113 6.83594 -57.959 6.83594 -35.2051 C 6.83594 -12.4512 25.4395 6.15234 48.2422 6.15234 Z M 41.4062 -20.2148 C 39.5508 -19.1895 37.3535 -20.2148 37.3535 -22.1191 L 37.3535 -48.3398 C 37.3535 -50.2441 39.5996 -51.3184 41.4062 -50.293 L 63.5254 -37.4023 C 65.1855 -36.4746 65.1855 -33.9844 63.5254 -33.0078 Z"/>
  </g>
  <g id="Bold-S" transform="matrix(1 0 0 1 2292.44 696)">
   <path d="M 47.5586 5.46875 C 69.873 5.46875 88.2324 -12.8906 88.2324 -35.2051 C 88.2324 -57.5684 69.873 -75.9277 47.5098 -75.9277 C 25.1953 -75.9277 6.83594 -57.5684 6.83594 -35.2051 C 6.83594 -12.8906 25.1953 5.46875 47.5586 5.46875 Z M 40.7227 -20.3613 C 38.8672 -19.3359 36.6699 -20.2637 36.6699 -22.2168 L 36.6699 -48.2422 C 36.6699 -50.1953 38.916 -51.123 40.7227 -50.0977 L 62.5 -37.4023 C 64.1602 -36.4258 64.1602 -34.0332 62.5 -33.0566 Z"/>
  </g>
  <g id="Semibold-S" transform="matrix(1 0 0 1 1996.2 696)">
   <path d="M 47.0703 4.98047 C 69.0918 4.98047 87.3047 -13.1836 87.3047 -35.2539 C 87.3047 -57.2754 69.0918 -75.4883 47.0215 -75.4883 C 25 -75.4883 6.83594 -57.2754 6.83594 -35.2539 C 6.83594 -13.1836 25.0488 4.98047 47.0703 4.98047 Z M 40.2344 -20.5078 C 38.3789 -19.4336 36.2305 -20.3613 36.2305 -22.2656 L 36.2305 -48.1934 C 36.2305 -50.0977 38.4766 -50.9766 40.2344 -50 L 61.8164 -37.3535 C 63.4277 -36.4258 63.4766 -34.0332 61.8164 -33.0566 Z"/>
  </g>
  <g id="Medium-S" transform="matrix(1 0 0 1 1699.83 696)">
   <path d="M 46.7285 4.63867 C 68.5547 4.63867 86.6211 -13.4277 86.6211 -35.2539 C 86.6211 -57.0312 68.5059 -75.1465 46.6797 -75.1465 C 24.8535 -75.1465 6.83594 -57.0312 6.83594 -35.2539 C 6.83594 -13.4277 24.9023 4.63867 46.7285 4.63867 Z M 39.8926 -20.5566 C 38.0371 -19.4824 35.8887 -20.4102 35.8887 -22.3145 L 35.8887 -48.1934 C 35.8887 -50.0488 38.1348 -50.9277 39.8926 -49.9023 L 61.2793 -37.3535 C 62.8906 -36.4258 62.9395 -34.082 61.2793 -33.1055 Z"/>
  </g>
  <g id="Regular-S" transform="matrix(1 0 0 1 1403.58 696)">
   <path d="M 46.2402 4.15039 C 67.7734 4.15039 85.6934 -13.7207 85.6934 -35.2539 C 85.6934 -56.7871 67.7246 -74.6582 46.1914 -74.6582 C 24.707 -74.6582 6.83594 -56.7871 6.83594 -35.2539 C 6.83594 -13.7207 24.7559 4.15039 46.2402 4.15039 Z M 39.4043 -20.7031 C 37.5488 -19.5801 35.4492 -20.459 35.4492 -22.3633 L 35.4492 -48.1445 C 35.4492 -50 37.6953 -50.7812 39.4043 -49.7559 L 60.5957 -37.3047 C 62.1582 -36.4258 62.207 -34.082 60.5957 -33.1055 Z"/>
  </g>
  <g id="Light-S" transform="matrix(1 0 0 1 1107.6 696)">
   <path d="M 45.5078 3.4668 C 66.6992 3.4668 84.2285 -14.0625 84.2285 -35.2051 C 84.2285 -56.3965 66.6504 -73.9258 45.5078 -73.9258 C 24.3164 -73.9258 6.83594 -56.3965 6.83594 -35.2051 C 6.83594 -14.0625 24.3652 3.4668 45.5078 3.4668 Z M 38.4277 -20.3125 C 36.7676 -19.2871 34.8145 -20.1172 34.8145 -21.8262 L 34.8145 -48.6328 C 34.8145 -50.3418 36.8652 -51.0742 38.4277 -50.1465 L 60.2051 -37.1582 C 61.7188 -36.2793 61.7188 -34.1309 60.2051 -33.2031 Z"/>
  </g>
  <g id="Thin-S" transform="matrix(1 0 0 1 811.867 696)">
   <path d="M 44.5801 2.53906 C 65.2832 2.53906 82.2754 -14.4531 82.2754 -35.2051 C 82.2754 -55.9082 65.2344 -72.9004 44.5312 -72.9004 C 23.8281 -72.9004 6.83594 -55.9082 6.83594 -35.2051 C 6.83594 -14.4531 23.877 2.53906 44.5801 2.53906 Z M 37.1094 -19.8242 C 35.6934 -18.9453 34.0332 -19.6777 34.0332 -21.1426 L 34.0332 -49.2676 C 34.0332 -50.7324 35.7422 -51.4648 37.1094 -50.6348 L 59.7168 -36.9629 C 61.084 -36.084 61.084 -34.2285 59.7168 -33.3496 Z"/>
  </g>
  <g id="Ultralight-S" transform="matrix(1 0 0 1 515.644 696)">
   <path d="M 44.043 2.05078 C 64.502 2.05078 81.2988 -14.6973 81.2988 -35.1562 C 81.2988 -55.6152 64.502 -72.3633 44.043 -72.3633 C 23.584 -72.3633 6.83594 -55.6152 6.83594 -35.1562 C 6.83594 -14.6973 23.584 2.05078 44.043 2.05078 Z M 36.4258 -19.5312 C 35.1562 -18.75 33.5938 -19.4336 33.5938 -20.8008 L 33.5938 -49.6094 C 33.5938 -50.9766 35.1562 -51.6602 36.4258 -50.8789 L 59.4238 -36.8652 C 60.7422 -35.9863 60.791 -34.2773 59.4238 -33.4473 Z"/>
  </g>
 </g>
</svg>
