<?xml version="1.0" encoding="UTF-8"?>
<!--Generator: Apple Native CoreSVG 123-->
<!DOCTYPE svg
PUBLIC "-//W3C//DTD SVG 1.1//EN"
       "http://www.w3.org/Graphics/SVG/1.1/DTD/svg11.dtd">
<svg version="1.1" xmlns="http://www.w3.org/2000/svg" xmlns:xlink="http://www.w3.org/1999/xlink" width="3300" height="2200">
 <!--glyph: "uni1003CC.medium", point size: 100.000000, font version: "Version 15.0d7e11", template writer version: "5"-->
 <g id="Notes">
  <rect height="2200" id="artboard" style="fill:white;opacity:1" width="3300" x="0" y="0"/>
  <line id="" style="fill:none;stroke:black;opacity:1;stroke-width:0.5;" x1="263" x2="3036" y1="292" y2="292"/>
  <text style="stroke:none;fill:black;font-family:-apple-system,&quot;SF Pro Display&quot;,&quot;SF Pro Text&quot;,Helvetica,sans-serif;font-weight:bold;" transform="matrix(1 0 0 1 263 322)">Weight/Scale Variations</text>
  <text style="stroke:none;fill:black;font-family:-apple-system,&quot;SF Pro Display&quot;,&quot;SF Pro Text&quot;,Helvetica,sans-serif;text-anchor:middle;" transform="matrix(1 0 0 1 559.711 322)">Ultralight</text>
  <text style="stroke:none;fill:black;font-family:-apple-system,&quot;SF Pro Display&quot;,&quot;SF Pro Text&quot;,Helvetica,sans-serif;text-anchor:middle;" transform="matrix(1 0 0 1 856.422 322)">Thin</text>
  <text style="stroke:none;fill:black;font-family:-apple-system,&quot;SF Pro Display&quot;,&quot;SF Pro Text&quot;,Helvetica,sans-serif;text-anchor:middle;" transform="matrix(1 0 0 1 1153.13 322)">Light</text>
  <text style="stroke:none;fill:black;font-family:-apple-system,&quot;SF Pro Display&quot;,&quot;SF Pro Text&quot;,Helvetica,sans-serif;text-anchor:middle;" transform="matrix(1 0 0 1 1449.84 322)">Regular</text>
  <text style="stroke:none;fill:black;font-family:-apple-system,&quot;SF Pro Display&quot;,&quot;SF Pro Text&quot;,Helvetica,sans-serif;text-anchor:middle;" transform="matrix(1 0 0 1 1746.56 322)">Medium</text>
  <text style="stroke:none;fill:black;font-family:-apple-system,&quot;SF Pro Display&quot;,&quot;SF Pro Text&quot;,Helvetica,sans-serif;text-anchor:middle;" transform="matrix(1 0 0 1 2043.27 322)">Semibold</text>
  <text style="stroke:none;fill:black;font-family:-apple-system,&quot;SF Pro Display&quot;,&quot;SF Pro Text&quot;,Helvetica,sans-serif;text-anchor:middle;" transform="matrix(1 0 0 1 2339.98 322)">Bold</text>
  <text style="stroke:none;fill:black;font-family:-apple-system,&quot;SF Pro Display&quot;,&quot;SF Pro Text&quot;,Helvetica,sans-serif;text-anchor:middle;" transform="matrix(1 0 0 1 2636.69 322)">Heavy</text>
  <text style="stroke:none;fill:black;font-family:-apple-system,&quot;SF Pro Display&quot;,&quot;SF Pro Text&quot;,Helvetica,sans-serif;text-anchor:middle;" transform="matrix(1 0 0 1 2933.4 322)">Black</text>
  <line id="" style="fill:none;stroke:black;opacity:1;stroke-width:0.5;" x1="263" x2="3036" y1="1903" y2="1903"/>
  <g id="" transform="matrix(1 0 0 1 263 1933)">
   <path d="M 9.24805 0.830078 C 13.5547 0.830078 17.1387 -2.74414 17.1387 -7.05078 C 17.1387 -11.3574 13.5449 -14.9316 9.23828 -14.9316 C 4.94141 -14.9316 1.36719 -11.3574 1.36719 -7.05078 C 1.36719 -2.74414 4.95117 0.830078 9.24805 0.830078 Z M 9.24805 -0.654297 C 5.70312 -0.654297 2.87109 -3.49609 2.87109 -7.05078 C 2.87109 -10.6055 5.69336 -13.4473 9.23828 -13.4473 C 12.793 -13.4473 15.6348 -10.6055 15.6445 -7.05078 C 15.6543 -3.49609 12.8027 -0.654297 9.24805 -0.654297 Z M 9.22852 -3.42773 C 9.69727 -3.42773 9.9707 -3.74023 9.9707 -4.25781 L 9.9707 -6.31836 L 12.1973 -6.31836 C 12.6953 -6.31836 13.0371 -6.57227 13.0371 -7.04102 C 13.0371 -7.51953 12.7148 -7.7832 12.1973 -7.7832 L 9.9707 -7.7832 L 9.9707 -10.0098 C 9.9707 -10.5273 9.69727 -10.8496 9.22852 -10.8496 C 8.75977 -10.8496 8.50586 -10.5078 8.50586 -10.0098 L 8.50586 -7.7832 L 6.29883 -7.7832 C 5.78125 -7.7832 5.44922 -7.51953 5.44922 -7.04102 C 5.44922 -6.57227 5.80078 -6.31836 6.29883 -6.31836 L 8.50586 -6.31836 L 8.50586 -4.25781 C 8.50586 -3.75977 8.75977 -3.42773 9.22852 -3.42773 Z"/>
  </g>
  <g id="" transform="matrix(1 0 0 1 281.506 1933)">
   <path d="M 11.709 2.91016 C 17.1582 2.91016 21.6699 -1.60156 21.6699 -7.05078 C 21.6699 -12.4902 17.1484 -17.0117 11.6992 -17.0117 C 6.25977 -17.0117 1.74805 -12.4902 1.74805 -7.05078 C 1.74805 -1.60156 6.26953 2.91016 11.709 2.91016 Z M 11.709 1.25 C 7.09961 1.25 3.41797 -2.44141 3.41797 -7.05078 C 3.41797 -11.6504 7.08984 -15.3516 11.6992 -15.3516 C 16.3086 -15.3516 20 -11.6504 20.0098 -7.05078 C 20.0195 -2.44141 16.3184 1.25 11.709 1.25 Z M 11.6895 -2.41211 C 12.207 -2.41211 12.5195 -2.77344 12.5195 -3.33984 L 12.5195 -6.23047 L 15.5762 -6.23047 C 16.123 -6.23047 16.5039 -6.51367 16.5039 -7.03125 C 16.5039 -7.55859 16.1426 -7.86133 15.5762 -7.86133 L 12.5195 -7.86133 L 12.5195 -10.9277 C 12.5195 -11.5039 12.207 -11.8555 11.6895 -11.8555 C 11.1719 -11.8555 10.8789 -11.4844 10.8789 -10.9277 L 10.8789 -7.86133 L 7.83203 -7.86133 C 7.26562 -7.86133 6.89453 -7.55859 6.89453 -7.03125 C 6.89453 -6.51367 7.28516 -6.23047 7.83203 -6.23047 L 10.8789 -6.23047 L 10.8789 -3.33984 C 10.8789 -2.79297 11.1719 -2.41211 11.6895 -2.41211 Z"/>
  </g>
  <g id="" transform="matrix(1 0 0 1 304.924 1933)">
   <path d="M 14.9707 5.67383 C 21.9336 5.67383 27.6953 -0.078125 27.6953 -7.04102 C 27.6953 -14.0039 21.9238 -19.7559 14.9609 -19.7559 C 8.00781 -19.7559 2.25586 -14.0039 2.25586 -7.04102 C 2.25586 -0.078125 8.01758 5.67383 14.9707 5.67383 Z M 14.9707 3.85742 C 8.93555 3.85742 4.08203 -1.00586 4.08203 -7.04102 C 4.08203 -13.0762 8.92578 -17.9395 14.9609 -17.9395 C 21.0059 -17.9395 25.8594 -13.0762 25.8691 -7.04102 C 25.8789 -1.00586 21.0156 3.85742 14.9707 3.85742 Z M 14.9512 -1.06445 C 15.5176 -1.06445 15.8691 -1.45508 15.8691 -2.06055 L 15.8691 -6.13281 L 20.1074 -6.13281 C 20.6934 -6.13281 21.1133 -6.46484 21.1133 -7.02148 C 21.1133 -7.59766 20.7227 -7.93945 20.1074 -7.93945 L 15.8691 -7.93945 L 15.8691 -12.1875 C 15.8691 -12.8027 15.5176 -13.1934 14.9512 -13.1934 C 14.3848 -13.1934 14.0625 -12.7832 14.0625 -12.1875 L 14.0625 -7.93945 L 9.83398 -7.93945 C 9.21875 -7.93945 8.80859 -7.59766 8.80859 -7.02148 C 8.80859 -6.46484 9.23828 -6.13281 9.83398 -6.13281 L 14.0625 -6.13281 L 14.0625 -2.06055 C 14.0625 -1.47461 14.3848 -1.06445 14.9512 -1.06445 Z"/>
  </g>
  <text style="stroke:none;fill:black;font-family:-apple-system,&quot;SF Pro Display&quot;,&quot;SF Pro Text&quot;,Helvetica,sans-serif;font-weight:bold;" transform="matrix(1 0 0 1 263 1953)">Design Variations</text>
  <text style="stroke:none;fill:black;font-family:-apple-system,&quot;SF Pro Display&quot;,&quot;SF Pro Text&quot;,Helvetica,sans-serif;" transform="matrix(1 0 0 1 263 1971)">Symbols are supported in up to nine weights and three scales.</text>
  <text style="stroke:none;fill:black;font-family:-apple-system,&quot;SF Pro Display&quot;,&quot;SF Pro Text&quot;,Helvetica,sans-serif;" transform="matrix(1 0 0 1 263 1989)">For optimal layout with text and other symbols, vertically align</text>
  <text style="stroke:none;fill:black;font-family:-apple-system,&quot;SF Pro Display&quot;,&quot;SF Pro Text&quot;,Helvetica,sans-serif;" transform="matrix(1 0 0 1 263 2007)">symbols with the adjacent text.</text>
  <rect height="14" id="" style="fill:#00AEEF;stroke:none;opacity:0.4;" width="3" x="776" y="1919"/>
  <g id="" transform="matrix(1 0 0 1 779 1933)">
   <path d="M 10.5273 0 L 12.373 0 L 7.17773 -14.0918 L 5.43945 -14.0918 L 0.244141 0 L 2.08984 0 L 3.50586 -4.0332 L 9.11133 -4.0332 Z M 6.2793 -11.9531 L 6.33789 -11.9531 L 8.59375 -5.52734 L 4.02344 -5.52734 Z"/>
  </g>
  <rect height="14" id="" style="fill:#00AEEF;stroke:none;opacity:0.4;" width="3" x="791.617" y="1919"/>
  <text style="stroke:none;fill:black;font-family:-apple-system,&quot;SF Pro Display&quot;,&quot;SF Pro Text&quot;,Helvetica,sans-serif;font-weight:bold;" transform="matrix(1 0 0 1 776 1953)">Margins</text>
  <text style="stroke:none;fill:black;font-family:-apple-system,&quot;SF Pro Display&quot;,&quot;SF Pro Text&quot;,Helvetica,sans-serif;" transform="matrix(1 0 0 1 776 1971)">Leading and trailing margins on the left and right side of each symbol</text>
  <text style="stroke:none;fill:black;font-family:-apple-system,&quot;SF Pro Display&quot;,&quot;SF Pro Text&quot;,Helvetica,sans-serif;" transform="matrix(1 0 0 1 776 1989)">can be adjusted by modifying the width of the blue rectangles.</text>
  <text style="stroke:none;fill:black;font-family:-apple-system,&quot;SF Pro Display&quot;,&quot;SF Pro Text&quot;,Helvetica,sans-serif;" transform="matrix(1 0 0 1 776 2007)">Modifications are automatically applied proportionally to all</text>
  <text style="stroke:none;fill:black;font-family:-apple-system,&quot;SF Pro Display&quot;,&quot;SF Pro Text&quot;,Helvetica,sans-serif;" transform="matrix(1 0 0 1 776 2025)">scales and weights.</text>
  <g id="" transform="matrix(1 0 0 1 1289 1933)">
   <path d="M 2.83203 3.11523 L 4.375 4.6582 C 5.22461 5.48828 6.19141 5.41992 7.06055 4.46289 L 17.2754 -6.66016 C 17.7051 -6.36719 18.0957 -6.37695 18.5645 -6.47461 L 19.6094 -6.68945 L 20.3027 -5.99609 L 20.2539 -5.47852 C 20.1855 -4.95117 20.3516 -4.53125 20.8496 -4.0332 L 21.6602 -3.22266 C 22.168 -2.71484 22.8223 -2.68555 23.3008 -3.16406 L 26.5527 -6.41602 C 27.0312 -6.89453 27.0117 -7.54883 26.5039 -8.05664 L 25.6836 -8.87695 C 25.1855 -9.375 24.7754 -9.55078 24.2383 -9.47266 L 23.7109 -9.41406 L 23.0566 -10.0781 L 23.3398 -11.2207 C 23.4863 -11.7871 23.3398 -12.2559 22.7148 -12.8613 L 20.3027 -15.2539 C 16.7578 -18.7793 12.2266 -18.6719 9.11133 -15.5371 C 8.69141 -15.1074 8.64258 -14.5215 8.91602 -14.0918 C 9.15039 -13.7207 9.62891 -13.4961 10.2734 -13.6621 C 11.7871 -14.043 13.3008 -13.9258 14.7852 -12.9199 L 14.1602 -11.3379 C 13.9258 -10.752 13.9453 -10.2734 14.1797 -9.83398 L 3.01758 0.439453 C 2.08008 1.30859 1.97266 2.25586 2.83203 3.11523 Z M 10.6738 -15.1465 C 13.3398 -17.1387 16.6504 -16.8262 19.0527 -14.4141 L 21.6797 -11.8066 C 21.9141 -11.5723 21.9434 -11.3867 21.8848 -11.0938 L 21.5039 -9.53125 L 23.0762 -7.95898 L 24.043 -8.04688 C 24.3262 -8.07617 24.4141 -8.05664 24.6387 -7.83203 L 25.2637 -7.20703 L 22.5098 -4.46289 L 21.8848 -5.07812 C 21.6602 -5.30273 21.6406 -5.40039 21.6699 -5.68359 L 21.7578 -6.64062 L 20.1953 -8.20312 L 18.5742 -7.89062 C 18.291 -7.83203 18.1445 -7.83203 17.9102 -8.07617 L 15.7324 -10.2539 C 15.5078 -10.4883 15.4785 -10.625 15.6055 -10.9473 L 16.5527 -13.2227 C 14.9512 -14.7559 12.8418 -15.6055 10.8008 -14.9512 C 10.7129 -14.9219 10.6445 -14.9414 10.6152 -14.9805 C 10.5859 -15.0293 10.5859 -15.0781 10.6738 -15.1465 Z M 4.10156 2.41211 C 3.61328 1.91406 3.78906 1.61133 4.12109 1.30859 L 15.0781 -8.80859 L 16.3086 -7.57812 L 6.15234 3.34961 C 5.84961 3.68164 5.46875 3.7793 5.06836 3.37891 Z"/>
  </g>
  <text style="stroke:none;fill:black;font-family:-apple-system,&quot;SF Pro Display&quot;,&quot;SF Pro Text&quot;,Helvetica,sans-serif;font-weight:bold;" transform="matrix(1 0 0 1 1289 1953)">Exporting</text>
  <text style="stroke:none;fill:black;font-family:-apple-system,&quot;SF Pro Display&quot;,&quot;SF Pro Text&quot;,Helvetica,sans-serif;" transform="matrix(1 0 0 1 1289 1971)">Symbols should be outlined when exporting to ensure the</text>
  <text style="stroke:none;fill:black;font-family:-apple-system,&quot;SF Pro Display&quot;,&quot;SF Pro Text&quot;,Helvetica,sans-serif;" transform="matrix(1 0 0 1 1289 1989)">design is preserved when submitting to Xcode.</text>
  <text id="template-version" style="stroke:none;fill:black;font-family:-apple-system,&quot;SF Pro Display&quot;,&quot;SF Pro Text&quot;,Helvetica,sans-serif;text-anchor:end;" transform="matrix(1 0 0 1 3036 1933)">Template v.1.0</text>
  <text style="stroke:none;fill:black;font-family:-apple-system,&quot;SF Pro Display&quot;,&quot;SF Pro Text&quot;,Helvetica,sans-serif;text-anchor:end;" transform="matrix(1 0 0 1 3036 1951)">Generated from checkmark.rectangle.fill</text>
  <text style="stroke:none;fill:black;font-family:-apple-system,&quot;SF Pro Display&quot;,&quot;SF Pro Text&quot;,Helvetica,sans-serif;text-anchor:end;" transform="matrix(1 0 0 1 3036 1969)">Typeset at 100 points</text>
  <text style="stroke:none;fill:black;font-family:-apple-system,&quot;SF Pro Display&quot;,&quot;SF Pro Text&quot;,Helvetica,sans-serif;" transform="matrix(1 0 0 1 263 726)">Small</text>
  <text style="stroke:none;fill:black;font-family:-apple-system,&quot;SF Pro Display&quot;,&quot;SF Pro Text&quot;,Helvetica,sans-serif;" transform="matrix(1 0 0 1 263 1156)">Medium</text>
  <text style="stroke:none;fill:black;font-family:-apple-system,&quot;SF Pro Display&quot;,&quot;SF Pro Text&quot;,Helvetica,sans-serif;" transform="matrix(1 0 0 1 263 1586)">Large</text>
 </g>
 <g id="Guides">
  <g id="H-reference" style="fill:#27AAE1;stroke:none;" transform="matrix(1 0 0 1 339 696)">
   <path d="M 54.9316 0 L 57.666 0 L 30.5664 -70.459 L 28.0762 -70.459 L 0.976562 0 L 3.66211 0 L 12.9395 -24.4629 L 45.7031 -24.4629 Z M 29.1992 -67.0898 L 29.4434 -67.0898 L 44.8242 -26.709 L 13.8184 -26.709 Z"/>
  </g>
  <line id="Baseline-S" style="fill:none;stroke:#27AAE1;opacity:1;stroke-width:0.577;" x1="263" x2="3036" y1="696" y2="696"/>
  <line id="Capline-S" style="fill:none;stroke:#27AAE1;opacity:1;stroke-width:0.577;" x1="263" x2="3036" y1="625.541" y2="625.541"/>
  <g id="H-reference" style="fill:#27AAE1;stroke:none;" transform="matrix(1 0 0 1 339 1126)">
   <path d="M 54.9316 0 L 57.666 0 L 30.5664 -70.459 L 28.0762 -70.459 L 0.976562 0 L 3.66211 0 L 12.9395 -24.4629 L 45.7031 -24.4629 Z M 29.1992 -67.0898 L 29.4434 -67.0898 L 44.8242 -26.709 L 13.8184 -26.709 Z"/>
  </g>
  <line id="Baseline-M" style="fill:none;stroke:#27AAE1;opacity:1;stroke-width:0.577;" x1="263" x2="3036" y1="1126" y2="1126"/>
  <line id="Capline-M" style="fill:none;stroke:#27AAE1;opacity:1;stroke-width:0.577;" x1="263" x2="3036" y1="1055.54" y2="1055.54"/>
  <g id="H-reference" style="fill:#27AAE1;stroke:none;" transform="matrix(1 0 0 1 339 1556)">
   <path d="M 54.9316 0 L 57.666 0 L 30.5664 -70.459 L 28.0762 -70.459 L 0.976562 0 L 3.66211 0 L 12.9395 -24.4629 L 45.7031 -24.4629 Z M 29.1992 -67.0898 L 29.4434 -67.0898 L 44.8242 -26.709 L 13.8184 -26.709 Z"/>
  </g>
  <line id="Baseline-L" style="fill:none;stroke:#27AAE1;opacity:1;stroke-width:0.577;" x1="263" x2="3036" y1="1556" y2="1556"/>
  <line id="Capline-L" style="fill:none;stroke:#27AAE1;opacity:1;stroke-width:0.577;" x1="263" x2="3036" y1="1485.54" y2="1485.54"/>
  <rect height="119.336" id="left-margin" style="fill:#00AEEF;stroke:none;opacity:0.4;" width="12.4512" x="1379.82" y="1030.79"/>
  <rect height="119.336" id="right-margin" style="fill:#00AEEF;stroke:none;opacity:0.4;" width="12.4512" x="1507.41" y="1030.79"/>
 </g>
 <g id="Symbols">
  <g id="Black-L" transform="matrix(1 0 0 1 2841.51 1556)">
   <path d="M 39.9902 26.5137 L 143.799 26.5137 C 159.082 26.5137 167.725 17.8711 167.725 2.68555 L 167.725 -73.0957 C 167.725 -88.2812 159.082 -96.875 143.799 -96.875 L 39.9902 -96.875 C 24.7559 -96.875 16.0645 -88.2812 16.0645 -73.0957 L 16.0645 2.68555 C 16.0645 17.8711 24.7559 26.5137 39.9902 26.5137 Z M 84.9609 -4.78516 C 82.5195 -4.78516 80.1758 -5.85938 78.3203 -7.91016 L 60.2539 -27.7832 C 58.9844 -29.1992 58.2031 -31.25 58.2031 -33.0566 C 58.2031 -37.9395 61.5723 -41.3574 66.4062 -41.3574 C 69.043 -41.3574 71.0938 -40.3809 72.7539 -38.5254 L 84.7656 -24.9512 L 110.303 -62.2559 C 112.012 -64.7949 114.16 -66.0645 117.188 -66.0645 C 122.07 -66.0645 125.586 -62.793 125.586 -58.1055 C 125.586 -56.6406 124.951 -54.5898 123.779 -52.9785 L 92.0898 -8.34961 C 90.2344 -5.76172 87.7441 -4.78516 84.9609 -4.78516 Z"/>
  </g>
  <g id="Heavy-L" transform="matrix(1 0 0 1 2545.23 1556)">
   <path d="M 38.8184 25.4883 L 144.092 25.4883 C 158.74 25.4883 166.846 17.4316 166.846 2.88086 L 166.846 -73.2422 C 166.846 -87.793 158.74 -95.8496 144.092 -95.8496 L 38.8184 -95.8496 C 24.2188 -95.8496 16.0645 -87.793 16.0645 -73.2422 L 16.0645 2.88086 C 16.0645 17.4316 24.2188 25.4883 38.8184 25.4883 Z M 84.2773 -4.63867 C 81.9824 -4.63867 79.9805 -5.56641 78.3203 -7.37305 L 59.4727 -28.2715 C 58.3496 -29.541 57.666 -31.3965 57.666 -33.0078 C 57.666 -37.3535 60.6445 -40.4297 64.9902 -40.4297 C 67.3828 -40.4297 69.2383 -39.5508 70.7031 -37.8906 L 84.0332 -22.8516 L 111.523 -62.6465 C 113.135 -64.9902 114.99 -66.0645 117.822 -66.0645 C 122.168 -66.0645 125.293 -63.1348 125.293 -58.9355 C 125.293 -57.5684 124.707 -55.7617 123.682 -54.3457 L 90.625 -7.8125 C 89.0137 -5.51758 86.7676 -4.63867 84.2773 -4.63867 Z"/>
  </g>
  <g id="Bold-L" transform="matrix(1 0 0 1 2249.01 1556)">
   <path d="M 37.5 24.3652 L 144.385 24.3652 C 158.35 24.3652 165.869 16.8945 165.869 3.07617 L 165.869 -73.3887 C 165.869 -87.207 158.35 -94.7266 144.385 -94.7266 L 37.5 -94.7266 C 23.6328 -94.7266 16.0645 -87.2559 16.0645 -73.3887 L 16.0645 3.07617 C 16.0645 16.8945 23.6328 24.3652 37.5 24.3652 Z M 83.4473 -4.49219 C 81.4453 -4.49219 79.7363 -5.32227 78.3691 -6.83594 L 58.6426 -28.8086 C 57.6172 -29.9316 57.0312 -31.4941 57.0312 -33.0078 C 57.0312 -36.7188 59.6191 -39.3555 63.4277 -39.3555 C 65.5273 -39.3555 67.0898 -38.6719 68.4082 -37.207 L 83.252 -20.5566 L 112.939 -63.0859 C 114.355 -65.1367 115.967 -66.1133 118.506 -66.1133 C 122.266 -66.1133 124.951 -63.5254 124.951 -59.8633 C 124.951 -58.6914 124.463 -57.0312 123.584 -55.8594 L 88.9648 -7.17773 C 87.6465 -5.27344 85.6934 -4.49219 83.4473 -4.49219 Z"/>
  </g>
  <g id="Semibold-L" transform="matrix(1 0 0 1 1952.64 1556)">
   <path d="M 36.6211 23.584 L 144.629 23.584 C 158.057 23.584 165.186 16.5039 165.186 3.17383 L 165.186 -73.5352 C 165.186 -86.8164 158.057 -93.9453 144.629 -93.9453 L 36.6211 -93.9453 C 23.1934 -93.9453 16.0645 -86.8652 16.0645 -73.5352 L 16.0645 3.17383 C 16.0645 16.5527 23.1934 23.584 36.6211 23.584 Z M 82.9102 -4.39453 C 81.0547 -4.39453 79.5898 -5.12695 78.418 -6.39648 L 58.0566 -29.1992 C 57.1289 -30.2246 56.5918 -31.5918 56.5918 -33.0078 C 56.5918 -36.2793 58.8867 -38.6719 62.3535 -38.6719 C 64.209 -38.6719 65.6738 -38.0371 66.8457 -36.7188 L 82.7148 -18.9453 L 113.916 -63.4277 C 115.234 -65.2832 116.602 -66.1133 118.994 -66.1133 C 122.363 -66.1133 124.707 -63.7695 124.707 -60.5469 C 124.707 -59.4238 124.268 -57.9102 123.486 -56.8848 L 87.793 -6.73828 C 86.6699 -5.12695 84.9609 -4.39453 82.9102 -4.39453 Z"/>
  </g>
  <g id="Medium-L" transform="matrix(1 0 0 1 1656.2 1556)">
   <path d="M 35.9375 22.998 L 144.775 22.998 C 157.861 22.998 164.648 16.2109 164.648 3.27148 L 164.648 -73.6328 C 164.648 -86.5234 157.861 -93.3105 144.775 -93.3105 L 35.9375 -93.3105 C 22.9004 -93.3105 16.0645 -86.5723 16.0645 -73.6328 L 16.0645 3.27148 C 16.0645 16.2598 22.9004 22.998 35.9375 22.998 Z M 82.5195 -4.29688 C 80.7617 -4.29688 79.4434 -4.93164 78.418 -6.10352 L 57.6172 -29.4434 C 56.7871 -30.4199 56.25 -31.6895 56.25 -33.0078 C 56.25 -35.9375 58.3496 -38.0859 61.5234 -38.0859 C 63.2812 -38.0859 64.5508 -37.5488 65.625 -36.377 L 82.2754 -17.7246 L 114.648 -63.623 C 115.869 -65.3809 117.09 -66.1133 119.336 -66.1133 C 122.412 -66.1133 124.512 -63.9648 124.512 -61.0352 C 124.512 -59.9609 124.121 -58.5938 123.438 -57.666 L 86.9629 -6.39648 C 85.9375 -4.98047 84.4238 -4.29688 82.5195 -4.29688 Z"/>
  </g>
  <g id="Regular-L" transform="matrix(1 0 0 1 1359.81 1556)">
   <path d="M 35.0586 22.2168 L 144.971 22.2168 C 157.617 22.2168 164.014 15.8691 164.014 3.41797 L 164.014 -73.7305 C 164.014 -86.1816 157.617 -92.5293 144.971 -92.5293 L 35.0586 -92.5293 C 22.4609 -92.5293 16.0645 -86.2305 16.0645 -73.7305 L 16.0645 3.41797 C 16.0645 15.918 22.4609 22.2168 35.0586 22.2168 Z M 81.9824 -4.19922 C 80.3711 -4.19922 79.2969 -4.73633 78.418 -5.71289 L 57.0312 -29.834 C 56.2988 -30.7129 55.8105 -31.7871 55.8105 -33.0078 C 55.8105 -35.498 57.666 -37.4023 60.4492 -37.4023 C 62.0117 -37.4023 63.0859 -36.9141 64.0625 -35.8887 L 81.7383 -16.1621 L 115.625 -63.9648 C 116.699 -65.4785 117.773 -66.1133 119.824 -66.1133 C 122.461 -66.1133 124.316 -64.2578 124.316 -61.6699 C 124.316 -60.7422 123.975 -59.4727 123.389 -58.6914 L 85.8398 -5.95703 C 85.0098 -4.83398 83.6914 -4.19922 81.9824 -4.19922 Z"/>
  </g>
  <g id="Light-L" transform="matrix(1 0 0 1 1063.56 1556)">
   <path d="M 34.0332 21.4355 L 145.117 21.4355 C 157.031 21.4355 163.086 15.2344 163.086 3.56445 L 163.086 -73.8281 C 163.086 -85.5469 157.031 -91.6992 145.117 -91.6992 L 34.0332 -91.6992 C 22.168 -91.6992 16.0645 -85.6445 16.0645 -73.8281 L 16.0645 3.56445 C 16.0645 15.3809 22.168 21.4355 34.0332 21.4355 Z M 81.25 -4.29688 C 79.9805 -4.29688 79.1992 -4.73633 78.5156 -5.51758 L 56.6406 -30.3711 C 55.957 -31.1523 55.6152 -31.9336 55.6152 -32.959 C 55.6152 -34.8145 57.0312 -36.377 59.2285 -36.377 C 60.4492 -36.377 61.3281 -35.9375 62.0605 -35.1562 L 81.0547 -13.7695 L 116.846 -64.2578 C 117.578 -65.332 118.408 -65.918 120.068 -65.918 C 122.119 -65.918 123.584 -64.4531 123.584 -62.4512 C 123.584 -61.7188 123.291 -60.6934 122.803 -60.1074 L 84.3262 -5.71289 C 83.6426 -4.83398 82.6172 -4.29688 81.25 -4.29688 Z"/>
  </g>
  <g id="Thin-L" transform="matrix(1 0 0 1 767.433 1556)">
   <path d="M 32.666 20.3613 L 145.312 20.3613 C 156.201 20.3613 161.914 14.4531 161.914 3.75977 L 161.914 -73.9746 C 161.914 -84.7168 156.201 -90.5762 145.312 -90.5762 L 32.666 -90.5762 C 21.7773 -90.5762 16.0645 -84.8633 16.0645 -73.9746 L 16.0645 3.75977 C 16.0645 14.6484 21.7773 20.3613 32.666 20.3613 Z M 80.2734 -4.44336 C 79.4922 -4.44336 79.0527 -4.73633 78.6133 -5.27344 L 56.1035 -31.0547 C 55.5176 -31.7383 55.3711 -32.1777 55.3711 -32.8613 C 55.3711 -33.8867 56.25 -35.0098 57.6172 -35.0098 C 58.3496 -35.0098 58.9844 -34.668 59.375 -34.1797 L 80.1758 -10.5957 L 118.408 -64.6973 C 118.75 -65.1367 119.238 -65.6738 120.361 -65.6738 C 121.68 -65.6738 122.656 -64.6973 122.656 -63.4766 C 122.656 -62.9883 122.363 -62.2559 122.07 -61.9141 L 82.2754 -5.41992 C 81.8359 -4.78516 81.2012 -4.44336 80.2734 -4.44336 Z"/>
  </g>
  <g id="Ultralight-L" transform="matrix(1 0 0 1 471.015 1556)">
   <path d="M 31.9824 19.7754 L 145.41 19.7754 C 155.811 19.7754 161.328 14.0625 161.328 3.85742 L 161.328 -74.0723 C 161.328 -84.2773 155.811 -89.9902 145.41 -89.9902 L 31.9824 -89.9902 C 21.582 -89.9902 16.0645 -84.4727 16.0645 -74.0723 L 16.0645 3.85742 C 16.0645 14.2578 21.582 19.7754 31.9824 19.7754 Z M 79.7363 -4.49219 C 79.248 -4.49219 79.0039 -4.6875 78.6621 -5.12695 L 55.8105 -31.4453 C 55.2734 -32.0312 55.2246 -32.2754 55.2246 -32.8613 C 55.2246 -33.4473 55.8105 -34.2773 56.7383 -34.2773 C 57.2754 -34.2773 57.7637 -33.9844 58.0078 -33.6426 L 79.6875 -8.98438 L 119.238 -64.8926 C 119.385 -65.0391 119.678 -65.5273 120.508 -65.5273 C 121.484 -65.5273 122.168 -64.8438 122.168 -64.0137 C 122.168 -63.6719 121.924 -63.0859 121.729 -62.8418 L 81.25 -5.27344 C 80.9082 -4.78516 80.4688 -4.49219 79.7363 -4.49219 Z"/>
  </g>
  <g id="Black-M" transform="matrix(1 0 0 1 2861.84 1126)">
   <path d="M 31.9824 13.5742 L 111.133 13.5742 C 123.389 13.5742 130.664 6.29883 130.664 -5.95703 L 130.664 -64.4043 C 130.664 -76.6602 123.389 -83.9355 111.133 -83.9355 L 31.9824 -83.9355 C 19.7266 -83.9355 12.4512 -76.6602 12.4512 -64.4043 L 12.4512 -5.95703 C 12.4512 6.29883 19.7266 13.5742 31.9824 13.5742 Z M 66.4062 -11.8652 C 64.4043 -11.8652 62.4023 -12.793 60.6934 -14.5996 L 47.4609 -29.1016 C 46.4355 -30.3223 45.8008 -32.0801 45.8008 -33.4961 C 45.8008 -37.7441 48.6328 -40.6738 52.6855 -40.6738 C 54.8828 -40.6738 56.6895 -39.7949 58.1055 -38.2324 L 66.3086 -28.7598 L 84.4238 -55.8105 C 85.791 -57.8613 87.6953 -58.9844 90.0879 -58.9844 C 94.3359 -58.9844 97.3145 -56.25 97.3145 -52.1973 C 97.3145 -51.0254 96.7773 -49.3164 95.752 -47.9004 L 72.5586 -15.0391 C 70.8496 -12.6465 68.75 -11.8652 66.4062 -11.8652 Z"/>
  </g>
  <g id="Heavy-M" transform="matrix(1 0 0 1 2565.5 1126)">
   <path d="M 31.0059 12.6465 L 111.426 12.6465 C 123.193 12.6465 129.932 5.9082 129.932 -5.81055 L 129.932 -64.5508 C 129.932 -76.2695 123.193 -83.0566 111.426 -83.0566 L 31.0059 -83.0566 C 19.2383 -83.0566 12.4512 -76.3184 12.4512 -64.5508 L 12.4512 -5.81055 C 12.4512 5.9082 19.2383 12.6465 31.0059 12.6465 Z M 65.8203 -11.6699 C 63.9648 -11.6699 62.1582 -12.5 60.6934 -14.1113 L 46.7773 -29.4922 C 45.8008 -30.5664 45.2148 -32.1777 45.2148 -33.4961 C 45.2148 -37.2559 47.7539 -39.9414 51.4648 -39.9414 C 53.4668 -39.9414 55.127 -39.1602 56.3477 -37.7441 L 65.6738 -27.1484 L 85.498 -56.1523 C 86.7676 -58.0566 88.4277 -59.082 90.7227 -59.082 C 94.4824 -59.082 97.2168 -56.543 97.2168 -52.9297 C 97.2168 -51.8066 96.6797 -50.293 95.8008 -49.0234 L 71.3379 -14.502 C 69.873 -12.4512 67.9688 -11.6699 65.8203 -11.6699 Z"/>
  </g>
  <g id="Bold-M" transform="matrix(1 0 0 1 2269.18 1126)">
   <path d="M 29.8828 11.6699 L 111.719 11.6699 C 122.949 11.6699 129.15 5.46875 129.15 -5.66406 L 129.15 -64.6973 C 129.15 -75.8789 122.949 -82.0312 111.719 -82.0312 L 29.8828 -82.0312 C 18.6523 -82.0312 12.4512 -75.8789 12.4512 -64.6973 L 12.4512 -5.66406 C 12.4512 5.51758 18.6523 11.6699 29.8828 11.6699 Z M 65.1855 -11.4746 C 63.4766 -11.4746 61.9629 -12.207 60.6934 -13.5742 L 45.9473 -29.9316 C 45.1172 -30.9082 44.5801 -32.2754 44.5801 -33.5449 C 44.5801 -36.7676 46.8262 -39.0625 50.1465 -39.0625 C 51.9043 -39.0625 53.3203 -38.4277 54.4434 -37.207 L 64.9902 -25.293 L 86.6699 -56.543 C 87.8418 -58.3008 89.3066 -59.1309 91.4062 -59.1309 C 94.7266 -59.1309 97.0215 -56.9336 97.0215 -53.7598 C 97.0215 -52.7344 96.6309 -51.3184 95.8496 -50.293 L 69.9707 -13.8672 C 68.75 -12.1582 67.0898 -11.4746 65.1855 -11.4746 Z"/>
  </g>
  <g id="Semibold-M" transform="matrix(1 0 0 1 1972.76 1126)">
   <path d="M 29.1016 10.9863 L 111.914 10.9863 C 122.803 10.9863 128.564 5.17578 128.564 -5.56641 L 128.564 -64.8438 C 128.564 -75.5859 122.803 -81.3477 111.914 -81.3477 L 29.1016 -81.3477 C 18.2617 -81.3477 12.4512 -75.5859 12.4512 -64.8438 L 12.4512 -5.56641 C 12.4512 5.22461 18.2617 10.9863 29.1016 10.9863 Z M 64.7461 -11.377 C 63.1348 -11.377 61.7676 -12.0117 60.7422 -13.1836 L 45.4102 -30.2246 C 44.6289 -31.1035 44.1406 -32.3242 44.1406 -33.5449 C 44.1406 -36.4258 46.1914 -38.5254 49.2188 -38.5254 C 50.8301 -38.5254 52.0996 -37.9395 53.125 -36.8164 L 64.5508 -24.0234 L 87.5 -56.8359 C 88.623 -58.4961 89.8926 -59.1797 91.8945 -59.1797 C 94.873 -59.1797 96.9238 -57.1777 96.9238 -54.2969 C 96.9238 -53.3691 96.582 -52.0508 95.8984 -51.123 L 69.043 -13.4277 C 68.0176 -12.0117 66.5039 -11.377 64.7461 -11.377 Z"/>
  </g>
  <g id="Medium-M" transform="matrix(1 0 0 1 1676.24 1126)">
   <path d="M 28.5156 10.4492 L 112.061 10.4492 C 122.656 10.4492 128.174 4.98047 128.174 -5.46875 L 128.174 -64.8926 C 128.174 -75.3418 122.656 -80.8105 112.061 -80.8105 L 28.5156 -80.8105 C 17.9688 -80.8105 12.4512 -75.3906 12.4512 -64.8926 L 12.4512 -5.46875 C 12.4512 4.98047 17.9688 10.4492 28.5156 10.4492 Z M 64.4043 -11.2793 C 62.8418 -11.2793 61.6699 -11.8164 60.7422 -12.8906 L 44.9707 -30.4199 C 44.2871 -31.25 43.7988 -32.373 43.7988 -33.5449 C 43.7988 -36.1816 45.7031 -38.0859 48.4863 -38.0859 C 50 -38.0859 51.123 -37.5977 52.0996 -36.5234 L 64.209 -23.0469 L 88.1348 -57.0312 C 89.209 -58.5938 90.332 -59.2285 92.2363 -59.2285 C 94.9707 -59.2285 96.875 -57.373 96.875 -54.7363 C 96.875 -53.8086 96.5332 -52.6367 95.8984 -51.8066 L 68.3105 -13.0859 C 67.4316 -11.8652 66.0645 -11.2793 64.4043 -11.2793 Z"/>
  </g>
  <g id="Regular-M" transform="matrix(1 0 0 1 1379.82 1126)">
   <path d="M 27.7832 9.76562 L 112.256 9.76562 C 122.51 9.76562 127.588 4.6875 127.588 -5.37109 L 127.588 -64.9902 C 127.588 -75.0488 122.51 -80.127 112.256 -80.127 L 27.7832 -80.127 C 17.5781 -80.127 12.4512 -75.0977 12.4512 -64.9902 L 12.4512 -5.37109 C 12.4512 4.73633 17.5781 9.76562 27.7832 9.76562 Z M 63.9648 -11.1328 C 62.5488 -11.1328 61.4746 -11.6211 60.7422 -12.5 L 44.4336 -30.7129 C 43.7988 -31.4941 43.3594 -32.4707 43.3594 -33.5449 C 43.3594 -35.8398 45.0195 -37.5 47.5586 -37.5 C 48.9258 -37.5 49.9023 -37.1094 50.7812 -36.1328 L 63.7207 -21.7773 L 88.916 -57.3242 C 89.9414 -58.7891 90.8691 -59.2773 92.7246 -59.2773 C 95.1172 -59.2773 96.7285 -57.6172 96.7285 -55.2734 C 96.7285 -54.4434 96.4844 -53.3203 95.9473 -52.6367 L 67.3828 -12.6465 C 66.6504 -11.6699 65.4297 -11.1328 63.9648 -11.1328 Z"/>
  </g>
  <g id="Light-M" transform="matrix(1 0 0 1 1083.5 1126)">
   <path d="M 26.8555 9.0332 L 112.402 9.0332 C 121.973 9.0332 126.807 4.15039 126.807 -5.22461 L 126.807 -65.0879 C 126.807 -74.5117 121.973 -79.3945 112.402 -79.3945 L 26.8555 -79.3945 C 17.334 -79.3945 12.4512 -74.5605 12.4512 -65.0879 L 12.4512 -5.22461 C 12.4512 4.19922 17.334 9.0332 26.8555 9.0332 Z M 63.2812 -11.2305 C 62.1582 -11.2305 61.4258 -11.6211 60.791 -12.3047 L 44.0918 -31.2012 C 43.5059 -31.8848 43.1641 -32.6172 43.1641 -33.4961 C 43.1641 -35.2051 44.4824 -36.5723 46.4355 -36.5723 C 47.5586 -36.5723 48.3398 -36.2305 48.9746 -35.498 L 63.1348 -19.6777 L 89.9902 -57.5684 C 90.7227 -58.6426 91.4551 -59.1309 92.9199 -59.1309 C 94.8242 -59.1309 96.0938 -57.7637 96.0938 -55.957 C 96.0938 -55.3223 95.8496 -54.3945 95.459 -53.8574 L 66.0156 -12.4512 C 65.4297 -11.6699 64.502 -11.2305 63.2812 -11.2305 Z"/>
  </g>
  <g id="Thin-M" transform="matrix(1 0 0 1 787.33 1126)">
   <path d="M 25.6348 8.05664 L 112.598 8.05664 C 121.24 8.05664 125.732 3.4668 125.732 -5.0293 L 125.732 -65.2344 C 125.732 -73.7305 121.24 -78.3691 112.598 -78.3691 L 25.6348 -78.3691 C 16.9922 -78.3691 12.4512 -73.877 12.4512 -65.2344 L 12.4512 -5.0293 C 12.4512 3.56445 16.9922 8.05664 25.6348 8.05664 Z M 62.4023 -11.3281 C 61.7188 -11.3281 61.2793 -11.5723 60.8887 -12.0605 L 43.6035 -31.8359 C 43.1152 -32.373 42.9688 -32.8125 42.9688 -33.3984 C 42.9688 -34.375 43.75 -35.3516 44.9707 -35.3516 C 45.6543 -35.3516 46.2402 -35.0586 46.6309 -34.6191 L 62.3047 -16.8457 L 91.4551 -57.959 C 91.7969 -58.4473 92.2363 -58.8867 93.2129 -58.8867 C 94.3848 -58.8867 95.2637 -58.0078 95.2637 -56.8848 C 95.2637 -56.4453 95.0195 -55.8594 94.7754 -55.5176 L 64.209 -12.207 C 63.8184 -11.6699 63.2324 -11.3281 62.4023 -11.3281 Z"/>
  </g>
  <g id="Ultralight-M" transform="matrix(1 0 0 1 490.888 1126)">
   <path d="M 25 7.56836 L 112.695 7.56836 C 120.85 7.56836 125.195 3.125 125.195 -4.98047 L 125.195 -65.2832 C 125.195 -73.3887 120.85 -77.832 112.695 -77.832 L 25 -77.832 C 16.7969 -77.832 12.4512 -73.4863 12.4512 -65.2832 L 12.4512 -4.98047 C 12.4512 3.22266 16.7969 7.56836 25 7.56836 Z M 61.9629 -11.377 C 61.4746 -11.377 61.2305 -11.5723 60.9375 -11.9629 L 43.3594 -32.1777 C 42.9199 -32.666 42.8711 -32.9102 42.8711 -33.3984 C 42.8711 -33.9844 43.4082 -34.7168 44.2383 -34.7168 C 44.7266 -34.7168 45.166 -34.4727 45.3613 -34.1797 L 61.9141 -15.3809 L 92.1387 -58.1543 C 92.334 -58.3984 92.627 -58.7402 93.3594 -58.7402 C 94.1895 -58.7402 94.8242 -58.1543 94.8242 -57.373 C 94.8242 -57.0801 94.6289 -56.5918 94.4336 -56.3477 L 63.2812 -12.0605 C 62.9883 -11.6211 62.5488 -11.377 61.9629 -11.377 Z"/>
  </g>
  <g id="Black-S" transform="matrix(1 0 0 1 2877.35 696)">
   <path d="M 25 2.92969 L 87.1094 2.92969 C 96.6797 2.92969 102.344 -2.73438 102.344 -12.3047 L 102.344 -58.1055 C 102.344 -67.6758 96.6797 -73.3398 87.1094 -73.3398 L 25 -73.3398 C 15.4297 -73.3398 9.76562 -67.6758 9.76562 -58.1055 L 9.76562 -12.3047 C 9.76562 -2.73438 15.4297 2.92969 25 2.92969 Z M 52.002 -16.8945 C 50.4395 -16.8945 48.877 -17.627 47.5586 -19.043 L 37.1582 -30.4688 C 36.3281 -31.3965 35.8398 -32.7637 35.8398 -33.8867 C 35.8398 -37.1582 38.0371 -39.4531 41.2109 -39.4531 C 42.9199 -39.4531 44.3359 -38.7695 45.4102 -37.5488 L 51.9043 -30.0781 L 66.2109 -51.3672 C 67.2852 -52.9785 68.75 -53.8574 70.6543 -53.8574 C 73.9258 -53.8574 76.2695 -51.709 76.2695 -48.584 C 76.2695 -47.6562 75.8301 -46.3379 75.0488 -45.2148 L 56.7871 -19.3848 C 55.4688 -17.5293 53.8086 -16.8945 52.002 -16.8945 Z"/>
  </g>
  <g id="Heavy-S" transform="matrix(1 0 0 1 2580.88 696)">
   <path d="M 24.3652 2.34375 L 87.3047 2.34375 C 96.582 2.34375 101.855 -2.97852 101.855 -12.207 L 101.855 -58.2031 C 101.855 -67.4316 96.582 -72.7539 87.3047 -72.7539 L 24.3652 -72.7539 C 15.0879 -72.7539 9.76562 -67.4316 9.76562 -58.2031 L 9.76562 -12.207 C 9.76562 -2.97852 15.0879 2.34375 24.3652 2.34375 Z M 51.6113 -16.748 C 50.1465 -16.748 48.7305 -17.4316 47.5586 -18.7012 L 36.6699 -30.7129 C 35.8887 -31.543 35.4004 -32.8125 35.4004 -33.8867 C 35.4004 -36.8652 37.4512 -38.9648 40.4297 -38.9648 C 41.9922 -38.9648 43.3105 -38.3789 44.2871 -37.2559 L 51.5137 -29.0527 L 66.8945 -51.6113 C 67.9688 -53.1738 69.2871 -53.9551 71.0938 -53.9551 C 74.1211 -53.9551 76.2207 -51.9531 76.2207 -49.0723 C 76.2207 -48.1934 75.8301 -46.9238 75.1465 -45.9473 L 56.0059 -18.9941 C 54.834 -17.334 53.3203 -16.748 51.6113 -16.748 Z"/>
  </g>
  <g id="Bold-S" transform="matrix(1 0 0 1 2284.41 696)">
   <path d="M 23.6328 1.66016 L 87.5 1.66016 C 96.4844 1.66016 101.367 -3.22266 101.367 -12.1094 L 101.367 -58.3008 C 101.367 -67.1875 96.4844 -72.0703 87.5 -72.0703 L 23.6328 -72.0703 C 14.6973 -72.0703 9.76562 -67.1875 9.76562 -58.3008 L 9.76562 -12.1094 C 9.76562 -3.22266 14.6973 1.66016 23.6328 1.66016 Z M 51.2207 -16.6016 C 49.8047 -16.6016 48.5352 -17.1875 47.5586 -18.2617 L 36.084 -30.957 C 35.4004 -31.7383 34.9609 -32.8613 34.9609 -33.8867 C 34.9609 -36.5723 36.8164 -38.4766 39.502 -38.4766 C 40.9668 -38.4766 42.0898 -37.9395 43.0664 -36.9141 L 51.0742 -27.9297 L 67.6758 -51.8555 C 68.7012 -53.3691 69.8242 -54.0039 71.582 -54.0039 C 74.3164 -54.0039 76.1719 -52.1973 76.1719 -49.6094 C 76.1719 -48.7305 75.8789 -47.6074 75.2441 -46.7285 L 55.127 -18.5059 C 54.1504 -17.1387 52.7832 -16.6016 51.2207 -16.6016 Z"/>
  </g>
  <g id="Semibold-S" transform="matrix(1 0 0 1 1987.9 696)">
   <path d="M 23.0957 1.17188 L 87.6465 1.17188 C 96.3867 1.17188 100.977 -3.36914 100.977 -12.0117 L 100.977 -58.3984 C 100.977 -67.041 96.3867 -71.582 87.6465 -71.582 L 23.0957 -71.582 C 14.4043 -71.582 9.76562 -67.041 9.76562 -58.3984 L 9.76562 -12.0117 C 9.76562 -3.36914 14.4043 1.17188 23.0957 1.17188 Z M 50.9277 -16.5039 C 49.5605 -16.5039 48.4375 -17.041 47.5586 -17.9688 L 35.6934 -31.1523 C 35.0586 -31.8848 34.6191 -32.9102 34.6191 -33.9355 C 34.6191 -36.377 36.3281 -38.0859 38.916 -38.0859 C 40.2832 -38.0859 41.3086 -37.6465 42.1875 -36.6699 L 50.7812 -27.0996 L 68.2129 -52.0508 C 69.1895 -53.5156 70.2637 -54.0527 71.9238 -54.0527 C 74.4141 -54.0527 76.1719 -52.3438 76.1719 -49.9512 C 76.1719 -49.1699 75.8789 -48.0957 75.293 -47.3145 L 54.4922 -18.2129 C 53.6621 -17.041 52.3926 -16.5039 50.9277 -16.5039 Z"/>
  </g>
  <g id="Medium-S" transform="matrix(1 0 0 1 1691.31 696)">
   <path d="M 22.7051 0.830078 L 87.7441 0.830078 C 96.3379 0.830078 100.732 -3.51562 100.732 -11.9629 L 100.732 -58.4473 C 100.732 -66.8945 96.3379 -71.2402 87.7441 -71.2402 L 22.7051 -71.2402 C 14.209 -71.2402 9.76562 -66.8945 9.76562 -58.4473 L 9.76562 -11.9629 C 9.76562 -3.51562 14.209 0.830078 22.7051 0.830078 Z M 50.7324 -16.4062 C 49.4141 -16.4062 48.3398 -16.8945 47.5586 -17.7734 L 35.4004 -31.2988 C 34.8145 -31.9824 34.375 -32.959 34.375 -33.9355 C 34.375 -36.1816 35.9863 -37.793 38.4277 -37.793 C 39.7461 -37.793 40.6738 -37.4023 41.5527 -36.5234 L 50.5371 -26.5137 L 68.6523 -52.1973 C 69.5801 -53.6133 70.5566 -54.1016 72.2168 -54.1016 C 74.5117 -54.1016 76.123 -52.4902 76.123 -50.2441 C 76.123 -49.4629 75.8789 -48.4375 75.3418 -47.7539 L 54.0527 -17.9688 C 53.3203 -16.9434 52.1484 -16.4062 50.7324 -16.4062 Z"/>
  </g>
  <g id="Regular-S" transform="matrix(1 0 0 1 1394.79 696)">
   <path d="M 22.2168 0.390625 L 87.8906 0.390625 C 96.2402 0.390625 100.342 -3.71094 100.342 -11.9141 L 100.342 -58.4961 C 100.342 -66.6992 96.2402 -70.8008 87.8906 -70.8008 L 22.2168 -70.8008 C 13.916 -70.8008 9.76562 -66.6992 9.76562 -58.4961 L 9.76562 -11.9141 C 9.76562 -3.71094 13.916 0.390625 22.2168 0.390625 Z M 50.4395 -16.3086 C 49.1699 -16.3086 48.2422 -16.748 47.5586 -17.4805 L 35.0098 -31.4941 C 34.4727 -32.0801 34.0332 -32.959 34.0332 -33.9355 C 34.0332 -35.9863 35.5469 -37.4512 37.793 -37.4512 C 39.0625 -37.4512 39.8926 -37.1094 40.6738 -36.2793 L 50.2441 -25.7324 L 69.1406 -52.3926 C 70.1172 -53.7598 70.9473 -54.1504 72.5586 -54.1504 C 74.6582 -54.1504 76.123 -52.6855 76.123 -50.5859 C 76.123 -49.8535 75.8789 -48.877 75.3906 -48.291 L 53.4668 -17.627 C 52.832 -16.7969 51.7578 -16.3086 50.4395 -16.3086 Z"/>
  </g>
  <g id="Light-S" transform="matrix(1 0 0 1 1098.42 696)">
   <path d="M 21.3867 -0.292969 L 88.0371 -0.292969 C 95.752 -0.292969 99.6582 -4.15039 99.6582 -11.7676 L 99.6582 -58.5938 C 99.6582 -66.2109 95.752 -70.1172 88.0371 -70.1172 L 21.3867 -70.1172 C 13.6719 -70.1172 9.76562 -66.2598 9.76562 -58.5938 L 9.76562 -11.7676 C 9.76562 -4.15039 13.6719 -0.292969 21.3867 -0.292969 Z M 49.8535 -16.4062 C 48.877 -16.4062 48.1445 -16.748 47.6074 -17.334 L 34.668 -31.8848 C 34.2285 -32.4219 33.8867 -33.1055 33.8867 -33.8867 C 33.8867 -35.4492 35.0586 -36.6211 36.8164 -36.6211 C 37.793 -36.6211 38.4766 -36.3281 39.1113 -35.6934 L 49.707 -23.8281 L 70.1172 -52.6367 C 70.8008 -53.6133 71.4355 -54.0039 72.7539 -54.0039 C 74.4141 -54.0039 75.5371 -52.832 75.5371 -51.2207 C 75.5371 -50.6348 75.3418 -49.8535 74.9512 -49.3652 L 52.2461 -17.4805 C 51.7578 -16.7969 50.9277 -16.4062 49.8535 -16.4062 Z"/>
  </g>
  <g id="Thin-S" transform="matrix(1 0 0 1 802.174 696)">
   <path d="M 20.3125 -1.12305 L 88.1836 -1.12305 C 95.1172 -1.12305 98.7305 -4.78516 98.7305 -11.6211 L 98.7305 -58.6914 C 98.7305 -65.5762 95.1172 -69.2383 88.1836 -69.2383 L 20.3125 -69.2383 C 13.3789 -69.2383 9.76562 -65.625 9.76562 -58.6914 L 9.76562 -11.6211 C 9.76562 -4.6875 13.3789 -1.12305 20.3125 -1.12305 Z M 49.0723 -16.5039 C 48.4375 -16.5039 48.0469 -16.6992 47.7051 -17.1387 L 34.2773 -32.4707 C 33.8867 -32.9102 33.7402 -33.3008 33.7402 -33.8379 C 33.7402 -34.7168 34.4238 -35.5469 35.5469 -35.5469 C 36.1328 -35.5469 36.6211 -35.3027 36.9629 -34.9121 L 48.9746 -21.3379 L 71.3867 -52.9785 C 71.7285 -53.4668 72.1191 -53.8086 72.998 -53.8086 C 74.0723 -53.8086 74.8047 -53.0273 74.8047 -52.002 C 74.8047 -51.6602 74.6094 -51.123 74.4141 -50.7812 L 50.6836 -17.2363 C 50.3418 -16.748 49.8047 -16.5039 49.0723 -16.5039 Z"/>
  </g>
  <g id="Ultralight-S" transform="matrix(1 0 0 1 505.707 696)">
   <path d="M 19.7754 -1.5625 L 88.2812 -1.5625 C 94.8242 -1.5625 98.2422 -5.12695 98.2422 -11.5234 L 98.2422 -58.7891 C 98.2422 -65.2344 94.8242 -68.75 88.2812 -68.75 L 19.7754 -68.75 C 13.2324 -68.75 9.76562 -65.2832 9.76562 -58.7891 L 9.76562 -11.5234 C 9.76562 -5.0293 13.2324 -1.5625 19.7754 -1.5625 Z M 48.6816 -16.5527 C 48.2422 -16.5527 47.998 -16.6992 47.7539 -17.041 L 34.0332 -32.7637 C 33.6914 -33.1543 33.5938 -33.3984 33.5938 -33.7891 C 33.5938 -34.375 34.1309 -35.0098 34.8633 -35.0098 C 35.3027 -35.0098 35.6445 -34.7656 35.8887 -34.5215 L 48.6328 -20.0684 L 72.0215 -53.125 C 72.2168 -53.3691 72.4609 -53.7109 73.0957 -53.7109 C 73.877 -53.7109 74.4141 -53.125 74.4141 -52.4414 C 74.4141 -52.1973 74.2676 -51.7578 74.0723 -51.5625 L 49.8535 -17.1387 C 49.5605 -16.748 49.2188 -16.5527 48.6816 -16.5527 Z"/>
  </g>
 </g>
</svg>
