<?xml version="1.0" encoding="UTF-8"?>
<!--Generator: Apple Native CoreSVG 149-->
<!DOCTYPE svg
PUBLIC "-//W3C//DTD SVG 1.1//EN"
       "http://www.w3.org/Graphics/SVG/1.1/DTD/svg11.dtd">
<svg version="1.1" xmlns="http://www.w3.org/2000/svg" xmlns:xlink="http://www.w3.org/1999/xlink" width="3300" height="2200">
 <!--glyph: "uni100431.medium", point size: 100.000000, font version: "Version 16.0d18e1", template writer version: "8"-->
 <g id="Notes">
  <rect height="2200" id="artboard" style="fill:white;opacity:1" width="3300" x="0" y="0"/>
  <line id="" style="fill:none;stroke:black;opacity:1;stroke-width:0.5;" x1="263" x2="3036" y1="292" y2="292"/>
  <text style="stroke:none;fill:black;font-family:-apple-system,&quot;SF Pro Display&quot;,&quot;SF Pro Text&quot;,Helvetica,sans-serif;font-weight:bold;" transform="matrix(1 0 0 1 263 322)">Weight/Scale Variations</text>
  <text style="stroke:none;fill:black;font-family:-apple-system,&quot;SF Pro Display&quot;,&quot;SF Pro Text&quot;,Helvetica,sans-serif;text-anchor:middle;" transform="matrix(1 0 0 1 559.711 322)">Ultralight</text>
  <text style="stroke:none;fill:black;font-family:-apple-system,&quot;SF Pro Display&quot;,&quot;SF Pro Text&quot;,Helvetica,sans-serif;text-anchor:middle;" transform="matrix(1 0 0 1 856.422 322)">Thin</text>
  <text style="stroke:none;fill:black;font-family:-apple-system,&quot;SF Pro Display&quot;,&quot;SF Pro Text&quot;,Helvetica,sans-serif;text-anchor:middle;" transform="matrix(1 0 0 1 1153.13 322)">Light</text>
  <text style="stroke:none;fill:black;font-family:-apple-system,&quot;SF Pro Display&quot;,&quot;SF Pro Text&quot;,Helvetica,sans-serif;text-anchor:middle;" transform="matrix(1 0 0 1 1449.84 322)">Regular</text>
  <text style="stroke:none;fill:black;font-family:-apple-system,&quot;SF Pro Display&quot;,&quot;SF Pro Text&quot;,Helvetica,sans-serif;text-anchor:middle;" transform="matrix(1 0 0 1 1746.56 322)">Medium</text>
  <text style="stroke:none;fill:black;font-family:-apple-system,&quot;SF Pro Display&quot;,&quot;SF Pro Text&quot;,Helvetica,sans-serif;text-anchor:middle;" transform="matrix(1 0 0 1 2043.27 322)">Semibold</text>
  <text style="stroke:none;fill:black;font-family:-apple-system,&quot;SF Pro Display&quot;,&quot;SF Pro Text&quot;,Helvetica,sans-serif;text-anchor:middle;" transform="matrix(1 0 0 1 2339.98 322)">Bold</text>
  <text style="stroke:none;fill:black;font-family:-apple-system,&quot;SF Pro Display&quot;,&quot;SF Pro Text&quot;,Helvetica,sans-serif;text-anchor:middle;" transform="matrix(1 0 0 1 2636.69 322)">Heavy</text>
  <text style="stroke:none;fill:black;font-family:-apple-system,&quot;SF Pro Display&quot;,&quot;SF Pro Text&quot;,Helvetica,sans-serif;text-anchor:middle;" transform="matrix(1 0 0 1 2933.4 322)">Black</text>
  <line id="" style="fill:none;stroke:black;opacity:1;stroke-width:0.5;" x1="263" x2="3036" y1="1903" y2="1903"/>
  <g id="" transform="matrix(1 0 0 1 263 1933)">
   <path d="M9.24805 0.830078C13.5547 0.830078 17.1387-2.74414 17.1387-7.05078C17.1387-11.3574 13.5449-14.9316 9.23828-14.9316C4.94141-14.9316 1.36719-11.3574 1.36719-7.05078C1.36719-2.74414 4.95117 0.830078 9.24805 0.830078ZM9.24805-0.654297C5.70312-0.654297 2.87109-3.49609 2.87109-7.05078C2.87109-10.6055 5.69336-13.4473 9.23828-13.4473C12.793-13.4473 15.6348-10.6055 15.6445-7.05078C15.6543-3.49609 12.8027-0.654297 9.24805-0.654297ZM6.39648-6.31836L8.50586-6.31836L8.50586-4.19922C8.50586-3.75977 8.79883-3.45703 9.22852-3.45703C9.67773-3.45703 9.9707-3.75977 9.9707-4.19922L9.9707-6.31836L12.0996-6.31836C12.5391-6.31836 12.8418-6.61133 12.8418-7.04102C12.8418-7.48047 12.5391-7.7832 12.0996-7.7832L9.9707-7.7832L9.9707-9.89258C9.9707-10.3418 9.67773-10.6445 9.22852-10.6445C8.79883-10.6445 8.50586-10.3418 8.50586-9.89258L8.50586-7.7832L6.39648-7.7832C5.94727-7.7832 5.64453-7.48047 5.64453-7.04102C5.64453-6.61133 5.94727-6.31836 6.39648-6.31836Z"/>
  </g>
  <g id="" transform="matrix(1 0 0 1 281.506 1933)">
   <path d="M11.709 2.91016C17.1582 2.91016 21.6699-1.61133 21.6699-7.05078C21.6699-12.5 17.1484-17.0117 11.6992-17.0117C6.25977-17.0117 1.74805-12.5 1.74805-7.05078C1.74805-1.61133 6.26953 2.91016 11.709 2.91016ZM11.709 1.25C7.09961 1.25 3.41797-2.44141 3.41797-7.05078C3.41797-11.6602 7.08984-15.3516 11.6992-15.3516C16.3086-15.3516 20-11.6602 20.0098-7.05078C20.0195-2.44141 16.3184 1.25 11.709 1.25ZM7.98828-6.23047L10.8789-6.23047L10.8789-3.32031C10.8789-2.83203 11.2109-2.5 11.6895-2.5C12.1777-2.5 12.5195-2.83203 12.5195-3.32031L12.5195-6.23047L15.4297-6.23047C15.918-6.23047 16.25-6.5625 16.25-7.04102C16.25-7.5293 15.918-7.87109 15.4297-7.87109L12.5195-7.87109L12.5195-10.7617C12.5195-11.2695 12.1777-11.6016 11.6895-11.6016C11.2109-11.6016 10.8789-11.2598 10.8789-10.7617L10.8789-7.87109L7.98828-7.87109C7.48047-7.87109 7.14844-7.5293 7.14844-7.04102C7.14844-6.5625 7.49023-6.23047 7.98828-6.23047Z"/>
  </g>
  <g id="" transform="matrix(1 0 0 1 304.924 1933)">
   <path d="M14.9707 5.66406C21.9336 5.66406 27.6953-0.0976562 27.6953-7.05078C27.6953-14.0137 21.9238-19.7754 14.9609-19.7754C8.00781-19.7754 2.25586-14.0137 2.25586-7.05078C2.25586-0.0976562 8.01758 5.66406 14.9707 5.66406ZM14.9707 3.84766C8.93555 3.84766 4.08203-1.01562 4.08203-7.05078C4.08203-13.0957 8.92578-17.9492 14.9609-17.9492C21.0059-17.9492 25.8594-13.0957 25.8691-7.05078C25.8789-1.01562 21.0156 3.84766 14.9707 3.84766ZM10.0586-6.14258L14.0625-6.14258L14.0625-2.12891C14.0625-1.5918 14.4336-1.2207 14.9512-1.2207C15.4883-1.2207 15.8594-1.5918 15.8594-2.12891L15.8594-6.14258L19.8828-6.14258C20.4102-6.14258 20.791-6.51367 20.791-7.03125C20.791-7.56836 20.4199-7.94922 19.8828-7.94922L15.8594-7.94922L15.8594-11.9531C15.8594-12.5098 15.4883-12.8809 14.9512-12.8809C14.4336-12.8809 14.0625-12.5 14.0625-11.9531L14.0625-7.94922L10.0586-7.94922C9.50195-7.94922 9.13086-7.56836 9.13086-7.03125C9.13086-6.51367 9.51172-6.14258 10.0586-6.14258Z"/>
  </g>
  <text style="stroke:none;fill:black;font-family:-apple-system,&quot;SF Pro Display&quot;,&quot;SF Pro Text&quot;,Helvetica,sans-serif;font-weight:bold;" transform="matrix(1 0 0 1 263 1953)">Design Variations</text>
  <text style="stroke:none;fill:black;font-family:-apple-system,&quot;SF Pro Display&quot;,&quot;SF Pro Text&quot;,Helvetica,sans-serif;" transform="matrix(1 0 0 1 263 1971)">Symbols are supported in up to nine weights and three scales.</text>
  <text style="stroke:none;fill:black;font-family:-apple-system,&quot;SF Pro Display&quot;,&quot;SF Pro Text&quot;,Helvetica,sans-serif;" transform="matrix(1 0 0 1 263 1989)">For optimal layout with text and other symbols, vertically align</text>
  <text style="stroke:none;fill:black;font-family:-apple-system,&quot;SF Pro Display&quot;,&quot;SF Pro Text&quot;,Helvetica,sans-serif;" transform="matrix(1 0 0 1 263 2007)">symbols with the adjacent text.</text>
  <line id="" style="fill:none;stroke:#00AEEF;stroke-width:0.5;opacity:1.0;" x1="776" x2="776" y1="1919" y2="1933"/>
  <g id="" transform="matrix(1 0 0 1 776 1933)">
   <path d="M3.31055 0.126953C3.82812 0.126953 4.08203-0.0683594 4.26758-0.605469L5.52734-4.0625L11.2891-4.0625L12.5488-0.605469C12.7344-0.0683594 12.9883 0.126953 13.4961 0.126953C14.0137 0.126953 14.3457-0.185547 14.3457-0.673828C14.3457-0.839844 14.3164-0.986328 14.2383-1.20117L9.6582-13.3887C9.43359-13.9941 9.0332-14.2871 8.4082-14.2871C7.80273-14.2871 7.39258-13.9941 7.17773-13.3984L2.59766-1.19141C2.51953-0.976562 2.49023-0.830078 2.49023-0.664062C2.49023-0.175781 2.80273 0.126953 3.31055 0.126953ZM6.00586-5.53711L8.37891-12.1094L8.42773-12.1094L10.8008-5.53711Z"/>
  </g>
  <line id="" style="fill:none;stroke:#00AEEF;stroke-width:0.5;opacity:1.0;" x1="792.836" x2="792.836" y1="1919" y2="1933"/>
  <text style="stroke:none;fill:black;font-family:-apple-system,&quot;SF Pro Display&quot;,&quot;SF Pro Text&quot;,Helvetica,sans-serif;font-weight:bold;" transform="matrix(1 0 0 1 776 1953)">Margins</text>
  <text style="stroke:none;fill:black;font-family:-apple-system,&quot;SF Pro Display&quot;,&quot;SF Pro Text&quot;,Helvetica,sans-serif;" transform="matrix(1 0 0 1 776 1971)">Leading and trailing margins on the left and right side of each symbol</text>
  <text style="stroke:none;fill:black;font-family:-apple-system,&quot;SF Pro Display&quot;,&quot;SF Pro Text&quot;,Helvetica,sans-serif;" transform="matrix(1 0 0 1 776 1989)">can be adjusted by modifying the x-location of the margin guidelines.</text>
  <text style="stroke:none;fill:black;font-family:-apple-system,&quot;SF Pro Display&quot;,&quot;SF Pro Text&quot;,Helvetica,sans-serif;" transform="matrix(1 0 0 1 776 2007)">Modifications are automatically applied proportionally to all</text>
  <text style="stroke:none;fill:black;font-family:-apple-system,&quot;SF Pro Display&quot;,&quot;SF Pro Text&quot;,Helvetica,sans-serif;" transform="matrix(1 0 0 1 776 2025)">scales and weights.</text>
  <g id="" transform="matrix(1 0 0 1 1289 1933)">
   <path d="M2.8418 1.86523L4.54102 3.57422C5.40039 4.44336 6.38672 4.38477 7.31445 3.35938L17.4902-7.85156C17.7539-7.76367 18.0273-7.7832 18.3398-7.8418L19.4043-8.03711L20.0684-7.36328L20.0293-6.80664C19.9902-6.30859 20.1172-5.92773 20.6055-5.44922L21.3672-4.70703C21.8457-4.22852 22.4609-4.19922 22.9297-4.66797L25.8398-7.58789C26.3086-8.05664 26.2891-8.65234 25.8105-9.13086L25.0391-9.89258C24.5605-10.3711 24.1895-10.5273 23.7109-10.4883L23.1348-10.4395L22.4902-11.0742L22.7344-12.1973C22.8613-12.7637 22.7051-13.2031 22.1191-13.7891L19.9219-15.9766C16.582-19.2969 12.1484-19.2188 9.25781-16.3281C8.83789-15.918 8.80859-15.3418 9.04297-14.9512C9.27734-14.5898 9.73633-14.3555 10.3809-14.5215C11.8457-14.8633 13.3691-14.9219 14.7949-13.9844L14.209-12.5293C14.0137-12.0508 13.9844-11.6504 14.1113-11.2891L3.04688-0.898438C2.06055 0.0195312 1.98242 0.996094 2.8418 1.86523ZM10.752-15.957C13.1836-17.7344 16.4746-17.4316 18.7012-15.2051L21.1328-12.793C21.3672-12.5586 21.4062-12.373 21.3379-12.0312L21.0156-10.5469L22.5195-9.0625L23.5059-9.12109C23.7598-9.13086 23.8379-9.11133 24.0332-8.91602L24.6094-8.33984L22.168-5.89844L21.5918-6.47461C21.3965-6.66992 21.3672-6.74805 21.377-7.01172L21.4453-7.98828L19.9512-9.47266L18.4277-9.21875C18.1055-9.15039 17.959-9.17969 17.7148-9.41406L15.7129-11.416C15.459-11.6504 15.4297-11.8164 15.5859-12.1875L16.4648-14.2773C14.9023-15.7324 12.8711-16.3574 10.8398-15.7617C10.6836-15.7227 10.625-15.8496 10.752-15.957ZM5.27344 2.30469L4.10156 1.14258C3.63281 0.683594 3.74023 0.341797 4.14062-0.0195312L14.9512-10.1953L16.416-8.71094L6.42578 2.27539C6.07422 2.67578 5.74219 2.77344 5.27344 2.30469Z"/>
  </g>
  <text style="stroke:none;fill:black;font-family:-apple-system,&quot;SF Pro Display&quot;,&quot;SF Pro Text&quot;,Helvetica,sans-serif;font-weight:bold;" transform="matrix(1 0 0 1 1289 1953)">Exporting</text>
  <text style="stroke:none;fill:black;font-family:-apple-system,&quot;SF Pro Display&quot;,&quot;SF Pro Text&quot;,Helvetica,sans-serif;" transform="matrix(1 0 0 1 1289 1971)">Symbols should be outlined when exporting to ensure the</text>
  <text style="stroke:none;fill:black;font-family:-apple-system,&quot;SF Pro Display&quot;,&quot;SF Pro Text&quot;,Helvetica,sans-serif;" transform="matrix(1 0 0 1 1289 1989)">design is preserved when submitting to Xcode.</text>
  <text id="template-version" style="stroke:none;fill:black;font-family:-apple-system,&quot;SF Pro Display&quot;,&quot;SF Pro Text&quot;,Helvetica,sans-serif;text-anchor:end;" transform="matrix(1 0 0 1 3036 1933)">Template v.2.0</text>
  <text style="stroke:none;fill:black;font-family:-apple-system,&quot;SF Pro Display&quot;,&quot;SF Pro Text&quot;,Helvetica,sans-serif;text-anchor:end;" transform="matrix(1 0 0 1 3036 1951)">Requires Xcode 12 or greater</text>
  <text style="stroke:none;fill:black;font-family:-apple-system,&quot;SF Pro Display&quot;,&quot;SF Pro Text&quot;,Helvetica,sans-serif;text-anchor:end;" transform="matrix(1 0 0 1 3036 1969)">Generated from timer</text>
  <text style="stroke:none;fill:black;font-family:-apple-system,&quot;SF Pro Display&quot;,&quot;SF Pro Text&quot;,Helvetica,sans-serif;text-anchor:end;" transform="matrix(1 0 0 1 3036 1987)">Typeset at 100 points</text>
  <text style="stroke:none;fill:black;font-family:-apple-system,&quot;SF Pro Display&quot;,&quot;SF Pro Text&quot;,Helvetica,sans-serif;" transform="matrix(1 0 0 1 263 726)">Small</text>
  <text style="stroke:none;fill:black;font-family:-apple-system,&quot;SF Pro Display&quot;,&quot;SF Pro Text&quot;,Helvetica,sans-serif;" transform="matrix(1 0 0 1 263 1156)">Medium</text>
  <text style="stroke:none;fill:black;font-family:-apple-system,&quot;SF Pro Display&quot;,&quot;SF Pro Text&quot;,Helvetica,sans-serif;" transform="matrix(1 0 0 1 263 1586)">Large</text>
 </g>
 <g id="Guides">
  <g id="H-reference" style="fill:#27AAE1;stroke:none;" transform="matrix(1 0 0 1 339 696)">
   <path d="M0.976562 0L3.66211 0L12.9883-24.4629L45.752-24.4629L55.127 0L57.7637 0L30.6152-70.459L28.125-70.459ZM29.3457-67.1387L29.4434-67.1387L44.873-26.709L13.8672-26.709Z"/>
  </g>
  <line id="Baseline-S" style="fill:none;stroke:#27AAE1;opacity:1;stroke-width:0.5;" x1="263" x2="3036" y1="696" y2="696"/>
  <line id="Capline-S" style="fill:none;stroke:#27AAE1;opacity:1;stroke-width:0.5;" x1="263" x2="3036" y1="625.541" y2="625.541"/>
  <g id="H-reference" style="fill:#27AAE1;stroke:none;" transform="matrix(1 0 0 1 339 1126)">
   <path d="M0.976562 0L3.66211 0L12.9883-24.4629L45.752-24.4629L55.127 0L57.7637 0L30.6152-70.459L28.125-70.459ZM29.3457-67.1387L29.4434-67.1387L44.873-26.709L13.8672-26.709Z"/>
  </g>
  <line id="Baseline-M" style="fill:none;stroke:#27AAE1;opacity:1;stroke-width:0.5;" x1="263" x2="3036" y1="1126" y2="1126"/>
  <line id="Capline-M" style="fill:none;stroke:#27AAE1;opacity:1;stroke-width:0.5;" x1="263" x2="3036" y1="1055.54" y2="1055.54"/>
  <g id="H-reference" style="fill:#27AAE1;stroke:none;" transform="matrix(1 0 0 1 339 1556)">
   <path d="M0.976562 0L3.66211 0L12.9883-24.4629L45.752-24.4629L55.127 0L57.7637 0L30.6152-70.459L28.125-70.459ZM29.3457-67.1387L29.4434-67.1387L44.873-26.709L13.8672-26.709Z"/>
  </g>
  <line id="Baseline-L" style="fill:none;stroke:#27AAE1;opacity:1;stroke-width:0.5;" x1="263" x2="3036" y1="1556" y2="1556"/>
  <line id="Capline-L" style="fill:none;stroke:#27AAE1;opacity:1;stroke-width:0.5;" x1="263" x2="3036" y1="1485.54" y2="1485.54"/>
  <line id="left-margin" style="fill:none;stroke:#00AEEF;stroke-width:0.5;opacity:1.0;" x1="1391.3" x2="1391.3" y1="1030.79" y2="1150.12"/>
  <line id="right-margin" style="fill:none;stroke:#00AEEF;stroke-width:0.5;opacity:1.0;" x1="1508.39" x2="1508.39" y1="1030.79" y2="1150.12"/>
 </g>
 <g id="Symbols">
  <g id="Black-L" transform="matrix(1 0 0 1 2854.05 1556)">
   <path d="M79.3457 34.8145C117.334 34.8145 147.412 4.6875 147.412-33.252C147.412-71.1914 117.383-101.318 79.3457-101.318C73.7305-101.318 69.7266-97.998 69.7266-92.5293L69.7266-73.1445C69.7266-68.3594 73.2422-64.7949 77.9785-64.7949C82.7148-64.7949 86.1328-68.3594 86.1328-73.1445L86.1328-81.0059C109.326-77.6367 126.953-57.4707 126.953-33.252C126.953-7.08008 105.859 14.3555 79.3457 14.3555C52.7832 14.3555 31.6895-7.08008 31.7383-33.252C31.7383-43.1152 34.9609-52.7832 40.332-60.5469C44.1895-66.4551 45.3125-71.4355 40.5762-75.8301C36.0352-80.0293 28.8086-79.4434 24.2676-73.0469C16.2109-61.9141 11.2793-48.0469 11.2793-33.252C11.2793 4.6875 41.3574 34.8145 79.3457 34.8145ZM89.7949-21.5332C95.8008-27.7832 94.5312-36.6211 87.5-41.1133L59.4238-59.2285C53.6621-62.9395 48.584-57.7637 52.2461-52.0508L70.3613-23.9746C74.8535-16.9434 83.6914-15.5762 89.7949-21.5332Z"/>
  </g>
  <g id="Heavy-L" transform="matrix(1 0 0 1 2558.39 1556)">
   <path d="M78.2715 33.7402C115.527 33.7402 145.312 3.95508 145.312-33.252C145.312-70.459 115.576-100.244 78.3203-100.244C73.2422-100.244 69.873-97.3145 69.873-92.4316L69.873-71.7773C69.873-67.5781 72.9004-64.4043 77.0996-64.4043C81.2988-64.4043 84.2773-67.5781 84.2773-71.7773L84.2773-82.5684C108.789-79.541 127.49-58.5938 127.49-33.252C127.49-6.10352 105.713 16.0156 78.2715 16.0156C50.8789 16.0156 29.0039-6.10352 29.0527-33.252C29.0527-44.043 32.7148-54.3945 38.8184-62.5488C42.1875-67.5781 43.0664-71.9727 39.0137-75.7812C35.1562-79.4434 28.9062-78.9551 25-73.4863C16.5039-62.3535 11.2793-48.291 11.2793-33.252C11.2793 3.95508 41.0645 33.7402 78.2715 33.7402ZM88.5254-22.3145C94.1895-28.2715 93.0176-36.5723 86.3281-40.918L57.0801-60.2539C52.002-63.5742 47.4121-58.9355 50.6836-53.8574L70.0195-24.6582C74.3652-17.9688 82.7148-16.6504 88.5254-22.3145Z"/>
  </g>
  <g id="Bold-L" transform="matrix(1 0 0 1 2262.88 1556)">
   <path d="M77.0996 32.6172C113.525 32.6172 142.92 3.125 142.92-33.252C142.92-69.5801 113.525-99.0723 77.1484-99.0723C72.7539-99.0723 70.0195-96.4844 70.0195-92.2852L70.0195-70.3125C70.0195-66.6992 72.5586-64.0137 76.123-64.0137C79.6875-64.0137 82.1777-66.6992 82.1777-70.3125L82.1777-84.3262C108.154-81.6895 128.125-59.8633 128.125-33.252C128.125-5.0293 105.469 17.8223 77.0996 17.8223C48.7305 17.8223 26.0254-5.0293 26.0254-33.252C26.0742-45.0684 30.2246-56.1523 37.1094-64.8438C39.8926-68.7988 40.5273-72.5586 37.2559-75.6836C34.1309-78.7598 29.0527-78.3691 25.7812-74.0234C16.7969-62.8418 11.2793-48.584 11.2793-33.252C11.2793 3.125 40.7227 32.6172 77.0996 32.6172ZM87.0605-23.1934C92.4316-28.7598 91.2598-36.4746 84.9609-40.7227L54.4434-61.4258C50.1465-64.2578 46.1426-60.2051 48.9746-55.9082L69.6289-25.3906C73.877-19.0918 81.5918-17.8711 87.0605-23.1934Z"/>
  </g>
  <g id="Semibold-L" transform="matrix(1 0 0 1 1966.97 1556)">
   <path d="M76.2695 31.7871C112.109 31.7871 141.309 2.58789 141.309-33.2031C141.309-68.9941 112.158-98.2422 76.3184-98.2422C72.3633-98.2422 70.1172-95.9473 70.1172-92.2363L70.1172-69.2383C70.1172-66.1133 72.3145-63.7207 75.4395-63.7207C78.6133-63.7207 80.7617-66.1133 80.7617-69.2383L80.7617-85.498C107.764-83.2031 128.564-60.7422 128.564-33.2031C128.564-4.29688 105.322 19.0918 76.2695 19.0918C47.2656 19.0918 23.9258-4.29688 23.9746-33.2031C24.0234-45.752 28.5156-57.4219 35.9863-66.3574C38.3301-69.6777 38.7695-72.998 36.084-75.6348C33.3984-78.2715 29.1016-77.9785 26.3184-74.3652C16.9922-63.1836 11.2793-48.7793 11.2793-33.2031C11.2793 2.58789 40.4785 31.7871 76.2695 31.7871ZM86.084-23.7793C91.1621-29.1504 90.0879-36.4258 84.0332-40.5762L52.6367-62.207C48.8281-64.7461 45.2148-61.084 47.7539-57.3242L69.3848-25.9277C73.4863-19.873 80.8105-18.7012 86.084-23.7793Z"/>
  </g>
  <g id="Medium-L" transform="matrix(1 0 0 1 1670.87 1556)">
   <path d="M75.6836 31.2012C111.035 31.2012 140.088 2.14844 140.088-33.2031C140.088-68.5547 111.084-97.6074 75.7324-97.6074C72.1191-97.6074 70.2148-95.5566 70.2148-92.1387L70.2148-68.457C70.2148-65.6738 72.1191-63.4766 74.9512-63.4766C77.7832-63.4766 79.6875-65.6738 79.6875-68.457L79.6875-86.4258C107.422-84.3262 128.906-61.377 128.906-33.2031C128.906-3.71094 105.225 20.0684 75.6836 20.0684C46.1426 20.0684 22.3633-3.71094 22.4121-33.2031C22.4609-46.2891 27.1973-58.3496 35.1074-67.5781C37.1582-70.3125 37.4512-73.291 35.1562-75.6348C32.8613-77.9297 29.1504-77.6855 26.7578-74.6094C17.1875-63.4277 11.2793-48.9258 11.2793-33.2031C11.2793 2.14844 40.2832 31.2012 75.6836 31.2012ZM85.3027-24.2676C90.2344-29.3945 89.209-36.4258 83.3008-40.4785L51.2695-62.793C47.8516-65.1367 44.5312-61.7676 46.875-58.3984L69.1895-26.3184C73.2422-20.459 80.2246-19.3359 85.3027-24.2676Z"/>
  </g>
  <g id="Regular-L" transform="matrix(1 0 0 1 1374.97 1556)">
   <path d="M74.8535 30.3711C109.668 30.3711 138.477 1.61133 138.477-33.2031C138.477-68.0176 109.717-96.7773 74.9023-96.7773C71.7285-96.7773 70.3125-95.0195 70.3125-92.041L70.3125-67.4316C70.3125-65.0879 71.875-63.1836 74.3164-63.1836C76.709-63.1836 78.2715-65.0879 78.2715-67.4316L78.2715-87.5977C106.982-85.7422 129.297-62.207 129.297-33.2031C129.297-2.97852 105.078 21.2891 74.8535 21.2891C44.6777 21.2891 20.3125-2.97852 20.3613-33.2031C20.4102-47.0215 25.5371-59.5703 33.9355-69.0918C35.5957-71.1426 35.7422-73.6816 33.9355-75.5859C32.1777-77.4414 29.248-77.2949 27.2949-74.9512C17.3828-63.7695 11.2793-49.1211 11.2793-33.2031C11.2793 1.61133 40.0879 30.3711 74.8535 30.3711ZM84.3262-24.8535C89.0137-29.7852 88.0371-36.377 82.373-40.332L49.4629-63.5742C46.582-65.5762 43.6523-62.6465 45.7031-59.7656L68.8965-26.8555C72.8516-21.1914 79.4922-20.166 84.3262-24.8535Z"/>
  </g>
  <g id="Light-L" transform="matrix(1 0 0 1 1079.18 1556)">
   <path d="M73.9258 29.4922C108.301 29.4922 136.621 1.2207 136.621-33.1543C136.621-67.5293 108.35-95.8496 73.9746-95.8496C71.0449-95.8496 69.873-94.3848 69.873-91.8945L69.873-66.9434C69.873-65.1367 71.0449-63.623 72.998-63.623C74.9023-63.623 76.0742-65.1367 76.0742-66.9434L76.0742-88.8672C106.104-87.5977 129.688-63.2324 129.688-33.1543C129.688-2.29492 104.785 22.6074 73.9258 22.6074C43.1152 22.6074 18.1641-2.29492 18.1641-33.1543C18.2129-47.7539 23.8281-60.9375 32.9102-70.8496C34.2285-72.4121 34.3262-74.3652 33.0078-75.7812C31.6406-77.1973 29.4434-77.0996 27.9297-75.3418C17.627-64.209 11.2793-49.3652 11.2793-33.1543C11.2793 1.2207 39.5996 29.4922 73.9258 29.4922ZM82.5684-25.7812C86.9141-30.3223 85.9375-36.3281 80.8105-40.0391L48.4375-63.2324C45.8984-65.0391 43.4082-62.5 45.2148-60.0098L68.4082-27.6367C72.0703-22.4609 78.125-21.4355 82.5684-25.7812Z"/>
  </g>
  <g id="Thin-L" transform="matrix(1 0 0 1 783.693 1556)">
   <path d="M72.7051 28.3203C106.494 28.3203 134.18 0.683594 134.18-33.1055C134.18-66.8945 106.494-94.5312 72.7051-94.5312C70.0684-94.5312 69.3359-93.5547 69.3359-91.6504L69.3359-66.3086C69.3359-65.1855 69.9707-64.209 71.2402-64.209C72.5586-64.209 73.1934-65.1855 73.1934-66.3086L73.1934-90.5762C104.932-90.0391 130.176-64.5508 130.176-33.1055C130.176-1.41602 104.443 24.3652 72.7051 24.3652C41.0156 24.3652 15.2832-1.41602 15.2832-33.1055C15.2832-48.6816 21.5332-62.793 31.5918-73.1934C32.4219-74.0723 32.5195-75.2441 31.7383-76.0742C30.9082-76.8555 29.6875-76.8555 28.8086-75.8789C18.0176-64.7949 11.2793-49.6582 11.2793-33.1055C11.2793 0.683594 38.9648 28.3203 72.7051 28.3203ZM80.2734-27.002C84.1309-31.0547 83.2031-36.3281 78.7109-39.6484L47.0703-62.793C45.0195-64.2578 43.1152-62.3535 44.6289-60.3027L67.7246-28.6621C71.0449-24.1211 76.3184-23.1445 80.2734-27.002Z"/>
  </g>
  <g id="Ultralight-L" transform="matrix(1 0 0 1 487.616 1556)">
   <path d="M72.1191 27.7344C105.566 27.7344 132.91 0.390625 132.91-33.1055C132.91-66.5527 105.566-93.8965 72.0703-93.8965C69.5801-93.8965 69.043-93.1152 69.043-91.5039L69.043-66.0156C69.043-65.1855 69.3848-64.5508 70.3613-64.5508C71.3379-64.5508 71.6797-65.1855 71.6797-66.0156L71.6797-91.4062C104.248-91.4062 130.42-65.332 130.42-33.1055C130.42-0.927734 104.248 25.2441 72.1191 25.2441C39.9414 25.2441 13.7695-0.927734 13.7695-33.1055C13.7695-49.1699 20.3613-63.7207 30.9082-74.3652C31.4941-74.9023 31.5918-75.6836 31.0547-76.1719C30.5664-76.6602 29.834-76.709 29.248-76.1719C18.2129-65.0879 11.2793-49.8047 11.2793-33.1055C11.2793 0.390625 38.623 27.7344 72.1191 27.7344ZM79.1016-27.5879C82.7148-31.4453 81.8359-36.3281 77.6367-39.4531L46.3867-62.5977C44.5312-63.8672 42.9199-62.2559 44.2871-60.4492L67.3828-29.1504C70.5078-25 75.3906-24.0234 79.1016-27.5879Z"/>
  </g>
  <g id="Black-M" transform="matrix(1 0 0 1 2870.97 1126)">
   <path d="M62.4023 19.9707C92.627 19.9707 116.113-3.51562 116.113-33.6914C116.113-63.8672 92.627-87.3535 62.4023-87.3535C57.373-87.3535 53.6621-84.4727 53.6621-79.6875L53.6621-66.1621C53.6621-61.9629 56.7383-58.8867 60.8887-58.8867C65.0391-58.8867 68.0664-61.9629 68.0664-66.1621L68.0664-69.3359C85.0098-66.4551 97.8027-51.5137 97.8027-33.6914C97.8027-14.3555 82.1777 1.70898 62.4023 1.70898C42.6758 1.70898 27.002-14.3555 27.002-33.6914C27.002-40.4785 29.1504-47.4121 32.7148-53.0762C36.2793-58.6426 37.4023-62.8906 33.0566-66.8945C28.9062-70.6543 22.3145-70.0684 18.2129-64.1602C12.3535-55.5664 8.74023-44.9707 8.74023-33.6914C8.74023-3.51562 32.1777 19.9707 62.4023 19.9707ZM70.4102-24.0723C75.293-29.1016 74.2188-36.377 68.6035-39.8926L48.6816-52.2949C43.457-55.5664 39.1113-51.0742 42.334-45.8984L54.7363-25.9766C58.2031-20.3613 65.4785-19.2383 70.4102-24.0723Z"/>
  </g>
  <g id="Heavy-M" transform="matrix(1 0 0 1 2575.19 1126)">
   <path d="M61.5234 19.043C91.0156 19.043 114.258-4.24805 114.258-33.6914C114.258-63.1836 91.0156-86.4746 61.5234-86.4746C57.0312-86.4746 53.9062-83.8867 53.9062-79.6387L53.9062-64.8438C53.9062-61.084 56.5918-58.3496 60.2539-58.3496C63.9648-58.3496 66.6016-61.084 66.6016-64.8438L66.6016-70.7031C84.668-68.1152 98.3398-52.4902 98.3398-33.6914C98.3398-13.4766 82.0312 3.125 61.5234 3.125C40.9668 3.125 24.6582-13.4766 24.6582-33.6914C24.6582-41.3086 27.1973-48.8281 31.3477-54.834C34.4238-59.5215 35.3027-63.3301 31.5918-66.748C28.0273-70.0684 22.3633-69.5801 18.8477-64.5508C12.5488-55.9082 8.74023-45.166 8.74023-33.6914C8.74023-4.24805 31.9824 19.043 61.5234 19.043ZM69.4336-24.6582C74.0723-29.4922 73.0957-36.3281 67.6758-39.7461L46.3867-53.4668C41.7969-56.3965 37.8906-52.3926 40.7715-47.8516L54.4922-26.5137C57.9102-21.1426 64.7461-20.0684 69.4336-24.6582Z"/>
  </g>
  <g id="Bold-M" transform="matrix(1 0 0 1 2279.5 1126)">
   <path d="M60.498 18.0664C89.209 18.0664 112.207-4.98047 112.207-33.6914C112.207-62.4023 89.209-85.4492 60.498-85.4492C56.6895-85.4492 54.1992-83.2031 54.1992-79.541L54.1992-63.3301C54.1992-60.1562 56.4453-57.7637 59.6191-57.7637C62.7441-57.7637 64.9902-60.1562 64.9902-63.3301L64.9902-72.2168C84.2285-69.9219 98.9258-53.5645 98.9258-33.6914C98.9258-12.5 81.8848 4.78516 60.498 4.78516C39.1113 4.78516 22.0215-12.5 22.0215-33.6914C22.0703-42.2363 24.9512-50.3418 29.7852-56.7871C32.3242-60.498 32.959-63.7695 29.9316-66.6504C27.0508-69.3848 22.4121-69.043 19.4824-64.9902C12.8418-56.2988 8.74023-45.4102 8.74023-33.6914C8.74023-4.98047 31.7383 18.0664 60.498 18.0664ZM68.3594-25.3418C72.7539-29.8828 71.8262-36.2305 66.6992-39.5996L43.7988-54.834C39.9902-57.3242 36.5234-53.8086 39.0137-50L54.1992-27.1484C57.5684-22.0215 63.916-21.0449 68.3594-25.3418Z"/>
  </g>
  <g id="Semibold-M" transform="matrix(1 0 0 1 1983.5 1126)">
   <path d="M59.7656 17.334C87.9395 17.334 110.791-5.51758 110.791-33.6914C110.791-61.8652 87.9883-84.7168 59.8145-84.7168C56.4453-84.7168 54.3945-82.7148 54.3945-79.4922L54.3945-62.2559C54.3945-59.4727 56.3477-57.373 59.1309-57.373C61.9141-57.373 63.8672-59.4727 63.8672-62.2559L63.8672-73.2422C83.9355-71.1914 99.3164-54.2969 99.3164-33.6914C99.3164-11.8164 81.7871 5.85938 59.7656 5.85938C37.793 5.85938 20.166-11.8164 20.2148-33.6914C20.2637-42.8711 23.4375-51.416 28.7598-58.1055C30.8594-61.1816 31.2988-64.1113 28.8086-66.5527C26.416-68.8965 22.4609-68.6523 19.9707-65.2832C12.9883-56.5918 8.74023-45.5566 8.74023-33.6914C8.74023-5.51758 31.5918 17.334 59.7656 17.334ZM67.627-25.8301C71.8262-30.1758 70.9473-36.1816 65.9668-39.502L42.041-55.7617C38.7207-57.959 35.5957-54.7852 37.793-51.5137L54.0527-27.5391C57.3242-22.6074 63.3789-21.6797 67.627-25.8301Z"/>
  </g>
  <g id="Medium-M" transform="matrix(1 0 0 1 1687.3 1126)">
   <path d="M59.2285 16.8457C87.0117 16.8457 109.766-5.9082 109.766-33.6914C109.766-61.4258 87.0605-84.1797 59.2773-84.1797C56.25-84.1797 54.541-82.373 54.541-79.4434L54.541-61.4746C54.541-58.9844 56.2988-57.0312 58.7891-57.0312C61.2793-57.0312 63.0371-58.9844 63.0371-61.4746L63.0371-74.0234C83.6914-72.1191 99.6094-54.834 99.6094-33.6914C99.6094-11.3281 81.6895 6.73828 59.2285 6.73828C36.8164 6.73828 18.7988-11.3281 18.8477-33.6914C18.8965-43.3105 22.2656-52.2461 27.9297-59.1309C29.7852-61.6699 30.0781-64.3555 27.9785-66.4551C25.8789-68.5547 22.5098-68.3594 20.3125-65.4785C13.1348-56.7871 8.74023-45.7031 8.74023-33.6914C8.74023-5.9082 31.4941 16.8457 59.2285 16.8457ZM67.0898-26.1719C71.0938-30.4199 70.2637-36.1816 65.4785-39.4531L40.6738-56.4941C37.7441-58.4473 34.9121-55.5664 36.8652-52.6367L53.9062-27.8809C57.1777-23.0469 62.9395-22.168 67.0898-26.1719Z"/>
  </g>
  <g id="Regular-M" transform="matrix(1 0 0 1 1391.3 1126)">
   <path d="M58.5449 16.1133C85.791 16.1133 108.35-6.44531 108.35-33.6914C108.35-60.8887 85.8398-83.4961 58.5938-83.4961C56.0059-83.4961 54.7363-81.9336 54.7363-79.3945L54.7363-60.4492C54.7363-58.3496 56.2012-56.6406 58.3008-56.6406C60.4492-56.6406 61.9141-58.3496 61.9141-60.4492L61.9141-75.0488C83.3984-73.3398 100-55.5664 100-33.6914C100-10.6445 81.5918 7.8125 58.5449 7.8125C35.498 7.8125 16.9922-10.6445 17.041-33.6914C17.0898-43.9453 20.752-53.2715 26.9043-60.498C28.3691-62.3535 28.4668-64.6484 26.8555-66.4062C25.2441-68.1152 22.5586-67.9688 20.752-65.7715C13.3301-57.0801 8.74023-45.8496 8.74023-33.6914C8.74023-6.44531 31.3477 16.1133 58.5449 16.1133ZM66.3574-26.6602C70.166-30.6641 69.3848-36.1328 64.7461-39.3555L38.916-57.373C36.5234-59.082 33.9844-56.543 35.6934-54.1016L53.7109-28.2715C56.9336-23.6328 62.3535-22.8027 66.3574-26.6602Z"/>
  </g>
  <g id="Light-M" transform="matrix(1 0 0 1 1095.42 1126)">
   <path d="M57.7148 15.332C84.5215 15.332 106.689-6.83594 106.689-33.6426C106.689-60.4492 84.5703-82.6172 57.7637-82.6172C55.3711-82.6172 54.3457-81.3477 54.3457-79.1992L54.3457-60.0098C54.3457-58.3984 55.4199-57.0312 57.1289-57.0312C58.8379-57.0312 59.9609-58.3984 59.9609-60.0098L59.9609-76.2207C82.6172-75 100.342-56.4941 100.342-33.6426C100.342-10.0098 81.3477 8.98438 57.7148 8.98438C34.082 8.98438 15.0391-10.0098 15.0879-33.6426C15.0879-44.5801 19.2383-54.541 25.9766-62.0605C27.1484-63.4766 27.2461-65.2832 25.9766-66.5527C24.7559-67.8711 22.7051-67.7734 21.3379-66.1621C13.5742-57.4707 8.74023-46.0449 8.74023-33.6426C8.74023-6.83594 30.9082 15.332 57.7148 15.332ZM64.7949-27.4902C68.3105-31.2012 67.5293-36.084 63.3301-39.0625L37.9883-57.0801C35.8887-58.5938 33.7402-56.4453 35.2539-54.2969L53.2227-29.0039C56.2012-24.7559 61.1328-23.9746 64.7949-27.4902Z"/>
  </g>
  <g id="Thin-M" transform="matrix(1 0 0 1 799.806 1126)">
   <path d="M56.6406 14.3066C82.9102 14.3066 104.492-7.27539 104.492-33.5938C104.492-59.9121 82.9102-81.4941 56.6406-81.4941C54.4922-81.4941 53.8574-80.6152 53.8574-79.0039L53.8574-59.4727C53.8574-58.4473 54.4434-57.5684 55.6152-57.5684C56.7383-57.5684 57.3242-58.4473 57.3242-59.4727L57.3242-77.7344C81.5918-77.1973 100.781-57.666 100.781-33.5938C100.781-9.22852 81.0059 10.5469 56.6406 10.5469C32.2266 10.5469 12.4512-9.22852 12.4512-33.5938C12.4512-45.459 17.1875-56.1523 24.7559-64.1113C25.5371-64.9902 25.5859-66.0645 24.8535-66.7969C24.1211-67.5781 22.9492-67.5293 22.1191-66.6504C13.8672-58.0078 8.74023-46.3379 8.74023-33.5938C8.74023-7.27539 30.3223 14.3066 56.6406 14.3066ZM62.7441-28.5645C65.8203-31.8359 65.0879-36.084 61.4746-38.7207L36.7676-56.6895C35.1074-57.9102 33.4473-56.25 34.7168-54.5898L52.6367-29.8828C55.2734-26.2695 59.5215-25.4883 62.7441-28.5645Z"/>
  </g>
  <g id="Ultralight-M" transform="matrix(1 0 0 1 503.656 1126)">
   <path d="M56.0547 13.7207C82.0801 13.7207 103.369-7.56836 103.369-33.5938C103.369-59.6191 82.0801-80.9082 56.0547-80.9082C54.0527-80.9082 53.6133-80.2246 53.6133-78.8574L53.6133-59.1797C53.6133-58.4473 53.9551-57.8613 54.7852-57.8613C55.6641-57.8613 56.0059-58.4473 56.0059-59.1797L56.0059-78.5156C81.0547-78.3203 100.977-58.3008 100.977-33.5938C100.977-8.78906 80.8594 11.377 56.0547 11.377C31.2988 11.377 11.1328-8.78906 11.1328-33.5938C11.1328-45.8984 16.1133-57.0312 24.1699-65.1855C24.707-65.7227 24.7559-66.4551 24.2676-66.9434C23.7793-67.3828 23.0957-67.4316 22.5586-66.8945C14.0625-58.3008 8.74023-46.4844 8.74023-33.5938C8.74023-7.56836 30.0293 13.7207 56.0547 13.7207ZM61.6699-29.1504C64.502-32.1777 63.8184-36.084 60.498-38.5254L36.1328-56.4941C34.668-57.5684 33.3008-56.2012 34.4238-54.7363L52.3438-30.3711C54.7852-27.0508 58.6914-26.2695 61.6699-29.1504Z"/>
  </g>
  <g id="Black-S" transform="matrix(1 0 0 1 2884.57 696)">
   <path d="M48.8281 7.95898C72.4609 7.95898 90.8203-10.4492 90.8203-34.0332C90.8203-57.6172 72.4609-76.0254 48.8281-76.0254C44.9219-76.0254 42.041-73.7793 42.041-70.0684L42.041-59.375C42.041-56.1035 44.4336-53.7109 47.6562-53.7109C50.8789-53.7109 53.2227-56.1035 53.2227-59.375L53.2227-62.0117C66.6016-59.8145 76.6602-48.0469 76.6602-34.0332C76.6602-18.7988 64.3555-6.20117 48.8281-6.20117C33.3008-6.20117 20.9961-18.7988 20.9961-34.0332C20.9961-39.4043 22.7051-44.873 25.5371-49.3164C28.2715-53.6133 29.1504-56.9336 25.7812-60.0098C22.5586-62.9395 17.4805-62.5 14.3066-57.9102C9.66797-51.1719 6.83594-42.8711 6.83594-34.0332C6.83594-10.4492 25.1953 7.95898 48.8281 7.95898ZM55.0781-26.5137C58.8867-30.4688 58.0566-36.1328 53.6621-38.8672L37.9395-48.6816C33.8867-51.2207 30.5176-47.7539 33.0078-43.75L42.8223-28.0273C45.5566-23.6328 51.2207-22.7539 55.0781-26.5137Z"/>
  </g>
  <g id="Heavy-S" transform="matrix(1 0 0 1 2588.47 696)">
   <path d="M48.2422 7.37305C71.3379 7.37305 89.5996-10.9375 89.5996-34.0332C89.5996-57.1289 71.3867-75.4395 48.2422-75.4395C44.7266-75.4395 42.2852-73.3887 42.2852-70.0195L42.2852-58.3984C42.2852-55.4688 44.4336-53.2715 47.3145-53.2715C50.2441-53.2715 52.3438-55.4688 52.3438-58.3984L52.3438-62.9395C66.3574-60.8887 77.002-48.6816 77.002-34.0332C77.002-18.2129 64.2578-5.22461 48.2422-5.22461C32.1777-5.22461 19.3848-18.2129 19.4336-34.0332C19.4336-39.9414 21.3379-45.8008 24.5605-50.4883C27.002-54.1504 27.6855-57.1777 24.7559-59.9121C21.9727-62.5 17.4805-62.1582 14.6973-58.1543C9.81445-51.416 6.83594-43.0176 6.83594-34.0332C6.83594-10.9375 25.0977 7.37305 48.2422 7.37305ZM54.541-26.9043C58.2031-30.7129 57.4219-36.084 53.1738-38.8184L36.3281-49.6582C32.7148-51.9043 29.6387-48.7305 31.8848-45.2148L42.7246-28.3691C45.4102-24.1211 50.8301-23.291 54.541-26.9043Z"/>
  </g>
  <g id="Bold-S" transform="matrix(1 0 0 1 2292.44 696)">
   <path d="M47.5586 6.68945C70.1172 6.68945 88.2324-11.4746 88.2324-34.0332C88.2324-56.5918 70.166-74.7559 47.5586-74.7559C44.5312-74.7559 42.5293-72.9492 42.5293-69.9707L42.5293-57.2754C42.5293-54.7363 44.3848-52.7832 46.9727-52.7832C49.5117-52.7832 51.3184-54.7363 51.3184-57.2754L51.3184-63.9648C66.1621-62.0605 77.4414-49.3652 77.4414-34.0332C77.4414-17.5293 64.209-4.15039 47.5586-4.15039C30.9082-4.15039 17.627-17.5293 17.627-34.0332C17.6758-40.5762 19.873-46.8262 23.5352-51.8066C25.5371-54.7852 26.0254-57.4707 23.6328-59.7656C21.2891-62.0117 17.5293-61.7188 15.1367-58.4473C9.96094-51.6602 6.83594-43.1641 6.83594-34.0332C6.83594-11.4746 24.9512 6.68945 47.5586 6.68945ZM53.9062-27.2949C57.4219-30.957 56.6895-36.0352 52.5391-38.7207L34.4727-50.7324C31.3965-52.6855 28.6133-49.8535 30.5664-46.8262L42.5781-28.7598C45.2637-24.6094 50.3418-23.8281 53.9062-27.2949Z"/>
  </g>
  <g id="Semibold-S" transform="matrix(1 0 0 1 1996.2 696)">
   <path d="M47.0703 6.20117C69.2871 6.20117 87.3047-11.8652 87.3047-34.0332C87.3047-56.2012 69.2871-74.2676 47.1191-74.2676C44.4336-74.2676 42.7246-72.6074 42.7246-69.9707L42.7246-56.543C42.7246-54.1992 44.3848-52.4414 46.6797-52.4414C49.0234-52.4414 50.6348-54.1992 50.6348-56.543L50.6348-64.6484C65.9668-62.8418 77.6855-49.8535 77.6855-34.0332C77.6855-17.0898 64.1113-3.36914 47.0703-3.36914C30.0293-3.36914 16.4062-17.0898 16.4062-34.0332C16.4551-41.0156 18.7988-47.5586 22.7539-52.6855C24.5605-55.1758 24.9023-57.666 22.8027-59.7168C20.8008-61.6699 17.5293-61.4258 15.4297-58.6426C10.1074-51.8555 6.83594-43.2617 6.83594-34.0332C6.83594-11.8652 24.9023 6.20117 47.0703 6.20117ZM53.4668-27.5879C56.8359-31.1035 56.1523-35.9863 52.1484-38.6719L33.1543-51.4648C30.4688-53.2227 27.9297-50.6348 29.6875-47.9492L42.4805-29.0039C45.166-25 50-24.2188 53.4668-27.5879Z"/>
  </g>
  <g id="Medium-S" transform="matrix(1 0 0 1 1699.83 696)">
   <path d="M46.7285 5.85938C68.6035 5.85938 86.6211-12.1582 86.6211-34.0332C86.6211-55.9082 68.6523-73.9258 46.7773-73.9258C44.3359-73.9258 42.8711-72.3633 42.8711-69.9219L42.8711-55.957C42.8711-53.8086 44.3848-52.1484 46.4844-52.1484C48.6328-52.1484 50.1465-53.8086 50.1465-55.957L50.1465-65.1367C65.8691-63.4766 77.8809-50.2441 77.8809-34.0332C77.8809-16.6992 64.0625-2.83203 46.7285-2.83203C29.3457-2.83203 15.4785-16.6992 15.4785-34.0332C15.5273-41.3086 18.0176-48.0957 22.2168-53.3691C23.7793-55.5176 24.0234-57.8125 22.2168-59.6191C20.459-61.4258 17.5293-61.2305 15.6738-58.7891C10.1562-52.002 6.83594-43.3594 6.83594-34.0332C6.83594-12.1582 24.8047 5.85938 46.7285 5.85938ZM53.125-27.832C56.4453-31.25 55.7617-35.9863 51.8066-38.623L32.2266-52.002C29.7852-53.6621 27.3926-51.2207 29.0039-48.8281L42.3828-29.1992C45.0684-25.2441 49.7559-24.5605 53.125-27.832Z"/>
  </g>
  <g id="Regular-S" transform="matrix(1 0 0 1 1403.58 696)">
   <path d="M46.2402 5.37109C67.7734 5.37109 85.6934-12.5 85.6934-34.0332C85.6934-55.5664 67.8223-73.4375 46.2891-73.4375C44.1895-73.4375 43.0664-72.0703 43.0664-69.873L43.0664-55.2246C43.0664-53.3203 44.3848-51.8066 46.2402-51.8066C48.1445-51.8066 49.4629-53.3203 49.4629-55.2246L49.4629-65.8203C65.7227-64.2578 78.1738-50.7324 78.1738-34.0332C78.1738-16.2598 64.0137-2.05078 46.2402-2.05078C28.5156-2.05078 14.2578-16.2598 14.3066-34.0332C14.3555-41.748 16.9922-48.7793 21.4844-54.248C22.8027-55.957 22.9004-58.0078 21.4355-59.5703C19.9707-61.084 17.5781-60.9375 15.9668-58.9844C10.3027-52.1484 6.83594-43.457 6.83594-34.0332C6.83594-12.5 24.7559 5.37109 46.2402 5.37109ZM52.7344-28.125C55.9082-31.4453 55.2734-35.9375 51.416-38.5742L30.957-52.7344C28.9062-54.1504 26.709-52.002 28.125-49.9512L42.2852-29.4434C44.9219-25.6348 49.4629-24.9512 52.7344-28.125Z"/>
  </g>
  <g id="Light-S" transform="matrix(1 0 0 1 1107.6 696)">
   <path d="M45.5078 4.6875C66.6992 4.6875 84.2285-12.8418 84.2285-33.9844C84.2285-55.1758 66.748-72.7051 45.5566-72.7051C43.6035-72.7051 42.7246-71.582 42.7246-69.7266L42.7246-54.834C42.7246-53.3691 43.7012-52.1484 45.2148-52.1484C46.7285-52.1484 47.7051-53.3691 47.7051-54.834L47.7051-66.8945C65.0391-65.7715 78.4668-51.5137 78.4668-33.9844C78.4668-15.7227 63.8184-1.02539 45.5078-1.02539C27.2461-1.02539 12.5-15.7227 12.5488-33.9844C12.5977-42.334 15.625-49.8535 20.7031-55.6641C21.7285-56.9336 21.8262-58.5449 20.7031-59.7168C19.5801-60.8887 17.7246-60.791 16.5039-59.3262C10.498-52.4902 6.83594-43.6523 6.83594-33.9844C6.83594-12.8418 24.3652 4.6875 45.5078 4.6875ZM51.3184-28.8574C54.1992-31.8848 53.6133-35.9375 50.1465-38.3301L30.127-52.4902C28.3691-53.7109 26.5137-51.9043 27.7832-50.0977L41.8945-30.0781C44.2871-26.6113 48.3398-25.9766 51.3184-28.8574Z"/>
  </g>
  <g id="Thin-S" transform="matrix(1 0 0 1 811.867 696)">
   <path d="M44.5801 3.75977C65.2832 3.75977 82.2754-13.2324 82.2754-33.9844C82.2754-54.6875 65.2832-71.6797 44.5801-71.6797C42.8711-71.6797 42.2852-70.9473 42.2852-69.5801L42.2852-54.3457C42.2852-53.3691 42.8223-52.6367 43.8477-52.6367C44.8242-52.6367 45.4102-53.3691 45.4102-54.3457L45.4102-68.2617C64.1113-67.6758 78.8574-52.5879 78.8574-33.9844C78.8574-14.9902 63.5254 0.341797 44.5801 0.341797C25.5859 0.341797 10.2539-14.9902 10.2539-33.9844C10.2539-43.0664 13.8184-51.3184 19.6289-57.4707C20.3125-58.252 20.3613-59.2285 19.6777-59.9121C18.9941-60.6445 17.9199-60.5957 17.1875-59.7168C10.791-52.9785 6.83594-43.8965 6.83594-33.9844C6.83594-13.2324 23.877 3.75977 44.5801 3.75977ZM49.5117-29.7852C52.002-32.4219 51.4648-35.8887 48.4863-38.0371L29.0527-52.1484C27.6367-53.125 26.2695-51.7578 27.2949-50.3418L41.3574-30.8594C43.457-27.9297 46.9238-27.2949 49.5117-29.7852Z"/>
  </g>
  <g id="Ultralight-S" transform="matrix(1 0 0 1 515.644 696)">
   <path d="M44.043 3.27148C64.502 3.27148 81.2988-13.4766 81.2988-33.9355C81.2988-54.3945 64.5508-71.1426 44.043-71.1426C42.4805-71.1426 42.041-70.6055 42.041-69.4336L42.041-54.0527C42.041-53.418 42.3828-52.8809 43.1152-52.8809C43.8965-52.8809 44.2383-53.418 44.2383-54.0527L44.2383-68.9453C63.623-68.7012 79.0527-53.125 79.0527-33.9355C79.0527-14.6484 63.3789 1.07422 44.043 1.07422C24.7559 1.07422 9.08203-14.6484 9.08203-33.9355C9.08203-43.457 12.8906-52.0508 19.0918-58.4473C19.5312-58.9355 19.6289-59.5703 19.1406-60.0098C18.7012-60.498 18.0176-60.498 17.5293-59.9609C10.9375-53.2227 6.83594-43.9941 6.83594-33.9355C6.83594-13.4766 23.584 3.27148 44.043 3.27148ZM48.584-30.3223C50.8789-32.7637 50.3418-35.8887 47.6562-37.8906L28.4668-51.9531C27.2461-52.7832 26.123-51.6602 27.0508-50.4395L41.0645-31.2988C43.0664-28.6133 46.1914-28.0273 48.584-30.3223Z"/>
  </g>
 </g>
</svg>
