<?xml version="1.0" encoding="UTF-8"?>
<!--Generator: Apple Native CoreSVG 123-->
<!DOCTYPE svg
PUBLIC "-//W3C//DTD SVG 1.1//EN"
       "http://www.w3.org/Graphics/SVG/1.1/DTD/svg11.dtd">
<svg version="1.1" xmlns="http://www.w3.org/2000/svg" xmlns:xlink="http://www.w3.org/1999/xlink" width="3300" height="2200">
 <!--glyph: "uni100204.medium", point size: 100.000000, font version: "Version 15.0d7e11", template writer version: "5"-->
 <g id="Notes">
  <rect height="2200" id="artboard" style="fill:white;opacity:1" width="3300" x="0" y="0"/>
  <line id="" style="fill:none;stroke:black;opacity:1;stroke-width:0.5;" x1="263" x2="3036" y1="292" y2="292"/>
  <text style="stroke:none;fill:black;font-family:-apple-system,&quot;SF Pro Display&quot;,&quot;SF Pro Text&quot;,Helvetica,sans-serif;font-weight:bold;" transform="matrix(1 0 0 1 263 322)">Weight/Scale Variations</text>
  <text style="stroke:none;fill:black;font-family:-apple-system,&quot;SF Pro Display&quot;,&quot;SF Pro Text&quot;,Helvetica,sans-serif;text-anchor:middle;" transform="matrix(1 0 0 1 559.711 322)">Ultralight</text>
  <text style="stroke:none;fill:black;font-family:-apple-system,&quot;SF Pro Display&quot;,&quot;SF Pro Text&quot;,Helvetica,sans-serif;text-anchor:middle;" transform="matrix(1 0 0 1 856.422 322)">Thin</text>
  <text style="stroke:none;fill:black;font-family:-apple-system,&quot;SF Pro Display&quot;,&quot;SF Pro Text&quot;,Helvetica,sans-serif;text-anchor:middle;" transform="matrix(1 0 0 1 1153.13 322)">Light</text>
  <text style="stroke:none;fill:black;font-family:-apple-system,&quot;SF Pro Display&quot;,&quot;SF Pro Text&quot;,Helvetica,sans-serif;text-anchor:middle;" transform="matrix(1 0 0 1 1449.84 322)">Regular</text>
  <text style="stroke:none;fill:black;font-family:-apple-system,&quot;SF Pro Display&quot;,&quot;SF Pro Text&quot;,Helvetica,sans-serif;text-anchor:middle;" transform="matrix(1 0 0 1 1746.56 322)">Medium</text>
  <text style="stroke:none;fill:black;font-family:-apple-system,&quot;SF Pro Display&quot;,&quot;SF Pro Text&quot;,Helvetica,sans-serif;text-anchor:middle;" transform="matrix(1 0 0 1 2043.27 322)">Semibold</text>
  <text style="stroke:none;fill:black;font-family:-apple-system,&quot;SF Pro Display&quot;,&quot;SF Pro Text&quot;,Helvetica,sans-serif;text-anchor:middle;" transform="matrix(1 0 0 1 2339.98 322)">Bold</text>
  <text style="stroke:none;fill:black;font-family:-apple-system,&quot;SF Pro Display&quot;,&quot;SF Pro Text&quot;,Helvetica,sans-serif;text-anchor:middle;" transform="matrix(1 0 0 1 2636.69 322)">Heavy</text>
  <text style="stroke:none;fill:black;font-family:-apple-system,&quot;SF Pro Display&quot;,&quot;SF Pro Text&quot;,Helvetica,sans-serif;text-anchor:middle;" transform="matrix(1 0 0 1 2933.4 322)">Black</text>
  <line id="" style="fill:none;stroke:black;opacity:1;stroke-width:0.5;" x1="263" x2="3036" y1="1903" y2="1903"/>
  <g id="" transform="matrix(1 0 0 1 263 1933)">
   <path d="M 9.24805 0.830078 C 13.5547 0.830078 17.1387 -2.74414 17.1387 -7.05078 C 17.1387 -11.3574 13.5449 -14.9316 9.23828 -14.9316 C 4.94141 -14.9316 1.36719 -11.3574 1.36719 -7.05078 C 1.36719 -2.74414 4.95117 0.830078 9.24805 0.830078 Z M 9.24805 -0.654297 C 5.70312 -0.654297 2.87109 -3.49609 2.87109 -7.05078 C 2.87109 -10.6055 5.69336 -13.4473 9.23828 -13.4473 C 12.793 -13.4473 15.6348 -10.6055 15.6445 -7.05078 C 15.6543 -3.49609 12.8027 -0.654297 9.24805 -0.654297 Z M 9.22852 -3.42773 C 9.69727 -3.42773 9.9707 -3.74023 9.9707 -4.25781 L 9.9707 -6.31836 L 12.1973 -6.31836 C 12.6953 -6.31836 13.0371 -6.57227 13.0371 -7.04102 C 13.0371 -7.51953 12.7148 -7.7832 12.1973 -7.7832 L 9.9707 -7.7832 L 9.9707 -10.0098 C 9.9707 -10.5273 9.69727 -10.8496 9.22852 -10.8496 C 8.75977 -10.8496 8.50586 -10.5078 8.50586 -10.0098 L 8.50586 -7.7832 L 6.29883 -7.7832 C 5.78125 -7.7832 5.44922 -7.51953 5.44922 -7.04102 C 5.44922 -6.57227 5.80078 -6.31836 6.29883 -6.31836 L 8.50586 -6.31836 L 8.50586 -4.25781 C 8.50586 -3.75977 8.75977 -3.42773 9.22852 -3.42773 Z"/>
  </g>
  <g id="" transform="matrix(1 0 0 1 281.506 1933)">
   <path d="M 11.709 2.91016 C 17.1582 2.91016 21.6699 -1.60156 21.6699 -7.05078 C 21.6699 -12.4902 17.1484 -17.0117 11.6992 -17.0117 C 6.25977 -17.0117 1.74805 -12.4902 1.74805 -7.05078 C 1.74805 -1.60156 6.26953 2.91016 11.709 2.91016 Z M 11.709 1.25 C 7.09961 1.25 3.41797 -2.44141 3.41797 -7.05078 C 3.41797 -11.6504 7.08984 -15.3516 11.6992 -15.3516 C 16.3086 -15.3516 20 -11.6504 20.0098 -7.05078 C 20.0195 -2.44141 16.3184 1.25 11.709 1.25 Z M 11.6895 -2.41211 C 12.207 -2.41211 12.5195 -2.77344 12.5195 -3.33984 L 12.5195 -6.23047 L 15.5762 -6.23047 C 16.123 -6.23047 16.5039 -6.51367 16.5039 -7.03125 C 16.5039 -7.55859 16.1426 -7.86133 15.5762 -7.86133 L 12.5195 -7.86133 L 12.5195 -10.9277 C 12.5195 -11.5039 12.207 -11.8555 11.6895 -11.8555 C 11.1719 -11.8555 10.8789 -11.4844 10.8789 -10.9277 L 10.8789 -7.86133 L 7.83203 -7.86133 C 7.26562 -7.86133 6.89453 -7.55859 6.89453 -7.03125 C 6.89453 -6.51367 7.28516 -6.23047 7.83203 -6.23047 L 10.8789 -6.23047 L 10.8789 -3.33984 C 10.8789 -2.79297 11.1719 -2.41211 11.6895 -2.41211 Z"/>
  </g>
  <g id="" transform="matrix(1 0 0 1 304.924 1933)">
   <path d="M 14.9707 5.67383 C 21.9336 5.67383 27.6953 -0.078125 27.6953 -7.04102 C 27.6953 -14.0039 21.9238 -19.7559 14.9609 -19.7559 C 8.00781 -19.7559 2.25586 -14.0039 2.25586 -7.04102 C 2.25586 -0.078125 8.01758 5.67383 14.9707 5.67383 Z M 14.9707 3.85742 C 8.93555 3.85742 4.08203 -1.00586 4.08203 -7.04102 C 4.08203 -13.0762 8.92578 -17.9395 14.9609 -17.9395 C 21.0059 -17.9395 25.8594 -13.0762 25.8691 -7.04102 C 25.8789 -1.00586 21.0156 3.85742 14.9707 3.85742 Z M 14.9512 -1.06445 C 15.5176 -1.06445 15.8691 -1.45508 15.8691 -2.06055 L 15.8691 -6.13281 L 20.1074 -6.13281 C 20.6934 -6.13281 21.1133 -6.46484 21.1133 -7.02148 C 21.1133 -7.59766 20.7227 -7.93945 20.1074 -7.93945 L 15.8691 -7.93945 L 15.8691 -12.1875 C 15.8691 -12.8027 15.5176 -13.1934 14.9512 -13.1934 C 14.3848 -13.1934 14.0625 -12.7832 14.0625 -12.1875 L 14.0625 -7.93945 L 9.83398 -7.93945 C 9.21875 -7.93945 8.80859 -7.59766 8.80859 -7.02148 C 8.80859 -6.46484 9.23828 -6.13281 9.83398 -6.13281 L 14.0625 -6.13281 L 14.0625 -2.06055 C 14.0625 -1.47461 14.3848 -1.06445 14.9512 -1.06445 Z"/>
  </g>
  <text style="stroke:none;fill:black;font-family:-apple-system,&quot;SF Pro Display&quot;,&quot;SF Pro Text&quot;,Helvetica,sans-serif;font-weight:bold;" transform="matrix(1 0 0 1 263 1953)">Design Variations</text>
  <text style="stroke:none;fill:black;font-family:-apple-system,&quot;SF Pro Display&quot;,&quot;SF Pro Text&quot;,Helvetica,sans-serif;" transform="matrix(1 0 0 1 263 1971)">Symbols are supported in up to nine weights and three scales.</text>
  <text style="stroke:none;fill:black;font-family:-apple-system,&quot;SF Pro Display&quot;,&quot;SF Pro Text&quot;,Helvetica,sans-serif;" transform="matrix(1 0 0 1 263 1989)">For optimal layout with text and other symbols, vertically align</text>
  <text style="stroke:none;fill:black;font-family:-apple-system,&quot;SF Pro Display&quot;,&quot;SF Pro Text&quot;,Helvetica,sans-serif;" transform="matrix(1 0 0 1 263 2007)">symbols with the adjacent text.</text>
  <rect height="14" id="" style="fill:#00AEEF;stroke:none;opacity:0.4;" width="3" x="776" y="1919"/>
  <g id="" transform="matrix(1 0 0 1 779 1933)">
   <path d="M 10.5273 0 L 12.373 0 L 7.17773 -14.0918 L 5.43945 -14.0918 L 0.244141 0 L 2.08984 0 L 3.50586 -4.0332 L 9.11133 -4.0332 Z M 6.2793 -11.9531 L 6.33789 -11.9531 L 8.59375 -5.52734 L 4.02344 -5.52734 Z"/>
  </g>
  <rect height="14" id="" style="fill:#00AEEF;stroke:none;opacity:0.4;" width="3" x="791.617" y="1919"/>
  <text style="stroke:none;fill:black;font-family:-apple-system,&quot;SF Pro Display&quot;,&quot;SF Pro Text&quot;,Helvetica,sans-serif;font-weight:bold;" transform="matrix(1 0 0 1 776 1953)">Margins</text>
  <text style="stroke:none;fill:black;font-family:-apple-system,&quot;SF Pro Display&quot;,&quot;SF Pro Text&quot;,Helvetica,sans-serif;" transform="matrix(1 0 0 1 776 1971)">Leading and trailing margins on the left and right side of each symbol</text>
  <text style="stroke:none;fill:black;font-family:-apple-system,&quot;SF Pro Display&quot;,&quot;SF Pro Text&quot;,Helvetica,sans-serif;" transform="matrix(1 0 0 1 776 1989)">can be adjusted by modifying the width of the blue rectangles.</text>
  <text style="stroke:none;fill:black;font-family:-apple-system,&quot;SF Pro Display&quot;,&quot;SF Pro Text&quot;,Helvetica,sans-serif;" transform="matrix(1 0 0 1 776 2007)">Modifications are automatically applied proportionally to all</text>
  <text style="stroke:none;fill:black;font-family:-apple-system,&quot;SF Pro Display&quot;,&quot;SF Pro Text&quot;,Helvetica,sans-serif;" transform="matrix(1 0 0 1 776 2025)">scales and weights.</text>
  <g id="" transform="matrix(1 0 0 1 1289 1933)">
   <path d="M 2.83203 3.11523 L 4.375 4.6582 C 5.22461 5.48828 6.19141 5.41992 7.06055 4.46289 L 17.2754 -6.66016 C 17.7051 -6.36719 18.0957 -6.37695 18.5645 -6.47461 L 19.6094 -6.68945 L 20.3027 -5.99609 L 20.2539 -5.47852 C 20.1855 -4.95117 20.3516 -4.53125 20.8496 -4.0332 L 21.6602 -3.22266 C 22.168 -2.71484 22.8223 -2.68555 23.3008 -3.16406 L 26.5527 -6.41602 C 27.0312 -6.89453 27.0117 -7.54883 26.5039 -8.05664 L 25.6836 -8.87695 C 25.1855 -9.375 24.7754 -9.55078 24.2383 -9.47266 L 23.7109 -9.41406 L 23.0566 -10.0781 L 23.3398 -11.2207 C 23.4863 -11.7871 23.3398 -12.2559 22.7148 -12.8613 L 20.3027 -15.2539 C 16.7578 -18.7793 12.2266 -18.6719 9.11133 -15.5371 C 8.69141 -15.1074 8.64258 -14.5215 8.91602 -14.0918 C 9.15039 -13.7207 9.62891 -13.4961 10.2734 -13.6621 C 11.7871 -14.043 13.3008 -13.9258 14.7852 -12.9199 L 14.1602 -11.3379 C 13.9258 -10.752 13.9453 -10.2734 14.1797 -9.83398 L 3.01758 0.439453 C 2.08008 1.30859 1.97266 2.25586 2.83203 3.11523 Z M 10.6738 -15.1465 C 13.3398 -17.1387 16.6504 -16.8262 19.0527 -14.4141 L 21.6797 -11.8066 C 21.9141 -11.5723 21.9434 -11.3867 21.8848 -11.0938 L 21.5039 -9.53125 L 23.0762 -7.95898 L 24.043 -8.04688 C 24.3262 -8.07617 24.4141 -8.05664 24.6387 -7.83203 L 25.2637 -7.20703 L 22.5098 -4.46289 L 21.8848 -5.07812 C 21.6602 -5.30273 21.6406 -5.40039 21.6699 -5.68359 L 21.7578 -6.64062 L 20.1953 -8.20312 L 18.5742 -7.89062 C 18.291 -7.83203 18.1445 -7.83203 17.9102 -8.07617 L 15.7324 -10.2539 C 15.5078 -10.4883 15.4785 -10.625 15.6055 -10.9473 L 16.5527 -13.2227 C 14.9512 -14.7559 12.8418 -15.6055 10.8008 -14.9512 C 10.7129 -14.9219 10.6445 -14.9414 10.6152 -14.9805 C 10.5859 -15.0293 10.5859 -15.0781 10.6738 -15.1465 Z M 4.10156 2.41211 C 3.61328 1.91406 3.78906 1.61133 4.12109 1.30859 L 15.0781 -8.80859 L 16.3086 -7.57812 L 6.15234 3.34961 C 5.84961 3.68164 5.46875 3.7793 5.06836 3.37891 Z"/>
  </g>
  <text style="stroke:none;fill:black;font-family:-apple-system,&quot;SF Pro Display&quot;,&quot;SF Pro Text&quot;,Helvetica,sans-serif;font-weight:bold;" transform="matrix(1 0 0 1 1289 1953)">Exporting</text>
  <text style="stroke:none;fill:black;font-family:-apple-system,&quot;SF Pro Display&quot;,&quot;SF Pro Text&quot;,Helvetica,sans-serif;" transform="matrix(1 0 0 1 1289 1971)">Symbols should be outlined when exporting to ensure the</text>
  <text style="stroke:none;fill:black;font-family:-apple-system,&quot;SF Pro Display&quot;,&quot;SF Pro Text&quot;,Helvetica,sans-serif;" transform="matrix(1 0 0 1 1289 1989)">design is preserved when submitting to Xcode.</text>
  <text id="template-version" style="stroke:none;fill:black;font-family:-apple-system,&quot;SF Pro Display&quot;,&quot;SF Pro Text&quot;,Helvetica,sans-serif;text-anchor:end;" transform="matrix(1 0 0 1 3036 1933)">Template v.1.0</text>
  <text style="stroke:none;fill:black;font-family:-apple-system,&quot;SF Pro Display&quot;,&quot;SF Pro Text&quot;,Helvetica,sans-serif;text-anchor:end;" transform="matrix(1 0 0 1 3036 1951)">Generated from square.and.arrow.down</text>
  <text style="stroke:none;fill:black;font-family:-apple-system,&quot;SF Pro Display&quot;,&quot;SF Pro Text&quot;,Helvetica,sans-serif;text-anchor:end;" transform="matrix(1 0 0 1 3036 1969)">Typeset at 100 points</text>
  <text style="stroke:none;fill:black;font-family:-apple-system,&quot;SF Pro Display&quot;,&quot;SF Pro Text&quot;,Helvetica,sans-serif;" transform="matrix(1 0 0 1 263 726)">Small</text>
  <text style="stroke:none;fill:black;font-family:-apple-system,&quot;SF Pro Display&quot;,&quot;SF Pro Text&quot;,Helvetica,sans-serif;" transform="matrix(1 0 0 1 263 1156)">Medium</text>
  <text style="stroke:none;fill:black;font-family:-apple-system,&quot;SF Pro Display&quot;,&quot;SF Pro Text&quot;,Helvetica,sans-serif;" transform="matrix(1 0 0 1 263 1586)">Large</text>
 </g>
 <g id="Guides">
  <g id="H-reference" style="fill:#27AAE1;stroke:none;" transform="matrix(1 0 0 1 339 696)">
   <path d="M 54.9316 0 L 57.666 0 L 30.5664 -70.459 L 28.0762 -70.459 L 0.976562 0 L 3.66211 0 L 12.9395 -24.4629 L 45.7031 -24.4629 Z M 29.1992 -67.0898 L 29.4434 -67.0898 L 44.8242 -26.709 L 13.8184 -26.709 Z"/>
  </g>
  <line id="Baseline-S" style="fill:none;stroke:#27AAE1;opacity:1;stroke-width:0.577;" x1="263" x2="3036" y1="696" y2="696"/>
  <line id="Capline-S" style="fill:none;stroke:#27AAE1;opacity:1;stroke-width:0.577;" x1="263" x2="3036" y1="625.541" y2="625.541"/>
  <g id="H-reference" style="fill:#27AAE1;stroke:none;" transform="matrix(1 0 0 1 339 1126)">
   <path d="M 54.9316 0 L 57.666 0 L 30.5664 -70.459 L 28.0762 -70.459 L 0.976562 0 L 3.66211 0 L 12.9395 -24.4629 L 45.7031 -24.4629 Z M 29.1992 -67.0898 L 29.4434 -67.0898 L 44.8242 -26.709 L 13.8184 -26.709 Z"/>
  </g>
  <line id="Baseline-M" style="fill:none;stroke:#27AAE1;opacity:1;stroke-width:0.577;" x1="263" x2="3036" y1="1126" y2="1126"/>
  <line id="Capline-M" style="fill:none;stroke:#27AAE1;opacity:1;stroke-width:0.577;" x1="263" x2="3036" y1="1055.54" y2="1055.54"/>
  <g id="H-reference" style="fill:#27AAE1;stroke:none;" transform="matrix(1 0 0 1 339 1556)">
   <path d="M 54.9316 0 L 57.666 0 L 30.5664 -70.459 L 28.0762 -70.459 L 0.976562 0 L 3.66211 0 L 12.9395 -24.4629 L 45.7031 -24.4629 Z M 29.1992 -67.0898 L 29.4434 -67.0898 L 44.8242 -26.709 L 13.8184 -26.709 Z"/>
  </g>
  <line id="Baseline-L" style="fill:none;stroke:#27AAE1;opacity:1;stroke-width:0.577;" x1="263" x2="3036" y1="1556" y2="1556"/>
  <line id="Capline-L" style="fill:none;stroke:#27AAE1;opacity:1;stroke-width:0.577;" x1="263" x2="3036" y1="1485.54" y2="1485.54"/>
  <rect height="119.336" id="left-margin" style="fill:#00AEEF;stroke:none;opacity:0.4;" width="12.4512" x="1394.06" y="1030.79"/>
  <rect height="119.336" id="right-margin" style="fill:#00AEEF;stroke:none;opacity:0.4;" width="12.4512" x="1493.18" y="1030.79"/>
 </g>
 <g id="Symbols">
  <g id="Black-L" transform="matrix(1 0 0 1 2856.76 1556)">
   <path d="M 76.8555 -5.81055 C 79.2969 -5.81055 81.6895 -6.64062 84.0332 -8.93555 L 104.541 -28.5645 C 106.006 -30.0293 106.836 -31.5918 106.836 -33.7891 C 106.836 -38.0371 103.174 -40.9668 99.3164 -40.9668 C 97.1191 -40.9668 95.1172 -40.0879 93.6523 -38.5254 L 87.4023 -31.7871 L 84.3262 -26.9043 L 85.6934 -36.084 L 85.6934 -97.2168 C 85.6934 -101.855 81.8359 -105.908 76.8555 -105.908 C 71.9238 -105.908 68.0664 -101.855 68.0664 -97.2168 L 68.0664 -36.084 L 69.4336 -26.9043 L 66.3574 -31.7871 L 60.0586 -38.5254 C 58.5938 -40.0879 56.5918 -40.9668 54.3945 -40.9668 C 50.5371 -40.9668 46.9238 -38.0371 46.9238 -33.7891 C 46.9238 -31.5918 47.7051 -30.0293 49.2188 -28.5645 L 69.7266 -8.93555 C 72.0703 -6.64062 74.4629 -5.81055 76.8555 -5.81055 Z M 39.9902 33.1055 L 113.33 33.1055 C 128.564 33.1055 137.207 24.5117 137.207 9.32617 L 137.207 -49.5605 C 137.207 -64.7461 128.564 -73.3398 113.33 -73.3398 L 97.9492 -73.3398 L 97.9492 -53.125 L 110.596 -53.125 C 114.795 -53.125 116.992 -51.2207 116.992 -46.6797 L 116.992 6.44531 C 116.992 10.9863 114.795 12.8906 110.596 12.8906 L 42.6758 12.8906 C 38.4766 12.8906 36.3281 10.9863 36.3281 6.44531 L 36.3281 -46.6797 C 36.3281 -51.2207 38.4766 -53.125 42.6758 -53.125 L 55.7617 -53.125 L 55.7617 -73.3398 L 39.9902 -73.3398 C 24.7559 -73.3398 16.0645 -64.7461 16.0645 -49.5605 L 16.0645 9.32617 C 16.0645 24.5117 24.7559 33.1055 39.9902 33.1055 Z"/>
  </g>
  <g id="Heavy-L" transform="matrix(1 0 0 1 2561.32 1556)">
   <path d="M 75.5371 -6.83594 C 77.6367 -6.83594 79.6875 -7.56836 81.7383 -9.57031 L 102.588 -29.5898 C 103.906 -30.9082 104.639 -32.2754 104.639 -34.2285 C 104.639 -38.0371 101.416 -40.6738 97.998 -40.6738 C 96.0449 -40.6738 94.2383 -39.8438 92.9688 -38.4766 L 85.7422 -30.7617 L 82.1777 -25.7812 L 83.3008 -34.9609 L 83.3008 -97.8516 C 83.3008 -101.953 79.8828 -105.518 75.5371 -105.518 C 71.2402 -105.518 67.8223 -101.953 67.8223 -97.8516 L 67.8223 -34.9609 L 68.9453 -25.7812 L 65.3809 -30.7617 L 58.1543 -38.4766 C 56.8359 -39.8438 55.0293 -40.6738 53.125 -40.6738 C 49.6582 -40.6738 46.4844 -38.0371 46.4844 -34.2285 C 46.4844 -32.2754 47.2168 -30.9082 48.5352 -29.5898 L 69.3848 -9.57031 C 71.4355 -7.56836 73.4863 -6.83594 75.5371 -6.83594 Z M 38.8184 32.5195 L 111.914 32.5195 C 126.562 32.5195 134.668 24.4141 134.668 9.91211 L 134.668 -50.1465 C 134.668 -64.6484 126.562 -72.7539 111.914 -72.7539 L 95.9961 -72.7539 L 95.9961 -55.2734 L 109.814 -55.2734 C 114.6 -55.2734 117.188 -52.9785 117.188 -47.8516 L 117.188 7.61719 C 117.188 12.7441 114.6 15.0391 109.814 15.0391 L 40.918 15.0391 C 36.084 15.0391 33.5938 12.7441 33.5938 7.61719 L 33.5938 -47.8516 C 33.5938 -52.9785 36.084 -55.2734 40.918 -55.2734 L 55.127 -55.2734 L 55.127 -72.7539 L 38.8184 -72.7539 C 24.2188 -72.7539 16.0645 -64.6973 16.0645 -50.1465 L 16.0645 9.91211 C 16.0645 24.4629 24.2188 32.5195 38.8184 32.5195 Z"/>
  </g>
  <g id="Bold-L" transform="matrix(1 0 0 1 2266 1556)">
   <path d="M 74.0723 -8.05664 C 75.8301 -8.05664 77.5391 -8.64258 79.1992 -10.3027 L 100.391 -30.7617 C 101.562 -31.8848 102.197 -33.1055 102.197 -34.7656 C 102.197 -37.9883 99.5117 -40.2832 96.4844 -40.2832 C 94.8242 -40.2832 93.2617 -39.5996 92.1875 -38.3789 L 83.8867 -29.6387 L 79.7852 -24.5605 L 80.6641 -33.7402 L 80.6641 -98.584 C 80.6641 -102.051 77.7344 -105.029 74.0723 -105.029 C 70.459 -105.029 67.5293 -102.051 67.5293 -98.584 L 67.5293 -33.7402 L 68.4082 -24.5117 L 64.2578 -29.6387 L 56.0059 -38.3789 C 54.8828 -39.5996 53.3203 -40.2832 51.6602 -40.2832 C 48.6328 -40.2832 45.9961 -37.9883 45.9961 -34.7656 C 45.9961 -33.1055 46.6309 -31.8848 47.7539 -30.7617 L 68.9941 -10.3027 C 70.6543 -8.64258 72.3633 -8.05664 74.0723 -8.05664 Z M 37.5 31.8848 L 110.4 31.8848 C 124.365 31.8848 131.885 24.3652 131.885 10.5469 L 131.885 -50.7812 C 131.885 -64.5996 124.365 -72.1191 110.4 -72.1191 L 93.8477 -72.1191 L 93.8477 -57.666 L 108.984 -57.666 C 114.404 -57.666 117.432 -54.9316 117.432 -49.1211 L 117.432 8.88672 C 117.432 14.6484 114.404 17.4316 108.984 17.4316 L 38.9648 17.4316 C 33.4473 17.4316 30.5176 14.6484 30.5176 8.88672 L 30.5176 -49.1211 C 30.5176 -54.9316 33.4473 -57.666 38.9648 -57.666 L 54.3457 -57.666 L 54.3457 -72.1191 L 37.5 -72.1191 C 23.6328 -72.1191 16.0645 -64.6484 16.0645 -50.7812 L 16.0645 10.5469 C 16.0645 24.4141 23.6328 31.8848 37.5 31.8848 Z"/>
  </g>
  <g id="Semibold-L" transform="matrix(1 0 0 1 1970.27 1556)">
   <path d="M 73.0957 -8.83789 C 74.6094 -8.83789 76.0254 -9.375 77.4902 -10.791 L 98.877 -31.543 C 99.9023 -32.5684 100.488 -33.6426 100.488 -35.1562 C 100.488 -37.9883 98.1445 -40.0391 95.4102 -40.0391 C 93.9941 -40.0391 92.627 -39.4531 91.6016 -38.3301 L 82.6172 -28.8574 L 78.1738 -23.6816 L 78.8086 -32.9102 L 78.8086 -99.1211 C 78.8086 -102.148 76.2695 -104.736 73.0957 -104.736 C 69.9219 -104.736 67.3828 -102.148 67.3828 -99.1211 L 67.3828 -32.9102 L 68.0176 -23.6816 L 63.5254 -28.8574 L 54.541 -38.3301 C 53.5645 -39.4531 52.0996 -40.0391 50.6836 -40.0391 C 47.9492 -40.0391 45.6543 -37.9883 45.6543 -35.1562 C 45.6543 -33.6426 46.2402 -32.5684 47.2656 -31.543 L 68.7012 -10.791 C 70.166 -9.375 71.582 -8.83789 73.0957 -8.83789 Z M 36.6211 31.3965 L 109.326 31.3965 C 122.803 31.3965 129.932 24.3164 129.932 10.9863 L 129.932 -51.2695 C 129.932 -64.5508 122.803 -71.6797 109.326 -71.6797 L 92.334 -71.6797 L 92.334 -59.3262 L 108.35 -59.3262 C 114.258 -59.3262 117.578 -56.25 117.578 -50.0488 L 117.578 9.76562 C 117.578 16.0156 114.258 19.043 108.35 19.043 L 37.5977 19.043 C 31.6406 19.043 28.418 16.0156 28.418 9.76562 L 28.418 -50.0488 C 28.418 -56.25 31.6406 -59.3262 37.5977 -59.3262 L 53.8574 -59.3262 L 53.8574 -71.6797 L 36.6211 -71.6797 C 23.1934 -71.6797 16.0645 -64.5996 16.0645 -51.2695 L 16.0645 10.9863 C 16.0645 24.3652 23.1934 31.3965 36.6211 31.3965 Z"/>
  </g>
  <g id="Medium-L" transform="matrix(1 0 0 1 1674.31 1556)">
   <path d="M 72.3145 -9.47266 C 73.6328 -9.47266 74.8535 -9.91211 76.1719 -11.1816 L 97.7539 -32.1777 C 98.6816 -33.1055 99.2188 -34.082 99.2188 -35.4004 C 99.2188 -37.9883 97.1191 -39.8438 94.6289 -39.8438 C 93.3594 -39.8438 92.0898 -39.3066 91.2109 -38.3301 L 81.6406 -28.2715 L 76.9043 -23.0469 L 77.3926 -32.2754 L 77.3926 -99.5117 C 77.3926 -102.197 75.0977 -104.492 72.3145 -104.492 C 69.5312 -104.492 67.2363 -102.197 67.2363 -99.5117 L 67.2363 -32.2754 L 67.7246 -23.0469 L 62.9395 -28.2715 L 53.418 -38.3301 C 52.4902 -39.3066 51.1719 -39.8438 49.9512 -39.8438 C 47.4121 -39.8438 45.4102 -37.9883 45.4102 -35.4004 C 45.4102 -34.082 45.9473 -33.1055 46.875 -32.1777 L 68.5059 -11.1816 C 69.7754 -9.91211 70.9961 -9.47266 72.3145 -9.47266 Z M 35.9375 31.0547 L 108.545 31.0547 C 121.68 31.0547 128.418 24.2676 128.418 11.3281 L 128.418 -51.6113 C 128.418 -64.5508 121.68 -71.3379 108.545 -71.3379 L 91.2109 -71.3379 L 91.2109 -60.5957 L 107.91 -60.5957 C 114.16 -60.5957 117.725 -57.2754 117.725 -50.7324 L 117.725 10.4492 C 117.725 16.9922 114.16 20.3125 107.91 20.3125 L 36.5723 20.3125 C 30.2246 20.3125 26.8066 16.9922 26.8066 10.4492 L 26.8066 -50.7324 C 26.8066 -57.2754 30.2246 -60.5957 36.5723 -60.5957 L 53.4668 -60.5957 L 53.4668 -71.3379 L 35.9375 -71.3379 C 22.9004 -71.3379 16.0645 -64.5996 16.0645 -51.6113 L 16.0645 11.3281 C 16.0645 24.3164 22.9004 31.0547 35.9375 31.0547 Z"/>
  </g>
  <g id="Regular-L" transform="matrix(1 0 0 1 1378.56 1556)">
   <path d="M 71.3379 -10.2539 C 72.4121 -10.2539 73.3398 -10.6445 74.4141 -11.6699 L 96.2402 -32.959 C 97.0703 -33.7891 97.5098 -34.6191 97.5098 -35.791 C 97.5098 -37.9883 95.8008 -39.5996 93.6035 -39.5996 C 92.5781 -39.5996 91.4551 -39.1602 90.6738 -38.2812 L 80.3711 -27.4902 L 75.293 -22.2168 L 75.5859 -31.4453 L 75.5859 -100 C 75.5859 -102.295 73.6328 -104.199 71.3379 -104.199 C 68.9941 -104.199 67.041 -102.295 67.041 -100 L 67.041 -31.4453 L 67.3828 -22.168 L 62.207 -27.4902 L 51.9531 -38.2812 C 51.1719 -39.1602 50 -39.5996 48.9746 -39.5996 C 46.7285 -39.5996 45.0684 -37.9883 45.0684 -35.791 C 45.0684 -34.6191 45.5566 -33.7891 46.3379 -32.959 L 68.2129 -11.6699 C 69.2871 -10.6445 70.2148 -10.2539 71.3379 -10.2539 Z M 35.0586 30.6152 L 107.52 30.6152 C 120.166 30.6152 126.514 24.2188 126.514 11.7676 L 126.514 -52.0508 C 126.514 -64.502 120.166 -70.8496 107.52 -70.8496 L 89.6973 -70.8496 L 89.6973 -62.207 L 107.324 -62.207 C 114.014 -62.207 117.871 -58.5938 117.871 -51.6113 L 117.871 11.3281 C 117.871 18.3105 114.014 21.9238 107.324 21.9238 L 35.2539 21.9238 C 28.418 21.9238 24.707 18.3105 24.707 11.3281 L 24.707 -51.6113 C 24.707 -58.5938 28.418 -62.207 35.2539 -62.207 L 52.9297 -62.207 L 52.9297 -70.8496 L 35.0586 -70.8496 C 22.4609 -70.8496 16.0645 -64.5508 16.0645 -52.0508 L 16.0645 11.7676 C 16.0645 24.2676 22.4609 30.6152 35.0586 30.6152 Z"/>
  </g>
  <g id="Light-L" transform="matrix(1 0 0 1 1082.77 1556)">
   <path d="M 70.4102 -10.3516 C 71.2402 -10.3516 71.9727 -10.5957 72.7539 -11.377 L 95.3613 -33.6426 C 95.9961 -34.2773 96.3379 -34.9121 96.3379 -35.791 C 96.3379 -37.4512 94.9707 -38.7695 93.3105 -38.7695 C 92.5293 -38.7695 91.6504 -38.3789 91.0645 -37.7441 L 79.7852 -26.123 L 73.4375 -19.6777 L 73.6816 -28.7109 L 73.6816 -100.146 C 73.6816 -101.904 72.2168 -103.369 70.4102 -103.369 C 68.6523 -103.369 67.1387 -101.904 67.1387 -100.146 L 67.1387 -28.7109 L 67.3828 -19.6289 L 61.0352 -26.123 L 49.7559 -37.7441 C 49.1211 -38.3789 48.2422 -38.7695 47.4121 -38.7695 C 45.7031 -38.7695 44.4824 -37.4512 44.4824 -35.791 C 44.4824 -34.9121 44.8242 -34.2773 45.459 -33.6426 L 68.0664 -11.377 C 68.8477 -10.5957 69.5801 -10.3516 70.4102 -10.3516 Z M 34.0332 29.7852 L 106.689 29.7852 C 118.555 29.7852 124.658 23.6328 124.658 11.9141 L 124.658 -53.2227 C 124.658 -64.9414 118.555 -71.0938 106.689 -71.0938 L 88.5254 -71.0938 L 88.5254 -64.4531 L 106.543 -64.4531 C 113.818 -64.4531 118.066 -60.5469 118.066 -52.8809 L 118.066 11.5723 C 118.066 19.2383 113.818 23.1445 106.543 23.1445 L 34.1797 23.1445 C 26.709 23.1445 22.7051 19.2383 22.7051 11.5723 L 22.7051 -52.8809 C 22.7051 -60.5469 26.709 -64.4531 34.1797 -64.4531 L 52.2949 -64.4531 L 52.2949 -71.0938 L 34.0332 -71.0938 C 22.168 -71.0938 16.0645 -65.0391 16.0645 -53.2227 L 16.0645 11.9141 C 16.0645 23.7305 22.168 29.7852 34.0332 29.7852 Z"/>
  </g>
  <g id="Thin-L" transform="matrix(1 0 0 1 787.282 1556)">
   <path d="M 69.2383 -10.4004 C 69.7266 -10.4004 70.166 -10.5957 70.6055 -10.9863 L 94.1406 -34.5703 C 94.5312 -34.9121 94.7266 -35.3027 94.7266 -35.8398 C 94.7266 -36.8164 93.8965 -37.6465 92.9688 -37.6465 C 92.4805 -37.6465 91.8945 -37.4023 91.5527 -37.0117 L 78.9551 -24.3164 L 71.0449 -16.3574 L 71.1914 -25.0488 L 71.1914 -100.342 C 71.1914 -101.416 70.3125 -102.295 69.2383 -102.295 C 68.1641 -102.295 67.2363 -101.416 67.2363 -100.342 L 67.2363 -25.0488 L 67.3828 -16.3086 L 59.4238 -24.3164 L 46.8262 -37.0117 C 46.4355 -37.4023 45.8984 -37.6465 45.4102 -37.6465 C 44.3848 -37.6465 43.6035 -36.8164 43.6035 -35.8398 C 43.6035 -35.3027 43.8477 -34.9121 44.1895 -34.5703 L 67.8223 -10.9863 C 68.2617 -10.5957 68.7012 -10.4004 69.2383 -10.4004 Z M 32.666 28.7109 L 105.615 28.7109 C 116.504 28.7109 122.217 22.8516 122.217 12.1094 L 122.217 -54.7852 C 122.217 -65.5273 116.504 -71.3867 105.615 -71.3867 L 87.0117 -71.3867 L 87.0117 -67.4316 L 105.469 -67.4316 C 113.574 -67.4316 118.311 -63.0859 118.311 -54.5898 L 118.311 11.9141 C 118.311 20.4102 113.574 24.7559 105.469 24.7559 L 32.8125 24.7559 C 24.4141 24.7559 19.9707 20.4102 19.9707 11.9141 L 19.9707 -54.5898 C 19.9707 -63.0859 24.4141 -67.4316 32.8125 -67.4316 L 51.416 -67.4316 L 51.416 -71.3867 L 32.666 -71.3867 C 21.7773 -71.3867 16.0645 -65.6738 16.0645 -54.7852 L 16.0645 12.1094 C 16.0645 22.998 21.7773 28.7109 32.666 28.7109 Z"/>
  </g>
  <g id="Ultralight-L" transform="matrix(1 0 0 1 491.205 1556)">
   <path d="M 68.6035 -10.4492 C 68.9453 -10.4492 69.2383 -10.5957 69.4824 -10.791 L 93.5547 -35.0098 C 93.7988 -35.2539 93.8965 -35.5469 93.8965 -35.8398 C 93.8965 -36.4746 93.3105 -37.1094 92.7734 -37.1094 C 92.4316 -37.1094 92.041 -36.8652 91.7969 -36.6211 L 78.5156 -23.3887 L 69.8242 -14.6484 L 69.873 -23.1934 L 69.873 -100.439 C 69.873 -101.172 69.3359 -101.758 68.6035 -101.758 C 67.8711 -101.758 67.334 -101.172 67.334 -100.439 L 67.334 -23.1934 L 67.3828 -14.5996 L 58.5938 -23.3887 L 45.3613 -36.6211 C 45.0684 -36.8652 44.6777 -37.1094 44.3359 -37.1094 C 43.7012 -37.1094 43.2129 -36.4746 43.2129 -35.8398 C 43.2129 -35.5469 43.3105 -35.2539 43.6035 -35.0098 L 67.7246 -10.791 C 67.9688 -10.5957 68.3105 -10.4492 68.6035 -10.4492 Z M 31.9824 28.1738 L 105.078 28.1738 C 115.43 28.1738 120.947 22.4609 120.947 12.207 L 120.947 -55.6152 C 120.947 -65.8203 115.43 -71.5332 105.078 -71.5332 L 86.2305 -71.5332 L 86.2305 -68.9941 L 104.883 -68.9941 C 113.477 -68.9941 118.408 -64.3555 118.408 -55.4688 L 118.408 12.1094 C 118.408 20.9961 113.477 25.5859 104.883 25.5859 L 32.1289 25.5859 C 23.1934 25.5859 18.6035 20.9961 18.6035 12.1094 L 18.6035 -55.4688 C 18.6035 -64.3555 23.1934 -68.9941 32.1289 -68.9941 L 50.9766 -68.9941 L 50.9766 -71.5332 L 31.9824 -71.5332 C 21.582 -71.5332 16.0645 -65.9668 16.0645 -55.6152 L 16.0645 12.207 C 16.0645 22.6074 21.582 28.1738 31.9824 28.1738 Z"/>
  </g>
  <g id="Black-M" transform="matrix(1 0 0 1 2872.8 1126)">
   <path d="M 60.8398 -11.0352 C 62.9883 -11.0352 65.1855 -11.7676 67.2852 -13.8184 L 83.2031 -29.0039 C 84.4238 -30.2734 85.1074 -31.5918 85.1074 -33.4473 C 85.1074 -37.1582 81.8359 -39.6973 78.6621 -39.6973 C 76.709 -39.6973 75 -38.8672 73.7305 -37.5488 L 69.6289 -33.2031 L 67.2852 -28.9062 L 68.6035 -35.8887 L 68.6035 -82.4219 C 68.6035 -86.5234 65.2832 -90.1367 60.8398 -90.1367 C 56.4453 -90.1367 53.125 -86.5234 53.125 -82.4219 L 53.125 -35.8887 L 54.4434 -28.9062 L 52.0996 -33.2031 L 47.9492 -37.5488 C 46.7285 -38.8672 45.0195 -39.6973 43.0664 -39.6973 C 39.8438 -39.6973 36.5723 -37.1582 36.5723 -33.4473 C 36.5723 -31.5918 37.3047 -30.2734 38.5254 -29.0039 L 54.4434 -13.8184 C 56.4941 -11.7676 58.6914 -11.0352 60.8398 -11.0352 Z M 31.9824 18.1152 L 89.209 18.1152 C 101.465 18.1152 108.74 10.8398 108.74 -1.41602 L 108.74 -46.1426 C 108.74 -58.3984 101.465 -65.6738 89.209 -65.6738 L 77.9297 -65.6738 L 77.9297 -47.4121 L 86.2793 -47.4121 C 89.1113 -47.4121 90.4785 -46.2891 90.4785 -43.2129 L 90.4785 -4.3457 C 90.4785 -1.26953 89.1113 -0.146484 86.2793 -0.146484 L 34.9121 -0.146484 C 32.0801 -0.146484 30.7617 -1.26953 30.7617 -4.3457 L 30.7617 -43.2129 C 30.7617 -46.2891 32.0801 -47.4121 34.9121 -47.4121 L 43.7988 -47.4121 L 43.7988 -65.6738 L 31.9824 -65.6738 C 19.7266 -65.6738 12.4512 -58.3984 12.4512 -46.1426 L 12.4512 -1.41602 C 12.4512 10.8398 19.7266 18.1152 31.9824 18.1152 Z"/>
  </g>
  <g id="Heavy-M" transform="matrix(1 0 0 1 2577.22 1126)">
   <path d="M 59.668 -12.1582 C 61.5234 -12.1582 63.4277 -12.8418 65.2344 -14.5996 L 81.2988 -29.9805 C 82.4219 -31.1035 83.0566 -32.2754 83.0566 -33.9844 C 83.0566 -37.3047 80.1758 -39.5508 77.2461 -39.5508 C 75.5371 -39.5508 74.0234 -38.8184 72.9004 -37.6465 L 67.9688 -32.4219 L 65.3809 -28.3691 L 66.5039 -35.4004 L 66.5039 -83.1055 C 66.5039 -86.7188 63.5254 -89.8926 59.668 -89.8926 C 55.8105 -89.8926 52.832 -86.7188 52.832 -83.1055 L 52.832 -35.4004 L 53.9062 -28.3691 L 51.3184 -32.4219 L 46.4355 -37.6465 C 45.3125 -38.8184 43.7988 -39.5508 42.041 -39.5508 C 39.1602 -39.5508 36.2793 -37.3047 36.2793 -33.9844 C 36.2793 -32.2754 36.9141 -31.1035 38.0371 -29.9805 L 54.1016 -14.5996 C 55.9082 -12.8418 57.8125 -12.1582 59.668 -12.1582 Z M 31.0059 17.6758 L 87.9395 17.6758 C 99.707 17.6758 106.494 10.9375 106.494 -0.830078 L 106.494 -46.4844 C 106.494 -58.252 99.707 -64.9902 87.9395 -64.9902 L 76.123 -64.9902 L 76.123 -49.1699 L 85.6934 -49.1699 C 88.9648 -49.1699 90.625 -47.7051 90.625 -44.1406 L 90.625 -3.125 C 90.625 0.390625 88.9648 1.85547 85.6934 1.85547 L 33.252 1.85547 C 29.9316 1.85547 28.2715 0.390625 28.2715 -3.125 L 28.2715 -44.1406 C 28.2715 -47.7051 29.9316 -49.1699 33.252 -49.1699 L 43.2129 -49.1699 L 43.2129 -64.9902 L 31.0059 -64.9902 C 19.2383 -64.9902 12.4512 -58.252 12.4512 -46.4844 L 12.4512 -0.830078 C 12.4512 10.9375 19.2383 17.6758 31.0059 17.6758 Z"/>
  </g>
  <g id="Bold-M" transform="matrix(1 0 0 1 2281.8 1126)">
   <path d="M 58.3008 -13.4277 C 59.9121 -13.4277 61.4258 -13.9648 62.9395 -15.4785 L 79.1504 -31.0547 C 80.127 -32.0312 80.7129 -33.1055 80.7129 -34.5703 C 80.7129 -37.4023 78.2715 -39.4043 75.6836 -39.4043 C 74.2188 -39.4043 72.9004 -38.7695 71.9238 -37.7441 L 66.1621 -31.5918 L 63.3301 -27.7344 L 64.1113 -34.8633 L 64.1113 -83.8867 C 64.1113 -86.9629 61.5723 -89.6484 58.3008 -89.6484 C 55.0781 -89.6484 52.4902 -86.9629 52.4902 -83.8867 L 52.4902 -34.8633 L 53.3203 -27.7344 L 50.4883 -31.5918 L 44.7266 -37.7441 C 43.75 -38.7695 42.3828 -39.4043 40.918 -39.4043 C 38.3301 -39.4043 35.9375 -37.4023 35.9375 -34.5703 C 35.9375 -33.1055 36.5234 -32.0312 37.5 -31.0547 L 53.7109 -15.4785 C 55.2246 -13.9648 56.7383 -13.4277 58.3008 -13.4277 Z M 29.8828 17.1875 L 86.5234 17.1875 C 97.7539 17.1875 103.906 10.9863 103.906 -0.146484 L 103.906 -46.875 C 103.906 -58.0078 97.7539 -64.209 86.5234 -64.209 L 74.0723 -64.209 L 74.0723 -51.123 L 84.9609 -51.123 C 88.8184 -51.123 90.8691 -49.2676 90.8691 -45.2148 L 90.8691 -1.80664 C 90.8691 2.24609 88.8184 4.10156 84.9609 4.10156 L 31.3965 4.10156 C 27.5391 4.10156 25.5371 2.24609 25.5371 -1.80664 L 25.5371 -45.2148 C 25.5371 -49.2676 27.5391 -51.123 31.3965 -51.123 L 42.5781 -51.123 L 42.5781 -64.209 L 29.8828 -64.209 C 18.6523 -64.209 12.4512 -58.0566 12.4512 -46.875 L 12.4512 -0.146484 C 12.4512 11.0352 18.6523 17.1875 29.8828 17.1875 Z"/>
  </g>
  <g id="Semibold-M" transform="matrix(1 0 0 1 1985.97 1126)">
   <path d="M 57.4219 -14.3066 C 58.7402 -14.3066 60.0586 -14.7949 61.377 -16.1133 L 77.6855 -31.7871 C 78.5645 -32.666 79.1016 -33.6426 79.1016 -34.9609 C 79.1016 -37.5 77.002 -39.2578 74.6094 -39.2578 C 73.3398 -39.2578 72.1191 -38.7695 71.2402 -37.793 L 64.8926 -31.0547 L 61.8652 -27.2949 L 62.5 -34.5215 L 62.5 -84.4238 C 62.5 -87.1094 60.2539 -89.4531 57.4219 -89.4531 C 54.5898 -89.4531 52.2949 -87.1094 52.2949 -84.4238 L 52.2949 -34.5215 L 52.9297 -27.2949 L 49.9023 -31.0547 L 43.5547 -37.793 C 42.6758 -38.7695 41.4551 -39.2578 40.1855 -39.2578 C 37.7441 -39.2578 35.6934 -37.5 35.6934 -34.9609 C 35.6934 -33.6426 36.2305 -32.666 37.1094 -31.7871 L 53.418 -16.1133 C 54.7363 -14.7949 56.0547 -14.3066 57.4219 -14.3066 Z M 29.1016 16.8457 L 85.498 16.8457 C 96.3867 16.8457 102.148 11.084 102.148 0.292969 L 102.148 -47.1191 C 102.148 -57.9102 96.3867 -63.6719 85.498 -63.6719 L 72.6562 -63.6719 L 72.6562 -52.4902 L 84.4727 -52.4902 C 88.6719 -52.4902 91.0156 -50.3418 91.0156 -45.8984 L 91.0156 -0.878906 C 91.0156 3.51562 88.6719 5.66406 84.4727 5.66406 L 30.127 5.66406 C 25.8789 5.66406 23.6328 3.51562 23.6328 -0.878906 L 23.6328 -45.8984 C 23.6328 -50.3418 25.8789 -52.4902 30.127 -52.4902 L 42.1387 -52.4902 L 42.1387 -63.6719 L 29.1016 -63.6719 C 18.2617 -63.6719 12.4512 -57.9102 12.4512 -47.1191 L 12.4512 0.292969 C 12.4512 11.084 18.2617 16.8457 29.1016 16.8457 Z"/>
  </g>
  <g id="Medium-M" transform="matrix(1 0 0 1 1689.91 1126)">
   <path d="M 56.6895 -14.9902 C 57.9102 -14.9902 58.9844 -15.3809 60.1562 -16.5527 L 76.5625 -32.3242 C 77.3926 -33.1543 77.8809 -34.082 77.8809 -35.2539 C 77.8809 -37.5488 76.0254 -39.209 73.7793 -39.209 C 72.6562 -39.209 71.5332 -38.7207 70.7031 -37.8418 L 63.916 -30.6152 L 60.791 -27.002 L 61.2793 -34.2285 L 61.2793 -84.8145 C 61.2793 -87.2559 59.2285 -89.3066 56.6895 -89.3066 C 54.1992 -89.3066 52.1484 -87.2559 52.1484 -84.8145 L 52.1484 -34.2285 L 52.6367 -27.002 L 49.4629 -30.6152 L 42.6758 -37.8418 C 41.8945 -38.7207 40.7227 -39.209 39.5996 -39.209 C 37.3535 -39.209 35.5469 -37.5488 35.5469 -35.2539 C 35.5469 -34.082 35.9863 -33.1543 36.8164 -32.3242 L 53.2227 -16.5527 C 54.3945 -15.3809 55.5176 -14.9902 56.6895 -14.9902 Z M 28.5156 16.6016 L 84.7656 16.6016 C 95.3613 16.6016 100.83 11.1328 100.83 0.683594 L 100.83 -47.3145 C 100.83 -57.7637 95.3613 -63.2324 84.7656 -63.2324 L 71.582 -63.2324 L 71.582 -53.5156 L 84.1309 -53.5156 C 88.5742 -53.5156 91.1133 -51.1719 91.1133 -46.4844 L 91.1133 -0.195312 C 91.1133 4.49219 88.5742 6.83594 84.1309 6.83594 L 29.1504 6.83594 C 24.6582 6.83594 22.168 4.49219 22.168 -0.195312 L 22.168 -46.4844 C 22.168 -51.1719 24.6582 -53.5156 29.1504 -53.5156 L 41.8457 -53.5156 L 41.8457 -63.2324 L 28.5156 -63.2324 C 17.9688 -63.2324 12.4512 -57.8125 12.4512 -47.3145 L 12.4512 0.683594 C 12.4512 11.1328 17.9688 16.6016 28.5156 16.6016 Z"/>
  </g>
  <g id="Regular-M" transform="matrix(1 0 0 1 1394.06 1126)">
   <path d="M 55.8105 -15.8691 C 56.7871 -15.8691 57.6172 -16.1621 58.5938 -17.1387 L 75.0977 -33.1055 C 75.8301 -33.8379 76.2695 -34.6191 76.2695 -35.6445 C 76.2695 -37.6465 74.707 -39.0625 72.7051 -39.0625 C 71.7773 -39.0625 70.752 -38.6719 70.0684 -37.8906 L 62.6465 -30.0293 L 59.375 -26.5625 L 59.668 -33.8867 L 59.668 -85.3516 C 59.668 -87.4023 57.9102 -89.1602 55.8105 -89.1602 C 53.7109 -89.1602 51.9043 -87.4023 51.9043 -85.3516 L 51.9043 -33.8867 L 52.1973 -26.5625 L 48.9258 -30.0293 L 41.5039 -37.8906 C 40.8203 -38.6719 39.7461 -39.0625 38.8184 -39.0625 C 36.7676 -39.0625 35.3027 -37.6465 35.3027 -35.6445 C 35.3027 -34.6191 35.7422 -33.8379 36.4746 -33.1055 L 52.9785 -17.1387 C 53.9551 -16.1621 54.7852 -15.8691 55.8105 -15.8691 Z M 27.7832 16.2598 L 83.7891 16.2598 C 93.9941 16.2598 99.1211 11.1816 99.1211 1.12305 L 99.1211 -47.6074 C 99.1211 -57.666 93.9941 -62.7441 83.7891 -62.7441 L 70.166 -62.7441 L 70.166 -54.8828 L 83.6426 -54.8828 C 88.4766 -54.8828 91.2598 -52.2461 91.2598 -47.168 L 91.2598 0.683594 C 91.2598 5.76172 88.4766 8.39844 83.6426 8.39844 L 27.8809 8.39844 C 22.998 8.39844 20.3125 5.76172 20.3125 0.683594 L 20.3125 -47.168 C 20.3125 -52.2461 22.998 -54.8828 27.8809 -54.8828 L 41.4062 -54.8828 L 41.4062 -62.7441 L 27.7832 -62.7441 C 17.5781 -62.7441 12.4512 -57.666 12.4512 -47.6074 L 12.4512 1.12305 C 12.4512 11.1816 17.5781 16.2598 27.7832 16.2598 Z"/>
  </g>
  <g id="Light-M" transform="matrix(1 0 0 1 1098.18 1126)">
   <path d="M 54.9805 -15.918 C 55.7617 -15.918 56.3965 -16.1621 57.1289 -16.8945 L 74.3164 -33.6914 C 74.8535 -34.2773 75.1953 -34.8633 75.1953 -35.6445 C 75.1953 -37.207 73.9746 -38.3301 72.4609 -38.3301 C 71.7285 -38.3301 70.9473 -38.0371 70.4102 -37.4023 L 62.1094 -28.8086 L 57.7637 -24.3164 L 57.959 -31.3965 L 57.959 -85.498 C 57.959 -87.0605 56.5918 -88.4277 54.9805 -88.4277 C 53.3691 -88.4277 52.002 -87.0605 52.002 -85.498 L 52.002 -31.3965 L 52.1973 -24.2676 L 47.8516 -28.8086 L 39.5508 -37.4023 C 39.0137 -38.0371 38.1836 -38.3301 37.4512 -38.3301 C 35.8887 -38.3301 34.7168 -37.207 34.7168 -35.6445 C 34.7168 -34.8633 35.0586 -34.2773 35.6445 -33.6914 L 52.832 -16.8945 C 53.5645 -16.1621 54.1992 -15.918 54.9805 -15.918 Z M 26.8555 15.5273 L 83.0566 15.5273 C 92.5781 15.5273 97.4609 10.6445 97.4609 1.26953 L 97.4609 -48.6328 C 97.4609 -58.0566 92.5781 -62.9395 83.0566 -62.9395 L 69.1406 -62.9395 L 69.1406 -56.8848 L 82.9102 -56.8848 C 88.3301 -56.8848 91.4062 -53.9551 91.4062 -48.3398 L 91.4062 0.927734 C 91.4062 6.5918 88.3301 9.47266 82.9102 9.47266 L 26.9531 9.47266 C 21.4844 9.47266 18.5059 6.5918 18.5059 0.927734 L 18.5059 -48.3398 C 18.5059 -53.9551 21.4844 -56.8848 26.9531 -56.8848 L 40.8203 -56.8848 L 40.8203 -62.9395 L 26.8555 -62.9395 C 17.334 -62.9395 12.4512 -58.1055 12.4512 -48.6328 L 12.4512 1.26953 C 12.4512 10.6934 17.334 15.5273 26.8555 15.5273 Z"/>
  </g>
  <g id="Thin-M" transform="matrix(1 0 0 1 802.565 1126)">
   <path d="M 53.9062 -15.9668 C 54.3457 -15.9668 54.7852 -16.1133 55.1758 -16.5527 L 73.2422 -34.5215 C 73.584 -34.8633 73.7793 -35.2051 73.7793 -35.6934 C 73.7793 -36.6211 72.998 -37.3535 72.1191 -37.3535 C 71.6797 -37.3535 71.1914 -37.1094 70.8496 -36.7676 L 61.3281 -27.1973 L 55.6152 -21.3379 L 55.7129 -28.125 L 55.7129 -85.6445 C 55.7129 -86.6211 54.8828 -87.4512 53.9062 -87.4512 C 52.9297 -87.4512 52.0996 -86.6211 52.0996 -85.6445 L 52.0996 -28.125 L 52.1973 -21.2891 L 46.3867 -27.1973 L 36.9141 -36.7676 C 36.5723 -37.1094 36.084 -37.3535 35.5957 -37.3535 C 34.7168 -37.3535 33.9844 -36.6211 33.9844 -35.6934 C 33.9844 -35.2051 34.1797 -34.8633 34.5215 -34.5215 L 52.6367 -16.5527 C 53.0273 -16.1133 53.4668 -15.9668 53.9062 -15.9668 Z M 25.6348 14.5508 L 82.0801 14.5508 C 90.7227 14.5508 95.2637 9.96094 95.2637 1.41602 L 95.2637 -50.0488 C 95.2637 -58.5938 90.7227 -63.1836 82.0801 -63.1836 L 67.7734 -63.1836 L 67.7734 -59.5703 L 81.9824 -59.5703 C 88.0859 -59.5703 91.6016 -56.25 91.6016 -49.8535 L 91.6016 1.2207 C 91.6016 7.61719 88.0859 10.9375 81.9824 10.9375 L 25.7324 10.9375 C 19.3848 10.9375 16.0645 7.61719 16.0645 1.2207 L 16.0645 -49.8535 C 16.0645 -56.25 19.3848 -59.5703 25.7324 -59.5703 L 40.0391 -59.5703 L 40.0391 -63.1836 L 25.6348 -63.1836 C 16.9922 -63.1836 12.4512 -58.6914 12.4512 -50.0488 L 12.4512 1.41602 C 12.4512 10.0586 16.9922 14.5508 25.6348 14.5508 Z"/>
  </g>
  <g id="Ultralight-M" transform="matrix(1 0 0 1 506.415 1126)">
   <path d="M 53.3691 -16.0156 C 53.6621 -16.0156 53.9551 -16.1133 54.1992 -16.3574 L 72.6562 -34.9121 C 72.9004 -35.1562 73.0469 -35.4004 73.0469 -35.6934 C 73.0469 -36.2793 72.5098 -36.8164 71.9727 -36.8164 C 71.6797 -36.8164 71.2891 -36.6699 71.0449 -36.4258 L 60.9863 -26.3672 L 54.4922 -19.8242 L 54.541 -26.4648 L 54.541 -85.7422 C 54.541 -86.4258 54.0039 -86.9629 53.3691 -86.9629 C 52.6855 -86.9629 52.1484 -86.4258 52.1484 -85.7422 L 52.1484 -26.4648 L 52.1973 -19.7266 L 45.6543 -26.3672 L 35.5957 -36.4258 C 35.3516 -36.6699 35.0098 -36.8164 34.668 -36.8164 C 34.082 -36.8164 33.5938 -36.2793 33.5938 -35.6934 C 33.5938 -35.4004 33.7402 -35.1562 33.9844 -34.9121 L 52.5391 -16.3574 C 52.7344 -16.1133 53.0762 -16.0156 53.3691 -16.0156 Z M 25 14.0625 L 81.5918 14.0625 C 89.7949 14.0625 94.1406 9.57031 94.1406 1.51367 L 94.1406 -50.7812 C 94.1406 -58.8379 89.7949 -63.3301 81.5918 -63.3301 L 67.041 -63.3301 L 67.041 -60.9375 L 81.4453 -60.9375 C 87.9883 -60.9375 91.748 -57.4219 91.748 -50.6348 L 91.748 1.41602 C 91.748 8.1543 87.9883 11.6699 81.4453 11.6699 L 25.0977 11.6699 C 18.3594 11.6699 14.8438 8.1543 14.8438 1.41602 L 14.8438 -50.6348 C 14.8438 -57.4219 18.3594 -60.9375 25.0977 -60.9375 L 39.6484 -60.9375 L 39.6484 -63.3301 L 25 -63.3301 C 16.7969 -63.3301 12.4512 -58.9844 12.4512 -50.7812 L 12.4512 1.51367 C 12.4512 9.7168 16.7969 14.0625 25 14.0625 Z"/>
  </g>
  <g id="Black-S" transform="matrix(1 0 0 1 2885.99 696)">
   <path d="M 47.6074 -16.3574 C 49.2676 -16.3574 50.9766 -16.9434 52.5879 -18.5059 L 65.0391 -30.4199 C 66.0156 -31.3965 66.5527 -32.4219 66.5527 -33.8867 C 66.5527 -36.7676 64.0137 -38.7207 61.5234 -38.7207 C 60.0098 -38.7207 58.6914 -38.0859 57.7148 -37.0605 L 54.4434 -33.5938 L 52.5879 -30.2734 L 53.6133 -35.7422 L 53.6133 -72.2656 C 53.6133 -75.4395 51.0254 -78.2227 47.6074 -78.2227 C 44.1895 -78.2227 41.6016 -75.4395 41.6016 -72.2656 L 41.6016 -35.7422 L 42.627 -30.2734 L 40.7715 -33.5938 L 37.5 -37.0605 C 36.5234 -38.0859 35.2051 -38.7207 33.6914 -38.7207 C 31.2012 -38.7207 28.6621 -36.7676 28.6621 -33.8867 C 28.6621 -32.4219 29.1992 -31.3965 30.1758 -30.4199 L 42.627 -18.5059 C 44.2383 -16.9434 45.9473 -16.3574 47.6074 -16.3574 Z M 25 6.54297 L 69.8242 6.54297 C 79.3945 6.54297 85.0586 0.878906 85.0586 -8.69141 L 85.0586 -43.7988 C 85.0586 -53.3691 79.3945 -59.0332 69.8242 -59.0332 L 60.9375 -59.0332 L 60.9375 -44.873 L 67.5781 -44.873 C 69.8242 -44.873 70.8984 -43.9941 70.8984 -41.5527 L 70.8984 -10.9375 C 70.8984 -8.49609 69.8242 -7.61719 67.5781 -7.61719 L 27.2461 -7.61719 C 25 -7.61719 23.9258 -8.49609 23.9258 -10.9375 L 23.9258 -41.5527 C 23.9258 -43.9941 25 -44.873 27.2461 -44.873 L 34.2773 -44.873 L 34.2773 -59.0332 L 25 -59.0332 C 15.4297 -59.0332 9.76562 -53.3691 9.76562 -43.7988 L 9.76562 -8.69141 C 9.76562 0.878906 15.4297 6.54297 25 6.54297 Z"/>
  </g>
  <g id="Heavy-S" transform="matrix(1 0 0 1 2590.06 696)">
   <path d="M 46.7773 -17.2363 C 48.2422 -17.2363 49.7559 -17.7246 51.1719 -19.1406 L 63.6719 -31.1035 C 64.5508 -31.9824 65.0879 -32.959 65.0879 -34.2773 C 65.0879 -36.9141 62.793 -38.6719 60.498 -38.6719 C 59.1309 -38.6719 57.9102 -38.1348 57.0312 -37.1582 L 53.2715 -33.1543 L 51.3184 -30.0781 L 52.1973 -35.6445 L 52.1973 -72.7539 C 52.1973 -75.6348 49.8535 -78.125 46.7773 -78.125 C 43.75 -78.125 41.3574 -75.6348 41.3574 -72.7539 L 41.3574 -35.6445 L 42.2363 -30.0781 L 40.332 -33.1543 L 36.5723 -37.1582 C 35.6445 -38.1348 34.4238 -38.6719 33.0566 -38.6719 C 30.7617 -38.6719 28.5156 -36.9141 28.5156 -34.2773 C 28.5156 -32.959 29.0039 -31.9824 29.8828 -31.1035 L 42.3828 -19.1406 C 43.7988 -17.7246 45.3125 -17.2363 46.7773 -17.2363 Z M 24.3652 6.29883 L 68.9453 6.29883 C 78.2227 6.29883 83.4961 0.976562 83.4961 -8.25195 L 83.4961 -43.9453 C 83.4961 -53.1738 78.2227 -58.4961 68.9453 -58.4961 L 59.668 -58.4961 L 59.668 -45.9961 L 67.1875 -45.9961 C 69.7266 -45.9961 70.9961 -44.873 70.9961 -42.1387 L 70.9961 -10.0586 C 70.9961 -7.32422 69.7266 -6.20117 67.1875 -6.20117 L 26.0742 -6.20117 C 23.5352 -6.20117 22.2656 -7.32422 22.2656 -10.0586 L 22.2656 -42.1387 C 22.2656 -44.873 23.5352 -45.9961 26.0742 -45.9961 L 33.8867 -45.9961 L 33.8867 -58.4961 L 24.3652 -58.4961 C 15.0879 -58.4961 9.76562 -53.1738 9.76562 -43.9453 L 9.76562 -8.25195 C 9.76562 0.976562 15.0879 6.29883 24.3652 6.29883 Z"/>
  </g>
  <g id="Bold-S" transform="matrix(1 0 0 1 2294.23 696)">
   <path d="M 45.8496 -18.2129 C 47.1191 -18.2129 48.3887 -18.6035 49.6094 -19.873 L 62.1582 -31.8359 C 62.9395 -32.666 63.4277 -33.4961 63.4277 -34.7168 C 63.4277 -37.0605 61.4746 -38.6719 59.3262 -38.6719 C 58.1055 -38.6719 57.0312 -38.1836 56.25 -37.3047 L 51.9043 -32.666 L 49.9512 -29.8828 L 50.5859 -35.5469 L 50.5859 -73.3398 C 50.5859 -75.8301 48.4863 -78.0273 45.8496 -78.0273 C 43.2129 -78.0273 41.1133 -75.8301 41.1133 -73.3398 L 41.1133 -35.5469 L 41.7969 -29.8828 L 39.7949 -32.666 L 35.498 -37.3047 C 34.7168 -38.1836 33.5449 -38.6719 32.373 -38.6719 C 30.2246 -38.6719 28.3203 -37.0605 28.3203 -34.7168 C 28.3203 -33.4961 28.7598 -32.666 29.5898 -31.8359 L 42.0898 -19.873 C 43.3594 -18.6035 44.5801 -18.2129 45.8496 -18.2129 Z M 23.6328 6.00586 L 67.9199 6.00586 C 76.8555 6.00586 81.7383 1.12305 81.7383 -7.76367 L 81.7383 -44.0918 C 81.7383 -52.9785 76.8555 -57.8613 67.9199 -57.8613 L 58.2031 -57.8613 L 58.2031 -47.2656 L 66.748 -47.2656 C 69.6289 -47.2656 71.1426 -45.8496 71.1426 -42.7734 L 71.1426 -9.08203 C 71.1426 -6.00586 69.6289 -4.58984 66.748 -4.58984 L 24.8047 -4.58984 C 21.9238 -4.58984 20.3613 -6.00586 20.3613 -9.08203 L 20.3613 -42.7734 C 20.3613 -45.8496 21.9238 -47.2656 24.8047 -47.2656 L 33.4961 -47.2656 L 33.4961 -57.8613 L 23.6328 -57.8613 C 14.6973 -57.8613 9.76562 -52.9785 9.76562 -44.0918 L 9.76562 -7.76367 C 9.76562 1.12305 14.6973 6.00586 23.6328 6.00586 Z"/>
  </g>
  <g id="Semibold-S" transform="matrix(1 0 0 1 1998.1 696)">
   <path d="M 45.2148 -18.8477 C 46.3379 -18.8477 47.4121 -19.2383 48.5352 -20.3613 L 61.084 -32.373 C 61.8652 -33.1055 62.2559 -33.9355 62.2559 -35.0098 C 62.2559 -37.1582 60.5469 -38.623 58.4961 -38.623 C 57.4219 -38.623 56.3965 -38.2324 55.6641 -37.4023 L 50.9766 -32.3242 L 48.9746 -29.7852 L 49.5117 -35.498 L 49.5117 -73.7305 C 49.5117 -76.0254 47.6074 -77.9297 45.2148 -77.9297 C 42.8711 -77.9297 40.9668 -76.0254 40.9668 -73.7305 L 40.9668 -35.498 L 41.4551 -29.7852 L 39.4531 -32.3242 L 34.7656 -37.4023 C 34.0332 -38.2324 32.959 -38.623 31.9336 -38.623 C 29.8828 -38.623 28.1738 -37.1582 28.1738 -35.0098 C 28.1738 -33.9355 28.6133 -33.1055 29.3457 -32.373 L 41.8945 -20.3613 C 43.0176 -19.2383 44.0918 -18.8477 45.2148 -18.8477 Z M 23.0957 5.81055 L 67.2363 5.81055 C 75.9277 5.81055 80.5664 1.2207 80.5664 -7.42188 L 80.5664 -44.1895 C 80.5664 -52.832 75.9277 -57.4219 67.2363 -57.4219 L 57.2266 -57.4219 L 57.2266 -48.0957 L 66.4551 -48.0957 C 69.5312 -48.0957 71.2402 -46.5332 71.2402 -43.2617 L 71.2402 -8.39844 C 71.2402 -5.07812 69.5312 -3.51562 66.4551 -3.51562 L 23.877 -3.51562 C 20.752 -3.51562 19.0918 -5.07812 19.0918 -8.39844 L 19.0918 -43.2617 C 19.0918 -46.5332 20.752 -48.0957 23.877 -48.0957 L 33.2031 -48.0957 L 33.2031 -57.4219 L 23.0957 -57.4219 C 14.4043 -57.4219 9.76562 -52.832 9.76562 -44.1895 L 9.76562 -7.42188 C 9.76562 1.2207 14.4043 5.81055 23.0957 5.81055 Z"/>
  </g>
  <g id="Medium-S" transform="matrix(1 0 0 1 1701.85 696)">
   <path d="M 44.7266 -19.3848 C 45.752 -19.3848 46.6797 -19.7266 47.7051 -20.7031 L 60.3027 -32.7637 C 60.9863 -33.4473 61.4258 -34.2285 61.4258 -35.2539 C 61.4258 -37.207 59.8145 -38.623 57.9102 -38.623 C 56.9336 -38.623 55.957 -38.2324 55.2734 -37.5 L 50.293 -32.0801 L 48.2422 -29.6875 L 48.6816 -35.4492 L 48.6816 -74.0234 C 48.6816 -76.123 46.875 -77.8809 44.7266 -77.8809 C 42.5781 -77.8809 40.8203 -76.123 40.8203 -74.0234 L 40.8203 -35.4492 L 41.2109 -29.6875 L 39.209 -32.0801 L 34.2285 -37.5 C 33.5449 -38.2324 32.5195 -38.623 31.543 -38.623 C 29.5898 -38.623 28.0762 -37.207 28.0762 -35.2539 C 28.0762 -34.2285 28.4668 -33.4473 29.1992 -32.7637 L 41.748 -20.7031 C 42.7734 -19.7266 43.7012 -19.3848 44.7266 -19.3848 Z M 22.7051 5.66406 L 66.6992 5.66406 C 75.2441 5.66406 79.6387 1.26953 79.6387 -7.12891 L 79.6387 -44.2871 C 79.6387 -52.7344 75.2441 -57.0801 66.6992 -57.0801 L 56.4941 -57.0801 L 56.4941 -48.7793 L 66.2109 -48.7793 C 69.4824 -48.7793 71.3379 -47.0703 71.3379 -43.6035 L 71.3379 -7.86133 C 71.3379 -4.39453 69.4824 -2.68555 66.2109 -2.68555 L 23.1934 -2.68555 C 19.9219 -2.68555 18.0664 -4.39453 18.0664 -7.86133 L 18.0664 -43.6035 C 18.0664 -47.0703 19.9219 -48.7793 23.1934 -48.7793 L 33.0078 -48.7793 L 33.0078 -57.0801 L 22.7051 -57.0801 C 14.209 -57.0801 9.76562 -52.7344 9.76562 -44.2871 L 9.76562 -7.12891 C 9.76562 1.31836 14.209 5.66406 22.7051 5.66406 Z"/>
  </g>
  <g id="Regular-S" transform="matrix(1 0 0 1 1405.73 696)">
   <path d="M 44.0918 -20.0195 C 45.0195 -20.0195 45.752 -20.3125 46.6309 -21.1914 L 59.2285 -33.252 C 59.9121 -33.8867 60.3027 -34.6191 60.3027 -35.5469 C 60.3027 -37.3535 58.9355 -38.623 57.0801 -38.623 C 56.25 -38.623 55.3711 -38.2812 54.7363 -37.5488 L 49.3652 -31.7383 L 47.3145 -29.541 L 47.6074 -35.3516 L 47.6074 -74.4141 C 47.6074 -76.2695 45.9961 -77.832 44.0918 -77.832 C 42.2363 -77.832 40.625 -76.2695 40.625 -74.4141 L 40.625 -35.3516 L 40.918 -29.541 L 38.8672 -31.7383 L 33.4961 -37.5488 C 32.8613 -38.2812 31.9336 -38.623 31.1035 -38.623 C 29.248 -38.623 27.9297 -37.3535 27.9297 -35.5469 C 27.9297 -34.6191 28.3203 -33.8867 28.9551 -33.252 L 41.6016 -21.1914 C 42.4805 -20.3125 43.2129 -20.0195 44.0918 -20.0195 Z M 22.2168 5.46875 L 66.0156 5.46875 C 74.3652 5.46875 78.4668 1.36719 78.4668 -6.83594 L 78.4668 -44.3848 C 78.4668 -52.5879 74.3652 -56.6895 66.0156 -56.6895 L 55.5176 -56.6895 L 55.5176 -49.6094 L 65.918 -49.6094 C 69.3848 -49.6094 71.4355 -47.7051 71.4355 -44.043 L 71.4355 -7.17773 C 71.4355 -3.4668 69.3848 -1.61133 65.918 -1.61133 L 22.3145 -1.61133 C 18.7988 -1.61133 16.7969 -3.4668 16.7969 -7.17773 L 16.7969 -44.043 C 16.7969 -47.7051 18.7988 -49.6094 22.3145 -49.6094 L 32.7148 -49.6094 L 32.7148 -56.6895 L 22.2168 -56.6895 C 13.916 -56.6895 9.76562 -52.5879 9.76562 -44.3848 L 9.76562 -6.83594 C 9.76562 1.36719 13.916 5.46875 22.2168 5.46875 Z"/>
  </g>
  <g id="Light-S" transform="matrix(1 0 0 1 1109.75 696)">
   <path d="M 43.4082 -20.0684 C 44.0918 -20.0684 44.6777 -20.3125 45.3613 -20.9473 L 58.5449 -33.7891 C 59.0332 -34.3262 59.3262 -34.8633 59.3262 -35.5469 C 59.3262 -36.9141 58.252 -37.9395 56.8848 -37.9395 C 56.2012 -37.9395 55.5176 -37.6953 55.0293 -37.1094 L 48.877 -30.6641 L 45.8496 -27.5391 L 46.0938 -33.1543 L 46.0938 -74.5605 C 46.0938 -75.9766 44.8242 -77.1484 43.4082 -77.1484 C 41.9434 -77.1484 40.7227 -75.9766 40.7227 -74.5605 L 40.7227 -33.1543 L 40.918 -27.5391 L 37.8906 -30.6641 L 31.7383 -37.1094 C 31.25 -37.6953 30.5176 -37.9395 29.8828 -37.9395 C 28.4668 -37.9395 27.4414 -36.9141 27.4414 -35.5469 C 27.4414 -34.8633 27.7344 -34.3262 28.2227 -33.7891 L 41.4551 -20.9473 C 42.1387 -20.3125 42.7246 -20.0684 43.4082 -20.0684 Z M 21.3867 4.78516 L 65.332 4.78516 C 73.0957 4.78516 77.002 0.927734 77.002 -6.68945 L 77.002 -45.3613 C 77.002 -52.9297 73.0957 -56.8359 65.332 -56.8359 L 54.5898 -56.8359 L 54.5898 -51.416 L 65.2344 -51.416 C 69.2383 -51.416 71.582 -49.2676 71.582 -45.0684 L 71.582 -6.98242 C 71.582 -2.7832 69.2383 -0.634766 65.2344 -0.634766 L 21.4844 -0.634766 C 17.4316 -0.634766 15.1855 -2.7832 15.1855 -6.98242 L 15.1855 -45.0684 C 15.1855 -49.2676 17.4316 -51.416 21.4844 -51.416 L 32.2266 -51.416 L 32.2266 -56.8359 L 21.3867 -56.8359 C 13.6719 -56.8359 9.76562 -52.9785 9.76562 -45.3613 L 9.76562 -6.68945 C 9.76562 0.927734 13.6719 4.78516 21.3867 4.78516 Z"/>
  </g>
  <g id="Thin-S" transform="matrix(1 0 0 1 814.015 696)">
   <path d="M 42.4316 -20.1172 C 42.8711 -20.1172 43.2617 -20.2637 43.6035 -20.6543 L 57.5684 -34.5215 C 57.9102 -34.8145 58.0566 -35.1562 58.0566 -35.5957 C 58.0566 -36.4258 57.373 -37.0605 56.5918 -37.0605 C 56.2012 -37.0605 55.7129 -36.8652 55.4199 -36.5723 L 48.2422 -29.248 L 43.9941 -24.9023 L 44.0918 -30.2734 L 44.0918 -74.707 C 44.0918 -75.5859 43.3594 -76.3184 42.4316 -76.3184 C 41.5527 -76.3184 40.8203 -75.5859 40.8203 -74.707 L 40.8203 -30.2734 L 40.918 -24.8535 L 36.6211 -29.248 L 29.4434 -36.5723 C 29.1504 -36.8652 28.6621 -37.0605 28.2715 -37.0605 C 27.4414 -37.0605 26.8066 -36.4258 26.8066 -35.5957 C 26.8066 -35.1562 26.9531 -34.8145 27.2949 -34.5215 L 41.2598 -20.6543 C 41.6504 -20.2637 42.041 -20.1172 42.4316 -20.1172 Z M 20.3125 3.95508 L 64.502 3.95508 C 71.4355 3.95508 75.0488 0.292969 75.0488 -6.54297 L 75.0488 -46.582 C 75.0488 -53.418 71.4355 -57.0801 64.502 -57.0801 L 53.3691 -57.0801 L 53.3691 -53.7598 L 64.4043 -53.7598 C 69.0918 -53.7598 71.7285 -51.2695 71.7285 -46.3867 L 71.7285 -6.73828 C 71.7285 -1.85547 69.0918 0.634766 64.4043 0.634766 L 20.4102 0.634766 C 15.625 0.634766 13.0859 -1.85547 13.0859 -6.73828 L 13.0859 -46.3867 C 13.0859 -51.2695 15.625 -53.7598 20.4102 -53.7598 L 31.543 -53.7598 L 31.543 -57.0801 L 20.3125 -57.0801 C 13.3789 -57.0801 9.76562 -53.4668 9.76562 -46.582 L 9.76562 -6.54297 C 9.76562 0.390625 13.3789 3.95508 20.3125 3.95508 Z"/>
  </g>
  <g id="Ultralight-S" transform="matrix(1 0 0 1 517.792 696)">
   <path d="M 41.9434 -20.166 C 42.2363 -20.166 42.4805 -20.2637 42.7246 -20.5078 L 57.0801 -34.8633 C 57.3242 -35.1074 57.4219 -35.3027 57.4219 -35.5957 C 57.4219 -36.1328 56.9336 -36.6211 56.4453 -36.6211 C 56.1523 -36.6211 55.8105 -36.4746 55.6152 -36.2305 L 47.9004 -28.4668 L 43.0176 -23.5352 L 43.0664 -28.8086 L 43.0664 -74.8047 C 43.0664 -75.3906 42.5781 -75.8789 41.9434 -75.8789 C 41.3574 -75.8789 40.8691 -75.3906 40.8691 -74.8047 L 40.8691 -28.8086 L 40.918 -23.4863 L 35.9863 -28.4668 L 28.2715 -36.2305 C 28.0273 -36.4746 27.6855 -36.6211 27.4414 -36.6211 C 26.9043 -36.6211 26.4648 -36.1328 26.4648 -35.5957 C 26.4648 -35.3027 26.5625 -35.1074 26.7578 -34.8633 L 41.1621 -20.5078 C 41.4062 -20.2637 41.6992 -20.166 41.9434 -20.166 Z M 19.7754 3.51562 L 64.0625 3.51562 C 70.6055 3.51562 74.0723 -0.0488281 74.0723 -6.44531 L 74.0723 -47.2168 C 74.0723 -53.6621 70.6055 -57.1777 64.0625 -57.1777 L 52.7344 -57.1777 L 52.7344 -54.9805 L 63.9648 -54.9805 C 68.9453 -54.9805 71.875 -52.2949 71.875 -47.1191 L 71.875 -6.5918 C 71.875 -1.36719 68.9453 1.31836 63.9648 1.31836 L 19.873 1.31836 C 14.6484 1.31836 11.9629 -1.36719 11.9629 -6.5918 L 11.9629 -47.1191 C 11.9629 -52.2949 14.6484 -54.9805 19.873 -54.9805 L 31.2012 -54.9805 L 31.2012 -57.1777 L 19.7754 -57.1777 C 13.2324 -57.1777 9.76562 -53.7598 9.76562 -47.2168 L 9.76562 -6.44531 C 9.76562 0.0488281 13.2324 3.51562 19.7754 3.51562 Z"/>
  </g>
 </g>
</svg>
