<?xml version="1.0" encoding="UTF-8"?>
<!--Generator: Apple Native CoreSVG 149-->
<!DOCTYPE svg
PUBLIC "-//W3C//DTD SVG 1.1//EN"
       "http://www.w3.org/Graphics/SVG/1.1/DTD/svg11.dtd">
<svg version="1.1" xmlns="http://www.w3.org/2000/svg" xmlns:xlink="http://www.w3.org/1999/xlink" width="3300" height="2200">
 <!--glyph: "uni100204.medium", point size: 100.000000, font version: "Version 16.0d18e1", template writer version: "8"-->
 <g id="Notes">
  <rect height="2200" id="artboard" style="fill:white;opacity:1" width="3300" x="0" y="0"/>
  <line id="" style="fill:none;stroke:black;opacity:1;stroke-width:0.5;" x1="263" x2="3036" y1="292" y2="292"/>
  <text style="stroke:none;fill:black;font-family:-apple-system,&quot;SF Pro Display&quot;,&quot;SF Pro Text&quot;,Helvetica,sans-serif;font-weight:bold;" transform="matrix(1 0 0 1 263 322)">Weight/Scale Variations</text>
  <text style="stroke:none;fill:black;font-family:-apple-system,&quot;SF Pro Display&quot;,&quot;SF Pro Text&quot;,Helvetica,sans-serif;text-anchor:middle;" transform="matrix(1 0 0 1 559.711 322)">Ultralight</text>
  <text style="stroke:none;fill:black;font-family:-apple-system,&quot;SF Pro Display&quot;,&quot;SF Pro Text&quot;,Helvetica,sans-serif;text-anchor:middle;" transform="matrix(1 0 0 1 856.422 322)">Thin</text>
  <text style="stroke:none;fill:black;font-family:-apple-system,&quot;SF Pro Display&quot;,&quot;SF Pro Text&quot;,Helvetica,sans-serif;text-anchor:middle;" transform="matrix(1 0 0 1 1153.13 322)">Light</text>
  <text style="stroke:none;fill:black;font-family:-apple-system,&quot;SF Pro Display&quot;,&quot;SF Pro Text&quot;,Helvetica,sans-serif;text-anchor:middle;" transform="matrix(1 0 0 1 1449.84 322)">Regular</text>
  <text style="stroke:none;fill:black;font-family:-apple-system,&quot;SF Pro Display&quot;,&quot;SF Pro Text&quot;,Helvetica,sans-serif;text-anchor:middle;" transform="matrix(1 0 0 1 1746.56 322)">Medium</text>
  <text style="stroke:none;fill:black;font-family:-apple-system,&quot;SF Pro Display&quot;,&quot;SF Pro Text&quot;,Helvetica,sans-serif;text-anchor:middle;" transform="matrix(1 0 0 1 2043.27 322)">Semibold</text>
  <text style="stroke:none;fill:black;font-family:-apple-system,&quot;SF Pro Display&quot;,&quot;SF Pro Text&quot;,Helvetica,sans-serif;text-anchor:middle;" transform="matrix(1 0 0 1 2339.98 322)">Bold</text>
  <text style="stroke:none;fill:black;font-family:-apple-system,&quot;SF Pro Display&quot;,&quot;SF Pro Text&quot;,Helvetica,sans-serif;text-anchor:middle;" transform="matrix(1 0 0 1 2636.69 322)">Heavy</text>
  <text style="stroke:none;fill:black;font-family:-apple-system,&quot;SF Pro Display&quot;,&quot;SF Pro Text&quot;,Helvetica,sans-serif;text-anchor:middle;" transform="matrix(1 0 0 1 2933.4 322)">Black</text>
  <line id="" style="fill:none;stroke:black;opacity:1;stroke-width:0.5;" x1="263" x2="3036" y1="1903" y2="1903"/>
  <g id="" transform="matrix(1 0 0 1 263 1933)">
   <path d="M9.24805 0.830078C13.5547 0.830078 17.1387-2.74414 17.1387-7.05078C17.1387-11.3574 13.5449-14.9316 9.23828-14.9316C4.94141-14.9316 1.36719-11.3574 1.36719-7.05078C1.36719-2.74414 4.95117 0.830078 9.24805 0.830078ZM9.24805-0.654297C5.70312-0.654297 2.87109-3.49609 2.87109-7.05078C2.87109-10.6055 5.69336-13.4473 9.23828-13.4473C12.793-13.4473 15.6348-10.6055 15.6445-7.05078C15.6543-3.49609 12.8027-0.654297 9.24805-0.654297ZM6.39648-6.31836L8.50586-6.31836L8.50586-4.19922C8.50586-3.75977 8.79883-3.45703 9.22852-3.45703C9.67773-3.45703 9.9707-3.75977 9.9707-4.19922L9.9707-6.31836L12.0996-6.31836C12.5391-6.31836 12.8418-6.61133 12.8418-7.04102C12.8418-7.48047 12.5391-7.7832 12.0996-7.7832L9.9707-7.7832L9.9707-9.89258C9.9707-10.3418 9.67773-10.6445 9.22852-10.6445C8.79883-10.6445 8.50586-10.3418 8.50586-9.89258L8.50586-7.7832L6.39648-7.7832C5.94727-7.7832 5.64453-7.48047 5.64453-7.04102C5.64453-6.61133 5.94727-6.31836 6.39648-6.31836Z"/>
  </g>
  <g id="" transform="matrix(1 0 0 1 281.506 1933)">
   <path d="M11.709 2.91016C17.1582 2.91016 21.6699-1.61133 21.6699-7.05078C21.6699-12.5 17.1484-17.0117 11.6992-17.0117C6.25977-17.0117 1.74805-12.5 1.74805-7.05078C1.74805-1.61133 6.26953 2.91016 11.709 2.91016ZM11.709 1.25C7.09961 1.25 3.41797-2.44141 3.41797-7.05078C3.41797-11.6602 7.08984-15.3516 11.6992-15.3516C16.3086-15.3516 20-11.6602 20.0098-7.05078C20.0195-2.44141 16.3184 1.25 11.709 1.25ZM7.98828-6.23047L10.8789-6.23047L10.8789-3.32031C10.8789-2.83203 11.2109-2.5 11.6895-2.5C12.1777-2.5 12.5195-2.83203 12.5195-3.32031L12.5195-6.23047L15.4297-6.23047C15.918-6.23047 16.25-6.5625 16.25-7.04102C16.25-7.5293 15.918-7.87109 15.4297-7.87109L12.5195-7.87109L12.5195-10.7617C12.5195-11.2695 12.1777-11.6016 11.6895-11.6016C11.2109-11.6016 10.8789-11.2598 10.8789-10.7617L10.8789-7.87109L7.98828-7.87109C7.48047-7.87109 7.14844-7.5293 7.14844-7.04102C7.14844-6.5625 7.49023-6.23047 7.98828-6.23047Z"/>
  </g>
  <g id="" transform="matrix(1 0 0 1 304.924 1933)">
   <path d="M14.9707 5.66406C21.9336 5.66406 27.6953-0.0976562 27.6953-7.05078C27.6953-14.0137 21.9238-19.7754 14.9609-19.7754C8.00781-19.7754 2.25586-14.0137 2.25586-7.05078C2.25586-0.0976562 8.01758 5.66406 14.9707 5.66406ZM14.9707 3.84766C8.93555 3.84766 4.08203-1.01562 4.08203-7.05078C4.08203-13.0957 8.92578-17.9492 14.9609-17.9492C21.0059-17.9492 25.8594-13.0957 25.8691-7.05078C25.8789-1.01562 21.0156 3.84766 14.9707 3.84766ZM10.0586-6.14258L14.0625-6.14258L14.0625-2.12891C14.0625-1.5918 14.4336-1.2207 14.9512-1.2207C15.4883-1.2207 15.8594-1.5918 15.8594-2.12891L15.8594-6.14258L19.8828-6.14258C20.4102-6.14258 20.791-6.51367 20.791-7.03125C20.791-7.56836 20.4199-7.94922 19.8828-7.94922L15.8594-7.94922L15.8594-11.9531C15.8594-12.5098 15.4883-12.8809 14.9512-12.8809C14.4336-12.8809 14.0625-12.5 14.0625-11.9531L14.0625-7.94922L10.0586-7.94922C9.50195-7.94922 9.13086-7.56836 9.13086-7.03125C9.13086-6.51367 9.51172-6.14258 10.0586-6.14258Z"/>
  </g>
  <text style="stroke:none;fill:black;font-family:-apple-system,&quot;SF Pro Display&quot;,&quot;SF Pro Text&quot;,Helvetica,sans-serif;font-weight:bold;" transform="matrix(1 0 0 1 263 1953)">Design Variations</text>
  <text style="stroke:none;fill:black;font-family:-apple-system,&quot;SF Pro Display&quot;,&quot;SF Pro Text&quot;,Helvetica,sans-serif;" transform="matrix(1 0 0 1 263 1971)">Symbols are supported in up to nine weights and three scales.</text>
  <text style="stroke:none;fill:black;font-family:-apple-system,&quot;SF Pro Display&quot;,&quot;SF Pro Text&quot;,Helvetica,sans-serif;" transform="matrix(1 0 0 1 263 1989)">For optimal layout with text and other symbols, vertically align</text>
  <text style="stroke:none;fill:black;font-family:-apple-system,&quot;SF Pro Display&quot;,&quot;SF Pro Text&quot;,Helvetica,sans-serif;" transform="matrix(1 0 0 1 263 2007)">symbols with the adjacent text.</text>
  <line id="" style="fill:none;stroke:#00AEEF;stroke-width:0.5;opacity:1.0;" x1="776" x2="776" y1="1919" y2="1933"/>
  <g id="" transform="matrix(1 0 0 1 776 1933)">
   <path d="M3.31055 0.126953C3.82812 0.126953 4.08203-0.0683594 4.26758-0.605469L5.52734-4.0625L11.2891-4.0625L12.5488-0.605469C12.7344-0.0683594 12.9883 0.126953 13.4961 0.126953C14.0137 0.126953 14.3457-0.185547 14.3457-0.673828C14.3457-0.839844 14.3164-0.986328 14.2383-1.20117L9.6582-13.3887C9.43359-13.9941 9.0332-14.2871 8.4082-14.2871C7.80273-14.2871 7.39258-13.9941 7.17773-13.3984L2.59766-1.19141C2.51953-0.976562 2.49023-0.830078 2.49023-0.664062C2.49023-0.175781 2.80273 0.126953 3.31055 0.126953ZM6.00586-5.53711L8.37891-12.1094L8.42773-12.1094L10.8008-5.53711Z"/>
  </g>
  <line id="" style="fill:none;stroke:#00AEEF;stroke-width:0.5;opacity:1.0;" x1="792.836" x2="792.836" y1="1919" y2="1933"/>
  <text style="stroke:none;fill:black;font-family:-apple-system,&quot;SF Pro Display&quot;,&quot;SF Pro Text&quot;,Helvetica,sans-serif;font-weight:bold;" transform="matrix(1 0 0 1 776 1953)">Margins</text>
  <text style="stroke:none;fill:black;font-family:-apple-system,&quot;SF Pro Display&quot;,&quot;SF Pro Text&quot;,Helvetica,sans-serif;" transform="matrix(1 0 0 1 776 1971)">Leading and trailing margins on the left and right side of each symbol</text>
  <text style="stroke:none;fill:black;font-family:-apple-system,&quot;SF Pro Display&quot;,&quot;SF Pro Text&quot;,Helvetica,sans-serif;" transform="matrix(1 0 0 1 776 1989)">can be adjusted by modifying the x-location of the margin guidelines.</text>
  <text style="stroke:none;fill:black;font-family:-apple-system,&quot;SF Pro Display&quot;,&quot;SF Pro Text&quot;,Helvetica,sans-serif;" transform="matrix(1 0 0 1 776 2007)">Modifications are automatically applied proportionally to all</text>
  <text style="stroke:none;fill:black;font-family:-apple-system,&quot;SF Pro Display&quot;,&quot;SF Pro Text&quot;,Helvetica,sans-serif;" transform="matrix(1 0 0 1 776 2025)">scales and weights.</text>
  <g id="" transform="matrix(1 0 0 1 1289 1933)">
   <path d="M2.8418 1.86523L4.54102 3.57422C5.40039 4.44336 6.38672 4.38477 7.31445 3.35938L17.4902-7.85156C17.7539-7.76367 18.0273-7.7832 18.3398-7.8418L19.4043-8.03711L20.0684-7.36328L20.0293-6.80664C19.9902-6.30859 20.1172-5.92773 20.6055-5.44922L21.3672-4.70703C21.8457-4.22852 22.4609-4.19922 22.9297-4.66797L25.8398-7.58789C26.3086-8.05664 26.2891-8.65234 25.8105-9.13086L25.0391-9.89258C24.5605-10.3711 24.1895-10.5273 23.7109-10.4883L23.1348-10.4395L22.4902-11.0742L22.7344-12.1973C22.8613-12.7637 22.7051-13.2031 22.1191-13.7891L19.9219-15.9766C16.582-19.2969 12.1484-19.2188 9.25781-16.3281C8.83789-15.918 8.80859-15.3418 9.04297-14.9512C9.27734-14.5898 9.73633-14.3555 10.3809-14.5215C11.8457-14.8633 13.3691-14.9219 14.7949-13.9844L14.209-12.5293C14.0137-12.0508 13.9844-11.6504 14.1113-11.2891L3.04688-0.898438C2.06055 0.0195312 1.98242 0.996094 2.8418 1.86523ZM10.752-15.957C13.1836-17.7344 16.4746-17.4316 18.7012-15.2051L21.1328-12.793C21.3672-12.5586 21.4062-12.373 21.3379-12.0312L21.0156-10.5469L22.5195-9.0625L23.5059-9.12109C23.7598-9.13086 23.8379-9.11133 24.0332-8.91602L24.6094-8.33984L22.168-5.89844L21.5918-6.47461C21.3965-6.66992 21.3672-6.74805 21.377-7.01172L21.4453-7.98828L19.9512-9.47266L18.4277-9.21875C18.1055-9.15039 17.959-9.17969 17.7148-9.41406L15.7129-11.416C15.459-11.6504 15.4297-11.8164 15.5859-12.1875L16.4648-14.2773C14.9023-15.7324 12.8711-16.3574 10.8398-15.7617C10.6836-15.7227 10.625-15.8496 10.752-15.957ZM5.27344 2.30469L4.10156 1.14258C3.63281 0.683594 3.74023 0.341797 4.14062-0.0195312L14.9512-10.1953L16.416-8.71094L6.42578 2.27539C6.07422 2.67578 5.74219 2.77344 5.27344 2.30469Z"/>
  </g>
  <text style="stroke:none;fill:black;font-family:-apple-system,&quot;SF Pro Display&quot;,&quot;SF Pro Text&quot;,Helvetica,sans-serif;font-weight:bold;" transform="matrix(1 0 0 1 1289 1953)">Exporting</text>
  <text style="stroke:none;fill:black;font-family:-apple-system,&quot;SF Pro Display&quot;,&quot;SF Pro Text&quot;,Helvetica,sans-serif;" transform="matrix(1 0 0 1 1289 1971)">Symbols should be outlined when exporting to ensure the</text>
  <text style="stroke:none;fill:black;font-family:-apple-system,&quot;SF Pro Display&quot;,&quot;SF Pro Text&quot;,Helvetica,sans-serif;" transform="matrix(1 0 0 1 1289 1989)">design is preserved when submitting to Xcode.</text>
  <text id="template-version" style="stroke:none;fill:black;font-family:-apple-system,&quot;SF Pro Display&quot;,&quot;SF Pro Text&quot;,Helvetica,sans-serif;text-anchor:end;" transform="matrix(1 0 0 1 3036 1933)">Template v.2.0</text>
  <text style="stroke:none;fill:black;font-family:-apple-system,&quot;SF Pro Display&quot;,&quot;SF Pro Text&quot;,Helvetica,sans-serif;text-anchor:end;" transform="matrix(1 0 0 1 3036 1951)">Requires Xcode 12 or greater</text>
  <text style="stroke:none;fill:black;font-family:-apple-system,&quot;SF Pro Display&quot;,&quot;SF Pro Text&quot;,Helvetica,sans-serif;text-anchor:end;" transform="matrix(1 0 0 1 3036 1969)">Generated from square.and.arrow.down</text>
  <text style="stroke:none;fill:black;font-family:-apple-system,&quot;SF Pro Display&quot;,&quot;SF Pro Text&quot;,Helvetica,sans-serif;text-anchor:end;" transform="matrix(1 0 0 1 3036 1987)">Typeset at 100 points</text>
  <text style="stroke:none;fill:black;font-family:-apple-system,&quot;SF Pro Display&quot;,&quot;SF Pro Text&quot;,Helvetica,sans-serif;" transform="matrix(1 0 0 1 263 726)">Small</text>
  <text style="stroke:none;fill:black;font-family:-apple-system,&quot;SF Pro Display&quot;,&quot;SF Pro Text&quot;,Helvetica,sans-serif;" transform="matrix(1 0 0 1 263 1156)">Medium</text>
  <text style="stroke:none;fill:black;font-family:-apple-system,&quot;SF Pro Display&quot;,&quot;SF Pro Text&quot;,Helvetica,sans-serif;" transform="matrix(1 0 0 1 263 1586)">Large</text>
 </g>
 <g id="Guides">
  <g id="H-reference" style="fill:#27AAE1;stroke:none;" transform="matrix(1 0 0 1 339 696)">
   <path d="M0.976562 0L3.66211 0L12.9883-24.4629L45.752-24.4629L55.127 0L57.7637 0L30.6152-70.459L28.125-70.459ZM29.3457-67.1387L29.4434-67.1387L44.873-26.709L13.8672-26.709Z"/>
  </g>
  <line id="Baseline-S" style="fill:none;stroke:#27AAE1;opacity:1;stroke-width:0.5;" x1="263" x2="3036" y1="696" y2="696"/>
  <line id="Capline-S" style="fill:none;stroke:#27AAE1;opacity:1;stroke-width:0.5;" x1="263" x2="3036" y1="625.541" y2="625.541"/>
  <g id="H-reference" style="fill:#27AAE1;stroke:none;" transform="matrix(1 0 0 1 339 1126)">
   <path d="M0.976562 0L3.66211 0L12.9883-24.4629L45.752-24.4629L55.127 0L57.7637 0L30.6152-70.459L28.125-70.459ZM29.3457-67.1387L29.4434-67.1387L44.873-26.709L13.8672-26.709Z"/>
  </g>
  <line id="Baseline-M" style="fill:none;stroke:#27AAE1;opacity:1;stroke-width:0.5;" x1="263" x2="3036" y1="1126" y2="1126"/>
  <line id="Capline-M" style="fill:none;stroke:#27AAE1;opacity:1;stroke-width:0.5;" x1="263" x2="3036" y1="1055.54" y2="1055.54"/>
  <g id="H-reference" style="fill:#27AAE1;stroke:none;" transform="matrix(1 0 0 1 339 1556)">
   <path d="M0.976562 0L3.66211 0L12.9883-24.4629L45.752-24.4629L55.127 0L57.7637 0L30.6152-70.459L28.125-70.459ZM29.3457-67.1387L29.4434-67.1387L44.873-26.709L13.8672-26.709Z"/>
  </g>
  <line id="Baseline-L" style="fill:none;stroke:#27AAE1;opacity:1;stroke-width:0.5;" x1="263" x2="3036" y1="1556" y2="1556"/>
  <line id="Capline-L" style="fill:none;stroke:#27AAE1;opacity:1;stroke-width:0.5;" x1="263" x2="3036" y1="1485.54" y2="1485.54"/>
  <line id="left-margin" style="fill:none;stroke:#00AEEF;stroke-width:0.5;opacity:1.0;" x1="1394.06" x2="1394.06" y1="1030.79" y2="1150.12"/>
  <line id="right-margin" style="fill:none;stroke:#00AEEF;stroke-width:0.5;opacity:1.0;" x1="1505.63" x2="1505.63" y1="1030.79" y2="1150.12"/>
 </g>
 <g id="Symbols">
  <g id="Black-L" transform="matrix(1 0 0 1 2856.76 1556)">
   <path d="M76.6602-5.81055C79.0527-5.81055 81.4941-6.64062 83.8379-8.93555L104.346-28.5645C105.811-30.0293 106.641-31.5918 106.641-33.7891C106.641-38.0371 102.979-40.9668 99.1211-40.9668C96.9238-40.9668 94.9219-40.0879 93.457-38.5254L87.207-31.7871L84.1309-26.9043L85.498-36.084L85.498-97.2168C85.498-101.855 81.6406-105.908 76.6602-105.908C71.6797-105.908 67.8711-101.855 67.8711-97.2168L67.8711-36.084L69.2383-26.9043L66.1621-31.7871L59.8633-38.5254C58.3984-40.0879 56.3965-40.9668 54.1992-40.9668C50.3418-40.9668 46.6797-38.0371 46.6797-33.7891C46.6797-31.5918 47.5098-30.0293 48.9746-28.5645L69.5312-8.93555C71.875-6.64062 74.2676-5.81055 76.6602-5.81055ZM39.9902 33.1055L113.33 33.1055C128.564 33.1055 137.207 24.5117 137.207 9.32617L137.207-49.5605C137.207-64.7461 128.564-73.3398 113.33-73.3398L97.9492-73.3398L97.9492-53.125L110.596-53.125C114.795-53.125 116.992-51.2207 116.992-46.6797L116.992 6.44531C116.992 10.9863 114.795 12.8906 110.596 12.8906L42.6758 12.8906C38.4766 12.8906 36.3281 10.9863 36.3281 6.44531L36.3281-46.6797C36.3281-51.2207 38.4766-53.125 42.6758-53.125L55.7617-53.125L55.7617-73.3398L39.9902-73.3398C24.7559-73.3398 16.0645-64.7461 16.0645-49.5605L16.0645 9.32617C16.0645 24.5117 24.7559 33.1055 39.9902 33.1055Z"/>
  </g>
  <g id="Heavy-L" transform="matrix(1 0 0 1 2561.32 1556)">
   <path d="M75.3906-6.83594C77.4902-6.83594 79.541-7.56836 81.5918-9.57031L102.441-29.5898C103.76-30.9082 104.492-32.2754 104.492-34.2285C104.492-38.0371 101.27-40.6738 97.8027-40.6738C95.8984-40.6738 94.0918-39.8438 92.8223-38.4766L85.5957-30.7617L82.0312-25.7812L83.1543-34.9609L83.1543-97.8516C83.1543-101.953 79.7363-105.518 75.3906-105.518C71.0449-105.518 67.6758-101.953 67.6758-97.8516L67.6758-34.9609L68.7988-25.7812L65.2344-30.7617L58.0078-38.4766C56.6895-39.8438 54.8828-40.6738 52.9785-40.6738C49.5117-40.6738 46.3379-38.0371 46.3379-34.2285C46.3379-32.2754 47.0703-30.9082 48.3887-29.5898L69.2383-9.57031C71.2402-7.56836 73.291-6.83594 75.3906-6.83594ZM38.8184 32.5195L111.914 32.5195C126.562 32.5195 134.668 24.4141 134.668 9.91211L134.668-50.1465C134.668-64.6484 126.562-72.7539 111.914-72.7539L95.9961-72.7539L95.9961-55.2734L109.814-55.2734C114.6-55.2734 117.188-52.9785 117.188-47.8516L117.188 7.61719C117.188 12.7441 114.6 15.0391 109.814 15.0391L40.918 15.0391C36.084 15.0391 33.5938 12.7441 33.5938 7.61719L33.5938-47.8516C33.5938-52.9785 36.084-55.2734 40.918-55.2734L55.127-55.2734L55.127-72.7539L38.8184-72.7539C24.2188-72.7539 16.0645-64.6973 16.0645-50.1465L16.0645 9.91211C16.0645 24.4629 24.2188 32.5195 38.8184 32.5195Z"/>
  </g>
  <g id="Bold-L" transform="matrix(1 0 0 1 2266 1556)">
   <path d="M73.9746-8.05664C75.7324-8.05664 77.4414-8.64258 79.1016-10.3027L100.293-30.7617C101.465-31.8848 102.1-33.1055 102.1-34.7656C102.1-37.9883 99.4141-40.2832 96.3867-40.2832C94.7266-40.2832 93.1641-39.5996 92.0898-38.3789L83.7891-29.6387L79.6875-24.5605L80.5664-33.7402L80.5664-98.584C80.5664-102.051 77.6367-105.029 73.9746-105.029C70.3613-105.029 67.4316-102.051 67.4316-98.584L67.4316-33.7402L68.3105-24.5117L64.1602-29.6387L55.9082-38.3789C54.7852-39.5996 53.2227-40.2832 51.5625-40.2832C48.5352-40.2832 45.8984-37.9883 45.8984-34.7656C45.8984-33.1055 46.5332-31.8848 47.6562-30.7617L68.8965-10.3027C70.5566-8.64258 72.2656-8.05664 73.9746-8.05664ZM37.5 31.8848L110.4 31.8848C124.365 31.8848 131.885 24.3652 131.885 10.5469L131.885-50.7812C131.885-64.5996 124.365-72.1191 110.4-72.1191L93.8477-72.1191L93.8477-57.666L108.984-57.666C114.404-57.666 117.432-54.9316 117.432-49.1211L117.432 8.88672C117.432 14.6484 114.404 17.4316 108.984 17.4316L38.9648 17.4316C33.4473 17.4316 30.5176 14.6484 30.5176 8.88672L30.5176-49.1211C30.5176-54.9316 33.4473-57.666 38.9648-57.666L54.3457-57.666L54.3457-72.1191L37.5-72.1191C23.6328-72.1191 16.0645-64.6484 16.0645-50.7812L16.0645 10.5469C16.0645 24.4141 23.6328 31.8848 37.5 31.8848Z"/>
  </g>
  <g id="Semibold-L" transform="matrix(1 0 0 1 1970.27 1556)">
   <path d="M73.0469-8.83789C74.5117-8.83789 75.9277-9.375 77.3926-10.791L98.8281-31.543C99.8535-32.5684 100.439-33.6426 100.439-35.1562C100.439-37.9883 98.0957-40.0391 95.3613-40.0391C93.9453-40.0391 92.5293-39.4531 91.5527-38.3301L82.5684-28.8574L78.0762-23.6816L78.7598-32.9102L78.7598-99.1211C78.7598-102.148 76.1719-104.736 73.0469-104.736C69.873-104.736 67.2852-102.148 67.2852-99.1211L67.2852-32.9102L67.9688-23.6816L63.4766-28.8574L54.4434-38.3301C53.4668-39.4531 52.0508-40.0391 50.6348-40.0391C47.9004-40.0391 45.6055-37.9883 45.6055-35.1562C45.6055-33.6426 46.1914-32.5684 47.2168-31.543L68.6523-10.791C70.1172-9.375 71.5332-8.83789 73.0469-8.83789ZM36.6211 31.3965L109.326 31.3965C122.803 31.3965 129.932 24.3164 129.932 10.9863L129.932-51.2695C129.932-64.5508 122.803-71.6797 109.326-71.6797L92.334-71.6797L92.334-59.3262L108.35-59.3262C114.258-59.3262 117.578-56.25 117.578-50.0488L117.578 9.76562C117.578 16.0156 114.258 19.043 108.35 19.043L37.5977 19.043C31.6406 19.043 28.418 16.0156 28.418 9.76562L28.418-50.0488C28.418-56.25 31.6406-59.3262 37.5977-59.3262L53.8574-59.3262L53.8574-71.6797L36.6211-71.6797C23.1934-71.6797 16.0645-64.5996 16.0645-51.2695L16.0645 10.9863C16.0645 24.3652 23.1934 31.3965 36.6211 31.3965Z"/>
  </g>
  <g id="Medium-L" transform="matrix(1 0 0 1 1674.31 1556)">
   <path d="M72.2656-9.47266C73.6328-9.47266 74.8047-9.91211 76.123-11.1816L97.7051-32.1777C98.6328-33.1055 99.1699-34.082 99.1699-35.4004C99.1699-37.9883 97.1191-39.8438 94.5801-39.8438C93.3594-39.8438 92.0898-39.3066 91.1621-38.3301L81.6406-28.2715L76.8555-23.0469L77.3926-32.2754L77.3926-99.5117C77.3926-102.197 75.0977-104.492 72.2656-104.492C69.4824-104.492 67.1875-102.197 67.1875-99.5117L67.1875-32.2754L67.7246-23.0469L62.9395-28.2715L53.3691-38.3301C52.4902-39.3066 51.1719-39.8438 49.9023-39.8438C47.3633-39.8438 45.3613-37.9883 45.3613-35.4004C45.3613-34.082 45.8984-33.1055 46.8262-32.1777L68.457-11.1816C69.7266-9.91211 70.9473-9.47266 72.2656-9.47266ZM35.9375 31.0547L108.545 31.0547C121.68 31.0547 128.418 24.2676 128.418 11.3281L128.418-51.6113C128.418-64.5508 121.68-71.3379 108.545-71.3379L91.2109-71.3379L91.2109-60.5957L107.91-60.5957C114.16-60.5957 117.725-57.2754 117.725-50.7324L117.725 10.4492C117.725 16.9922 114.16 20.3125 107.91 20.3125L36.5723 20.3125C30.2246 20.3125 26.8066 16.9922 26.8066 10.4492L26.8066-50.7324C26.8066-57.2754 30.2246-60.5957 36.5723-60.5957L53.4668-60.5957L53.4668-71.3379L35.9375-71.3379C22.9004-71.3379 16.0645-64.5996 16.0645-51.6113L16.0645 11.3281C16.0645 24.3164 22.9004 31.0547 35.9375 31.0547Z"/>
  </g>
  <g id="Regular-L" transform="matrix(1 0 0 1 1378.56 1556)">
   <path d="M71.3379-10.2539C72.4121-10.2539 73.3398-10.6445 74.4141-11.6699L96.2402-32.959C97.0703-33.7891 97.5098-34.6191 97.5098-35.791C97.5098-37.9883 95.8008-39.5996 93.6035-39.5996C92.5781-39.5996 91.4551-39.1602 90.6738-38.2812L80.3711-27.4902L75.293-22.2168L75.5859-31.4453L75.5859-100C75.5859-102.295 73.6328-104.199 71.3379-104.199C68.9941-104.199 67.041-102.295 67.041-100L67.041-31.4453L67.3828-22.168L62.207-27.4902L51.9531-38.2812C51.1719-39.1602 50-39.5996 48.9746-39.5996C46.7285-39.5996 45.0684-37.9883 45.0684-35.791C45.0684-34.6191 45.5566-33.7891 46.3867-32.959L68.2129-11.6699C69.2871-10.6445 70.2148-10.2539 71.3379-10.2539ZM35.0586 30.6152L107.52 30.6152C120.166 30.6152 126.514 24.2188 126.514 11.7676L126.514-52.0508C126.514-64.502 120.166-70.8496 107.52-70.8496L89.6973-70.8496L89.6973-62.207L107.324-62.207C114.014-62.207 117.871-58.5938 117.871-51.6113L117.871 11.3281C117.871 18.3105 114.014 21.9238 107.324 21.9238L35.2539 21.9238C28.418 21.9238 24.707 18.3105 24.707 11.3281L24.707-51.6113C24.707-58.5938 28.418-62.207 35.2539-62.207L52.9297-62.207L52.9297-70.8496L35.0586-70.8496C22.4609-70.8496 16.0645-64.5508 16.0645-52.0508L16.0645 11.7676C16.0645 24.2676 22.4609 30.6152 35.0586 30.6152Z"/>
  </g>
  <g id="Light-L" transform="matrix(1 0 0 1 1082.77 1556)">
   <path d="M70.4102-10.3516C71.2402-10.3516 71.9727-10.5957 72.7539-11.377L95.3125-33.6426C95.9473-34.2773 96.2891-34.9121 96.2891-35.791C96.2891-37.4512 94.9707-38.7695 93.3105-38.7695C92.5293-38.7695 91.6016-38.3789 91.0156-37.7441L79.7363-26.123L73.4375-19.6777L73.6816-28.7109L73.6816-100.146C73.6816-101.904 72.168-103.369 70.4102-103.369C68.6035-103.369 67.1387-101.904 67.1387-100.146L67.1387-28.7109L67.334-19.6289L60.9863-26.123L49.707-37.7441C49.1211-38.3789 48.1934-38.7695 47.4121-38.7695C45.7031-38.7695 44.4336-37.4512 44.4336-35.791C44.4336-34.9121 44.7754-34.2773 45.4102-33.6426L68.0176-11.377C68.7988-10.5957 69.5801-10.3516 70.4102-10.3516ZM34.0332 29.7852L106.689 29.7852C118.555 29.7852 124.658 23.6328 124.658 11.9141L124.658-53.2227C124.658-64.9414 118.555-71.0938 106.689-71.0938L88.5254-71.0938L88.5254-64.4531L106.543-64.4531C113.818-64.4531 118.066-60.5469 118.066-52.8809L118.066 11.5723C118.066 19.2383 113.818 23.1445 106.543 23.1445L34.1797 23.1445C26.709 23.1445 22.7051 19.2383 22.7051 11.5723L22.7051-52.8809C22.7051-60.5469 26.709-64.4531 34.1797-64.4531L52.2949-64.4531L52.2949-71.0938L34.0332-71.0938C22.168-71.0938 16.0645-65.0391 16.0645-53.2227L16.0645 11.9141C16.0645 23.7305 22.168 29.7852 34.0332 29.7852Z"/>
  </g>
  <g id="Thin-L" transform="matrix(1 0 0 1 787.282 1556)">
   <path d="M69.1895-10.4004C69.6777-10.4004 70.166-10.5957 70.5566-10.9863L94.0918-34.5703C94.4824-34.9121 94.6777-35.3027 94.6777-35.8398C94.6777-36.8164 93.8477-37.6465 92.9199-37.6465C92.4316-37.6465 91.8457-37.4023 91.5039-37.0117L78.9062-24.3164L71.0449-16.3574L71.1426-25.0488L71.1426-100.342C71.1426-101.416 70.2637-102.295 69.1895-102.295C68.1152-102.295 67.2363-101.416 67.2363-100.342L67.2363-25.0488L67.334-16.3086L59.375-24.3164L46.7773-37.0117C46.4355-37.4023 45.8496-37.6465 45.3613-37.6465C44.3848-37.6465 43.6035-36.8164 43.6035-35.8398C43.6035-35.3027 43.7988-34.9121 44.1895-34.5703L67.7734-10.9863C68.2129-10.5957 68.7012-10.4004 69.1895-10.4004ZM32.666 28.7109L105.615 28.7109C116.504 28.7109 122.217 22.8516 122.217 12.1094L122.217-54.7852C122.217-65.5273 116.504-71.3867 105.615-71.3867L87.0117-71.3867L87.0117-67.4316L105.469-67.4316C113.574-67.4316 118.311-63.0859 118.311-54.5898L118.311 11.9141C118.311 20.4102 113.574 24.7559 105.469 24.7559L32.8125 24.7559C24.4141 24.7559 19.9707 20.4102 19.9707 11.9141L19.9707-54.5898C19.9707-63.0859 24.4141-67.4316 32.8125-67.4316L51.416-67.4316L51.416-71.3867L32.666-71.3867C21.7773-71.3867 16.0645-65.6738 16.0645-54.7852L16.0645 12.1094C16.0645 22.998 21.7773 28.7109 32.666 28.7109Z"/>
  </g>
  <g id="Ultralight-L" transform="matrix(1 0 0 1 491.205 1556)">
   <path d="M68.5547-10.4492C68.8477-10.4492 69.1895-10.5957 69.4336-10.791L93.5059-35.0098C93.75-35.2539 93.8477-35.5469 93.8477-35.8398C93.8477-36.4746 93.2617-37.1094 92.7246-37.1094C92.3828-37.1094 91.9922-36.8652 91.748-36.6211L78.4668-23.3887L69.7754-14.6484L69.8242-23.1934L69.8242-100.439C69.8242-101.172 69.2383-101.758 68.5547-101.758C67.8223-101.758 67.2852-101.172 67.2852-100.439L67.2852-23.1934L67.334-14.5996L58.5449-23.3887L45.3125-36.6211C45.0195-36.8652 44.6289-37.1094 44.2871-37.1094C43.6523-37.1094 43.1641-36.4746 43.1641-35.8398C43.1641-35.5469 43.2617-35.2539 43.5547-35.0098L67.6758-10.791C67.9199-10.5957 68.2129-10.4492 68.5547-10.4492ZM31.9824 28.1738L105.078 28.1738C115.43 28.1738 120.947 22.4609 120.947 12.207L120.947-55.6152C120.947-65.8203 115.43-71.5332 105.078-71.5332L86.2305-71.5332L86.2305-68.9941L104.883-68.9941C113.477-68.9941 118.408-64.3555 118.408-55.4688L118.408 12.1094C118.408 20.9961 113.477 25.5859 104.883 25.5859L32.1289 25.5859C23.1934 25.5859 18.6035 20.9961 18.6035 12.1094L18.6035-55.4688C18.6035-64.3555 23.1934-68.9941 32.1289-68.9941L50.9766-68.9941L50.9766-71.5332L31.9824-71.5332C21.582-71.5332 16.0645-65.9668 16.0645-55.6152L16.0645 12.207C16.0645 22.6074 21.582 28.1738 31.9824 28.1738Z"/>
  </g>
  <g id="Black-M" transform="matrix(1 0 0 1 2872.8 1126)">
   <path d="M60.6445-11.0352C62.793-11.0352 64.9902-11.7676 67.041-13.8184L82.959-29.0039C84.2285-30.2734 84.9121-31.5918 84.9121-33.4473C84.9121-37.1582 81.6406-39.6973 78.418-39.6973C76.4648-39.6973 74.8047-38.8672 73.5352-37.5488L69.4336-33.2031L67.041-28.9062L68.3594-35.8887L68.3594-82.4219C68.3594-86.5234 65.0391-90.1367 60.6445-90.1367C56.2012-90.1367 52.8809-86.5234 52.8809-82.4219L52.8809-35.8887L54.248-28.9062L51.8555-33.2031L47.7539-37.5488C46.4844-38.8672 44.7754-39.6973 42.8223-39.6973C39.6484-39.6973 36.377-37.1582 36.377-33.4473C36.377-31.5918 37.0605-30.2734 38.3301-29.0039L54.1992-13.8184C56.2988-11.7676 58.4961-11.0352 60.6445-11.0352ZM31.9824 18.1152L89.209 18.1152C101.465 18.1152 108.74 10.8398 108.74-1.41602L108.74-46.1426C108.74-58.3984 101.465-65.6738 89.209-65.6738L77.9297-65.6738L77.9297-47.4121L86.2793-47.4121C89.1113-47.4121 90.4785-46.2891 90.4785-43.2129L90.4785-4.3457C90.4785-1.26953 89.1113-0.146484 86.2793-0.146484L34.9121-0.146484C32.0801-0.146484 30.7617-1.26953 30.7617-4.3457L30.7617-43.2129C30.7617-46.2891 32.0801-47.4121 34.9121-47.4121L43.7988-47.4121L43.7988-65.6738L31.9824-65.6738C19.7266-65.6738 12.4512-58.3984 12.4512-46.1426L12.4512-1.41602C12.4512 10.8398 19.7266 18.1152 31.9824 18.1152Z"/>
  </g>
  <g id="Heavy-M" transform="matrix(1 0 0 1 2577.22 1126)">
   <path d="M59.4727-12.1582C61.377-12.1582 63.2324-12.8418 65.0879-14.5996L81.1035-29.9805C82.2266-31.1035 82.8613-32.2754 82.8613-33.9844C82.8613-37.3047 79.9805-39.5508 77.0996-39.5508C75.3906-39.5508 73.8281-38.8184 72.7051-37.6465L67.8223-32.4219L65.2344-28.3691L66.3086-35.4004L66.3086-83.1055C66.3086-86.7188 63.3789-89.8926 59.4727-89.8926C55.6152-89.8926 52.6855-86.7188 52.6855-83.1055L52.6855-35.4004L53.7598-28.3691L51.1719-32.4219L46.2891-37.6465C45.166-38.8184 43.6035-39.5508 41.8945-39.5508C38.9648-39.5508 36.1328-37.3047 36.1328-33.9844C36.1328-32.2754 36.7676-31.1035 37.8906-29.9805L53.9062-14.5996C55.7129-12.8418 57.6172-12.1582 59.4727-12.1582ZM31.0059 17.6758L87.9395 17.6758C99.707 17.6758 106.494 10.9375 106.494-0.830078L106.494-46.4844C106.494-58.252 99.707-64.9902 87.9395-64.9902L76.123-64.9902L76.123-49.1699L85.6934-49.1699C88.9648-49.1699 90.625-47.7051 90.625-44.1406L90.625-3.125C90.625 0.390625 88.9648 1.85547 85.6934 1.85547L33.252 1.85547C29.9316 1.85547 28.2715 0.390625 28.2715-3.125L28.2715-44.1406C28.2715-47.7051 29.9316-49.1699 33.252-49.1699L43.2129-49.1699L43.2129-64.9902L31.0059-64.9902C19.2383-64.9902 12.4512-58.252 12.4512-46.4844L12.4512-0.830078C12.4512 10.9375 19.2383 17.6758 31.0059 17.6758Z"/>
  </g>
  <g id="Bold-M" transform="matrix(1 0 0 1 2281.8 1126)">
   <path d="M58.2031-13.4277C59.7656-13.4277 61.3281-13.9648 62.8418-15.4785L79.0527-31.0547C80.0293-32.0312 80.6152-33.1055 80.6152-34.5703C80.6152-37.4023 78.1738-39.4043 75.5859-39.4043C74.1211-39.4043 72.7539-38.7695 71.7773-37.7441L66.0645-31.5918L63.2324-27.7344L64.0137-34.8633L64.0137-83.8867C64.0137-86.9629 61.4746-89.6484 58.2031-89.6484C54.9805-89.6484 52.3926-86.9629 52.3926-83.8867L52.3926-34.8633L53.2227-27.7344L50.3906-31.5918L44.6289-37.7441C43.6523-38.7695 42.2852-39.4043 40.8203-39.4043C38.2324-39.4043 35.8398-37.4023 35.8398-34.5703C35.8398-33.1055 36.377-32.0312 37.4023-31.0547L53.6133-15.4785C55.127-13.9648 56.6406-13.4277 58.2031-13.4277ZM29.8828 17.1875L86.5234 17.1875C97.7539 17.1875 103.906 10.9863 103.906-0.146484L103.906-46.875C103.906-58.0078 97.7539-64.209 86.5234-64.209L74.0723-64.209L74.0723-51.123L84.9609-51.123C88.8184-51.123 90.8691-49.2676 90.8691-45.2148L90.8691-1.80664C90.8691 2.24609 88.8184 4.10156 84.9609 4.10156L31.3965 4.10156C27.5391 4.10156 25.5371 2.24609 25.5371-1.80664L25.5371-45.2148C25.5371-49.2676 27.5391-51.123 31.3965-51.123L42.5781-51.123L42.5781-64.209L29.8828-64.209C18.6523-64.209 12.4512-58.0566 12.4512-46.875L12.4512-0.146484C12.4512 11.0352 18.6523 17.1875 29.8828 17.1875Z"/>
  </g>
  <g id="Semibold-M" transform="matrix(1 0 0 1 1985.97 1126)">
   <path d="M57.3242-14.3066C58.6914-14.3066 59.9609-14.7949 61.3281-16.1133L77.6367-31.7871C78.5156-32.666 79.0039-33.6426 79.0039-34.9609C79.0039-37.5 76.9531-39.2578 74.5117-39.2578C73.291-39.2578 72.0215-38.7695 71.1914-37.793L64.7949-31.0547L61.8164-27.2949L62.4512-34.5215L62.4512-84.4238C62.4512-87.1094 60.1562-89.4531 57.3242-89.4531C54.4922-89.4531 52.2461-87.1094 52.2461-84.4238L52.2461-34.5215L52.8809-27.2949L49.8535-31.0547L43.5059-37.793C42.627-38.7695 41.3574-39.2578 40.0879-39.2578C37.6953-39.2578 35.6445-37.5 35.6445-34.9609C35.6445-33.6426 36.1328-32.666 37.0605-31.7871L53.3691-16.1133C54.6875-14.7949 56.0059-14.3066 57.3242-14.3066ZM29.1016 16.8457L85.498 16.8457C96.3867 16.8457 102.148 11.084 102.148 0.292969L102.148-47.1191C102.148-57.9102 96.3867-63.6719 85.498-63.6719L72.6562-63.6719L72.6562-52.4902L84.4727-52.4902C88.6719-52.4902 91.0156-50.3418 91.0156-45.8984L91.0156-0.878906C91.0156 3.51562 88.6719 5.66406 84.4727 5.66406L30.127 5.66406C25.8789 5.66406 23.6328 3.51562 23.6328-0.878906L23.6328-45.8984C23.6328-50.3418 25.8789-52.4902 30.127-52.4902L42.1387-52.4902L42.1387-63.6719L29.1016-63.6719C18.2617-63.6719 12.4512-57.9102 12.4512-47.1191L12.4512 0.292969C12.4512 11.084 18.2617 16.8457 29.1016 16.8457Z"/>
  </g>
  <g id="Medium-M" transform="matrix(1 0 0 1 1689.91 1126)">
   <path d="M56.6895-14.9902C57.8613-14.9902 58.9844-15.3809 60.1562-16.5527L76.5137-32.3242C77.3438-33.1543 77.832-34.082 77.832-35.2539C77.832-37.5488 75.9766-39.209 73.7305-39.209C72.6074-39.209 71.4844-38.7207 70.7031-37.8418L63.8672-30.6152L60.7422-27.002L61.2305-34.2285L61.2305-84.8145C61.2305-87.2559 59.1797-89.3066 56.6895-89.3066C54.1504-89.3066 52.0996-87.2559 52.0996-84.8145L52.0996-34.2285L52.5879-27.002L49.4629-30.6152L42.627-37.8418C41.8457-38.7207 40.6738-39.209 39.5508-39.209C37.3047-39.209 35.498-37.5488 35.498-35.2539C35.498-34.082 35.9863-33.1543 36.8164-32.3242L53.2227-16.5527C54.3945-15.3809 55.4688-14.9902 56.6895-14.9902ZM28.5156 16.6016L84.7656 16.6016C95.3613 16.6016 100.83 11.1328 100.83 0.683594L100.83-47.3145C100.83-57.7637 95.3613-63.2324 84.7656-63.2324L71.582-63.2324L71.582-53.5156L84.1309-53.5156C88.5742-53.5156 91.1133-51.1719 91.1133-46.4844L91.1133-0.195312C91.1133 4.49219 88.5742 6.83594 84.1309 6.83594L29.1504 6.83594C24.6582 6.83594 22.168 4.49219 22.168-0.195312L22.168-46.4844C22.168-51.1719 24.6582-53.5156 29.1504-53.5156L41.8457-53.5156L41.8457-63.2324L28.5156-63.2324C17.9688-63.2324 12.4512-57.8125 12.4512-47.3145L12.4512 0.683594C12.4512 11.1328 17.9688 16.6016 28.5156 16.6016Z"/>
  </g>
  <g id="Regular-M" transform="matrix(1 0 0 1 1394.06 1126)">
   <path d="M55.8105-15.8691C56.7871-15.8691 57.666-16.1621 58.6426-17.1387L75.1465-33.1055C75.8789-33.8379 76.2695-34.6191 76.2695-35.6445C76.2695-37.6465 74.7559-39.0625 72.7051-39.0625C71.7773-39.0625 70.752-38.6719 70.0684-37.8906L62.6953-30.0293L59.375-26.5625L59.668-33.8867L59.668-85.3516C59.668-87.4023 57.9102-89.1602 55.8105-89.1602C53.7109-89.1602 51.9043-87.4023 51.9043-85.3516L51.9043-33.8867L52.2461-26.5625L48.9258-30.0293L41.5039-37.8906C40.8203-38.6719 39.7949-39.0625 38.8184-39.0625C36.8164-39.0625 35.3027-37.6465 35.3027-35.6445C35.3027-34.6191 35.7422-33.8379 36.4746-33.1055L52.9785-17.1387C53.9551-16.1621 54.834-15.8691 55.8105-15.8691ZM27.7832 16.2598L83.7891 16.2598C93.9941 16.2598 99.1211 11.1816 99.1211 1.12305L99.1211-47.6074C99.1211-57.666 93.9941-62.7441 83.7891-62.7441L70.166-62.7441L70.166-54.8828L83.6426-54.8828C88.4766-54.8828 91.2598-52.2461 91.2598-47.168L91.2598 0.683594C91.2598 5.76172 88.4766 8.39844 83.6426 8.39844L27.8809 8.39844C22.998 8.39844 20.3125 5.76172 20.3125 0.683594L20.3125-47.168C20.3125-52.2461 22.998-54.8828 27.8809-54.8828L41.4062-54.8828L41.4062-62.7441L27.7832-62.7441C17.5781-62.7441 12.4512-57.666 12.4512-47.6074L12.4512 1.12305C12.4512 11.1816 17.5781 16.2598 27.7832 16.2598Z"/>
  </g>
  <g id="Light-M" transform="matrix(1 0 0 1 1098.18 1126)">
   <path d="M54.9805-15.918C55.7617-15.918 56.3965-16.1621 57.1289-16.8945L74.3164-33.6914C74.8535-34.2773 75.1953-34.8633 75.1953-35.6445C75.1953-37.207 73.9746-38.3301 72.4609-38.3301C71.7285-38.3301 70.9473-38.0371 70.4102-37.4023L62.1094-28.8086L57.7637-24.3164L57.959-31.3965L57.959-85.498C57.959-87.0605 56.5918-88.4277 54.9805-88.4277C53.3691-88.4277 52.002-87.0605 52.002-85.498L52.002-31.3965L52.1973-24.2676L47.8516-28.8086L39.5508-37.4023C39.0137-38.0371 38.1836-38.3301 37.4512-38.3301C35.8887-38.3301 34.7168-37.207 34.7168-35.6445C34.7168-34.8633 35.0586-34.2773 35.6445-33.6914L52.832-16.8945C53.5645-16.1621 54.1992-15.918 54.9805-15.918ZM26.8555 15.5273L83.0566 15.5273C92.5781 15.5273 97.4609 10.6445 97.4609 1.26953L97.4609-48.6328C97.4609-58.0566 92.5781-62.9395 83.0566-62.9395L69.1406-62.9395L69.1406-56.8848L82.9102-56.8848C88.3301-56.8848 91.4062-53.9551 91.4062-48.3398L91.4062 0.927734C91.4062 6.5918 88.3301 9.47266 82.9102 9.47266L26.9531 9.47266C21.4844 9.47266 18.5059 6.5918 18.5059 0.927734L18.5059-48.3398C18.5059-53.9551 21.4844-56.8848 26.9531-56.8848L40.8203-56.8848L40.8203-62.9395L26.8555-62.9395C17.334-62.9395 12.4512-58.1055 12.4512-48.6328L12.4512 1.26953C12.4512 10.6934 17.334 15.5273 26.8555 15.5273Z"/>
  </g>
  <g id="Thin-M" transform="matrix(1 0 0 1 802.565 1126)">
   <path d="M53.9062-15.9668C54.3457-15.9668 54.7852-16.1133 55.1758-16.5527L73.1934-34.5215C73.5352-34.8633 73.7305-35.2051 73.7305-35.6934C73.7305-36.6211 72.998-37.3535 72.1191-37.3535C71.6797-37.3535 71.1426-37.1094 70.8008-36.7676L61.3281-27.1973L55.5664-21.3379L55.6641-28.125L55.6641-85.6445C55.6641-86.6211 54.8828-87.4512 53.9062-87.4512C52.8809-87.4512 52.0996-86.6211 52.0996-85.6445L52.0996-28.125L52.1973-21.2891L46.3867-27.1973L36.9141-36.7676C36.5723-37.1094 36.0352-37.3535 35.5957-37.3535C34.668-37.3535 33.9844-36.6211 33.9844-35.6934C33.9844-35.2051 34.1797-34.8633 34.5215-34.5215L52.5879-16.5527C52.9785-16.1133 53.418-15.9668 53.9062-15.9668ZM25.6348 14.5508L82.0801 14.5508C90.7227 14.5508 95.2637 9.96094 95.2637 1.41602L95.2637-50.0488C95.2637-58.5938 90.7227-63.1836 82.0801-63.1836L67.7734-63.1836L67.7734-59.5703L81.9824-59.5703C88.0859-59.5703 91.6016-56.25 91.6016-49.8535L91.6016 1.2207C91.6016 7.61719 88.0859 10.9375 81.9824 10.9375L25.7324 10.9375C19.3848 10.9375 16.0645 7.61719 16.0645 1.2207L16.0645-49.8535C16.0645-56.25 19.3848-59.5703 25.7324-59.5703L40.0391-59.5703L40.0391-63.1836L25.6348-63.1836C16.9922-63.1836 12.4512-58.6914 12.4512-50.0488L12.4512 1.41602C12.4512 10.0586 16.9922 14.5508 25.6348 14.5508Z"/>
  </g>
  <g id="Ultralight-M" transform="matrix(1 0 0 1 506.415 1126)">
   <path d="M53.3203-16.0156C53.6133-16.0156 53.9062-16.1133 54.1504-16.3574L72.6562-34.9121C72.9004-35.1562 72.998-35.4004 72.998-35.6934C72.998-36.2793 72.4609-36.8164 71.9238-36.8164C71.6309-36.8164 71.2402-36.6699 71.0449-36.4258L60.9375-26.3672L54.4434-19.8242L54.541-26.4648L54.541-85.7422C54.541-86.4258 54.0039-86.9629 53.3203-86.9629C52.6855-86.9629 52.1484-86.4258 52.1484-85.7422L52.1484-26.4648L52.1973-19.7266L45.6543-26.3672L35.5469-36.4258C35.3027-36.6699 34.9609-36.8164 34.668-36.8164C34.082-36.8164 33.5938-36.2793 33.5938-35.6934C33.5938-35.4004 33.6914-35.1562 33.9355-34.9121L52.4902-16.3574C52.7344-16.1133 53.0273-16.0156 53.3203-16.0156ZM25 14.0625L81.5918 14.0625C89.7949 14.0625 94.1406 9.57031 94.1406 1.51367L94.1406-50.7812C94.1406-58.8379 89.7949-63.3301 81.5918-63.3301L67.041-63.3301L67.041-60.9375L81.4453-60.9375C87.9883-60.9375 91.748-57.4219 91.748-50.6348L91.748 1.41602C91.748 8.1543 87.9883 11.6699 81.4453 11.6699L25.0977 11.6699C18.3594 11.6699 14.8438 8.1543 14.8438 1.41602L14.8438-50.6348C14.8438-57.4219 18.3594-60.9375 25.0977-60.9375L39.6484-60.9375L39.6484-63.3301L25-63.3301C16.7969-63.3301 12.4512-58.9844 12.4512-50.7812L12.4512 1.51367C12.4512 9.7168 16.7969 14.0625 25 14.0625Z"/>
  </g>
  <g id="Black-S" transform="matrix(1 0 0 1 2885.99 696)">
   <path d="M47.4121-16.3574C49.0723-16.3574 50.7812-16.9434 52.3926-18.5059L64.8438-30.4199C65.8203-31.3965 66.3574-32.4219 66.3574-33.8867C66.3574-36.7676 63.8184-38.7207 61.3281-38.7207C59.8145-38.7207 58.4961-38.0859 57.5195-37.0605L54.248-33.5938L52.3926-30.2734L53.418-35.7422L53.418-72.2656C53.418-75.4395 50.8301-78.2227 47.4121-78.2227C43.9941-78.2227 41.4062-75.4395 41.4062-72.2656L41.4062-35.7422L42.4316-30.2734L40.5762-33.5938L37.3047-37.0605C36.3281-38.0859 35.0098-38.7207 33.4961-38.7207C31.0059-38.7207 28.4668-36.7676 28.4668-33.8867C28.4668-32.4219 29.0039-31.3965 29.9805-30.4199L42.4316-18.5059C44.043-16.9434 45.752-16.3574 47.4121-16.3574ZM25 6.54297L69.8242 6.54297C79.3945 6.54297 85.0586 0.878906 85.0586-8.69141L85.0586-43.7988C85.0586-53.3691 79.3945-59.0332 69.8242-59.0332L60.9375-59.0332L60.9375-44.873L67.5781-44.873C69.8242-44.873 70.8984-43.9941 70.8984-41.5527L70.8984-10.9375C70.8984-8.49609 69.8242-7.61719 67.5781-7.61719L27.2461-7.61719C25-7.61719 23.9258-8.49609 23.9258-10.9375L23.9258-41.5527C23.9258-43.9941 25-44.873 27.2461-44.873L34.2773-44.873L34.2773-59.0332L25-59.0332C15.4297-59.0332 9.76562-53.3691 9.76562-43.7988L9.76562-8.69141C9.76562 0.878906 15.4297 6.54297 25 6.54297Z"/>
  </g>
  <g id="Heavy-S" transform="matrix(1 0 0 1 2590.06 696)">
   <path d="M46.6309-17.2363C48.0957-17.2363 49.6094-17.7246 51.0254-19.1406L63.5254-31.1035C64.4043-31.9824 64.9414-32.959 64.9414-34.2773C64.9414-36.9141 62.6465-38.6719 60.3516-38.6719C58.9844-38.6719 57.7637-38.1348 56.8848-37.1582L53.0762-33.1543L51.1719-30.0781L52.0508-35.6445L52.0508-72.7539C52.0508-75.6348 49.707-78.125 46.6309-78.125C43.5547-78.125 41.2109-75.6348 41.2109-72.7539L41.2109-35.6445L42.0898-30.0781L40.1855-33.1543L36.4258-37.1582C35.498-38.1348 34.2773-38.6719 32.9102-38.6719C30.6152-38.6719 28.3203-36.9141 28.3203-34.2773C28.3203-32.959 28.8574-31.9824 29.7363-31.1035L42.2363-19.1406C43.6523-17.7246 45.166-17.2363 46.6309-17.2363ZM24.3652 6.29883L68.9453 6.29883C78.2227 6.29883 83.4961 0.976562 83.4961-8.25195L83.4961-43.9453C83.4961-53.1738 78.2227-58.4961 68.9453-58.4961L59.668-58.4961L59.668-45.9961L67.1875-45.9961C69.7266-45.9961 70.9961-44.873 70.9961-42.1387L70.9961-10.0586C70.9961-7.32422 69.7266-6.20117 67.1875-6.20117L26.0742-6.20117C23.5352-6.20117 22.2656-7.32422 22.2656-10.0586L22.2656-42.1387C22.2656-44.873 23.5352-45.9961 26.0742-45.9961L33.8867-45.9961L33.8867-58.4961L24.3652-58.4961C15.0879-58.4961 9.76562-53.1738 9.76562-43.9453L9.76562-8.25195C9.76562 0.976562 15.0879 6.29883 24.3652 6.29883Z"/>
  </g>
  <g id="Bold-S" transform="matrix(1 0 0 1 2294.23 696)">
   <path d="M45.752-18.2129C47.0215-18.2129 48.291-18.6035 49.5117-19.873L62.0605-31.8359C62.8418-32.666 63.3301-33.4961 63.3301-34.7168C63.3301-37.0605 61.377-38.6719 59.2285-38.6719C58.0078-38.6719 56.9336-38.1836 56.1523-37.3047L51.8066-32.666L49.8535-29.8828L50.4883-35.5469L50.4883-73.3398C50.4883-75.8301 48.3887-78.0273 45.752-78.0273C43.1152-78.0273 41.0156-75.8301 41.0156-73.3398L41.0156-35.5469L41.6504-29.8828L39.6973-32.666L35.4004-37.3047C34.6191-38.1836 33.4473-38.6719 32.2754-38.6719C30.127-38.6719 28.2227-37.0605 28.2227-34.7168C28.2227-33.4961 28.6621-32.666 29.4922-31.8359L41.9922-19.873C43.2617-18.6035 44.4824-18.2129 45.752-18.2129ZM23.6328 6.00586L67.9199 6.00586C76.8555 6.00586 81.7383 1.12305 81.7383-7.76367L81.7383-44.0918C81.7383-52.9785 76.8555-57.8613 67.9199-57.8613L58.2031-57.8613L58.2031-47.2656L66.748-47.2656C69.6289-47.2656 71.1426-45.8496 71.1426-42.7734L71.1426-9.08203C71.1426-6.00586 69.6289-4.58984 66.748-4.58984L24.8047-4.58984C21.9238-4.58984 20.3613-6.00586 20.3613-9.08203L20.3613-42.7734C20.3613-45.8496 21.9238-47.2656 24.8047-47.2656L33.4961-47.2656L33.4961-57.8613L23.6328-57.8613C14.6973-57.8613 9.76562-52.9785 9.76562-44.0918L9.76562-7.76367C9.76562 1.12305 14.6973 6.00586 23.6328 6.00586Z"/>
  </g>
  <g id="Semibold-S" transform="matrix(1 0 0 1 1998.1 696)">
   <path d="M45.166-18.8477C46.2891-18.8477 47.3633-19.2383 48.4863-20.3613L61.0352-32.373C61.7676-33.1055 62.207-33.9355 62.207-35.0098C62.207-37.1582 60.498-38.623 58.4473-38.623C57.373-38.623 56.3477-38.2324 55.6152-37.4023L50.9277-32.3242L48.9258-29.7852L49.4629-35.498L49.4629-73.7305C49.4629-76.0254 47.5098-77.9297 45.166-77.9297C42.7734-77.9297 40.8691-76.0254 40.8691-73.7305L40.8691-35.498L41.4062-29.7852L39.4043-32.3242L34.7168-37.4023C33.9844-38.2324 32.9102-38.623 31.8359-38.623C29.834-38.623 28.125-37.1582 28.125-35.0098C28.125-33.9355 28.5156-33.1055 29.2969-32.373L41.8457-20.3613C42.9688-19.2383 44.043-18.8477 45.166-18.8477ZM23.0957 5.81055L67.2363 5.81055C75.9277 5.81055 80.5664 1.2207 80.5664-7.42188L80.5664-44.1895C80.5664-52.832 75.9277-57.4219 67.2363-57.4219L57.2266-57.4219L57.2266-48.0957L66.4551-48.0957C69.5312-48.0957 71.2402-46.5332 71.2402-43.2617L71.2402-8.39844C71.2402-5.07812 69.5312-3.51562 66.4551-3.51562L23.877-3.51562C20.752-3.51562 19.0918-5.07812 19.0918-8.39844L19.0918-43.2617C19.0918-46.5332 20.752-48.0957 23.877-48.0957L33.2031-48.0957L33.2031-57.4219L23.0957-57.4219C14.4043-57.4219 9.76562-52.832 9.76562-44.1895L9.76562-7.42188C9.76562 1.2207 14.4043 5.81055 23.0957 5.81055Z"/>
  </g>
  <g id="Medium-S" transform="matrix(1 0 0 1 1701.85 696)">
   <path d="M44.7266-19.3848C45.752-19.3848 46.6797-19.7266 47.6562-20.7031L60.2539-32.7637C60.9863-33.4473 61.377-34.2285 61.377-35.2539C61.377-37.207 59.8145-38.623 57.8613-38.623C56.8848-38.623 55.9082-38.2324 55.2246-37.5L50.2441-32.0801L48.2422-29.6875L48.6328-35.4492L48.6328-74.0234C48.6328-76.123 46.875-77.8809 44.7266-77.8809C42.5293-77.8809 40.7715-76.123 40.7715-74.0234L40.7715-35.4492L41.2109-29.6875L39.1602-32.0801L34.1797-37.5C33.4961-38.2324 32.4707-38.623 31.4941-38.623C29.5898-38.623 28.0273-37.207 28.0273-35.2539C28.0273-34.2285 28.418-33.4473 29.1504-32.7637L41.748-20.7031C42.7734-19.7266 43.6523-19.3848 44.7266-19.3848ZM22.7051 5.66406L66.6992 5.66406C75.2441 5.66406 79.6387 1.26953 79.6387-7.12891L79.6387-44.2871C79.6387-52.7344 75.2441-57.0801 66.6992-57.0801L56.4941-57.0801L56.4941-48.7793L66.2109-48.7793C69.4824-48.7793 71.3379-47.0703 71.3379-43.6035L71.3379-7.86133C71.3379-4.39453 69.4824-2.68555 66.2109-2.68555L23.1934-2.68555C19.9219-2.68555 18.0664-4.39453 18.0664-7.86133L18.0664-43.6035C18.0664-47.0703 19.9219-48.7793 23.1934-48.7793L33.0078-48.7793L33.0078-57.0801L22.7051-57.0801C14.209-57.0801 9.76562-52.7344 9.76562-44.2871L9.76562-7.12891C9.76562 1.31836 14.209 5.66406 22.7051 5.66406Z"/>
  </g>
  <g id="Regular-S" transform="matrix(1 0 0 1 1405.73 696)">
   <path d="M44.0918-20.0195C45.0195-20.0195 45.752-20.3125 46.6309-21.1914L59.2285-33.252C59.9121-33.8867 60.3027-34.6191 60.3027-35.5469C60.3027-37.3535 58.9355-38.623 57.0801-38.623C56.25-38.623 55.3711-38.2812 54.7363-37.5488L49.3652-31.7383L47.3145-29.541L47.6074-35.3516L47.6074-74.4141C47.6074-76.2695 45.9961-77.832 44.0918-77.832C42.2363-77.832 40.625-76.2695 40.625-74.4141L40.625-35.3516L40.918-29.541L38.8672-31.7383L33.4961-37.5488C32.8613-38.2812 31.9336-38.623 31.1035-38.623C29.248-38.623 27.9297-37.3535 27.9297-35.5469C27.9297-34.6191 28.3203-33.8867 28.9551-33.252L41.5527-21.1914C42.4805-20.3125 43.2129-20.0195 44.0918-20.0195ZM22.2168 5.46875L66.0156 5.46875C74.3652 5.46875 78.4668 1.36719 78.4668-6.83594L78.4668-44.3848C78.4668-52.5879 74.3652-56.6895 66.0156-56.6895L55.5176-56.6895L55.5176-49.6094L65.918-49.6094C69.3848-49.6094 71.4355-47.7051 71.4355-44.043L71.4355-7.17773C71.4355-3.4668 69.3848-1.61133 65.918-1.61133L22.3145-1.61133C18.7988-1.61133 16.7969-3.4668 16.7969-7.17773L16.7969-44.043C16.7969-47.7051 18.7988-49.6094 22.3145-49.6094L32.7148-49.6094L32.7148-56.6895L22.2168-56.6895C13.916-56.6895 9.76562-52.5879 9.76562-44.3848L9.76562-6.83594C9.76562 1.36719 13.916 5.46875 22.2168 5.46875Z"/>
  </g>
  <g id="Light-S" transform="matrix(1 0 0 1 1109.75 696)">
   <path d="M43.3594-20.0684C44.043-20.0684 44.6777-20.3125 45.3125-20.9473L58.4961-33.7891C59.0332-34.3262 59.3262-34.8633 59.3262-35.5469C59.3262-36.9141 58.252-37.9395 56.8359-37.9395C56.2012-37.9395 55.5176-37.6953 55.0293-37.1094L48.877-30.6641L45.8496-27.5391L46.0449-33.1543L46.0449-74.5605C46.0449-75.9766 44.8242-77.1484 43.3594-77.1484C41.9434-77.1484 40.6738-75.9766 40.6738-74.5605L40.6738-33.1543L40.918-27.5391L37.8906-30.6641L31.7383-37.1094C31.25-37.6953 30.5176-37.9395 29.834-37.9395C28.4668-37.9395 27.4414-36.9141 27.4414-35.5469C27.4414-34.8633 27.7344-34.3262 28.2227-33.7891L41.4062-20.9473C42.0898-20.3125 42.6758-20.0684 43.3594-20.0684ZM21.3867 4.78516L65.332 4.78516C73.0957 4.78516 77.002 0.927734 77.002-6.68945L77.002-45.3613C77.002-52.9297 73.0957-56.8359 65.332-56.8359L54.5898-56.8359L54.5898-51.416L65.2344-51.416C69.2383-51.416 71.582-49.2676 71.582-45.0684L71.582-6.98242C71.582-2.7832 69.2383-0.634766 65.2344-0.634766L21.4844-0.634766C17.4316-0.634766 15.1855-2.7832 15.1855-6.98242L15.1855-45.0684C15.1855-49.2676 17.4316-51.416 21.4844-51.416L32.2266-51.416L32.2266-56.8359L21.3867-56.8359C13.6719-56.8359 9.76562-52.9785 9.76562-45.3613L9.76562-6.68945C9.76562 0.927734 13.6719 4.78516 21.3867 4.78516Z"/>
  </g>
  <g id="Thin-S" transform="matrix(1 0 0 1 814.015 696)">
   <path d="M42.4316-20.1172C42.8223-20.1172 43.2129-20.2637 43.6035-20.6543L57.5684-34.5215C57.8613-34.8145 58.0566-35.1562 58.0566-35.5957C58.0566-36.4258 57.373-37.0605 56.543-37.0605C56.1523-37.0605 55.6641-36.8652 55.3711-36.5723L48.1934-29.248L43.9453-24.9023L44.043-30.2734L44.043-74.707C44.043-75.5859 43.3105-76.3184 42.4316-76.3184C41.5039-76.3184 40.7715-75.5859 40.7715-74.707L40.7715-30.2734L40.8691-24.8535L36.6211-29.248L29.3945-36.5723C29.1016-36.8652 28.6133-37.0605 28.2227-37.0605C27.3926-37.0605 26.7578-36.4258 26.7578-35.5957C26.7578-35.1562 26.9043-34.8145 27.2461-34.5215L41.2598-20.6543C41.6016-20.2637 41.9922-20.1172 42.4316-20.1172ZM20.3125 3.95508L64.502 3.95508C71.4355 3.95508 75.0488 0.292969 75.0488-6.54297L75.0488-46.582C75.0488-53.418 71.4355-57.0801 64.502-57.0801L53.3691-57.0801L53.3691-53.7598L64.4043-53.7598C69.0918-53.7598 71.7285-51.2695 71.7285-46.3867L71.7285-6.73828C71.7285-1.85547 69.0918 0.634766 64.4043 0.634766L20.4102 0.634766C15.625 0.634766 13.0859-1.85547 13.0859-6.73828L13.0859-46.3867C13.0859-51.2695 15.625-53.7598 20.4102-53.7598L31.543-53.7598L31.543-57.0801L20.3125-57.0801C13.3789-57.0801 9.76562-53.4668 9.76562-46.582L9.76562-6.54297C9.76562 0.390625 13.3789 3.95508 20.3125 3.95508Z"/>
  </g>
  <g id="Ultralight-S" transform="matrix(1 0 0 1 517.792 696)">
   <path d="M41.8945-20.166C42.1875-20.166 42.4805-20.2637 42.6758-20.5078L57.0312-34.8633C57.2754-35.1074 57.373-35.3027 57.373-35.5957C57.373-36.1328 56.8848-36.6211 56.3965-36.6211C56.1035-36.6211 55.8105-36.4746 55.5664-36.2305L47.8516-28.4668L42.9688-23.5352L43.0176-28.8086L43.0176-74.8047C43.0176-75.3906 42.5293-75.8789 41.8945-75.8789C41.3086-75.8789 40.8203-75.3906 40.8203-74.8047L40.8203-28.8086L40.8691-23.4863L35.9375-28.4668L28.2227-36.2305C27.9785-36.4746 27.6855-36.6211 27.3926-36.6211C26.8555-36.6211 26.416-36.1328 26.416-35.5957C26.416-35.3027 26.5137-35.1074 26.709-34.8633L41.1133-20.5078C41.3574-20.2637 41.6504-20.166 41.8945-20.166ZM19.7754 3.51562L64.0625 3.51562C70.6055 3.51562 74.0723-0.0488281 74.0723-6.44531L74.0723-47.2168C74.0723-53.6621 70.6055-57.1777 64.0625-57.1777L52.7344-57.1777L52.7344-54.9805L63.9648-54.9805C68.9453-54.9805 71.875-52.2949 71.875-47.1191L71.875-6.5918C71.875-1.36719 68.9453 1.31836 63.9648 1.31836L19.873 1.31836C14.6484 1.31836 11.9629-1.36719 11.9629-6.5918L11.9629-47.1191C11.9629-52.2949 14.6484-54.9805 19.873-54.9805L31.2012-54.9805L31.2012-57.1777L19.7754-57.1777C13.2324-57.1777 9.76562-53.7598 9.76562-47.2168L9.76562-6.44531C9.76562 0.0488281 13.2324 3.51562 19.7754 3.51562Z"/>
  </g>
 </g>
</svg>
