<?xml version="1.0" encoding="UTF-8"?>
<!--Generator: Apple Native CoreSVG 123-->
<!DOCTYPE svg
PUBLIC "-//W3C//DTD SVG 1.1//EN"
       "http://www.w3.org/Graphics/SVG/1.1/DTD/svg11.dtd">
<svg version="1.1" xmlns="http://www.w3.org/2000/svg" xmlns:xlink="http://www.w3.org/1999/xlink" width="3300" height="2200">
 <!--glyph: "uni100142.medium", point size: 100.000000, font version: "Version 15.0d7e11", template writer version: "5"-->
 <g id="Notes">
  <rect height="2200" id="artboard" style="fill:white;opacity:1" width="3300" x="0" y="0"/>
  <line id="" style="fill:none;stroke:black;opacity:1;stroke-width:0.5;" x1="263" x2="3036" y1="292" y2="292"/>
  <text style="stroke:none;fill:black;font-family:-apple-system,&quot;SF Pro Display&quot;,&quot;SF Pro Text&quot;,Helvetica,sans-serif;font-weight:bold;" transform="matrix(1 0 0 1 263 322)">Weight/Scale Variations</text>
  <text style="stroke:none;fill:black;font-family:-apple-system,&quot;SF Pro Display&quot;,&quot;SF Pro Text&quot;,Helvetica,sans-serif;text-anchor:middle;" transform="matrix(1 0 0 1 559.711 322)">Ultralight</text>
  <text style="stroke:none;fill:black;font-family:-apple-system,&quot;SF Pro Display&quot;,&quot;SF Pro Text&quot;,Helvetica,sans-serif;text-anchor:middle;" transform="matrix(1 0 0 1 856.422 322)">Thin</text>
  <text style="stroke:none;fill:black;font-family:-apple-system,&quot;SF Pro Display&quot;,&quot;SF Pro Text&quot;,Helvetica,sans-serif;text-anchor:middle;" transform="matrix(1 0 0 1 1153.13 322)">Light</text>
  <text style="stroke:none;fill:black;font-family:-apple-system,&quot;SF Pro Display&quot;,&quot;SF Pro Text&quot;,Helvetica,sans-serif;text-anchor:middle;" transform="matrix(1 0 0 1 1449.84 322)">Regular</text>
  <text style="stroke:none;fill:black;font-family:-apple-system,&quot;SF Pro Display&quot;,&quot;SF Pro Text&quot;,Helvetica,sans-serif;text-anchor:middle;" transform="matrix(1 0 0 1 1746.56 322)">Medium</text>
  <text style="stroke:none;fill:black;font-family:-apple-system,&quot;SF Pro Display&quot;,&quot;SF Pro Text&quot;,Helvetica,sans-serif;text-anchor:middle;" transform="matrix(1 0 0 1 2043.27 322)">Semibold</text>
  <text style="stroke:none;fill:black;font-family:-apple-system,&quot;SF Pro Display&quot;,&quot;SF Pro Text&quot;,Helvetica,sans-serif;text-anchor:middle;" transform="matrix(1 0 0 1 2339.98 322)">Bold</text>
  <text style="stroke:none;fill:black;font-family:-apple-system,&quot;SF Pro Display&quot;,&quot;SF Pro Text&quot;,Helvetica,sans-serif;text-anchor:middle;" transform="matrix(1 0 0 1 2636.69 322)">Heavy</text>
  <text style="stroke:none;fill:black;font-family:-apple-system,&quot;SF Pro Display&quot;,&quot;SF Pro Text&quot;,Helvetica,sans-serif;text-anchor:middle;" transform="matrix(1 0 0 1 2933.4 322)">Black</text>
  <line id="" style="fill:none;stroke:black;opacity:1;stroke-width:0.5;" x1="263" x2="3036" y1="1903" y2="1903"/>
  <g id="" transform="matrix(1 0 0 1 263 1933)">
   <path d="M 9.24805 0.830078 C 13.5547 0.830078 17.1387 -2.74414 17.1387 -7.05078 C 17.1387 -11.3574 13.5449 -14.9316 9.23828 -14.9316 C 4.94141 -14.9316 1.36719 -11.3574 1.36719 -7.05078 C 1.36719 -2.74414 4.95117 0.830078 9.24805 0.830078 Z M 9.24805 -0.654297 C 5.70312 -0.654297 2.87109 -3.49609 2.87109 -7.05078 C 2.87109 -10.6055 5.69336 -13.4473 9.23828 -13.4473 C 12.793 -13.4473 15.6348 -10.6055 15.6445 -7.05078 C 15.6543 -3.49609 12.8027 -0.654297 9.24805 -0.654297 Z M 9.22852 -3.42773 C 9.69727 -3.42773 9.9707 -3.74023 9.9707 -4.25781 L 9.9707 -6.31836 L 12.1973 -6.31836 C 12.6953 -6.31836 13.0371 -6.57227 13.0371 -7.04102 C 13.0371 -7.51953 12.7148 -7.7832 12.1973 -7.7832 L 9.9707 -7.7832 L 9.9707 -10.0098 C 9.9707 -10.5273 9.69727 -10.8496 9.22852 -10.8496 C 8.75977 -10.8496 8.50586 -10.5078 8.50586 -10.0098 L 8.50586 -7.7832 L 6.29883 -7.7832 C 5.78125 -7.7832 5.44922 -7.51953 5.44922 -7.04102 C 5.44922 -6.57227 5.80078 -6.31836 6.29883 -6.31836 L 8.50586 -6.31836 L 8.50586 -4.25781 C 8.50586 -3.75977 8.75977 -3.42773 9.22852 -3.42773 Z"/>
  </g>
  <g id="" transform="matrix(1 0 0 1 281.506 1933)">
   <path d="M 11.709 2.91016 C 17.1582 2.91016 21.6699 -1.60156 21.6699 -7.05078 C 21.6699 -12.4902 17.1484 -17.0117 11.6992 -17.0117 C 6.25977 -17.0117 1.74805 -12.4902 1.74805 -7.05078 C 1.74805 -1.60156 6.26953 2.91016 11.709 2.91016 Z M 11.709 1.25 C 7.09961 1.25 3.41797 -2.44141 3.41797 -7.05078 C 3.41797 -11.6504 7.08984 -15.3516 11.6992 -15.3516 C 16.3086 -15.3516 20 -11.6504 20.0098 -7.05078 C 20.0195 -2.44141 16.3184 1.25 11.709 1.25 Z M 11.6895 -2.41211 C 12.207 -2.41211 12.5195 -2.77344 12.5195 -3.33984 L 12.5195 -6.23047 L 15.5762 -6.23047 C 16.123 -6.23047 16.5039 -6.51367 16.5039 -7.03125 C 16.5039 -7.55859 16.1426 -7.86133 15.5762 -7.86133 L 12.5195 -7.86133 L 12.5195 -10.9277 C 12.5195 -11.5039 12.207 -11.8555 11.6895 -11.8555 C 11.1719 -11.8555 10.8789 -11.4844 10.8789 -10.9277 L 10.8789 -7.86133 L 7.83203 -7.86133 C 7.26562 -7.86133 6.89453 -7.55859 6.89453 -7.03125 C 6.89453 -6.51367 7.28516 -6.23047 7.83203 -6.23047 L 10.8789 -6.23047 L 10.8789 -3.33984 C 10.8789 -2.79297 11.1719 -2.41211 11.6895 -2.41211 Z"/>
  </g>
  <g id="" transform="matrix(1 0 0 1 304.924 1933)">
   <path d="M 14.9707 5.67383 C 21.9336 5.67383 27.6953 -0.078125 27.6953 -7.04102 C 27.6953 -14.0039 21.9238 -19.7559 14.9609 -19.7559 C 8.00781 -19.7559 2.25586 -14.0039 2.25586 -7.04102 C 2.25586 -0.078125 8.01758 5.67383 14.9707 5.67383 Z M 14.9707 3.85742 C 8.93555 3.85742 4.08203 -1.00586 4.08203 -7.04102 C 4.08203 -13.0762 8.92578 -17.9395 14.9609 -17.9395 C 21.0059 -17.9395 25.8594 -13.0762 25.8691 -7.04102 C 25.8789 -1.00586 21.0156 3.85742 14.9707 3.85742 Z M 14.9512 -1.06445 C 15.5176 -1.06445 15.8691 -1.45508 15.8691 -2.06055 L 15.8691 -6.13281 L 20.1074 -6.13281 C 20.6934 -6.13281 21.1133 -6.46484 21.1133 -7.02148 C 21.1133 -7.59766 20.7227 -7.93945 20.1074 -7.93945 L 15.8691 -7.93945 L 15.8691 -12.1875 C 15.8691 -12.8027 15.5176 -13.1934 14.9512 -13.1934 C 14.3848 -13.1934 14.0625 -12.7832 14.0625 -12.1875 L 14.0625 -7.93945 L 9.83398 -7.93945 C 9.21875 -7.93945 8.80859 -7.59766 8.80859 -7.02148 C 8.80859 -6.46484 9.23828 -6.13281 9.83398 -6.13281 L 14.0625 -6.13281 L 14.0625 -2.06055 C 14.0625 -1.47461 14.3848 -1.06445 14.9512 -1.06445 Z"/>
  </g>
  <text style="stroke:none;fill:black;font-family:-apple-system,&quot;SF Pro Display&quot;,&quot;SF Pro Text&quot;,Helvetica,sans-serif;font-weight:bold;" transform="matrix(1 0 0 1 263 1953)">Design Variations</text>
  <text style="stroke:none;fill:black;font-family:-apple-system,&quot;SF Pro Display&quot;,&quot;SF Pro Text&quot;,Helvetica,sans-serif;" transform="matrix(1 0 0 1 263 1971)">Symbols are supported in up to nine weights and three scales.</text>
  <text style="stroke:none;fill:black;font-family:-apple-system,&quot;SF Pro Display&quot;,&quot;SF Pro Text&quot;,Helvetica,sans-serif;" transform="matrix(1 0 0 1 263 1989)">For optimal layout with text and other symbols, vertically align</text>
  <text style="stroke:none;fill:black;font-family:-apple-system,&quot;SF Pro Display&quot;,&quot;SF Pro Text&quot;,Helvetica,sans-serif;" transform="matrix(1 0 0 1 263 2007)">symbols with the adjacent text.</text>
  <rect height="14" id="" style="fill:#00AEEF;stroke:none;opacity:0.4;" width="3" x="776" y="1919"/>
  <g id="" transform="matrix(1 0 0 1 779 1933)">
   <path d="M 10.5273 0 L 12.373 0 L 7.17773 -14.0918 L 5.43945 -14.0918 L 0.244141 0 L 2.08984 0 L 3.50586 -4.0332 L 9.11133 -4.0332 Z M 6.2793 -11.9531 L 6.33789 -11.9531 L 8.59375 -5.52734 L 4.02344 -5.52734 Z"/>
  </g>
  <rect height="14" id="" style="fill:#00AEEF;stroke:none;opacity:0.4;" width="3" x="791.617" y="1919"/>
  <text style="stroke:none;fill:black;font-family:-apple-system,&quot;SF Pro Display&quot;,&quot;SF Pro Text&quot;,Helvetica,sans-serif;font-weight:bold;" transform="matrix(1 0 0 1 776 1953)">Margins</text>
  <text style="stroke:none;fill:black;font-family:-apple-system,&quot;SF Pro Display&quot;,&quot;SF Pro Text&quot;,Helvetica,sans-serif;" transform="matrix(1 0 0 1 776 1971)">Leading and trailing margins on the left and right side of each symbol</text>
  <text style="stroke:none;fill:black;font-family:-apple-system,&quot;SF Pro Display&quot;,&quot;SF Pro Text&quot;,Helvetica,sans-serif;" transform="matrix(1 0 0 1 776 1989)">can be adjusted by modifying the width of the blue rectangles.</text>
  <text style="stroke:none;fill:black;font-family:-apple-system,&quot;SF Pro Display&quot;,&quot;SF Pro Text&quot;,Helvetica,sans-serif;" transform="matrix(1 0 0 1 776 2007)">Modifications are automatically applied proportionally to all</text>
  <text style="stroke:none;fill:black;font-family:-apple-system,&quot;SF Pro Display&quot;,&quot;SF Pro Text&quot;,Helvetica,sans-serif;" transform="matrix(1 0 0 1 776 2025)">scales and weights.</text>
  <g id="" transform="matrix(1 0 0 1 1289 1933)">
   <path d="M 2.83203 3.11523 L 4.375 4.6582 C 5.22461 5.48828 6.19141 5.41992 7.06055 4.46289 L 17.2754 -6.66016 C 17.7051 -6.36719 18.0957 -6.37695 18.5645 -6.47461 L 19.6094 -6.68945 L 20.3027 -5.99609 L 20.2539 -5.47852 C 20.1855 -4.95117 20.3516 -4.53125 20.8496 -4.0332 L 21.6602 -3.22266 C 22.168 -2.71484 22.8223 -2.68555 23.3008 -3.16406 L 26.5527 -6.41602 C 27.0312 -6.89453 27.0117 -7.54883 26.5039 -8.05664 L 25.6836 -8.87695 C 25.1855 -9.375 24.7754 -9.55078 24.2383 -9.47266 L 23.7109 -9.41406 L 23.0566 -10.0781 L 23.3398 -11.2207 C 23.4863 -11.7871 23.3398 -12.2559 22.7148 -12.8613 L 20.3027 -15.2539 C 16.7578 -18.7793 12.2266 -18.6719 9.11133 -15.5371 C 8.69141 -15.1074 8.64258 -14.5215 8.91602 -14.0918 C 9.15039 -13.7207 9.62891 -13.4961 10.2734 -13.6621 C 11.7871 -14.043 13.3008 -13.9258 14.7852 -12.9199 L 14.1602 -11.3379 C 13.9258 -10.752 13.9453 -10.2734 14.1797 -9.83398 L 3.01758 0.439453 C 2.08008 1.30859 1.97266 2.25586 2.83203 3.11523 Z M 10.6738 -15.1465 C 13.3398 -17.1387 16.6504 -16.8262 19.0527 -14.4141 L 21.6797 -11.8066 C 21.9141 -11.5723 21.9434 -11.3867 21.8848 -11.0938 L 21.5039 -9.53125 L 23.0762 -7.95898 L 24.043 -8.04688 C 24.3262 -8.07617 24.4141 -8.05664 24.6387 -7.83203 L 25.2637 -7.20703 L 22.5098 -4.46289 L 21.8848 -5.07812 C 21.6602 -5.30273 21.6406 -5.40039 21.6699 -5.68359 L 21.7578 -6.64062 L 20.1953 -8.20312 L 18.5742 -7.89062 C 18.291 -7.83203 18.1445 -7.83203 17.9102 -8.07617 L 15.7324 -10.2539 C 15.5078 -10.4883 15.4785 -10.625 15.6055 -10.9473 L 16.5527 -13.2227 C 14.9512 -14.7559 12.8418 -15.6055 10.8008 -14.9512 C 10.7129 -14.9219 10.6445 -14.9414 10.6152 -14.9805 C 10.5859 -15.0293 10.5859 -15.0781 10.6738 -15.1465 Z M 4.10156 2.41211 C 3.61328 1.91406 3.78906 1.61133 4.12109 1.30859 L 15.0781 -8.80859 L 16.3086 -7.57812 L 6.15234 3.34961 C 5.84961 3.68164 5.46875 3.7793 5.06836 3.37891 Z"/>
  </g>
  <text style="stroke:none;fill:black;font-family:-apple-system,&quot;SF Pro Display&quot;,&quot;SF Pro Text&quot;,Helvetica,sans-serif;font-weight:bold;" transform="matrix(1 0 0 1 1289 1953)">Exporting</text>
  <text style="stroke:none;fill:black;font-family:-apple-system,&quot;SF Pro Display&quot;,&quot;SF Pro Text&quot;,Helvetica,sans-serif;" transform="matrix(1 0 0 1 1289 1971)">Symbols should be outlined when exporting to ensure the</text>
  <text style="stroke:none;fill:black;font-family:-apple-system,&quot;SF Pro Display&quot;,&quot;SF Pro Text&quot;,Helvetica,sans-serif;" transform="matrix(1 0 0 1 1289 1989)">design is preserved when submitting to Xcode.</text>
  <text id="template-version" style="stroke:none;fill:black;font-family:-apple-system,&quot;SF Pro Display&quot;,&quot;SF Pro Text&quot;,Helvetica,sans-serif;text-anchor:end;" transform="matrix(1 0 0 1 3036 1933)">Template v.1.0</text>
  <text style="stroke:none;fill:black;font-family:-apple-system,&quot;SF Pro Display&quot;,&quot;SF Pro Text&quot;,Helvetica,sans-serif;text-anchor:end;" transform="matrix(1 0 0 1 3036 1951)">Generated from arrow.right.to.line</text>
  <text style="stroke:none;fill:black;font-family:-apple-system,&quot;SF Pro Display&quot;,&quot;SF Pro Text&quot;,Helvetica,sans-serif;text-anchor:end;" transform="matrix(1 0 0 1 3036 1969)">Typeset at 100 points</text>
  <text style="stroke:none;fill:black;font-family:-apple-system,&quot;SF Pro Display&quot;,&quot;SF Pro Text&quot;,Helvetica,sans-serif;" transform="matrix(1 0 0 1 263 726)">Small</text>
  <text style="stroke:none;fill:black;font-family:-apple-system,&quot;SF Pro Display&quot;,&quot;SF Pro Text&quot;,Helvetica,sans-serif;" transform="matrix(1 0 0 1 263 1156)">Medium</text>
  <text style="stroke:none;fill:black;font-family:-apple-system,&quot;SF Pro Display&quot;,&quot;SF Pro Text&quot;,Helvetica,sans-serif;" transform="matrix(1 0 0 1 263 1586)">Large</text>
 </g>
 <g id="Guides">
  <g id="H-reference" style="fill:#27AAE1;stroke:none;" transform="matrix(1 0 0 1 339 696)">
   <path d="M 54.9316 0 L 57.666 0 L 30.5664 -70.459 L 28.0762 -70.459 L 0.976562 0 L 3.66211 0 L 12.9395 -24.4629 L 45.7031 -24.4629 Z M 29.1992 -67.0898 L 29.4434 -67.0898 L 44.8242 -26.709 L 13.8184 -26.709 Z"/>
  </g>
  <line id="Baseline-S" style="fill:none;stroke:#27AAE1;opacity:1;stroke-width:0.577;" x1="263" x2="3036" y1="696" y2="696"/>
  <line id="Capline-S" style="fill:none;stroke:#27AAE1;opacity:1;stroke-width:0.577;" x1="263" x2="3036" y1="625.541" y2="625.541"/>
  <g id="H-reference" style="fill:#27AAE1;stroke:none;" transform="matrix(1 0 0 1 339 1126)">
   <path d="M 54.9316 0 L 57.666 0 L 30.5664 -70.459 L 28.0762 -70.459 L 0.976562 0 L 3.66211 0 L 12.9395 -24.4629 L 45.7031 -24.4629 Z M 29.1992 -67.0898 L 29.4434 -67.0898 L 44.8242 -26.709 L 13.8184 -26.709 Z"/>
  </g>
  <line id="Baseline-M" style="fill:none;stroke:#27AAE1;opacity:1;stroke-width:0.577;" x1="263" x2="3036" y1="1126" y2="1126"/>
  <line id="Capline-M" style="fill:none;stroke:#27AAE1;opacity:1;stroke-width:0.577;" x1="263" x2="3036" y1="1055.54" y2="1055.54"/>
  <g id="H-reference" style="fill:#27AAE1;stroke:none;" transform="matrix(1 0 0 1 339 1556)">
   <path d="M 54.9316 0 L 57.666 0 L 30.5664 -70.459 L 28.0762 -70.459 L 0.976562 0 L 3.66211 0 L 12.9395 -24.4629 L 45.7031 -24.4629 Z M 29.1992 -67.0898 L 29.4434 -67.0898 L 44.8242 -26.709 L 13.8184 -26.709 Z"/>
  </g>
  <line id="Baseline-L" style="fill:none;stroke:#27AAE1;opacity:1;stroke-width:0.577;" x1="263" x2="3036" y1="1556" y2="1556"/>
  <line id="Capline-L" style="fill:none;stroke:#27AAE1;opacity:1;stroke-width:0.577;" x1="263" x2="3036" y1="1485.54" y2="1485.54"/>
  <rect height="119.336" id="left-margin" style="fill:#00AEEF;stroke:none;opacity:0.4;" width="12.4512" x="1394.38" y="1030.79"/>
  <rect height="119.336" id="right-margin" style="fill:#00AEEF;stroke:none;opacity:0.4;" width="12.4512" x="1492.86" y="1030.79"/>
 </g>
 <g id="Symbols">
  <g id="Black-L" transform="matrix(1 0 0 1 2857.55 1556)">
   <path d="M 16.0645 -36.084 C 16.0645 -29.1992 20.8496 -24.6582 28.0762 -24.6582 L 68.5547 -24.6582 L 81.1035 -25.7812 L 69.7754 -15.9668 L 61.7188 -7.76367 C 59.5703 -5.61523 58.0078 -3.07617 58.0078 0.439453 C 58.0078 6.54297 62.4512 11.2305 69.2383 11.2305 C 71.9727 11.2305 74.8535 10.0586 77.1484 7.66602 L 110.596 -27.6855 C 112.207 -29.3457 113.428 -31.5918 113.818 -34.1309 L 113.818 2.49023 C 113.818 8.54492 118.701 13.3301 124.756 13.3301 C 130.762 13.3301 135.645 8.54492 135.645 2.49023 L 135.645 -74.6094 C 135.645 -80.7129 130.762 -85.498 124.756 -85.498 C 118.701 -85.498 113.818 -80.7129 113.818 -74.6094 L 113.818 -38.0371 C 113.428 -40.5762 112.207 -42.8223 110.596 -44.4824 L 77.1484 -79.8828 C 74.8535 -82.2754 71.9727 -83.4473 69.2383 -83.4473 C 62.4512 -83.4473 58.0078 -78.7598 58.0078 -72.6562 C 58.0078 -69.1406 59.6191 -66.5527 61.7188 -64.4531 L 69.7754 -56.2012 L 81.1035 -46.3867 L 68.5547 -47.5098 L 28.0762 -47.5098 C 20.8496 -47.5098 16.0645 -42.9199 16.0645 -36.084 Z"/>
  </g>
  <g id="Heavy-L" transform="matrix(1 0 0 1 2561.93 1556)">
   <path d="M 16.0645 -36.1816 C 16.0645 -30.2734 20.166 -26.3184 26.3184 -26.3184 L 73.3398 -26.3184 L 86.1328 -27.2949 L 72.9492 -15.5762 L 62.8418 -5.32227 C 60.9863 -3.4668 59.668 -1.2207 59.668 1.75781 C 59.668 7.08008 63.5254 11.084 69.3848 11.084 C 71.7773 11.084 74.2676 10.0586 76.2695 8.00781 L 111.768 -28.9062 C 113.135 -30.3711 114.16 -32.2266 114.551 -34.375 L 114.551 3.4668 C 114.551 8.74023 118.75 12.793 124.023 12.793 C 129.297 12.793 133.447 8.74023 133.447 3.4668 L 133.447 -75.7324 C 133.447 -81.0547 129.297 -85.1562 124.023 -85.1562 C 118.75 -85.1562 114.551 -81.0547 114.551 -75.7324 L 114.551 -37.9883 C 114.16 -40.1367 113.135 -41.9922 111.768 -43.457 L 76.2695 -80.4199 C 74.2676 -82.4707 71.7773 -83.4961 69.3848 -83.4961 C 63.5254 -83.4961 59.668 -79.4922 59.668 -74.1699 C 59.668 -71.1914 61.0352 -68.8965 62.8418 -67.0898 L 72.9492 -56.7871 L 86.1328 -45.0684 L 73.3398 -46.0449 L 26.3184 -46.0449 C 20.166 -46.0449 16.0645 -42.0898 16.0645 -36.1816 Z"/>
  </g>
  <g id="Bold-L" transform="matrix(1 0 0 1 2266.42 1556)">
   <path d="M 16.0645 -36.2793 C 16.0645 -31.4453 19.4336 -28.1738 24.4141 -28.1738 L 78.7109 -28.1738 L 91.7969 -28.9551 L 76.4648 -15.1367 L 64.0625 -2.58789 C 62.5488 -1.07422 61.5234 0.830078 61.5234 3.27148 C 61.5234 7.66602 64.7461 10.9863 69.4824 10.9863 C 71.5332 10.9863 73.584 10.1074 75.293 8.34961 L 112.988 -30.3223 C 114.16 -31.4941 115.039 -33.0078 115.381 -34.668 L 115.381 4.49219 C 115.381 8.93555 118.799 12.2559 123.193 12.2559 C 127.637 12.2559 131.055 8.93555 131.055 4.49219 L 131.055 -77.0508 C 131.055 -81.4941 127.637 -84.8145 123.193 -84.8145 C 118.799 -84.8145 115.381 -81.4941 115.381 -77.0508 L 115.381 -37.8906 C 115.039 -39.5996 114.16 -41.1133 112.988 -42.2852 L 75.293 -81.0059 C 73.584 -82.7148 71.5332 -83.5938 69.4824 -83.5938 C 64.7461 -83.5938 61.5234 -80.2734 61.5234 -75.8789 C 61.5234 -73.4863 62.5977 -71.5332 64.0625 -70.0195 L 76.4648 -57.4707 L 91.748 -43.6035 L 78.7109 -44.3848 L 24.4141 -44.3848 C 19.4336 -44.3848 16.0645 -41.1133 16.0645 -36.2793 Z"/>
  </g>
  <g id="Semibold-L" transform="matrix(1 0 0 1 1970.56 1556)">
   <path d="M 16.0645 -36.377 C 16.0645 -32.2754 18.8965 -29.4922 23.0957 -29.4922 L 82.4219 -29.4922 L 95.7031 -30.127 L 78.9551 -14.8438 L 64.9414 -0.683594 C 63.623 0.585938 62.793 2.29492 62.793 4.29688 C 62.793 8.05664 65.5762 10.8887 69.5801 10.8887 C 71.3867 10.8887 73.0957 10.1074 74.6094 8.59375 L 113.867 -31.25 C 114.893 -32.2754 115.625 -33.4961 115.918 -34.9121 L 115.918 5.27344 C 115.918 9.08203 118.799 11.8652 122.656 11.8652 C 126.465 11.8652 129.346 9.08203 129.346 5.27344 L 129.346 -77.9297 C 129.346 -81.7383 126.465 -84.5703 122.656 -84.5703 C 118.799 -84.5703 115.918 -81.7383 115.918 -77.9297 L 115.918 -37.8418 C 115.625 -39.209 114.893 -40.4785 113.867 -41.4551 L 74.6094 -81.3965 C 73.0957 -82.9102 71.3867 -83.6426 69.5801 -83.6426 C 65.5762 -83.6426 62.793 -80.8594 62.793 -77.0508 C 62.793 -75.0488 63.6719 -73.3398 64.9414 -72.0703 L 78.9551 -57.9102 L 95.6543 -42.627 L 82.4219 -43.2617 L 23.0957 -43.2617 C 18.8965 -43.2617 16.0645 -40.4785 16.0645 -36.377 Z"/>
  </g>
  <g id="Medium-L" transform="matrix(1 0 0 1 1674.49 1556)">
   <path d="M 16.0645 -36.4258 C 16.0645 -32.9102 18.5059 -30.4688 22.0703 -30.4688 L 85.2539 -30.4688 L 98.6328 -31.0059 L 80.8105 -14.5996 L 65.5762 0.732422 C 64.4531 1.85547 63.7695 3.36914 63.7695 5.07812 C 63.7695 8.39844 66.2109 10.8398 69.6289 10.8398 C 71.2402 10.8398 72.7539 10.1562 74.1211 8.78906 L 114.551 -31.9824 C 115.43 -32.8613 116.064 -33.8867 116.357 -35.0586 L 116.357 5.81055 C 116.357 9.17969 118.848 11.5723 122.217 11.5723 C 125.586 11.5723 128.076 9.17969 128.076 5.81055 L 128.076 -78.5645 C 128.076 -81.9824 125.586 -84.4238 122.217 -84.4238 C 118.848 -84.4238 116.357 -81.9824 116.357 -78.5645 L 116.357 -37.793 C 116.064 -38.9648 115.43 -39.9902 114.551 -40.8691 L 74.1211 -81.6895 C 72.7539 -83.0078 71.2402 -83.6914 69.6289 -83.6914 C 66.2109 -83.6914 63.7695 -81.25 63.7695 -77.9297 C 63.7695 -76.2695 64.4531 -74.707 65.5762 -73.584 L 80.8105 -58.252 L 98.584 -41.8457 L 85.2539 -42.3828 L 22.0703 -42.3828 C 18.5059 -42.3828 16.0645 -39.9414 16.0645 -36.4258 Z"/>
  </g>
  <g id="Regular-L" transform="matrix(1 0 0 1 1378.6 1556)">
   <path d="M 16.0645 -36.5234 C 16.0645 -33.6914 17.9688 -31.7383 20.8008 -31.7383 L 88.916 -31.7383 L 102.49 -32.1289 L 83.2031 -14.3066 L 66.4062 2.58789 C 65.5273 3.4668 65.0391 4.78516 65.0391 6.10352 C 65.0391 8.78906 67.041 10.7422 69.7266 10.7422 C 71.0938 10.7422 72.2656 10.1562 73.4375 9.0332 L 115.43 -32.9102 C 116.162 -33.6426 116.65 -34.4238 116.895 -35.3027 L 116.895 6.54297 C 116.895 9.27734 118.896 11.1816 121.68 11.1816 C 124.463 11.1816 126.416 9.27734 126.416 6.54297 L 126.416 -79.4434 C 126.416 -82.2266 124.463 -84.1797 121.68 -84.1797 C 118.896 -84.1797 116.895 -82.2266 116.895 -79.4434 L 116.895 -37.6953 C 116.65 -38.5742 116.162 -39.3555 115.43 -40.0879 L 73.4375 -82.0801 C 72.2656 -83.2031 71.0938 -83.7891 69.7266 -83.7891 C 67.041 -83.7891 65.0391 -81.7871 65.0391 -79.1016 C 65.0391 -77.832 65.5273 -76.5137 66.4062 -75.5859 L 83.2031 -58.6914 L 102.441 -40.8691 L 88.916 -41.2598 L 20.8008 -41.2598 C 17.9688 -41.2598 16.0645 -39.3066 16.0645 -36.5234 Z"/>
  </g>
  <g id="Light-L" transform="matrix(1 0 0 1 1082.33 1556)">
   <path d="M 16.0645 -36.6211 C 16.0645 -34.5215 17.5293 -33.0078 19.6289 -33.0078 L 93.7988 -33.0078 L 107.471 -33.3496 L 90.2344 -17.0898 L 69.5312 3.61328 C 68.8477 4.3457 68.457 5.37109 68.457 6.39648 C 68.457 8.44727 69.9707 9.91211 71.9727 9.91211 C 73.1445 9.91211 74.0723 9.375 75 8.49609 L 117.285 -33.9355 C 117.822 -34.4238 118.164 -34.9609 118.359 -35.5957 L 118.359 7.12891 C 118.359 9.17969 119.873 10.5957 121.973 10.5957 C 124.072 10.5957 125.537 9.17969 125.537 7.12891 L 125.537 -80.2734 C 125.537 -82.373 124.072 -83.8379 121.973 -83.8379 C 119.873 -83.8379 118.359 -82.373 118.359 -80.2734 L 118.359 -37.6465 C 118.164 -38.2324 117.822 -38.8184 117.285 -39.3066 L 75 -81.7383 C 74.0723 -82.666 73.1445 -83.2031 71.9727 -83.2031 C 69.9707 -83.2031 68.457 -81.6895 68.457 -79.6387 C 68.457 -78.6133 68.8477 -77.5879 69.5312 -76.9043 L 90.2344 -56.1523 L 107.471 -39.8926 L 93.7988 -40.1855 L 19.6289 -40.1855 C 17.5293 -40.1855 16.0645 -38.7207 16.0645 -36.6211 Z"/>
  </g>
  <g id="Thin-L" transform="matrix(1 0 0 1 786.207 1556)">
   <path d="M 16.0645 -36.7676 C 16.0645 -35.5469 16.8945 -34.7168 18.0664 -34.7168 L 100.293 -34.7168 L 114.111 -34.9121 L 99.5605 -20.7031 L 73.6816 4.98047 C 73.1934 5.46875 72.9492 6.10352 72.9492 6.78711 C 72.9492 7.95898 73.7793 8.83789 74.9512 8.83789 C 75.8301 8.83789 76.416 8.34961 77.0508 7.71484 L 119.775 -35.2539 C 120.02 -35.4492 120.215 -35.7422 120.312 -36.0352 L 120.312 7.86133 C 120.312 9.08203 121.143 9.86328 122.363 9.86328 C 123.584 9.86328 124.365 9.08203 124.365 7.86133 L 124.365 -81.3965 C 124.365 -82.5684 123.584 -83.3984 122.363 -83.3984 C 121.143 -83.3984 120.312 -82.5684 120.312 -81.3965 L 120.312 -37.5 C 120.215 -37.793 120.02 -38.0371 119.775 -38.2812 L 77.0508 -81.2988 C 76.416 -81.9336 75.8301 -82.4219 74.9512 -82.4219 C 73.7793 -82.4219 72.9492 -81.543 72.9492 -80.3711 C 72.9492 -79.6875 73.1934 -79.0527 73.6816 -78.5645 L 99.5605 -52.7832 L 114.111 -38.5742 L 100.293 -38.7695 L 18.0664 -38.7695 C 16.8945 -38.7695 16.0645 -37.9395 16.0645 -36.7676 Z"/>
  </g>
  <g id="Ultralight-L" transform="matrix(1 0 0 1 489.789 1556)">
   <path d="M 16.0645 -36.8164 C 16.0645 -36.084 16.5527 -35.5957 17.2852 -35.5957 L 103.662 -35.5957 L 117.48 -35.7422 L 104.346 -22.5586 L 75.7812 5.66406 C 75.4395 6.00586 75.2441 6.49414 75.2441 6.98242 C 75.2441 7.71484 75.7324 8.30078 76.4648 8.30078 C 77.1973 8.30078 77.5879 7.8125 78.0762 7.32422 L 121.045 -35.9375 C 121.143 -36.0352 121.24 -36.1328 121.338 -36.2793 L 121.338 8.25195 C 121.338 9.0332 121.826 9.52148 122.559 9.52148 C 123.291 9.52148 123.779 9.0332 123.779 8.25195 L 123.779 -81.9336 C 123.779 -82.666 123.291 -83.1543 122.559 -83.1543 C 121.826 -83.1543 121.338 -82.666 121.338 -81.9336 L 121.338 -37.4023 C 121.24 -37.5488 121.143 -37.6465 121.045 -37.7441 L 78.0762 -81.1035 C 77.5879 -81.5918 77.1973 -82.0312 76.4648 -82.0312 C 75.7324 -82.0312 75.2441 -81.4941 75.2441 -80.7129 C 75.2441 -80.2734 75.4395 -79.7852 75.7812 -79.4434 L 104.346 -51.0742 L 117.529 -37.9395 L 103.662 -38.0371 L 17.2852 -38.0371 C 16.5527 -38.0371 16.0645 -37.5977 16.0645 -36.8164 Z"/>
  </g>
  <g id="Black-M" transform="matrix(1 0 0 1 2873.39 1126)">
   <path d="M 12.4512 -35.8398 C 12.4512 -29.5898 16.7969 -25.4883 23.4375 -25.4883 L 49.2676 -25.4883 L 58.7402 -26.5625 L 53.5645 -22.2656 L 47.998 -16.6504 C 46.0449 -14.6973 44.5312 -12.5 44.5312 -9.22852 C 44.5312 -3.75977 48.4863 0.488281 54.7363 0.488281 C 57.1289 0.488281 59.7656 -0.585938 61.7676 -2.73438 L 85.2051 -28.2715 C 86.5723 -29.7363 87.6953 -31.7871 88.0371 -34.1309 L 88.0371 -6.98242 C 88.0371 -1.5625 92.4316 2.7832 97.8027 2.7832 C 103.174 2.7832 107.568 -1.5625 107.568 -6.98242 L 107.568 -64.6484 C 107.568 -70.0684 103.174 -74.4141 97.8027 -74.4141 C 92.4316 -74.4141 88.0371 -70.0684 88.0371 -64.6484 L 88.0371 -37.5 C 87.6953 -39.8438 86.5723 -41.8945 85.2051 -43.3594 L 61.7676 -68.9453 C 59.7656 -71.0938 57.1289 -72.168 54.7363 -72.168 C 48.4863 -72.168 44.5312 -67.9688 44.5312 -62.5 C 44.5312 -59.1797 46.0938 -56.9336 47.998 -55.0293 L 53.5645 -49.3652 L 58.7402 -45.0684 L 49.2676 -46.1426 L 23.4375 -46.1426 C 16.7969 -46.1426 12.4512 -42.041 12.4512 -35.8398 Z"/>
  </g>
  <g id="Heavy-M" transform="matrix(1 0 0 1 2577.75 1126)">
   <path d="M 12.4512 -35.8887 C 12.4512 -30.5176 16.2109 -26.9531 21.875 -26.9531 L 53.2715 -26.9531 L 62.9395 -27.8809 L 55.1758 -21.1426 L 48.3887 -14.2578 C 46.7285 -12.5977 45.459 -10.6445 45.459 -7.86133 C 45.459 -3.07617 48.9258 0.585938 54.248 0.585938 C 56.3965 0.585938 58.6426 -0.341797 60.4492 -2.24609 L 85.9375 -29.3457 C 87.1582 -30.6152 88.1348 -32.373 88.4277 -34.375 L 88.4277 -6.10352 C 88.4277 -1.36719 92.2363 2.39258 96.9238 2.39258 C 101.611 2.39258 105.42 -1.36719 105.42 -6.10352 L 105.42 -65.6738 C 105.42 -70.4102 101.611 -74.1699 96.9238 -74.1699 C 92.2363 -74.1699 88.4277 -70.4102 88.4277 -65.6738 L 88.4277 -37.4512 C 88.1348 -39.4531 87.1582 -41.1621 85.9375 -42.4316 L 60.4492 -69.6289 C 58.6426 -71.4844 56.3965 -72.4121 54.248 -72.4121 C 48.9258 -72.4121 45.459 -68.75 45.459 -64.0137 C 45.459 -61.2305 46.7773 -59.2285 48.3887 -57.5684 L 55.1758 -50.6348 L 62.9395 -43.8965 L 53.2715 -44.8242 L 21.875 -44.8242 C 16.2109 -44.8242 12.4512 -41.2598 12.4512 -35.8887 Z"/>
  </g>
  <g id="Bold-M" transform="matrix(1 0 0 1 2282.24 1126)">
   <path d="M 12.4512 -35.9863 C 12.4512 -31.5918 15.5273 -28.6133 20.1172 -28.6133 L 57.666 -28.6133 L 67.627 -29.3457 L 57.0312 -19.873 L 48.8281 -11.5723 C 47.4609 -10.2051 46.4844 -8.54492 46.4844 -6.29883 C 46.4844 -2.34375 49.4141 0.683594 53.7598 0.683594 C 55.5176 0.683594 57.373 -0.0976562 58.8867 -1.66016 L 86.7676 -30.5664 C 87.8418 -31.6406 88.623 -33.0078 88.916 -34.6191 L 88.916 -5.07812 C 88.916 -1.12305 91.9922 1.9043 95.9473 1.9043 C 99.9023 1.9043 103.027 -1.12305 103.027 -5.07812 L 103.027 -66.8457 C 103.027 -70.8008 99.9023 -73.877 95.9473 -73.877 C 91.9922 -73.877 88.916 -70.8008 88.916 -66.8457 L 88.916 -37.3535 C 88.623 -38.916 87.8418 -40.332 86.7676 -41.4062 L 58.8867 -70.3613 C 57.373 -71.9238 55.5176 -72.6562 53.7598 -72.6562 C 49.4141 -72.6562 46.4844 -69.6777 46.4844 -65.7227 C 46.4844 -63.4766 47.5098 -61.7676 48.8281 -60.4004 L 57.0312 -52.0996 L 67.627 -42.627 L 57.666 -43.3594 L 20.1172 -43.3594 C 15.5273 -43.3594 12.4512 -40.3809 12.4512 -35.9863 Z"/>
  </g>
  <g id="Semibold-M" transform="matrix(1 0 0 1 1986.36 1126)">
   <path d="M 12.4512 -36.0352 C 12.4512 -32.3242 15.0391 -29.7852 18.8965 -29.7852 L 60.7422 -29.7852 L 70.8984 -30.3711 L 58.252 -18.9941 L 49.1699 -9.76562 C 47.998 -8.59375 47.2168 -7.08008 47.2168 -5.22461 C 47.2168 -1.80664 49.7559 0.732422 53.3691 0.732422 C 54.9805 0.732422 56.543 0.0976562 57.8613 -1.26953 L 87.3535 -31.3965 C 88.2812 -32.3242 88.9648 -33.4961 89.209 -34.8145 L 89.209 -4.39453 C 89.209 -0.976562 91.8457 1.61133 95.3125 1.61133 C 98.7305 1.61133 101.367 -0.976562 101.367 -4.39453 L 101.367 -67.627 C 101.367 -71.0938 98.7305 -73.6816 95.3125 -73.6816 C 91.8457 -73.6816 89.209 -71.0938 89.209 -67.627 L 89.209 -37.3047 C 88.9648 -38.5742 88.2812 -39.7461 87.3535 -40.6738 L 57.8613 -70.8496 C 56.543 -72.2168 54.9805 -72.8516 53.3691 -72.8516 C 49.7559 -72.8516 47.2168 -70.3125 47.2168 -66.8945 C 47.2168 -65.0391 47.998 -63.5254 49.1699 -62.3535 L 58.252 -53.125 L 70.8496 -41.6992 L 60.7422 -42.334 L 18.8965 -42.334 C 15.0391 -42.334 12.4512 -39.7949 12.4512 -36.0352 Z"/>
  </g>
  <g id="Medium-M" transform="matrix(1 0 0 1 1690.26 1126)">
   <path d="M 12.4512 -36.084 C 12.4512 -32.8613 14.6973 -30.6641 17.9688 -30.6641 L 63.0859 -30.6641 L 73.3398 -31.1523 L 59.2285 -18.3105 L 49.4141 -8.34961 C 48.3887 -7.32422 47.7539 -6.00586 47.7539 -4.44336 C 47.7539 -1.41602 50 0.78125 53.0762 0.78125 C 54.541 0.78125 55.8594 0.195312 57.0801 -0.976562 L 87.793 -32.0312 C 88.623 -32.8613 89.209 -33.8379 89.4531 -34.9609 L 89.4531 -3.85742 C 89.4531 -0.830078 91.748 1.36719 94.7754 1.36719 C 97.8516 1.36719 100.146 -0.830078 100.146 -3.85742 L 100.146 -68.2617 C 100.146 -71.2891 97.8516 -73.5352 94.7754 -73.5352 C 91.748 -73.5352 89.4531 -71.2891 89.4531 -68.2617 L 89.4531 -37.2559 C 89.209 -38.3301 88.623 -39.3066 87.793 -40.1367 L 57.0801 -71.2402 C 55.8594 -72.4121 54.541 -72.998 53.0762 -72.998 C 50 -72.998 47.7539 -70.752 47.7539 -67.7734 C 47.7539 -66.2109 48.3887 -64.8438 49.4141 -63.8672 L 59.2285 -53.8574 L 73.3398 -41.0645 L 63.0859 -41.5527 L 17.9688 -41.5527 C 14.6973 -41.5527 12.4512 -39.3066 12.4512 -36.084 Z"/>
  </g>
  <g id="Regular-M" transform="matrix(1 0 0 1 1394.38 1126)">
   <path d="M 12.4512 -36.1328 C 12.4512 -33.5938 14.209 -31.7871 16.748 -31.7871 L 66.1133 -31.7871 L 76.5625 -32.1289 L 60.498 -17.4805 L 49.707 -6.54297 C 48.877 -5.71289 48.4863 -4.54102 48.4863 -3.36914 C 48.4863 -0.927734 50.3418 0.830078 52.7344 0.830078 C 53.9551 0.830078 55.0293 0.390625 56.0059 -0.585938 L 88.3789 -32.8613 C 89.0625 -33.5449 89.5508 -34.3262 89.7461 -35.1562 L 89.7461 -3.17383 C 89.7461 -0.683594 91.5527 1.02539 94.1406 1.02539 C 96.6797 1.02539 98.4863 -0.683594 98.4863 -3.17383 L 98.4863 -69.043 C 98.4863 -71.582 96.6797 -73.3398 94.1406 -73.3398 C 91.5527 -73.3398 89.7461 -71.582 89.7461 -69.043 L 89.7461 -37.1582 C 89.5508 -37.9883 89.0625 -38.7695 88.3789 -39.4531 L 56.0059 -71.7285 C 55.0293 -72.7051 53.9551 -73.1934 52.7344 -73.1934 C 50.3418 -73.1934 48.4863 -71.3867 48.4863 -68.9453 C 48.4863 -67.7734 48.877 -66.6016 49.707 -65.8203 L 60.498 -54.834 L 76.5137 -40.1367 L 66.1133 -40.5273 L 16.748 -40.5273 C 14.209 -40.5273 12.4512 -38.7207 12.4512 -36.1328 Z"/>
  </g>
  <g id="Light-M" transform="matrix(1 0 0 1 1098.06 1126)">
   <path d="M 12.4512 -36.2305 C 12.4512 -34.3262 13.7695 -32.959 15.7227 -32.959 L 70.5078 -32.959 L 81.0547 -33.252 L 66.7969 -19.9219 L 52.4902 -5.61523 C 51.8555 -4.98047 51.5137 -4.05273 51.5137 -3.125 C 51.5137 -1.2207 52.9297 0.146484 54.7852 0.146484 C 55.7617 0.146484 56.5918 -0.292969 57.4219 -1.12305 L 90.0391 -33.7891 C 90.5762 -34.2285 90.918 -34.8145 91.0645 -35.4004 L 91.0645 -2.68555 C 91.0645 -0.78125 92.4316 0.537109 94.3848 0.537109 C 96.3379 0.537109 97.7051 -0.78125 97.7051 -2.68555 L 97.7051 -69.7754 C 97.7051 -71.7285 96.3379 -73.0469 94.3848 -73.0469 C 92.4316 -73.0469 91.0645 -71.7285 91.0645 -69.7754 L 91.0645 -37.1094 C 90.918 -37.6953 90.5762 -38.2812 90.0391 -38.7207 L 57.4219 -71.4355 C 56.5918 -72.2168 55.7617 -72.6562 54.7852 -72.6562 C 52.9297 -72.6562 51.5137 -71.2891 51.5137 -69.4336 C 51.5137 -68.5059 51.8555 -67.5781 52.4902 -66.9434 L 66.7969 -52.5879 L 81.0059 -39.2578 L 70.5078 -39.5508 L 15.7227 -39.5508 C 13.7695 -39.5508 12.4512 -38.1836 12.4512 -36.2305 Z"/>
  </g>
  <g id="Thin-M" transform="matrix(1 0 0 1 801.881 1126)">
   <path d="M 12.4512 -36.377 C 12.4512 -35.2539 13.2324 -34.4727 14.3555 -34.4727 L 76.3184 -34.4727 L 87.0117 -34.668 L 75.1465 -23.1934 L 56.2012 -4.3457 C 55.8105 -3.95508 55.5664 -3.36914 55.5664 -2.7832 C 55.5664 -1.66016 56.3477 -0.830078 57.4219 -0.830078 C 58.2031 -0.830078 58.6914 -1.2207 59.2773 -1.80664 L 92.2852 -34.9609 C 92.5293 -35.2051 92.7246 -35.4492 92.8223 -35.7422 L 92.8223 -2.00195 C 92.8223 -0.878906 93.6035 -0.0976562 94.7266 -0.0976562 C 95.8496 -0.0976562 96.6309 -0.878906 96.6309 -2.00195 L 96.6309 -70.752 C 96.6309 -71.875 95.8496 -72.6562 94.7266 -72.6562 C 93.6035 -72.6562 92.8223 -71.875 92.8223 -70.752 L 92.8223 -37.0117 C 92.7246 -37.3047 92.5293 -37.5977 92.2852 -37.793 L 59.2773 -71.0449 C 58.6914 -71.582 58.2031 -71.9727 57.4219 -71.9727 C 56.3477 -71.9727 55.5664 -71.1426 55.5664 -70.0684 C 55.5664 -69.4824 55.8105 -68.8477 56.2012 -68.457 L 75.1465 -49.5605 L 87.0117 -38.1348 L 76.3184 -38.2812 L 14.3555 -38.2812 C 13.2324 -38.2812 12.4512 -37.5 12.4512 -36.377 Z"/>
  </g>
  <g id="Ultralight-M" transform="matrix(1 0 0 1 505.439 1126)">
   <path d="M 12.4512 -36.4746 C 12.4512 -35.7422 12.9395 -35.2539 13.623 -35.2539 L 79.2969 -35.2539 L 90.0391 -35.4004 L 79.4434 -24.8535 L 58.1055 -3.75977 C 57.8125 -3.41797 57.6172 -3.02734 57.6172 -2.58789 C 57.6172 -1.85547 58.1055 -1.31836 58.7891 -1.31836 C 59.4238 -1.31836 59.7656 -1.70898 60.2051 -2.14844 L 93.457 -35.5469 C 93.5547 -35.6934 93.6523 -35.791 93.75 -35.9375 L 93.75 -1.66016 C 93.75 -0.927734 94.1895 -0.439453 94.9219 -0.439453 C 95.6543 -0.439453 96.0938 -0.927734 96.0938 -1.66016 L 96.0938 -71.2402 C 96.0938 -71.9727 95.6543 -72.4609 94.9219 -72.4609 C 94.1895 -72.4609 93.75 -71.9727 93.75 -71.2402 L 93.75 -36.9629 C 93.6523 -37.1094 93.5547 -37.207 93.457 -37.3535 L 60.2051 -70.8496 C 59.7656 -71.2402 59.4238 -71.6309 58.7891 -71.6309 C 58.1055 -71.6309 57.6172 -71.0938 57.6172 -70.3613 C 57.6172 -69.9707 57.8125 -69.5312 58.1055 -69.2383 L 79.4434 -48.0469 L 90.0391 -37.5 L 79.2969 -37.6465 L 13.623 -37.6465 C 12.9395 -37.6465 12.4512 -37.1582 12.4512 -36.4746 Z"/>
  </g>
  <g id="Black-S" transform="matrix(1 0 0 1 2886.45 696)">
   <path d="M 9.76562 -35.6934 C 9.76562 -30.8594 13.1348 -27.6855 18.2617 -27.6855 L 38.8672 -27.6855 L 46.2891 -28.5156 L 41.9922 -24.9512 L 37.5977 -20.5078 C 36.084 -18.9941 34.9121 -17.2852 34.9121 -14.7461 C 34.9121 -10.498 37.9883 -7.22656 42.8223 -7.22656 C 44.6777 -7.22656 46.7285 -8.05664 48.291 -9.7168 L 66.7969 -29.834 C 67.8711 -31.0059 68.7012 -32.5684 68.9941 -34.375 L 68.9941 -13.0371 C 68.9941 -8.83789 72.4121 -5.46875 76.5625 -5.46875 C 80.7129 -5.46875 84.1309 -8.83789 84.1309 -13.0371 L 84.1309 -58.3496 C 84.1309 -62.5488 80.7129 -65.918 76.5625 -65.918 C 72.4121 -65.918 68.9941 -62.5488 68.9941 -58.3496 L 68.9941 -36.9629 C 68.7012 -38.8184 67.8711 -40.3809 66.7969 -41.5527 L 48.291 -61.7188 C 46.7285 -63.3789 44.6777 -64.209 42.8223 -64.209 C 37.9883 -64.209 34.9121 -60.9375 34.9121 -56.6895 C 34.9121 -54.1504 36.1328 -52.3926 37.5977 -50.9277 L 41.9922 -46.4355 L 46.2891 -42.8711 L 38.8672 -43.7012 L 18.2617 -43.7012 C 13.1348 -43.7012 9.76562 -40.5273 9.76562 -35.6934 Z"/>
  </g>
  <g id="Heavy-S" transform="matrix(1 0 0 1 2590.52 696)">
   <path d="M 9.76562 -35.7422 C 9.76562 -31.4941 12.6953 -28.7109 17.1875 -28.7109 L 41.4062 -28.7109 L 49.0234 -29.3945 L 42.5293 -23.8281 L 37.5977 -18.7988 C 36.2793 -17.4805 35.3027 -15.918 35.3027 -13.7207 C 35.3027 -9.96094 38.0371 -7.08008 42.2363 -7.08008 C 43.8965 -7.08008 45.7031 -7.8125 47.1191 -9.27734 L 67.1875 -30.5664 C 68.1641 -31.5918 68.8965 -32.959 69.1406 -34.5215 L 69.1406 -12.4023 C 69.1406 -8.69141 72.168 -5.71289 75.8789 -5.71289 C 79.5898 -5.71289 82.5684 -8.69141 82.5684 -12.4023 L 82.5684 -59.0332 C 82.5684 -62.793 79.5898 -65.7715 75.8789 -65.7715 C 72.168 -65.7715 69.1406 -62.793 69.1406 -59.0332 L 69.1406 -36.9629 C 68.8965 -38.5254 68.1641 -39.8926 67.1875 -40.918 L 47.1191 -62.2559 C 45.7031 -63.7207 43.8965 -64.4531 42.2363 -64.4531 C 38.0371 -64.4531 35.3027 -61.5723 35.3027 -57.8125 C 35.3027 -55.6152 36.3281 -54.0527 37.5977 -52.7344 L 42.5293 -47.6562 L 49.0234 -42.0898 L 41.4062 -42.7734 L 17.1875 -42.7734 C 12.6953 -42.7734 9.76562 -39.9902 9.76562 -35.7422 Z"/>
  </g>
  <g id="Bold-S" transform="matrix(1 0 0 1 2294.67 696)">
   <path d="M 9.76562 -35.791 C 9.76562 -32.2266 12.2559 -29.834 15.9668 -29.834 L 44.2871 -29.834 L 52.0508 -30.4199 L 43.1641 -22.5098 L 37.5977 -16.8457 C 36.4746 -15.7227 35.6934 -14.3555 35.6934 -12.5977 C 35.6934 -9.375 38.0859 -6.93359 41.6016 -6.93359 C 43.0176 -6.93359 44.5312 -7.51953 45.752 -8.78906 L 67.627 -31.3965 C 68.457 -32.2754 69.0918 -33.3984 69.3359 -34.7168 L 69.3359 -11.7188 C 69.3359 -8.49609 71.875 -6.00586 75.0977 -6.00586 C 78.3203 -6.00586 80.8594 -8.49609 80.8594 -11.7188 L 80.8594 -59.8633 C 80.8594 -63.0859 78.3203 -65.5762 75.0977 -65.5762 C 71.875 -65.5762 69.3359 -63.0859 69.3359 -59.8633 L 69.3359 -36.9141 C 69.0918 -38.1836 68.457 -39.3066 67.627 -40.1855 L 45.752 -62.8418 C 44.5312 -64.1113 43.0176 -64.6973 41.6016 -64.6973 C 38.0859 -64.6973 35.6934 -62.2559 35.6934 -59.0332 C 35.6934 -57.2754 36.5234 -55.8594 37.5977 -54.7852 L 43.1641 -49.0723 L 52.0508 -41.2109 L 44.2871 -41.748 L 15.9668 -41.748 C 12.2559 -41.748 9.76562 -39.3555 9.76562 -35.791 Z"/>
  </g>
  <g id="Semibold-S" transform="matrix(1 0 0 1 1998.56 696)">
   <path d="M 9.76562 -35.8398 C 9.76562 -32.7148 11.9141 -30.6152 15.1367 -30.6152 L 46.2402 -30.6152 L 54.1504 -31.1035 L 43.6035 -21.6309 L 37.5977 -15.5273 C 36.6211 -14.5508 35.9863 -13.2812 35.9863 -11.7676 C 35.9863 -8.93555 38.1348 -6.78711 41.1621 -6.78711 C 42.4316 -6.78711 43.75 -7.32422 44.8242 -8.44727 L 67.9199 -31.9824 C 68.7012 -32.7637 69.2383 -33.7402 69.4824 -34.8145 L 69.4824 -11.2305 C 69.4824 -8.34961 71.6797 -6.20117 74.5605 -6.20117 C 77.4414 -6.20117 79.6387 -8.34961 79.6387 -11.2305 L 79.6387 -60.4004 C 79.6387 -63.2812 77.4414 -65.4297 74.5605 -65.4297 C 71.6797 -65.4297 69.4824 -63.2812 69.4824 -60.4004 L 69.4824 -36.8652 C 69.2383 -37.9395 68.7012 -38.916 67.9199 -39.6973 L 44.8242 -63.2324 C 43.75 -64.3555 42.4316 -64.8926 41.1621 -64.8926 C 38.1348 -64.8926 35.9863 -62.7441 35.9863 -59.9121 C 35.9863 -58.3984 36.6699 -57.1289 37.5977 -56.2012 L 43.6035 -50.0488 L 54.1016 -40.5762 L 46.2402 -41.0645 L 15.1367 -41.0645 C 11.9141 -41.0645 9.76562 -38.9648 9.76562 -35.8398 Z"/>
  </g>
  <g id="Medium-S" transform="matrix(1 0 0 1 1702.29 696)">
   <path d="M 9.76562 -35.8887 C 9.76562 -33.1055 11.6699 -31.2012 14.502 -31.2012 L 47.7051 -31.2012 L 55.7617 -31.5918 L 43.8965 -20.9961 L 37.5977 -14.502 C 36.7188 -13.6719 36.2305 -12.5 36.2305 -11.1816 C 36.2305 -8.59375 38.1348 -6.73828 40.8203 -6.73828 C 41.9922 -6.73828 43.1152 -7.17773 44.1406 -8.20312 L 68.1152 -32.373 C 68.8477 -33.1055 69.3848 -33.9844 69.5801 -34.9121 L 69.5801 -10.8398 C 69.5801 -8.25195 71.5332 -6.39648 74.1699 -6.39648 C 76.8066 -6.39648 78.7598 -8.25195 78.7598 -10.8398 L 78.7598 -60.791 C 78.7598 -63.4277 76.8066 -65.3809 74.1699 -65.3809 C 71.5332 -65.3809 69.5801 -63.4277 69.5801 -60.791 L 69.5801 -36.8164 C 69.3848 -37.7441 68.8477 -38.623 68.1152 -39.3555 L 44.1406 -63.5742 C 43.1152 -64.5508 41.9922 -65.0391 40.8203 -65.0391 C 38.1348 -65.0391 36.2305 -63.1348 36.2305 -60.5469 C 36.2305 -59.2285 36.7676 -58.1055 37.5977 -57.2266 L 43.8965 -50.7324 L 55.7129 -40.1367 L 47.7051 -40.5273 L 14.502 -40.5273 C 11.6699 -40.5273 9.76562 -38.623 9.76562 -35.8887 Z"/>
  </g>
  <g id="Regular-S" transform="matrix(1 0 0 1 1406.19 696)">
   <path d="M 9.76562 -35.8887 C 9.76562 -33.5938 11.377 -31.9824 13.6719 -31.9824 L 49.6582 -31.9824 L 57.8125 -32.2754 L 44.3359 -20.1172 L 37.5977 -13.1836 C 36.8652 -12.5 36.5234 -11.4258 36.5234 -10.4004 C 36.5234 -8.20312 38.1836 -6.5918 40.332 -6.5918 C 41.4062 -6.5918 42.334 -6.98242 43.2129 -7.86133 L 68.4082 -32.959 C 69.0918 -33.5938 69.5312 -34.2773 69.6777 -35.0586 L 69.6777 -10.3516 C 69.6777 -8.10547 71.3379 -6.5918 73.6328 -6.5918 C 75.9277 -6.5918 77.5391 -8.10547 77.5391 -10.3516 L 77.5391 -61.3281 C 77.5391 -63.623 75.9277 -65.2344 73.6328 -65.2344 C 71.3379 -65.2344 69.6777 -63.623 69.6777 -61.3281 L 69.6777 -36.7188 C 69.5312 -37.5 69.0918 -38.2324 68.4082 -38.8672 L 43.2129 -63.9648 C 42.334 -64.7949 41.4062 -65.1855 40.332 -65.1855 C 38.1836 -65.1855 36.5234 -63.623 36.5234 -61.4258 C 36.5234 -60.3516 36.8652 -59.3262 37.5977 -58.6426 L 44.3359 -51.709 L 57.7637 -39.502 L 49.6582 -39.8438 L 13.6719 -39.8438 C 11.377 -39.8438 9.76562 -38.1836 9.76562 -35.8887 Z"/>
  </g>
  <g id="Light-S" transform="matrix(1 0 0 1 1109.82 696)">
   <path d="M 9.76562 -35.9863 C 9.76562 -34.2285 10.9863 -33.0078 12.7441 -33.0078 L 53.5645 -33.0078 L 61.8164 -33.252 L 49.9023 -22.3145 L 40.0879 -12.3535 C 39.502 -11.8164 39.209 -10.9863 39.209 -10.1562 C 39.209 -8.49609 40.4785 -7.27539 42.1387 -7.27539 C 43.0176 -7.27539 43.75 -7.61719 44.4824 -8.30078 L 69.9219 -33.7402 C 70.4102 -34.1797 70.7031 -34.7168 70.8496 -35.2539 L 70.8496 -9.91211 C 70.8496 -8.20312 72.1191 -7.03125 73.877 -7.03125 C 75.6348 -7.03125 76.8555 -8.20312 76.8555 -9.91211 L 76.8555 -62.0117 C 76.8555 -63.7695 75.6348 -64.9902 73.877 -64.9902 C 72.1191 -64.9902 70.8496 -63.7695 70.8496 -62.0117 L 70.8496 -36.7188 C 70.7031 -37.2559 70.4102 -37.793 69.9219 -38.2324 L 44.4824 -63.7207 C 43.75 -64.4043 43.0176 -64.7461 42.1387 -64.7461 C 40.4785 -64.7461 39.209 -63.5254 39.209 -61.8164 C 39.209 -61.0352 39.502 -60.2051 40.0879 -59.6191 L 49.9023 -49.707 L 61.7676 -38.7207 L 53.5645 -39.0137 L 12.7441 -39.0137 C 10.9863 -39.0137 9.76562 -37.7441 9.76562 -35.9863 Z"/>
  </g>
  <g id="Thin-S" transform="matrix(1 0 0 1 813.576 696)">
   <path d="M 9.76562 -36.084 C 9.76562 -35.0586 10.498 -34.3262 11.5234 -34.3262 L 58.6914 -34.3262 L 67.041 -34.5215 L 57.3242 -25.1953 L 43.3594 -11.2793 C 42.9688 -10.9375 42.7734 -10.4004 42.7734 -9.86328 C 42.7734 -8.83789 43.5059 -8.10547 44.4824 -8.10547 C 45.1172 -8.10547 45.6055 -8.39844 46.0938 -8.88672 L 71.875 -34.7656 C 72.1191 -35.0098 72.3145 -35.2539 72.4121 -35.5469 L 72.4121 -9.32617 C 72.4121 -8.30078 73.1445 -7.56836 74.1699 -7.56836 C 75.1953 -7.56836 75.9277 -8.30078 75.9277 -9.32617 L 75.9277 -62.8906 C 75.9277 -63.916 75.1953 -64.6484 74.1699 -64.6484 C 73.1445 -64.6484 72.4121 -63.916 72.4121 -62.8906 L 72.4121 -36.6699 C 72.3145 -36.9629 72.1191 -37.207 71.875 -37.4512 L 46.0938 -63.3789 C 45.6055 -63.8184 45.1172 -64.1602 44.4824 -64.1602 C 43.5059 -64.1602 42.7734 -63.4277 42.7734 -62.4023 C 42.7734 -61.8652 42.9688 -61.3281 43.3594 -60.9863 L 57.3242 -47.0215 L 67.041 -37.6953 L 58.6914 -37.8906 L 11.5234 -37.8906 C 10.498 -37.8906 9.76562 -37.1582 9.76562 -36.084 Z"/>
  </g>
  <g id="Ultralight-S" transform="matrix(1 0 0 1 517.109 696)">
   <path d="M 9.76562 -36.1816 C 9.76562 -35.498 10.2051 -35.0586 10.8887 -35.0586 L 61.377 -35.0586 L 69.7266 -35.1562 L 61.084 -26.6602 L 45.0195 -10.7422 C 44.7754 -10.4492 44.5801 -10.0586 44.5801 -9.7168 C 44.5801 -9.0332 45.0684 -8.54492 45.7031 -8.54492 C 46.2402 -8.54492 46.582 -8.83789 46.9238 -9.22852 L 72.9004 -35.3027 C 73.0469 -35.4492 73.1445 -35.5957 73.1934 -35.7422 L 73.1934 -8.98438 C 73.1934 -8.34961 73.6816 -7.91016 74.3164 -7.91016 C 75 -7.91016 75.4395 -8.34961 75.4395 -8.98438 L 75.4395 -63.3301 C 75.4395 -64.0137 75 -64.4531 74.3164 -64.4531 C 73.6816 -64.4531 73.1934 -64.0137 73.1934 -63.3301 L 73.1934 -36.5723 C 73.1445 -36.7676 73.0469 -36.8652 72.9004 -37.0117 L 46.9238 -63.1836 C 46.582 -63.5254 46.2402 -63.8184 45.7031 -63.8184 C 45.0684 -63.8184 44.5801 -63.3301 44.5801 -62.6953 C 44.5801 -62.3047 44.7754 -61.9141 45.0195 -61.6699 L 61.084 -45.6543 L 69.7266 -37.1582 L 61.377 -37.3047 L 10.8887 -37.3047 C 10.2051 -37.3047 9.76562 -36.8164 9.76562 -36.1816 Z"/>
  </g>
 </g>
</svg>
