<?xml version="1.0" encoding="UTF-8"?>
<!--Generator: Apple Native CoreSVG 149-->
<!DOCTYPE svg
PUBLIC "-//W3C//DTD SVG 1.1//EN"
       "http://www.w3.org/Graphics/SVG/1.1/DTD/svg11.dtd">
<svg version="1.1" xmlns="http://www.w3.org/2000/svg" xmlns:xlink="http://www.w3.org/1999/xlink" width="3300" height="2200">
 <!--glyph: "uni100286.medium", point size: 100.000000, font version: "Version 16.0d18e1", template writer version: "8"-->
 <g id="Notes">
  <rect height="2200" id="artboard" style="fill:white;opacity:1" width="3300" x="0" y="0"/>
  <line id="" style="fill:none;stroke:black;opacity:1;stroke-width:0.5;" x1="263" x2="3036" y1="292" y2="292"/>
  <text style="stroke:none;fill:black;font-family:-apple-system,&quot;SF Pro Display&quot;,&quot;SF Pro Text&quot;,Helvetica,sans-serif;font-weight:bold;" transform="matrix(1 0 0 1 263 322)">Weight/Scale Variations</text>
  <text style="stroke:none;fill:black;font-family:-apple-system,&quot;SF Pro Display&quot;,&quot;SF Pro Text&quot;,Helvetica,sans-serif;text-anchor:middle;" transform="matrix(1 0 0 1 559.711 322)">Ultralight</text>
  <text style="stroke:none;fill:black;font-family:-apple-system,&quot;SF Pro Display&quot;,&quot;SF Pro Text&quot;,Helvetica,sans-serif;text-anchor:middle;" transform="matrix(1 0 0 1 856.422 322)">Thin</text>
  <text style="stroke:none;fill:black;font-family:-apple-system,&quot;SF Pro Display&quot;,&quot;SF Pro Text&quot;,Helvetica,sans-serif;text-anchor:middle;" transform="matrix(1 0 0 1 1153.13 322)">Light</text>
  <text style="stroke:none;fill:black;font-family:-apple-system,&quot;SF Pro Display&quot;,&quot;SF Pro Text&quot;,Helvetica,sans-serif;text-anchor:middle;" transform="matrix(1 0 0 1 1449.84 322)">Regular</text>
  <text style="stroke:none;fill:black;font-family:-apple-system,&quot;SF Pro Display&quot;,&quot;SF Pro Text&quot;,Helvetica,sans-serif;text-anchor:middle;" transform="matrix(1 0 0 1 1746.56 322)">Medium</text>
  <text style="stroke:none;fill:black;font-family:-apple-system,&quot;SF Pro Display&quot;,&quot;SF Pro Text&quot;,Helvetica,sans-serif;text-anchor:middle;" transform="matrix(1 0 0 1 2043.27 322)">Semibold</text>
  <text style="stroke:none;fill:black;font-family:-apple-system,&quot;SF Pro Display&quot;,&quot;SF Pro Text&quot;,Helvetica,sans-serif;text-anchor:middle;" transform="matrix(1 0 0 1 2339.98 322)">Bold</text>
  <text style="stroke:none;fill:black;font-family:-apple-system,&quot;SF Pro Display&quot;,&quot;SF Pro Text&quot;,Helvetica,sans-serif;text-anchor:middle;" transform="matrix(1 0 0 1 2636.69 322)">Heavy</text>
  <text style="stroke:none;fill:black;font-family:-apple-system,&quot;SF Pro Display&quot;,&quot;SF Pro Text&quot;,Helvetica,sans-serif;text-anchor:middle;" transform="matrix(1 0 0 1 2933.4 322)">Black</text>
  <line id="" style="fill:none;stroke:black;opacity:1;stroke-width:0.5;" x1="263" x2="3036" y1="1903" y2="1903"/>
  <g id="" transform="matrix(1 0 0 1 263 1933)">
   <path d="M9.24805 0.830078C13.5547 0.830078 17.1387-2.74414 17.1387-7.05078C17.1387-11.3574 13.5449-14.9316 9.23828-14.9316C4.94141-14.9316 1.36719-11.3574 1.36719-7.05078C1.36719-2.74414 4.95117 0.830078 9.24805 0.830078ZM9.24805-0.654297C5.70312-0.654297 2.87109-3.49609 2.87109-7.05078C2.87109-10.6055 5.69336-13.4473 9.23828-13.4473C12.793-13.4473 15.6348-10.6055 15.6445-7.05078C15.6543-3.49609 12.8027-0.654297 9.24805-0.654297ZM6.39648-6.31836L8.50586-6.31836L8.50586-4.19922C8.50586-3.75977 8.79883-3.45703 9.22852-3.45703C9.67773-3.45703 9.9707-3.75977 9.9707-4.19922L9.9707-6.31836L12.0996-6.31836C12.5391-6.31836 12.8418-6.61133 12.8418-7.04102C12.8418-7.48047 12.5391-7.7832 12.0996-7.7832L9.9707-7.7832L9.9707-9.89258C9.9707-10.3418 9.67773-10.6445 9.22852-10.6445C8.79883-10.6445 8.50586-10.3418 8.50586-9.89258L8.50586-7.7832L6.39648-7.7832C5.94727-7.7832 5.64453-7.48047 5.64453-7.04102C5.64453-6.61133 5.94727-6.31836 6.39648-6.31836Z"/>
  </g>
  <g id="" transform="matrix(1 0 0 1 281.506 1933)">
   <path d="M11.709 2.91016C17.1582 2.91016 21.6699-1.61133 21.6699-7.05078C21.6699-12.5 17.1484-17.0117 11.6992-17.0117C6.25977-17.0117 1.74805-12.5 1.74805-7.05078C1.74805-1.61133 6.26953 2.91016 11.709 2.91016ZM11.709 1.25C7.09961 1.25 3.41797-2.44141 3.41797-7.05078C3.41797-11.6602 7.08984-15.3516 11.6992-15.3516C16.3086-15.3516 20-11.6602 20.0098-7.05078C20.0195-2.44141 16.3184 1.25 11.709 1.25ZM7.98828-6.23047L10.8789-6.23047L10.8789-3.32031C10.8789-2.83203 11.2109-2.5 11.6895-2.5C12.1777-2.5 12.5195-2.83203 12.5195-3.32031L12.5195-6.23047L15.4297-6.23047C15.918-6.23047 16.25-6.5625 16.25-7.04102C16.25-7.5293 15.918-7.87109 15.4297-7.87109L12.5195-7.87109L12.5195-10.7617C12.5195-11.2695 12.1777-11.6016 11.6895-11.6016C11.2109-11.6016 10.8789-11.2598 10.8789-10.7617L10.8789-7.87109L7.98828-7.87109C7.48047-7.87109 7.14844-7.5293 7.14844-7.04102C7.14844-6.5625 7.49023-6.23047 7.98828-6.23047Z"/>
  </g>
  <g id="" transform="matrix(1 0 0 1 304.924 1933)">
   <path d="M14.9707 5.66406C21.9336 5.66406 27.6953-0.0976562 27.6953-7.05078C27.6953-14.0137 21.9238-19.7754 14.9609-19.7754C8.00781-19.7754 2.25586-14.0137 2.25586-7.05078C2.25586-0.0976562 8.01758 5.66406 14.9707 5.66406ZM14.9707 3.84766C8.93555 3.84766 4.08203-1.01562 4.08203-7.05078C4.08203-13.0957 8.92578-17.9492 14.9609-17.9492C21.0059-17.9492 25.8594-13.0957 25.8691-7.05078C25.8789-1.01562 21.0156 3.84766 14.9707 3.84766ZM10.0586-6.14258L14.0625-6.14258L14.0625-2.12891C14.0625-1.5918 14.4336-1.2207 14.9512-1.2207C15.4883-1.2207 15.8594-1.5918 15.8594-2.12891L15.8594-6.14258L19.8828-6.14258C20.4102-6.14258 20.791-6.51367 20.791-7.03125C20.791-7.56836 20.4199-7.94922 19.8828-7.94922L15.8594-7.94922L15.8594-11.9531C15.8594-12.5098 15.4883-12.8809 14.9512-12.8809C14.4336-12.8809 14.0625-12.5 14.0625-11.9531L14.0625-7.94922L10.0586-7.94922C9.50195-7.94922 9.13086-7.56836 9.13086-7.03125C9.13086-6.51367 9.51172-6.14258 10.0586-6.14258Z"/>
  </g>
  <text style="stroke:none;fill:black;font-family:-apple-system,&quot;SF Pro Display&quot;,&quot;SF Pro Text&quot;,Helvetica,sans-serif;font-weight:bold;" transform="matrix(1 0 0 1 263 1953)">Design Variations</text>
  <text style="stroke:none;fill:black;font-family:-apple-system,&quot;SF Pro Display&quot;,&quot;SF Pro Text&quot;,Helvetica,sans-serif;" transform="matrix(1 0 0 1 263 1971)">Symbols are supported in up to nine weights and three scales.</text>
  <text style="stroke:none;fill:black;font-family:-apple-system,&quot;SF Pro Display&quot;,&quot;SF Pro Text&quot;,Helvetica,sans-serif;" transform="matrix(1 0 0 1 263 1989)">For optimal layout with text and other symbols, vertically align</text>
  <text style="stroke:none;fill:black;font-family:-apple-system,&quot;SF Pro Display&quot;,&quot;SF Pro Text&quot;,Helvetica,sans-serif;" transform="matrix(1 0 0 1 263 2007)">symbols with the adjacent text.</text>
  <line id="" style="fill:none;stroke:#00AEEF;stroke-width:0.5;opacity:1.0;" x1="776" x2="776" y1="1919" y2="1933"/>
  <g id="" transform="matrix(1 0 0 1 776 1933)">
   <path d="M3.31055 0.126953C3.82812 0.126953 4.08203-0.0683594 4.26758-0.605469L5.52734-4.0625L11.2891-4.0625L12.5488-0.605469C12.7344-0.0683594 12.9883 0.126953 13.4961 0.126953C14.0137 0.126953 14.3457-0.185547 14.3457-0.673828C14.3457-0.839844 14.3164-0.986328 14.2383-1.20117L9.6582-13.3887C9.43359-13.9941 9.0332-14.2871 8.4082-14.2871C7.80273-14.2871 7.39258-13.9941 7.17773-13.3984L2.59766-1.19141C2.51953-0.976562 2.49023-0.830078 2.49023-0.664062C2.49023-0.175781 2.80273 0.126953 3.31055 0.126953ZM6.00586-5.53711L8.37891-12.1094L8.42773-12.1094L10.8008-5.53711Z"/>
  </g>
  <line id="" style="fill:none;stroke:#00AEEF;stroke-width:0.5;opacity:1.0;" x1="792.836" x2="792.836" y1="1919" y2="1933"/>
  <text style="stroke:none;fill:black;font-family:-apple-system,&quot;SF Pro Display&quot;,&quot;SF Pro Text&quot;,Helvetica,sans-serif;font-weight:bold;" transform="matrix(1 0 0 1 776 1953)">Margins</text>
  <text style="stroke:none;fill:black;font-family:-apple-system,&quot;SF Pro Display&quot;,&quot;SF Pro Text&quot;,Helvetica,sans-serif;" transform="matrix(1 0 0 1 776 1971)">Leading and trailing margins on the left and right side of each symbol</text>
  <text style="stroke:none;fill:black;font-family:-apple-system,&quot;SF Pro Display&quot;,&quot;SF Pro Text&quot;,Helvetica,sans-serif;" transform="matrix(1 0 0 1 776 1989)">can be adjusted by modifying the x-location of the margin guidelines.</text>
  <text style="stroke:none;fill:black;font-family:-apple-system,&quot;SF Pro Display&quot;,&quot;SF Pro Text&quot;,Helvetica,sans-serif;" transform="matrix(1 0 0 1 776 2007)">Modifications are automatically applied proportionally to all</text>
  <text style="stroke:none;fill:black;font-family:-apple-system,&quot;SF Pro Display&quot;,&quot;SF Pro Text&quot;,Helvetica,sans-serif;" transform="matrix(1 0 0 1 776 2025)">scales and weights.</text>
  <g id="" transform="matrix(1 0 0 1 1289 1933)">
   <path d="M2.8418 1.86523L4.54102 3.57422C5.40039 4.44336 6.38672 4.38477 7.31445 3.35938L17.4902-7.85156C17.7539-7.76367 18.0273-7.7832 18.3398-7.8418L19.4043-8.03711L20.0684-7.36328L20.0293-6.80664C19.9902-6.30859 20.1172-5.92773 20.6055-5.44922L21.3672-4.70703C21.8457-4.22852 22.4609-4.19922 22.9297-4.66797L25.8398-7.58789C26.3086-8.05664 26.2891-8.65234 25.8105-9.13086L25.0391-9.89258C24.5605-10.3711 24.1895-10.5273 23.7109-10.4883L23.1348-10.4395L22.4902-11.0742L22.7344-12.1973C22.8613-12.7637 22.7051-13.2031 22.1191-13.7891L19.9219-15.9766C16.582-19.2969 12.1484-19.2188 9.25781-16.3281C8.83789-15.918 8.80859-15.3418 9.04297-14.9512C9.27734-14.5898 9.73633-14.3555 10.3809-14.5215C11.8457-14.8633 13.3691-14.9219 14.7949-13.9844L14.209-12.5293C14.0137-12.0508 13.9844-11.6504 14.1113-11.2891L3.04688-0.898438C2.06055 0.0195312 1.98242 0.996094 2.8418 1.86523ZM10.752-15.957C13.1836-17.7344 16.4746-17.4316 18.7012-15.2051L21.1328-12.793C21.3672-12.5586 21.4062-12.373 21.3379-12.0312L21.0156-10.5469L22.5195-9.0625L23.5059-9.12109C23.7598-9.13086 23.8379-9.11133 24.0332-8.91602L24.6094-8.33984L22.168-5.89844L21.5918-6.47461C21.3965-6.66992 21.3672-6.74805 21.377-7.01172L21.4453-7.98828L19.9512-9.47266L18.4277-9.21875C18.1055-9.15039 17.959-9.17969 17.7148-9.41406L15.7129-11.416C15.459-11.6504 15.4297-11.8164 15.5859-12.1875L16.4648-14.2773C14.9023-15.7324 12.8711-16.3574 10.8398-15.7617C10.6836-15.7227 10.625-15.8496 10.752-15.957ZM5.27344 2.30469L4.10156 1.14258C3.63281 0.683594 3.74023 0.341797 4.14062-0.0195312L14.9512-10.1953L16.416-8.71094L6.42578 2.27539C6.07422 2.67578 5.74219 2.77344 5.27344 2.30469Z"/>
  </g>
  <text style="stroke:none;fill:black;font-family:-apple-system,&quot;SF Pro Display&quot;,&quot;SF Pro Text&quot;,Helvetica,sans-serif;font-weight:bold;" transform="matrix(1 0 0 1 1289 1953)">Exporting</text>
  <text style="stroke:none;fill:black;font-family:-apple-system,&quot;SF Pro Display&quot;,&quot;SF Pro Text&quot;,Helvetica,sans-serif;" transform="matrix(1 0 0 1 1289 1971)">Symbols should be outlined when exporting to ensure the</text>
  <text style="stroke:none;fill:black;font-family:-apple-system,&quot;SF Pro Display&quot;,&quot;SF Pro Text&quot;,Helvetica,sans-serif;" transform="matrix(1 0 0 1 1289 1989)">design is preserved when submitting to Xcode.</text>
  <text id="template-version" style="stroke:none;fill:black;font-family:-apple-system,&quot;SF Pro Display&quot;,&quot;SF Pro Text&quot;,Helvetica,sans-serif;text-anchor:end;" transform="matrix(1 0 0 1 3036 1933)">Template v.2.0</text>
  <text style="stroke:none;fill:black;font-family:-apple-system,&quot;SF Pro Display&quot;,&quot;SF Pro Text&quot;,Helvetica,sans-serif;text-anchor:end;" transform="matrix(1 0 0 1 3036 1951)">Requires Xcode 12 or greater</text>
  <text style="stroke:none;fill:black;font-family:-apple-system,&quot;SF Pro Display&quot;,&quot;SF Pro Text&quot;,Helvetica,sans-serif;text-anchor:end;" transform="matrix(1 0 0 1 3036 1969)">Generated from pause.fill</text>
  <text style="stroke:none;fill:black;font-family:-apple-system,&quot;SF Pro Display&quot;,&quot;SF Pro Text&quot;,Helvetica,sans-serif;text-anchor:end;" transform="matrix(1 0 0 1 3036 1987)">Typeset at 100 points</text>
  <text style="stroke:none;fill:black;font-family:-apple-system,&quot;SF Pro Display&quot;,&quot;SF Pro Text&quot;,Helvetica,sans-serif;" transform="matrix(1 0 0 1 263 726)">Small</text>
  <text style="stroke:none;fill:black;font-family:-apple-system,&quot;SF Pro Display&quot;,&quot;SF Pro Text&quot;,Helvetica,sans-serif;" transform="matrix(1 0 0 1 263 1156)">Medium</text>
  <text style="stroke:none;fill:black;font-family:-apple-system,&quot;SF Pro Display&quot;,&quot;SF Pro Text&quot;,Helvetica,sans-serif;" transform="matrix(1 0 0 1 263 1586)">Large</text>
 </g>
 <g id="Guides">
  <g id="H-reference" style="fill:#27AAE1;stroke:none;" transform="matrix(1 0 0 1 339 696)">
   <path d="M0.976562 0L3.66211 0L12.9883-24.4629L45.752-24.4629L55.127 0L57.7637 0L30.6152-70.459L28.125-70.459ZM29.3457-67.1387L29.4434-67.1387L44.873-26.709L13.8672-26.709Z"/>
  </g>
  <line id="Baseline-S" style="fill:none;stroke:#27AAE1;opacity:1;stroke-width:0.5;" x1="263" x2="3036" y1="696" y2="696"/>
  <line id="Capline-S" style="fill:none;stroke:#27AAE1;opacity:1;stroke-width:0.5;" x1="263" x2="3036" y1="625.541" y2="625.541"/>
  <g id="H-reference" style="fill:#27AAE1;stroke:none;" transform="matrix(1 0 0 1 339 1126)">
   <path d="M0.976562 0L3.66211 0L12.9883-24.4629L45.752-24.4629L55.127 0L57.7637 0L30.6152-70.459L28.125-70.459ZM29.3457-67.1387L29.4434-67.1387L44.873-26.709L13.8672-26.709Z"/>
  </g>
  <line id="Baseline-M" style="fill:none;stroke:#27AAE1;opacity:1;stroke-width:0.5;" x1="263" x2="3036" y1="1126" y2="1126"/>
  <line id="Capline-M" style="fill:none;stroke:#27AAE1;opacity:1;stroke-width:0.5;" x1="263" x2="3036" y1="1055.54" y2="1055.54"/>
  <g id="H-reference" style="fill:#27AAE1;stroke:none;" transform="matrix(1 0 0 1 339 1556)">
   <path d="M0.976562 0L3.66211 0L12.9883-24.4629L45.752-24.4629L55.127 0L57.7637 0L30.6152-70.459L28.125-70.459ZM29.3457-67.1387L29.4434-67.1387L44.873-26.709L13.8672-26.709Z"/>
  </g>
  <line id="Baseline-L" style="fill:none;stroke:#27AAE1;opacity:1;stroke-width:0.5;" x1="263" x2="3036" y1="1556" y2="1556"/>
  <line id="Capline-L" style="fill:none;stroke:#27AAE1;opacity:1;stroke-width:0.5;" x1="263" x2="3036" y1="1485.54" y2="1485.54"/>
  <line id="left-margin" style="fill:none;stroke:#00AEEF;stroke-width:0.5;opacity:1.0;" x1="1407.61" x2="1407.61" y1="1030.79" y2="1150.12"/>
  <line id="right-margin" style="fill:none;stroke:#00AEEF;stroke-width:0.5;opacity:1.0;" x1="1492.08" x2="1492.08" y1="1030.79" y2="1150.12"/>
 </g>
 <g id="Symbols">
  <g id="Black-L" transform="matrix(1 0 0 1 2870.7 1556)">
   <path d="M27.3438 20.752L43.6035 20.752C51.0742 20.752 54.8828 16.9434 54.8828 9.47266L54.8828-79.9316C54.8828-87.2559 51.0742-90.9668 43.6035-91.2109L27.3438-91.2109C19.873-91.2109 16.0645-87.4023 16.0645-79.9316L16.0645 9.47266C15.918 16.9434 19.6777 20.752 27.3438 20.752ZM81.7871 20.752L98.0469 20.752C105.518 20.752 109.326 16.9434 109.326 9.47266L109.326-79.9316C109.326-87.2559 105.518-91.2109 98.0469-91.2109L81.7871-91.2109C74.3164-91.2109 70.5078-87.4023 70.5078-79.9316L70.5078 9.47266C70.5078 16.9434 74.1699 20.752 81.7871 20.752Z"/>
  </g>
  <g id="Heavy-L" transform="matrix(1 0 0 1 2576.24 1556)">
   <path d="M26.5137 19.4824L42.2852 19.4824C49.2188 19.4824 52.7344 15.9668 52.7344 9.0332L52.7344-79.4922C52.7344-86.3281 49.2188-89.7461 42.2852-89.9414L26.5137-89.9414C19.5801-89.9414 16.0645-86.4258 16.0645-79.4922L16.0645 9.0332C15.918 15.9668 19.4336 19.4824 26.5137 19.4824ZM78.6133 19.4824L94.3848 19.4824C101.318 19.4824 104.834 15.9668 104.834 9.0332L104.834-79.4922C104.834-86.3281 101.318-89.9414 94.3848-89.9414L78.6133-89.9414C71.6797-89.9414 68.1641-86.4258 68.1641-79.4922L68.1641 9.0332C68.1641 15.9668 71.5332 19.4824 78.6133 19.4824Z"/>
  </g>
  <g id="Bold-L" transform="matrix(1 0 0 1 2282.07 1556)">
   <path d="M25.5859 18.0176L40.7715 18.0176C47.1191 18.0176 50.293 14.8438 50.293 8.49609L50.293-78.9551C50.293-85.3516 47.1191-88.3789 40.7715-88.5254L25.5859-88.5254C19.2871-88.5254 16.0645-85.3027 16.0645-78.9551L16.0645 8.49609C15.9668 14.8438 19.1895 18.0176 25.5859 18.0176ZM75.0488 18.0176L90.2344 18.0176C96.582 18.0176 99.7559 14.8438 99.7559 8.49609L99.7559-78.9551C99.7559-85.3516 96.582-88.5254 90.2344-88.5254L75.0488-88.5254C68.75-88.5254 65.5273-85.3027 65.5273-78.9551L65.5273 8.49609C65.5273 14.8438 68.6523 18.0176 75.0488 18.0176Z"/>
  </g>
  <g id="Semibold-L" transform="matrix(1 0 0 1 1987.09 1556)">
   <path d="M24.9512 17.041L39.7461 17.041C45.6543 17.041 48.6328 14.0625 48.6328 8.1543L48.6328-78.6133C48.6328-84.6191 45.6543-87.4512 39.7461-87.5488L24.9512-87.5488C19.043-87.5488 16.0645-84.5703 16.0645-78.6133L16.0645 8.1543C16.0156 14.0625 18.9941 17.041 24.9512 17.041ZM72.6074 17.041L87.4023 17.041C93.3105 17.041 96.2891 14.0625 96.2891 8.1543L96.2891-78.6133C96.2891-84.6191 93.3105-87.5488 87.4023-87.5488L72.6074-87.5488C66.6992-87.5488 63.7207-84.5703 63.7207-78.6133L63.7207 8.1543C63.7207 14.0625 66.6504 17.041 72.6074 17.041Z"/>
  </g>
  <g id="Medium-L" transform="matrix(1 0 0 1 1691.7 1556)">
   <path d="M24.5117 16.3086L38.9648 16.3086C44.5801 16.3086 47.4121 13.4766 47.4121 7.86133L47.4121-78.3691C47.4121-84.1309 44.5801-86.7676 38.9648-86.7676L24.5117-86.7676C18.8965-86.7676 16.0645-83.9844 16.0645-78.3691L16.0645 7.86133C16.0156 13.4766 18.8477 16.3086 24.5117 16.3086ZM70.752 16.3086L85.2539 16.3086C90.8691 16.3086 93.6523 13.4766 93.6523 7.86133L93.6523-78.3691C93.6523-84.1309 90.8691-86.7676 85.2539-86.7676L70.752-86.7676C65.1367-86.7676 62.3535-83.9844 62.3535-78.3691L62.3535 7.86133C62.3535 13.4766 65.1367 16.3086 70.752 16.3086Z"/>
  </g>
  <g id="Regular-L" transform="matrix(1 0 0 1 1396.7 1556)">
   <path d="M23.877 15.332L37.9395 15.332C43.1641 15.332 45.752 12.7441 45.752 7.51953L45.752-78.0273C45.752-83.3984 43.1641-85.8398 37.9395-85.8398L23.877-85.8398C18.6523-85.8398 16.0645-83.2031 16.0645-78.0273L16.0645 7.51953C16.0645 12.7441 18.6523 15.332 23.877 15.332ZM68.3594 15.332L82.4219 15.332C87.6465 15.332 90.2344 12.7441 90.2344 7.51953L90.2344-78.0273C90.2344-83.3984 87.6465-85.8398 82.4219-85.8398L68.3594-85.8398C63.1348-85.8398 60.5469-83.2031 60.5469-78.0273L60.5469 7.51953C60.5469 12.7441 63.1348 15.332 68.3594 15.332Z"/>
  </g>
  <g id="Light-L" transform="matrix(1 0 0 1 1101.86 1556)">
   <path d="M23.0469 14.3066L36.8164 14.3066C41.5527 14.3066 43.7988 12.1094 43.7988 7.32422L43.7988-77.832C43.7988-82.7148 41.5527-84.8145 36.8164-84.8145L23.0469-84.8145C18.3105-84.8145 16.0645-82.6172 16.0645-77.832L16.0645 7.32422C16.0645 12.1094 18.3105 14.3066 23.0469 14.3066ZM65.7715 14.3066L79.4922 14.3066C84.2773 14.3066 86.4746 12.1094 86.4746 7.32422L86.4746-77.832C86.4746-82.7148 84.2773-84.8145 79.4922-84.8145L65.7715-84.8145C60.9863-84.8145 58.7402-82.6172 58.7402-77.832L58.7402 7.32422C58.7402 12.1094 60.9863 14.3066 65.7715 14.3066Z"/>
  </g>
  <g id="Thin-L" transform="matrix(1 0 0 1 807.619 1556)">
   <path d="M21.9727 12.9883L35.3027 12.9883C39.4531 12.9883 41.2109 11.2793 41.2109 7.08008L41.2109-77.6367C41.2109-81.8359 39.4531-83.5449 35.3027-83.5449L21.9727-83.5449C17.8223-83.5449 16.0645-81.7871 16.0645-77.6367L16.0645 7.08008C16.0645 11.2793 17.8223 12.9883 21.9727 12.9883ZM62.3047 12.9883L75.6348 12.9883C79.834 12.9883 81.543 11.2793 81.543 7.08008L81.543-77.6367C81.543-81.8359 79.834-83.5449 75.6348-83.5449L62.3047-83.5449C58.1543-83.5449 56.3965-81.7871 56.3965-77.6367L56.3965 7.08008C56.3965 11.2793 58.1543 12.9883 62.3047 12.9883Z"/>
  </g>
  <g id="Ultralight-L" transform="matrix(1 0 0 1 512.177 1556)">
   <path d="M21.4355 12.3535L34.5215 12.3535C38.3789 12.3535 39.8926 10.8398 39.8926 6.98242L39.8926-77.5391C39.8926-81.3477 38.3789-82.8613 34.5215-82.8613L21.4355-82.8613C17.5293-82.8613 16.0645-81.3965 16.0645-77.5391L16.0645 6.98242C16.0645 10.8398 17.5293 12.3535 21.4355 12.3535ZM60.5957 12.3535L73.6328 12.3535C77.5391 12.3535 79.0039 10.8398 79.0039 6.98242L79.0039-77.5391C79.0039-81.3477 77.5391-82.8613 73.6328-82.8613L60.5957-82.8613C56.6895-82.8613 55.2246-81.3965 55.2246-77.5391L55.2246 6.98242C55.2246 10.8398 56.6895 12.3535 60.5957 12.3535Z"/>
  </g>
  <g id="Black-M" transform="matrix(1 0 0 1 2882.77 1126)">
   <path d="M21.875 9.32617L35.0098 9.32617C41.2598 9.32617 44.3848 6.20117 44.3848-0.0488281L44.3848-70.4102C44.3848-76.416 41.2598-79.541 35.0098-79.7852L21.875-79.7852C15.5762-79.7852 12.4512-76.6602 12.4512-70.4102L12.4512-0.0488281C12.2559 6.20117 15.3809 9.32617 21.875 9.32617ZM66.3086 9.32617L79.4434 9.32617C85.6934 9.32617 88.8184 6.20117 88.8184-0.0488281L88.8184-70.4102C88.8184-76.416 85.6934-79.7852 79.4434-79.7852L66.3086-79.7852C60.0098-79.7852 56.8848-76.6602 56.8848-70.4102L56.8848-0.0488281C56.8848 6.20117 59.8145 9.32617 66.3086 9.32617Z"/>
  </g>
  <g id="Heavy-M" transform="matrix(1 0 0 1 2588.03 1126)">
   <path d="M21.1914 8.20312L33.8379 8.20312C39.6484 8.20312 42.5293 5.27344 42.5293-0.537109L42.5293-69.9219C42.5293-75.5859 39.6484-78.4668 33.8379-78.6621L21.1914-78.6621C15.3809-78.6621 12.4512-75.7324 12.4512-69.9219L12.4512-0.537109C12.3047 5.27344 15.2344 8.20312 21.1914 8.20312ZM63.4766 8.20312L76.1719 8.20312C81.9336 8.20312 84.8633 5.27344 84.8633-0.537109L84.8633-69.9219C84.8633-75.5859 81.9336-78.6621 76.1719-78.6621L63.4766-78.6621C57.7148-78.6621 54.7852-75.7324 54.7852-69.9219L54.7852-0.537109C54.7852 5.27344 57.5684 8.20312 63.4766 8.20312Z"/>
  </g>
  <g id="Bold-M" transform="matrix(1 0 0 1 2293.54 1126)">
   <path d="M20.4102 6.93359L32.5195 6.93359C37.793 6.93359 40.4785 4.24805 40.4785-1.02539L40.4785-69.4336C40.4785-74.707 37.793-77.2461 32.5195-77.3926L20.4102-77.3926C15.1367-77.3926 12.4512-74.707 12.4512-69.4336L12.4512-1.02539C12.3535 4.24805 15.0391 6.93359 20.4102 6.93359ZM60.3516 6.93359L72.4609 6.93359C77.7832 6.93359 80.4199 4.24805 80.4199-1.02539L80.4199-69.4336C80.4199-74.707 77.7832-77.3926 72.4609-77.3926L60.3516-77.3926C55.0781-77.3926 52.3926-74.707 52.3926-69.4336L52.3926-1.02539C52.3926 4.24805 54.9805 6.93359 60.3516 6.93359Z"/>
  </g>
  <g id="Semibold-M" transform="matrix(1 0 0 1 1998.34 1126)">
   <path d="M19.873 6.05469L31.6406 6.05469C36.5723 6.05469 39.0625 3.51562 39.0625-1.36719L39.0625-69.0918C39.0625-74.0723 36.5723-76.416 31.6406-76.5137L19.873-76.5137C14.9414-76.5137 12.4512-74.0234 12.4512-69.0918L12.4512-1.36719C12.4023 3.51562 14.8926 6.05469 19.873 6.05469ZM58.2031 6.05469L69.9707 6.05469C74.8535 6.05469 77.3926 3.51562 77.3926-1.36719L77.3926-69.0918C77.3926-74.0723 74.8535-76.5137 69.9707-76.5137L58.2031-76.5137C53.2715-76.5137 50.7812-74.0234 50.7812-69.0918L50.7812-1.36719C50.7812 3.51562 53.2227 6.05469 58.2031 6.05469Z"/>
  </g>
  <g id="Medium-M" transform="matrix(1 0 0 1 1702.81 1126)">
   <path d="M19.4824 5.37109L30.957 5.37109C35.5957 5.37109 37.9883 2.97852 37.9883-1.66016L37.9883-68.8477C37.9883-73.584 35.5957-75.8301 30.957-75.8789L19.4824-75.8789C14.8438-75.8789 12.4512-73.4863 12.4512-68.8477L12.4512-1.66016C12.4023 2.97852 14.7949 5.37109 19.4824 5.37109ZM56.5918 5.37109L68.0176 5.37109C72.6562 5.37109 75.0488 2.97852 75.0488-1.66016L75.0488-68.8477C75.0488-73.584 72.6562-75.8789 68.0176-75.8789L56.5918-75.8789C51.9043-75.8789 49.5605-73.4863 49.5605-68.8477L49.5605-1.66016C49.5605 2.97852 51.9043 5.37109 56.5918 5.37109Z"/>
  </g>
  <g id="Regular-M" transform="matrix(1 0 0 1 1407.61 1126)">
   <path d="M18.9453 4.54102L30.0781 4.54102C34.3262 4.54102 36.5723 2.29492 36.5723-2.00195L36.5723-68.5059C36.5723-72.9492 34.3262-75 30.0781-75L18.9453-75C14.6973-75 12.4512-72.7539 12.4512-68.5059L12.4512-2.00195C12.4512 2.29492 14.6973 4.54102 18.9453 4.54102ZM54.4434 4.54102L65.5273 4.54102C69.8242 4.54102 72.0215 2.29492 72.0215-2.00195L72.0215-68.5059C72.0215-72.9492 69.8242-75 65.5273-75L54.4434-75C50.1465-75 47.9004-72.7539 47.9004-68.5059L47.9004-2.00195C47.9004 2.29492 50.1465 4.54102 54.4434 4.54102Z"/>
  </g>
  <g id="Light-M" transform="matrix(1 0 0 1 1112.56 1126)">
   <path d="M18.2129 3.61328L29.0527 3.61328C32.9102 3.61328 34.8145 1.75781 34.8145-2.14844L34.8145-68.3105C34.8145-72.3633 32.9102-74.1211 29.0527-74.1211L18.2129-74.1211C14.3555-74.1211 12.4512-72.2168 12.4512-68.3105L12.4512-2.14844C12.4512 1.75781 14.3555 3.61328 18.2129 3.61328ZM52.0996 3.61328L62.9395 3.61328C66.7969 3.61328 68.7012 1.75781 68.7012-2.14844L68.7012-68.3105C68.7012-72.3633 66.7969-74.1211 62.9395-74.1211L52.0996-74.1211C48.2422-74.1211 46.3379-72.2168 46.3379-68.3105L46.3379-2.14844C46.3379 1.75781 48.2422 3.61328 52.0996 3.61328Z"/>
  </g>
  <g id="Thin-M" transform="matrix(1 0 0 1 818.068 1126)">
   <path d="M17.2852 2.44141L27.6855 2.44141C31.0547 2.44141 32.4707 0.976562 32.4707-2.39258L32.4707-68.1152C32.4707-71.5332 31.0547-72.9492 27.6855-72.9492L17.2852-72.9492C13.916-72.9492 12.4512-71.4844 12.4512-68.1152L12.4512-2.39258C12.4512 0.976562 13.916 2.44141 17.2852 2.44141ZM49.0234 2.44141L59.4727 2.44141C62.793 2.44141 64.2578 0.976562 64.2578-2.39258L64.2578-68.1152C64.2578-71.5332 62.793-72.9492 59.4727-72.9492L49.0234-72.9492C45.7031-72.9492 44.2383-71.4844 44.2383-68.1152L44.2383-2.39258C44.2383 0.976562 45.7031 2.44141 49.0234 2.44141Z"/>
  </g>
  <g id="Ultralight-M" transform="matrix(1 0 0 1 522.48 1126)">
   <path d="M16.7969 1.85547L27.002 1.85547C30.0781 1.85547 31.2988 0.585938 31.2988-2.49023L31.2988-68.0176C31.2988-71.1426 30.0781-72.3633 27.002-72.3633L16.7969-72.3633C13.6719-72.3633 12.4512-71.1426 12.4512-68.0176L12.4512-2.49023C12.4512 0.585938 13.6719 1.85547 16.7969 1.85547ZM47.4609 1.85547L57.666 1.85547C60.791 1.85547 62.0117 0.585938 62.0117-2.49023L62.0117-68.0176C62.0117-71.1426 60.791-72.3633 57.666-72.3633L47.4609-72.3633C44.3848-72.3633 43.1641-71.1426 43.1641-68.0176L43.1641-2.49023C43.1641 0.585938 44.3848 1.85547 47.4609 1.85547Z"/>
  </g>
  <g id="Black-S" transform="matrix(1 0 0 1 2893.85 696)">
   <path d="M17.0898-0.390625L27.3438-0.390625C32.2266-0.390625 34.668-2.83203 34.668-7.71484L34.668-62.7441C34.668-67.4316 32.2266-69.873 27.3438-70.0684L17.0898-70.0684C12.207-70.0684 9.76562-67.627 9.76562-62.7441L9.76562-7.71484C9.61914-2.83203 12.0605-0.390625 17.0898-0.390625ZM51.7578-0.390625L62.0117-0.390625C66.8945-0.390625 69.3359-2.83203 69.3359-7.71484L69.3359-62.7441C69.3359-67.4316 66.8945-70.0684 62.0117-70.0684L51.7578-70.0684C46.875-70.0684 44.4336-67.627 44.4336-62.7441L44.4336-7.71484C44.4336-2.83203 46.7285-0.390625 51.7578-0.390625Z"/>
  </g>
  <g id="Heavy-S" transform="matrix(1 0 0 1 2598.46 696)">
   <path d="M16.6504-1.17188L26.5625-1.17188C31.1523-1.17188 33.4473-3.4668 33.4473-8.05664L33.4473-62.4023C33.4473-66.8945 31.1523-69.1406 26.5625-69.2871L16.6504-69.2871C12.0605-69.2871 9.76562-66.9922 9.76562-62.4023L9.76562-8.05664C9.66797-3.4668 11.9629-1.17188 16.6504-1.17188ZM49.9023-1.17188L59.8145-1.17188C64.3555-1.17188 66.6992-3.4668 66.6992-8.05664L66.6992-62.4023C66.6992-66.8945 64.3555-69.2871 59.8145-69.2871L49.9023-69.2871C45.3125-69.2871 43.0176-66.9922 43.0176-62.4023L43.0176-8.05664C43.0176-3.4668 45.2148-1.17188 49.9023-1.17188Z"/>
  </g>
  <g id="Bold-S" transform="matrix(1 0 0 1 2303.23 696)">
   <path d="M16.1621-2.00195L25.6836-2.00195C29.9316-2.00195 32.0801-4.19922 32.0801-8.39844L32.0801-62.0605C32.0801-66.2598 29.9316-68.3594 25.6836-68.457L16.1621-68.457C11.9629-68.457 9.76562-66.2598 9.76562-62.0605L9.76562-8.39844C9.7168-4.19922 11.8652-2.00195 16.1621-2.00195ZM47.7539-2.00195L57.3242-2.00195C61.5234-2.00195 63.7207-4.19922 63.7207-8.39844L63.7207-62.0605C63.7207-66.2598 61.5234-68.457 57.3242-68.457L47.7539-68.457C43.5547-68.457 41.4062-66.2598 41.4062-62.0605L41.4062-8.39844C41.4062-4.19922 43.5059-2.00195 47.7539-2.00195Z"/>
  </g>
  <g id="Semibold-S" transform="matrix(1 0 0 1 2007.55 696)">
   <path d="M15.8203-2.63672L25.0977-2.63672C29.1016-2.63672 31.1523-4.6875 31.1523-8.64258L31.1523-61.8164C31.1523-65.8203 29.1016-67.7734 25.0977-67.8223L15.8203-67.8223C11.8652-67.8223 9.76562-65.7715 9.76562-61.8164L9.76562-8.64258C9.7168-4.6875 11.8164-2.63672 15.8203-2.63672ZM46.3379-2.63672L55.6152-2.63672C59.5703-2.63672 61.6699-4.6875 61.6699-8.64258L61.6699-61.8164C61.6699-65.8203 59.5703-67.8223 55.6152-67.8223L46.3379-67.8223C42.334-67.8223 40.2832-65.7715 40.2832-61.8164L40.2832-8.64258C40.2832-4.6875 42.2852-2.63672 46.3379-2.63672Z"/>
  </g>
  <g id="Medium-S" transform="matrix(1 0 0 1 1711.62 696)">
   <path d="M15.5762-3.07617L24.6582-3.07617C28.4668-3.07617 30.4199-5.07812 30.4199-8.83789L30.4199-61.6211C30.4199-65.5273 28.4668-67.3828 24.6582-67.3828L15.5762-67.3828C11.7676-67.3828 9.76562-65.3809 9.76562-61.6211L9.76562-8.83789C9.7168-5.07812 11.7188-3.07617 15.5762-3.07617ZM45.2148-3.07617L54.2969-3.07617C58.1055-3.07617 60.1074-5.07812 60.1074-8.83789L60.1074-61.6211C60.1074-65.5273 58.1055-67.3828 54.2969-67.3828L45.2148-67.3828C41.4062-67.3828 39.4043-65.3809 39.4043-61.6211L39.4043-8.83789C39.4043-5.07812 41.4062-3.07617 45.2148-3.07617Z"/>
  </g>
  <g id="Regular-S" transform="matrix(1 0 0 1 1415.93 696)">
   <path d="M15.2344-3.66211L24.0723-3.66211C27.5879-3.66211 29.4922-5.56641 29.4922-9.13086L29.4922-61.377C29.4922-65.0879 27.5879-66.7969 24.0723-66.7969L15.2344-66.7969C11.6699-66.7969 9.76562-64.8926 9.76562-61.377L9.76562-9.13086C9.76562-5.56641 11.6699-3.66211 15.2344-3.66211ZM43.7988-3.66211L52.6367-3.66211C56.1523-3.66211 58.0566-5.56641 58.0566-9.13086L58.0566-61.377C58.0566-65.0879 56.1523-66.7969 52.6367-66.7969L43.7988-66.7969C40.2344-66.7969 38.3301-64.8926 38.3301-61.377L38.3301-9.13086C38.3301-5.56641 40.2344-3.66211 43.7988-3.66211Z"/>
  </g>
  <g id="Light-S" transform="matrix(1 0 0 1 1120.69 696)">
   <path d="M14.5508-4.44336L23.1445-4.44336C26.3672-4.44336 27.9785-6.05469 27.9785-9.27734L27.9785-61.2305C27.9785-64.5508 26.3672-66.0156 23.1445-66.0156L14.5508-66.0156C11.377-66.0156 9.76562-64.4043 9.76562-61.2305L9.76562-9.27734C9.76562-6.05469 11.377-4.44336 14.5508-4.44336ZM41.748-4.44336L50.293-4.44336C53.5156-4.44336 55.127-6.05469 55.127-9.27734L55.127-61.2305C55.127-64.5508 53.5156-66.0156 50.293-66.0156L41.748-66.0156C38.5254-66.0156 36.9141-64.4043 36.9141-61.2305L36.9141-9.27734C36.9141-6.05469 38.5254-4.44336 41.748-4.44336Z"/>
  </g>
  <g id="Thin-S" transform="matrix(1 0 0 1 825.929 696)">
   <path d="M13.7207-5.46875L21.9727-5.46875C24.707-5.46875 25.9277-6.68945 25.9277-9.42383L25.9277-61.0352C25.9277-63.8184 24.707-64.9902 21.9727-64.9902L13.7207-64.9902C10.9863-64.9902 9.76562-63.7695 9.76562-61.0352L9.76562-9.42383C9.76562-6.68945 10.9863-5.46875 13.7207-5.46875ZM39.0137-5.46875L47.2656-5.46875C50-5.46875 51.2207-6.68945 51.2207-9.42383L51.2207-61.0352C51.2207-63.8184 50-64.9902 47.2656-64.9902L39.0137-64.9902C36.2793-64.9902 35.0586-63.7695 35.0586-61.0352L35.0586-9.42383C35.0586-6.68945 36.2793-5.46875 39.0137-5.46875Z"/>
  </g>
  <g id="Ultralight-S" transform="matrix(1 0 0 1 530.243 696)">
   <path d="M13.2812-6.00586L21.3379-6.00586C23.8281-6.00586 24.8535-7.03125 24.8535-9.57031L24.8535-60.9375C24.8535-63.4766 23.8281-64.4531 21.3379-64.4531L13.2812-64.4531C10.791-64.4531 9.76562-63.4766 9.76562-60.9375L9.76562-9.57031C9.76562-7.03125 10.791-6.00586 13.2812-6.00586ZM37.6465-6.00586L45.6543-6.00586C48.1934-6.00586 49.1699-7.03125 49.1699-9.57031L49.1699-60.9375C49.1699-63.4766 48.1934-64.4531 45.6543-64.4531L37.6465-64.4531C35.1074-64.4531 34.082-63.4766 34.082-60.9375L34.082-9.57031C34.082-7.03125 35.1074-6.00586 37.6465-6.00586Z"/>
  </g>
 </g>
</svg>
