<?xml version="1.0" encoding="UTF-8"?>
<!--Generator: Apple Native CoreSVG 123-->
<!DOCTYPE svg
PUBLIC "-//W3C//DTD SVG 1.1//EN"
       "http://www.w3.org/Graphics/SVG/1.1/DTD/svg11.dtd">
<svg version="1.1" xmlns="http://www.w3.org/2000/svg" xmlns:xlink="http://www.w3.org/1999/xlink" width="3300" height="2200">
 <!--glyph: "uni1003A4.medium", point size: 100.000000, font version: "Version 15.0d7e11", template writer version: "5"-->
 <g id="Notes">
  <rect height="2200" id="artboard" style="fill:white;opacity:1" width="3300" x="0" y="0"/>
  <line id="" style="fill:none;stroke:black;opacity:1;stroke-width:0.5;" x1="263" x2="3036" y1="292" y2="292"/>
  <text style="stroke:none;fill:black;font-family:-apple-system,&quot;SF Pro Display&quot;,&quot;SF Pro Text&quot;,Helvetica,sans-serif;font-weight:bold;" transform="matrix(1 0 0 1 263 322)">Weight/Scale Variations</text>
  <text style="stroke:none;fill:black;font-family:-apple-system,&quot;SF Pro Display&quot;,&quot;SF Pro Text&quot;,Helvetica,sans-serif;text-anchor:middle;" transform="matrix(1 0 0 1 559.711 322)">Ultralight</text>
  <text style="stroke:none;fill:black;font-family:-apple-system,&quot;SF Pro Display&quot;,&quot;SF Pro Text&quot;,Helvetica,sans-serif;text-anchor:middle;" transform="matrix(1 0 0 1 856.422 322)">Thin</text>
  <text style="stroke:none;fill:black;font-family:-apple-system,&quot;SF Pro Display&quot;,&quot;SF Pro Text&quot;,Helvetica,sans-serif;text-anchor:middle;" transform="matrix(1 0 0 1 1153.13 322)">Light</text>
  <text style="stroke:none;fill:black;font-family:-apple-system,&quot;SF Pro Display&quot;,&quot;SF Pro Text&quot;,Helvetica,sans-serif;text-anchor:middle;" transform="matrix(1 0 0 1 1449.84 322)">Regular</text>
  <text style="stroke:none;fill:black;font-family:-apple-system,&quot;SF Pro Display&quot;,&quot;SF Pro Text&quot;,Helvetica,sans-serif;text-anchor:middle;" transform="matrix(1 0 0 1 1746.56 322)">Medium</text>
  <text style="stroke:none;fill:black;font-family:-apple-system,&quot;SF Pro Display&quot;,&quot;SF Pro Text&quot;,Helvetica,sans-serif;text-anchor:middle;" transform="matrix(1 0 0 1 2043.27 322)">Semibold</text>
  <text style="stroke:none;fill:black;font-family:-apple-system,&quot;SF Pro Display&quot;,&quot;SF Pro Text&quot;,Helvetica,sans-serif;text-anchor:middle;" transform="matrix(1 0 0 1 2339.98 322)">Bold</text>
  <text style="stroke:none;fill:black;font-family:-apple-system,&quot;SF Pro Display&quot;,&quot;SF Pro Text&quot;,Helvetica,sans-serif;text-anchor:middle;" transform="matrix(1 0 0 1 2636.69 322)">Heavy</text>
  <text style="stroke:none;fill:black;font-family:-apple-system,&quot;SF Pro Display&quot;,&quot;SF Pro Text&quot;,Helvetica,sans-serif;text-anchor:middle;" transform="matrix(1 0 0 1 2933.4 322)">Black</text>
  <line id="" style="fill:none;stroke:black;opacity:1;stroke-width:0.5;" x1="263" x2="3036" y1="1903" y2="1903"/>
  <g id="" transform="matrix(1 0 0 1 263 1933)">
   <path d="M 9.24805 0.830078 C 13.5547 0.830078 17.1387 -2.74414 17.1387 -7.05078 C 17.1387 -11.3574 13.5449 -14.9316 9.23828 -14.9316 C 4.94141 -14.9316 1.36719 -11.3574 1.36719 -7.05078 C 1.36719 -2.74414 4.95117 0.830078 9.24805 0.830078 Z M 9.24805 -0.654297 C 5.70312 -0.654297 2.87109 -3.49609 2.87109 -7.05078 C 2.87109 -10.6055 5.69336 -13.4473 9.23828 -13.4473 C 12.793 -13.4473 15.6348 -10.6055 15.6445 -7.05078 C 15.6543 -3.49609 12.8027 -0.654297 9.24805 -0.654297 Z M 9.22852 -3.42773 C 9.69727 -3.42773 9.9707 -3.74023 9.9707 -4.25781 L 9.9707 -6.31836 L 12.1973 -6.31836 C 12.6953 -6.31836 13.0371 -6.57227 13.0371 -7.04102 C 13.0371 -7.51953 12.7148 -7.7832 12.1973 -7.7832 L 9.9707 -7.7832 L 9.9707 -10.0098 C 9.9707 -10.5273 9.69727 -10.8496 9.22852 -10.8496 C 8.75977 -10.8496 8.50586 -10.5078 8.50586 -10.0098 L 8.50586 -7.7832 L 6.29883 -7.7832 C 5.78125 -7.7832 5.44922 -7.51953 5.44922 -7.04102 C 5.44922 -6.57227 5.80078 -6.31836 6.29883 -6.31836 L 8.50586 -6.31836 L 8.50586 -4.25781 C 8.50586 -3.75977 8.75977 -3.42773 9.22852 -3.42773 Z"/>
  </g>
  <g id="" transform="matrix(1 0 0 1 281.506 1933)">
   <path d="M 11.709 2.91016 C 17.1582 2.91016 21.6699 -1.60156 21.6699 -7.05078 C 21.6699 -12.4902 17.1484 -17.0117 11.6992 -17.0117 C 6.25977 -17.0117 1.74805 -12.4902 1.74805 -7.05078 C 1.74805 -1.60156 6.26953 2.91016 11.709 2.91016 Z M 11.709 1.25 C 7.09961 1.25 3.41797 -2.44141 3.41797 -7.05078 C 3.41797 -11.6504 7.08984 -15.3516 11.6992 -15.3516 C 16.3086 -15.3516 20 -11.6504 20.0098 -7.05078 C 20.0195 -2.44141 16.3184 1.25 11.709 1.25 Z M 11.6895 -2.41211 C 12.207 -2.41211 12.5195 -2.77344 12.5195 -3.33984 L 12.5195 -6.23047 L 15.5762 -6.23047 C 16.123 -6.23047 16.5039 -6.51367 16.5039 -7.03125 C 16.5039 -7.55859 16.1426 -7.86133 15.5762 -7.86133 L 12.5195 -7.86133 L 12.5195 -10.9277 C 12.5195 -11.5039 12.207 -11.8555 11.6895 -11.8555 C 11.1719 -11.8555 10.8789 -11.4844 10.8789 -10.9277 L 10.8789 -7.86133 L 7.83203 -7.86133 C 7.26562 -7.86133 6.89453 -7.55859 6.89453 -7.03125 C 6.89453 -6.51367 7.28516 -6.23047 7.83203 -6.23047 L 10.8789 -6.23047 L 10.8789 -3.33984 C 10.8789 -2.79297 11.1719 -2.41211 11.6895 -2.41211 Z"/>
  </g>
  <g id="" transform="matrix(1 0 0 1 304.924 1933)">
   <path d="M 14.9707 5.67383 C 21.9336 5.67383 27.6953 -0.078125 27.6953 -7.04102 C 27.6953 -14.0039 21.9238 -19.7559 14.9609 -19.7559 C 8.00781 -19.7559 2.25586 -14.0039 2.25586 -7.04102 C 2.25586 -0.078125 8.01758 5.67383 14.9707 5.67383 Z M 14.9707 3.85742 C 8.93555 3.85742 4.08203 -1.00586 4.08203 -7.04102 C 4.08203 -13.0762 8.92578 -17.9395 14.9609 -17.9395 C 21.0059 -17.9395 25.8594 -13.0762 25.8691 -7.04102 C 25.8789 -1.00586 21.0156 3.85742 14.9707 3.85742 Z M 14.9512 -1.06445 C 15.5176 -1.06445 15.8691 -1.45508 15.8691 -2.06055 L 15.8691 -6.13281 L 20.1074 -6.13281 C 20.6934 -6.13281 21.1133 -6.46484 21.1133 -7.02148 C 21.1133 -7.59766 20.7227 -7.93945 20.1074 -7.93945 L 15.8691 -7.93945 L 15.8691 -12.1875 C 15.8691 -12.8027 15.5176 -13.1934 14.9512 -13.1934 C 14.3848 -13.1934 14.0625 -12.7832 14.0625 -12.1875 L 14.0625 -7.93945 L 9.83398 -7.93945 C 9.21875 -7.93945 8.80859 -7.59766 8.80859 -7.02148 C 8.80859 -6.46484 9.23828 -6.13281 9.83398 -6.13281 L 14.0625 -6.13281 L 14.0625 -2.06055 C 14.0625 -1.47461 14.3848 -1.06445 14.9512 -1.06445 Z"/>
  </g>
  <text style="stroke:none;fill:black;font-family:-apple-system,&quot;SF Pro Display&quot;,&quot;SF Pro Text&quot;,Helvetica,sans-serif;font-weight:bold;" transform="matrix(1 0 0 1 263 1953)">Design Variations</text>
  <text style="stroke:none;fill:black;font-family:-apple-system,&quot;SF Pro Display&quot;,&quot;SF Pro Text&quot;,Helvetica,sans-serif;" transform="matrix(1 0 0 1 263 1971)">Symbols are supported in up to nine weights and three scales.</text>
  <text style="stroke:none;fill:black;font-family:-apple-system,&quot;SF Pro Display&quot;,&quot;SF Pro Text&quot;,Helvetica,sans-serif;" transform="matrix(1 0 0 1 263 1989)">For optimal layout with text and other symbols, vertically align</text>
  <text style="stroke:none;fill:black;font-family:-apple-system,&quot;SF Pro Display&quot;,&quot;SF Pro Text&quot;,Helvetica,sans-serif;" transform="matrix(1 0 0 1 263 2007)">symbols with the adjacent text.</text>
  <rect height="14" id="" style="fill:#00AEEF;stroke:none;opacity:0.4;" width="3" x="776" y="1919"/>
  <g id="" transform="matrix(1 0 0 1 779 1933)">
   <path d="M 10.5273 0 L 12.373 0 L 7.17773 -14.0918 L 5.43945 -14.0918 L 0.244141 0 L 2.08984 0 L 3.50586 -4.0332 L 9.11133 -4.0332 Z M 6.2793 -11.9531 L 6.33789 -11.9531 L 8.59375 -5.52734 L 4.02344 -5.52734 Z"/>
  </g>
  <rect height="14" id="" style="fill:#00AEEF;stroke:none;opacity:0.4;" width="3" x="791.617" y="1919"/>
  <text style="stroke:none;fill:black;font-family:-apple-system,&quot;SF Pro Display&quot;,&quot;SF Pro Text&quot;,Helvetica,sans-serif;font-weight:bold;" transform="matrix(1 0 0 1 776 1953)">Margins</text>
  <text style="stroke:none;fill:black;font-family:-apple-system,&quot;SF Pro Display&quot;,&quot;SF Pro Text&quot;,Helvetica,sans-serif;" transform="matrix(1 0 0 1 776 1971)">Leading and trailing margins on the left and right side of each symbol</text>
  <text style="stroke:none;fill:black;font-family:-apple-system,&quot;SF Pro Display&quot;,&quot;SF Pro Text&quot;,Helvetica,sans-serif;" transform="matrix(1 0 0 1 776 1989)">can be adjusted by modifying the width of the blue rectangles.</text>
  <text style="stroke:none;fill:black;font-family:-apple-system,&quot;SF Pro Display&quot;,&quot;SF Pro Text&quot;,Helvetica,sans-serif;" transform="matrix(1 0 0 1 776 2007)">Modifications are automatically applied proportionally to all</text>
  <text style="stroke:none;fill:black;font-family:-apple-system,&quot;SF Pro Display&quot;,&quot;SF Pro Text&quot;,Helvetica,sans-serif;" transform="matrix(1 0 0 1 776 2025)">scales and weights.</text>
  <g id="" transform="matrix(1 0 0 1 1289 1933)">
   <path d="M 2.83203 3.11523 L 4.375 4.6582 C 5.22461 5.48828 6.19141 5.41992 7.06055 4.46289 L 17.2754 -6.66016 C 17.7051 -6.36719 18.0957 -6.37695 18.5645 -6.47461 L 19.6094 -6.68945 L 20.3027 -5.99609 L 20.2539 -5.47852 C 20.1855 -4.95117 20.3516 -4.53125 20.8496 -4.0332 L 21.6602 -3.22266 C 22.168 -2.71484 22.8223 -2.68555 23.3008 -3.16406 L 26.5527 -6.41602 C 27.0312 -6.89453 27.0117 -7.54883 26.5039 -8.05664 L 25.6836 -8.87695 C 25.1855 -9.375 24.7754 -9.55078 24.2383 -9.47266 L 23.7109 -9.41406 L 23.0566 -10.0781 L 23.3398 -11.2207 C 23.4863 -11.7871 23.3398 -12.2559 22.7148 -12.8613 L 20.3027 -15.2539 C 16.7578 -18.7793 12.2266 -18.6719 9.11133 -15.5371 C 8.69141 -15.1074 8.64258 -14.5215 8.91602 -14.0918 C 9.15039 -13.7207 9.62891 -13.4961 10.2734 -13.6621 C 11.7871 -14.043 13.3008 -13.9258 14.7852 -12.9199 L 14.1602 -11.3379 C 13.9258 -10.752 13.9453 -10.2734 14.1797 -9.83398 L 3.01758 0.439453 C 2.08008 1.30859 1.97266 2.25586 2.83203 3.11523 Z M 10.6738 -15.1465 C 13.3398 -17.1387 16.6504 -16.8262 19.0527 -14.4141 L 21.6797 -11.8066 C 21.9141 -11.5723 21.9434 -11.3867 21.8848 -11.0938 L 21.5039 -9.53125 L 23.0762 -7.95898 L 24.043 -8.04688 C 24.3262 -8.07617 24.4141 -8.05664 24.6387 -7.83203 L 25.2637 -7.20703 L 22.5098 -4.46289 L 21.8848 -5.07812 C 21.6602 -5.30273 21.6406 -5.40039 21.6699 -5.68359 L 21.7578 -6.64062 L 20.1953 -8.20312 L 18.5742 -7.89062 C 18.291 -7.83203 18.1445 -7.83203 17.9102 -8.07617 L 15.7324 -10.2539 C 15.5078 -10.4883 15.4785 -10.625 15.6055 -10.9473 L 16.5527 -13.2227 C 14.9512 -14.7559 12.8418 -15.6055 10.8008 -14.9512 C 10.7129 -14.9219 10.6445 -14.9414 10.6152 -14.9805 C 10.5859 -15.0293 10.5859 -15.0781 10.6738 -15.1465 Z M 4.10156 2.41211 C 3.61328 1.91406 3.78906 1.61133 4.12109 1.30859 L 15.0781 -8.80859 L 16.3086 -7.57812 L 6.15234 3.34961 C 5.84961 3.68164 5.46875 3.7793 5.06836 3.37891 Z"/>
  </g>
  <text style="stroke:none;fill:black;font-family:-apple-system,&quot;SF Pro Display&quot;,&quot;SF Pro Text&quot;,Helvetica,sans-serif;font-weight:bold;" transform="matrix(1 0 0 1 1289 1953)">Exporting</text>
  <text style="stroke:none;fill:black;font-family:-apple-system,&quot;SF Pro Display&quot;,&quot;SF Pro Text&quot;,Helvetica,sans-serif;" transform="matrix(1 0 0 1 1289 1971)">Symbols should be outlined when exporting to ensure the</text>
  <text style="stroke:none;fill:black;font-family:-apple-system,&quot;SF Pro Display&quot;,&quot;SF Pro Text&quot;,Helvetica,sans-serif;" transform="matrix(1 0 0 1 1289 1989)">design is preserved when submitting to Xcode.</text>
  <text id="template-version" style="stroke:none;fill:black;font-family:-apple-system,&quot;SF Pro Display&quot;,&quot;SF Pro Text&quot;,Helvetica,sans-serif;text-anchor:end;" transform="matrix(1 0 0 1 3036 1933)">Template v.1.0</text>
  <text style="stroke:none;fill:black;font-family:-apple-system,&quot;SF Pro Display&quot;,&quot;SF Pro Text&quot;,Helvetica,sans-serif;text-anchor:end;" transform="matrix(1 0 0 1 3036 1951)">Generated from lock.open</text>
  <text style="stroke:none;fill:black;font-family:-apple-system,&quot;SF Pro Display&quot;,&quot;SF Pro Text&quot;,Helvetica,sans-serif;text-anchor:end;" transform="matrix(1 0 0 1 3036 1969)">Typeset at 100 points</text>
  <text style="stroke:none;fill:black;font-family:-apple-system,&quot;SF Pro Display&quot;,&quot;SF Pro Text&quot;,Helvetica,sans-serif;" transform="matrix(1 0 0 1 263 726)">Small</text>
  <text style="stroke:none;fill:black;font-family:-apple-system,&quot;SF Pro Display&quot;,&quot;SF Pro Text&quot;,Helvetica,sans-serif;" transform="matrix(1 0 0 1 263 1156)">Medium</text>
  <text style="stroke:none;fill:black;font-family:-apple-system,&quot;SF Pro Display&quot;,&quot;SF Pro Text&quot;,Helvetica,sans-serif;" transform="matrix(1 0 0 1 263 1586)">Large</text>
 </g>
 <g id="Guides">
  <g id="H-reference" style="fill:#27AAE1;stroke:none;" transform="matrix(1 0 0 1 339 696)">
   <path d="M 54.9316 0 L 57.666 0 L 30.5664 -70.459 L 28.0762 -70.459 L 0.976562 0 L 3.66211 0 L 12.9395 -24.4629 L 45.7031 -24.4629 Z M 29.1992 -67.0898 L 29.4434 -67.0898 L 44.8242 -26.709 L 13.8184 -26.709 Z"/>
  </g>
  <line id="Baseline-S" style="fill:none;stroke:#27AAE1;opacity:1;stroke-width:0.577;" x1="263" x2="3036" y1="696" y2="696"/>
  <line id="Capline-S" style="fill:none;stroke:#27AAE1;opacity:1;stroke-width:0.577;" x1="263" x2="3036" y1="625.541" y2="625.541"/>
  <g id="H-reference" style="fill:#27AAE1;stroke:none;" transform="matrix(1 0 0 1 339 1126)">
   <path d="M 54.9316 0 L 57.666 0 L 30.5664 -70.459 L 28.0762 -70.459 L 0.976562 0 L 3.66211 0 L 12.9395 -24.4629 L 45.7031 -24.4629 Z M 29.1992 -67.0898 L 29.4434 -67.0898 L 44.8242 -26.709 L 13.8184 -26.709 Z"/>
  </g>
  <line id="Baseline-M" style="fill:none;stroke:#27AAE1;opacity:1;stroke-width:0.577;" x1="263" x2="3036" y1="1126" y2="1126"/>
  <line id="Capline-M" style="fill:none;stroke:#27AAE1;opacity:1;stroke-width:0.577;" x1="263" x2="3036" y1="1055.54" y2="1055.54"/>
  <g id="H-reference" style="fill:#27AAE1;stroke:none;" transform="matrix(1 0 0 1 339 1556)">
   <path d="M 54.9316 0 L 57.666 0 L 30.5664 -70.459 L 28.0762 -70.459 L 0.976562 0 L 3.66211 0 L 12.9395 -24.4629 L 45.7031 -24.4629 Z M 29.1992 -67.0898 L 29.4434 -67.0898 L 44.8242 -26.709 L 13.8184 -26.709 Z"/>
  </g>
  <line id="Baseline-L" style="fill:none;stroke:#27AAE1;opacity:1;stroke-width:0.577;" x1="263" x2="3036" y1="1556" y2="1556"/>
  <line id="Capline-L" style="fill:none;stroke:#27AAE1;opacity:1;stroke-width:0.577;" x1="263" x2="3036" y1="1485.54" y2="1485.54"/>
  <rect height="119.336" id="left-margin" style="fill:#00AEEF;stroke:none;opacity:0.4;" width="12.4512" x="1388.37" y="1030.79"/>
  <rect height="119.336" id="right-margin" style="fill:#00AEEF;stroke:none;opacity:0.4;" width="9.96094" x="1501.36" y="1030.79"/>
 </g>
 <g id="Symbols">
  <g id="Black-L" transform="matrix(1 0 0 1 2852.13 1556)">
   <path d="M 32.1777 29.8828 L 95.6055 29.8828 C 106.348 29.8828 111.67 24.4629 111.67 12.7441 L 111.67 -35.791 C 111.67 -46.2402 107.373 -51.6602 98.6328 -52.5879 L 98.6328 -66.6016 C 98.6328 -77.832 105.615 -84.5215 114.941 -84.5215 C 124.219 -84.5215 131.201 -77.832 131.201 -66.6016 L 131.201 -55.3711 C 131.201 -48.6328 135.156 -44.873 140.479 -44.873 C 145.752 -44.873 149.707 -48.584 149.707 -55.3711 L 149.707 -65.7715 C 149.707 -90.625 132.275 -102.441 114.941 -102.441 C 97.6074 -102.441 80.1758 -90.625 80.1758 -65.7715 L 80.1758 -52.7832 L 32.1777 -52.7832 C 21.3867 -52.7832 16.0645 -47.3633 16.0645 -35.791 L 16.0645 12.7441 C 16.0645 24.4629 21.3867 29.8828 32.1777 29.8828 Z M 39.0137 12.207 C 36.8652 12.207 35.7422 11.084 35.7422 8.59375 L 35.7422 -31.543 C 35.7422 -34.0332 36.8652 -35.1074 39.0137 -35.1074 L 88.8184 -35.1074 C 90.9668 -35.1074 92.041 -34.0332 92.041 -31.543 L 92.041 8.59375 C 92.041 11.084 90.9668 12.207 88.8184 12.207 Z"/>
  </g>
  <g id="Heavy-L" transform="matrix(1 0 0 1 2555.76 1556)">
   <path d="M 31.5918 28.7109 L 93.8477 28.7109 C 104.199 28.7109 109.326 23.5352 109.326 12.207 L 109.326 -35.3516 C 109.326 -45.3125 105.273 -50.5371 97.0703 -51.5137 L 97.0703 -66.0156 C 97.0703 -78.418 104.785 -85.6934 114.941 -85.6934 C 125.049 -85.6934 132.812 -78.418 132.812 -66.0156 L 132.812 -54.1504 C 132.812 -48.2422 136.279 -44.9707 140.918 -44.9707 C 145.508 -44.9707 148.975 -48.1445 148.975 -54.1504 L 148.975 -65.1367 C 148.975 -89.502 132.178 -101.318 114.941 -101.318 C 97.7051 -101.318 80.8594 -89.502 80.8594 -65.1367 L 80.8594 -51.709 L 31.5918 -51.709 C 21.1914 -51.709 16.0645 -46.5332 16.0645 -35.3516 L 16.0645 12.207 C 16.0645 23.5352 21.1914 28.7109 31.5918 28.7109 Z M 36.8652 13.2812 C 34.4238 13.2812 33.1543 12.0605 33.1543 9.17969 L 33.1543 -32.2266 C 33.1543 -35.1562 34.4238 -36.2793 36.8652 -36.2793 L 88.623 -36.2793 C 91.0645 -36.2793 92.2852 -35.1562 92.2852 -32.2266 L 92.2852 9.17969 C 92.2852 12.0605 91.0645 13.2812 88.623 13.2812 Z"/>
  </g>
  <g id="Bold-L" transform="matrix(1 0 0 1 2259.46 1556)">
   <path d="M 30.957 27.3926 L 91.8457 27.3926 C 101.807 27.3926 106.689 22.4609 106.689 11.6211 L 106.689 -34.8633 C 106.689 -44.2871 102.93 -49.2676 95.2637 -50.3418 L 95.2637 -65.3809 C 95.2637 -79.0527 103.906 -87.0117 114.941 -87.0117 C 125.977 -87.0117 134.57 -79.0527 134.57 -65.3809 L 134.57 -52.7832 C 134.57 -47.8516 137.549 -45.1172 141.406 -45.1172 C 145.215 -45.1172 148.145 -47.7051 148.145 -52.7832 L 148.145 -64.4531 C 148.145 -88.2324 132.031 -100.098 114.941 -100.098 C 97.8027 -100.098 81.6895 -88.2324 81.6895 -64.4531 L 81.6895 -50.5371 L 30.957 -50.5371 C 20.9961 -50.5371 16.0645 -45.6055 16.0645 -34.8633 L 16.0645 11.6211 C 16.0645 22.4609 20.9961 27.3926 30.957 27.3926 Z M 34.4727 14.502 C 31.6406 14.502 30.2246 13.1836 30.2246 9.81445 L 30.2246 -33.0078 C 30.2246 -36.4258 31.6406 -37.6465 34.4727 -37.6465 L 88.3789 -37.6465 C 91.2109 -37.6465 92.5293 -36.4258 92.5293 -33.0078 L 92.5293 9.81445 C 92.5293 13.1836 91.2109 14.502 88.3789 14.502 Z"/>
  </g>
  <g id="Semibold-L" transform="matrix(1 0 0 1 1963.04 1556)">
   <path d="M 30.4688 26.4648 L 90.4785 26.4648 C 100.098 26.4648 104.883 21.6797 104.883 11.1816 L 104.883 -34.5215 C 104.883 -43.6035 101.27 -48.3887 93.9941 -49.4629 L 93.9941 -64.8926 C 93.9941 -79.541 103.271 -87.9395 114.941 -87.9395 C 126.611 -87.9395 135.84 -79.541 135.84 -64.8926 L 135.84 -51.8555 C 135.84 -47.5586 138.379 -45.2148 141.748 -45.2148 C 145.02 -45.2148 147.607 -47.4121 147.607 -51.8555 L 147.607 -63.9648 C 147.607 -87.4023 131.934 -99.2676 114.941 -99.2676 C 97.9004 -99.2676 82.2266 -87.4023 82.2266 -63.9648 L 82.2266 -49.707 L 30.4688 -49.707 C 20.8496 -49.707 16.0645 -44.9707 16.0645 -34.5215 L 16.0645 11.1816 C 16.0645 21.6797 20.8496 26.4648 30.4688 26.4648 Z M 32.8125 15.332 C 29.7363 15.332 28.2227 13.9648 28.2227 10.2539 L 28.2227 -33.5449 C 28.2227 -37.3047 29.7363 -38.5742 32.8125 -38.5742 L 88.1836 -38.5742 C 91.2598 -38.5742 92.7246 -37.3047 92.7246 -33.5449 L 92.7246 10.2539 C 92.7246 13.9648 91.2598 15.332 88.1836 15.332 Z"/>
  </g>
  <g id="Medium-L" transform="matrix(1 0 0 1 1666.53 1556)">
   <path d="M 30.127 25.7812 L 89.4531 25.7812 C 98.877 25.7812 103.516 21.1426 103.516 10.8887 L 103.516 -34.2773 C 103.516 -43.0664 100.049 -47.7051 93.0664 -48.8281 L 93.0664 -64.5508 C 93.0664 -79.8828 102.783 -88.623 114.941 -88.623 C 127.051 -88.623 136.768 -79.8828 136.768 -64.5508 L 136.768 -51.123 C 136.768 -47.3145 139.062 -45.3125 141.992 -45.3125 C 144.873 -45.3125 147.168 -47.168 147.168 -51.123 L 147.168 -63.623 C 147.168 -86.7676 131.885 -98.584 114.941 -98.584 C 97.9492 -98.584 82.666 -86.7676 82.666 -63.623 L 82.666 -49.1211 L 30.127 -49.1211 C 20.752 -49.1211 16.0645 -44.4824 16.0645 -34.2773 L 16.0645 10.8887 C 16.0645 21.1426 20.752 25.7812 30.127 25.7812 Z M 31.543 15.9668 C 28.3203 15.9668 26.709 14.5508 26.709 10.5957 L 26.709 -33.9844 C 26.709 -37.9395 28.3203 -39.3066 31.543 -39.3066 L 88.0859 -39.3066 C 91.3574 -39.3066 92.8711 -37.9395 92.8711 -33.9844 L 92.8711 10.5957 C 92.8711 14.5508 91.3574 15.9668 88.0859 15.9668 Z"/>
  </g>
  <g id="Regular-L" transform="matrix(1 0 0 1 1370.11 1556)">
   <path d="M 29.6875 24.9023 L 88.0859 24.9023 C 97.2168 24.9023 101.709 20.4102 101.709 10.498 L 101.709 -33.9355 C 101.709 -42.334 98.4375 -46.875 91.8457 -47.998 L 91.8457 -64.1113 C 91.8457 -80.3223 102.197 -89.5508 114.893 -89.5508 C 127.686 -89.5508 137.988 -80.3223 137.988 -64.1113 L 137.988 -50.1953 C 137.988 -47.0215 139.941 -45.4102 142.334 -45.4102 C 144.678 -45.4102 146.631 -46.875 146.631 -50.1953 L 146.631 -63.1348 C 146.631 -85.8887 131.787 -97.7539 114.893 -97.7539 C 98.0469 -97.7539 83.2031 -85.8887 83.2031 -63.1348 L 83.2031 -48.291 L 29.6875 -48.291 C 20.6055 -48.291 16.0645 -43.7988 16.0645 -33.9355 L 16.0645 10.498 C 16.0645 20.4102 20.6055 24.9023 29.6875 24.9023 Z M 29.9316 16.7969 C 26.416 16.7969 24.7559 15.332 24.7559 11.0352 L 24.7559 -34.5215 C 24.7559 -38.8184 26.416 -40.2344 29.9316 -40.2344 L 87.9395 -40.2344 C 91.4062 -40.2344 93.0664 -38.8184 93.0664 -34.5215 L 93.0664 11.0352 C 93.0664 15.332 91.4062 16.7969 87.9395 16.7969 Z"/>
  </g>
  <g id="Light-L" transform="matrix(1 0 0 1 1072.81 1556)">
   <path d="M 29.0039 24.707 L 88.3301 24.707 C 97.0215 24.707 101.27 20.5078 101.27 11.0352 L 101.27 -34.7656 C 101.27 -42.7734 98.1934 -47.0215 91.8945 -48.0957 L 91.8945 -63.4277 C 91.8945 -80.127 102.49 -90.4785 116.553 -90.4785 C 130.664 -90.4785 141.162 -80.127 141.162 -63.4277 L 141.162 -49.6582 C 141.162 -47.3145 142.676 -46.0449 144.531 -46.0449 C 146.289 -46.0449 147.803 -47.2168 147.803 -49.6582 L 147.803 -62.8906 C 147.803 -84.3262 133.936 -96.7773 116.553 -96.7773 C 99.1699 -96.7773 85.3027 -84.3262 85.3027 -62.8906 L 85.3027 -48.3887 L 29.0039 -48.3887 C 20.3613 -48.3887 16.0645 -44.1895 16.0645 -34.7656 L 16.0645 11.0352 C 16.0645 20.5078 20.3613 24.707 29.0039 24.707 Z M 29.0039 18.5059 C 24.707 18.5059 22.7051 16.8457 22.7051 11.4746 L 22.7051 -35.1562 C 22.7051 -40.5273 24.707 -42.1387 29.0039 -42.1387 L 88.3789 -42.1387 C 92.6758 -42.1387 94.6289 -40.5273 94.6289 -35.1562 L 94.6289 11.4746 C 94.6289 16.8457 92.6758 18.5059 88.3789 18.5059 Z"/>
  </g>
  <g id="Thin-L" transform="matrix(1 0 0 1 775.319 1556)">
   <path d="M 28.0762 24.4629 L 88.6719 24.4629 C 96.7285 24.4629 100.684 20.6543 100.684 11.8164 L 100.684 -35.791 C 100.684 -43.3105 97.8027 -47.2168 91.9922 -48.1934 L 91.9922 -62.5488 C 91.9922 -79.8828 102.93 -91.6992 118.701 -91.6992 C 134.57 -91.6992 145.41 -79.8828 145.41 -62.5488 L 145.41 -48.9746 C 145.41 -47.7051 146.338 -46.9238 147.363 -46.9238 C 148.389 -46.9238 149.316 -47.7051 149.316 -48.9746 L 149.316 -62.5977 C 149.316 -82.2754 136.768 -95.459 118.701 -95.459 C 100.635 -95.459 88.0371 -82.2754 88.0371 -62.5977 L 88.0371 -48.4375 L 28.0762 -48.4375 C 20.0195 -48.4375 16.0645 -44.6289 16.0645 -35.791 L 16.0645 11.8164 C 16.0645 20.6543 20.0195 24.4629 28.0762 24.4629 Z M 27.832 20.752 C 22.4609 20.752 20.0195 18.7988 20.0195 12.0117 L 20.0195 -35.9863 C 20.0195 -42.7734 22.4609 -44.7266 27.832 -44.7266 L 88.9648 -44.7266 C 94.2871 -44.7266 96.7285 -42.7734 96.7285 -35.9863 L 96.7285 12.0117 C 96.7285 18.7988 94.2871 20.752 88.9648 20.752 Z"/>
  </g>
  <g id="Ultralight-L" transform="matrix(1 0 0 1 478.217 1556)">
   <path d="M 27.5879 24.3652 L 88.8672 24.3652 C 96.582 24.3652 100.391 20.752 100.391 12.207 L 100.391 -36.3281 C 100.391 -43.6035 97.6074 -47.3145 92.041 -48.2422 L 92.041 -62.0605 C 92.041 -79.7852 103.125 -92.334 119.775 -92.334 C 136.572 -92.334 147.559 -79.7852 147.559 -62.0605 L 147.559 -48.584 C 147.559 -47.9004 148.242 -47.4121 148.828 -47.4121 C 149.463 -47.4121 150.146 -47.9492 150.146 -48.584 L 150.146 -62.4512 C 150.146 -81.25 138.232 -94.7754 119.775 -94.7754 C 101.367 -94.7754 89.4531 -81.25 89.4531 -62.4512 L 89.4531 -48.4863 C 89.2578 -48.4863 89.0625 -48.4863 88.8672 -48.4863 L 27.5879 -48.4863 C 19.873 -48.4863 16.0645 -44.873 16.0645 -36.3281 L 16.0645 12.207 C 16.0645 20.752 19.873 24.3652 27.5879 24.3652 Z M 27.1973 21.9238 C 21.3379 21.9238 18.6523 19.8242 18.6523 12.3047 L 18.6523 -36.4258 C 18.6523 -43.9453 21.3379 -46.0449 27.1973 -46.0449 L 89.2578 -46.0449 C 95.1172 -46.0449 97.8516 -43.9453 97.8516 -36.4258 L 97.8516 12.3047 C 97.8516 19.8242 95.1172 21.9238 89.2578 21.9238 Z"/>
  </g>
  <g id="Black-M" transform="matrix(1 0 0 1 2869.61 1126)">
   <path d="M 25.3418 16.6992 L 76.6113 16.6992 C 85.2539 16.6992 89.502 12.4023 89.502 2.97852 L 89.502 -36.6699 C 89.502 -45.2148 85.8887 -49.5117 78.6621 -50.1953 L 78.6621 -59.9609 C 78.6621 -67.334 83.1055 -72.3145 89.9414 -72.3145 C 96.7773 -72.3145 101.221 -67.334 101.221 -59.9609 L 101.221 -52.1973 C 101.221 -46.2891 104.688 -42.8711 109.424 -42.8711 C 114.16 -42.8711 117.627 -46.2891 117.627 -52.1973 L 117.627 -59.6191 C 117.627 -78.8086 103.809 -88.2324 89.9414 -88.2324 C 76.0742 -88.2324 62.2559 -78.8086 62.2559 -59.6191 L 62.2559 -50.293 L 25.3418 -50.293 C 16.6992 -50.293 12.4512 -45.9473 12.4512 -36.6699 L 12.4512 2.97852 C 12.4512 12.4023 16.6992 16.6992 25.3418 16.6992 Z M 32.666 0.976562 C 31.0059 0.976562 30.127 0.0976562 30.127 -1.85547 L 30.127 -31.7871 C 30.127 -33.7402 31.0059 -34.5215 32.666 -34.5215 L 69.3359 -34.5215 C 71.0449 -34.5215 71.8262 -33.7402 71.8262 -31.7871 L 71.8262 -1.85547 C 71.8262 0.0976562 71.0449 0.976562 69.3359 0.976562 Z"/>
  </g>
  <g id="Heavy-M" transform="matrix(1 0 0 1 2573.43 1126)">
   <path d="M 24.9023 15.4785 L 74.6094 15.4785 C 82.9102 15.4785 87.0117 11.3281 87.0117 2.24609 L 87.0117 -35.9863 C 87.0117 -44.0918 83.6914 -48.291 76.8555 -48.9746 L 76.8555 -59.5215 C 76.8555 -68.0176 82.1289 -73.3887 89.502 -73.3887 C 96.875 -73.3887 102.148 -68.0176 102.148 -59.5215 L 102.148 -51.0254 C 102.148 -45.8008 105.225 -42.8223 109.326 -42.8223 C 113.477 -42.8223 116.504 -45.752 116.504 -51.0254 L 116.504 -58.9844 C 116.504 -78.0273 103.125 -87.3047 89.502 -87.3047 C 75.8789 -87.3047 62.5 -78.0273 62.5 -58.9844 L 62.5 -49.1211 L 24.9023 -49.1211 C 16.5527 -49.1211 12.4512 -44.9707 12.4512 -35.9863 L 12.4512 2.24609 C 12.4512 11.3281 16.5527 15.4785 24.9023 15.4785 Z M 30.5664 1.70898 C 28.7109 1.70898 27.7832 0.78125 27.7832 -1.31836 L 27.7832 -32.373 C 27.7832 -34.4727 28.7109 -35.3516 30.5664 -35.3516 L 68.9941 -35.3516 C 70.8008 -35.3516 71.6797 -34.4727 71.6797 -32.373 L 71.6797 -1.31836 C 71.6797 0.78125 70.8008 1.70898 68.9941 1.70898 Z"/>
  </g>
  <g id="Bold-M" transform="matrix(1 0 0 1 2277.36 1126)">
   <path d="M 24.3652 14.1113 L 72.3633 14.1113 C 80.3223 14.1113 84.2773 10.1074 84.2773 1.41602 L 84.2773 -35.2051 C 84.2773 -42.8711 81.2012 -46.875 74.9023 -47.6562 L 74.9023 -58.9844 C 74.9023 -68.7988 81.0547 -74.5605 89.0137 -74.5605 C 97.0215 -74.5605 103.174 -68.7988 103.174 -58.9844 L 103.174 -49.6582 C 103.174 -45.2637 105.762 -42.8223 109.277 -42.8223 C 112.695 -42.8223 115.283 -45.166 115.283 -49.6582 L 115.283 -58.3008 C 115.283 -77.0996 102.344 -86.2793 89.0137 -86.2793 C 75.7324 -86.2793 62.793 -77.0996 62.793 -58.3008 L 62.793 -47.8027 L 24.3652 -47.8027 C 16.4062 -47.8027 12.4512 -43.8477 12.4512 -35.2051 L 12.4512 1.41602 C 12.4512 10.1074 16.4062 14.1113 24.3652 14.1113 Z M 28.1738 2.53906 C 26.2207 2.53906 25.2441 1.61133 25.2441 -0.732422 L 25.2441 -33.0566 C 25.2441 -35.3516 26.2207 -36.2793 28.1738 -36.2793 L 68.6035 -36.2793 C 70.6055 -36.2793 71.5332 -35.3516 71.5332 -33.0566 L 71.5332 -0.732422 C 71.5332 1.61133 70.6055 2.53906 68.6035 2.53906 Z"/>
  </g>
  <g id="Semibold-M" transform="matrix(1 0 0 1 1981.06 1126)">
   <path d="M 24.0234 13.1348 L 70.8008 13.1348 C 78.5645 13.1348 82.373 9.27734 82.373 0.878906 L 82.373 -34.7168 C 82.373 -41.9922 79.4434 -45.8984 73.5352 -46.7285 L 73.5352 -58.6426 C 73.5352 -69.3359 80.3223 -75.3418 88.7207 -75.3418 C 97.1191 -75.3418 103.857 -69.3359 103.857 -58.6426 L 103.857 -48.7305 C 103.857 -44.873 106.152 -42.7734 109.18 -42.7734 C 112.158 -42.7734 114.453 -44.7754 114.453 -48.7305 L 114.453 -57.8125 C 114.453 -76.4648 101.855 -85.5469 88.7207 -85.5469 C 75.5859 -85.5469 62.9883 -76.4648 62.9883 -57.8125 L 62.9883 -46.9238 L 24.0234 -46.9238 C 16.3086 -46.9238 12.4512 -43.0664 12.4512 -34.7168 L 12.4512 0.878906 C 12.4512 9.27734 16.3086 13.1348 24.0234 13.1348 Z M 26.5625 3.125 C 24.4629 3.125 23.4375 2.14844 23.4375 -0.341797 L 23.4375 -33.4961 C 23.4375 -35.9863 24.4629 -36.8652 26.5625 -36.8652 L 68.3594 -36.8652 C 70.4102 -36.8652 71.4355 -35.9863 71.4355 -33.4961 L 71.4355 -0.341797 C 71.4355 2.14844 70.4102 3.125 68.3594 3.125 Z"/>
  </g>
  <g id="Medium-M" transform="matrix(1 0 0 1 1684.67 1126)">
   <path d="M 23.7793 12.4023 L 69.6289 12.4023 C 77.1973 12.4023 80.957 8.64258 80.957 0.439453 L 80.957 -34.2773 C 80.957 -41.3574 78.1738 -45.1172 72.5098 -45.9961 L 72.5098 -58.3496 C 72.5098 -69.7266 79.7363 -75.9766 88.4766 -75.9766 C 97.168 -75.9766 104.395 -69.7266 104.395 -58.3496 L 104.395 -48.0469 C 104.395 -44.5801 106.494 -42.7734 109.131 -42.7734 C 111.768 -42.7734 113.818 -44.4824 113.818 -48.0469 L 113.818 -57.4707 C 113.818 -76.0254 101.416 -84.9609 88.4766 -84.9609 C 75.4883 -84.9609 63.0859 -76.0254 63.0859 -57.4707 L 63.0859 -46.2402 L 23.7793 -46.2402 C 16.2109 -46.2402 12.4512 -42.4805 12.4512 -34.2773 L 12.4512 0.439453 C 12.4512 8.64258 16.2109 12.4023 23.7793 12.4023 Z M 25.3418 3.56445 C 23.1445 3.56445 22.0703 2.53906 22.0703 0 L 22.0703 -33.8379 C 22.0703 -36.4258 23.1445 -37.3535 25.3418 -37.3535 L 68.1641 -37.3535 C 70.3125 -37.3535 71.3379 -36.4258 71.3379 -33.8379 L 71.3379 0 C 71.3379 2.53906 70.3125 3.56445 68.1641 3.56445 Z"/>
  </g>
  <g id="Regular-M" transform="matrix(1 0 0 1 1388.37 1126)">
   <path d="M 23.4375 11.4746 L 68.1152 11.4746 C 75.4395 11.4746 79.0527 7.8125 79.0527 -0.146484 L 79.0527 -33.7891 C 79.0527 -40.5273 76.4648 -44.1406 71.1426 -45.0684 L 71.1426 -58.0078 C 71.1426 -70.2637 79.0039 -76.7578 88.1348 -76.7578 C 97.2656 -76.7578 105.127 -70.2637 105.127 -58.0078 L 105.127 -47.168 C 105.127 -44.1895 106.836 -42.7246 109.082 -42.7246 C 111.23 -42.7246 112.988 -44.043 112.988 -47.168 L 112.988 -56.9824 C 112.988 -75.3906 100.928 -84.2773 88.1348 -84.2773 C 75.3418 -84.2773 63.2812 -75.3906 63.2812 -56.9824 L 63.2812 -45.3125 L 23.4375 -45.3125 C 16.1133 -45.3125 12.4512 -41.6992 12.4512 -33.7891 L 12.4512 -0.146484 C 12.4512 7.8125 16.1133 11.4746 23.4375 11.4746 Z M 23.6816 4.15039 C 21.4355 4.15039 20.3125 3.125 20.3125 0.390625 L 20.3125 -34.2773 C 20.3125 -37.0117 21.4355 -37.9883 23.6816 -37.9883 L 67.8711 -37.9883 C 70.166 -37.9883 71.1914 -37.0117 71.1914 -34.2773 L 71.1914 0.390625 C 71.1914 3.125 70.166 4.15039 67.8711 4.15039 Z"/>
  </g>
  <g id="Light-M" transform="matrix(1 0 0 1 1091.15 1126)">
   <path d="M 22.8027 11.3281 L 68.3594 11.3281 C 75.2441 11.3281 78.6621 7.91016 78.6621 0.390625 L 78.6621 -34.5215 C 78.6621 -40.8691 76.2207 -44.2871 71.1914 -45.166 L 71.1914 -57.373 C 71.1914 -70.1172 79.2969 -77.6367 89.5996 -77.6367 C 99.9023 -77.6367 107.959 -70.1172 107.959 -57.373 L 107.959 -46.6797 C 107.959 -44.4824 109.326 -43.3105 111.035 -43.3105 C 112.646 -43.3105 114.014 -44.3848 114.014 -46.6797 L 114.014 -56.7871 C 114.014 -73.9746 102.832 -83.3496 89.5996 -83.3496 C 76.3672 -83.3496 65.1855 -73.9746 65.1855 -56.7871 L 65.1855 -45.3613 L 22.8027 -45.3613 C 15.8691 -45.3613 12.4512 -41.9922 12.4512 -34.5215 L 12.4512 0.390625 C 12.4512 7.91016 15.8691 11.3281 22.8027 11.3281 Z M 22.9004 5.66406 C 19.9219 5.66406 18.5059 4.44336 18.5059 0.78125 L 18.5059 -34.8633 C 18.5059 -38.5742 19.9219 -39.7461 22.9004 -39.7461 L 68.2617 -39.7461 C 71.2402 -39.7461 72.6562 -38.5742 72.6562 -34.8633 L 72.6562 0.78125 C 72.6562 4.44336 71.2402 5.66406 68.2617 5.66406 Z"/>
  </g>
  <g id="Thin-M" transform="matrix(1 0 0 1 793.727 1126)">
   <path d="M 21.9727 11.084 L 68.6523 11.084 C 75.0488 11.084 78.1738 8.05664 78.1738 1.07422 L 78.1738 -35.4492 C 78.1738 -41.4062 75.8789 -44.4824 71.2891 -45.2637 L 71.2891 -56.5918 C 71.2891 -69.873 79.6387 -78.7598 91.5039 -78.7598 C 103.418 -78.7598 111.768 -69.873 111.768 -56.5918 L 111.768 -46.0449 C 111.768 -44.8242 112.646 -44.0918 113.574 -44.0918 C 114.551 -44.0918 115.381 -44.7754 115.381 -46.0449 L 115.381 -56.4941 C 115.381 -72.168 105.371 -82.1777 91.5039 -82.1777 C 77.6367 -82.1777 67.627 -72.168 67.627 -56.4941 L 67.627 -45.459 L 21.9727 -45.459 C 15.5762 -45.459 12.4512 -42.4316 12.4512 -35.4492 L 12.4512 1.07422 C 12.4512 8.05664 15.5762 11.084 21.9727 11.084 Z M 21.8262 7.66602 C 17.9199 7.66602 16.1133 6.20117 16.1133 1.26953 L 16.1133 -35.6445 C 16.1133 -40.5762 17.9199 -42.041 21.8262 -42.041 L 68.7988 -42.041 C 72.7051 -42.041 74.5117 -40.5762 74.5117 -35.6445 L 74.5117 1.26953 C 74.5117 6.20117 72.7051 7.66602 68.7988 7.66602 Z"/>
  </g>
  <g id="Ultralight-M" transform="matrix(1 0 0 1 496.674 1126)">
   <path d="M 21.5332 10.9863 L 68.7988 10.9863 C 74.9023 10.9863 77.8809 8.10547 77.8809 1.41602 L 77.8809 -35.9375 C 77.8809 -41.6504 75.7324 -44.5801 71.2891 -45.3125 L 71.2891 -56.1523 C 71.2891 -69.7754 79.834 -79.2969 92.5293 -79.2969 C 105.225 -79.2969 113.721 -69.7754 113.721 -56.1523 L 113.721 -45.7031 C 113.721 -45.0195 114.307 -44.5312 114.893 -44.5312 C 115.527 -44.5312 116.113 -45.0195 116.113 -45.7031 L 116.113 -56.3965 C 116.113 -71.1914 106.689 -81.5918 92.5293 -81.5918 C 78.3203 -81.5918 68.8965 -71.1914 68.8965 -56.3965 L 68.8965 -45.5078 L 21.5332 -45.5078 C 15.4297 -45.5078 12.4512 -42.627 12.4512 -35.9375 L 12.4512 1.41602 C 12.4512 8.10547 15.4297 10.9863 21.5332 10.9863 Z M 21.2891 8.69141 C 16.8457 8.69141 14.8438 7.12891 14.8438 1.51367 L 14.8438 -36.0352 C 14.8438 -41.6504 16.8457 -43.2129 21.2891 -43.2129 L 69.0918 -43.2129 C 73.4863 -43.2129 75.4883 -41.6504 75.4883 -36.0352 L 75.4883 1.51367 C 75.4883 7.12891 73.4863 8.69141 69.0918 8.69141 Z"/>
  </g>
  <g id="Black-S" transform="matrix(1 0 0 1 2883.47 696)">
   <path d="M 19.8242 5.37109 L 59.8633 5.37109 C 66.6016 5.37109 69.9219 2.00195 69.9219 -5.37109 L 69.9219 -36.2793 C 69.9219 -42.9688 67.1387 -46.3379 61.4746 -46.875 L 61.4746 -54.5898 C 61.4746 -60.4492 65.0391 -64.3555 70.4102 -64.3555 C 75.7812 -64.3555 79.3457 -60.4492 79.3457 -54.5898 L 79.3457 -48.4375 C 79.3457 -43.8477 82.0312 -41.2109 85.6934 -41.2109 C 89.3555 -41.2109 92.041 -43.8477 92.041 -48.4375 L 92.041 -54.2969 C 92.041 -69.3359 81.25 -76.709 70.4102 -76.709 C 59.5703 -76.709 48.7793 -69.3359 48.7793 -54.2969 L 48.7793 -46.9238 L 19.8242 -46.9238 C 13.0859 -46.9238 9.76562 -43.5547 9.76562 -36.2793 L 9.76562 -5.37109 C 9.76562 2.00195 13.0859 5.37109 19.8242 5.37109 Z M 25.4395 -6.83594 C 24.1211 -6.83594 23.4375 -7.51953 23.4375 -9.0332 L 23.4375 -32.5684 C 23.4375 -34.082 24.1211 -34.7168 25.4395 -34.7168 L 54.2969 -34.7168 C 55.6152 -34.7168 56.25 -34.082 56.25 -32.5684 L 56.25 -9.0332 C 56.25 -7.51953 55.6152 -6.83594 54.2969 -6.83594 Z"/>
  </g>
  <g id="Heavy-S" transform="matrix(1 0 0 1 2587.25 696)">
   <path d="M 19.5312 4.44336 L 58.3008 4.44336 C 64.8438 4.44336 68.0664 1.17188 68.0664 -6.00586 L 68.0664 -35.6934 C 68.0664 -42.041 65.4297 -45.3613 60.1074 -45.9473 L 60.1074 -54.2969 C 60.1074 -60.9863 64.2578 -65.0879 69.9219 -65.0879 C 75.5859 -65.0879 79.7363 -60.9863 79.7363 -54.2969 L 79.7363 -47.5586 C 79.7363 -43.457 82.1289 -41.1133 85.4004 -41.1133 C 88.6719 -41.1133 91.0645 -43.4082 91.0645 -47.5586 L 91.0645 -53.8574 C 91.0645 -68.8477 80.5176 -76.0742 69.9219 -76.0742 C 59.3262 -76.0742 48.7793 -68.8477 48.7793 -53.8574 L 48.7793 -46.0449 L 19.5312 -46.0449 C 12.9883 -46.0449 9.76562 -42.7246 9.76562 -35.6934 L 9.76562 -6.00586 C 9.76562 1.17188 12.9883 4.44336 19.5312 4.44336 Z M 23.9258 -6.44531 C 22.5586 -6.44531 21.875 -7.12891 21.875 -8.69141 L 21.875 -32.959 C 21.875 -34.5215 22.5586 -35.1562 23.9258 -35.1562 L 54.0039 -35.1562 C 55.3223 -35.1562 55.957 -34.5215 55.957 -32.959 L 55.957 -8.69141 C 55.957 -7.12891 55.3223 -6.44531 54.0039 -6.44531 Z"/>
  </g>
  <g id="Bold-S" transform="matrix(1 0 0 1 2291.05 696)">
   <path d="M 19.2383 3.41797 L 56.543 3.41797 C 62.8906 3.41797 66.0156 0.244141 66.0156 -6.68945 L 66.0156 -35.0098 C 66.0156 -41.0645 63.5742 -44.2383 58.5938 -44.9219 L 58.5938 -54.0039 C 58.5938 -61.6211 63.3789 -65.8691 69.3848 -65.8691 C 75.3418 -65.8691 80.1758 -61.6211 80.1758 -54.0039 L 80.1758 -46.6309 C 80.1758 -42.9688 82.2754 -41.0156 85.1074 -41.0156 C 87.8906 -41.0156 90.0391 -42.9199 90.0391 -46.6309 L 90.0391 -53.3203 C 90.0391 -68.3594 79.6875 -75.3906 69.3848 -75.3906 C 59.082 -75.3906 48.7305 -68.3594 48.7305 -53.3203 L 48.7305 -45.0195 L 19.2383 -45.0195 C 12.8906 -45.0195 9.76562 -41.8457 9.76562 -35.0098 L 9.76562 -6.68945 C 9.76562 0.244141 12.8906 3.41797 19.2383 3.41797 Z M 22.2168 -6.00586 C 20.8496 -6.00586 20.1172 -6.68945 20.1172 -8.25195 L 20.1172 -33.3984 C 20.1172 -34.9609 20.8496 -35.6445 22.2168 -35.6445 L 53.6621 -35.6445 C 55.0293 -35.6445 55.6641 -34.9609 55.6641 -33.3984 L 55.6641 -8.25195 C 55.6641 -6.68945 55.0293 -6.00586 53.6621 -6.00586 Z"/>
  </g>
  <g id="Semibold-S" transform="matrix(1 0 0 1 1994.71 696)">
   <path d="M 19.043 2.68555 L 55.3711 2.68555 C 61.5723 2.68555 64.5996 -0.439453 64.5996 -7.12891 L 64.5996 -34.5703 C 64.5996 -40.3809 62.2559 -43.5059 57.5684 -44.1895 L 57.5684 -53.7598 C 57.5684 -62.0117 62.793 -66.4062 68.9941 -66.4062 C 75.1953 -66.4062 80.4688 -62.0117 80.4688 -53.7598 L 80.4688 -45.9473 C 80.4688 -42.6758 82.373 -40.918 84.9121 -40.918 C 87.3535 -40.918 89.3066 -42.5781 89.3066 -45.9473 L 89.3066 -52.9785 C 89.3066 -67.9688 79.1016 -74.9023 68.9941 -74.9023 C 58.8867 -74.9023 48.7305 -67.9688 48.7305 -52.9785 L 48.7305 -44.3359 L 19.043 -44.3359 C 12.8418 -44.3359 9.76562 -41.2109 9.76562 -34.5703 L 9.76562 -7.12891 C 9.76562 -0.439453 12.8418 2.68555 19.043 2.68555 Z M 21.0449 -5.66406 C 19.6289 -5.66406 18.8965 -6.39648 18.8965 -8.00781 L 18.8965 -33.6914 C 18.8965 -35.3027 19.6289 -35.9863 21.0449 -35.9863 L 53.418 -35.9863 C 54.7852 -35.9863 55.4688 -35.3027 55.4688 -33.6914 L 55.4688 -8.00781 C 55.4688 -6.39648 54.7852 -5.66406 53.418 -5.66406 Z"/>
  </g>
  <g id="Medium-S" transform="matrix(1 0 0 1 1698.29 696)">
   <path d="M 18.8477 2.14844 L 54.4434 2.14844 C 60.5469 2.14844 63.5254 -0.927734 63.5254 -7.51953 L 63.5254 -34.2285 C 63.5254 -39.8438 61.2793 -42.9199 56.7383 -43.6523 L 56.7383 -53.6133 C 56.7383 -62.3535 62.3535 -66.8457 68.7012 -66.8457 C 75.0977 -66.8457 80.6641 -62.3535 80.6641 -53.6133 L 80.6641 -45.459 C 80.6641 -42.4316 82.4219 -40.8691 84.7168 -40.8691 C 86.9629 -40.8691 88.7207 -42.334 88.7207 -45.459 L 88.7207 -52.7344 C 88.7207 -67.7246 78.7109 -74.5605 68.7012 -74.5605 C 58.7402 -74.5605 48.6816 -67.7246 48.6816 -52.7344 L 48.6816 -43.7988 L 18.8477 -43.7988 C 12.793 -43.7988 9.76562 -40.7715 9.76562 -34.2285 L 9.76562 -7.51953 C 9.76562 -0.927734 12.793 2.14844 18.8477 2.14844 Z M 20.1172 -5.41992 C 18.7012 -5.41992 18.0176 -6.15234 18.0176 -7.76367 L 18.0176 -33.9355 C 18.0176 -35.5469 18.7012 -36.2305 20.1172 -36.2305 L 53.2227 -36.2305 C 54.6387 -36.2305 55.3223 -35.5469 55.3223 -33.9355 L 55.3223 -7.76367 C 55.3223 -6.15234 54.6387 -5.41992 53.2227 -5.41992 Z"/>
  </g>
  <g id="Regular-S" transform="matrix(1 0 0 1 1401.94 696)">
   <path d="M 18.6523 1.41602 L 53.2715 1.41602 C 59.1797 1.41602 62.1582 -1.5625 62.1582 -7.95898 L 62.1582 -33.7402 C 62.1582 -39.1602 60.0098 -42.1387 55.7129 -42.9199 L 55.7129 -53.3691 C 55.7129 -62.7441 61.7676 -67.3828 68.3594 -67.3828 C 74.9023 -67.3828 80.957 -62.7441 80.957 -53.3691 L 80.957 -44.7754 C 80.957 -42.1387 82.5195 -40.8203 84.5215 -40.8203 C 86.4746 -40.8203 87.9883 -41.9922 87.9883 -44.7754 L 87.9883 -52.3438 C 87.9883 -67.3828 78.125 -74.0723 68.3594 -74.0723 C 58.5449 -74.0723 48.6816 -67.3828 48.6816 -52.3438 L 48.6816 -43.1152 L 18.6523 -43.1152 C 12.6953 -43.1152 9.76562 -40.1367 9.76562 -33.7402 L 9.76562 -7.95898 C 9.76562 -1.5625 12.6953 1.41602 18.6523 1.41602 Z M 18.9453 -5.12695 C 17.5293 -5.12695 16.7969 -5.85938 16.7969 -7.51953 L 16.7969 -34.2285 C 16.7969 -35.8887 17.5293 -36.5723 18.9453 -36.5723 L 52.9785 -36.5723 C 54.4434 -36.5723 55.127 -35.8887 55.127 -34.2285 L 55.127 -7.51953 C 55.127 -5.85938 54.4434 -5.12695 52.9785 -5.12695 Z"/>
  </g>
  <g id="Light-S" transform="matrix(1 0 0 1 1104.77 696)">
   <path d="M 18.1152 1.26953 L 53.4668 1.26953 C 59.0332 1.26953 61.8164 -1.46484 61.8164 -7.51953 L 61.8164 -34.375 C 61.8164 -39.502 59.8145 -42.2852 55.7617 -42.9688 L 55.7617 -52.832 C 55.7617 -62.5977 62.0117 -68.1152 69.6289 -68.1152 C 77.2461 -68.1152 83.4961 -62.5977 83.4961 -52.832 L 83.4961 -44.3848 C 83.4961 -42.3828 84.7168 -41.3574 86.2305 -41.3574 C 87.6953 -41.3574 88.916 -42.2852 88.916 -44.3848 L 88.916 -52.1973 C 88.916 -66.1133 79.834 -73.291 69.6289 -73.291 C 59.4238 -73.291 50.3418 -66.1133 50.3418 -52.1973 L 50.3418 -43.1641 L 18.1152 -43.1641 C 12.5 -43.1641 9.76562 -40.4297 9.76562 -34.375 L 9.76562 -7.51953 C 9.76562 -1.46484 12.5 1.26953 18.1152 1.26953 Z M 18.2617 -3.80859 C 16.2109 -3.80859 15.1855 -4.63867 15.1855 -7.17773 L 15.1855 -34.7168 C 15.1855 -37.2559 16.2109 -38.0859 18.2617 -38.0859 L 53.3203 -38.0859 C 55.4199 -38.0859 56.3477 -37.2559 56.3477 -34.7168 L 56.3477 -7.17773 C 56.3477 -4.63867 55.4199 -3.80859 53.3203 -3.80859 Z"/>
  </g>
  <g id="Thin-S" transform="matrix(1 0 0 1 807.448 696)">
   <path d="M 17.3828 1.12305 L 53.7109 1.12305 C 58.8379 1.12305 61.3281 -1.36719 61.3281 -6.93359 L 61.3281 -35.2051 C 61.3281 -39.9414 59.5215 -42.4316 55.8105 -43.0664 L 55.8105 -52.0996 C 55.8105 -62.4512 62.3535 -69.0918 71.3379 -69.0918 C 80.3711 -69.0918 86.8652 -62.4512 86.8652 -52.0996 L 86.8652 -43.7988 C 86.8652 -42.6758 87.5977 -42.041 88.5254 -42.041 C 89.3555 -42.041 90.1367 -42.627 90.1367 -43.7988 L 90.1367 -51.9531 C 90.1367 -64.502 82.0801 -72.2656 71.3379 -72.2656 C 60.5957 -72.2656 52.5391 -64.502 52.5391 -51.9531 L 52.5391 -43.2129 L 17.3828 -43.2129 C 12.2559 -43.2129 9.76562 -40.7715 9.76562 -35.2051 L 9.76562 -6.93359 C 9.76562 -1.36719 12.2559 1.12305 17.3828 1.12305 Z M 17.2852 -2.00195 C 14.4043 -2.00195 13.0859 -3.07617 13.0859 -6.73828 L 13.0859 -35.4004 C 13.0859 -39.0625 14.4043 -40.1367 17.2852 -40.1367 L 53.8086 -40.1367 C 56.6895 -40.1367 58.0078 -39.0625 58.0078 -35.4004 L 58.0078 -6.73828 C 58.0078 -3.07617 56.6895 -2.00195 53.8086 -2.00195 Z"/>
  </g>
  <g id="Ultralight-S" transform="matrix(1 0 0 1 510.419 696)">
   <path d="M 16.9922 0.976562 L 53.8574 0.976562 C 58.7402 0.976562 61.084 -1.26953 61.084 -6.5918 L 61.084 -35.6445 C 61.084 -40.1855 59.375 -42.5293 55.8594 -43.1152 L 55.8594 -51.7578 C 55.8594 -62.3047 62.5 -69.6289 72.2168 -69.6289 C 81.9824 -69.6289 88.5742 -62.3047 88.5742 -51.7578 L 88.5742 -43.5059 C 88.5742 -42.8223 89.1113 -42.3828 89.6973 -42.3828 C 90.2344 -42.3828 90.7715 -42.8223 90.7715 -43.5059 L 90.7715 -51.8555 C 90.7715 -63.6719 83.252 -71.7285 72.2168 -71.7285 C 61.1816 -71.7285 53.6621 -63.6719 53.6621 -51.8555 L 53.6621 -43.2617 L 16.9922 -43.2617 C 12.1582 -43.2617 9.76562 -40.9668 9.76562 -35.6445 L 9.76562 -6.5918 C 9.76562 -1.26953 12.1582 0.976562 16.9922 0.976562 Z M 16.7969 -1.07422 C 13.4766 -1.07422 11.9629 -2.29492 11.9629 -6.49414 L 11.9629 -35.7422 C 11.9629 -39.9902 13.4766 -41.1621 16.7969 -41.1621 L 54.0527 -41.1621 C 57.373 -41.1621 58.8867 -39.9902 58.8867 -35.7422 L 58.8867 -6.49414 C 58.8867 -2.29492 57.373 -1.07422 54.0527 -1.07422 Z"/>
  </g>
 </g>
</svg>
