<?xml version="1.0" encoding="UTF-8"?>
<!--Generator: Apple Native CoreSVG 175-->
<!DOCTYPE svg
PUBLIC "-//W3C//DTD SVG 1.1//EN"
       "http://www.w3.org/Graphics/SVG/1.1/DTD/svg11.dtd">
<svg version="1.1" xmlns="http://www.w3.org/2000/svg" xmlns:xlink="http://www.w3.org/1999/xlink" width="3300" height="2200">
 <!--glyph: "uni100175.medium", point size: 100.0, font version: "17.0d12e1", template writer version: "65.1"-->
 <g id="Notes">
  <rect height="2200" id="artboard" style="fill:white;opacity:1" width="3300" x="0" y="0"/>
  <line style="fill:none;stroke:black;opacity:1;stroke-width:0.5;" x1="263" x2="3036" y1="292" y2="292"/>
  <text style="stroke:none;fill:black;font-family:sans-serif;font-size:13;font-weight:bold;" transform="matrix(1 0 0 1 263 322)">Weight/Scale Variations</text>
  <text style="stroke:none;fill:black;font-family:sans-serif;font-size:13;text-anchor:middle;" transform="matrix(1 0 0 1 559.711 322)">Ultralight</text>
  <text style="stroke:none;fill:black;font-family:sans-serif;font-size:13;text-anchor:middle;" transform="matrix(1 0 0 1 856.422 322)">Thin</text>
  <text style="stroke:none;fill:black;font-family:sans-serif;font-size:13;text-anchor:middle;" transform="matrix(1 0 0 1 1153.13 322)">Light</text>
  <text style="stroke:none;fill:black;font-family:sans-serif;font-size:13;text-anchor:middle;" transform="matrix(1 0 0 1 1449.84 322)">Regular</text>
  <text style="stroke:none;fill:black;font-family:sans-serif;font-size:13;text-anchor:middle;" transform="matrix(1 0 0 1 1746.56 322)">Medium</text>
  <text style="stroke:none;fill:black;font-family:sans-serif;font-size:13;text-anchor:middle;" transform="matrix(1 0 0 1 2043.27 322)">Semibold</text>
  <text style="stroke:none;fill:black;font-family:sans-serif;font-size:13;text-anchor:middle;" transform="matrix(1 0 0 1 2339.98 322)">Bold</text>
  <text style="stroke:none;fill:black;font-family:sans-serif;font-size:13;text-anchor:middle;" transform="matrix(1 0 0 1 2636.69 322)">Heavy</text>
  <text style="stroke:none;fill:black;font-family:sans-serif;font-size:13;text-anchor:middle;" transform="matrix(1 0 0 1 2933.4 322)">Black</text>
  <line style="fill:none;stroke:black;opacity:1;stroke-width:0.5;" x1="263" x2="3036" y1="1903" y2="1903"/>
  <g transform="matrix(1 0 0 1 263 1933)">
   <path d="M9.24805 0.830078Q10.8691 0.830078 12.2949 0.214844Q13.7207-0.400391 14.8096-1.49414Q15.8984-2.58789 16.5186-4.01367Q17.1387-5.43945 17.1387-7.05078Q17.1387-8.66211 16.5186-10.0879Q15.8984-11.5137 14.8047-12.6074Q13.7109-13.7012 12.2852-14.3164Q10.8594-14.9316 9.23828-14.9316Q7.62695-14.9316 6.20117-14.3164Q4.77539-13.7012 3.69141-12.6074Q2.60742-11.5137 1.9873-10.0879Q1.36719-8.66211 1.36719-7.05078Q1.36719-5.43945 1.9873-4.01367Q2.60742-2.58789 3.69629-1.49414Q4.78516-0.400391 6.21094 0.214844Q7.63672 0.830078 9.24805 0.830078ZM9.24805-0.654297Q7.91992-0.654297 6.7627-1.14746Q5.60547-1.64062 4.73145-2.51953Q3.85742-3.39844 3.36426-4.56055Q2.87109-5.72266 2.87109-7.05078Q2.87109-8.37891 3.35938-9.54102Q3.84766-10.7031 4.72168-11.582Q5.5957-12.4609 6.75293-12.9541Q7.91016-13.4473 9.23828-13.4473Q10.5762-13.4473 11.7334-12.9541Q12.8906-12.4609 13.7695-11.582Q14.6484-10.7031 15.1465-9.54102Q15.6445-8.37891 15.6445-7.05078Q15.6445-5.72266 15.1514-4.56055Q14.6582-3.39844 13.7842-2.51953Q12.9102-1.64062 11.748-1.14746Q10.5859-0.654297 9.24805-0.654297ZM5.6543-7.05078Q5.6543-6.72852 5.85938-6.52832Q6.06445-6.32812 6.40625-6.32812L8.51562-6.32812L8.51562-4.20898Q8.51562-3.88672 8.71094-3.67676Q8.90625-3.4668 9.23828-3.4668Q9.56055-3.4668 9.77051-3.67676Q9.98047-3.88672 9.98047-4.20898L9.98047-6.32812L12.0898-6.32812Q12.4219-6.32812 12.627-6.52832Q12.832-6.72852 12.832-7.05078Q12.832-7.38281 12.627-7.58789Q12.4219-7.79297 12.0898-7.79297L9.98047-7.79297L9.98047-9.90234Q9.98047-10.2344 9.77051-10.4443Q9.56055-10.6543 9.23828-10.6543Q8.90625-10.6543 8.71094-10.4443Q8.51562-10.2344 8.51562-9.90234L8.51562-7.79297L6.40625-7.79297Q6.06445-7.79297 5.85938-7.58789Q5.6543-7.38281 5.6543-7.05078Z"/>
  </g>
  <g transform="matrix(1 0 0 1 281.867 1933)">
   <path d="M11.709 2.91016Q13.75 2.91016 15.5518 2.12891Q17.3535 1.34766 18.7305-0.0292969Q20.1074-1.40625 20.8887-3.20801Q21.6699-5.00977 21.6699-7.05078Q21.6699-9.0918 20.8887-10.8936Q20.1074-12.6953 18.7305-14.0723Q17.3535-15.4492 15.5469-16.2305Q13.7402-17.0117 11.6992-17.0117Q9.6582-17.0117 7.85645-16.2305Q6.05469-15.4492 4.68262-14.0723Q3.31055-12.6953 2.5293-10.8936Q1.74805-9.0918 1.74805-7.05078Q1.74805-5.00977 2.5293-3.20801Q3.31055-1.40625 4.6875-0.0292969Q6.06445 1.34766 7.86621 2.12891Q9.66797 2.91016 11.709 2.91016ZM11.709 1.25Q9.98047 1.25 8.47656 0.605469Q6.97266-0.0390625 5.83496-1.17676Q4.69727-2.31445 4.05762-3.81836Q3.41797-5.32227 3.41797-7.05078Q3.41797-8.7793 4.05762-10.2832Q4.69727-11.7871 5.83008-12.9297Q6.96289-14.0723 8.4668-14.7119Q9.9707-15.3516 11.6992-15.3516Q13.4277-15.3516 14.9316-14.7119Q16.4355-14.0723 17.5781-12.9297Q18.7207-11.7871 19.3652-10.2832Q20.0098-8.7793 20.0098-7.05078Q20.0098-5.32227 19.3701-3.81836Q18.7305-2.31445 17.5928-1.17676Q16.4551-0.0390625 14.9463 0.605469Q13.4375 1.25 11.709 1.25ZM7.17773-7.05078Q7.17773-6.69922 7.41211-6.47461Q7.64648-6.25 8.01758-6.25L10.8887-6.25L10.8887-3.36914Q10.8887-2.99805 11.1133-2.76855Q11.3379-2.53906 11.6895-2.53906Q12.0605-2.53906 12.29-2.76855Q12.5195-2.99805 12.5195-3.36914L12.5195-6.25L15.4004-6.25Q15.7715-6.25 16.001-6.47461Q16.2305-6.69922 16.2305-7.05078Q16.2305-7.42188 16.001-7.65137Q15.7715-7.88086 15.4004-7.88086L12.5195-7.88086L12.5195-10.752Q12.5195-11.1328 12.29-11.3623Q12.0605-11.5918 11.6895-11.5918Q11.3379-11.5918 11.1133-11.3574Q10.8887-11.123 10.8887-10.752L10.8887-7.88086L8.01758-7.88086Q7.63672-7.88086 7.40723-7.65137Q7.17773-7.42188 7.17773-7.05078Z"/>
  </g>
  <g transform="matrix(1 0 0 1 305.646 1933)">
   <path d="M14.9707 5.66406Q17.0605 5.66406 18.96 5.01465Q20.8594 4.36523 22.4512 3.19336Q24.043 2.02148 25.2197 0.429688Q26.3965-1.16211 27.0459-3.06641Q27.6953-4.9707 27.6953-7.05078Q27.6953-9.14062 27.0459-11.04Q26.3965-12.9395 25.2197-14.5312Q24.043-16.123 22.4512-17.2998Q20.8594-18.4766 18.9551-19.126Q17.0508-19.7754 14.9609-19.7754Q12.8711-19.7754 10.9717-19.126Q9.07227-18.4766 7.48535-17.2998Q5.89844-16.123 4.72168-14.5312Q3.54492-12.9395 2.90039-11.04Q2.25586-9.14062 2.25586-7.05078Q2.25586-4.9707 2.90527-3.06641Q3.55469-1.16211 4.72656 0.429688Q5.89844 2.02148 7.49023 3.19336Q9.08203 4.36523 10.9814 5.01465Q12.8809 5.66406 14.9707 5.66406ZM14.9707 3.84766Q13.1641 3.84766 11.5283 3.2959Q9.89258 2.74414 8.53516 1.74805Q7.17773 0.751953 6.17676-0.610352Q5.17578-1.97266 4.62891-3.6084Q4.08203-5.24414 4.08203-7.05078Q4.08203-8.86719 4.62891-10.5029Q5.17578-12.1387 6.17188-13.501Q7.16797-14.8633 8.52539-15.8594Q9.88281-16.8555 11.5186-17.4023Q13.1543-17.9492 14.9609-17.9492Q16.7773-17.9492 18.4131-17.4023Q20.0488-16.8555 21.4111-15.8594Q22.7734-14.8633 23.7695-13.501Q24.7656-12.1387 25.3174-10.5029Q25.8691-8.86719 25.8691-7.05078Q25.8789-5.24414 25.332-3.6084Q24.7852-1.97266 23.7842-0.610352Q22.7832 0.751953 21.4209 1.74805Q20.0586 2.74414 18.4229 3.2959Q16.7871 3.84766 14.9707 3.84766ZM9.19922-7.05078Q9.19922-6.66992 9.45801-6.4209Q9.7168-6.17188 10.1172-6.17188L14.0625-6.17188L14.0625-2.2168Q14.0625-1.81641 14.3115-1.55762Q14.5605-1.29883 14.9512-1.29883Q15.3516-1.29883 15.6104-1.55273Q15.8691-1.80664 15.8691-2.2168L15.8691-6.17188L19.8242-6.17188Q20.2246-6.17188 20.4785-6.4209Q20.7324-6.66992 20.7324-7.05078Q20.7324-7.46094 20.4785-7.71484Q20.2246-7.96875 19.8242-7.96875L15.8691-7.96875L15.8691-11.9141Q15.8691-12.3242 15.6104-12.583Q15.3516-12.8418 14.9512-12.8418Q14.5605-12.8418 14.3115-12.583Q14.0625-12.3242 14.0625-11.9141L14.0625-7.96875L10.1172-7.96875Q9.70703-7.96875 9.45312-7.71484Q9.19922-7.46094 9.19922-7.05078Z"/>
  </g>
  <text style="stroke:none;fill:black;font-family:sans-serif;font-size:13;font-weight:bold;" transform="matrix(1 0 0 1 263 1953)">Design Variations</text>
  <text style="stroke:none;fill:black;font-family:sans-serif;font-size:13;" transform="matrix(1 0 0 1 263 1971)">Symbols are supported in up to nine weights and three scales.</text>
  <text style="stroke:none;fill:black;font-family:sans-serif;font-size:13;" transform="matrix(1 0 0 1 263 1989)">For optimal layout with text and other symbols, vertically align</text>
  <text style="stroke:none;fill:black;font-family:sans-serif;font-size:13;" transform="matrix(1 0 0 1 263 2007)">symbols with the adjacent text.</text>
  <line style="fill:none;stroke:#00AEEF;stroke-width:0.5;opacity:1.0;" x1="776" x2="776" y1="1919" y2="1933"/>
  <g transform="matrix(1 0 0 1 776 1933)">
   <path d="M3.31055 0.15625Q3.70117 0.15625 3.91602-0.00976562Q4.13086-0.175781 4.26758-0.585938L5.52734-4.0332L11.2891-4.0332L12.5488-0.585938Q12.6855-0.175781 12.9004-0.00976562Q13.1152 0.15625 13.4961 0.15625Q13.8867 0.15625 14.1162-0.0585938Q14.3457-0.273438 14.3457-0.644531Q14.3457-0.869141 14.2383-1.17188L9.6582-13.3691Q9.48242-13.8184 9.17969-14.043Q8.87695-14.2676 8.4082-14.2676Q7.5-14.2676 7.17773-13.3789L2.59766-1.16211Q2.49023-0.859375 2.49023-0.634766Q2.49023-0.263672 2.70996-0.0537109Q2.92969 0.15625 3.31055 0.15625ZM6.00586-5.51758L8.37891-12.0898L8.42773-12.0898L10.8008-5.51758Z"/>
  </g>
  <line style="fill:none;stroke:#00AEEF;stroke-width:0.5;opacity:1.0;" x1="793.197" x2="793.197" y1="1919" y2="1933"/>
  <text style="stroke:none;fill:black;font-family:sans-serif;font-size:13;font-weight:bold;" transform="matrix(1 0 0 1 776 1953)">Margins</text>
  <text style="stroke:none;fill:black;font-family:sans-serif;font-size:13;" transform="matrix(1 0 0 1 776 1971)">Leading and trailing margins on the left and right side of each symbol</text>
  <text style="stroke:none;fill:black;font-family:sans-serif;font-size:13;" transform="matrix(1 0 0 1 776 1989)">can be adjusted by modifying the x-location of the margin guidelines.</text>
  <text style="stroke:none;fill:black;font-family:sans-serif;font-size:13;" transform="matrix(1 0 0 1 776 2007)">Modifications are automatically applied proportionally to all</text>
  <text style="stroke:none;fill:black;font-family:sans-serif;font-size:13;" transform="matrix(1 0 0 1 776 2025)">scales and weights.</text>
  <g transform="matrix(1 0 0 1 1289 1933)">
   <path d="M2.8418 1.86523L4.54102 3.57422Q5.18555 4.22852 5.90332 4.17969Q6.62109 4.13086 7.31445 3.35938L18.0078-8.42773L17.041-9.4043L6.42578 2.27539Q6.16211 2.57812 5.89355 2.61719Q5.625 2.65625 5.27344 2.30469L4.10156 1.14258Q3.75 0.791016 3.79395 0.522461Q3.83789 0.253906 4.14062-0.0195312L15.6152-10.8203L14.6387-11.7871L3.04688-0.898438Q2.30469-0.214844 2.25098 0.498047Q2.19727 1.21094 2.8418 1.86523ZM9.25781-16.3281Q8.94531-16.0254 8.90625-15.6348Q8.86719-15.2441 9.04297-14.9512Q9.21875-14.6777 9.55566-14.541Q9.89258-14.4043 10.3809-14.5215Q11.4746-14.7754 12.5977-14.7314Q13.7207-14.6875 14.7949-13.9844L14.209-12.5293Q13.9551-11.9043 14.0674-11.4404Q14.1797-10.9766 14.5801-10.5664L16.875-8.25195Q17.2363-7.88086 17.5781-7.82227Q17.9199-7.76367 18.3398-7.8418L19.4043-8.03711L20.0684-7.36328L20.0293-6.80664Q20-6.43555 20.1221-6.12305Q20.2441-5.81055 20.6055-5.44922L21.3672-4.70703Q21.7285-4.3457 22.1533-4.33105Q22.5781-4.31641 22.9297-4.66797L25.8398-7.58789Q26.1914-7.93945 26.1816-8.35449Q26.1719-8.76953 25.8105-9.13086L25.0391-9.89258Q24.6875-10.2539 24.3799-10.3857Q24.0723-10.5176 23.7109-10.4883L23.1348-10.4395L22.4902-11.0742L22.7344-12.1973Q22.832-12.6172 22.6953-12.9834Q22.5586-13.3496 22.1191-13.7891L19.9219-15.9766Q18.6719-17.2168 17.2607-17.8369Q15.8496-18.457 14.4189-18.4814Q12.9883-18.5059 11.665-17.959Q10.3418-17.4121 9.25781-16.3281ZM10.752-15.957Q11.6602-16.6211 12.7002-16.9043Q13.7402-17.1875 14.8047-17.085Q15.8691-16.9824 16.8701-16.5137Q17.8711-16.0449 18.7012-15.2051L21.1328-12.793Q21.3086-12.6172 21.3525-12.4512Q21.3965-12.2852 21.3379-12.0312L21.0156-10.5469L22.5195-9.0625L23.5059-9.12109Q23.6914-9.13086 23.7891-9.09668Q23.8867-9.0625 24.0332-8.91602L24.6094-8.33984L22.168-5.89844L21.5918-6.47461Q21.4453-6.62109 21.4062-6.71875Q21.3672-6.81641 21.377-7.01172L21.4453-7.98828L19.9512-9.47266L18.4277-9.21875Q18.1836-9.16992 18.042-9.2041Q17.9004-9.23828 17.7148-9.41406L15.7129-11.416Q15.5176-11.5918 15.4932-11.7529Q15.4688-11.9141 15.5859-12.1875L16.4648-14.2773Q15.293-15.3711 13.8281-15.791Q12.3633-16.2109 10.8398-15.7617Q10.7227-15.7324 10.6885-15.8057Q10.6543-15.8789 10.752-15.957Z"/>
  </g>
  <text style="stroke:none;fill:black;font-family:sans-serif;font-size:13;font-weight:bold;" transform="matrix(1 0 0 1 1289 1953)">Exporting</text>
  <text style="stroke:none;fill:black;font-family:sans-serif;font-size:13;" transform="matrix(1 0 0 1 1289 1971)">Symbols should be outlined when exporting to ensure the</text>
  <text style="stroke:none;fill:black;font-family:sans-serif;font-size:13;" transform="matrix(1 0 0 1 1289 1989)">design is preserved when submitting to Xcode.</text>
  <text id="template-version" style="stroke:none;fill:black;font-family:sans-serif;font-size:13;text-anchor:end;" transform="matrix(1 0 0 1 3036 1933)">Template v.3.0</text>
  <text style="stroke:none;fill:black;font-family:sans-serif;font-size:13;text-anchor:end;" transform="matrix(1 0 0 1 3036 1951)">Requires Xcode 13 or greater</text>
  <text id="descriptive-name" style="stroke:none;fill:black;font-family:sans-serif;font-size:13;text-anchor:end;" transform="matrix(1 0 0 1 3036 1969)">Generated from info.circle.fill</text>
  <text style="stroke:none;fill:black;font-family:sans-serif;font-size:13;text-anchor:end;" transform="matrix(1 0 0 1 3036 1987)">Typeset at 100 points</text>
  <text style="stroke:none;fill:black;font-family:sans-serif;font-size:13;" transform="matrix(1 0 0 1 263 726)">Small</text>
  <text style="stroke:none;fill:black;font-family:sans-serif;font-size:13;" transform="matrix(1 0 0 1 263 1156)">Medium</text>
  <text style="stroke:none;fill:black;font-family:sans-serif;font-size:13;" transform="matrix(1 0 0 1 263 1586)">Large</text>
 </g>
 <g id="Guides">
  <g id="H-reference" style="fill:#27AAE1;stroke:none;" transform="matrix(1 0 0 1 339 696)">
   <path d="M0.993347 0L3.6377 0L29.3282-67.1326L30.0301-67.1326L30.0301-70.459L28.1227-70.459ZM11.6882-24.4797L46.9818-24.4797L46.2311-26.7288L12.4382-26.7288ZM55.1193 0L57.7637 0L30.6381-70.459L29.4327-70.459L29.4327-67.1326Z"/>
  </g>
  <line id="Baseline-S" style="fill:none;stroke:#27AAE1;opacity:1;stroke-width:0.5;" x1="263" x2="3036" y1="696" y2="696"/>
  <line id="Capline-S" style="fill:none;stroke:#27AAE1;opacity:1;stroke-width:0.5;" x1="263" x2="3036" y1="625.541" y2="625.541"/>
  <g id="H-reference" style="fill:#27AAE1;stroke:none;" transform="matrix(1 0 0 1 339 1126)">
   <path d="M0.993347 0L3.6377 0L29.3282-67.1326L30.0301-67.1326L30.0301-70.459L28.1227-70.459ZM11.6882-24.4797L46.9818-24.4797L46.2311-26.7288L12.4382-26.7288ZM55.1193 0L57.7637 0L30.6381-70.459L29.4327-70.459L29.4327-67.1326Z"/>
  </g>
  <line id="Baseline-M" style="fill:none;stroke:#27AAE1;opacity:1;stroke-width:0.5;" x1="263" x2="3036" y1="1126" y2="1126"/>
  <line id="Capline-M" style="fill:none;stroke:#27AAE1;opacity:1;stroke-width:0.5;" x1="263" x2="3036" y1="1055.54" y2="1055.54"/>
  <g id="H-reference" style="fill:#27AAE1;stroke:none;" transform="matrix(1 0 0 1 339 1556)">
   <path d="M0.993347 0L3.6377 0L29.3282-67.1326L30.0301-67.1326L30.0301-70.459L28.1227-70.459ZM11.6882-24.4797L46.9818-24.4797L46.2311-26.7288L12.4382-26.7288ZM55.1193 0L57.7637 0L30.6381-70.459L29.4327-70.459L29.4327-67.1326Z"/>
  </g>
  <line id="Baseline-L" style="fill:none;stroke:#27AAE1;opacity:1;stroke-width:0.5;" x1="263" x2="3036" y1="1556" y2="1556"/>
  <line id="Capline-L" style="fill:none;stroke:#27AAE1;opacity:1;stroke-width:0.5;" x1="263" x2="3036" y1="1485.54" y2="1485.54"/>
  <line id="left-margin-Regular-M" style="fill:none;stroke:#00AEEF;stroke-width:0.5;opacity:1.0;" x1="1391.3" x2="1391.3" y1="1030.79" y2="1150.12"/>
  <line id="right-margin-Regular-M" style="fill:none;stroke:#00AEEF;stroke-width:0.5;opacity:1.0;" x1="1508.39" x2="1508.39" y1="1030.79" y2="1150.12"/>
 </g>
 <g id="Symbols">
  <g id="Black-L" transform="matrix(1 0 0 1 2854.05 1556)">
   <path d="M79.3457 32.8613Q90.5762 32.8613 100.757 29.3945Q110.938 25.9277 119.458 19.6777Q127.979 13.4277 134.229 4.90723Q140.479-3.61328 143.945-13.7939Q147.412-23.9746 147.412-35.2051Q147.412-46.4355 143.945-56.6162Q140.479-66.7969 134.204-75.3174Q127.93-83.8379 119.434-90.1123Q110.938-96.3867 100.732-99.8291Q90.5273-103.271 79.2969-103.271Q68.1152-103.271 57.9102-99.8291Q47.7051-96.3867 39.209-90.1123Q30.7129-83.8379 24.4385-75.3174Q18.1641-66.7969 14.7217-56.6162Q11.2793-46.4355 11.2793-35.2051Q11.2793-23.9746 14.7217-13.7939Q18.1641-3.61328 24.4385 4.90723Q30.7129 13.4277 39.2334 19.6777Q47.7539 25.9277 57.9346 29.3945Q68.1152 32.8613 79.3457 32.8613ZM67.041 0.292969Q64.0625 0.292969 61.9873-1.63574Q59.9121-3.56445 59.9121-6.68945Q59.9121-9.57031 61.9873-11.5967Q64.0625-13.623 67.041-13.623L73.7793-13.623L73.7793-32.2266L68.457-32.2266Q65.4297-32.2266 63.3545-34.1553Q61.2793-36.084 61.2793-39.209Q61.2793-42.0898 63.3545-44.0918Q65.4297-46.0938 68.457-46.0938L81.6406-46.0938Q85.5957-46.0938 87.5732-43.6523Q89.5508-41.2109 89.5508-37.0605L89.5508-13.623L94.043-13.623Q97.0703-13.623 99.1455-11.5967Q101.221-9.57031 101.221-6.68945Q101.221-3.56445 99.1455-1.63574Q97.0703 0.292969 94.043 0.292969ZM79.4434-53.9551Q76.5137-53.9551 74.0479-55.4443Q71.582-56.9336 70.0928-59.3994Q68.6035-61.8652 68.6035-64.7949Q68.6035-69.4336 71.8262-72.6074Q75.0488-75.7812 79.4434-75.7812Q83.8867-75.7812 87.085-72.6074Q90.2832-69.4336 90.2832-64.7949Q90.2832-61.8652 88.7939-59.3994Q87.3047-56.9336 84.8633-55.4443Q82.4219-53.9551 79.4434-53.9551Z"/>
  </g>
  <g id="Heavy-L" transform="matrix(1 0 0 1 2558.4 1556)">
   <path d="M78.2715 31.7871Q89.3555 31.7871 99.3652 28.3691Q109.375 24.9512 117.749 18.7988Q126.123 12.6465 132.3 4.24805Q138.477-4.15039 141.895-14.1602Q145.312-24.1699 145.312-35.2051Q145.312-46.2402 141.895-56.2744Q138.477-66.3086 132.3-74.6826Q126.123-83.0566 117.749-89.2578Q109.375-95.459 99.3408-98.8525Q89.3066-102.246 78.2227-102.246Q67.2363-102.246 57.2021-98.8525Q47.168-95.459 38.7939-89.2578Q30.4199-83.0566 24.2432-74.6826Q18.0664-66.3086 14.6729-56.2744Q11.2793-46.2402 11.2793-35.2051Q11.2793-24.1699 14.6729-14.1602Q18.0664-4.15039 24.2432 4.24805Q30.4199 12.6465 38.8184 18.7988Q47.2168 24.9512 57.2266 28.3691Q67.2363 31.7871 78.2715 31.7871ZM66.1621 0.292969Q63.4766 0.292969 61.6211-1.46484Q59.7656-3.22266 59.7656-6.00586Q59.7656-8.59375 61.6211-10.4248Q63.4766-12.2559 66.1621-12.2559L73.3887-12.2559L73.3887-33.9844L67.4805-33.9844Q64.7461-33.9844 62.8906-35.7178Q61.0352-37.4512 61.0352-40.2344Q61.0352-42.8223 62.8906-44.6289Q64.7461-46.4355 67.4805-46.4355L80.4688-46.4355Q83.9844-46.4355 85.7666-44.2383Q87.5488-42.041 87.5488-38.3789L87.5488-12.2559L93.0176-12.2559Q95.752-12.2559 97.6074-10.4248Q99.4629-8.59375 99.4629-6.00586Q99.4629-3.22266 97.6074-1.46484Q95.752 0.292969 93.0176 0.292969ZM78.2715-55.127Q75.5371-55.127 73.2422-56.5186Q70.9473-57.9102 69.5557-60.2051Q68.1641-62.5 68.1641-65.1855Q68.1641-69.5312 71.1426-72.4854Q74.1211-75.4395 78.2715-75.4395Q82.4219-75.4395 85.376-72.4854Q88.3301-69.5312 88.3301-65.1855Q88.3301-62.5 86.9385-60.2051Q85.5469-57.9102 83.3008-56.5186Q81.0547-55.127 78.2715-55.127Z"/>
  </g>
  <g id="Bold-L" transform="matrix(1 0 0 1 2262.87 1556)">
   <path d="M77.0996 30.6152Q87.9395 30.6152 97.7783 27.2461Q107.617 23.877 115.869 17.8223Q124.121 11.7676 130.176 3.51562Q136.23-4.73633 139.6-14.5752Q142.969-24.4141 142.969-35.2539Q142.969-46.0938 139.6-55.9326Q136.23-65.7715 130.151-73.999Q124.072-82.2266 115.845-88.3057Q107.617-94.3848 97.7539-97.7295Q87.8906-101.074 77.0508-101.074Q66.2598-101.074 56.3965-97.7295Q46.5332-94.3848 38.3301-88.3057Q30.127-82.2266 24.0479-73.999Q17.9688-65.7715 14.624-55.9326Q11.2793-46.0938 11.2793-35.2539Q11.2793-24.4141 14.624-14.5752Q17.9688-4.73633 24.0479 3.51562Q30.127 11.7676 38.3545 17.8223Q46.582 23.877 56.4209 27.2461Q66.2598 30.6152 77.0996 30.6152ZM65.2344 0.195312Q62.8906 0.195312 61.2549-1.34277Q59.6191-2.88086 59.6191-5.32227Q59.6191-7.56836 61.2549-9.15527Q62.8906-10.7422 65.2344-10.7422L72.998-10.7422L72.998-35.9863L66.4062-35.9863Q64.0625-35.9863 62.4268-37.5244Q60.791-39.0625 60.791-41.5039Q60.791-43.75 62.4268-45.3369Q64.0625-46.9238 66.4062-46.9238L79.1504-46.9238Q82.2266-46.9238 83.7646-44.9951Q85.3027-43.0664 85.3027-39.8926L85.3027-10.7422L91.9434-10.7422Q94.3359-10.7422 95.9473-9.15527Q97.5586-7.56836 97.5586-5.32227Q97.5586-2.88086 95.9473-1.34277Q94.3359 0.195312 91.9434 0.195312ZM76.9531-56.4941Q74.4141-56.4941 72.3145-57.7637Q70.2148-59.0332 68.9697-61.1328Q67.7246-63.2324 67.7246-65.7227Q67.7246-69.6777 70.4346-72.3877Q73.1445-75.0977 76.9531-75.0977Q80.7617-75.0977 83.4717-72.3877Q86.1816-69.6777 86.1816-65.7227Q86.1816-63.2324 84.9121-61.1328Q83.6426-59.0332 81.5674-57.7637Q79.4922-56.4941 76.9531-56.4941Z"/>
  </g>
  <g id="Semibold-L" transform="matrix(1 0 0 1 1966.97 1556)">
   <path d="M76.2695 29.7852Q86.9629 29.7852 96.6797 26.4648Q106.396 23.1445 114.551 17.1631Q122.705 11.1816 128.687 3.02734Q134.668-5.12695 137.988-14.8438Q141.309-24.5605 141.309-35.2539Q141.309-45.9473 137.988-55.6641Q134.668-65.3809 128.662-73.5107Q122.656-81.6406 114.526-87.6465Q106.396-93.6523 96.6553-96.9727Q86.9141-100.293 76.2207-100.293Q65.5273-100.293 55.8105-96.9727Q46.0938-93.6523 37.9883-87.6465Q29.8828-81.6406 23.877-73.5107Q17.8711-65.3809 14.5752-55.6641Q11.2793-45.9473 11.2793-35.2539Q11.2793-24.5605 14.5996-14.8438Q17.9199-5.12695 23.9014 3.02734Q29.8828 11.1816 38.0127 17.1631Q46.1426 23.1445 55.8594 26.4648Q65.5762 29.7852 76.2695 29.7852ZM64.5996 0.195312Q62.4512 0.195312 60.9863-1.19629Q59.5215-2.58789 59.5215-4.78516Q59.5215-6.78711 60.9863-8.22754Q62.4512-9.66797 64.5996-9.66797L72.7051-9.66797L72.7051-37.3535L65.6738-37.3535Q63.5254-37.3535 62.085-38.7207Q60.6445-40.0879 60.6445-42.2852Q60.6445-44.2871 62.085-45.7275Q63.5254-47.168 65.6738-47.168L78.2715-47.168Q80.957-47.168 82.373-45.4346Q83.7891-43.7012 83.7891-40.918L83.7891-9.66797L91.1621-9.66797Q93.3105-9.66797 94.7754-8.22754Q96.2402-6.78711 96.2402-4.78516Q96.2402-2.58789 94.7754-1.19629Q93.3105 0.195312 91.1621 0.195312ZM76.0254-57.4219Q73.6816-57.4219 71.7041-58.5938Q69.7266-59.7656 68.5547-61.7188Q67.3828-63.6719 67.3828-66.0645Q67.3828-69.7266 69.9219-72.2656Q72.4609-74.8047 76.0254-74.8047Q79.6387-74.8047 82.1533-72.2656Q84.668-69.7266 84.668-66.0645Q84.668-63.6719 83.4961-61.7188Q82.3242-59.7656 80.3711-58.5938Q78.418-57.4219 76.0254-57.4219Z"/>
  </g>
  <g id="Medium-L" transform="matrix(1 0 0 1 1670.87 1556)">
   <path d="M75.6836 29.1504Q86.2305 29.1504 95.8496 25.8545Q105.469 22.5586 113.55 16.626Q121.631 10.6934 127.563 2.63672Q133.496-5.41992 136.792-15.0635Q140.088-24.707 140.088-35.2539Q140.088-45.8496 136.792-55.4688Q133.496-65.0879 127.539-73.1445Q121.582-81.2012 113.525-87.1582Q105.469-93.1152 95.8252-96.3867Q86.1816-99.6582 75.6348-99.6582Q65.0391-99.6582 55.4199-96.3867Q45.8008-93.1152 37.7441-87.1582Q29.6875-81.2012 23.7549-73.1445Q17.8223-65.0879 14.5508-55.4688Q11.2793-45.8496 11.2793-35.2539Q11.2793-24.707 14.5508-15.0635Q17.8223-5.41992 23.7549 2.63672Q29.6875 10.6934 37.7686 16.626Q45.8496 22.5586 55.4688 25.8545Q65.0879 29.1504 75.6836 29.1504ZM64.0625 0.146484Q62.1094 0.146484 60.7666-1.12305Q59.4238-2.39258 59.4238-4.39453Q59.4238-6.20117 60.7666-7.54395Q62.1094-8.88672 64.0625-8.88672L72.4609-8.88672L72.4609-38.3789L65.0879-38.3789Q63.1348-38.3789 61.792-39.6484Q60.4492-40.918 60.4492-42.9199Q60.4492-44.7266 61.792-46.0449Q63.1348-47.3633 65.0879-47.3633L77.5391-47.3633Q80.0293-47.3633 81.2988-45.8008Q82.5684-44.2383 82.5684-41.6504L82.5684-8.88672L90.5273-8.88672Q92.5293-8.88672 93.8721-7.54395Q95.2148-6.20117 95.2148-4.39453Q95.2148-2.39258 93.8721-1.12305Q92.5293 0.146484 90.5273 0.146484ZM75.293-58.1055Q73.0469-58.1055 71.1914-59.2041Q69.3359-60.3027 68.2129-62.1582Q67.0898-64.0137 67.0898-66.3086Q67.0898-69.7754 69.5068-72.1924Q71.9238-74.6094 75.293-74.6094Q78.7598-74.6094 81.1279-72.1924Q83.4961-69.7754 83.4961-66.3086Q83.4961-64.0137 82.3975-62.1582Q81.2988-60.3027 79.4434-59.2041Q77.5879-58.1055 75.293-58.1055Z"/>
  </g>
  <g id="Regular-L" transform="matrix(1 0 0 1 1374.97 1556)">
   <path d="M74.8535 28.3203Q85.3027 28.3203 94.7998 25.0732Q104.297 21.8262 112.256 15.9668Q120.215 10.1074 126.099 2.14844Q131.982-5.81055 135.229-15.332Q138.477-24.8535 138.477-35.2539Q138.477-45.7031 135.229-55.2002Q131.982-64.6973 126.099-72.6562Q120.215-80.6152 112.256-86.499Q104.297-92.3828 94.7754-95.6299Q85.2539-98.877 74.8047-98.877Q64.3555-98.877 54.8584-95.6299Q45.3613-92.3828 37.4268-86.499Q29.4922-80.6152 23.6084-72.6562Q17.7246-64.6973 14.502-55.2002Q11.2793-45.7031 11.2793-35.2539Q11.2793-24.8535 14.5264-15.332Q17.7734-5.81055 23.6328 2.14844Q29.4922 10.1074 37.4512 15.9668Q45.4102 21.8262 54.9072 25.0732Q64.4043 28.3203 74.8535 28.3203ZM63.4277 0.146484Q61.6699 0.146484 60.498-0.976562Q59.3262-2.09961 59.3262-3.85742Q59.3262-5.46875 60.498-6.64062Q61.6699-7.8125 63.4277-7.8125L72.168-7.8125L72.168-39.6973L64.3555-39.6973Q62.6465-39.6973 61.4746-40.8203Q60.3027-41.9434 60.3027-43.7012Q60.3027-45.3125 61.4746-46.4844Q62.6465-47.6562 64.3555-47.6562L76.6602-47.6562Q78.8086-47.6562 79.9316-46.2646Q81.0547-44.873 81.0547-42.6758L81.0547-7.8125L89.7949-7.8125Q91.5527-7.8125 92.7246-6.64062Q93.8965-5.46875 93.8965-3.85742Q93.8965-2.09961 92.7246-0.976562Q91.5527 0.146484 89.7949 0.146484ZM74.4141-58.9844Q72.3145-58.9844 70.5811-60.0098Q68.8477-61.0352 67.8223-62.7686Q66.7969-64.502 66.7969-66.6016Q66.7969-69.8242 69.0186-72.0703Q71.2402-74.3164 74.4141-74.3164Q77.6367-74.3164 79.834-72.0703Q82.0312-69.8242 82.0312-66.6016Q82.0312-64.502 81.0059-62.7686Q79.9805-61.0352 78.2715-60.0098Q76.5625-58.9844 74.4141-58.9844Z"/>
  </g>
  <g id="Light-L" transform="matrix(1 0 0 1 1079.18 1556)">
   <path d="M73.9258 27.3926Q84.2285 27.3926 93.6035 24.1943Q102.979 20.9961 110.815 15.2344Q118.652 9.47266 124.438 1.63574Q130.225-6.20117 133.423-15.5762Q136.621-24.9512 136.621-35.2539Q136.621-45.5566 133.423-54.9316Q130.225-64.3066 124.438-72.1436Q118.652-79.9805 110.815-85.7666Q102.979-91.5527 93.6035-94.751Q84.2285-97.9492 73.877-97.9492Q63.5742-97.9492 54.2236-94.751Q44.873-91.5527 37.0361-85.7666Q29.1992-79.9805 23.4131-72.1436Q17.627-64.3066 14.4531-54.9316Q11.2793-45.5566 11.2793-35.2539Q11.2793-24.9512 14.4775-15.5762Q17.6758-6.20117 23.4375 1.63574Q29.1992 9.47266 37.0361 15.2344Q44.873 20.9961 54.248 24.1943Q63.623 27.3926 73.9258 27.3926ZM62.3535-0.488281Q60.9863-0.488281 60.083-1.36719Q59.1797-2.24609 59.1797-3.61328Q59.1797-4.88281 60.083-5.78613Q60.9863-6.68945 62.3535-6.68945L72.1191-6.68945L72.1191-41.6016L63.0859-41.6016Q61.7188-41.6016 60.8154-42.5049Q59.9121-43.4082 59.9121-44.7754Q59.9121-46.0449 60.8154-46.9482Q61.7188-47.8516 63.0859-47.8516L75.4883-47.8516Q77.1484-47.8516 78.0273-46.8018Q78.9062-45.752 78.9062-44.1406L78.9062-6.68945L88.623-6.68945Q90.0391-6.68945 90.9424-5.78613Q91.8457-4.88281 91.8457-3.61328Q91.8457-2.24609 90.9424-1.36719Q90.0391-0.488281 88.623-0.488281ZM73.6328-60.0098Q71.875-60.0098 70.4102-60.8643Q68.9453-61.7188 68.0908-63.1592Q67.2363-64.5996 67.2363-66.3574Q67.2363-69.0918 69.1162-70.9717Q70.9961-72.8516 73.6328-72.8516Q76.3184-72.8516 78.1982-70.9717Q80.0781-69.0918 80.0781-66.3574Q80.0781-64.5996 79.1992-63.1592Q78.3203-61.7188 76.8799-60.8643Q75.4395-60.0098 73.6328-60.0098Z"/>
  </g>
  <g id="Thin-L" transform="matrix(1 0 0 1 783.689 1556)">
   <path d="M72.7051 26.1719Q82.8613 26.1719 92.041 23.0469Q101.221 19.9219 108.911 14.2822Q116.602 8.64258 122.266 0.952148Q127.93-6.73828 131.055-15.9424Q134.18-25.1465 134.18-35.2539Q134.18-45.4102 131.055-54.5898Q127.93-63.7695 122.29-71.46Q116.65-79.1504 108.936-84.8145Q101.221-90.4785 92.0166-93.6035Q82.8125-96.7285 72.7051-96.7285Q62.5488-96.7285 53.3691-93.6035Q44.1895-90.4785 36.499-84.8145Q28.8086-79.1504 23.1689-71.46Q17.5293-63.7695 14.4043-54.5898Q11.2793-45.4102 11.2793-35.2539Q11.2793-25.1465 14.4043-15.9424Q17.5293-6.73828 23.1689 0.952148Q28.8086 8.64258 36.5234 14.2822Q44.2383 19.9219 53.418 23.0469Q62.5977 26.1719 72.7051 26.1719ZM61.0352-1.26953Q60.1074-1.26953 59.5703-1.85547Q59.0332-2.44141 59.0332-3.27148Q59.0332-4.05273 59.5703-4.63867Q60.1074-5.22461 61.0352-5.22461L72.1191-5.22461L72.1191-44.1406L61.4258-44.1406Q60.5469-44.1406 59.9854-44.751Q59.4238-45.3613 59.4238-46.1426Q59.4238-46.9727 59.9854-47.5586Q60.5469-48.1445 61.4258-48.1445L74.0234-48.1445Q75-48.1445 75.5371-47.5342Q76.0742-46.9238 76.0742-46.0449L76.0742-5.22461L87.1582-5.22461Q88.0371-5.22461 88.5986-4.63867Q89.1602-4.05273 89.1602-3.27148Q89.1602-2.44141 88.5986-1.85547Q88.0371-1.26953 87.1582-1.26953ZM72.6562-61.377Q71.3379-61.377 70.2393-61.9873Q69.1406-62.5977 68.4814-63.6719Q67.8223-64.7461 67.8223-66.0645Q67.8223-68.0664 69.2627-69.5068Q70.7031-70.9473 72.6562-70.9473Q74.6582-70.9473 76.0986-69.5068Q77.5391-68.0664 77.5391-66.0645Q77.5391-64.7461 76.8799-63.6719Q76.2207-62.5977 75.1221-61.9873Q74.0234-61.377 72.6562-61.377Z"/>
  </g>
  <g id="Ultralight-L" transform="matrix(1 0 0 1 487.603 1556)">
   <path d="M72.0703 25.5371Q82.1289 25.5371 91.2354 22.4609Q100.342 19.3848 107.935 13.7939Q115.527 8.20312 121.143 0.585938Q126.758-7.03125 129.858-16.1133Q132.959-25.1953 132.959-35.2539Q132.959-45.3125 129.858-54.4189Q126.758-63.5254 121.167-71.1182Q115.576-78.7109 107.959-84.3262Q100.342-89.9414 91.2354-93.0176Q82.1289-96.0938 72.0703-96.0938Q62.0605-96.0938 52.9541-93.0176Q43.8477-89.9414 36.2305-84.3262Q28.6133-78.7109 23.0225-71.1182Q17.4316-63.5254 14.3555-54.4189Q11.2793-45.3125 11.2793-35.2539Q11.2793-25.1953 14.3555-16.1133Q17.4316-7.03125 23.0225 0.585938Q28.6133 8.20312 36.2305 13.7939Q43.8477 19.3848 52.9541 22.4609Q62.0605 25.5371 72.0703 25.5371ZM60.3027-1.70898Q59.668-1.70898 59.3018-2.14844Q58.9355-2.58789 58.9355-3.125Q58.9355-3.66211 59.3018-4.07715Q59.668-4.49219 60.3027-4.49219L72.1191-4.49219L72.1191-45.459L60.5469-45.459Q59.9121-45.459 59.5459-45.8984Q59.1797-46.3379 59.1797-46.875Q59.1797-47.4609 59.5459-47.876Q59.9121-48.291 60.5469-48.291L73.2422-48.291Q73.877-48.291 74.2432-47.9004Q74.6094-47.5098 74.6094-47.0215L74.6094-4.49219L86.377-4.49219Q87.0117-4.49219 87.3779-4.07715Q87.7441-3.66211 87.7441-3.125Q87.7441-2.58789 87.3779-2.14844Q87.0117-1.70898 86.377-1.70898ZM72.168-62.0605Q71.0449-62.0605 70.1416-62.5732Q69.2383-63.0859 68.6768-63.9648Q68.1152-64.8438 68.1152-65.918Q68.1152-67.5781 69.3115-68.7744Q70.5078-69.9707 72.168-69.9707Q73.7793-69.9707 74.9756-68.7744Q76.1719-67.5781 76.1719-65.918Q76.1719-64.8438 75.6348-63.9648Q75.0977-63.0859 74.1699-62.5732Q73.2422-62.0605 72.168-62.0605Z"/>
  </g>
  <g id="Black-M" transform="matrix(1 0 0 1 2871.32 1126)">
   <path d="M62.0605 18.1152Q73.0957 18.1152 82.7637 13.9648Q92.4316 9.81445 99.7559 2.46582Q107.08-4.88281 111.255-14.5264Q115.43-24.1699 115.43-35.2051Q115.43-46.2402 111.255-55.8838Q107.08-65.5273 99.7559-72.876Q92.4316-80.2246 82.7637-84.375Q73.0957-88.5254 62.0605-88.5254Q51.0742-88.5254 41.4062-84.375Q31.7383-80.2246 24.3896-72.876Q17.041-65.5273 12.8906-55.8838Q8.74023-46.2402 8.74023-35.2051Q8.74023-24.1699 12.8906-14.5264Q17.041-4.88281 24.3896 2.46582Q31.7383 9.81445 41.4062 13.9648Q51.0742 18.1152 62.0605 18.1152ZM52.3926-7.86133Q49.9023-7.86133 48.2178-9.42383Q46.5332-10.9863 46.5332-13.623Q46.5332-15.9668 48.2178-17.627Q49.9023-19.2871 52.3926-19.2871L57.5195-19.2871L57.5195-32.0312L53.4668-32.0312Q50.9766-32.0312 49.292-33.6182Q47.6074-35.2051 47.6074-37.7441Q47.6074-40.1367 49.292-41.7725Q50.9766-43.4082 53.4668-43.4082L63.916-43.4082Q67.1387-43.4082 68.7744-41.4062Q70.4102-39.4043 70.4102-35.9863L70.4102-19.2871L73.3887-19.2871Q75.8789-19.2871 77.5635-17.627Q79.248-15.9668 79.248-13.623Q79.248-10.9863 77.5635-9.42383Q75.8789-7.86133 73.3887-7.86133ZM62.3535-49.0723Q58.8379-49.0723 56.2744-51.6602Q53.7109-54.248 53.7109-57.7148Q53.7109-61.4258 56.2744-63.9404Q58.8379-66.4551 62.3535-66.4551Q65.8691-66.4551 68.4326-63.9404Q70.9961-61.4258 70.9961-57.7148Q70.9961-54.248 68.4326-51.6602Q65.8691-49.0723 62.3535-49.0723Z"/>
  </g>
  <g id="Heavy-M" transform="matrix(1 0 0 1 2575.44 1126)">
   <path d="M61.2305 17.2852Q72.0703 17.2852 81.5918 13.1836Q91.1133 9.08203 98.3154 1.85547Q105.518-5.37109 109.644-14.8682Q113.77-24.3652 113.77-35.2051Q113.77-46.0449 109.644-55.542Q105.518-65.0391 98.3154-72.29Q91.1133-79.541 81.5918-83.6182Q72.0703-87.6953 61.2305-87.6953Q50.4395-87.6953 40.918-83.6182Q31.3965-79.541 24.1699-72.29Q16.9434-65.0391 12.8418-55.542Q8.74023-46.0449 8.74023-35.2051Q8.74023-24.3652 12.8418-14.8682Q16.9434-5.37109 24.1699 1.85547Q31.3965 9.08203 40.918 13.1836Q50.4395 17.2852 61.2305 17.2852ZM51.8066-7.76367Q49.5117-7.76367 47.9736-9.2041Q46.4355-10.6445 46.4355-12.9883Q46.4355-15.1367 47.9736-16.6504Q49.5117-18.1641 51.8066-18.1641L57.1777-18.1641L57.1777-33.3496L52.7832-33.3496Q50.5371-33.3496 48.999-34.79Q47.4609-36.2305 47.4609-38.5742Q47.4609-40.7227 48.999-42.2119Q50.5371-43.7012 52.7832-43.7012L63.0371-43.7012Q65.9668-43.7012 67.4316-41.8701Q68.8965-40.0391 68.8965-36.9629L68.8965-18.1641L72.6562-18.1641Q74.9512-18.1641 76.4893-16.6504Q78.0273-15.1367 78.0273-12.9883Q78.0273-10.6445 76.4893-9.2041Q74.9512-7.76367 72.6562-7.76367ZM61.377-50Q58.0566-50 55.6396-52.4414Q53.2227-54.8828 53.2227-58.1543Q53.2227-61.6699 55.6396-64.0381Q58.0566-66.4062 61.377-66.4062Q64.6973-66.4062 67.1143-64.0381Q69.5312-61.6699 69.5312-58.1543Q69.5312-54.8828 67.1143-52.4414Q64.6973-50 61.377-50Z"/>
  </g>
  <g id="Bold-M" transform="matrix(1 0 0 1 2279.66 1126)">
   <path d="M60.3027 16.3574Q70.9473 16.3574 80.2734 12.3291Q89.5996 8.30078 96.7041 1.17188Q103.809-5.95703 107.861-15.2832Q111.914-24.6094 111.914-35.2539Q111.914-45.8496 107.861-55.1758Q103.809-64.502 96.7041-71.6309Q89.5996-78.7598 80.249-82.7881Q70.8984-86.8164 60.3027-86.8164Q49.707-86.8164 40.3564-82.7881Q31.0059-78.7598 23.9014-71.6309Q16.7969-64.502 12.7686-55.1758Q8.74023-45.8496 8.74023-35.2539Q8.74023-24.6094 12.7686-15.2832Q16.7969-5.95703 23.9258 1.17188Q31.0547 8.30078 40.3809 12.3291Q49.707 16.3574 60.3027 16.3574ZM51.0742-7.71484Q49.0723-7.71484 47.6807-9.00879Q46.2891-10.3027 46.2891-12.4023Q46.2891-14.3066 47.6807-15.6494Q49.0723-16.9922 51.0742-16.9922L56.7383-16.9922L56.7383-34.8633L52.0508-34.8633Q50.0488-34.8633 48.6572-36.1572Q47.2656-37.4512 47.2656-39.502Q47.2656-41.4551 48.6572-42.7979Q50.0488-44.1406 52.0508-44.1406L62.0117-44.1406Q64.5996-44.1406 65.918-42.5049Q67.2363-40.8691 67.2363-38.1348L67.2363-16.9922L71.8262-16.9922Q73.8281-16.9922 75.2197-15.6494Q76.6113-14.3066 76.6113-12.4023Q76.6113-10.3027 75.2197-9.00879Q73.8281-7.71484 71.8262-7.71484ZM60.2539-51.123Q57.1289-51.123 54.8828-53.3936Q52.6367-55.6641 52.6367-58.7402Q52.6367-62.0117 54.8828-64.2334Q57.1289-66.4551 60.2539-66.4551Q63.3789-66.4551 65.6006-64.2334Q67.8223-62.0117 67.8223-58.7402Q67.8223-55.6641 65.6006-53.3936Q63.3789-51.123 60.2539-51.123Z"/>
  </g>
  <g id="Semibold-M" transform="matrix(1 0 0 1 1983.6 1126)">
   <path d="M59.668 15.6738Q70.1172 15.6738 79.3457 11.6943Q88.5742 7.71484 95.6055 0.683594Q102.637-6.34766 106.616-15.5518Q110.596-24.7559 110.596-35.2539Q110.596-45.7031 106.616-54.9072Q102.637-64.1113 95.6055-71.1426Q88.5742-78.1738 79.3457-82.1777Q70.1172-86.1816 59.6191-86.1816Q49.1699-86.1816 39.9658-82.1777Q30.7617-78.1738 23.7305-71.1426Q16.6992-64.1113 12.7197-54.9072Q8.74023-45.7031 8.74023-35.2539Q8.74023-24.7559 12.7197-15.5518Q16.6992-6.34766 23.7305 0.683594Q30.7617 7.71484 39.9902 11.6943Q49.2188 15.6738 59.668 15.6738ZM50.5859-7.66602Q48.7305-7.66602 47.4609-8.83789Q46.1914-10.0098 46.1914-11.9141Q46.1914-13.6719 47.4609-14.917Q48.7305-16.1621 50.5859-16.1621L56.4453-16.1621L56.4453-35.8887L51.5137-35.8887Q49.6582-35.8887 48.3887-37.0605Q47.1191-38.2324 47.1191-40.1367Q47.1191-41.8945 48.3887-43.1152Q49.6582-44.3359 51.5137-44.3359L61.2793-44.3359Q63.623-44.3359 64.8193-42.8467Q66.0156-41.3574 66.0156-38.8672L66.0156-16.1621L71.1914-16.1621Q73.0957-16.1621 74.3408-14.917Q75.5859-13.6719 75.5859-11.9141Q75.5859-10.0098 74.3408-8.83789Q73.0957-7.66602 71.1914-7.66602ZM59.4238-51.8555Q56.4453-51.8555 54.3213-54.0039Q52.1973-56.1523 52.1973-59.082Q52.1973-62.1582 54.3213-64.2822Q56.4453-66.4062 59.4238-66.4062Q62.4512-66.4062 64.5508-64.2822Q66.6504-62.1582 66.6504-59.082Q66.6504-56.1523 64.5508-54.0039Q62.4512-51.8555 59.4238-51.8555Z"/>
  </g>
  <g id="Medium-M" transform="matrix(1 0 0 1 1687.37 1126)">
   <path d="M59.1797 15.1855Q69.5312 15.1855 78.6621 11.2305Q87.793 7.27539 94.751 0.317383Q101.709-6.64062 105.664-15.7715Q109.619-24.9023 109.619-35.2539Q109.619-45.6055 105.664-54.7363Q101.709-63.8672 94.751-70.8252Q87.793-77.7832 78.6377-81.7383Q69.4824-85.6934 59.1309-85.6934Q48.7793-85.6934 39.6484-81.7383Q30.5176-77.7832 23.584-70.8252Q16.6504-63.8672 12.6953-54.7363Q8.74023-45.6055 8.74023-35.2539Q8.74023-24.9023 12.6953-15.7715Q16.6504-6.64062 23.6084 0.317383Q30.5664 7.27539 39.6973 11.2305Q48.8281 15.1855 59.1797 15.1855ZM50.2441-7.56836Q48.4863-7.56836 47.3145-8.69141Q46.1426-9.81445 46.1426-11.5723Q46.1426-13.1836 47.3145-14.3311Q48.4863-15.4785 50.2441-15.4785L56.25-15.4785L56.25-36.6211L51.123-36.6211Q49.4141-36.6211 48.2422-37.7441Q47.0703-38.8672 47.0703-40.5762Q47.0703-42.2363 48.2422-43.3838Q49.4141-44.5312 51.123-44.5312L60.7422-44.5312Q62.9395-44.5312 64.0625-43.1396Q65.1855-41.748 65.1855-39.4531L65.1855-15.4785L70.8008-15.4785Q72.5098-15.4785 73.7061-14.3311Q74.9023-13.1836 74.9023-11.5723Q74.9023-9.81445 73.7061-8.69141Q72.5098-7.56836 70.8008-7.56836ZM58.8867-52.3926Q56.0059-52.3926 53.9551-54.4434Q51.9043-56.4941 51.9043-59.375Q51.9043-62.3047 53.9551-64.3555Q56.0059-66.4062 58.8867-66.4062Q61.8164-66.4062 63.8184-64.3555Q65.8203-62.3047 65.8203-59.375Q65.8203-56.4941 63.8184-54.4434Q61.8164-52.3926 58.8867-52.3926Z"/>
  </g>
  <g id="Regular-M" transform="matrix(1 0 0 1 1391.3 1126)">
   <path d="M58.5449 14.5508Q68.75 14.5508 77.7588 10.6445Q86.7676 6.73828 93.6523-0.146484Q100.537-7.03125 104.443-16.04Q108.35-25.0488 108.35-35.2539Q108.35-45.459 104.443-54.4678Q100.537-63.4766 93.6523-70.3613Q86.7676-77.2461 77.7344-81.1523Q68.7012-85.0586 58.4961-85.0586Q48.291-85.0586 39.2822-81.1523Q30.2734-77.2461 23.4131-70.3613Q16.5527-63.4766 12.6465-54.4678Q8.74023-45.459 8.74023-35.2539Q8.74023-25.0488 12.6465-16.04Q16.5527-7.03125 23.4375-0.146484Q30.3223 6.73828 39.3311 10.6445Q48.3398 14.5508 58.5449 14.5508ZM49.7559-7.51953Q48.1934-7.51953 47.1191-8.52051Q46.0449-9.52148 46.0449-11.084Q46.0449-12.5488 47.1191-13.5986Q48.1934-14.6484 49.7559-14.6484L55.957-14.6484L55.957-37.6465L50.5859-37.6465Q49.0723-37.6465 47.998-38.6475Q46.9238-39.6484 46.9238-41.2109Q46.9238-42.6758 47.998-43.7256Q49.0723-44.7754 50.5859-44.7754L60.0586-44.7754Q62.0117-44.7754 63.0127-43.5059Q64.0137-42.2363 64.0137-40.1855L64.0137-14.6484L70.2148-14.6484Q71.7773-14.6484 72.8516-13.5986Q73.9258-12.5488 73.9258-11.084Q73.9258-9.52148 72.8516-8.52051Q71.7773-7.51953 70.2148-7.51953ZM58.1055-53.125Q55.3711-53.125 53.4424-55.0537Q51.5137-56.9824 51.5137-59.7168Q51.5137-62.5 53.4424-64.4287Q55.3711-66.3574 58.1055-66.3574Q60.8887-66.3574 62.7686-64.4287Q64.6484-62.5 64.6484-59.7168Q64.6484-56.9824 62.7686-55.0537Q60.8887-53.125 58.1055-53.125Z"/>
  </g>
  <g id="Light-M" transform="matrix(1 0 0 1 1095.41 1126)">
   <path d="M57.7148 13.7207Q67.7734 13.7207 76.6357 9.8877Q85.498 6.05469 92.2607-0.708008Q99.0234-7.4707 102.856-16.333Q106.689-25.1953 106.689-35.2539Q106.689-45.3125 102.856-54.1748Q99.0234-63.0371 92.2607-69.7998Q85.498-76.5625 76.6113-80.3955Q67.7246-84.2285 57.666-84.2285Q47.6074-84.2285 38.7451-80.3955Q29.8828-76.5625 23.1445-69.7998Q16.4062-63.0371 12.5732-54.1748Q8.74023-45.3125 8.74023-35.2539Q8.74023-25.1953 12.5732-16.333Q16.4062-7.4707 23.1689-0.708008Q29.9316 6.05469 38.7939 9.8877Q47.6562 13.7207 57.7148 13.7207ZM48.8281-8.05664Q47.6074-8.05664 46.7773-8.8623Q45.9473-9.66797 45.9473-10.8887Q45.9473-12.0117 46.7773-12.8418Q47.6074-13.6719 48.8281-13.6719L55.957-13.6719L55.957-39.3555L49.4629-39.3555Q48.2422-39.3555 47.4365-40.1611Q46.6309-40.9668 46.6309-42.1875Q46.6309-43.3105 47.4365-44.1406Q48.2422-44.9707 49.4629-44.9707L59.0332-44.9707Q60.5469-44.9707 61.3281-43.9941Q62.1094-43.0176 62.1094-41.5039L62.1094-13.6719L69.1895-13.6719Q70.459-13.6719 71.2891-12.8418Q72.1191-12.0117 72.1191-10.8887Q72.1191-9.66797 71.2891-8.8623Q70.459-8.05664 69.1895-8.05664ZM57.4707-54.0527Q55.1758-54.0527 53.5645-55.6396Q51.9531-57.2266 51.9531-59.5215Q51.9531-61.8164 53.5645-63.4521Q55.1758-65.0879 57.4707-65.0879Q59.7656-65.0879 61.3525-63.4521Q62.9395-61.8164 62.9395-59.5215Q62.9395-57.2266 61.3525-55.6396Q59.7656-54.0527 57.4707-54.0527Z"/>
  </g>
  <g id="Thin-M" transform="matrix(1 0 0 1 799.793 1126)">
   <path d="M56.5918 12.5977Q66.5039 12.5977 75.1709 8.88672Q83.8379 5.17578 90.4297-1.44043Q97.0215-8.05664 100.781-16.7236Q104.541-25.3906 104.541-35.2539Q104.541-45.1172 100.781-53.7842Q97.0215-62.4512 90.4297-69.0674Q83.8379-75.6836 75.1709-79.3945Q66.5039-83.1055 56.5918-83.1055Q46.7285-83.1055 38.0615-79.3945Q29.3945-75.6836 22.8271-69.0674Q16.2598-62.4512 12.5-53.7842Q8.74023-45.1172 8.74023-35.2539Q8.74023-25.3906 12.4756-16.7236Q16.2109-8.05664 22.8027-1.44043Q29.3945 5.17578 38.0859 8.88672Q46.7773 12.5977 56.5918 12.5977ZM47.5586-8.74023Q46.7773-8.74023 46.2646-9.25293Q45.752-9.76562 45.752-10.5469Q45.752-11.2305 46.2646-11.7676Q46.7773-12.3047 47.5586-12.3047L55.8594-12.3047L55.8594-41.6016L47.9492-41.6016Q47.1191-41.6016 46.6309-42.1143Q46.1426-42.627 46.1426-43.4082Q46.1426-44.0918 46.6309-44.6289Q47.1191-45.166 47.9492-45.166L57.666-45.166Q58.5449-45.166 59.0332-44.5801Q59.5215-43.9941 59.5215-43.1641L59.5215-12.3047L67.8223-12.3047Q68.6523-12.3047 69.1406-11.7676Q69.6289-11.2305 69.6289-10.5469Q69.6289-9.76562 69.1406-9.25293Q68.6523-8.74023 67.8223-8.74023ZM56.4941-55.2246Q54.834-55.2246 53.6133-56.3721Q52.3926-57.5195 52.3926-59.1797Q52.3926-60.8887 53.6133-62.1094Q54.834-63.3301 56.4941-63.3301Q58.2031-63.3301 59.3994-62.1094Q60.5957-60.8887 60.5957-59.1797Q60.5957-57.5195 59.3994-56.3721Q58.2031-55.2246 56.4941-55.2246Z"/>
  </g>
  <g id="Ultralight-M" transform="matrix(1 0 0 1 503.641 1126)">
   <path d="M56.0547 12.0605Q65.8203 12.0605 74.3896 8.37402Q82.959 4.6875 89.4775-1.83105Q95.9961-8.34961 99.707-16.9189Q103.418-25.4883 103.418-35.2539Q103.418-45.0195 99.707-53.5889Q95.9961-62.1582 89.4775-68.6768Q82.959-75.1953 74.3896-78.8818Q65.8203-82.5684 56.0547-82.5684Q46.2891-82.5684 37.7197-78.8818Q29.1504-75.1953 22.6562-68.6768Q16.1621-62.1582 12.4512-53.5889Q8.74023-45.0195 8.74023-35.2539Q8.74023-25.4883 12.4268-16.9189Q16.1133-8.34961 22.6318-1.83105Q29.1504 4.6875 37.7197 8.37402Q46.2891 12.0605 56.0547 12.0605ZM46.9727-9.13086Q46.3867-9.13086 46.0449-9.52148Q45.7031-9.91211 45.7031-10.4004Q45.7031-10.8887 46.0449-11.2793Q46.3867-11.6699 46.9727-11.6699L55.9082-11.6699L55.9082-42.7734L47.2168-42.7734Q46.582-42.7734 46.2646-43.1641Q45.9473-43.5547 45.9473-44.0918Q45.9473-44.5312 46.2646-44.9219Q46.582-45.3125 47.2168-45.3125L56.9824-45.3125Q57.5684-45.3125 57.9102-44.9463Q58.252-44.5801 58.252-44.0918L58.252-11.6699L67.1387-11.6699Q67.7734-11.6699 68.0908-11.2793Q68.4082-10.8887 68.4082-10.4004Q68.4082-9.91211 68.0908-9.52148Q67.7734-9.13086 67.1387-9.13086ZM56.1035-55.8594Q54.6875-55.8594 53.7109-56.7871Q52.7344-57.7148 52.7344-59.082Q52.7344-60.4492 53.7109-61.4502Q54.6875-62.4512 56.1035-62.4512Q57.4707-62.4512 58.4473-61.4502Q59.4238-60.4492 59.4238-59.082Q59.4238-57.7148 58.4473-56.7871Q57.4707-55.8594 56.1035-55.8594Z"/>
  </g>
  <g id="Black-S" transform="matrix(1 0 0 1 2884.57 696)">
   <path d="M48.8281 6.78711Q57.5195 6.78711 65.1123 3.51562Q72.7051 0.244141 78.4912-5.54199Q84.2773-11.3281 87.5488-18.9209Q90.8203-26.5137 90.8203-35.2051Q90.8203-43.8965 87.5488-51.4893Q84.2773-59.082 78.4912-64.8682Q72.7051-70.6543 65.1123-73.9258Q57.5195-77.1973 48.8281-77.1973Q40.1367-77.1973 32.5439-73.9258Q24.9512-70.6543 19.165-64.8682Q13.3789-59.082 10.1074-51.4893Q6.83594-43.8965 6.83594-35.2051Q6.83594-26.5137 10.1074-18.9209Q13.3789-11.3281 19.165-5.54199Q24.9512 0.244141 32.5439 3.51562Q40.1367 6.78711 48.8281 6.78711ZM41.1621-13.8672Q39.209-13.8672 37.8418-15.1123Q36.4746-16.3574 36.4746-18.457Q36.4746-20.3613 37.8418-21.6797Q39.209-22.998 41.1621-22.998L45.166-22.998L45.166-32.4219L42.041-32.4219Q40.0391-32.4219 38.6719-33.6914Q37.3047-34.9609 37.3047-37.0117Q37.3047-38.916 38.6719-40.2344Q40.0391-41.5527 42.041-41.5527L50.293-41.5527Q52.8809-41.5527 54.1992-39.9414Q55.5176-38.3301 55.5176-35.5957L55.5176-22.998L57.666-22.998Q59.668-22.998 61.0107-21.6797Q62.3535-20.3613 62.3535-18.457Q62.3535-16.3574 61.0107-15.1123Q59.668-13.8672 57.666-13.8672ZM49.1211-45.8496Q46.3379-45.8496 44.2871-47.9004Q42.2363-49.9512 42.2363-52.6855Q42.2363-55.6152 44.2871-57.6172Q46.3379-59.6191 49.1211-59.6191Q51.9043-59.6191 53.9307-57.6172Q55.957-55.6152 55.957-52.6855Q55.957-49.9512 53.9307-47.9004Q51.9043-45.8496 49.1211-45.8496Z"/>
  </g>
  <g id="Heavy-S" transform="matrix(1 0 0 1 2588.47 696)">
   <path d="M48.1934 6.15234Q56.7871 6.15234 64.2578 2.92969Q71.7285-0.292969 77.4414-6.00586Q83.1543-11.7188 86.377-19.1895Q89.5996-26.6602 89.5996-35.2051Q89.5996-43.75 86.377-51.2451Q83.1543-58.7402 77.4414-64.4531Q71.7285-70.166 64.2334-73.3887Q56.7383-76.6113 48.1934-76.6113Q39.6484-76.6113 32.1777-73.3887Q24.707-70.166 18.9941-64.4531Q13.2812-58.7402 10.0586-51.2451Q6.83594-43.75 6.83594-35.2051Q6.83594-26.6602 10.0586-19.1895Q13.2812-11.7188 18.9941-6.00586Q24.707-0.292969 32.2021 2.92969Q39.6973 6.15234 48.1934 6.15234ZM40.7227-13.7207Q38.916-13.7207 37.6465-14.8682Q36.377-16.0156 36.377-17.9688Q36.377-19.7266 37.6465-20.9473Q38.916-22.168 40.7227-22.168L44.8242-22.168L44.8242-33.3008L41.6016-33.3008Q39.7461-33.3008 38.4766-34.4971Q37.207-35.6934 37.207-37.5977Q37.207-39.3555 38.4766-40.5762Q39.7461-41.7969 41.6016-41.7969L49.6094-41.7969Q52.002-41.7969 53.2227-40.3076Q54.4434-38.8184 54.4434-36.2793L54.4434-22.168L57.1289-22.168Q58.9844-22.168 60.2539-20.9473Q61.5234-19.7266 61.5234-17.9688Q61.5234-16.0156 60.2539-14.8682Q58.9844-13.7207 57.1289-13.7207ZM48.3398-46.5332Q45.6543-46.5332 43.7012-48.4863Q41.748-50.4395 41.748-53.125Q41.748-55.9082 43.7012-57.8369Q45.6543-59.7656 48.3398-59.7656Q51.0254-59.7656 52.9541-57.8369Q54.8828-55.9082 54.8828-53.125Q54.8828-50.4395 52.9541-48.4863Q51.0254-46.5332 48.3398-46.5332Z"/>
  </g>
  <g id="Bold-S" transform="matrix(1 0 0 1 2292.43 696)">
   <path d="M47.5586 5.46875Q55.957 5.46875 63.3057 2.29492Q70.6543-0.878906 76.2695-6.51855Q81.8848-12.1582 85.083-19.5068Q88.2812-26.8555 88.2812-35.2539Q88.2812-43.6035 85.083-50.9766Q81.8848-58.3496 76.2695-63.9648Q70.6543-69.5801 63.2812-72.7539Q55.9082-75.9277 47.5098-75.9277Q39.1602-75.9277 31.7871-72.7539Q24.4141-69.5801 18.8232-63.9648Q13.2324-58.3496 10.0342-50.9766Q6.83594-43.6035 6.83594-35.2539Q6.83594-26.8555 10.0342-19.5068Q13.2324-12.1582 18.8477-6.51855Q24.4629-0.878906 31.8115 2.29492Q39.1602 5.46875 47.5586 5.46875ZM40.332-13.5742Q38.6719-13.5742 37.5-14.624Q36.3281-15.6738 36.3281-17.4316Q36.3281-19.043 37.5-20.166Q38.6719-21.2891 40.332-21.2891L44.5312-21.2891L44.5312-34.3262L41.1621-34.3262Q39.4531-34.3262 38.3057-35.4248Q37.1582-36.5234 37.1582-38.2324Q37.1582-39.8438 38.3057-40.9668Q39.4531-42.0898 41.1621-42.0898L48.9746-42.0898Q51.123-42.0898 52.2217-40.7227Q53.3203-39.3555 53.3203-37.0605L53.3203-21.2891L56.6406-21.2891Q58.3008-21.2891 59.4727-20.166Q60.6445-19.043 60.6445-17.4316Q60.6445-15.6738 59.4727-14.624Q58.3008-13.5742 56.6406-13.5742ZM47.5098-47.3145Q44.9219-47.3145 43.0908-49.1699Q41.2598-51.0254 41.2598-53.6133Q41.2598-56.2988 43.0908-58.1299Q44.9219-59.9609 47.5098-59.9609Q50.0977-59.9609 51.9287-58.1299Q53.7598-56.2988 53.7598-53.6133Q53.7598-51.0254 51.9287-49.1699Q50.0977-47.3145 47.5098-47.3145Z"/>
  </g>
  <g id="Semibold-S" transform="matrix(1 0 0 1 1996.19 696)">
   <path d="M47.0703 4.98047Q55.3711 4.98047 62.6465 1.85547Q69.9219-1.26953 75.4639-6.86035Q81.0059-12.4512 84.1553-19.7266Q87.3047-27.002 87.3047-35.2539Q87.3047-43.5059 84.1553-50.7812Q81.0059-58.0566 75.4395-63.623Q69.873-69.1895 62.5977-72.3389Q55.3223-75.4883 47.0215-75.4883Q38.7695-75.4883 31.4941-72.3389Q24.2188-69.1895 18.6768-63.623Q13.1348-58.0566 9.98535-50.7812Q6.83594-43.5059 6.83594-35.2539Q6.83594-27.002 9.98535-19.7266Q13.1348-12.4512 18.7012-6.86035Q24.2676-1.26953 31.543 1.85547Q38.8184 4.98047 47.0703 4.98047ZM39.9414-13.4277Q38.3789-13.4277 37.3047-14.4287Q36.2305-15.4297 36.2305-17.041Q36.2305-18.5547 37.3047-19.6045Q38.3789-20.6543 39.9414-20.6543L44.2383-20.6543L44.2383-35.0098L40.7715-35.0098Q39.209-35.0098 38.1104-36.0352Q37.0117-37.0605 37.0117-38.6719Q37.0117-40.1855 38.1104-41.2109Q39.209-42.2363 40.7715-42.2363L48.4375-42.2363Q50.3906-42.2363 51.4404-40.9668Q52.4902-39.6973 52.4902-37.5488L52.4902-20.6543L56.2012-20.6543Q57.7637-20.6543 58.8623-19.6045Q59.9609-18.5547 59.9609-17.041Q59.9609-15.4297 58.8623-14.4287Q57.7637-13.4277 56.2012-13.4277ZM46.875-47.8516Q44.3848-47.8516 42.6025-49.6338Q40.8203-51.416 40.8203-53.9062Q40.8203-56.4941 42.6025-58.2764Q44.3848-60.0586 46.875-60.0586Q49.4141-60.0586 51.1719-58.2764Q52.9297-56.4941 52.9297-53.9062Q52.9297-51.416 51.1719-49.6338Q49.4141-47.8516 46.875-47.8516Z"/>
  </g>
  <g id="Medium-S" transform="matrix(1 0 0 1 1699.83 696)">
   <path d="M46.7285 4.63867Q54.9316 4.63867 62.1338 1.51367Q69.3359-1.61133 74.8535-7.12891Q80.3711-12.6465 83.4961-19.8486Q86.6211-27.0508 86.6211-35.2539Q86.6211-43.4082 83.4961-50.6348Q80.3711-57.8613 74.8291-63.3789Q69.2871-68.8965 62.085-71.9971Q54.8828-75.0977 46.6797-75.0977Q38.4766-75.0977 31.2744-71.9971Q24.0723-68.8965 18.5791-63.3789Q13.0859-57.8613 9.96094-50.6348Q6.83594-43.4082 6.83594-35.2539Q6.83594-27.0508 9.96094-19.8486Q13.0859-12.6465 18.6035-7.12891Q24.1211-1.61133 31.3232 1.51367Q38.5254 4.63867 46.7285 4.63867ZM39.6973-13.3301Q38.2324-13.3301 37.207-14.2822Q36.1816-15.2344 36.1816-16.7969Q36.1816-18.2129 37.207-19.2139Q38.2324-20.2148 39.6973-20.2148L44.0918-20.2148L44.0918-35.5469L40.5273-35.5469Q39.0137-35.5469 37.9883-36.5234Q36.9629-37.5 36.9629-39.0137Q36.9629-40.4297 37.9883-41.4062Q39.0137-42.3828 40.5273-42.3828L48.0469-42.3828Q49.9023-42.3828 50.8789-41.1865Q51.8555-39.9902 51.8555-37.9395L51.8555-20.2148L55.9082-20.2148Q57.373-20.2148 58.4229-19.2139Q59.4727-18.2129 59.4727-16.7969Q59.4727-15.2344 58.4229-14.2822Q57.373-13.3301 55.9082-13.3301ZM46.4355-48.2422Q43.9453-48.2422 42.2363-49.9756Q40.5273-51.709 40.5273-54.1504Q40.5273-56.6895 42.2363-58.4229Q43.9453-60.1562 46.4355-60.1562Q48.877-60.1562 50.5859-58.4229Q52.2949-56.6895 52.2949-54.1504Q52.2949-51.709 50.5859-49.9756Q48.877-48.2422 46.4355-48.2422Z"/>
  </g>
  <g id="Regular-S" transform="matrix(1 0 0 1 1403.58 696)">
   <path d="M46.2402 4.15039Q54.3457 4.15039 61.4746 1.07422Q68.6035-2.00195 74.0479-7.4707Q79.4922-12.9395 82.5928-20.0684Q85.6934-27.1973 85.6934-35.2539Q85.6934-43.3105 82.5928-50.4395Q79.4922-57.5684 74.0234-63.0371Q68.5547-68.5059 61.4258-71.582Q54.2969-74.6582 46.1914-74.6582Q38.1348-74.6582 31.0059-71.582Q23.877-68.5059 18.457-63.0371Q13.0371-57.5684 9.93652-50.4395Q6.83594-43.3105 6.83594-35.2539Q6.83594-27.1973 9.93652-20.0684Q13.0371-12.9395 18.4814-7.4707Q23.9258-2.00195 31.0547 1.07422Q38.1836 4.15039 46.2402 4.15039ZM39.4043-13.2324Q38.0371-13.2324 37.085-14.1113Q36.1328-14.9902 36.1328-16.4062Q36.1328-17.7246 37.085-18.6523Q38.0371-19.5801 39.4043-19.5801L43.8477-19.5801L43.8477-36.2305L40.1855-36.2305Q38.8184-36.2305 37.8662-37.1338Q36.9141-38.0371 36.9141-39.4531Q36.9141-40.7715 37.8662-41.6748Q38.8184-42.5781 40.1855-42.5781L47.5586-42.5781Q49.2676-42.5781 50.1709-41.4551Q51.0742-40.332 51.0742-38.4766L51.0742-19.5801L55.5176-19.5801Q56.8848-19.5801 57.8613-18.6523Q58.8379-17.7246 58.8379-16.4062Q58.8379-14.9902 57.8613-14.1113Q56.8848-13.2324 55.5176-13.2324ZM45.8496-48.7793Q43.457-48.7793 41.8213-50.4395Q40.1855-52.0996 40.1855-54.4922Q40.1855-56.9336 41.8213-58.5938Q43.457-60.2539 45.8496-60.2539Q48.2422-60.2539 49.8779-58.5938Q51.5137-56.9336 51.5137-54.4922Q51.5137-52.0996 49.8779-50.4395Q48.2422-48.7793 45.8496-48.7793Z"/>
  </g>
  <g id="Light-S" transform="matrix(1 0 0 1 1107.6 696)">
   <path d="M45.5078 3.41797Q53.4668 3.41797 60.4736 0.415039Q67.4805-2.58789 72.8271-7.95898Q78.1738-13.3301 81.2012-20.3125Q84.2285-27.2949 84.2285-35.2539Q84.2285-43.2129 81.2012-50.1953Q78.1738-57.1777 72.8027-62.5488Q67.4316-67.9199 60.4492-70.9229Q53.4668-73.9258 45.459-73.9258Q37.5488-73.9258 30.542-70.9229Q23.5352-67.9199 18.2129-62.5488Q12.8906-57.1777 9.86328-50.1953Q6.83594-43.2129 6.83594-35.2539Q6.83594-27.2949 9.86328-20.3125Q12.8906-13.3301 18.2373-7.95898Q23.584-2.58789 30.5908 0.415039Q37.5977 3.41797 45.5078 3.41797ZM38.5742-13.7207Q37.5-13.7207 36.7676-14.4287Q36.0352-15.1367 36.0352-16.2109Q36.0352-17.2363 36.7676-17.9688Q37.5-18.7012 38.5742-18.7012L43.8477-18.7012L43.8477-37.793L39.209-37.793Q38.0859-37.793 37.3535-38.501Q36.6211-39.209 36.6211-40.2832Q36.6211-41.3574 37.3535-42.0654Q38.0859-42.7734 39.209-42.7734L46.6797-42.7734Q47.998-42.7734 48.6816-41.8945Q49.3652-41.0156 49.3652-39.6484L49.3652-18.7012L54.6387-18.7012Q55.7129-18.7012 56.4697-17.9688Q57.2266-17.2363 57.2266-16.2109Q57.2266-15.1367 56.4697-14.4287Q55.7129-13.7207 54.6387-13.7207ZM45.2637-49.6094Q43.2617-49.6094 41.8945-50.9766Q40.5273-52.3438 40.5273-54.3457Q40.5273-56.3477 41.8945-57.7393Q43.2617-59.1309 45.2637-59.1309Q47.2168-59.1309 48.6084-57.7393Q50-56.3477 50-54.3457Q50-52.3438 48.6084-50.9766Q47.2168-49.6094 45.2637-49.6094Z"/>
  </g>
  <g id="Thin-S" transform="matrix(1 0 0 1 811.863 696)">
   <path d="M44.5312 2.44141Q52.3438 2.44141 59.1553-0.488281Q65.9668-3.41797 71.1914-8.64258Q76.416-13.8672 79.3457-20.6787Q82.2754-27.4902 82.2754-35.2539Q82.2754-43.0176 79.3457-49.8291Q76.416-56.6406 71.1914-61.8652Q65.9668-67.0898 59.1553-70.0195Q52.3438-72.9492 44.5312-72.9492Q36.7676-72.9492 29.9316-70.0195Q23.0957-67.0898 17.9199-61.8652Q12.7441-56.6406 9.79004-49.8291Q6.83594-43.0176 6.83594-35.2539Q6.83594-27.4902 9.79004-20.6787Q12.7441-13.8672 17.9199-8.64258Q23.0957-3.41797 29.9316-0.488281Q36.7676 2.44141 44.5312 2.44141ZM37.5-14.3555Q36.8164-14.3555 36.3525-14.7949Q35.8887-15.2344 35.8887-15.918Q35.8887-16.6016 36.3525-17.0654Q36.8164-17.5293 37.5-17.5293L43.7988-17.5293L43.7988-39.7461L37.8906-39.7461Q37.1094-39.7461 36.6699-40.21Q36.2305-40.6738 36.2305-41.3574Q36.2305-41.9922 36.6699-42.4561Q37.1094-42.9199 37.8906-42.9199L45.459-42.9199Q46.2402-42.9199 46.6797-42.4072Q47.1191-41.8945 47.1191-41.1133L47.1191-17.5293L53.418-17.5293Q54.1016-17.5293 54.5654-17.0654Q55.0293-16.6016 55.0293-15.918Q55.0293-15.2344 54.5654-14.7949Q54.1016-14.3555 53.418-14.3555ZM44.4336-50.6348Q43.0176-50.6348 42.0166-51.6113Q41.0156-52.5879 41.0156-54.0527Q41.0156-55.5176 42.0166-56.5186Q43.0176-57.5195 44.4336-57.5195Q45.8984-57.5195 46.9238-56.5186Q47.9492-55.5176 47.9492-54.0527Q47.9492-52.5879 46.9238-51.6113Q45.8984-50.6348 44.4336-50.6348Z"/>
  </g>
  <g id="Ultralight-S" transform="matrix(1 0 0 1 515.649 696)">
   <path d="M44.043 1.95312Q51.7578 1.95312 58.4717-0.927734Q65.1855-3.80859 70.3369-8.95996Q75.4883-14.1113 78.3936-20.8252Q81.2988-27.5391 81.2988-35.2539Q81.2988-42.9688 78.3936-49.6826Q75.4883-56.3965 70.3369-61.5479Q65.1855-66.6992 58.4717-69.5801Q51.7578-72.4609 44.043-72.4609Q36.377-72.4609 29.6387-69.5801Q22.9004-66.6992 17.7734-61.5479Q12.6465-56.3965 9.74121-49.6826Q6.83594-42.9688 6.83594-35.2539Q6.83594-27.5391 9.74121-20.8252Q12.6465-14.1113 17.7734-8.95996Q22.9004-3.80859 29.6387-0.927734Q36.377 1.95312 44.043 1.95312ZM36.9141-14.6973Q36.4258-14.6973 36.1084-15.0391Q35.791-15.3809 35.791-15.8203Q35.791-16.2598 36.1084-16.6016Q36.4258-16.9434 36.9141-16.9434L43.75-16.9434L43.75-40.8203L37.1582-40.8203Q36.6211-40.8203 36.3281-41.1621Q36.0352-41.5039 36.0352-41.9434Q36.0352-42.4316 36.3281-42.749Q36.6211-43.0664 37.1582-43.0664L44.8242-43.0664Q45.3613-43.0664 45.6543-42.7246Q45.9473-42.3828 45.9473-41.9434L45.9473-16.9434L52.7832-16.9434Q53.2715-16.9434 53.5889-16.6016Q53.9062-16.2598 53.9062-15.8203Q53.9062-15.3809 53.5889-15.0391Q53.2715-14.6973 52.7832-14.6973ZM43.9941-51.1719Q42.8223-51.1719 42.0166-51.9775Q41.2109-52.7832 41.2109-53.9551Q41.2109-55.127 42.0166-55.957Q42.8223-56.7871 43.9941-56.7871Q45.166-56.7871 46.0205-55.957Q46.875-55.127 46.875-53.9551Q46.875-52.7832 46.0205-51.9775Q45.166-51.1719 43.9941-51.1719Z"/>
  </g>
 </g>
</svg>
