<?xml version="1.0" encoding="UTF-8"?>
<!--Generator: Apple Native CoreSVG 149-->
<!DOCTYPE svg
PUBLIC "-//W3C//DTD SVG 1.1//EN"
       "http://www.w3.org/Graphics/SVG/1.1/DTD/svg11.dtd">
<svg version="1.1" xmlns="http://www.w3.org/2000/svg" xmlns:xlink="http://www.w3.org/1999/xlink" width="3300" height="2200">
 <!--glyph: "uni1006E9.medium", point size: 100.000000, font version: "Version 16.0d18e1", template writer version: "8"-->
 <g id="Notes">
  <rect height="2200" id="artboard" style="fill:white;opacity:1" width="3300" x="0" y="0"/>
  <line id="" style="fill:none;stroke:black;opacity:1;stroke-width:0.5;" x1="263" x2="3036" y1="292" y2="292"/>
  <text style="stroke:none;fill:black;font-family:-apple-system,&quot;SF Pro Display&quot;,&quot;SF Pro Text&quot;,Helvetica,sans-serif;font-weight:bold;" transform="matrix(1 0 0 1 263 322)">Weight/Scale Variations</text>
  <text style="stroke:none;fill:black;font-family:-apple-system,&quot;SF Pro Display&quot;,&quot;SF Pro Text&quot;,Helvetica,sans-serif;text-anchor:middle;" transform="matrix(1 0 0 1 559.711 322)">Ultralight</text>
  <text style="stroke:none;fill:black;font-family:-apple-system,&quot;SF Pro Display&quot;,&quot;SF Pro Text&quot;,Helvetica,sans-serif;text-anchor:middle;" transform="matrix(1 0 0 1 856.422 322)">Thin</text>
  <text style="stroke:none;fill:black;font-family:-apple-system,&quot;SF Pro Display&quot;,&quot;SF Pro Text&quot;,Helvetica,sans-serif;text-anchor:middle;" transform="matrix(1 0 0 1 1153.13 322)">Light</text>
  <text style="stroke:none;fill:black;font-family:-apple-system,&quot;SF Pro Display&quot;,&quot;SF Pro Text&quot;,Helvetica,sans-serif;text-anchor:middle;" transform="matrix(1 0 0 1 1449.84 322)">Regular</text>
  <text style="stroke:none;fill:black;font-family:-apple-system,&quot;SF Pro Display&quot;,&quot;SF Pro Text&quot;,Helvetica,sans-serif;text-anchor:middle;" transform="matrix(1 0 0 1 1746.56 322)">Medium</text>
  <text style="stroke:none;fill:black;font-family:-apple-system,&quot;SF Pro Display&quot;,&quot;SF Pro Text&quot;,Helvetica,sans-serif;text-anchor:middle;" transform="matrix(1 0 0 1 2043.27 322)">Semibold</text>
  <text style="stroke:none;fill:black;font-family:-apple-system,&quot;SF Pro Display&quot;,&quot;SF Pro Text&quot;,Helvetica,sans-serif;text-anchor:middle;" transform="matrix(1 0 0 1 2339.98 322)">Bold</text>
  <text style="stroke:none;fill:black;font-family:-apple-system,&quot;SF Pro Display&quot;,&quot;SF Pro Text&quot;,Helvetica,sans-serif;text-anchor:middle;" transform="matrix(1 0 0 1 2636.69 322)">Heavy</text>
  <text style="stroke:none;fill:black;font-family:-apple-system,&quot;SF Pro Display&quot;,&quot;SF Pro Text&quot;,Helvetica,sans-serif;text-anchor:middle;" transform="matrix(1 0 0 1 2933.4 322)">Black</text>
  <line id="" style="fill:none;stroke:black;opacity:1;stroke-width:0.5;" x1="263" x2="3036" y1="1903" y2="1903"/>
  <g id="" transform="matrix(1 0 0 1 263 1933)">
   <path d="M9.24805 0.830078C13.5547 0.830078 17.1387-2.74414 17.1387-7.05078C17.1387-11.3574 13.5449-14.9316 9.23828-14.9316C4.94141-14.9316 1.36719-11.3574 1.36719-7.05078C1.36719-2.74414 4.95117 0.830078 9.24805 0.830078ZM9.24805-0.654297C5.70312-0.654297 2.87109-3.49609 2.87109-7.05078C2.87109-10.6055 5.69336-13.4473 9.23828-13.4473C12.793-13.4473 15.6348-10.6055 15.6445-7.05078C15.6543-3.49609 12.8027-0.654297 9.24805-0.654297ZM6.39648-6.31836L8.50586-6.31836L8.50586-4.19922C8.50586-3.75977 8.79883-3.45703 9.22852-3.45703C9.67773-3.45703 9.9707-3.75977 9.9707-4.19922L9.9707-6.31836L12.0996-6.31836C12.5391-6.31836 12.8418-6.61133 12.8418-7.04102C12.8418-7.48047 12.5391-7.7832 12.0996-7.7832L9.9707-7.7832L9.9707-9.89258C9.9707-10.3418 9.67773-10.6445 9.22852-10.6445C8.79883-10.6445 8.50586-10.3418 8.50586-9.89258L8.50586-7.7832L6.39648-7.7832C5.94727-7.7832 5.64453-7.48047 5.64453-7.04102C5.64453-6.61133 5.94727-6.31836 6.39648-6.31836Z"/>
  </g>
  <g id="" transform="matrix(1 0 0 1 281.506 1933)">
   <path d="M11.709 2.91016C17.1582 2.91016 21.6699-1.61133 21.6699-7.05078C21.6699-12.5 17.1484-17.0117 11.6992-17.0117C6.25977-17.0117 1.74805-12.5 1.74805-7.05078C1.74805-1.61133 6.26953 2.91016 11.709 2.91016ZM11.709 1.25C7.09961 1.25 3.41797-2.44141 3.41797-7.05078C3.41797-11.6602 7.08984-15.3516 11.6992-15.3516C16.3086-15.3516 20-11.6602 20.0098-7.05078C20.0195-2.44141 16.3184 1.25 11.709 1.25ZM7.98828-6.23047L10.8789-6.23047L10.8789-3.32031C10.8789-2.83203 11.2109-2.5 11.6895-2.5C12.1777-2.5 12.5195-2.83203 12.5195-3.32031L12.5195-6.23047L15.4297-6.23047C15.918-6.23047 16.25-6.5625 16.25-7.04102C16.25-7.5293 15.918-7.87109 15.4297-7.87109L12.5195-7.87109L12.5195-10.7617C12.5195-11.2695 12.1777-11.6016 11.6895-11.6016C11.2109-11.6016 10.8789-11.2598 10.8789-10.7617L10.8789-7.87109L7.98828-7.87109C7.48047-7.87109 7.14844-7.5293 7.14844-7.04102C7.14844-6.5625 7.49023-6.23047 7.98828-6.23047Z"/>
  </g>
  <g id="" transform="matrix(1 0 0 1 304.924 1933)">
   <path d="M14.9707 5.66406C21.9336 5.66406 27.6953-0.0976562 27.6953-7.05078C27.6953-14.0137 21.9238-19.7754 14.9609-19.7754C8.00781-19.7754 2.25586-14.0137 2.25586-7.05078C2.25586-0.0976562 8.01758 5.66406 14.9707 5.66406ZM14.9707 3.84766C8.93555 3.84766 4.08203-1.01562 4.08203-7.05078C4.08203-13.0957 8.92578-17.9492 14.9609-17.9492C21.0059-17.9492 25.8594-13.0957 25.8691-7.05078C25.8789-1.01562 21.0156 3.84766 14.9707 3.84766ZM10.0586-6.14258L14.0625-6.14258L14.0625-2.12891C14.0625-1.5918 14.4336-1.2207 14.9512-1.2207C15.4883-1.2207 15.8594-1.5918 15.8594-2.12891L15.8594-6.14258L19.8828-6.14258C20.4102-6.14258 20.791-6.51367 20.791-7.03125C20.791-7.56836 20.4199-7.94922 19.8828-7.94922L15.8594-7.94922L15.8594-11.9531C15.8594-12.5098 15.4883-12.8809 14.9512-12.8809C14.4336-12.8809 14.0625-12.5 14.0625-11.9531L14.0625-7.94922L10.0586-7.94922C9.50195-7.94922 9.13086-7.56836 9.13086-7.03125C9.13086-6.51367 9.51172-6.14258 10.0586-6.14258Z"/>
  </g>
  <text style="stroke:none;fill:black;font-family:-apple-system,&quot;SF Pro Display&quot;,&quot;SF Pro Text&quot;,Helvetica,sans-serif;font-weight:bold;" transform="matrix(1 0 0 1 263 1953)">Design Variations</text>
  <text style="stroke:none;fill:black;font-family:-apple-system,&quot;SF Pro Display&quot;,&quot;SF Pro Text&quot;,Helvetica,sans-serif;" transform="matrix(1 0 0 1 263 1971)">Symbols are supported in up to nine weights and three scales.</text>
  <text style="stroke:none;fill:black;font-family:-apple-system,&quot;SF Pro Display&quot;,&quot;SF Pro Text&quot;,Helvetica,sans-serif;" transform="matrix(1 0 0 1 263 1989)">For optimal layout with text and other symbols, vertically align</text>
  <text style="stroke:none;fill:black;font-family:-apple-system,&quot;SF Pro Display&quot;,&quot;SF Pro Text&quot;,Helvetica,sans-serif;" transform="matrix(1 0 0 1 263 2007)">symbols with the adjacent text.</text>
  <line id="" style="fill:none;stroke:#00AEEF;stroke-width:0.5;opacity:1.0;" x1="776" x2="776" y1="1919" y2="1933"/>
  <g id="" transform="matrix(1 0 0 1 776 1933)">
   <path d="M3.31055 0.126953C3.82812 0.126953 4.08203-0.0683594 4.26758-0.605469L5.52734-4.0625L11.2891-4.0625L12.5488-0.605469C12.7344-0.0683594 12.9883 0.126953 13.4961 0.126953C14.0137 0.126953 14.3457-0.185547 14.3457-0.673828C14.3457-0.839844 14.3164-0.986328 14.2383-1.20117L9.6582-13.3887C9.43359-13.9941 9.0332-14.2871 8.4082-14.2871C7.80273-14.2871 7.39258-13.9941 7.17773-13.3984L2.59766-1.19141C2.51953-0.976562 2.49023-0.830078 2.49023-0.664062C2.49023-0.175781 2.80273 0.126953 3.31055 0.126953ZM6.00586-5.53711L8.37891-12.1094L8.42773-12.1094L10.8008-5.53711Z"/>
  </g>
  <line id="" style="fill:none;stroke:#00AEEF;stroke-width:0.5;opacity:1.0;" x1="792.836" x2="792.836" y1="1919" y2="1933"/>
  <text style="stroke:none;fill:black;font-family:-apple-system,&quot;SF Pro Display&quot;,&quot;SF Pro Text&quot;,Helvetica,sans-serif;font-weight:bold;" transform="matrix(1 0 0 1 776 1953)">Margins</text>
  <text style="stroke:none;fill:black;font-family:-apple-system,&quot;SF Pro Display&quot;,&quot;SF Pro Text&quot;,Helvetica,sans-serif;" transform="matrix(1 0 0 1 776 1971)">Leading and trailing margins on the left and right side of each symbol</text>
  <text style="stroke:none;fill:black;font-family:-apple-system,&quot;SF Pro Display&quot;,&quot;SF Pro Text&quot;,Helvetica,sans-serif;" transform="matrix(1 0 0 1 776 1989)">can be adjusted by modifying the x-location of the margin guidelines.</text>
  <text style="stroke:none;fill:black;font-family:-apple-system,&quot;SF Pro Display&quot;,&quot;SF Pro Text&quot;,Helvetica,sans-serif;" transform="matrix(1 0 0 1 776 2007)">Modifications are automatically applied proportionally to all</text>
  <text style="stroke:none;fill:black;font-family:-apple-system,&quot;SF Pro Display&quot;,&quot;SF Pro Text&quot;,Helvetica,sans-serif;" transform="matrix(1 0 0 1 776 2025)">scales and weights.</text>
  <g id="" transform="matrix(1 0 0 1 1289 1933)">
   <path d="M2.8418 1.86523L4.54102 3.57422C5.40039 4.44336 6.38672 4.38477 7.31445 3.35938L17.4902-7.85156C17.7539-7.76367 18.0273-7.7832 18.3398-7.8418L19.4043-8.03711L20.0684-7.36328L20.0293-6.80664C19.9902-6.30859 20.1172-5.92773 20.6055-5.44922L21.3672-4.70703C21.8457-4.22852 22.4609-4.19922 22.9297-4.66797L25.8398-7.58789C26.3086-8.05664 26.2891-8.65234 25.8105-9.13086L25.0391-9.89258C24.5605-10.3711 24.1895-10.5273 23.7109-10.4883L23.1348-10.4395L22.4902-11.0742L22.7344-12.1973C22.8613-12.7637 22.7051-13.2031 22.1191-13.7891L19.9219-15.9766C16.582-19.2969 12.1484-19.2188 9.25781-16.3281C8.83789-15.918 8.80859-15.3418 9.04297-14.9512C9.27734-14.5898 9.73633-14.3555 10.3809-14.5215C11.8457-14.8633 13.3691-14.9219 14.7949-13.9844L14.209-12.5293C14.0137-12.0508 13.9844-11.6504 14.1113-11.2891L3.04688-0.898438C2.06055 0.0195312 1.98242 0.996094 2.8418 1.86523ZM10.752-15.957C13.1836-17.7344 16.4746-17.4316 18.7012-15.2051L21.1328-12.793C21.3672-12.5586 21.4062-12.373 21.3379-12.0312L21.0156-10.5469L22.5195-9.0625L23.5059-9.12109C23.7598-9.13086 23.8379-9.11133 24.0332-8.91602L24.6094-8.33984L22.168-5.89844L21.5918-6.47461C21.3965-6.66992 21.3672-6.74805 21.377-7.01172L21.4453-7.98828L19.9512-9.47266L18.4277-9.21875C18.1055-9.15039 17.959-9.17969 17.7148-9.41406L15.7129-11.416C15.459-11.6504 15.4297-11.8164 15.5859-12.1875L16.4648-14.2773C14.9023-15.7324 12.8711-16.3574 10.8398-15.7617C10.6836-15.7227 10.625-15.8496 10.752-15.957ZM5.27344 2.30469L4.10156 1.14258C3.63281 0.683594 3.74023 0.341797 4.14062-0.0195312L14.9512-10.1953L16.416-8.71094L6.42578 2.27539C6.07422 2.67578 5.74219 2.77344 5.27344 2.30469Z"/>
  </g>
  <text style="stroke:none;fill:black;font-family:-apple-system,&quot;SF Pro Display&quot;,&quot;SF Pro Text&quot;,Helvetica,sans-serif;font-weight:bold;" transform="matrix(1 0 0 1 1289 1953)">Exporting</text>
  <text style="stroke:none;fill:black;font-family:-apple-system,&quot;SF Pro Display&quot;,&quot;SF Pro Text&quot;,Helvetica,sans-serif;" transform="matrix(1 0 0 1 1289 1971)">Symbols should be outlined when exporting to ensure the</text>
  <text style="stroke:none;fill:black;font-family:-apple-system,&quot;SF Pro Display&quot;,&quot;SF Pro Text&quot;,Helvetica,sans-serif;" transform="matrix(1 0 0 1 1289 1989)">design is preserved when submitting to Xcode.</text>
  <text id="template-version" style="stroke:none;fill:black;font-family:-apple-system,&quot;SF Pro Display&quot;,&quot;SF Pro Text&quot;,Helvetica,sans-serif;text-anchor:end;" transform="matrix(1 0 0 1 3036 1933)">Template v.2.0</text>
  <text style="stroke:none;fill:black;font-family:-apple-system,&quot;SF Pro Display&quot;,&quot;SF Pro Text&quot;,Helvetica,sans-serif;text-anchor:end;" transform="matrix(1 0 0 1 3036 1951)">Requires Xcode 12 or greater</text>
  <text style="stroke:none;fill:black;font-family:-apple-system,&quot;SF Pro Display&quot;,&quot;SF Pro Text&quot;,Helvetica,sans-serif;text-anchor:end;" transform="matrix(1 0 0 1 3036 1969)">Generated from battery.25</text>
  <text style="stroke:none;fill:black;font-family:-apple-system,&quot;SF Pro Display&quot;,&quot;SF Pro Text&quot;,Helvetica,sans-serif;text-anchor:end;" transform="matrix(1 0 0 1 3036 1987)">Typeset at 100 points</text>
  <text style="stroke:none;fill:black;font-family:-apple-system,&quot;SF Pro Display&quot;,&quot;SF Pro Text&quot;,Helvetica,sans-serif;" transform="matrix(1 0 0 1 263 726)">Small</text>
  <text style="stroke:none;fill:black;font-family:-apple-system,&quot;SF Pro Display&quot;,&quot;SF Pro Text&quot;,Helvetica,sans-serif;" transform="matrix(1 0 0 1 263 1156)">Medium</text>
  <text style="stroke:none;fill:black;font-family:-apple-system,&quot;SF Pro Display&quot;,&quot;SF Pro Text&quot;,Helvetica,sans-serif;" transform="matrix(1 0 0 1 263 1586)">Large</text>
 </g>
 <g id="Guides">
  <g id="H-reference" style="fill:#27AAE1;stroke:none;" transform="matrix(1 0 0 1 339 696)">
   <path d="M0.976562 0L3.66211 0L12.9883-24.4629L45.752-24.4629L55.127 0L57.7637 0L30.6152-70.459L28.125-70.459ZM29.3457-67.1387L29.4434-67.1387L44.873-26.709L13.8672-26.709Z"/>
  </g>
  <line id="Baseline-S" style="fill:none;stroke:#27AAE1;opacity:1;stroke-width:0.5;" x1="263" x2="3036" y1="696" y2="696"/>
  <line id="Capline-S" style="fill:none;stroke:#27AAE1;opacity:1;stroke-width:0.5;" x1="263" x2="3036" y1="625.541" y2="625.541"/>
  <g id="H-reference" style="fill:#27AAE1;stroke:none;" transform="matrix(1 0 0 1 339 1126)">
   <path d="M0.976562 0L3.66211 0L12.9883-24.4629L45.752-24.4629L55.127 0L57.7637 0L30.6152-70.459L28.125-70.459ZM29.3457-67.1387L29.4434-67.1387L44.873-26.709L13.8672-26.709Z"/>
  </g>
  <line id="Baseline-M" style="fill:none;stroke:#27AAE1;opacity:1;stroke-width:0.5;" x1="263" x2="3036" y1="1126" y2="1126"/>
  <line id="Capline-M" style="fill:none;stroke:#27AAE1;opacity:1;stroke-width:0.5;" x1="263" x2="3036" y1="1055.54" y2="1055.54"/>
  <g id="H-reference" style="fill:#27AAE1;stroke:none;" transform="matrix(1 0 0 1 339 1556)">
   <path d="M0.976562 0L3.66211 0L12.9883-24.4629L45.752-24.4629L55.127 0L57.7637 0L30.6152-70.459L28.125-70.459ZM29.3457-67.1387L29.4434-67.1387L44.873-26.709L13.8672-26.709Z"/>
  </g>
  <line id="Baseline-L" style="fill:none;stroke:#27AAE1;opacity:1;stroke-width:0.5;" x1="263" x2="3036" y1="1556" y2="1556"/>
  <line id="Capline-L" style="fill:none;stroke:#27AAE1;opacity:1;stroke-width:0.5;" x1="263" x2="3036" y1="1485.54" y2="1485.54"/>
  <line id="left-margin" style="fill:none;stroke:#00AEEF;stroke-width:0.5;opacity:1.0;" x1="1364.52" x2="1364.52" y1="1030.79" y2="1150.12"/>
  <line id="right-margin" style="fill:none;stroke:#00AEEF;stroke-width:0.5;opacity:1.0;" x1="1535.17" x2="1535.17" y1="1030.79" y2="1150.12"/>
 </g>
 <g id="Symbols">
  <g id="Black-L" transform="matrix(1 0 0 1 2816.65 1556)">
   <path d="M54.1504 16.1133L154.639 16.1133C168.359 16.1133 177.295 14.1113 184.033 7.37305C190.771 0.634766 192.725-8.10547 192.725-21.9727L192.725-48.584C192.725-62.4023 190.771-71.2402 184.033-77.8809C177.246-84.6191 168.359-86.6699 154.639-86.6699L54.1504-86.6699C40.4297-86.6699 31.4941-84.6191 24.7559-77.8809C18.0176-71.1426 16.0645-62.4023 16.0645-48.584L16.0645-21.9727C16.0645-8.10547 18.0176 0.683594 24.7559 7.37305C31.543 14.1113 40.4297 16.1133 54.1504 16.1133ZM52.3926-4.10156C45.8496-4.10156 42.0898-5.0293 39.5996-7.4707C37.1094-9.91211 36.3281-13.5742 36.3281-20.166L36.3281-50.3418C36.3281-56.9336 37.1582-60.5469 39.5996-63.0371C42.041-65.5762 45.8496-66.4551 52.3926-66.4551L156.396-66.4551C162.939-66.4551 166.699-65.4785 169.189-63.0371C171.68-60.6445 172.461-56.9336 172.461-50.3418L172.461-20.166C172.461-13.5742 171.631-9.96094 169.189-7.4707C166.748-4.98047 162.939-4.10156 156.396-4.10156ZM53.8086-14.1113L78.2715-14.1113C80.5176-14.1113 81.9824-14.4531 83.0566-15.5762C84.1797-16.6504 84.5215-18.1152 84.5215-20.3613L84.5215-50.1465C84.5215-52.4414 84.1797-53.8574 83.0566-54.9805C81.9824-56.0547 80.5176-56.3965 78.2715-56.3965L53.8086-56.3965C51.5137-56.3965 50.0488-56.0547 48.9746-54.9805C47.8516-53.8574 47.5098-52.4414 47.5098-50.1465L47.5098-20.3613C47.5098-18.1152 47.8516-16.6504 48.9746-15.5762C50.0488-14.4531 51.5137-14.1113 53.8086-14.1113ZM204.102-16.6992C209.814-17.041 217.432-24.3652 217.432-35.2539C217.432-46.1914 209.814-53.5156 204.102-53.8574Z"/>
  </g>
  <g id="Heavy-L" transform="matrix(1 0 0 1 2521.92 1556)">
   <path d="M52.9297 14.209L153.223 14.209C166.357 14.209 175.146 12.3535 181.738 5.81055C188.33-0.78125 190.088-9.42383 190.088-22.6562L190.088-47.8516C190.088-61.084 188.33-69.7754 181.738-76.3184C175.098-82.8613 166.357-84.7168 153.223-84.7168L52.832-84.7168C39.7949-84.7168 30.957-82.8613 24.4141-76.2695C17.8223-69.7266 16.0645-61.0352 16.0645-47.9492L16.0645-22.6562C16.0645-9.42383 17.8223-0.732422 24.4141 5.81055C31.0059 12.3535 39.7949 14.209 52.9297 14.209ZM51.1719-3.32031C44.4824-3.32031 40.0391-4.29688 37.207-7.03125C34.4238-9.81445 33.5938-14.209 33.5938-20.8984L33.5938-49.5605C33.5938-56.2988 34.4727-60.6445 37.207-63.4766C39.9902-66.3086 44.5312-67.1875 51.2207-67.1875L154.98-67.1875C161.621-67.1875 166.113-66.2109 168.896-63.4766C171.729-60.6934 172.559-56.2988 172.559-49.6094L172.559-20.8984C172.559-14.209 171.68-9.86328 168.896-7.03125C166.113-4.24805 161.621-3.32031 154.98-3.32031ZM51.8066-12.6953L74.0723-12.6953C77.0996-12.6953 78.9062-13.0859 80.2246-14.4531C81.5918-15.8203 82.0312-17.627 82.0312-20.6055L82.0312-49.9023C82.0312-52.8809 81.5918-54.6875 80.2246-56.0547C78.9062-57.4219 77.0996-57.8125 74.0723-57.8125L51.8066-57.8125C48.7793-57.8125 47.0215-57.4219 45.6543-56.0547C44.2871-54.6875 43.8477-52.8809 43.8477-49.9023L43.8477-20.6055C43.8477-17.627 44.2871-15.8203 45.6543-14.4531C47.0215-13.0859 48.7793-12.6953 51.8066-12.6953ZM200.635-17.3828C206.104-17.6758 213.477-24.707 213.477-35.2539C213.477-45.8008 206.104-52.832 200.635-53.125Z"/>
  </g>
  <g id="Bold-L" transform="matrix(1 0 0 1 2227.45 1556)">
   <path d="M51.5137 12.0117L151.611 12.0117C164.062 12.0117 172.803 10.4492 179.199 4.05273C185.596-2.34375 187.109-10.9375 187.109-23.4375L187.109-47.0215C187.109-59.5703 185.596-68.1641 179.199-74.5117C172.754-80.9082 164.062-82.5195 151.611-82.5195L51.3672-82.5195C39.1113-82.5195 30.3711-80.9082 23.9746-74.5117C17.627-68.1152 16.0645-59.5215 16.0645-47.2168L16.0645-23.4375C16.0645-10.9375 17.5781-2.29492 23.9746 4.05273C30.4199 10.4492 39.0625 12.0117 51.5137 12.0117ZM49.8047-2.39258C42.9688-2.39258 37.7441-3.41797 34.5703-6.54297C31.3965-9.7168 30.5176-14.8438 30.5176-21.6797L30.5176-48.6328C30.5176-55.6152 31.4453-60.7422 34.5703-63.916C37.6953-67.1387 43.0176-68.0664 49.9512-68.0664L153.369-68.0664C160.156-68.0664 165.43-67.041 168.604-63.916C171.777-60.791 172.656-55.6152 172.656-48.7793L172.656-21.6797C172.656-14.8438 171.729-9.7168 168.604-6.54297C165.43-3.36914 160.156-2.39258 153.369-2.39258ZM49.6094-11.084L69.4336-11.084C73.2422-11.084 75.4395-11.5723 77.0996-13.2324C78.7598-14.8438 79.248-17.0898 79.248-20.8496L79.248-49.6094C79.248-53.418 78.7109-55.6152 77.0996-57.2754C75.4395-58.9355 73.2422-59.4238 69.4336-59.4238L49.6094-59.4238C45.8008-59.4238 43.6035-58.9355 41.9434-57.2754C40.2832-55.6152 39.7461-53.418 39.7461-49.6094L39.7461-20.8496C39.7461-17.0898 40.2832-14.8438 41.9434-13.2324C43.6035-11.5723 45.8008-11.084 49.6094-11.084ZM196.68-18.1152C201.953-18.4082 208.984-25.1465 208.984-35.2539C208.984-45.3125 201.953-52.0508 196.68-52.3438Z"/>
  </g>
  <g id="Semibold-L" transform="matrix(1 0 0 1 1932.28 1556)">
   <path d="M50.5859 10.5469L150.537 10.5469C162.549 10.5469 171.143 9.08203 177.441 2.83203C183.691-3.4668 185.059-11.9141 185.059-23.9746L185.059-46.4844C185.059-58.5449 183.691-67.041 177.441-73.291C171.094-79.541 162.549-81.0059 150.537-81.0059L50.3418-81.0059C38.623-81.0059 29.9805-79.541 23.7305-73.2422C17.4316-66.9922 16.0645-58.4961 16.0645-46.6797L16.0645-23.9746C16.0645-11.9141 17.4316-3.41797 23.6816 2.83203C30.0293 9.08203 38.5742 10.5469 50.5859 10.5469ZM48.8281-1.80664C41.9434-1.80664 36.1816-2.83203 32.7637-6.25C29.3457-9.61914 28.418-15.2832 28.418-22.2656L28.418-47.998C28.418-55.127 29.3457-60.8398 32.7148-64.2578C36.1328-67.6758 41.9922-68.6523 49.0723-68.6523L152.246-68.6523C159.18-68.6523 164.941-67.627 168.359-64.209C171.777-60.8398 172.705-55.127 172.705-48.1934L172.705-22.2656C172.705-15.2832 171.729-9.61914 168.359-6.25C164.99-2.7832 159.18-1.80664 152.246-1.80664ZM48.0957-9.96094L66.2109-9.96094C70.6055-9.96094 73.0469-10.498 74.9023-12.3535C76.7578-14.209 77.3438-16.6992 77.3438-21.0449L77.3438-49.4141C77.3438-53.7598 76.7578-56.25 74.9023-58.1055C73.0469-59.9609 70.6055-60.498 66.2109-60.498L48.0957-60.498C43.7012-60.498 41.2109-59.9609 39.4043-58.1055C37.5488-56.25 36.9629-53.7598 36.9629-49.4141L36.9629-21.0449C36.9629-16.6992 37.5-14.209 39.4043-12.3535C41.2598-10.498 43.7012-9.96094 48.0957-9.96094ZM193.994-18.6035C199.072-18.9453 205.908-25.4395 205.908-35.2051C205.908-45.0195 199.072-51.5137 193.994-51.8066Z"/>
  </g>
  <g id="Medium-L" transform="matrix(1 0 0 1 1636.74 1556)">
   <path d="M49.8535 9.42383L149.707 9.42383C161.328 9.42383 169.922 8.05664 176.074 1.9043C182.275-4.24805 183.496-12.6953 183.496-24.3652L183.496-46.0449C183.496-57.7148 182.275-66.2109 176.074-72.3633C169.873-78.5156 161.328-79.834 149.707-79.834L49.6094-79.834C38.2812-79.834 29.6875-78.4668 23.5352-72.3145C17.334-66.1621 16.0645-57.666 16.0645-46.2891L16.0645-24.3652C16.0645-12.6953 17.334-4.24805 23.4863 1.9043C29.6875 8.05664 38.2324 9.42383 49.8535 9.42383ZM48.1445-1.31836C41.1621-1.31836 34.9609-2.39258 31.3477-5.95703C27.7832-9.57031 26.8066-15.6738 26.8066-22.6562L26.8066-47.5098C26.8066-54.7363 27.7832-60.8887 31.3477-64.502C34.9121-68.1152 41.2109-69.0918 48.3887-69.0918L151.416-69.0918C158.398-69.0918 164.6-68.0664 168.213-64.4531C171.826-60.8887 172.754-54.7852 172.754-47.7539L172.754-22.6562C172.754-15.6738 171.777-9.57031 168.213-5.95703C164.6-2.34375 158.398-1.31836 151.416-1.31836ZM46.9238-9.13086L63.7695-9.13086C68.6035-9.13086 71.2402-9.7168 73.2422-11.7188C75.293-13.7207 75.8789-16.4062 75.8789-21.1914L75.8789-49.2676C75.8789-54.0039 75.2441-56.6895 73.2422-58.7402C71.2402-60.7422 68.6035-61.3281 63.7695-61.3281L46.9238-61.3281C42.0898-61.3281 39.4531-60.7422 37.4512-58.7402C35.4492-56.6895 34.8145-54.0039 34.8145-49.2676L34.8145-21.1914C34.8145-16.4062 35.4492-13.7207 37.4512-11.7188C39.4531-9.7168 42.0898-9.13086 46.9238-9.13086ZM191.943-18.9941C196.875-19.3359 203.564-25.6836 203.564-35.2051C203.564-44.7754 196.875-51.123 191.943-51.416Z"/>
  </g>
  <g id="Regular-L" transform="matrix(1 0 0 1 1341.57 1556)">
   <path d="M48.9258 7.91016L148.633 7.91016C159.814 7.91016 168.311 6.73828 174.316 0.683594C180.371-5.32227 181.494-13.7207 181.494-24.9023L181.494-45.5078C181.494-56.6895 180.371-65.0879 174.316-71.1426C168.262-77.1484 159.814-78.3203 148.633-78.3203L48.584-78.3203C37.793-78.3203 29.2969-77.1484 23.2422-71.0938C17.1875-65.0391 16.0645-56.6406 16.0645-45.8008L16.0645-24.9023C16.0645-13.7207 17.1387-5.32227 23.1934 0.683594C29.2969 6.73828 37.7441 7.91016 48.9258 7.91016ZM47.2168-0.732422C40.1367-0.732422 33.3984-1.80664 29.541-5.66406C25.7324-9.47266 24.707-16.1133 24.707-23.1934L24.707-46.875C24.707-54.248 25.7324-60.9375 29.541-64.7949C33.3496-68.6523 40.1855-69.6777 47.5098-69.6777L150.342-69.6777C157.422-69.6777 164.16-68.6035 167.969-64.7949C171.826-60.9375 172.852-54.2969 172.852-47.2168L172.852-23.1934C172.852-16.1133 171.777-9.47266 167.969-5.66406C164.16-1.75781 157.422-0.732422 150.342-0.732422ZM45.4102-8.00781L60.5957-8.00781C65.9668-8.00781 68.8965-8.69141 71.0938-10.8398C73.3398-13.0371 73.9746-16.0645 73.9746-21.3379L73.9746-49.0723C73.9746-54.3457 73.291-57.3242 71.0938-59.5703C68.8965-61.7676 65.9668-62.4023 60.5957-62.4023L45.4102-62.4023C40.0391-62.4023 37.1094-61.7676 34.9121-59.5703C32.7148-57.3242 32.0312-54.3457 32.0312-49.0723L32.0312-21.3379C32.0312-16.0645 32.7148-13.0371 34.9121-10.8398C37.1582-8.69141 40.0391-8.00781 45.4102-8.00781ZM189.258-19.5312C194.043-19.8242 200.488-25.9766 200.488-35.2051C200.488-44.4336 194.043-50.5859 189.258-50.8789Z"/>
  </g>
  <g id="Light-L" transform="matrix(1 0 0 1 1047.3 1556)">
   <path d="M47.8516 6.44531L146.436 6.44531C158.203 6.44531 165.869 5.0293 171.436-0.488281C176.953-6.00586 178.271-13.5742 178.271-25.3418L178.271-44.9707C178.271-56.7871 176.953-64.4043 171.436-69.873C165.82-75.3906 158.203-76.8066 146.436-76.8066L47.3633-76.8066C36.2305-76.8066 28.5156-75.3418 22.9492-69.8242C17.4316-64.3066 16.0645-56.6895 16.0645-45.459L16.0645-25.3418C16.0645-13.5742 17.3828-5.95703 22.9004-0.488281C28.5156 5.0293 36.1328 6.44531 47.8516 6.44531ZM46.1914-0.146484C38.3301-0.146484 31.6895-1.51367 27.832-5.37109C23.9258-9.27734 22.7051-15.7715 22.7051-23.6816L22.7051-46.1426C22.7051-54.4922 23.9258-61.1328 27.7832-64.9902C31.6406-68.9453 38.4277-70.166 46.6797-70.166L148.145-70.166C156.006-70.166 162.646-68.8477 166.504-64.9414C170.41-61.084 171.631-54.5898 171.631-46.6309L171.631-23.6816C171.631-15.7715 170.361-9.27734 166.504-5.37109C162.646-1.46484 156.006-0.146484 148.145-0.146484ZM45.4102-6.54297L55.5664-6.54297C62.207-6.54297 65.7227-7.32422 68.4082-9.96094C71.0938-12.5977 71.875-16.3086 71.875-22.8027L71.875-47.5098C71.875-54.0527 71.0449-57.666 68.4082-60.3516C65.7715-63.0371 62.207-63.8184 55.5664-63.8184L45.4102-63.8184C38.7695-63.8184 35.1562-63.0371 32.5195-60.3516C29.8828-57.666 29.0527-54.0527 29.0527-47.5098L29.0527-22.8027C29.0527-16.3086 29.834-12.5977 32.5195-9.96094C35.2051-7.32422 38.7695-6.54297 45.4102-6.54297ZM184.961-20.3125C189.502-20.5566 195.605-26.416 195.605-35.1562C195.605-43.9453 189.502-49.7559 184.961-50.0488Z"/>
  </g>
  <g id="Thin-L" transform="matrix(1 0 0 1 753.859 1556)">
   <path d="M46.4844 4.49219L143.555 4.49219C156.055 4.49219 162.695 2.7832 167.529-2.05078C172.412-6.88477 174.023-13.3789 174.023-25.9277L174.023-44.2871C174.023-56.8848 172.412-63.4277 167.529-68.2129C162.646-73.0469 156.055-74.7559 143.555-74.7559L45.752-74.7559C34.1309-74.7559 27.4414-72.9492 22.6074-68.1152C17.7734-63.2812 16.0645-56.7383 16.0645-45.0195L16.0645-25.9277C16.0645-13.3789 17.6758-6.83594 22.5098-2.05078C27.4414 2.7832 33.9844 4.49219 46.4844 4.49219ZM44.873 0.585938C35.9375 0.585938 29.4434-1.12305 25.5371-5.0293C21.582-8.98438 19.9707-15.2832 19.9707-24.3164L19.9707-45.166C19.9707-54.7852 21.582-61.3281 25.4395-65.2832C29.3945-69.2871 36.084-70.8008 45.6055-70.8008L145.215-70.8008C154.15-70.8008 160.645-69.1406 164.551-65.1855C168.506-61.2793 170.068-54.9316 170.068-45.8984L170.068-24.3164C170.068-15.2832 168.408-8.98438 164.551-5.0293C160.645-1.02539 154.15 0.585938 145.215 0.585938ZM45.3613-4.58984L48.877-4.58984C57.2266-4.58984 61.5723-5.56641 64.8926-8.78906C68.1641-12.0117 69.0918-16.6016 69.0918-24.7559L69.0918-45.459C69.0918-53.6133 68.1152-58.1543 64.8926-61.4258C61.6699-64.7461 57.2266-65.6738 48.877-65.6738L45.3613-65.6738C37.0605-65.6738 32.6172-64.7461 29.3945-61.4258C26.1719-58.1543 25.1465-53.6133 25.1465-45.459L25.1465-24.7559C25.1465-16.6016 26.0742-12.0117 29.3945-8.78906C32.666-5.56641 37.0605-4.58984 45.3613-4.58984ZM179.248-21.3379C183.398-21.582 189.062-27.002 189.062-35.1074C189.062-43.2617 183.398-48.6816 179.248-48.9258Z"/>
  </g>
  <g id="Ultralight-L" transform="matrix(1 0 0 1 458.808 1556)">
   <path d="M45.8008 3.51562L142.09 3.51562C154.98 3.51562 161.084 1.66016 165.576-2.83203C170.068-7.32422 171.826-13.2812 171.826-26.2695L171.826-43.9453C171.826-56.9336 170.068-62.9395 165.576-67.334C160.986-71.8262 154.98-73.6816 142.09-73.6816L44.9219-73.6816C33.1055-73.6816 26.9043-71.7773 22.4121-67.2852C17.9199-62.7441 16.0645-56.7383 16.0645-44.8242L16.0645-26.2695C16.0645-13.2812 17.8223-7.27539 22.3145-2.83203C26.9043 1.66016 32.9102 3.51562 45.8008 3.51562ZM44.1895 0.927734C34.7168 0.927734 28.2715-0.927734 24.3652-4.88281C20.4102-8.83789 18.6035-15.0391 18.6035-24.6582L18.6035-44.6777C18.6035-54.9805 20.4102-61.4746 24.2676-65.4297C28.2227-69.4336 34.8633-71.1426 45.0684-71.1426L143.701-71.1426C153.223-71.1426 159.619-69.2871 163.574-65.332C167.529-61.377 169.287-55.127 169.287-45.5566L169.287-24.6582C169.287-15.0391 167.432-8.83789 163.574-4.88281C159.619-0.830078 153.223 0.927734 143.701 0.927734ZM45.3613-3.56445L45.459-3.56445C54.6387-3.56445 59.4238-4.6875 63.0371-8.20312C66.6504-11.7188 67.6758-16.748 67.6758-25.7812L67.6758-44.4336C67.6758-53.418 66.6016-58.3984 63.0371-62.0117C59.5215-65.625 54.6387-66.6016 45.459-66.6016L45.3613-66.6016C36.1816-66.6016 31.2988-65.625 27.7832-62.0117C24.2676-58.3984 23.1445-53.418 23.1445-44.4336L23.1445-25.7812C23.1445-16.748 24.1699-11.7188 27.7832-8.20312C31.3965-4.6875 36.1816-3.56445 45.3613-3.56445ZM176.318-21.875C180.322-22.0703 185.742-27.2949 185.742-35.1074C185.742-42.9199 180.322-48.0957 176.318-48.3398Z"/>
  </g>
  <g id="Black-M" transform="matrix(1 0 0 1 2841.53 1126)">
   <path d="M43.0664 6.39648L120.605 6.39648C132.324 6.39648 138.965 4.44336 144.141-0.732422C149.316-5.9082 151.221-12.3535 151.221-24.2188L151.221-46.2891C151.221-58.1543 149.316-64.6973 144.141-69.7754C138.916-74.9512 132.324-76.9043 120.605-76.9043L43.0664-76.9043C31.3477-76.9043 24.707-74.9512 19.5312-69.7754C14.3555-64.5996 12.4512-58.1543 12.4512-46.2891L12.4512-24.2188C12.4512-12.3535 14.3555-5.85938 19.5312-0.732422C24.7559 4.44336 31.3477 6.39648 43.0664 6.39648ZM41.6992-11.9141C36.377-11.9141 34.4727-12.6953 32.959-14.1602C31.4453-15.625 30.7617-17.4805 30.7617-22.8516L30.7617-47.6562C30.7617-53.0273 31.4941-54.834 32.959-56.3477C34.4238-57.8613 36.377-58.6426 41.6992-58.6426L121.973-58.6426C127.295-58.6426 129.199-57.8125 130.713-56.3477C132.227-54.8828 132.91-53.0273 132.91-47.6562L132.91-22.8516C132.91-17.4805 132.178-15.6738 130.713-14.1602C129.248-12.6465 127.295-11.9141 121.973-11.9141ZM44.3359-20.0195L63.5742-20.0195C65.0391-20.0195 66.0156-20.2637 66.748-20.9961C67.4805-21.7285 67.7246-22.7539 67.7246-24.2188L67.7246-46.3379C67.7246-47.8027 67.4805-48.7793 66.748-49.5117C66.0156-50.2441 65.0391-50.4883 63.5742-50.4883L44.3359-50.4883C42.8711-50.4883 41.8945-50.2441 41.1621-49.5117C40.4297-48.7793 40.1855-47.8027 40.1855-46.3379L40.1855-24.2188C40.1855-22.7539 40.4297-21.7285 41.1621-20.9961C41.8945-20.2637 42.8711-20.0195 44.3359-20.0195ZM160.596-20.4102C165.186-20.6543 171.289-26.5137 171.289-35.2539C171.289-43.9941 165.186-49.9023 160.596-50.1465Z"/>
  </g>
  <g id="Heavy-M" transform="matrix(1 0 0 1 2546.36 1126)">
   <path d="M41.9922 4.6875L119.58 4.6875C130.566 4.6875 137.256 2.97852 142.383-2.14844C147.51-7.27539 149.17-13.8184 149.17-24.9023L149.17-45.6055C149.17-56.6895 147.51-63.2812 142.383-68.3594C137.207-73.4863 130.566-75.1953 119.58-75.1953L41.9434-75.1953C31.0547-75.1953 24.3164-73.4863 19.1895-68.3594C14.0625-63.2324 12.4512-56.6406 12.4512-45.6543L12.4512-24.9023C12.4512-13.8184 14.0625-7.22656 19.1895-2.14844C24.3652 2.97852 31.0547 4.6875 41.9922 4.6875ZM40.625-11.1816C35.4004-11.1816 32.666-11.9629 30.8105-13.7695C28.9551-15.5762 28.2715-18.2129 28.2715-23.5352L28.2715-46.9727C28.2715-52.2949 29.0039-54.8828 30.8105-56.7383C32.6172-58.5938 35.4004-59.3262 40.6738-59.3262L120.947-59.3262C126.221-59.3262 128.906-58.5449 130.762-56.7383C132.666-54.9316 133.301-52.2949 133.301-46.9727L133.301-23.5352C133.301-18.2129 132.617-15.625 130.762-13.7695C128.955-11.9141 126.221-11.1816 120.947-11.1816ZM42.1875-18.8477L60.3027-18.8477C62.2559-18.8477 63.4766-19.1406 64.3555-20.0195C65.2832-20.9473 65.5762-22.168 65.5762-24.0723L65.5762-46.4355C65.5762-48.3887 65.2832-49.5605 64.3555-50.4883C63.4766-51.3672 62.2559-51.6602 60.3027-51.6602L42.1875-51.6602C40.2344-51.6602 39.0625-51.3672 38.1348-50.4883C37.2559-49.5605 36.9629-48.3887 36.9629-46.4355L36.9629-24.0723C36.9629-22.168 37.2559-20.9473 38.1348-20.0195C39.0625-19.1406 40.2344-18.8477 42.1875-18.8477ZM157.91-20.8984C162.305-21.1426 168.213-26.8066 168.213-35.2539C168.213-43.7012 162.305-49.3652 157.91-49.6094Z"/>
  </g>
  <g id="Bold-M" transform="matrix(1 0 0 1 2251.38 1126)">
   <path d="M40.7715 2.73438L118.506 2.73438C128.564 2.73438 135.4 1.36719 140.479-3.71094C145.508-8.78906 146.826-15.4785 146.826-25.5859L146.826-44.873C146.826-54.9805 145.508-61.7188 140.479-66.748C135.352-71.8262 128.564-73.2422 118.506-73.2422L40.7227-73.2422C30.7617-73.2422 23.9258-71.8262 18.8477-66.748C13.7695-61.6699 12.4512-54.9805 12.4512-44.9707L12.4512-25.5859C12.4512-15.4785 13.7695-8.74023 18.8477-3.71094C23.9746 1.36719 30.7617 2.73438 40.7715 2.73438ZM39.4531-10.3516C34.2773-10.3516 30.6641-11.084 28.418-13.3301C26.1719-15.5273 25.5371-19.043 25.5371-24.2676L25.5371-46.1914C25.5371-51.416 26.2207-54.9316 28.418-57.1777C30.6152-59.4238 34.2773-60.1562 39.502-60.1562L119.873-60.1562C125.049-60.1562 128.613-59.375 130.859-57.1777C133.105-54.9805 133.789-51.4648 133.789-46.2402L133.789-24.2676C133.789-19.043 133.057-15.5273 130.859-13.3301C128.662-11.084 125.049-10.3516 119.873-10.3516ZM39.7949-17.4805L56.6895-17.4805C59.1309-17.4805 60.5957-17.8223 61.6699-18.9453C62.793-20.0195 63.1348-21.4844 63.1348-23.9258L63.1348-46.582C63.1348-49.0234 62.793-50.4883 61.6699-51.5625C60.5957-52.6855 59.1309-52.9785 56.6895-52.9785L39.7949-52.9785C37.3047-52.9785 35.8887-52.6855 34.7656-51.5625C33.6914-50.4883 33.3496-49.0234 33.3496-46.582L33.3496-23.9258C33.3496-21.4844 33.6914-20.0195 34.7656-18.9453C35.8887-17.8223 37.3047-17.4805 39.7949-17.4805ZM154.883-21.4844C159.082-21.7285 164.746-27.1484 164.746-35.2539C164.746-43.3594 159.082-48.7305 154.883-48.9746Z"/>
  </g>
  <g id="Semibold-M" transform="matrix(1 0 0 1 1955.86 1126)">
   <path d="M39.9414 1.36719L117.773 1.36719C127.148 1.36719 134.082 0.244141 139.111-4.83398C144.141-9.86328 145.264-16.6504 145.264-26.123L145.264-44.3848C145.264-53.8574 144.141-60.6445 139.111-65.6738C134.033-70.7031 127.148-71.875 117.773-71.875L39.8438-71.875C30.5664-71.875 23.6328-70.7031 18.6035-65.6738C13.5742-60.6445 12.4512-53.8086 12.4512-44.4824L12.4512-26.123C12.4512-16.6504 13.5254-9.81445 18.6035-4.83398C23.6816 0.244141 30.5176 1.36719 39.9414 1.36719ZM38.623-9.76562C33.4961-9.76562 29.2969-10.498 26.7578-12.9883C24.2676-15.4785 23.6328-19.6289 23.6328-24.7559L23.6328-45.6543C23.6328-50.8301 24.3164-54.9805 26.7578-57.5195C29.248-60.0098 33.4961-60.6934 38.6719-60.6934L119.092-60.6934C124.219-60.6934 128.418-59.9609 130.908-57.4707C133.447-55.0293 134.082-50.8789 134.082-45.7031L134.082-24.7559C134.082-19.6289 133.398-15.4785 130.908-12.9883C128.467-10.498 124.219-9.76562 119.092-9.76562ZM38.0859-16.6016L54.1992-16.6016C57.0312-16.6016 58.5938-16.9434 59.8633-18.1641C61.084-19.3848 61.4746-21.0449 61.4746-23.8281L61.4746-46.6797C61.4746-49.4629 61.084-51.0742 59.8633-52.2949C58.6426-53.5645 57.0312-53.9062 54.1992-53.9062L38.0859-53.9062C35.3027-53.9062 33.6914-53.5645 32.4707-52.2949C31.25-51.0742 30.8594-49.4629 30.8594-46.6797L30.8594-23.8281C30.8594-21.0449 31.25-19.3848 32.4707-18.1641C33.6914-16.9434 35.3027-16.6016 38.0859-16.6016ZM152.783-21.9238C156.885-22.168 162.354-27.3926 162.354-35.2539C162.354-43.1152 156.885-48.3398 152.783-48.584Z"/>
  </g>
  <g id="Medium-M" transform="matrix(1 0 0 1 1660.06 1126)">
   <path d="M39.3066 0.390625L117.188 0.390625C126.123 0.390625 133.105-0.634766 138.086-5.61523C143.115-10.6445 144.043-17.5293 144.043-26.5137L144.043-43.9941C144.043-52.9785 143.115-59.8633 138.086-64.8438C133.057-69.873 126.123-70.8496 117.188-70.8496L39.209-70.8496C30.3711-70.8496 23.4375-69.8242 18.4082-64.8438C13.3789-59.8145 12.4512-52.9297 12.4512-44.0918L12.4512-26.5137C12.4512-17.5293 13.3789-10.6445 18.4082-5.61523C23.4375-0.634766 30.3711 0.390625 39.3066 0.390625ZM37.9883-9.375C32.9102-9.375 28.2227-10.0586 25.5371-12.7441C22.8027-15.4297 22.168-20.0195 22.168-25.1465L22.168-45.2148C22.168-50.3906 22.8516-55.0293 25.5371-57.7148C28.2227-60.4492 32.9102-61.1328 38.0859-61.1328L118.506-61.1328C123.584-61.1328 128.271-60.4004 130.957-57.7148C133.691-55.0293 134.326-50.4395 134.326-45.3125L134.326-25.1465C134.326-20.0195 133.643-15.4785 130.957-12.7441C128.271-10.0586 123.584-9.375 118.506-9.375ZM36.8652-15.8691L52.2949-15.8691C55.3711-15.8691 57.1289-16.2598 58.4473-17.5781C59.7656-18.8965 60.2051-20.7031 60.2051-23.7305L60.2051-46.7285C60.2051-49.8047 59.7656-51.5625 58.4473-52.8809C57.1289-54.1992 55.3711-54.5898 52.2949-54.5898L36.8652-54.5898C33.7891-54.5898 32.0312-54.1992 30.7129-52.8809C29.3945-51.5625 28.9551-49.8047 28.9551-46.7285L28.9551-23.7305C28.9551-20.7031 29.3945-18.8965 30.7129-17.5781C32.0312-16.2598 33.7891-15.8691 36.8652-15.8691ZM151.221-22.2168C155.176-22.4609 160.547-27.5879 160.547-35.2539C160.547-42.9199 155.176-48.0469 151.221-48.2422Z"/>
  </g>
  <g id="Regular-M" transform="matrix(1 0 0 1 1364.52 1126)">
   <path d="M38.4766-0.927734L116.455-0.927734C124.756-0.927734 131.787-1.70898 136.768-6.68945C141.748-11.6699 142.48-18.6523 142.48-27.002L142.48-43.5059C142.48-51.8066 141.748-58.7891 136.768-63.7695C131.787-68.75 124.756-69.5312 116.455-69.5312L38.3789-69.5312C30.1758-69.5312 23.1445-68.75 18.1641-63.7207C13.1836-58.7402 12.4512-51.8066 12.4512-43.6035L12.4512-27.002C12.4512-18.6523 13.1836-11.6699 18.1641-6.68945C23.1445-1.70898 30.1758-0.927734 38.4766-0.927734ZM37.1582-8.78906C32.1289-8.78906 26.8555-9.47266 23.877-12.4512C20.9473-15.3809 20.3125-20.6055 20.3125-25.6348L20.3125-44.6777C20.3125-49.8535 20.9473-55.0781 23.877-58.0566C26.8555-60.9863 32.1777-61.6699 37.3047-61.6699L117.773-61.6699C122.803-61.6699 128.076-60.9863 131.055-58.0078C133.984-55.0781 134.619-49.8535 134.619-44.8242L134.619-25.6348C134.619-20.6055 133.984-15.3809 131.055-12.4512C128.076-9.47266 122.803-8.78906 117.773-8.78906ZM35.2051-14.9902L49.8535-14.9902C53.2715-14.9902 55.1758-15.3809 56.6406-16.8457C58.1055-18.3105 58.5449-20.2148 58.5449-23.6328L58.5449-46.8262C58.5449-50.2441 58.0566-52.1484 56.6406-53.6133C55.1758-55.0781 53.2715-55.4688 49.8535-55.4688L35.2051-55.4688C31.7871-55.4688 29.8828-55.0781 28.418-53.6133C26.9531-52.1484 26.5137-50.2441 26.5137-46.8262L26.5137-23.6328C26.5137-20.2148 26.9531-18.3105 28.418-16.8457C29.8828-15.3809 31.7871-14.9902 35.2051-14.9902ZM149.121-22.6074C153.027-22.8516 158.203-27.7832 158.203-35.2539C158.203-42.6758 153.027-47.6074 149.121-47.8516Z"/>
  </g>
  <g id="Light-M" transform="matrix(1 0 0 1 1070.03 1126)">
   <path d="M37.5488-2.24609L114.453-2.24609C123.34-2.24609 129.639-3.27148 134.131-7.76367C138.672-12.3047 139.6-18.5059 139.6-27.3926L139.6-43.0176C139.6-51.9043 138.672-58.1543 134.131-62.6465C129.59-67.1387 123.34-68.1152 114.453-68.1152L37.2559-68.1152C28.7598-68.1152 22.4609-67.1387 17.9199-62.5977C13.4277-58.1055 12.4512-51.8555 12.4512-43.3105L12.4512-27.3926C12.4512-18.5059 13.3789-12.2559 17.8711-7.76367C22.4609-3.27148 28.7109-2.24609 37.5488-2.24609ZM36.2305-8.30078C30.5176-8.30078 25.3418-9.22852 22.3145-12.207C19.3359-15.1855 18.5059-20.3125 18.5059-26.0742L18.5059-44.043C18.5059-50.0488 19.3359-55.2246 22.3145-58.2031C25.293-61.2305 30.5664-62.1094 36.5723-62.1094L115.771-62.1094C121.533-62.1094 126.709-61.1816 129.688-58.2031C132.715-55.1758 133.545-50.0977 133.545-44.3359L133.545-26.0742C133.545-20.3125 132.666-15.1855 129.688-12.207C126.709-9.17969 121.533-8.30078 115.771-8.30078ZM35.2051-13.6719L45.3125-13.6719C49.9023-13.6719 52.3438-14.209 54.1992-16.0645C56.1035-17.9199 56.6406-20.459 56.6406-24.9512L56.6406-45.459C56.6406-49.9512 56.0547-52.4902 54.1992-54.3457C52.3926-56.2012 49.9023-56.7383 45.3125-56.7383L35.2051-56.7383C30.6152-56.7383 28.125-56.2012 26.2695-54.3457C24.4141-52.4902 23.877-49.9512 23.877-45.459L23.877-24.9512C23.877-20.459 24.4141-17.9199 26.2695-16.0645C28.1738-14.209 30.6152-13.6719 35.2051-13.6719ZM145.264-23.291C148.877-23.5352 153.76-28.1738 153.76-35.2051C153.76-42.1875 148.877-46.875 145.264-47.0703Z"/>
  </g>
  <g id="Thin-M" transform="matrix(1 0 0 1 776.222 1126)">
   <path d="M36.3281-4.00391L111.914-4.00391C121.436-4.00391 126.807-5.27344 130.713-9.17969C134.57-13.0859 135.791-18.3105 135.791-27.9297L135.791-42.3828C135.791-52.002 134.57-57.2754 130.713-61.1328C126.758-65.0391 121.436-66.3086 111.914-66.3086L35.8398-66.3086C26.9043-66.3086 21.4844-64.9902 17.5781-61.084C13.6719-57.1777 12.4512-51.9043 12.4512-42.9199L12.4512-27.9297C12.4512-18.3105 13.623-13.0371 17.5293-9.17969C21.4844-5.27344 26.8066-4.00391 36.3281-4.00391ZM35.0586-7.66602C28.3691-7.66602 23.291-8.88672 20.2637-11.9141C17.2363-14.9414 16.0645-19.873 16.0645-26.6602L16.0645-43.1641C16.0645-50.3418 17.2363-55.4199 20.2148-58.4473C23.2422-61.5234 28.4668-62.6465 35.5957-62.6465L113.135-62.6465C119.873-62.6465 124.902-61.4258 127.93-58.3984C131.006-55.3711 132.129-50.4395 132.129-43.6523L132.129-26.6602C132.129-19.873 130.957-14.9414 127.93-11.9141C124.902-8.83789 119.873-7.66602 113.135-7.66602ZM35.1562-11.9141L39.3555-11.9141C45.4102-11.9141 48.6328-12.6465 51.0254-14.9902C53.4668-17.3828 54.1504-20.752 54.1504-26.709L54.1504-43.6035C54.1504-49.5605 53.418-52.8809 51.0254-55.3223C48.6816-57.7148 45.4102-58.3984 39.3555-58.3984L35.1562-58.3984C29.1016-58.3984 25.8301-57.7148 23.4375-55.3223C21.0938-52.8809 20.3613-49.5605 20.3613-43.6035L20.3613-26.709C20.3613-20.752 21.0449-17.3828 23.4375-14.9902C25.8789-12.6465 29.1016-11.9141 35.1562-11.9141ZM140.137-24.2188C143.457-24.4141 147.949-28.7109 147.949-35.1562C147.949-41.6016 143.457-45.8984 140.137-46.0938Z"/>
  </g>
  <g id="Ultralight-M" transform="matrix(1 0 0 1 481 1126)">
   <path d="M35.6934-4.93164L110.547-4.93164C120.459-4.93164 125.342-6.29883 128.906-9.91211C132.52-13.4766 133.838-18.2617 133.838-28.1738L133.838-42.0898C133.838-52.0508 132.52-56.8359 128.906-60.4004C125.244-63.9648 120.459-65.332 110.547-65.332L35.0586-65.332C25.9766-65.332 20.9961-63.916 17.4316-60.3027C13.8184-56.7383 12.4512-51.9043 12.4512-42.7246L12.4512-28.1738C12.4512-18.2617 13.7695-13.4277 17.3828-9.91211C20.9961-6.29883 25.8301-4.93164 35.6934-4.93164ZM34.4727-7.32422C27.2461-7.32422 22.2656-8.69141 19.2383-11.7676C16.1621-14.7949 14.8438-19.6777 14.8438-26.9531L14.8438-42.7246C14.8438-50.4883 16.1621-55.5176 19.1406-58.5938C22.2168-61.7188 27.3926-62.9395 35.1074-62.9395L111.816-62.9395C118.994-62.9395 123.975-61.5723 127.051-58.4961C130.127-55.4688 131.445-50.5859 131.445-43.3594L131.445-26.9531C131.445-19.6777 130.029-14.7949 127.051-11.7676C123.975-8.64258 118.994-7.32422 111.816-7.32422ZM35.1562-10.9863L36.2793-10.9863C43.1152-10.9863 46.7285-11.8164 49.4141-14.4531C52.0996-17.0898 52.8809-20.8984 52.8809-27.5879L52.8809-42.6758C52.8809-49.4141 52.0508-53.125 49.4141-55.8105C46.7773-58.4961 43.1152-59.2773 36.2793-59.2773L35.1562-59.2773C28.2715-59.2773 24.6582-58.4961 22.0215-55.8105C19.3848-53.125 18.5547-49.4141 18.5547-42.6758L18.5547-27.5879C18.5547-20.8984 19.2871-17.0898 22.0215-14.4531C24.707-11.8164 28.2715-10.9863 35.1562-10.9863ZM137.5-24.707C140.674-24.9023 144.971-29.0039 144.971-35.1562C144.971-41.2598 140.674-45.3613 137.5-45.5566Z"/>
  </g>
  <g id="Black-S" transform="matrix(1 0 0 1 2861.5 696)">
   <path d="M33.6914-2.73438L94.4336-2.73438C103.564-2.73438 108.789-4.24805 112.842-8.30078C116.895-12.3535 118.359-17.4316 118.359-26.6602L118.359-43.8477C118.359-53.0762 116.895-58.2031 112.842-62.207C108.74-66.2598 103.564-67.7734 94.4336-67.7734L33.6914-67.7734C24.5605-67.7734 19.3359-66.2598 15.2832-62.207C11.2305-58.1543 9.76562-53.0762 9.76562-43.8477L9.76562-26.6602C9.76562-17.4316 11.2305-12.3047 15.2832-8.30078C19.3848-4.24805 24.5605-2.73438 33.6914-2.73438ZM32.6172-16.8945C28.4668-16.8945 26.9043-17.5293 25.6836-18.7012C24.4629-19.873 23.9258-21.3867 23.9258-25.5859L23.9258-44.9219C23.9258-49.1211 24.5117-50.5859 25.6836-51.8066C26.8555-53.0273 28.4668-53.6133 32.6172-53.6133L95.5078-53.6133C99.6582-53.6133 101.221-52.9785 102.441-51.8066C103.662-50.6348 104.199-49.1211 104.199-44.9219L104.199-25.5859C104.199-21.3867 103.613-19.9219 102.441-18.7012C101.27-17.4805 99.6582-16.8945 95.5078-16.8945ZM34.5703-23.2422L49.6094-23.2422C50.7812-23.2422 51.5625-23.4375 52.1484-24.0234C52.7344-24.6094 52.9297-25.3906 52.9297-26.5625L52.9297-43.9453C52.9297-45.1172 52.7344-45.8984 52.1484-46.4844C51.5625-47.0703 50.7812-47.2656 49.6094-47.2656L34.5703-47.2656C33.3984-47.2656 32.6172-47.0703 32.0312-46.4844C31.4453-45.8984 31.25-45.1172 31.25-43.9453L31.25-26.5625C31.25-25.3906 31.4453-24.6094 32.0312-24.0234C32.6172-23.4375 33.3984-23.2422 34.5703-23.2422ZM125.684-23.6328C129.248-23.8281 134.033-28.418 134.033-35.2539C134.033-42.0898 129.248-46.6797 125.684-46.875Z"/>
  </g>
  <g id="Heavy-S" transform="matrix(1 0 0 1 2565.72 696)">
   <path d="M32.959-3.90625L93.8965-3.90625C102.344-3.90625 107.715-5.17578 111.816-9.27734C115.869-13.3301 117.09-18.6035 117.09-27.0996L117.09-43.4082C117.09-51.9043 115.869-57.2266 111.816-61.2305C107.715-65.332 102.344-66.6016 93.8965-66.6016L32.959-66.6016C24.5117-66.6016 19.1406-65.332 15.0879-61.2305C10.9863-57.1777 9.76562-51.9043 9.76562-43.4082L9.76562-27.0996C9.76562-18.6035 10.9863-13.2812 15.0879-9.27734C19.1895-5.17578 24.5117-3.90625 32.959-3.90625ZM31.8848-16.4062C27.8809-16.4062 25.6836-16.9922 24.2188-18.4082C22.7539-19.873 22.2656-21.9727 22.2656-26.0254L22.2656-44.4824C22.2656-48.5352 22.8027-50.6348 24.2188-52.0996C25.6348-53.5645 27.8809-54.1016 31.8848-54.1016L94.9707-54.1016C98.9746-54.1016 101.172-53.5156 102.637-52.0996C104.102-50.6348 104.639-48.5352 104.639-44.4824L104.639-26.0254C104.639-21.9727 104.102-19.873 102.637-18.4082C101.221-16.9434 98.9746-16.4062 94.9707-16.4062ZM32.9102-22.4609L47.6562-22.4609C49.0234-22.4609 49.9023-22.7051 50.5859-23.3398C51.2695-24.0234 51.4648-24.9023 51.4648-26.3184L51.4648-44.1895C51.4648-45.6055 51.2695-46.4844 50.5859-47.168C49.9023-47.8027 49.0234-48.0469 47.6562-48.0469L32.9102-48.0469C31.543-48.0469 30.6641-47.8027 29.9805-47.168C29.2969-46.4844 29.1016-45.6055 29.1016-44.1895L29.1016-26.3184C29.1016-24.9023 29.2969-24.0234 29.9805-23.3398C30.6641-22.7051 31.543-22.4609 32.9102-22.4609ZM124.023-23.9746C127.49-24.1699 132.178-28.6133 132.178-35.2539C132.178-41.8945 127.49-46.3379 124.023-46.5332Z"/>
  </g>
  <g id="Bold-S" transform="matrix(1 0 0 1 2270.06 696)">
   <path d="M32.1777-5.22461L93.3105-5.22461C101.025-5.22461 106.543-6.25 110.645-10.3516C114.746-14.4043 115.674-19.873 115.674-27.6367L115.674-42.8711C115.674-50.6348 114.746-56.1035 110.645-60.1562C106.543-64.2578 101.025-65.2832 93.3105-65.2832L32.1289-65.2832C24.4629-65.2832 18.8965-64.2578 14.8438-60.1562C10.7422-56.0547 9.76562-50.6348 9.76562-42.9199L9.76562-27.6367C9.76562-19.873 10.7422-14.4043 14.8438-10.3516C18.9453-6.25 24.4629-5.22461 32.1777-5.22461ZM31.1035-15.8203C27.1973-15.8203 24.3652-16.3574 22.6074-18.1152C20.8008-19.8242 20.3613-22.6562 20.3613-26.5625L20.3613-43.9453C20.3613-47.8516 20.8496-50.6348 22.6074-52.3926C24.3164-54.1504 27.1973-54.6875 31.1035-54.6875L94.3848-54.6875C98.2422-54.6875 101.123-54.1504 102.881-52.3926C104.639-50.6836 105.078-47.8516 105.078-43.9453L105.078-26.5625C105.078-22.6562 104.59-19.873 102.881-18.1152C101.123-16.3574 98.2422-15.8203 94.3848-15.8203ZM31.0547-21.6309L45.4102-21.6309C47.0703-21.6309 48.0957-21.875 48.8281-22.6074C49.6094-23.3887 49.8535-24.3652 49.8535-26.0254L49.8535-44.4824C49.8535-46.1426 49.6094-47.1191 48.8281-47.9004C48.0957-48.6328 47.0703-48.877 45.4102-48.877L31.0547-48.877C29.4434-48.877 28.418-48.6328 27.6855-47.9004C26.9043-47.1191 26.6602-46.1426 26.6602-44.4824L26.6602-26.0254C26.6602-24.3652 26.9043-23.3887 27.6855-22.6074C28.418-21.875 29.4434-21.6309 31.0547-21.6309ZM122.217-24.3164C125.537-24.5117 130.078-28.8086 130.078-35.2539C130.078-41.6992 125.537-45.9961 122.217-46.1914Z"/>
  </g>
  <g id="Semibold-S" transform="matrix(1 0 0 1 1974.08 696)">
   <path d="M31.5918-6.15234L92.8711-6.15234C100.098-6.15234 105.713-6.98242 109.814-11.084C113.916-15.1855 114.746-20.752 114.746-27.9785L114.746-42.5293C114.746-49.7559 113.916-55.3223 109.814-59.4238C105.713-63.5254 100.098-64.3555 92.8711-64.3555L31.5918-64.3555C24.4141-64.3555 18.75-63.5254 14.6484-59.4238C10.5469-55.3223 9.76562-49.7559 9.76562-42.5293L9.76562-27.9785C9.76562-20.752 10.5469-15.1855 14.6484-11.084C18.7988-6.98242 24.4141-6.15234 31.5918-6.15234ZM30.5176-15.4297C26.7578-15.4297 23.3887-15.918 21.4355-17.8711C19.4824-19.8242 19.0918-23.0957 19.0918-26.9043L19.0918-43.6035C19.0918-47.3633 19.5312-50.6836 21.4355-52.6367C23.3887-54.5898 26.7578-55.0781 30.5664-55.0781L93.9453-55.0781C97.7051-55.0781 101.074-54.541 103.027-52.6367C104.98-50.6836 105.42-47.3633 105.42-43.6035L105.42-26.9043C105.42-23.0957 104.98-19.8242 103.027-17.8711C101.074-15.918 97.7051-15.4297 93.9453-15.4297ZM29.7852-21.0449L43.8965-21.0449C45.752-21.0449 46.8262-21.2891 47.6074-22.1191C48.4375-22.9492 48.7305-24.0234 48.7305-25.8301L48.7305-44.6777C48.7305-46.4844 48.4375-47.5586 47.6074-48.3887C46.8262-49.2188 45.752-49.4629 43.8965-49.4629L29.7852-49.4629C27.9785-49.4629 26.9043-49.2188 26.0742-48.3887C25.2441-47.5586 24.9512-46.4844 24.9512-44.6777L24.9512-25.8301C24.9512-24.0234 25.2441-22.9492 26.0742-22.1191C26.9043-21.2891 27.9785-21.0449 29.7852-21.0449ZM120.947-24.5605C124.219-24.7559 128.613-28.9551 128.613-35.2539C128.613-41.5527 124.219-45.752 120.947-45.9473Z"/>
  </g>
  <g id="Medium-S" transform="matrix(1 0 0 1 1677.93 696)">
   <path d="M31.1523-6.83594L92.5781-6.83594C99.3652-6.83594 105.127-7.51953 109.229-11.6211C113.33-15.7715 113.965-21.4355 113.965-28.2227L113.965-42.2852C113.965-49.0723 113.33-54.7363 109.229-58.8379C105.078-62.9883 99.3652-63.6719 92.5781-63.6719L31.1523-63.6719C24.3652-63.6719 18.6523-62.9883 14.5508-58.8379C10.4004-54.7363 9.76562-49.0723 9.76562-42.2852L9.76562-28.2227C9.76562-21.4355 10.4004-15.7227 14.5508-11.6211C18.6523-7.51953 24.3652-6.83594 31.1523-6.83594ZM30.0781-15.1367C26.416-15.1367 22.7051-15.625 20.6055-17.7246C18.5059-19.8242 18.0664-23.4863 18.0664-27.1484L18.0664-43.3105C18.0664-47.0215 18.5059-50.6836 20.6055-52.7832C22.7051-54.8828 26.416-55.3711 30.127-55.3711L93.6523-55.3711C97.3145-55.3711 101.025-54.8828 103.174-52.7832C105.273-50.6836 105.664-47.0215 105.664-43.3594L105.664-27.1484C105.664-23.4863 105.225-19.8242 103.174-17.7246C101.074-15.625 97.3145-15.1367 93.6523-15.1367ZM28.8574-20.6055L42.7246-20.6055C44.7266-20.6055 45.8496-20.8496 46.7285-21.7285C47.6074-22.6074 47.9004-23.7305 47.9004-25.6836L47.9004-44.8242C47.9004-46.7773 47.6074-47.9004 46.7285-48.7793C45.8496-49.6582 44.7266-49.9023 42.7246-49.9023L28.8574-49.9023C26.9043-49.9023 25.7324-49.6582 24.8535-48.7793C23.9746-47.9004 23.6816-46.7773 23.6816-44.8242L23.6816-25.6836C23.6816-23.7305 23.9746-22.6074 24.8535-21.7285C25.7324-20.8496 26.9043-20.6055 28.8574-20.6055ZM119.971-24.7559C123.193-24.9512 127.49-29.0527 127.49-35.2539C127.49-41.4062 123.193-45.5566 119.971-45.752Z"/>
  </g>
  <g id="Regular-S" transform="matrix(1 0 0 1 1381.92 696)">
   <path d="M30.6152-7.71484L92.1875-7.71484C98.4375-7.71484 104.297-8.25195 108.447-12.3535C112.549-16.5039 113.037-22.3145 113.037-28.5645L113.037-41.9434C113.037-48.1934 112.549-54.0039 108.447-58.1055C104.297-62.2559 98.4375-62.793 92.1875-62.793L30.6152-62.793C24.3652-62.793 18.5059-62.2559 14.3555-58.1055C10.2539-54.0039 9.76562-48.1934 9.76562-41.9434L9.76562-28.5645C9.76562-22.3145 10.2539-16.5039 14.3555-12.3535C18.5059-8.25195 24.3164-7.71484 30.6152-7.71484ZM29.541-14.7461C25.9766-14.7461 21.7773-15.1855 19.4824-17.4805C17.1875-19.7754 16.7969-23.9258 16.7969-27.4902L16.7969-42.9688C16.7969-46.582 17.1875-50.6836 19.4824-53.0273C21.7773-55.3223 25.9766-55.7129 29.5898-55.7129L93.2617-55.7129C96.8262-55.7129 101.025-55.3223 103.32-53.0273C105.615-50.6836 106.006-46.582 106.006-42.9688L106.006-27.4902C106.006-23.9258 105.615-19.7754 103.32-17.4805C101.025-15.1855 96.8262-14.7461 93.2617-14.7461ZM27.5879-20.0195L41.2598-20.0195C43.3594-20.0195 44.5801-20.2637 45.5078-21.1914C46.4844-22.168 46.7773-23.3887 46.7773-25.4883L46.7773-45.0195C46.7773-47.1191 46.4844-48.3398 45.5078-49.2676C44.5801-50.2441 43.3594-50.4883 41.2598-50.4883L27.5879-50.4883C25.4395-50.4883 24.2188-50.2441 23.291-49.2676C22.3633-48.3398 22.0703-47.1191 22.0703-45.0195L22.0703-25.4883C22.0703-23.3887 22.3633-22.168 23.291-21.1914C24.2676-20.2637 25.4395-20.0195 27.5879-20.0195ZM118.75-25C121.875-25.1953 126.074-29.1992 126.074-35.2539C126.074-41.3086 121.875-45.3125 118.75-45.5078Z"/>
  </g>
  <g id="Light-S" transform="matrix(1 0 0 1 1087.17 696)">
   <path d="M29.7852-8.88672L90.4297-8.88672C97.168-8.88672 102.393-9.57031 106.104-13.3301C109.814-17.041 110.498-22.168 110.498-28.9062L110.498-41.5039C110.498-48.2422 109.814-53.418 106.104-57.1289C102.393-60.8398 97.168-61.5234 90.4297-61.5234L29.6387-61.5234C23.0957-61.5234 17.8711-60.8398 14.1602-57.1289C10.4492-53.418 9.76562-48.2422 9.76562-41.6992L9.76562-28.9062C9.76562-22.168 10.4004-16.9922 14.1113-13.3301C17.8711-9.57031 23.0469-8.88672 29.7852-8.88672ZM28.7598-14.3066C24.5117-14.3066 20.459-14.9414 18.1152-17.2852C15.7715-19.6289 15.1855-23.6328 15.1855-27.8809L15.1855-42.3828C15.1855-46.7773 15.7715-50.8301 18.0664-53.1738C20.4102-55.5176 24.5605-56.1035 28.9062-56.1035L91.5039-56.1035C95.7031-56.1035 99.8047-55.4688 102.148-53.1738C104.443-50.8301 105.029-46.7773 105.029-42.5293L105.029-27.8809C105.029-23.6328 104.443-19.6289 102.148-17.2852C99.8047-14.9414 95.7031-14.3066 91.5039-14.3066ZM27.5879-18.8477L37.2559-18.8477C40.3809-18.8477 42.0898-19.2383 43.4082-20.5078C44.7266-21.8262 45.1172-23.584 45.1172-26.6602L45.1172-43.75C45.1172-46.875 44.6777-48.6328 43.4082-49.9512C42.0898-51.2207 40.3809-51.6113 37.2559-51.6113L27.5879-51.6113C24.4141-51.6113 22.7051-51.2207 21.3867-49.9512C20.1172-48.6328 19.7266-46.875 19.7266-43.75L19.7266-26.6602C19.7266-23.584 20.1172-21.8262 21.3867-20.5078C22.7051-19.2383 24.4141-18.8477 27.5879-18.8477ZM115.283-25.6348C118.213-25.7812 122.168-29.541 122.168-35.2051C122.168-40.8691 118.213-44.6289 115.283-44.8242Z"/>
  </g>
  <g id="Thin-S" transform="matrix(1 0 0 1 793.019 696)">
   <path d="M28.7109-10.4492L88.1836-10.4492C95.5078-10.4492 99.9023-11.377 103.076-14.5508C106.25-17.7246 107.129-22.0215 107.129-29.3945L107.129-40.9668C107.129-48.3398 106.25-52.6855 103.076-55.8105C99.8535-58.9844 95.5078-59.9121 88.1836-59.9121L28.3691-59.9121C21.4355-59.9121 17.041-58.9355 13.8672-55.7617C10.6934-52.5879 9.76562-48.2422 9.76562-41.3574L9.76562-29.3945C9.76562-22.0215 10.6445-17.6758 13.8184-14.5508C17.041-11.377 21.3867-10.4492 28.7109-10.4492ZM27.7344-13.7695C22.6562-13.7695 18.6523-14.6484 16.3086-17.041C13.916-19.3848 13.0859-23.291 13.0859-28.3691L13.0859-41.6016C13.0859-47.0215 13.916-51.0254 16.2598-53.3691C18.6035-55.7617 22.7051-56.5918 28.0762-56.5918L89.1602-56.5918C94.2383-56.5918 98.2422-55.7129 100.586-53.3203C102.979-50.9766 103.809-47.0703 103.809-41.9922L103.809-28.3691C103.809-23.291 102.93-19.3848 100.586-17.041C98.2422-14.5996 94.2383-13.7695 89.1602-13.7695ZM27.5391-17.2852L31.9336-17.2852C36.4258-17.2852 38.8184-17.8223 40.5762-19.5801C42.3828-21.3379 42.9199-23.8281 42.9199-28.2227L42.9199-42.1387C42.9199-46.5332 42.334-48.9746 40.5762-50.7812C38.8184-52.5879 36.4258-53.0762 31.9336-53.0762L27.5391-53.0762C23.0957-53.0762 20.6543-52.5879 18.8965-50.7812C17.1387-48.9746 16.6016-46.5332 16.6016-42.1387L16.6016-28.2227C16.6016-23.8281 17.1387-21.3379 18.8965-19.5801C20.7031-17.8223 23.0957-17.2852 27.5391-17.2852ZM110.791-26.416C113.428-26.6113 117.041-30.0293 117.041-35.2051C117.041-40.332 113.428-43.75 110.791-43.9453Z"/>
  </g>
  <g id="Ultralight-S" transform="matrix(1 0 0 1 497.651 696)">
   <path d="M28.1738-11.2305L87.0117-11.2305C94.6289-11.2305 98.584-12.3047 101.465-15.1855C104.395-18.0664 105.371-21.9238 105.371-29.6387L105.371-40.6738C105.371-48.3887 104.395-52.2949 101.465-55.127C98.5352-58.0078 94.6289-59.082 87.0117-59.082L27.6855-59.082C20.6055-59.082 16.6016-58.0078 13.7207-55.0781C10.791-52.1973 9.76562-48.291 9.76562-41.1621L9.76562-29.6387C9.76562-21.9238 10.7422-18.0176 13.6719-15.1855C16.6016-12.3047 20.5078-11.2305 28.1738-11.2305ZM27.1973-13.4277C21.6797-13.4277 17.7246-14.502 15.332-16.8945C12.9395-19.2871 11.9629-23.0957 11.9629-28.6621L11.9629-41.2109C11.9629-47.1191 12.9395-51.123 15.2832-53.4668C17.6758-55.9082 21.7285-56.8848 27.6367-56.8848L87.9883-56.8848C93.5059-56.8848 97.4121-55.8105 99.8047-53.4668C102.197-51.0742 103.174-47.2168 103.174-41.6504L103.174-28.6621C103.174-23.0957 102.148-19.2871 99.8047-16.8945C97.4121-14.4531 93.5059-13.4277 87.9883-13.4277ZM27.5391-16.5039L29.248-16.5039C34.4238-16.5039 37.1094-17.0898 39.1602-19.0918C41.2109-21.0938 41.748-23.9258 41.748-29.0039L41.748-41.3086C41.748-46.3867 41.1621-49.1699 39.1602-51.2207C37.1582-53.2715 34.4238-53.8086 29.248-53.8086L27.5391-53.8086C22.3633-53.8086 19.6289-53.2715 17.627-51.2207C15.625-49.1699 14.9902-46.3867 14.9902-41.3086L14.9902-29.0039C14.9902-23.9258 15.5762-21.0938 17.627-19.0918C19.6777-17.0898 22.3633-16.5039 27.5391-16.5039ZM108.447-26.8555C110.986-27.002 114.355-30.2734 114.355-35.1562C114.355-40.0391 110.986-43.3105 108.447-43.457Z"/>
  </g>
 </g>
</svg>
