<?xml version="1.0" encoding="UTF-8"?>
<!--Generator: Apple Native CoreSVG 123-->
<!DOCTYPE svg
PUBLIC "-//W3C//DTD SVG 1.1//EN"
       "http://www.w3.org/Graphics/SVG/1.1/DTD/svg11.dtd">
<svg version="1.1" xmlns="http://www.w3.org/2000/svg" xmlns:xlink="http://www.w3.org/1999/xlink" width="3300" height="2200">
 <!--glyph: "uni10004D.medium", point size: 100.000000, font version: "Version 15.0d7e11", template writer version: "5"-->
 <g id="Notes">
  <rect height="2200" id="artboard" style="fill:white;opacity:1" width="3300" x="0" y="0"/>
  <line id="" style="fill:none;stroke:black;opacity:1;stroke-width:0.5;" x1="263" x2="3036" y1="292" y2="292"/>
  <text style="stroke:none;fill:black;font-family:-apple-system,&quot;SF Pro Display&quot;,&quot;SF Pro Text&quot;,Helvetica,sans-serif;font-weight:bold;" transform="matrix(1 0 0 1 263 322)">Weight/Scale Variations</text>
  <text style="stroke:none;fill:black;font-family:-apple-system,&quot;SF Pro Display&quot;,&quot;SF Pro Text&quot;,Helvetica,sans-serif;text-anchor:middle;" transform="matrix(1 0 0 1 559.711 322)">Ultralight</text>
  <text style="stroke:none;fill:black;font-family:-apple-system,&quot;SF Pro Display&quot;,&quot;SF Pro Text&quot;,Helvetica,sans-serif;text-anchor:middle;" transform="matrix(1 0 0 1 856.422 322)">Thin</text>
  <text style="stroke:none;fill:black;font-family:-apple-system,&quot;SF Pro Display&quot;,&quot;SF Pro Text&quot;,Helvetica,sans-serif;text-anchor:middle;" transform="matrix(1 0 0 1 1153.13 322)">Light</text>
  <text style="stroke:none;fill:black;font-family:-apple-system,&quot;SF Pro Display&quot;,&quot;SF Pro Text&quot;,Helvetica,sans-serif;text-anchor:middle;" transform="matrix(1 0 0 1 1449.84 322)">Regular</text>
  <text style="stroke:none;fill:black;font-family:-apple-system,&quot;SF Pro Display&quot;,&quot;SF Pro Text&quot;,Helvetica,sans-serif;text-anchor:middle;" transform="matrix(1 0 0 1 1746.56 322)">Medium</text>
  <text style="stroke:none;fill:black;font-family:-apple-system,&quot;SF Pro Display&quot;,&quot;SF Pro Text&quot;,Helvetica,sans-serif;text-anchor:middle;" transform="matrix(1 0 0 1 2043.27 322)">Semibold</text>
  <text style="stroke:none;fill:black;font-family:-apple-system,&quot;SF Pro Display&quot;,&quot;SF Pro Text&quot;,Helvetica,sans-serif;text-anchor:middle;" transform="matrix(1 0 0 1 2339.98 322)">Bold</text>
  <text style="stroke:none;fill:black;font-family:-apple-system,&quot;SF Pro Display&quot;,&quot;SF Pro Text&quot;,Helvetica,sans-serif;text-anchor:middle;" transform="matrix(1 0 0 1 2636.69 322)">Heavy</text>
  <text style="stroke:none;fill:black;font-family:-apple-system,&quot;SF Pro Display&quot;,&quot;SF Pro Text&quot;,Helvetica,sans-serif;text-anchor:middle;" transform="matrix(1 0 0 1 2933.4 322)">Black</text>
  <line id="" style="fill:none;stroke:black;opacity:1;stroke-width:0.5;" x1="263" x2="3036" y1="1903" y2="1903"/>
  <g id="" transform="matrix(1 0 0 1 263 1933)">
   <path d="M 9.24805 0.830078 C 13.5547 0.830078 17.1387 -2.74414 17.1387 -7.05078 C 17.1387 -11.3574 13.5449 -14.9316 9.23828 -14.9316 C 4.94141 -14.9316 1.36719 -11.3574 1.36719 -7.05078 C 1.36719 -2.74414 4.95117 0.830078 9.24805 0.830078 Z M 9.24805 -0.654297 C 5.70312 -0.654297 2.87109 -3.49609 2.87109 -7.05078 C 2.87109 -10.6055 5.69336 -13.4473 9.23828 -13.4473 C 12.793 -13.4473 15.6348 -10.6055 15.6445 -7.05078 C 15.6543 -3.49609 12.8027 -0.654297 9.24805 -0.654297 Z M 9.22852 -3.42773 C 9.69727 -3.42773 9.9707 -3.74023 9.9707 -4.25781 L 9.9707 -6.31836 L 12.1973 -6.31836 C 12.6953 -6.31836 13.0371 -6.57227 13.0371 -7.04102 C 13.0371 -7.51953 12.7148 -7.7832 12.1973 -7.7832 L 9.9707 -7.7832 L 9.9707 -10.0098 C 9.9707 -10.5273 9.69727 -10.8496 9.22852 -10.8496 C 8.75977 -10.8496 8.50586 -10.5078 8.50586 -10.0098 L 8.50586 -7.7832 L 6.29883 -7.7832 C 5.78125 -7.7832 5.44922 -7.51953 5.44922 -7.04102 C 5.44922 -6.57227 5.80078 -6.31836 6.29883 -6.31836 L 8.50586 -6.31836 L 8.50586 -4.25781 C 8.50586 -3.75977 8.75977 -3.42773 9.22852 -3.42773 Z"/>
  </g>
  <g id="" transform="matrix(1 0 0 1 281.506 1933)">
   <path d="M 11.709 2.91016 C 17.1582 2.91016 21.6699 -1.60156 21.6699 -7.05078 C 21.6699 -12.4902 17.1484 -17.0117 11.6992 -17.0117 C 6.25977 -17.0117 1.74805 -12.4902 1.74805 -7.05078 C 1.74805 -1.60156 6.26953 2.91016 11.709 2.91016 Z M 11.709 1.25 C 7.09961 1.25 3.41797 -2.44141 3.41797 -7.05078 C 3.41797 -11.6504 7.08984 -15.3516 11.6992 -15.3516 C 16.3086 -15.3516 20 -11.6504 20.0098 -7.05078 C 20.0195 -2.44141 16.3184 1.25 11.709 1.25 Z M 11.6895 -2.41211 C 12.207 -2.41211 12.5195 -2.77344 12.5195 -3.33984 L 12.5195 -6.23047 L 15.5762 -6.23047 C 16.123 -6.23047 16.5039 -6.51367 16.5039 -7.03125 C 16.5039 -7.55859 16.1426 -7.86133 15.5762 -7.86133 L 12.5195 -7.86133 L 12.5195 -10.9277 C 12.5195 -11.5039 12.207 -11.8555 11.6895 -11.8555 C 11.1719 -11.8555 10.8789 -11.4844 10.8789 -10.9277 L 10.8789 -7.86133 L 7.83203 -7.86133 C 7.26562 -7.86133 6.89453 -7.55859 6.89453 -7.03125 C 6.89453 -6.51367 7.28516 -6.23047 7.83203 -6.23047 L 10.8789 -6.23047 L 10.8789 -3.33984 C 10.8789 -2.79297 11.1719 -2.41211 11.6895 -2.41211 Z"/>
  </g>
  <g id="" transform="matrix(1 0 0 1 304.924 1933)">
   <path d="M 14.9707 5.67383 C 21.9336 5.67383 27.6953 -0.078125 27.6953 -7.04102 C 27.6953 -14.0039 21.9238 -19.7559 14.9609 -19.7559 C 8.00781 -19.7559 2.25586 -14.0039 2.25586 -7.04102 C 2.25586 -0.078125 8.01758 5.67383 14.9707 5.67383 Z M 14.9707 3.85742 C 8.93555 3.85742 4.08203 -1.00586 4.08203 -7.04102 C 4.08203 -13.0762 8.92578 -17.9395 14.9609 -17.9395 C 21.0059 -17.9395 25.8594 -13.0762 25.8691 -7.04102 C 25.8789 -1.00586 21.0156 3.85742 14.9707 3.85742 Z M 14.9512 -1.06445 C 15.5176 -1.06445 15.8691 -1.45508 15.8691 -2.06055 L 15.8691 -6.13281 L 20.1074 -6.13281 C 20.6934 -6.13281 21.1133 -6.46484 21.1133 -7.02148 C 21.1133 -7.59766 20.7227 -7.93945 20.1074 -7.93945 L 15.8691 -7.93945 L 15.8691 -12.1875 C 15.8691 -12.8027 15.5176 -13.1934 14.9512 -13.1934 C 14.3848 -13.1934 14.0625 -12.7832 14.0625 -12.1875 L 14.0625 -7.93945 L 9.83398 -7.93945 C 9.21875 -7.93945 8.80859 -7.59766 8.80859 -7.02148 C 8.80859 -6.46484 9.23828 -6.13281 9.83398 -6.13281 L 14.0625 -6.13281 L 14.0625 -2.06055 C 14.0625 -1.47461 14.3848 -1.06445 14.9512 -1.06445 Z"/>
  </g>
  <text style="stroke:none;fill:black;font-family:-apple-system,&quot;SF Pro Display&quot;,&quot;SF Pro Text&quot;,Helvetica,sans-serif;font-weight:bold;" transform="matrix(1 0 0 1 263 1953)">Design Variations</text>
  <text style="stroke:none;fill:black;font-family:-apple-system,&quot;SF Pro Display&quot;,&quot;SF Pro Text&quot;,Helvetica,sans-serif;" transform="matrix(1 0 0 1 263 1971)">Symbols are supported in up to nine weights and three scales.</text>
  <text style="stroke:none;fill:black;font-family:-apple-system,&quot;SF Pro Display&quot;,&quot;SF Pro Text&quot;,Helvetica,sans-serif;" transform="matrix(1 0 0 1 263 1989)">For optimal layout with text and other symbols, vertically align</text>
  <text style="stroke:none;fill:black;font-family:-apple-system,&quot;SF Pro Display&quot;,&quot;SF Pro Text&quot;,Helvetica,sans-serif;" transform="matrix(1 0 0 1 263 2007)">symbols with the adjacent text.</text>
  <rect height="14" id="" style="fill:#00AEEF;stroke:none;opacity:0.4;" width="3" x="776" y="1919"/>
  <g id="" transform="matrix(1 0 0 1 779 1933)">
   <path d="M 10.5273 0 L 12.373 0 L 7.17773 -14.0918 L 5.43945 -14.0918 L 0.244141 0 L 2.08984 0 L 3.50586 -4.0332 L 9.11133 -4.0332 Z M 6.2793 -11.9531 L 6.33789 -11.9531 L 8.59375 -5.52734 L 4.02344 -5.52734 Z"/>
  </g>
  <rect height="14" id="" style="fill:#00AEEF;stroke:none;opacity:0.4;" width="3" x="791.617" y="1919"/>
  <text style="stroke:none;fill:black;font-family:-apple-system,&quot;SF Pro Display&quot;,&quot;SF Pro Text&quot;,Helvetica,sans-serif;font-weight:bold;" transform="matrix(1 0 0 1 776 1953)">Margins</text>
  <text style="stroke:none;fill:black;font-family:-apple-system,&quot;SF Pro Display&quot;,&quot;SF Pro Text&quot;,Helvetica,sans-serif;" transform="matrix(1 0 0 1 776 1971)">Leading and trailing margins on the left and right side of each symbol</text>
  <text style="stroke:none;fill:black;font-family:-apple-system,&quot;SF Pro Display&quot;,&quot;SF Pro Text&quot;,Helvetica,sans-serif;" transform="matrix(1 0 0 1 776 1989)">can be adjusted by modifying the width of the blue rectangles.</text>
  <text style="stroke:none;fill:black;font-family:-apple-system,&quot;SF Pro Display&quot;,&quot;SF Pro Text&quot;,Helvetica,sans-serif;" transform="matrix(1 0 0 1 776 2007)">Modifications are automatically applied proportionally to all</text>
  <text style="stroke:none;fill:black;font-family:-apple-system,&quot;SF Pro Display&quot;,&quot;SF Pro Text&quot;,Helvetica,sans-serif;" transform="matrix(1 0 0 1 776 2025)">scales and weights.</text>
  <g id="" transform="matrix(1 0 0 1 1289 1933)">
   <path d="M 2.83203 3.11523 L 4.375 4.6582 C 5.22461 5.48828 6.19141 5.41992 7.06055 4.46289 L 17.2754 -6.66016 C 17.7051 -6.36719 18.0957 -6.37695 18.5645 -6.47461 L 19.6094 -6.68945 L 20.3027 -5.99609 L 20.2539 -5.47852 C 20.1855 -4.95117 20.3516 -4.53125 20.8496 -4.0332 L 21.6602 -3.22266 C 22.168 -2.71484 22.8223 -2.68555 23.3008 -3.16406 L 26.5527 -6.41602 C 27.0312 -6.89453 27.0117 -7.54883 26.5039 -8.05664 L 25.6836 -8.87695 C 25.1855 -9.375 24.7754 -9.55078 24.2383 -9.47266 L 23.7109 -9.41406 L 23.0566 -10.0781 L 23.3398 -11.2207 C 23.4863 -11.7871 23.3398 -12.2559 22.7148 -12.8613 L 20.3027 -15.2539 C 16.7578 -18.7793 12.2266 -18.6719 9.11133 -15.5371 C 8.69141 -15.1074 8.64258 -14.5215 8.91602 -14.0918 C 9.15039 -13.7207 9.62891 -13.4961 10.2734 -13.6621 C 11.7871 -14.043 13.3008 -13.9258 14.7852 -12.9199 L 14.1602 -11.3379 C 13.9258 -10.752 13.9453 -10.2734 14.1797 -9.83398 L 3.01758 0.439453 C 2.08008 1.30859 1.97266 2.25586 2.83203 3.11523 Z M 10.6738 -15.1465 C 13.3398 -17.1387 16.6504 -16.8262 19.0527 -14.4141 L 21.6797 -11.8066 C 21.9141 -11.5723 21.9434 -11.3867 21.8848 -11.0938 L 21.5039 -9.53125 L 23.0762 -7.95898 L 24.043 -8.04688 C 24.3262 -8.07617 24.4141 -8.05664 24.6387 -7.83203 L 25.2637 -7.20703 L 22.5098 -4.46289 L 21.8848 -5.07812 C 21.6602 -5.30273 21.6406 -5.40039 21.6699 -5.68359 L 21.7578 -6.64062 L 20.1953 -8.20312 L 18.5742 -7.89062 C 18.291 -7.83203 18.1445 -7.83203 17.9102 -8.07617 L 15.7324 -10.2539 C 15.5078 -10.4883 15.4785 -10.625 15.6055 -10.9473 L 16.5527 -13.2227 C 14.9512 -14.7559 12.8418 -15.6055 10.8008 -14.9512 C 10.7129 -14.9219 10.6445 -14.9414 10.6152 -14.9805 C 10.5859 -15.0293 10.5859 -15.0781 10.6738 -15.1465 Z M 4.10156 2.41211 C 3.61328 1.91406 3.78906 1.61133 4.12109 1.30859 L 15.0781 -8.80859 L 16.3086 -7.57812 L 6.15234 3.34961 C 5.84961 3.68164 5.46875 3.7793 5.06836 3.37891 Z"/>
  </g>
  <text style="stroke:none;fill:black;font-family:-apple-system,&quot;SF Pro Display&quot;,&quot;SF Pro Text&quot;,Helvetica,sans-serif;font-weight:bold;" transform="matrix(1 0 0 1 1289 1953)">Exporting</text>
  <text style="stroke:none;fill:black;font-family:-apple-system,&quot;SF Pro Display&quot;,&quot;SF Pro Text&quot;,Helvetica,sans-serif;" transform="matrix(1 0 0 1 1289 1971)">Symbols should be outlined when exporting to ensure the</text>
  <text style="stroke:none;fill:black;font-family:-apple-system,&quot;SF Pro Display&quot;,&quot;SF Pro Text&quot;,Helvetica,sans-serif;" transform="matrix(1 0 0 1 1289 1989)">design is preserved when submitting to Xcode.</text>
  <text id="template-version" style="stroke:none;fill:black;font-family:-apple-system,&quot;SF Pro Display&quot;,&quot;SF Pro Text&quot;,Helvetica,sans-serif;text-anchor:end;" transform="matrix(1 0 0 1 3036 1933)">Template v.1.0</text>
  <text style="stroke:none;fill:black;font-family:-apple-system,&quot;SF Pro Display&quot;,&quot;SF Pro Text&quot;,Helvetica,sans-serif;text-anchor:end;" transform="matrix(1 0 0 1 3036 1951)">Generated from plus.circle.fill</text>
  <text style="stroke:none;fill:black;font-family:-apple-system,&quot;SF Pro Display&quot;,&quot;SF Pro Text&quot;,Helvetica,sans-serif;text-anchor:end;" transform="matrix(1 0 0 1 3036 1969)">Typeset at 100 points</text>
  <text style="stroke:none;fill:black;font-family:-apple-system,&quot;SF Pro Display&quot;,&quot;SF Pro Text&quot;,Helvetica,sans-serif;" transform="matrix(1 0 0 1 263 726)">Small</text>
  <text style="stroke:none;fill:black;font-family:-apple-system,&quot;SF Pro Display&quot;,&quot;SF Pro Text&quot;,Helvetica,sans-serif;" transform="matrix(1 0 0 1 263 1156)">Medium</text>
  <text style="stroke:none;fill:black;font-family:-apple-system,&quot;SF Pro Display&quot;,&quot;SF Pro Text&quot;,Helvetica,sans-serif;" transform="matrix(1 0 0 1 263 1586)">Large</text>
 </g>
 <g id="Guides">
  <g id="H-reference" style="fill:#27AAE1;stroke:none;" transform="matrix(1 0 0 1 339 696)">
   <path d="M 54.9316 0 L 57.666 0 L 30.5664 -70.459 L 28.0762 -70.459 L 0.976562 0 L 3.66211 0 L 12.9395 -24.4629 L 45.7031 -24.4629 Z M 29.1992 -67.0898 L 29.4434 -67.0898 L 44.8242 -26.709 L 13.8184 -26.709 Z"/>
  </g>
  <line id="Baseline-S" style="fill:none;stroke:#27AAE1;opacity:1;stroke-width:0.577;" x1="263" x2="3036" y1="696" y2="696"/>
  <line id="Capline-S" style="fill:none;stroke:#27AAE1;opacity:1;stroke-width:0.577;" x1="263" x2="3036" y1="625.541" y2="625.541"/>
  <g id="H-reference" style="fill:#27AAE1;stroke:none;" transform="matrix(1 0 0 1 339 1126)">
   <path d="M 54.9316 0 L 57.666 0 L 30.5664 -70.459 L 28.0762 -70.459 L 0.976562 0 L 3.66211 0 L 12.9395 -24.4629 L 45.7031 -24.4629 Z M 29.1992 -67.0898 L 29.4434 -67.0898 L 44.8242 -26.709 L 13.8184 -26.709 Z"/>
  </g>
  <line id="Baseline-M" style="fill:none;stroke:#27AAE1;opacity:1;stroke-width:0.577;" x1="263" x2="3036" y1="1126" y2="1126"/>
  <line id="Capline-M" style="fill:none;stroke:#27AAE1;opacity:1;stroke-width:0.577;" x1="263" x2="3036" y1="1055.54" y2="1055.54"/>
  <g id="H-reference" style="fill:#27AAE1;stroke:none;" transform="matrix(1 0 0 1 339 1556)">
   <path d="M 54.9316 0 L 57.666 0 L 30.5664 -70.459 L 28.0762 -70.459 L 0.976562 0 L 3.66211 0 L 12.9395 -24.4629 L 45.7031 -24.4629 Z M 29.1992 -67.0898 L 29.4434 -67.0898 L 44.8242 -26.709 L 13.8184 -26.709 Z"/>
  </g>
  <line id="Baseline-L" style="fill:none;stroke:#27AAE1;opacity:1;stroke-width:0.577;" x1="263" x2="3036" y1="1556" y2="1556"/>
  <line id="Capline-L" style="fill:none;stroke:#27AAE1;opacity:1;stroke-width:0.577;" x1="263" x2="3036" y1="1485.54" y2="1485.54"/>
  <rect height="119.336" id="left-margin" style="fill:#00AEEF;stroke:none;opacity:0.4;" width="8.74023" x="1391.3" y="1030.79"/>
  <rect height="119.336" id="right-margin" style="fill:#00AEEF;stroke:none;opacity:0.4;" width="8.74023" x="1499.65" y="1030.79"/>
 </g>
 <g id="Symbols">
  <g id="Black-L" transform="matrix(1 0 0 1 2854.05 1556)">
   <path d="M 79.3457 32.8613 C 116.748 32.8613 147.412 2.19727 147.412 -35.2051 C 147.412 -72.6074 116.748 -103.271 79.2969 -103.271 C 41.8945 -103.271 11.2793 -72.6074 11.2793 -35.2051 C 11.2793 2.19727 41.9434 32.8613 79.3457 32.8613 Z M 79.2969 -4.15039 C 74.2676 -4.15039 70.7031 -7.76367 70.7031 -12.7441 L 70.7031 -26.5137 L 55.957 -26.5137 C 50.9766 -26.5137 47.2656 -30.127 47.2656 -35.1074 C 47.2656 -40.1367 50.9277 -43.75 55.957 -43.75 L 70.7031 -43.75 L 70.7031 -58.0078 C 70.7031 -62.9395 74.2676 -66.6016 79.2969 -66.6016 C 84.2773 -66.6016 87.9395 -62.9883 87.9395 -58.0078 L 87.9395 -43.75 L 102.734 -43.75 C 107.812 -43.75 111.377 -40.1367 111.377 -35.1074 C 111.377 -30.127 107.764 -26.5137 102.734 -26.5137 L 87.9395 -26.5137 L 87.9395 -12.7441 C 87.9395 -7.71484 84.2773 -4.15039 79.2969 -4.15039 Z"/>
  </g>
  <g id="Heavy-L" transform="matrix(1 0 0 1 2558.39 1556)">
   <path d="M 78.2715 31.7871 C 115.088 31.7871 145.312 1.61133 145.312 -35.2051 C 145.312 -72.0215 115.039 -102.197 78.2715 -102.197 C 41.4551 -102.197 11.2793 -72.0215 11.2793 -35.2051 C 11.2793 1.61133 41.5039 31.7871 78.2715 31.7871 Z M 78.2227 -4.05273 C 73.6816 -4.05273 70.5566 -7.37305 70.5566 -11.8652 L 70.5566 -27.4414 L 54.0527 -27.4414 C 49.5117 -27.4414 46.1426 -30.6152 46.1426 -35.1074 C 46.1426 -39.6973 49.4141 -42.8711 54.0527 -42.8711 L 70.5566 -42.8711 L 70.5566 -59.0332 C 70.5566 -63.5254 73.6816 -66.7969 78.2227 -66.7969 C 82.7637 -66.7969 85.9863 -63.5742 85.9863 -59.0332 L 85.9863 -42.8711 L 102.49 -42.8711 C 107.129 -42.8711 110.352 -39.6973 110.352 -35.1074 C 110.352 -30.6152 107.08 -27.4414 102.49 -27.4414 L 85.9863 -27.4414 L 85.9863 -11.8652 C 85.9863 -7.32422 82.7637 -4.05273 78.2227 -4.05273 Z"/>
  </g>
  <g id="Bold-L" transform="matrix(1 0 0 1 2262.88 1556)">
   <path d="M 77.0996 30.6152 C 113.232 30.6152 142.92 0.878906 142.92 -35.2051 C 142.92 -71.3379 113.184 -101.025 77.0508 -101.025 C 40.9668 -101.025 11.2793 -71.3379 11.2793 -35.2051 C 11.2793 0.878906 41.0156 30.6152 77.0996 30.6152 Z M 77.002 -4.00391 C 72.998 -4.00391 70.3613 -6.88477 70.3613 -10.8887 L 70.3613 -28.5156 L 51.9043 -28.5156 C 47.8516 -28.5156 44.9219 -31.1523 44.9219 -35.1074 C 44.9219 -39.1602 47.7539 -41.8457 51.9043 -41.8457 L 70.3613 -41.8457 L 70.3613 -60.1562 C 70.3613 -64.1602 72.998 -67.0898 77.002 -67.0898 C 81.0059 -67.0898 83.7402 -64.2578 83.7402 -60.1562 L 83.7402 -41.8457 L 102.295 -41.8457 C 106.445 -41.8457 109.229 -39.1602 109.229 -35.1074 C 109.229 -31.1523 106.348 -28.5156 102.295 -28.5156 L 83.7402 -28.5156 L 83.7402 -10.8887 C 83.7402 -6.83594 81.0059 -4.00391 77.002 -4.00391 Z"/>
  </g>
  <g id="Semibold-L" transform="matrix(1 0 0 1 1966.97 1556)">
   <path d="M 76.2695 29.7852 C 111.914 29.7852 141.309 0.439453 141.309 -35.2051 C 141.309 -70.8496 111.865 -100.244 76.2695 -100.244 C 40.625 -100.244 11.2793 -70.8496 11.2793 -35.2051 C 11.2793 0.439453 40.6738 29.7852 76.2695 29.7852 Z M 76.1719 -3.95508 C 72.5586 -3.95508 70.2637 -6.5918 70.2637 -10.2539 L 70.2637 -29.248 L 50.4395 -29.248 C 46.7285 -29.248 44.043 -31.543 44.043 -35.1074 C 44.043 -38.8184 46.6309 -41.1621 50.4395 -41.1621 L 70.2637 -41.1621 L 70.2637 -60.9375 C 70.2637 -64.5996 72.5586 -67.2363 76.1719 -67.2363 C 79.834 -67.2363 82.2266 -64.6973 82.2266 -60.9375 L 82.2266 -41.1621 L 102.1 -41.1621 C 105.957 -41.1621 108.447 -38.8184 108.447 -35.1074 C 108.447 -31.543 105.811 -29.248 102.1 -29.248 L 82.2266 -29.248 L 82.2266 -10.2539 C 82.2266 -6.49414 79.834 -3.95508 76.1719 -3.95508 Z"/>
  </g>
  <g id="Medium-L" transform="matrix(1 0 0 1 1670.87 1556)">
   <path d="M 75.6836 29.1992 C 110.938 29.1992 140.088 0.0488281 140.088 -35.2051 C 140.088 -70.459 110.889 -99.6094 75.6348 -99.6094 C 40.3809 -99.6094 11.2793 -70.459 11.2793 -35.2051 C 11.2793 0.0488281 40.3809 29.1992 75.6836 29.1992 Z M 75.5371 -3.90625 C 72.2168 -3.90625 70.2148 -6.34766 70.2148 -9.76562 L 70.2148 -29.7852 L 49.3164 -29.7852 C 45.8496 -29.7852 43.4082 -31.8359 43.4082 -35.1074 C 43.4082 -38.5254 45.752 -40.625 49.3164 -40.625 L 70.2148 -40.625 L 70.2148 -61.5234 C 70.2148 -64.9414 72.2168 -67.3828 75.5371 -67.3828 C 78.9062 -67.3828 81.0547 -65.0391 81.0547 -61.5234 L 81.0547 -40.625 L 102.002 -40.625 C 105.566 -40.625 107.861 -38.5254 107.861 -35.1074 C 107.861 -31.8359 105.42 -29.7852 102.002 -29.7852 L 81.0547 -29.7852 L 81.0547 -9.76562 C 81.0547 -6.25 78.9062 -3.90625 75.5371 -3.90625 Z"/>
  </g>
  <g id="Regular-L" transform="matrix(1 0 0 1 1374.97 1556)">
   <path d="M 74.8535 28.3691 C 109.668 28.3691 138.477 -0.390625 138.477 -35.2051 C 138.477 -70.0195 109.619 -98.7793 74.8047 -98.7793 C 40.0391 -98.7793 11.2793 -70.0195 11.2793 -35.2051 C 11.2793 -0.390625 40.0879 28.3691 74.8535 28.3691 Z M 74.7559 -3.85742 C 71.7285 -3.85742 70.0684 -6.05469 70.0684 -9.08203 L 70.0684 -30.5176 L 47.8516 -30.5176 C 44.7754 -30.5176 42.5293 -32.1777 42.5293 -35.1074 C 42.5293 -38.1836 44.6289 -39.9414 47.8516 -39.9414 L 70.0684 -39.9414 L 70.0684 -62.3047 C 70.0684 -65.3809 71.7285 -67.5781 74.7559 -67.5781 C 77.7344 -67.5781 79.541 -65.4785 79.541 -62.3047 L 79.541 -39.9414 L 101.807 -39.9414 C 105.078 -39.9414 107.08 -38.1836 107.08 -35.1074 C 107.08 -32.1777 104.932 -30.5176 101.807 -30.5176 L 79.541 -30.5176 L 79.541 -9.08203 C 79.541 -5.9082 77.7344 -3.85742 74.7559 -3.85742 Z"/>
  </g>
  <g id="Light-L" transform="matrix(1 0 0 1 1079.18 1556)">
   <path d="M 73.9258 27.4902 C 108.301 27.4902 136.621 -0.830078 136.621 -35.1562 C 136.621 -69.5312 108.252 -97.8516 73.9258 -97.8516 C 39.5508 -97.8516 11.2793 -69.5312 11.2793 -35.1562 C 11.2793 -0.830078 39.5996 27.4902 73.9258 27.4902 Z M 73.8281 -3.80859 C 71.582 -3.80859 70.3125 -5.46875 70.3125 -7.71484 L 70.3125 -31.5918 L 45.9473 -31.5918 C 43.6523 -31.5918 41.9434 -32.959 41.9434 -35.1074 C 41.9434 -37.4023 43.5547 -38.8184 45.9473 -38.8184 L 70.3125 -38.8184 L 70.3125 -63.2324 C 70.3125 -65.5273 71.582 -67.2363 73.8281 -67.2363 C 76.123 -67.2363 77.5391 -65.625 77.5391 -63.2324 L 77.5391 -38.8184 L 101.904 -38.8184 C 104.297 -38.8184 105.859 -37.4023 105.859 -35.1074 C 105.859 -32.959 104.199 -31.5918 101.904 -31.5918 L 77.5391 -31.5918 L 77.5391 -7.71484 C 77.5391 -5.41992 76.123 -3.80859 73.8281 -3.80859 Z"/>
  </g>
  <g id="Thin-L" transform="matrix(1 0 0 1 783.693 1556)">
   <path d="M 72.7051 26.3184 C 106.494 26.3184 134.18 -1.36719 134.18 -35.1074 C 134.18 -68.8965 106.494 -96.582 72.7051 -96.582 C 38.9648 -96.582 11.2793 -68.8965 11.2793 -35.1074 C 11.2793 -1.36719 38.9648 26.3184 72.7051 26.3184 Z M 72.6562 -3.75977 C 71.3867 -3.75977 70.5566 -4.73633 70.5566 -5.9082 L 70.5566 -33.0566 L 43.4082 -33.0566 C 42.2363 -33.0566 41.1621 -33.9355 41.1621 -35.1074 C 41.1621 -36.4258 42.1387 -37.3535 43.4082 -37.3535 L 70.5566 -37.3535 L 70.5566 -64.5508 C 70.5566 -65.7715 71.3867 -66.748 72.6562 -66.748 C 74.0234 -66.748 74.8535 -65.7715 74.8535 -64.5508 L 74.8535 -37.3535 L 102.051 -37.3535 C 103.32 -37.3535 104.248 -36.4258 104.248 -35.1074 C 104.248 -33.9355 103.223 -33.0566 102.051 -33.0566 L 74.8535 -33.0566 L 74.8535 -5.9082 C 74.8535 -4.73633 74.0234 -3.75977 72.6562 -3.75977 Z"/>
  </g>
  <g id="Ultralight-L" transform="matrix(1 0 0 1 487.616 1556)">
   <path d="M 72.1191 25.7324 C 105.566 25.7324 132.91 -1.61133 132.91 -35.1074 C 132.91 -68.5547 105.566 -95.8984 72.1191 -95.8984 C 38.623 -95.8984 11.2793 -68.5547 11.2793 -35.1074 C 11.2793 -1.61133 38.623 25.7324 72.1191 25.7324 Z M 72.0215 -3.71094 C 71.2891 -3.71094 70.7031 -4.3457 70.7031 -4.98047 L 70.7031 -33.7891 L 42.0898 -33.7891 C 41.5039 -33.7891 40.7715 -34.4727 40.7715 -35.1074 C 40.7715 -35.8887 41.4062 -36.5723 42.0898 -36.5723 L 70.7031 -36.5723 L 70.7031 -65.1855 C 70.7031 -65.8691 71.2891 -66.5039 72.0215 -66.5039 C 72.9004 -66.5039 73.4863 -65.8691 73.4863 -65.1855 L 73.4863 -36.5723 L 102.1 -36.5723 C 102.783 -36.5723 103.467 -35.8887 103.467 -35.1074 C 103.467 -34.4727 102.734 -33.7891 102.1 -33.7891 L 73.4863 -33.7891 L 73.4863 -4.98047 C 73.4863 -4.39453 72.9004 -3.71094 72.0215 -3.71094 Z"/>
  </g>
  <g id="Black-M" transform="matrix(1 0 0 1 2870.97 1126)">
   <path d="M 62.4023 18.457 C 91.9922 18.457 116.113 -5.61523 116.113 -35.2051 C 116.113 -64.7949 91.9922 -88.8672 62.4023 -88.8672 C 32.8125 -88.8672 8.74023 -64.7949 8.74023 -35.2051 C 8.74023 -5.61523 32.8125 18.457 62.4023 18.457 Z M 62.4023 -11.2305 C 58.3008 -11.2305 55.0781 -14.209 55.0781 -18.2129 L 55.0781 -27.7832 L 44.873 -27.7832 C 40.8691 -27.7832 37.8418 -31.0059 37.8418 -35.1562 C 37.8418 -39.2578 40.8691 -42.4805 44.873 -42.4805 L 55.0781 -42.4805 L 55.0781 -52.002 C 55.0781 -56.0059 58.3008 -59.0332 62.4023 -59.0332 C 66.5527 -59.0332 69.7754 -56.0059 69.7754 -52.002 L 69.7754 -42.4805 L 79.9316 -42.4805 C 83.9844 -42.4805 87.0117 -39.2578 87.0117 -35.1562 C 87.0117 -31.0059 83.9844 -27.7832 79.9316 -27.7832 L 69.7754 -27.7832 L 69.7754 -18.2129 C 69.7754 -14.209 66.5527 -11.2305 62.4023 -11.2305 Z"/>
  </g>
  <g id="Heavy-M" transform="matrix(1 0 0 1 2575.19 1126)">
   <path d="M 61.5234 17.5781 C 90.5273 17.5781 114.258 -6.15234 114.258 -35.2051 C 114.258 -64.2578 90.5273 -87.9883 61.4746 -87.9883 C 32.4707 -87.9883 8.74023 -64.2578 8.74023 -35.2051 C 8.74023 -6.15234 32.4707 17.5781 61.5234 17.5781 Z M 61.4746 -11.1328 C 57.666 -11.1328 54.8828 -13.916 54.8828 -17.627 L 54.8828 -28.5156 L 43.3105 -28.5156 C 39.5508 -28.5156 36.7676 -31.3477 36.7676 -35.1562 C 36.7676 -38.9648 39.5508 -41.7969 43.3105 -41.7969 L 54.8828 -41.7969 L 54.8828 -52.8809 C 54.8828 -56.5918 57.666 -59.375 61.4746 -59.375 C 65.2832 -59.375 68.1152 -56.6406 68.1152 -52.8809 L 68.1152 -41.7969 L 79.6875 -41.7969 C 83.4961 -41.7969 86.2305 -38.9648 86.2305 -35.1562 C 86.2305 -31.3477 83.4961 -28.5156 79.6875 -28.5156 L 68.1152 -28.5156 L 68.1152 -17.627 C 68.1152 -13.8672 65.2832 -11.1328 61.4746 -11.1328 Z"/>
  </g>
  <g id="Bold-M" transform="matrix(1 0 0 1 2279.5 1126)">
   <path d="M 60.498 16.5039 C 88.8672 16.5039 112.207 -6.78711 112.207 -35.2051 C 112.207 -63.623 88.8672 -86.9629 60.4492 -86.9629 C 32.0312 -86.9629 8.74023 -63.623 8.74023 -35.2051 C 8.74023 -6.78711 32.0801 16.5039 60.498 16.5039 Z M 60.4492 -11.084 C 56.9824 -11.084 54.6387 -13.5742 54.6387 -16.9922 L 54.6387 -29.3457 L 41.5527 -29.3457 C 38.0859 -29.3457 35.5469 -31.7383 35.5469 -35.1562 C 35.5469 -38.623 38.0371 -40.9668 41.5527 -40.9668 L 54.6387 -40.9668 L 54.6387 -53.8574 C 54.6387 -57.2754 56.9824 -59.7656 60.4492 -59.7656 C 63.8672 -59.7656 66.2598 -57.3242 66.2598 -53.8574 L 66.2598 -40.9668 L 79.3945 -40.9668 C 82.9102 -40.9668 85.3516 -38.623 85.3516 -35.1562 C 85.3516 -31.7383 82.8613 -29.3457 79.3945 -29.3457 L 66.2598 -29.3457 L 66.2598 -16.9922 C 66.2598 -13.5254 63.8672 -11.084 60.4492 -11.084 Z"/>
  </g>
  <g id="Semibold-M" transform="matrix(1 0 0 1 1983.5 1126)">
   <path d="M 59.7656 15.8203 C 87.7441 15.8203 110.791 -7.22656 110.791 -35.2051 C 110.791 -63.1836 87.6953 -86.2793 59.7656 -86.2793 C 31.7871 -86.2793 8.74023 -63.1836 8.74023 -35.2051 C 8.74023 -7.22656 31.7871 15.8203 59.7656 15.8203 Z M 59.7168 -11.0352 C 56.4941 -11.0352 54.4922 -13.3301 54.4922 -16.5527 L 54.4922 -29.9316 L 40.332 -29.9316 C 37.0605 -29.9316 34.7168 -31.9824 34.7168 -35.1562 C 34.7168 -38.3789 37.0117 -40.4297 40.332 -40.4297 L 54.4922 -40.4297 L 54.4922 -54.4922 C 54.4922 -57.7148 56.4941 -60.0098 59.7168 -60.0098 C 62.8906 -60.0098 64.9902 -57.7637 64.9902 -54.4922 L 64.9902 -40.4297 L 79.1992 -40.4297 C 82.5195 -40.4297 84.7656 -38.3789 84.7656 -35.1562 C 84.7656 -31.9824 82.4707 -29.9316 79.1992 -29.9316 L 64.9902 -29.9316 L 64.9902 -16.5527 C 64.9902 -13.2812 62.8906 -11.0352 59.7168 -11.0352 Z"/>
  </g>
  <g id="Medium-M" transform="matrix(1 0 0 1 1687.3 1126)">
   <path d="M 59.2285 15.2832 C 86.9141 15.2832 109.766 -7.56836 109.766 -35.2051 C 109.766 -62.8906 86.8652 -85.7422 59.1797 -85.7422 C 31.543 -85.7422 8.74023 -62.8906 8.74023 -35.2051 C 8.74023 -7.56836 31.5918 15.2832 59.2285 15.2832 Z M 59.1309 -10.9863 C 56.1523 -10.9863 54.3457 -13.1348 54.3457 -16.2109 L 54.3457 -30.3711 L 39.4043 -30.3711 C 36.3281 -30.3711 34.1309 -32.1777 34.1309 -35.1562 C 34.1309 -38.1836 36.2305 -40.0391 39.4043 -40.0391 L 54.3457 -40.0391 L 54.3457 -54.9805 C 54.3457 -58.0566 56.1523 -60.2539 59.1309 -60.2539 C 62.1094 -60.2539 64.0625 -58.1543 64.0625 -54.9805 L 64.0625 -40.0391 L 79.0527 -40.0391 C 82.2266 -40.0391 84.2773 -38.1836 84.2773 -35.1562 C 84.2773 -32.1777 82.1289 -30.3711 79.0527 -30.3711 L 64.0625 -30.3711 L 64.0625 -16.2109 C 64.0625 -13.0859 62.1094 -10.9863 59.1309 -10.9863 Z"/>
  </g>
  <g id="Regular-M" transform="matrix(1 0 0 1 1391.3 1126)">
   <path d="M 58.5449 14.5508 C 85.791 14.5508 108.35 -8.00781 108.35 -35.2539 C 108.35 -62.4512 85.7422 -85.0586 58.4961 -85.0586 C 31.2988 -85.0586 8.74023 -62.4512 8.74023 -35.2539 C 8.74023 -8.00781 31.3477 14.5508 58.5449 14.5508 Z M 58.4473 -10.9375 C 55.6641 -10.9375 54.1992 -12.9395 54.1992 -15.7715 L 54.1992 -30.957 L 38.1836 -30.957 C 35.3027 -30.957 33.3008 -32.4707 33.3008 -35.1562 C 33.3008 -37.9395 35.2051 -39.502 38.1836 -39.502 L 54.1992 -39.502 L 54.1992 -55.6641 C 54.1992 -58.4961 55.6641 -60.498 58.4473 -60.498 C 61.1816 -60.498 62.793 -58.5938 62.793 -55.6641 L 62.793 -39.502 L 78.8574 -39.502 C 81.8359 -39.502 83.6914 -37.9395 83.6914 -35.1562 C 83.6914 -32.4707 81.7383 -30.957 78.8574 -30.957 L 62.793 -30.957 L 62.793 -15.7715 C 62.793 -12.8418 61.1816 -10.9375 58.4473 -10.9375 Z"/>
  </g>
  <g id="Light-M" transform="matrix(1 0 0 1 1095.42 1126)">
   <path d="M 57.7148 13.7695 C 84.5215 13.7695 106.689 -8.39844 106.689 -35.2051 C 106.689 -62.0117 84.5215 -84.1797 57.666 -84.1797 C 30.8594 -84.1797 8.74023 -62.0117 8.74023 -35.2051 C 8.74023 -8.39844 30.9082 13.7695 57.7148 13.7695 Z M 57.6172 -10.8887 C 55.5664 -10.8887 54.3945 -12.4023 54.3945 -14.502 L 54.3945 -31.9336 L 36.4746 -31.9336 C 34.3262 -31.9336 32.7637 -33.1055 32.7637 -35.1562 C 32.7637 -37.2559 34.2285 -38.5254 36.4746 -38.5254 L 54.3945 -38.5254 L 54.3945 -56.543 C 54.3945 -58.6426 55.5664 -60.1562 57.6172 -60.1562 C 59.7168 -60.1562 60.9863 -58.7402 60.9863 -56.543 L 60.9863 -38.5254 L 78.9551 -38.5254 C 81.1523 -38.5254 82.6172 -37.2559 82.6172 -35.1562 C 82.6172 -33.1055 81.0547 -31.9336 78.9551 -31.9336 L 60.9863 -31.9336 L 60.9863 -14.502 C 60.9863 -12.3535 59.7168 -10.8887 57.6172 -10.8887 Z"/>
  </g>
  <g id="Thin-M" transform="matrix(1 0 0 1 799.806 1126)">
   <path d="M 56.6406 12.7441 C 82.9102 12.7441 104.492 -8.83789 104.492 -35.1562 C 104.492 -61.4746 82.9102 -83.0566 56.5918 -83.0566 C 30.3223 -83.0566 8.74023 -61.4746 8.74023 -35.1562 C 8.74023 -8.83789 30.3223 12.7441 56.6406 12.7441 Z M 56.543 -10.8398 C 55.3711 -10.8398 54.6387 -11.7676 54.6387 -12.8906 L 54.6387 -33.2031 L 34.1797 -33.2031 C 33.0078 -33.2031 32.0801 -34.0332 32.0801 -35.1562 C 32.0801 -36.377 32.959 -37.207 34.1797 -37.207 L 54.6387 -37.207 L 54.6387 -57.666 C 54.6387 -58.8379 55.3711 -59.7656 56.543 -59.7656 C 57.8125 -59.7656 58.5938 -58.8867 58.5938 -57.666 L 58.5938 -37.207 L 79.0527 -37.207 C 80.2734 -37.207 81.1523 -36.377 81.1523 -35.1562 C 81.1523 -34.0332 80.2246 -33.2031 79.0527 -33.2031 L 58.5938 -33.2031 L 58.5938 -12.8906 C 58.5938 -11.7188 57.8125 -10.8398 56.543 -10.8398 Z"/>
  </g>
  <g id="Ultralight-M" transform="matrix(1 0 0 1 503.656 1126)">
   <path d="M 56.0547 12.207 C 82.0801 12.207 103.369 -9.08203 103.369 -35.1562 C 103.369 -61.1816 82.0801 -82.4707 56.0547 -82.4707 C 30.0293 -82.4707 8.74023 -61.1816 8.74023 -35.1562 C 8.74023 -9.08203 30.0293 12.207 56.0547 12.207 Z M 56.0059 -10.8398 C 55.2734 -10.8398 54.7363 -11.4258 54.7363 -12.0605 L 54.7363 -33.8867 L 33.0078 -33.8867 C 32.373 -33.8867 31.6895 -34.4727 31.6895 -35.1562 C 31.6895 -35.8887 32.3242 -36.5234 33.0078 -36.5234 L 54.7363 -36.5234 L 54.7363 -58.252 C 54.7363 -58.9355 55.2734 -59.5703 56.0059 -59.5703 C 56.8359 -59.5703 57.373 -58.9355 57.373 -58.252 L 57.373 -36.5234 L 79.1016 -36.5234 C 79.834 -36.5234 80.4199 -35.8887 80.4199 -35.1562 C 80.4199 -34.4727 79.7363 -33.8867 79.1016 -33.8867 L 57.373 -33.8867 L 57.373 -12.0605 C 57.373 -11.4258 56.8359 -10.8398 56.0059 -10.8398 Z"/>
  </g>
  <g id="Black-S" transform="matrix(1 0 0 1 2884.57 696)">
   <path d="M 48.8281 6.78711 C 71.9727 6.78711 90.8203 -12.0605 90.8203 -35.2051 C 90.8203 -58.3496 71.9727 -77.1973 48.8281 -77.1973 C 25.6836 -77.1973 6.83594 -58.3496 6.83594 -35.2051 C 6.83594 -12.0605 25.6836 6.78711 48.8281 6.78711 Z M 48.8281 -16.4062 C 45.6055 -16.4062 43.1152 -18.75 43.1152 -21.875 L 43.1152 -29.4434 L 35.0586 -29.4434 C 31.9336 -29.4434 29.541 -31.9336 29.541 -35.1562 C 29.541 -38.3789 31.9336 -40.8691 35.0586 -40.8691 L 43.1152 -40.8691 L 43.1152 -48.4375 C 43.1152 -51.5625 45.6055 -53.9062 48.8281 -53.9062 C 52.0508 -53.9062 54.541 -51.5625 54.541 -48.4375 L 54.541 -40.8691 L 62.5977 -40.8691 C 65.7715 -40.8691 68.1152 -38.3789 68.1152 -35.1562 C 68.1152 -31.9336 65.7715 -29.4434 62.5977 -29.4434 L 54.541 -29.4434 L 54.541 -21.875 C 54.541 -18.75 52.0508 -16.4062 48.8281 -16.4062 Z"/>
  </g>
  <g id="Heavy-S" transform="matrix(1 0 0 1 2588.47 696)">
   <path d="M 48.2422 6.15234 C 70.9961 6.15234 89.5996 -12.4512 89.5996 -35.2051 C 89.5996 -57.959 70.9961 -76.6113 48.1934 -76.6113 C 25.4395 -76.6113 6.83594 -57.959 6.83594 -35.2051 C 6.83594 -12.4512 25.4395 6.15234 48.2422 6.15234 Z M 48.1934 -16.3574 C 45.166 -16.3574 42.9199 -18.5547 42.9199 -21.582 L 42.9199 -29.8828 L 34.0332 -29.8828 C 31.0547 -29.8828 28.7598 -32.1289 28.7598 -35.1562 C 28.7598 -38.2324 31.0059 -40.4297 34.0332 -40.4297 L 42.9199 -40.4297 L 42.9199 -49.0234 C 42.9199 -52.002 45.166 -54.1992 48.1934 -54.1992 C 51.2207 -54.1992 53.4668 -52.002 53.4668 -49.0234 L 53.4668 -40.4297 L 62.4023 -40.4297 C 65.4785 -40.4297 67.627 -38.2324 67.627 -35.1562 C 67.627 -32.1289 65.4297 -29.8828 62.4023 -29.8828 L 53.4668 -29.8828 L 53.4668 -21.582 C 53.4668 -18.5547 51.2207 -16.3574 48.1934 -16.3574 Z"/>
  </g>
  <g id="Bold-S" transform="matrix(1 0 0 1 2292.44 696)">
   <path d="M 47.5586 5.46875 C 69.873 5.46875 88.2324 -12.8906 88.2324 -35.2051 C 88.2324 -57.5684 69.873 -75.9277 47.5098 -75.9277 C 25.1953 -75.9277 6.83594 -57.5684 6.83594 -35.2051 C 6.83594 -12.8906 25.1953 5.46875 47.5586 5.46875 Z M 47.5098 -16.3086 C 44.6289 -16.3086 42.7246 -18.3594 42.7246 -21.2402 L 42.7246 -30.4199 L 32.9102 -30.4199 C 30.0293 -30.4199 27.9297 -32.3242 27.9297 -35.1562 C 27.9297 -38.0371 29.9805 -39.9414 32.9102 -39.9414 L 42.7246 -39.9414 L 42.7246 -49.6094 C 42.7246 -52.4902 44.6289 -54.541 47.5098 -54.541 C 50.3418 -54.541 52.2949 -52.5391 52.2949 -49.6094 L 52.2949 -39.9414 L 62.1582 -39.9414 C 65.0879 -39.9414 67.0898 -38.0371 67.0898 -35.1562 C 67.0898 -32.3242 65.0391 -30.4199 62.1582 -30.4199 L 52.2949 -30.4199 L 52.2949 -21.2402 C 52.2949 -18.3105 50.3418 -16.3086 47.5098 -16.3086 Z"/>
  </g>
  <g id="Semibold-S" transform="matrix(1 0 0 1 1996.2 696)">
   <path d="M 47.0703 4.98047 C 69.0918 4.98047 87.3047 -13.1836 87.3047 -35.2539 C 87.3047 -57.2754 69.0918 -75.4883 47.0215 -75.4883 C 25 -75.4883 6.83594 -57.2754 6.83594 -35.2539 C 6.83594 -13.1836 25.0488 4.98047 47.0703 4.98047 Z M 47.0215 -16.2598 C 44.2871 -16.2598 42.5781 -18.2129 42.5781 -20.9961 L 42.5781 -30.7617 L 32.1289 -30.7617 C 29.3457 -30.7617 27.3438 -32.4707 27.3438 -35.1562 C 27.3438 -37.8906 29.248 -39.6484 32.1289 -39.6484 L 42.5781 -39.6484 L 42.5781 -50.0488 C 42.5781 -52.832 44.2871 -54.7852 47.0215 -54.7852 C 49.707 -54.7852 51.4648 -52.8809 51.4648 -50.0488 L 51.4648 -39.6484 L 62.0117 -39.6484 C 64.8438 -39.6484 66.748 -37.8906 66.748 -35.1562 C 66.748 -32.4707 64.7949 -30.7617 62.0117 -30.7617 L 51.4648 -30.7617 L 51.4648 -20.9961 C 51.4648 -18.1641 49.707 -16.2598 47.0215 -16.2598 Z"/>
  </g>
  <g id="Medium-S" transform="matrix(1 0 0 1 1699.83 696)">
   <path d="M 46.7285 4.63867 C 68.5547 4.63867 86.6211 -13.4277 86.6211 -35.2539 C 86.6211 -57.0312 68.5059 -75.1465 46.6797 -75.1465 C 24.8535 -75.1465 6.83594 -57.0312 6.83594 -35.2539 C 6.83594 -13.4277 24.9023 4.63867 46.7285 4.63867 Z M 46.6309 -16.2598 C 44.043 -16.2598 42.4805 -18.1152 42.4805 -20.8008 L 42.4805 -31.0547 L 31.4941 -31.0547 C 28.8086 -31.0547 26.9043 -32.5684 26.9043 -35.1562 C 26.9043 -37.793 28.7109 -39.4043 31.4941 -39.4043 L 42.4805 -39.4043 L 42.4805 -50.3906 C 42.4805 -53.0762 44.043 -54.9316 46.6309 -54.9316 C 49.2188 -54.9316 50.8789 -53.125 50.8789 -50.3906 L 50.8789 -39.4043 L 61.8652 -39.4043 C 64.6973 -39.4043 66.4551 -37.793 66.4551 -35.1562 C 66.4551 -32.5684 64.5996 -31.0547 61.8652 -31.0547 L 50.8789 -31.0547 L 50.8789 -20.8008 C 50.8789 -18.0664 49.2188 -16.2598 46.6309 -16.2598 Z"/>
  </g>
  <g id="Regular-S" transform="matrix(1 0 0 1 1403.58 696)">
   <path d="M 46.2402 4.15039 C 67.7734 4.15039 85.6934 -13.7207 85.6934 -35.2539 C 85.6934 -56.7871 67.7246 -74.6582 46.1914 -74.6582 C 24.707 -74.6582 6.83594 -56.7871 6.83594 -35.2539 C 6.83594 -13.7207 24.7559 4.15039 46.2402 4.15039 Z M 46.1426 -16.2109 C 43.7012 -16.2109 42.3828 -17.9688 42.3828 -20.5566 L 42.3828 -31.3965 L 30.7617 -31.3965 C 28.125 -31.3965 26.3184 -32.7148 26.3184 -35.1562 C 26.3184 -37.6953 28.0273 -39.0625 30.7617 -39.0625 L 42.3828 -39.0625 L 42.3828 -50.8301 C 42.3828 -53.3691 43.7012 -55.1758 46.1426 -55.1758 C 48.584 -55.1758 50.0488 -53.4668 50.0488 -50.8301 L 50.0488 -39.0625 L 61.7188 -39.0625 C 64.4531 -39.0625 66.1133 -37.6953 66.1133 -35.1562 C 66.1133 -32.7148 64.3555 -31.3965 61.7188 -31.3965 L 50.0488 -31.3965 L 50.0488 -20.5566 C 50.0488 -17.9199 48.584 -16.2109 46.1426 -16.2109 Z"/>
  </g>
  <g id="Light-S" transform="matrix(1 0 0 1 1107.6 696)">
   <path d="M 45.5078 3.4668 C 66.6992 3.4668 84.2285 -14.0625 84.2285 -35.2051 C 84.2285 -56.3965 66.6504 -73.9258 45.5078 -73.9258 C 24.3164 -73.9258 6.83594 -56.3965 6.83594 -35.2051 C 6.83594 -14.0625 24.3652 3.4668 45.5078 3.4668 Z M 45.459 -16.1621 C 43.5547 -16.1621 42.5293 -17.5293 42.5293 -19.4824 L 42.5293 -32.2754 L 29.1992 -32.2754 C 27.2461 -32.2754 25.8789 -33.3008 25.8789 -35.1562 C 25.8789 -37.1094 27.1973 -38.1836 29.1992 -38.1836 L 42.5293 -38.1836 L 42.5293 -51.5625 C 42.5293 -53.5156 43.5547 -54.8828 45.459 -54.8828 C 47.3145 -54.8828 48.4863 -53.5645 48.4863 -51.5625 L 48.4863 -38.1836 L 61.8164 -38.1836 C 63.8672 -38.1836 65.1367 -37.1094 65.1367 -35.1562 C 65.1367 -33.3008 63.7695 -32.2754 61.8164 -32.2754 L 48.4863 -32.2754 L 48.4863 -19.4824 C 48.4863 -17.4805 47.3145 -16.1621 45.459 -16.1621 Z"/>
  </g>
  <g id="Thin-S" transform="matrix(1 0 0 1 811.867 696)">
   <path d="M 44.5801 2.53906 C 65.2832 2.53906 82.2754 -14.4531 82.2754 -35.2051 C 82.2754 -55.9082 65.2344 -72.9004 44.5312 -72.9004 C 23.8281 -72.9004 6.83594 -55.9082 6.83594 -35.2051 C 6.83594 -14.4531 23.877 2.53906 44.5801 2.53906 Z M 44.4824 -16.1621 C 43.4082 -16.1621 42.7246 -16.9922 42.7246 -18.0664 L 42.7246 -33.3984 L 27.1973 -33.3984 C 26.123 -33.3984 25.2441 -34.1309 25.2441 -35.1562 C 25.2441 -36.2793 26.0742 -37.0117 27.1973 -37.0117 L 42.7246 -37.0117 L 42.7246 -52.5879 C 42.7246 -53.7109 43.4082 -54.541 44.4824 -54.541 C 45.6543 -54.541 46.3379 -53.7109 46.3379 -52.5879 L 46.3379 -37.0117 L 61.9141 -37.0117 C 63.0371 -37.0117 63.8672 -36.2793 63.8672 -35.1562 C 63.8672 -34.1309 62.9883 -33.3984 61.9141 -33.3984 L 46.3379 -33.3984 L 46.3379 -18.0664 C 46.3379 -16.9434 45.6543 -16.1621 44.4824 -16.1621 Z"/>
  </g>
  <g id="Ultralight-S" transform="matrix(1 0 0 1 515.644 696)">
   <path d="M 44.043 2.05078 C 64.502 2.05078 81.2988 -14.6973 81.2988 -35.1562 C 81.2988 -55.6152 64.502 -72.3633 44.043 -72.3633 C 23.584 -72.3633 6.83594 -55.6152 6.83594 -35.1562 C 6.83594 -14.6973 23.584 2.05078 44.043 2.05078 Z M 43.9941 -16.1133 C 43.3105 -16.1133 42.8223 -16.6504 42.8223 -17.2852 L 42.8223 -33.9844 L 26.1719 -33.9844 C 25.5371 -33.9844 24.9023 -34.5215 24.9023 -35.1562 C 24.9023 -35.8887 25.4883 -36.4258 26.1719 -36.4258 L 42.8223 -36.4258 L 42.8223 -53.125 C 42.8223 -53.8086 43.3105 -54.3457 43.9941 -54.3457 C 44.7754 -54.3457 45.2637 -53.8086 45.2637 -53.125 L 45.2637 -36.4258 L 61.9629 -36.4258 C 62.6465 -36.4258 63.1836 -35.8887 63.1836 -35.1562 C 63.1836 -34.5215 62.5977 -33.9844 61.9629 -33.9844 L 45.2637 -33.9844 L 45.2637 -17.2852 C 45.2637 -16.6504 44.7754 -16.1133 43.9941 -16.1133 Z"/>
  </g>
 </g>
</svg>
