<?xml version="1.0" encoding="UTF-8"?>
<!--Generator: Apple Native CoreSVG 149-->
<!DOCTYPE svg
PUBLIC "-//W3C//DTD SVG 1.1//EN"
       "http://www.w3.org/Graphics/SVG/1.1/DTD/svg11.dtd">
<svg version="1.1" xmlns="http://www.w3.org/2000/svg" xmlns:xlink="http://www.w3.org/1999/xlink" width="3300" height="2200">
 <!--glyph: "uni100647.medium", point size: 100.000000, font version: "Version 16.0d18e1", template writer version: "8"-->
 <g id="Notes">
  <rect height="2200" id="artboard" style="fill:white;opacity:1" width="3300" x="0" y="0"/>
  <line id="" style="fill:none;stroke:black;opacity:1;stroke-width:0.5;" x1="263" x2="3036" y1="292" y2="292"/>
  <text style="stroke:none;fill:black;font-family:-apple-system,&quot;SF Pro Display&quot;,&quot;SF Pro Text&quot;,Helvetica,sans-serif;font-weight:bold;" transform="matrix(1 0 0 1 263 322)">Weight/Scale Variations</text>
  <text style="stroke:none;fill:black;font-family:-apple-system,&quot;SF Pro Display&quot;,&quot;SF Pro Text&quot;,Helvetica,sans-serif;text-anchor:middle;" transform="matrix(1 0 0 1 559.711 322)">Ultralight</text>
  <text style="stroke:none;fill:black;font-family:-apple-system,&quot;SF Pro Display&quot;,&quot;SF Pro Text&quot;,Helvetica,sans-serif;text-anchor:middle;" transform="matrix(1 0 0 1 856.422 322)">Thin</text>
  <text style="stroke:none;fill:black;font-family:-apple-system,&quot;SF Pro Display&quot;,&quot;SF Pro Text&quot;,Helvetica,sans-serif;text-anchor:middle;" transform="matrix(1 0 0 1 1153.13 322)">Light</text>
  <text style="stroke:none;fill:black;font-family:-apple-system,&quot;SF Pro Display&quot;,&quot;SF Pro Text&quot;,Helvetica,sans-serif;text-anchor:middle;" transform="matrix(1 0 0 1 1449.84 322)">Regular</text>
  <text style="stroke:none;fill:black;font-family:-apple-system,&quot;SF Pro Display&quot;,&quot;SF Pro Text&quot;,Helvetica,sans-serif;text-anchor:middle;" transform="matrix(1 0 0 1 1746.56 322)">Medium</text>
  <text style="stroke:none;fill:black;font-family:-apple-system,&quot;SF Pro Display&quot;,&quot;SF Pro Text&quot;,Helvetica,sans-serif;text-anchor:middle;" transform="matrix(1 0 0 1 2043.27 322)">Semibold</text>
  <text style="stroke:none;fill:black;font-family:-apple-system,&quot;SF Pro Display&quot;,&quot;SF Pro Text&quot;,Helvetica,sans-serif;text-anchor:middle;" transform="matrix(1 0 0 1 2339.98 322)">Bold</text>
  <text style="stroke:none;fill:black;font-family:-apple-system,&quot;SF Pro Display&quot;,&quot;SF Pro Text&quot;,Helvetica,sans-serif;text-anchor:middle;" transform="matrix(1 0 0 1 2636.69 322)">Heavy</text>
  <text style="stroke:none;fill:black;font-family:-apple-system,&quot;SF Pro Display&quot;,&quot;SF Pro Text&quot;,Helvetica,sans-serif;text-anchor:middle;" transform="matrix(1 0 0 1 2933.4 322)">Black</text>
  <line id="" style="fill:none;stroke:black;opacity:1;stroke-width:0.5;" x1="263" x2="3036" y1="1903" y2="1903"/>
  <g id="" transform="matrix(1 0 0 1 263 1933)">
   <path d="M9.24805 0.830078C13.5547 0.830078 17.1387-2.74414 17.1387-7.05078C17.1387-11.3574 13.5449-14.9316 9.23828-14.9316C4.94141-14.9316 1.36719-11.3574 1.36719-7.05078C1.36719-2.74414 4.95117 0.830078 9.24805 0.830078ZM9.24805-0.654297C5.70312-0.654297 2.87109-3.49609 2.87109-7.05078C2.87109-10.6055 5.69336-13.4473 9.23828-13.4473C12.793-13.4473 15.6348-10.6055 15.6445-7.05078C15.6543-3.49609 12.8027-0.654297 9.24805-0.654297ZM6.39648-6.31836L8.50586-6.31836L8.50586-4.19922C8.50586-3.75977 8.79883-3.45703 9.22852-3.45703C9.67773-3.45703 9.9707-3.75977 9.9707-4.19922L9.9707-6.31836L12.0996-6.31836C12.5391-6.31836 12.8418-6.61133 12.8418-7.04102C12.8418-7.48047 12.5391-7.7832 12.0996-7.7832L9.9707-7.7832L9.9707-9.89258C9.9707-10.3418 9.67773-10.6445 9.22852-10.6445C8.79883-10.6445 8.50586-10.3418 8.50586-9.89258L8.50586-7.7832L6.39648-7.7832C5.94727-7.7832 5.64453-7.48047 5.64453-7.04102C5.64453-6.61133 5.94727-6.31836 6.39648-6.31836Z"/>
  </g>
  <g id="" transform="matrix(1 0 0 1 281.506 1933)">
   <path d="M11.709 2.91016C17.1582 2.91016 21.6699-1.61133 21.6699-7.05078C21.6699-12.5 17.1484-17.0117 11.6992-17.0117C6.25977-17.0117 1.74805-12.5 1.74805-7.05078C1.74805-1.61133 6.26953 2.91016 11.709 2.91016ZM11.709 1.25C7.09961 1.25 3.41797-2.44141 3.41797-7.05078C3.41797-11.6602 7.08984-15.3516 11.6992-15.3516C16.3086-15.3516 20-11.6602 20.0098-7.05078C20.0195-2.44141 16.3184 1.25 11.709 1.25ZM7.98828-6.23047L10.8789-6.23047L10.8789-3.32031C10.8789-2.83203 11.2109-2.5 11.6895-2.5C12.1777-2.5 12.5195-2.83203 12.5195-3.32031L12.5195-6.23047L15.4297-6.23047C15.918-6.23047 16.25-6.5625 16.25-7.04102C16.25-7.5293 15.918-7.87109 15.4297-7.87109L12.5195-7.87109L12.5195-10.7617C12.5195-11.2695 12.1777-11.6016 11.6895-11.6016C11.2109-11.6016 10.8789-11.2598 10.8789-10.7617L10.8789-7.87109L7.98828-7.87109C7.48047-7.87109 7.14844-7.5293 7.14844-7.04102C7.14844-6.5625 7.49023-6.23047 7.98828-6.23047Z"/>
  </g>
  <g id="" transform="matrix(1 0 0 1 304.924 1933)">
   <path d="M14.9707 5.66406C21.9336 5.66406 27.6953-0.0976562 27.6953-7.05078C27.6953-14.0137 21.9238-19.7754 14.9609-19.7754C8.00781-19.7754 2.25586-14.0137 2.25586-7.05078C2.25586-0.0976562 8.01758 5.66406 14.9707 5.66406ZM14.9707 3.84766C8.93555 3.84766 4.08203-1.01562 4.08203-7.05078C4.08203-13.0957 8.92578-17.9492 14.9609-17.9492C21.0059-17.9492 25.8594-13.0957 25.8691-7.05078C25.8789-1.01562 21.0156 3.84766 14.9707 3.84766ZM10.0586-6.14258L14.0625-6.14258L14.0625-2.12891C14.0625-1.5918 14.4336-1.2207 14.9512-1.2207C15.4883-1.2207 15.8594-1.5918 15.8594-2.12891L15.8594-6.14258L19.8828-6.14258C20.4102-6.14258 20.791-6.51367 20.791-7.03125C20.791-7.56836 20.4199-7.94922 19.8828-7.94922L15.8594-7.94922L15.8594-11.9531C15.8594-12.5098 15.4883-12.8809 14.9512-12.8809C14.4336-12.8809 14.0625-12.5 14.0625-11.9531L14.0625-7.94922L10.0586-7.94922C9.50195-7.94922 9.13086-7.56836 9.13086-7.03125C9.13086-6.51367 9.51172-6.14258 10.0586-6.14258Z"/>
  </g>
  <text style="stroke:none;fill:black;font-family:-apple-system,&quot;SF Pro Display&quot;,&quot;SF Pro Text&quot;,Helvetica,sans-serif;font-weight:bold;" transform="matrix(1 0 0 1 263 1953)">Design Variations</text>
  <text style="stroke:none;fill:black;font-family:-apple-system,&quot;SF Pro Display&quot;,&quot;SF Pro Text&quot;,Helvetica,sans-serif;" transform="matrix(1 0 0 1 263 1971)">Symbols are supported in up to nine weights and three scales.</text>
  <text style="stroke:none;fill:black;font-family:-apple-system,&quot;SF Pro Display&quot;,&quot;SF Pro Text&quot;,Helvetica,sans-serif;" transform="matrix(1 0 0 1 263 1989)">For optimal layout with text and other symbols, vertically align</text>
  <text style="stroke:none;fill:black;font-family:-apple-system,&quot;SF Pro Display&quot;,&quot;SF Pro Text&quot;,Helvetica,sans-serif;" transform="matrix(1 0 0 1 263 2007)">symbols with the adjacent text.</text>
  <line id="" style="fill:none;stroke:#00AEEF;stroke-width:0.5;opacity:1.0;" x1="776" x2="776" y1="1919" y2="1933"/>
  <g id="" transform="matrix(1 0 0 1 776 1933)">
   <path d="M3.31055 0.126953C3.82812 0.126953 4.08203-0.0683594 4.26758-0.605469L5.52734-4.0625L11.2891-4.0625L12.5488-0.605469C12.7344-0.0683594 12.9883 0.126953 13.4961 0.126953C14.0137 0.126953 14.3457-0.185547 14.3457-0.673828C14.3457-0.839844 14.3164-0.986328 14.2383-1.20117L9.6582-13.3887C9.43359-13.9941 9.0332-14.2871 8.4082-14.2871C7.80273-14.2871 7.39258-13.9941 7.17773-13.3984L2.59766-1.19141C2.51953-0.976562 2.49023-0.830078 2.49023-0.664062C2.49023-0.175781 2.80273 0.126953 3.31055 0.126953ZM6.00586-5.53711L8.37891-12.1094L8.42773-12.1094L10.8008-5.53711Z"/>
  </g>
  <line id="" style="fill:none;stroke:#00AEEF;stroke-width:0.5;opacity:1.0;" x1="792.836" x2="792.836" y1="1919" y2="1933"/>
  <text style="stroke:none;fill:black;font-family:-apple-system,&quot;SF Pro Display&quot;,&quot;SF Pro Text&quot;,Helvetica,sans-serif;font-weight:bold;" transform="matrix(1 0 0 1 776 1953)">Margins</text>
  <text style="stroke:none;fill:black;font-family:-apple-system,&quot;SF Pro Display&quot;,&quot;SF Pro Text&quot;,Helvetica,sans-serif;" transform="matrix(1 0 0 1 776 1971)">Leading and trailing margins on the left and right side of each symbol</text>
  <text style="stroke:none;fill:black;font-family:-apple-system,&quot;SF Pro Display&quot;,&quot;SF Pro Text&quot;,Helvetica,sans-serif;" transform="matrix(1 0 0 1 776 1989)">can be adjusted by modifying the x-location of the margin guidelines.</text>
  <text style="stroke:none;fill:black;font-family:-apple-system,&quot;SF Pro Display&quot;,&quot;SF Pro Text&quot;,Helvetica,sans-serif;" transform="matrix(1 0 0 1 776 2007)">Modifications are automatically applied proportionally to all</text>
  <text style="stroke:none;fill:black;font-family:-apple-system,&quot;SF Pro Display&quot;,&quot;SF Pro Text&quot;,Helvetica,sans-serif;" transform="matrix(1 0 0 1 776 2025)">scales and weights.</text>
  <g id="" transform="matrix(1 0 0 1 1289 1933)">
   <path d="M2.8418 1.86523L4.54102 3.57422C5.40039 4.44336 6.38672 4.38477 7.31445 3.35938L17.4902-7.85156C17.7539-7.76367 18.0273-7.7832 18.3398-7.8418L19.4043-8.03711L20.0684-7.36328L20.0293-6.80664C19.9902-6.30859 20.1172-5.92773 20.6055-5.44922L21.3672-4.70703C21.8457-4.22852 22.4609-4.19922 22.9297-4.66797L25.8398-7.58789C26.3086-8.05664 26.2891-8.65234 25.8105-9.13086L25.0391-9.89258C24.5605-10.3711 24.1895-10.5273 23.7109-10.4883L23.1348-10.4395L22.4902-11.0742L22.7344-12.1973C22.8613-12.7637 22.7051-13.2031 22.1191-13.7891L19.9219-15.9766C16.582-19.2969 12.1484-19.2188 9.25781-16.3281C8.83789-15.918 8.80859-15.3418 9.04297-14.9512C9.27734-14.5898 9.73633-14.3555 10.3809-14.5215C11.8457-14.8633 13.3691-14.9219 14.7949-13.9844L14.209-12.5293C14.0137-12.0508 13.9844-11.6504 14.1113-11.2891L3.04688-0.898438C2.06055 0.0195312 1.98242 0.996094 2.8418 1.86523ZM10.752-15.957C13.1836-17.7344 16.4746-17.4316 18.7012-15.2051L21.1328-12.793C21.3672-12.5586 21.4062-12.373 21.3379-12.0312L21.0156-10.5469L22.5195-9.0625L23.5059-9.12109C23.7598-9.13086 23.8379-9.11133 24.0332-8.91602L24.6094-8.33984L22.168-5.89844L21.5918-6.47461C21.3965-6.66992 21.3672-6.74805 21.377-7.01172L21.4453-7.98828L19.9512-9.47266L18.4277-9.21875C18.1055-9.15039 17.959-9.17969 17.7148-9.41406L15.7129-11.416C15.459-11.6504 15.4297-11.8164 15.5859-12.1875L16.4648-14.2773C14.9023-15.7324 12.8711-16.3574 10.8398-15.7617C10.6836-15.7227 10.625-15.8496 10.752-15.957ZM5.27344 2.30469L4.10156 1.14258C3.63281 0.683594 3.74023 0.341797 4.14062-0.0195312L14.9512-10.1953L16.416-8.71094L6.42578 2.27539C6.07422 2.67578 5.74219 2.77344 5.27344 2.30469Z"/>
  </g>
  <text style="stroke:none;fill:black;font-family:-apple-system,&quot;SF Pro Display&quot;,&quot;SF Pro Text&quot;,Helvetica,sans-serif;font-weight:bold;" transform="matrix(1 0 0 1 1289 1953)">Exporting</text>
  <text style="stroke:none;fill:black;font-family:-apple-system,&quot;SF Pro Display&quot;,&quot;SF Pro Text&quot;,Helvetica,sans-serif;" transform="matrix(1 0 0 1 1289 1971)">Symbols should be outlined when exporting to ensure the</text>
  <text style="stroke:none;fill:black;font-family:-apple-system,&quot;SF Pro Display&quot;,&quot;SF Pro Text&quot;,Helvetica,sans-serif;" transform="matrix(1 0 0 1 1289 1989)">design is preserved when submitting to Xcode.</text>
  <text id="template-version" style="stroke:none;fill:black;font-family:-apple-system,&quot;SF Pro Display&quot;,&quot;SF Pro Text&quot;,Helvetica,sans-serif;text-anchor:end;" transform="matrix(1 0 0 1 3036 1933)">Template v.2.0</text>
  <text style="stroke:none;fill:black;font-family:-apple-system,&quot;SF Pro Display&quot;,&quot;SF Pro Text&quot;,Helvetica,sans-serif;text-anchor:end;" transform="matrix(1 0 0 1 3036 1951)">Requires Xcode 12 or greater</text>
  <text style="stroke:none;fill:black;font-family:-apple-system,&quot;SF Pro Display&quot;,&quot;SF Pro Text&quot;,Helvetica,sans-serif;text-anchor:end;" transform="matrix(1 0 0 1 3036 1969)">Generated from wifi</text>
  <text style="stroke:none;fill:black;font-family:-apple-system,&quot;SF Pro Display&quot;,&quot;SF Pro Text&quot;,Helvetica,sans-serif;text-anchor:end;" transform="matrix(1 0 0 1 3036 1987)">Typeset at 100 points</text>
  <text style="stroke:none;fill:black;font-family:-apple-system,&quot;SF Pro Display&quot;,&quot;SF Pro Text&quot;,Helvetica,sans-serif;" transform="matrix(1 0 0 1 263 726)">Small</text>
  <text style="stroke:none;fill:black;font-family:-apple-system,&quot;SF Pro Display&quot;,&quot;SF Pro Text&quot;,Helvetica,sans-serif;" transform="matrix(1 0 0 1 263 1156)">Medium</text>
  <text style="stroke:none;fill:black;font-family:-apple-system,&quot;SF Pro Display&quot;,&quot;SF Pro Text&quot;,Helvetica,sans-serif;" transform="matrix(1 0 0 1 263 1586)">Large</text>
 </g>
 <g id="Guides">
  <g id="H-reference" style="fill:#27AAE1;stroke:none;" transform="matrix(1 0 0 1 339 696)">
   <path d="M0.976562 0L3.66211 0L12.9883-24.4629L45.752-24.4629L55.127 0L57.7637 0L30.6152-70.459L28.125-70.459ZM29.3457-67.1387L29.4434-67.1387L44.873-26.709L13.8672-26.709Z"/>
  </g>
  <line id="Baseline-S" style="fill:none;stroke:#27AAE1;opacity:1;stroke-width:0.5;" x1="263" x2="3036" y1="696" y2="696"/>
  <line id="Capline-S" style="fill:none;stroke:#27AAE1;opacity:1;stroke-width:0.5;" x1="263" x2="3036" y1="625.541" y2="625.541"/>
  <g id="H-reference" style="fill:#27AAE1;stroke:none;" transform="matrix(1 0 0 1 339 1126)">
   <path d="M0.976562 0L3.66211 0L12.9883-24.4629L45.752-24.4629L55.127 0L57.7637 0L30.6152-70.459L28.125-70.459ZM29.3457-67.1387L29.4434-67.1387L44.873-26.709L13.8672-26.709Z"/>
  </g>
  <line id="Baseline-M" style="fill:none;stroke:#27AAE1;opacity:1;stroke-width:0.5;" x1="263" x2="3036" y1="1126" y2="1126"/>
  <line id="Capline-M" style="fill:none;stroke:#27AAE1;opacity:1;stroke-width:0.5;" x1="263" x2="3036" y1="1055.54" y2="1055.54"/>
  <g id="H-reference" style="fill:#27AAE1;stroke:none;" transform="matrix(1 0 0 1 339 1556)">
   <path d="M0.976562 0L3.66211 0L12.9883-24.4629L45.752-24.4629L55.127 0L57.7637 0L30.6152-70.459L28.125-70.459ZM29.3457-67.1387L29.4434-67.1387L44.873-26.709L13.8672-26.709Z"/>
  </g>
  <line id="Baseline-L" style="fill:none;stroke:#27AAE1;opacity:1;stroke-width:0.5;" x1="263" x2="3036" y1="1556" y2="1556"/>
  <line id="Capline-L" style="fill:none;stroke:#27AAE1;opacity:1;stroke-width:0.5;" x1="263" x2="3036" y1="1485.54" y2="1485.54"/>
  <line id="left-margin" style="fill:none;stroke:#00AEEF;stroke-width:0.5;opacity:1.0;" x1="1384.12" x2="1384.12" y1="1030.79" y2="1150.12"/>
  <line id="right-margin" style="fill:none;stroke:#00AEEF;stroke-width:0.5;opacity:1.0;" x1="1515.57" x2="1515.57" y1="1030.79" y2="1150.12"/>
 </g>
 <g id="Symbols">
  <g id="Black-L" transform="matrix(1 0 0 1 2847.44 1556)">
   <path d="M19.9707-42.0898C21.8262-40.1367 24.8047-40.2344 26.6602-42.2363C42.5293-58.9355 62.8906-67.6758 85.9863-67.6758C109.18-67.6758 129.639-58.8867 145.459-42.0898C147.266-40.2832 150.146-40.3809 151.953-42.2363L161.279-51.6113C162.939-53.3203 163.037-55.7617 161.572-57.4219C145.361-77.4902 115.771-90.9668 85.9863-90.9668C56.1523-90.9668 26.5625-77.4902 10.3516-57.4219C8.88672-55.7617 8.98438-53.3203 10.6445-51.6113ZM46.9238-16.1621C48.9746-14.209 51.8066-14.3555 53.7598-16.4551C61.9141-24.8535 74.0234-30.1758 85.9863-30.1758C98.0957-30.1758 110.352-24.707 118.555-16.1621C120.361-14.209 122.998-14.3066 125-16.1621L135.449-25.9766C137.109-27.5391 137.305-29.7852 135.791-31.4453C125.049-43.9941 106.055-52.2461 85.9863-52.2461C65.918-52.2461 46.9238-43.9941 36.1816-31.4453C34.668-29.7852 34.8633-27.5879 36.5234-25.9766ZM86.084 20.5566C88.0859 20.5566 89.7949 19.6289 92.627 16.9434L108.496 1.61133C110.107 0.0488281 110.449-2.53906 108.887-4.3457C103.613-10.9375 95.0195-15.2344 86.084-15.2344C76.9531-15.2344 67.9688-10.6934 62.5977-3.4668C61.5234-1.95312 62.1582 0.146484 63.623 1.61133L79.4922 16.9434C82.3242 19.6289 84.082 20.5566 86.084 20.5566Z"/>
  </g>
  <g id="Heavy-L" transform="matrix(1 0 0 1 2551.19 1556)">
   <path d="M20.2148-42.5293C21.9238-40.7227 24.6094-40.8203 26.2695-42.627C42.041-59.2285 62.4512-68.0176 85.498-68.0176C108.643-68.0176 129.15-59.2285 144.873-42.5293C146.484-40.8691 149.121-40.918 150.732-42.6758L159.863-51.8066C161.377-53.3203 161.426-55.5176 160.107-57.0312C144.238-76.6602 115.039-90.0391 85.498-90.0391C55.9082-90.0391 26.709-76.6602 10.8398-57.0312C9.52148-55.5176 9.61914-53.3203 11.1328-51.8066ZM47.0215-16.4551C48.877-14.6973 51.416-14.8438 53.1738-16.748C61.2305-25.1953 73.3887-30.6641 85.498-30.6152C97.7539-30.6641 110.01-25 118.164-16.5039C119.775-14.6973 122.168-14.7949 123.975-16.5039L134.18-26.2207C135.693-27.6367 135.84-29.6875 134.521-31.2012C124.072-43.5547 105.371-51.8555 85.498-51.8555C65.625-51.8555 46.9238-43.5059 36.4746-31.2012C35.1562-29.6875 35.3027-27.6855 36.8164-26.2207ZM85.5469 19.6777C87.4023 19.6777 89.0137 18.7988 91.6992 16.2598L107.422 1.07422C108.887-0.341797 109.18-2.63672 107.812-4.24805C102.832-10.498 94.4336-14.8438 85.5469-14.8438C76.5137-14.8438 67.8223-10.3027 62.793-3.51562C61.8164-2.09961 62.3535-0.244141 63.6719 1.07422L79.4434 16.2598C82.1289 18.7988 83.7402 19.6777 85.5469 19.6777Z"/>
  </g>
  <g id="Bold-L" transform="matrix(1 0 0 1 2255.02 1556)">
   <path d="M20.5078-42.9688C21.9727-41.4062 24.3652-41.4551 25.8301-43.1152C41.5039-59.6191 61.9629-68.3594 84.9609-68.3594C108.057-68.3594 128.662-59.6191 144.189-43.0176C145.654-41.5527 147.949-41.5527 149.365-43.1152L158.252-52.002C159.57-53.3691 159.668-55.2734 158.496-56.6406C143.018-75.7324 114.258-89.0625 84.9609-89.0625C55.6152-89.0625 26.8555-75.7812 11.4258-56.6406C10.2539-55.2734 10.3027-53.3691 11.6699-52.002ZM47.0703-16.8457C48.7305-15.2832 50.9277-15.4297 52.5391-17.1387C60.4004-25.5371 72.7051-31.2012 84.9609-31.1523C97.3145-31.2012 109.668-25.3906 117.676-16.8945C119.141-15.2832 121.24-15.332 122.852-16.8945L132.764-26.5137C134.131-27.7344 134.229-29.541 133.057-30.9082C122.949-42.9688 104.639-51.3672 84.9609-51.3672C65.2832-51.3672 46.9727-42.9688 36.8164-30.9082C35.6445-29.541 35.791-27.832 37.1094-26.5137ZM85.0098 18.7012C86.6699 18.7012 88.0859 17.9199 90.6738 15.4297L106.25 0.439453C107.52-0.78125 107.764-2.73438 106.592-4.15039C101.953-10.0098 93.7988-14.4531 85.0098-14.4531C76.0254-14.4531 67.6758-9.81445 63.0371-3.61328C62.1582-2.34375 62.5977-0.732422 63.7695 0.439453L79.3457 15.4297C81.9336 17.8711 83.3496 18.7012 85.0098 18.7012Z"/>
  </g>
  <g id="Semibold-L" transform="matrix(1 0 0 1 1958.67 1556)">
   <path d="M20.7031-43.3105C22.0703-41.8457 24.1699-41.8945 25.5371-43.4082C41.1133-59.8633 61.6211-68.6035 84.5703-68.6035C107.666-68.6035 128.271-59.8633 143.75-43.3105C145.068-41.9922 147.119-41.9922 148.438-43.4082L157.129-52.1484C158.398-53.418 158.398-55.0781 157.373-56.3477C142.139-75.0977 113.721-88.3789 84.5703-88.3789C55.4199-88.3789 26.9531-75.1465 11.8164-56.3477C10.7422-55.0781 10.791-53.418 12.0117-52.1484ZM47.1191-17.0898C48.6328-15.6738 50.5859-15.7715 52.0508-17.334C59.8633-25.7812 72.2168-31.5918 84.5703-31.543C97.0703-31.5918 109.424-25.6348 117.334-17.1387C118.701-15.6738 120.557-15.7227 122.021-17.1387L131.836-26.6602C133.008-27.832 133.154-29.4434 132.08-30.7129C122.217-42.627 104.15-51.0254 84.5703-51.0254C65.0391-51.0254 46.9727-42.5781 37.1094-30.7129C36.0352-29.4434 36.1328-27.8809 37.3535-26.6602ZM84.6191 18.0176C86.1328 18.0176 87.4512 17.2852 89.9902 14.8438L105.42 0C106.543-1.07422 106.787-2.7832 105.762-4.10156C101.367-9.7168 93.3594-14.1113 84.6191-14.1113C75.7324-14.1113 67.5781-9.52148 63.1836-3.61328C62.4023-2.44141 62.7441-1.07422 63.8672 0L79.248 14.8438C81.7871 17.2363 83.1055 18.0176 84.6191 18.0176Z"/>
  </g>
  <g id="Medium-L" transform="matrix(1 0 0 1 1662.25 1556)">
   <path d="M20.8496-43.5547C22.1191-42.1875 24.0234-42.2363 25.3418-43.6523C40.8203-60.0586 61.3281-68.75 84.3262-68.75C107.373-68.75 127.979-60.0586 143.408-43.5547C144.629-42.334 146.533-42.334 147.754-43.6523L156.299-52.2461C157.471-53.418 157.471-54.9316 156.494-56.1035C141.504-74.6094 113.33-87.8418 84.3262-87.8418C55.2734-87.8418 27.0508-74.6582 12.1094-56.1035C11.1328-54.9316 11.1816-53.418 12.3047-52.2461ZM47.168-17.2852C48.584-15.918 50.3418-16.0645 51.709-17.5293C59.4238-25.9766 71.875-31.8848 84.2773-31.7871C96.8262-31.8848 109.229-25.8301 117.09-17.3828C118.359-15.9668 120.068-16.0156 121.436-17.334L131.055-26.8066C132.178-27.8809 132.275-29.3945 131.299-30.5664C121.631-42.334 103.76-50.7812 84.2773-50.7812C64.8438-50.7812 46.9727-42.2852 37.2559-30.5664C36.2793-29.3945 36.377-27.9785 37.5-26.8066ZM84.3262 17.4805C85.7422 17.4805 86.9629 16.7969 89.4531 14.4531L104.785-0.292969C105.811-1.31836 106.055-2.83203 105.078-4.05273C100.879-9.47266 93.0176-13.916 84.3262-13.916C75.4883-13.916 67.4805-9.27734 63.2812-3.66211C62.5977-2.53906 62.8906-1.31836 63.916-0.292969L79.1992 14.4531C81.6895 16.748 82.9102 17.4805 84.3262 17.4805Z"/>
  </g>
  <g id="Regular-L" transform="matrix(1 0 0 1 1365.91 1556)">
   <path d="M21.0449-43.8477C22.168-42.6758 23.877-42.7246 25.0488-43.9453C40.4785-60.3027 60.9863-68.9941 83.9355-68.9941C106.982-68.9941 127.637-60.3027 142.92-43.8965C144.043-42.7734 145.703-42.7734 146.826-43.9941L155.225-52.3926C156.25-53.4668 156.25-54.7852 155.42-55.8594C140.674-73.9746 112.793-87.207 83.9355-87.207C55.0781-87.207 27.1484-74.0234 12.4512-55.8594C11.6211-54.7852 11.6699-53.4668 12.6465-52.3926ZM47.2168-17.5293C48.4863-16.3086 50.0488-16.4551 51.2695-17.7734C58.8867-26.2207 71.3867-32.2266 83.9355-32.1777C96.582-32.2266 108.984-26.0742 116.748-17.627C117.92-16.3574 119.434-16.3574 120.654-17.5781L130.127-27.002C131.104-27.9297 131.201-29.2969 130.322-30.3711C120.898-41.9434 103.271-50.4395 83.9355-50.4395C64.5996-50.4395 46.9727-41.9434 37.5-30.3711C36.6211-29.2969 36.7188-28.0273 37.7441-27.002ZM83.9355 16.7969C85.2051 16.7969 86.377 16.2109 88.7695 13.8672L103.955-0.732422C104.883-1.61133 105.078-2.88086 104.248-4.00391C100.293-9.13086 92.5781-13.623 83.9355-13.623C75.1465-13.623 67.3828-8.98438 63.4277-3.71094C62.793-2.68555 63.0371-1.61133 63.9648-0.732422L79.1504 13.8672C81.543 16.1621 82.666 16.7969 83.9355 16.7969Z"/>
  </g>
  <g id="Light-L" transform="matrix(1 0 0 1 1070.42 1556)">
   <path d="M19.9707-44.4336C21.0449-43.3105 22.5586-43.3594 23.6328-44.5312C39.0137-60.7422 59.668-69.4824 82.7148-69.4824C105.811-69.4824 126.66-60.8887 141.846-44.4824C142.92-43.4082 144.385-43.4082 145.459-44.4824L153.467-52.4902C154.443-53.5156 154.443-54.7852 153.564-55.8105C138.916-73.7793 111.035-86.6699 82.7148-86.6699C54.3945-86.6699 26.416-73.8281 11.8164-55.8105C10.9863-54.7852 11.0352-53.5156 11.9629-52.4902ZM46.1426-18.1152C47.3145-16.9922 48.7305-17.0898 49.9023-18.3594C57.6172-26.8066 70.2637-32.7637 82.7148-32.666C95.2148-32.7637 107.812-26.709 115.674-18.2617C116.748-17.041 118.115-17.041 119.238-18.1152L128.369-27.1484C129.297-28.0273 129.346-29.248 128.516-30.2734C119.238-41.748 101.562-49.9512 82.7148-49.9512C63.8184-49.9512 46.2402-41.6992 36.8652-30.2734C36.0352-29.248 36.1328-28.0762 37.0605-27.1484ZM82.7148 16.3086C83.8379 16.3086 84.9121 15.7227 87.1582 13.5254L102.197-0.976562C103.027-1.75781 103.223-2.83203 102.441-3.90625C98.7305-8.78906 91.0156-13.0859 82.7148-13.0859C74.3164-13.0859 66.5527-8.69141 62.8418-3.71094C62.207-2.68555 62.4023-1.75781 63.2324-0.976562L78.2715 13.5254C80.5664 15.6738 81.5918 16.3086 82.7148 16.3086Z"/>
  </g>
  <g id="Thin-L" transform="matrix(1 0 0 1 775.319 1556)">
   <path d="M18.5547-45.2148C19.5312-44.1895 20.8008-44.1895 21.7773-45.2637C37.1094-61.3281 57.8613-70.166 81.1035-70.166C104.297-70.166 125.391-61.6211 140.381-45.2637C141.357-44.2383 142.627-44.2383 143.604-45.2148L151.074-52.6855C152.002-53.5645 152.002-54.7363 151.172-55.7129C136.572-73.4863 108.789-86.0352 81.1035-86.0352C53.418-86.0352 25.4395-73.5352 10.9863-55.7129C10.2051-54.7363 10.2539-53.5645 11.084-52.6855ZM44.7754-18.8477C45.752-17.9199 46.9727-17.9199 48.0469-19.0918C55.957-27.5879 68.75-33.3984 81.1035-33.3496C93.457-33.3984 106.25-27.5879 114.209-19.043C115.234-17.9199 116.406-17.9199 117.432-18.8477L125.977-27.3438C126.807-28.1738 126.904-29.248 126.172-30.1758C117.041-41.5039 99.3652-49.2676 81.1035-49.2676C62.8418-49.2676 45.2148-41.4551 36.0352-30.1758C35.2539-29.248 35.3516-28.1738 36.1816-27.3438ZM81.1035 15.6738C82.0312 15.6738 82.959 15.0879 85.1074 13.0371L99.8535-1.26953C100.635-1.95312 100.781-2.73438 100.049-3.75977C96.582-8.34961 88.9648-12.4512 81.1035-12.4512C73.2422-12.4512 65.5273-8.34961 62.0605-3.75977C61.4258-2.68555 61.5234-1.95312 62.2559-1.26953L77.1484 13.0371C79.248 15.0879 80.1758 15.6738 81.1035 15.6738Z"/>
  </g>
  <g id="Ultralight-L" transform="matrix(1 0 0 1 479.438 1556)">
   <path d="M17.8223-45.6055C18.75-44.6777 19.9219-44.6289 20.8496-45.6543C36.1328-61.6211 56.9824-70.5078 80.2734-70.5078C103.516-70.5078 124.707-62.0117 139.648-45.6543C140.576-44.6289 141.748-44.6289 142.676-45.5566L149.854-52.7832C150.732-53.6133 150.732-54.7363 149.951-55.6641C135.4-73.3398 107.617-85.6934 80.2734-85.6934C52.9297-85.6934 24.9023-73.3887 10.5469-55.6641C9.76562-54.7363 9.86328-53.6133 10.6445-52.7832ZM44.043-19.1895C44.9707-18.3594 46.0449-18.3594 47.0703-19.4336C55.0781-27.9785 68.0176-33.7402 80.2734-33.6426C92.5293-33.7402 105.469-27.9785 113.428-19.4824C114.453-18.3594 115.527-18.3594 116.504-19.1895L124.805-27.4414C125.586-28.2227 125.684-29.248 124.951-30.0781C115.918-41.4062 98.1934-48.9258 80.2734-48.9258C62.3047-48.9258 44.7266-41.3086 35.5957-30.0781C34.8633-29.248 34.9609-28.2227 35.7422-27.4414ZM80.2734 15.332C81.1035 15.332 81.9824 14.7461 84.0332 12.793L98.6816-1.41602C99.3652-2.00195 99.5605-2.68555 98.8281-3.71094C95.5078-8.1543 87.8906-12.1094 80.2734-12.1094C72.7051-12.1094 64.9902-8.1543 61.6699-3.75977C61.0352-2.68555 61.084-2.00195 61.7676-1.41602L76.5625 12.793C78.6133 14.7461 79.4434 15.332 80.2734 15.332Z"/>
  </g>
  <g id="Black-M" transform="matrix(1 0 0 1 2866.77 1126)">
   <path d="M14.5508-40.2832C16.2109-38.5742 18.8477-38.6719 20.4102-40.4297C32.8125-53.3691 48.6816-60.2539 66.6016-60.2539C84.7168-60.2539 100.586-53.3691 112.939-40.2832C114.502-38.7207 117.09-38.7695 118.701-40.4297L125.977-47.7539C127.441-49.2188 127.539-51.416 126.221-52.8809C113.232-68.9941 89.7461-79.3457 66.6016-79.3457C43.5059-79.3457 20.0195-68.9941 7.03125-52.8809C5.71289-51.416 5.81055-49.2188 7.27539-47.7539ZM35.7422-20.3125C37.5-18.6523 40.0391-18.7012 41.6992-20.5566C48.291-27.0996 57.6172-30.9082 66.6504-30.9082C75.7812-30.9082 85.3516-26.9531 91.8945-20.3125C93.457-18.6035 95.8008-18.7012 97.5586-20.3125L105.713-27.832C107.178-29.1992 107.373-31.1523 106.055-32.6172C97.3633-42.5781 82.1777-48.7305 66.6504-48.7305C51.123-48.7305 35.9375-42.5781 27.2461-32.6172C25.9277-31.1523 26.123-29.1992 27.5879-27.832ZM66.748 8.93555C68.457 8.93555 69.9219 8.10547 72.2168 6.00586L84.6191-6.05469C86.0352-7.42188 86.3281-9.76562 84.9121-11.3281C80.5176-16.7969 73.584-20.0195 66.748-20.0195C59.7656-20.0195 52.4414-16.6016 47.9492-10.5957C46.9727-9.17969 47.5586-7.27539 48.8281-6.05469L61.2793 6.00586C63.5254 8.10547 65.0391 8.93555 66.748 8.93555Z"/>
  </g>
  <g id="Heavy-M" transform="matrix(1 0 0 1 2570.28 1126)">
   <path d="M15.1367-40.5762C16.6016-39.0625 18.9453-39.1113 20.3613-40.7227C32.666-53.6133 48.5352-60.4492 66.4062-60.4492C84.4238-60.4492 100.342-53.6133 112.598-40.625C114.014-39.1602 116.309-39.209 117.725-40.7227L124.854-47.9492C126.172-49.2676 126.27-51.1719 125.098-52.4902C112.451-68.1641 89.4043-78.5156 66.4062-78.5156C43.4082-78.5156 20.3613-68.1641 7.71484-52.4902C6.54297-51.1719 6.64062-49.2676 7.95898-47.9492ZM36.084-20.5078C37.6953-18.9941 39.8926-19.0918 41.4551-20.752C47.8516-27.2949 57.2266-31.3477 66.4551-31.2988C75.7324-31.3477 85.3027-27.1484 91.6992-20.5078C93.1152-18.9941 95.2148-19.0918 96.7773-20.5078L104.785-28.0273C106.104-29.2969 106.25-31.0547 105.078-32.3242C96.7285-42.1387 81.8848-48.3887 66.4551-48.3887C50.9766-48.3887 36.1816-42.0898 27.7832-32.3242C26.6113-31.0547 26.7578-29.2969 28.0762-28.0273ZM66.5039 8.10547C68.0664 8.10547 69.4336 7.37305 71.582 5.32227L83.8867-6.5918C85.1562-7.8125 85.4004-9.86328 84.1797-11.2793C80.0781-16.4062 73.3398-19.7266 66.5039-19.7266C59.5215-19.7266 52.4902-16.2109 48.291-10.6445C47.4609-9.375 47.9492-7.71484 49.0723-6.5918L61.4258 5.32227C63.5742 7.37305 64.9414 8.10547 66.5039 8.10547Z"/>
  </g>
  <g id="Bold-M" transform="matrix(1 0 0 1 2273.79 1126)">
   <path d="M15.7227-40.9668C16.9922-39.5996 19.043-39.6484 20.3125-41.0156C32.5195-53.9062 48.3398-60.6934 66.1621-60.6934C84.1309-60.6934 100-53.8574 112.158-40.9668C113.379-39.6973 115.381-39.7461 116.602-41.0645L123.633-48.0957C124.756-49.2676 124.854-50.9277 123.828-52.0508C111.621-67.1875 89.0625-77.5391 66.1621-77.5391C43.3105-77.5391 20.752-67.1875 8.49609-52.0508C7.51953-50.9277 7.56836-49.2676 8.74023-48.0957ZM36.4746-20.752C37.8418-19.4336 39.7949-19.5312 41.1133-20.9473C47.3145-27.4902 56.7871-31.7871 66.2109-31.7383C75.6836-31.7871 85.2539-27.3438 91.5039-20.752C92.7246-19.4336 94.5312-19.4824 95.8984-20.752L103.809-28.2715C104.932-29.3945 105.029-30.9082 104.053-32.0801C95.9961-41.5527 81.5918-48.0469 66.2109-48.0469C50.8301-48.0469 36.377-41.5527 28.3691-32.0801C27.3438-30.9082 27.4414-29.3945 28.6133-28.2715ZM66.2598 7.17773C67.627 7.17773 68.8477 6.49414 70.9473 4.54102L83.0566-7.22656C84.1797-8.25195 84.375-10.0098 83.3496-11.1816C79.5898-15.9668 73.0957-19.3848 66.2598-19.3848C59.2285-19.3848 52.5391-15.8203 48.7305-10.6934C47.998-9.61914 48.3887-8.20312 49.3652-7.22656L61.5723 4.54102C63.623 6.49414 64.8438 7.17773 66.2598 7.17773Z"/>
  </g>
  <g id="Semibold-M" transform="matrix(1 0 0 1 1977.25 1126)">
   <path d="M16.1621-41.1621C17.2852-39.9902 19.0918-40.0391 20.2637-41.2598C32.373-54.1016 48.1934-60.8398 66.0156-60.8398C83.8867-60.8398 99.8047-54.0527 111.865-41.2109C112.988-40.0879 114.746-40.0879 115.869-41.3086L122.754-48.2422C123.828-49.2676 123.828-50.7324 122.949-51.7578C110.986-66.5527 88.8184-76.9043 66.0156-76.9043C43.2129-76.9043 20.9961-66.5527 9.0332-51.7578C8.1543-50.7324 8.20312-49.2676 9.22852-48.2422ZM36.7188-20.8984C37.9883-19.6777 39.6973-19.8242 40.918-21.1426C46.9727-27.6367 56.4941-32.0801 66.0156-32.0312C75.6836-32.0801 85.2051-27.4902 91.3574-20.9473C92.4805-19.7266 94.0918-19.7266 95.3125-20.9473L103.076-28.4668C104.102-29.4434 104.199-30.8105 103.32-31.8848C95.5078-41.2109 81.3477-47.7539 66.0156-47.7539C50.6836-47.7539 36.5723-41.2109 28.7598-31.8848C27.832-30.8105 27.9297-29.4922 28.9551-28.4668ZM66.0645 6.49414C67.334 6.49414 68.457 5.9082 70.459 4.00391L82.5195-7.61719C83.4961-8.59375 83.6914-10.0586 82.8125-11.1328C79.1992-15.7227 72.9004-19.1406 66.0645-19.1406C59.0332-19.1406 52.5879-15.5273 48.9746-10.6934C48.3398-9.76562 48.6816-8.54492 49.6094-7.61719L61.6699 4.00391C63.6719 5.9082 64.7949 6.49414 66.0645 6.49414Z"/>
  </g>
  <g id="Medium-M" transform="matrix(1 0 0 1 1680.66 1126)">
   <path d="M16.5039-41.3574C17.5293-40.2344 19.1406-40.2832 20.2148-41.4551C32.2754-54.1992 48.1445-60.9375 65.8691-60.9375C83.7402-60.9375 99.6582-54.1992 111.67-41.3574C112.695-40.332 114.258-40.3809 115.283-41.4551L122.119-48.3398C123.096-49.3164 123.096-50.5859 122.314-51.5137C110.547-66.0156 88.623-76.416 65.8691-76.416C43.1641-76.416 21.1914-66.0645 9.47266-51.5137C8.69141-50.5859 8.69141-49.3164 9.61914-48.3398ZM36.9141-21.0449C38.0859-19.9219 39.6484-20.0195 40.7715-21.2402C46.7285-27.7344 56.25-32.3242 65.918-32.2754C75.6348-32.3242 85.1562-27.6367 91.2598-21.0938C92.2852-19.9219 93.75-19.9707 94.873-21.0938L102.539-28.6133C103.467-29.4922 103.564-30.7129 102.734-31.6895C95.1172-40.918 81.2012-47.5586 65.918-47.5586C50.5859-47.5586 36.6699-40.918 29.0527-31.6895C28.2227-30.7129 28.3203-29.541 29.248-28.6133ZM65.918 6.00586C67.0898 6.00586 68.1152 5.46875 70.1172 3.56445L82.0801-7.95898C82.959-8.78906 83.1543-10.1562 82.373-11.1328C78.9551-15.4785 72.7539-18.9941 65.918-18.9941C58.8867-18.9941 52.5879-15.332 49.2188-10.7422C48.6328-9.86328 48.9258-8.78906 49.7559-7.95898L61.7188 3.56445C63.6719 5.41992 64.7461 6.00586 65.918 6.00586Z"/>
  </g>
  <g id="Regular-M" transform="matrix(1 0 0 1 1384.12 1126)">
   <path d="M16.8945-41.6016C17.8223-40.625 19.2383-40.6738 20.166-41.6504C32.1777-54.3945 47.998-61.1328 65.7227-61.1328C83.5449-61.1328 99.4629-54.3457 111.377-41.6016C112.256-40.7227 113.623-40.7227 114.551-41.6992L121.289-48.4375C122.119-49.3164 122.119-50.3906 121.436-51.2207C109.961-65.3809 88.3789-75.7812 65.7227-75.7812C43.1152-75.7812 21.4355-65.3809 10.0098-51.2207C9.32617-50.3906 9.32617-49.3164 10.1562-48.4375ZM37.207-21.1914C38.2324-20.166 39.5508-20.3125 40.5273-21.3867C46.3867-27.8809 55.957-32.6172 65.7227-32.5684C75.6348-32.6172 85.1562-27.7344 91.1133-21.2402C92.041-20.2148 93.3105-20.2148 94.2871-21.2402L101.855-28.7598C102.686-29.541 102.734-30.6152 102.002-31.4941C94.6289-40.5273 80.957-47.3145 65.7227-47.3145C50.4883-47.3145 36.8652-40.5273 29.4434-31.4941C28.7598-30.6152 28.8086-29.6387 29.6387-28.7598ZM65.7227 5.37109C66.7969 5.37109 67.7246 4.88281 69.6289 3.02734L81.543-8.39844C82.3242-9.13086 82.4707-10.2051 81.8359-11.084C78.6133-15.1855 72.6074-18.75 65.7227-18.75C58.6914-18.75 52.6367-15.0391 49.5117-10.791C48.9746-10.0098 49.2188-9.13086 49.9512-8.39844L61.8164 3.02734C63.7207 4.83398 64.6484 5.37109 65.7227 5.37109Z"/>
  </g>
  <g id="Light-M" transform="matrix(1 0 0 1 1088.48 1126)">
   <path d="M15.9668-42.1387C16.7969-41.2109 18.0664-41.2598 18.9453-42.1875C30.8594-54.7852 46.8262-61.5723 64.6484-61.5723C82.5195-61.5723 98.584-54.8828 110.4-42.1387C111.23-41.2598 112.451-41.2598 113.33-42.1875L119.678-48.5352C120.459-49.3652 120.459-50.3906 119.824-51.1719C108.398-65.1855 86.8164-75.3418 64.6484-75.3418C42.4316-75.3418 20.8008-65.2344 9.42383-51.1719C8.78906-50.3906 8.83789-49.3652 9.57031-48.5352ZM36.2305-21.7285C37.1582-20.8008 38.3301-20.8984 39.3066-21.875C45.2148-28.418 54.9316-33.1055 64.6484-33.0078C74.4141-33.1055 84.082-28.3203 90.1367-21.7773C91.0156-20.8496 92.1387-20.8496 93.0176-21.7285L100.244-28.9062C101.025-29.6387 101.074-30.6152 100.439-31.4453C93.1641-40.3809 79.4922-46.875 64.6484-46.875C49.8047-46.875 36.1816-40.332 28.8574-31.4453C28.2227-30.6152 28.2715-29.6875 29.0039-28.9062ZM64.6484 4.93164C65.5762 4.93164 66.4551 4.44336 68.2617 2.73438L79.9805-8.59375C80.6641-9.22852 80.8105-10.1562 80.2246-10.9863C77.1973-14.8926 71.1914-18.3105 64.6484-18.3105C57.959-18.3105 51.9531-14.7949 48.9746-10.791C48.4863-10.0098 48.6328-9.22852 49.3164-8.59375L61.0352 2.73438C62.8418 4.44336 63.7207 4.93164 64.6484 4.93164Z"/>
  </g>
  <g id="Thin-M" transform="matrix(1 0 0 1 793.214 1126)">
   <path d="M14.6973-42.7734C15.4785-41.9922 16.5039-41.9922 17.2852-42.8711C29.1504-55.3223 45.2637-62.1582 63.1836-62.1582C81.1523-62.1582 97.4609-55.5176 109.131-42.8223C109.912-41.9922 110.938-41.9922 111.719-42.8223L117.578-48.7305C118.311-49.4629 118.311-50.3418 117.676-51.123C106.348-64.9414 84.7656-74.7559 63.1836-74.7559C41.6016-74.7559 19.9219-64.9902 8.69141-51.123C8.05664-50.3418 8.10547-49.4629 8.78906-48.7305ZM35.0098-22.3633C35.791-21.582 36.7676-21.6309 37.5977-22.5586C43.7012-29.1504 53.6133-33.6914 63.1836-33.5938C72.8027-33.6914 82.666-29.1016 88.8184-22.5098C89.6484-21.6309 90.5762-21.6309 91.4062-22.3633L98.1445-29.0527C98.8281-29.7363 98.877-30.6152 98.291-31.3477C91.1621-40.1855 77.4902-46.2402 63.1836-46.2402C48.9258-46.2402 35.2539-40.0879 28.0762-31.3477C27.4902-30.6152 27.5879-29.7363 28.2227-29.0527ZM63.2324 4.3457C63.9648 4.3457 64.6973 3.90625 66.4062 2.29492L77.9297-8.83789C78.5156-9.375 78.6621-10.0586 78.0762-10.8887C75.3418-14.502 69.3848-17.7246 63.2324-17.7246C56.9824-17.7246 51.0254-14.4531 48.291-10.8398C47.8027-10.0098 47.8516-9.375 48.4863-8.83789L60.0098 2.29492C61.7188 3.90625 62.4512 4.3457 63.2324 4.3457Z"/>
  </g>
  <g id="Ultralight-M" transform="matrix(1 0 0 1 497.236 1126)">
   <path d="M14.0137-43.1641C14.7949-42.3828 15.7227-42.3828 16.4551-43.2129C28.2715-55.6152 44.4336-62.4512 62.4512-62.4512C80.4688-62.4512 96.875-55.8594 108.447-43.2129C109.18-42.3828 110.107-42.3828 110.889-43.1641L116.504-48.7793C117.188-49.4629 117.188-50.3418 116.602-51.0742C105.322-64.7949 83.7402-74.4141 62.4512-74.4141C41.1621-74.4141 19.4824-64.8438 8.30078-51.0742C7.71484-50.3418 7.76367-49.4629 8.39844-48.7793ZM34.375-22.7051C35.1074-22.0215 35.9375-22.0215 36.7676-22.9004C42.9199-29.4922 52.9297-33.9844 62.4512-33.9355C71.9727-33.9844 81.9824-29.4922 88.1348-22.9004C88.9648-22.0215 89.7949-22.0215 90.5273-22.7051L97.0703-29.1504C97.7051-29.7852 97.7539-30.5664 97.2168-31.25C90.1855-40.0391 76.4648-45.9473 62.4512-45.9473C48.4375-45.9473 34.8145-39.9902 27.6855-31.25C27.1484-30.5664 27.1973-29.7852 27.832-29.1504ZM62.5 4.05273C63.1348 4.05273 63.8184 3.61328 65.4297 2.05078L76.8555-8.98438C77.3926-9.47266 77.5391-10.0098 76.9531-10.8398C74.3652-14.3066 68.457-17.4316 62.5-17.4316C56.4941-17.4316 50.5371-14.3066 47.9492-10.8398C47.4121-10.0098 47.5098-9.47266 48.0469-8.98438L59.5215 2.05078C61.1328 3.61328 61.8164 4.05273 62.5 4.05273Z"/>
  </g>
  <g id="Black-S" transform="matrix(1 0 0 1 2881.23 696)">
   <path d="M11.4746-39.209C12.7441-37.8906 14.7949-37.9395 16.0156-39.3066C25.7324-49.4629 38.1348-54.834 52.1973-54.834C66.3574-54.834 78.8086-49.4629 88.4766-39.209C89.6973-37.9883 91.6992-38.0371 92.9199-39.3066L98.6328-45.0684C99.7559-46.1914 99.8535-47.9004 98.8281-49.0234C88.6719-61.6211 70.3125-69.7266 52.1973-69.7266C34.082-69.7266 15.7227-61.6211 5.56641-49.0234C4.54102-47.9004 4.63867-46.1914 5.76172-45.0684ZM28.0273-23.5352C29.3945-22.2656 31.3477-22.3145 32.666-23.7305C37.793-28.8574 45.1172-31.8848 52.1973-31.8848C59.375-31.8848 66.8457-28.7598 71.9727-23.5352C73.1934-22.2168 75-22.3145 76.3672-23.5352L82.7637-29.4434C83.8867-30.5176 84.0332-32.0312 83.0078-33.1543C76.2207-40.9668 64.3555-45.8008 52.1973-45.8008C40.0391-45.8008 28.1738-40.9668 21.3867-33.1543C20.3613-32.0312 20.5078-30.5176 21.6309-29.4434ZM52.2461-0.683594C53.5645-0.683594 54.7363-1.31836 56.4941-2.97852L66.2109-12.4023C67.334-13.4766 67.5293-15.2832 66.4551-16.5039C63.0371-20.752 57.6172-23.291 52.2461-23.291C46.7773-23.291 41.0645-20.6055 37.5488-15.918C36.8164-14.8438 37.2559-13.3789 38.2324-12.4023L47.998-2.97852C49.7559-1.31836 50.9277-0.683594 52.2461-0.683594Z"/>
  </g>
  <g id="Heavy-S" transform="matrix(1 0 0 1 2584.54 696)">
   <path d="M11.9629-39.4043C13.1348-38.1836 14.9902-38.2324 16.0645-39.4531C25.7324-49.6094 38.1348-54.9316 52.1484-54.9316C66.2598-54.9316 78.6621-49.5605 88.2812-39.4043C89.4043-38.2812 91.2109-38.3301 92.2852-39.502L97.9492-45.166C98.9746-46.1914 99.0234-47.7051 98.1445-48.7305C88.2324-60.9863 70.2148-69.1406 52.1484-69.1406C34.082-69.1406 16.0156-60.9863 6.15234-48.7305C5.22461-47.7051 5.32227-46.1914 6.34766-45.166ZM28.418-23.6328C29.6387-22.4609 31.3965-22.5586 32.6172-23.8281C37.5977-28.9551 44.9219-32.1289 52.1484-32.1289C59.4727-32.1289 66.9434-28.8574 71.9727-23.6328C73.0469-22.4609 74.707-22.5098 75.9277-23.6328L82.2266-29.5898C83.252-30.5664 83.3984-31.9336 82.4707-32.959C75.9277-40.625 64.3066-45.6055 52.1484-45.6055C39.9902-45.6055 28.418-40.625 21.875-32.959C20.9473-31.9336 21.0449-30.5664 22.0703-29.5898ZM52.1973-1.26953C53.418-1.26953 54.4922-1.85547 56.2012-3.4668L65.8691-12.793C66.8457-13.7695 67.041-15.3809 66.1133-16.4551C62.8906-20.5078 57.6172-23.0957 52.1973-23.0957C46.6797-23.0957 41.2109-20.3613 37.8906-15.9668C37.2559-14.9902 37.6465-13.6719 38.5254-12.793L48.1934-3.4668C49.9023-1.85547 50.9766-1.26953 52.1973-1.26953Z"/>
  </g>
  <g id="Bold-S" transform="matrix(1 0 0 1 2287.88 696)">
   <path d="M12.5977-39.5996C13.5742-38.5254 15.1855-38.5742 16.2109-39.6484C25.7812-49.7559 38.1348-55.0781 52.0996-55.0781C66.1133-55.0781 78.5645-49.707 88.0859-39.5996C89.0625-38.623 90.625-38.623 91.6016-39.6973L97.2168-45.3125C98.0957-46.2402 98.1445-47.5098 97.3633-48.3887C87.793-60.3027 70.1172-68.457 52.0996-68.457C34.082-68.457 16.4062-60.3027 6.83594-48.3887C6.05469-47.5098 6.10352-46.2402 6.98242-45.3125ZM28.8086-23.7793C29.9316-22.7051 31.4453-22.8027 32.5195-23.9258C37.3535-29.0527 44.7266-32.4219 52.0996-32.4219C59.6191-32.4219 67.041-28.9062 71.9238-23.7793C72.9004-22.7051 74.3164-22.7539 75.4395-23.7793L81.6895-29.7852C82.5684-30.6152 82.666-31.8359 81.8848-32.7637C75.5371-40.2344 64.2578-45.3613 52.0996-45.3613C39.9902-45.3613 28.7109-40.2344 22.3633-32.7637C21.582-31.8359 21.6797-30.6641 22.5586-29.7852ZM52.1484-1.95312C53.2715-1.95312 54.248-2.44141 55.8594-4.05273L65.4297-13.2324C66.3086-14.1113 66.5039-15.4785 65.6738-16.4062C62.6465-20.2148 57.5684-22.9004 52.1484-22.9004C46.582-22.9004 41.3574-20.0684 38.2812-16.0156C37.7441-15.1855 38.0371-14.0625 38.8672-13.2324L48.3887-4.05273C50.0488-2.49023 51.0254-1.95312 52.1484-1.95312Z"/>
  </g>
  <g id="Semibold-S" transform="matrix(1 0 0 1 1991.19 696)">
   <path d="M12.9883-39.7461C13.8672-38.7695 15.332-38.8184 16.2598-39.7949C25.7812-49.8535 38.1348-55.127 52.0508-55.127C66.0645-55.127 78.4668-49.8047 87.9395-39.7461C88.8184-38.8672 90.2344-38.8672 91.1621-39.8438L96.6797-45.3613C97.5098-46.2402 97.5098-47.3633 96.8262-48.1934C87.4512-59.8145 70.0684-68.0176 52.0508-68.0176C34.082-68.0176 16.6504-59.8145 7.27539-48.1934C6.5918-47.3633 6.64062-46.2402 7.42188-45.3613ZM29.1016-23.877C30.127-22.8516 31.4941-22.9492 32.4707-24.0234C37.1582-29.1016 44.5801-32.6172 52.0996-32.6172C59.668-32.6172 67.0898-29.0039 71.9238-23.877C72.8027-22.9004 74.0723-22.9004 75.0977-23.877L81.25-29.8828C82.0801-30.6641 82.1777-31.7871 81.4453-32.6172C75.293-39.9414 64.209-45.166 52.0996-45.166C39.9414-45.166 28.8574-39.9414 22.7051-32.6172C22.0215-31.7871 22.0703-30.7129 22.9004-29.8828ZM52.0996-2.39258C53.125-2.39258 54.0527-2.88086 55.6641-4.39453L65.1367-13.5742C65.918-14.3066 66.1133-15.5273 65.3809-16.4062C62.5-20.0195 57.5684-22.7539 52.0996-22.7539C46.4844-22.7539 41.4062-19.873 38.5742-16.0156C38.0859-15.2832 38.3301-14.3066 39.0625-13.5742L48.5352-4.39453C50.1465-2.88086 51.0742-2.39258 52.0996-2.39258Z"/>
  </g>
  <g id="Medium-S" transform="matrix(1 0 0 1 1694.5 696)">
   <path d="M13.2812-39.8438C14.1113-38.916 15.4785-38.9648 16.3086-39.8926C25.7812-49.9512 38.1836-55.2246 52.0508-55.2246C66.0156-55.2246 78.418-49.9023 87.8418-39.8438C88.6719-39.0137 89.9902-39.0137 90.7715-39.9414L96.2891-45.459C97.0703-46.2402 97.0703-47.2656 96.4355-47.998C87.207-59.4238 70.0195-67.6758 52.0508-67.6758C34.082-67.6758 16.8457-59.4238 7.61719-47.998C7.03125-47.2656 7.03125-46.2402 7.8125-45.459ZM29.2969-23.9258C30.2734-22.998 31.543-23.0957 32.4219-24.0723C37.0605-29.1504 44.4824-32.7637 52.0508-32.7637C59.7656-32.7637 67.1387-29.0527 71.875-23.9258C72.7051-22.998 73.877-23.0469 74.8047-23.9746L80.957-29.9805C81.7383-30.6641 81.7871-31.6895 81.1035-32.5195C75.0977-39.7461 64.209-45.0684 52.0508-45.0684C39.8926-45.0684 29.0039-39.7461 22.998-32.5195C22.3145-31.6895 22.4121-30.7617 23.1445-29.9805ZM52.0508-2.73438C53.0273-2.73438 53.9062-3.17383 55.4688-4.6875L64.9414-13.7695C65.625-14.502 65.7715-15.5762 65.1855-16.3574C62.4023-19.873 57.5684-22.6562 52.0508-22.6562C46.3867-22.6562 41.5039-19.7266 38.7695-16.0645C38.3301-15.3809 38.5254-14.4531 39.209-13.7695L48.6816-4.6875C50.2441-3.22266 51.0742-2.73438 52.0508-2.73438Z"/>
  </g>
  <g id="Regular-S" transform="matrix(1 0 0 1 1397.84 696)">
   <path d="M13.7207-39.9902C14.4043-39.1602 15.625-39.209 16.4062-40.0391C25.8301-50.0488 38.1836-55.2734 52.002-55.2734C65.918-55.2734 78.3203-50 87.7441-39.9902C88.4277-39.2578 89.5996-39.2578 90.332-40.0879L95.8008-45.5078C96.4355-46.2402 96.4355-47.1191 95.8984-47.8027C86.9141-58.9355 69.9707-67.2363 52.002-67.2363C34.082-67.2363 17.1387-58.9355 8.10547-47.8027C7.56836-47.1191 7.56836-46.2402 8.25195-45.5078ZM29.5898-24.0234C30.4688-23.1445 31.543-23.291 32.373-24.1699C36.8652-29.248 44.3359-32.959 52.0508-32.9102C59.8145-32.959 67.2363-29.1016 71.875-24.0234C72.6074-23.1934 73.6328-23.1934 74.4629-24.0723L80.5664-30.0781C81.25-30.7129 81.2988-31.6406 80.7129-32.373C74.8535-39.4531 64.1602-44.9219 52.0508-44.9219C39.8926-44.9219 29.1992-39.4531 23.3398-32.373C22.7539-31.6406 22.8027-30.8105 23.4863-30.0781ZM52.002-3.17383C52.9297-3.17383 53.7109-3.56445 55.2246-5.07812L64.6484-14.1113C65.2832-14.6973 65.4297-15.6738 64.8926-16.3574C62.2559-19.6777 57.5195-22.5586 52.002-22.5586C46.3379-22.5586 41.6016-19.5312 39.0137-16.0645C38.623-15.4785 38.8184-14.6973 39.4531-14.1113L48.7793-5.07812C50.3418-3.61328 51.123-3.17383 52.002-3.17383Z"/>
  </g>
  <g id="Light-S" transform="matrix(1 0 0 1 1102.08 696)">
   <path d="M12.8418-40.4297C13.5254-39.6973 14.5996-39.6973 15.2832-40.4785C24.6582-50.3906 37.1094-55.7129 51.0254-55.7129C65.0391-55.7129 77.5391-50.4395 86.8652-40.4297C87.5488-39.7461 88.5742-39.7461 89.2578-40.4785L94.3848-45.6055C95.0195-46.2891 95.0195-47.1191 94.4824-47.7539C85.5469-58.7891 68.6035-66.7969 51.0254-66.7969C33.4961-66.7969 16.5527-58.7891 7.61719-47.7539C7.08008-47.1191 7.08008-46.2891 7.71484-45.6055ZM28.7598-24.4629C29.541-23.6816 30.5176-23.7793 31.25-24.6094C35.8887-29.6875 43.4082-33.3984 51.0742-33.3496C58.7402-33.3984 66.2598-29.5898 70.9961-24.5117C71.6797-23.7305 72.6074-23.7305 73.3887-24.4629L79.1504-30.2246C79.7852-30.8105 79.834-31.6406 79.2969-32.2754C73.5352-39.3066 62.8418-44.4824 51.0742-44.4824C39.3066-44.4824 28.6133-39.3066 22.8516-32.2754C22.3145-31.6406 22.3633-30.8594 22.9492-30.2246ZM51.0742-3.61328C51.8555-3.61328 52.5391-3.95508 54.0039-5.37109L63.2324-14.2578C63.8184-14.7949 63.9648-15.625 63.4277-16.2598C61.0352-19.4336 56.2988-22.1191 51.0742-22.1191C45.6543-22.1191 40.9668-19.3359 38.5742-16.0645C38.1836-15.4785 38.3301-14.7949 38.8672-14.2578L48.0957-5.37109C49.5605-4.00391 50.2441-3.61328 51.0742-3.61328Z"/>
  </g>
  <g id="Thin-S" transform="matrix(1 0 0 1 806.642 696)">
   <path d="M11.7188-41.0156C12.3535-40.3809 13.1836-40.3809 13.8184-41.0645C23.1445-50.8789 35.7422-56.2012 49.7559-56.2012C63.8184-56.2012 76.5625-50.9766 85.6934-41.0645C86.3281-40.3809 87.1582-40.3809 87.793-41.0645L92.5293-45.752C93.0664-46.3379 93.0664-47.0703 92.5781-47.7051C83.6914-58.5449 66.7969-66.3086 49.7559-66.3086C32.7148-66.3086 15.7715-58.5938 6.93359-47.7051C6.44531-47.0703 6.49414-46.3379 7.03125-45.752ZM27.6367-25C28.3203-24.4141 29.1016-24.4141 29.7852-25.1465C34.5215-30.3223 42.2363-33.8867 49.7559-33.8379C57.3242-33.8867 65.0391-30.2734 69.8242-25.1465C70.459-24.4141 71.2402-24.4141 71.9238-25.0488L77.2949-30.3711C77.832-30.9082 77.8809-31.5918 77.3926-32.1777C71.7773-39.1602 61.084-43.9941 49.7559-43.9941C38.4766-43.9941 27.7832-39.1113 22.168-32.1777C21.6797-31.5918 21.7285-30.9082 22.2656-30.3711ZM49.8047-4.10156C50.4395-4.10156 51.0254-4.44336 52.3438-5.76172L61.4258-14.502C61.9141-14.9414 62.0117-15.5273 61.5723-16.1621C59.375-19.0918 54.6875-21.6309 49.8047-21.6309C44.8242-21.6309 40.1367-19.043 37.9395-16.1133C37.5488-15.4785 37.6465-14.9414 38.1348-14.502L47.2168-5.76172C48.5352-4.49219 49.1699-4.10156 49.8047-4.10156Z"/>
  </g>
  <g id="Ultralight-S" transform="matrix(1 0 0 1 510.59 696)">
   <path d="M11.1328-41.3574C11.7676-40.7227 12.5-40.7227 13.0859-41.4062C22.3633-51.123 35.0098-56.4941 49.1211-56.4941C63.2324-56.4941 76.0254-51.3184 85.1074-41.4062C85.7422-40.7227 86.4746-40.7227 87.0605-41.3574L91.5527-45.8496C92.0898-46.3867 92.0898-47.0703 91.6016-47.6562C82.7637-58.4473 65.8691-66.0156 49.1211-66.0156C32.373-66.0156 15.3809-58.4961 6.5918-47.6562C6.10352-47.0703 6.15234-46.3867 6.64062-45.8496ZM27.0996-25.3418C27.6855-24.7559 28.3691-24.7559 29.0039-25.4883C33.8379-30.6641 41.6504-34.1797 49.1211-34.1309C56.5918-34.1797 64.4043-30.6152 69.2383-25.4395C69.873-24.7559 70.5566-24.7559 71.1426-25.3418L76.3184-30.4688C76.8555-30.957 76.9043-31.5918 76.416-32.1289C70.8984-39.0137 60.1562-43.7012 49.1211-43.7012C38.0859-43.7012 27.3926-39.0137 21.8262-32.1289C21.3379-31.5918 21.3867-30.957 21.9238-30.4688ZM49.1211-4.39453C49.707-4.39453 50.2441-4.73633 51.5137-5.95703L60.498-14.5996C60.9375-15.0391 61.0352-15.4785 60.5957-16.1133C58.4961-18.8965 53.8574-21.3379 49.1211-21.3379C44.3848-21.3379 39.6973-18.8965 37.6465-16.1133C37.2559-15.4785 37.3047-15.0391 37.7441-14.5996L46.7285-5.95703C48.0469-4.73633 48.584-4.39453 49.1211-4.39453Z"/>
  </g>
 </g>
</svg>
