<?xml version="1.0" encoding="UTF-8"?>
<!--Generator: Apple Native CoreSVG 149-->
<!DOCTYPE svg
PUBLIC "-//W3C//DTD SVG 1.1//EN"
       "http://www.w3.org/Graphics/SVG/1.1/DTD/svg11.dtd">
<svg version="1.1" xmlns="http://www.w3.org/2000/svg" xmlns:xlink="http://www.w3.org/1999/xlink" width="3300" height="2200">
 <!--glyph: "uni1003A0.medium", point size: 100.000000, font version: "Version 16.0d18e1", template writer version: "8"-->
 <g id="Notes">
  <rect height="2200" id="artboard" style="fill:white;opacity:1" width="3300" x="0" y="0"/>
  <line id="" style="fill:none;stroke:black;opacity:1;stroke-width:0.5;" x1="263" x2="3036" y1="292" y2="292"/>
  <text style="stroke:none;fill:black;font-family:-apple-system,&quot;SF Pro Display&quot;,&quot;SF Pro Text&quot;,Helvetica,sans-serif;font-weight:bold;" transform="matrix(1 0 0 1 263 322)">Weight/Scale Variations</text>
  <text style="stroke:none;fill:black;font-family:-apple-system,&quot;SF Pro Display&quot;,&quot;SF Pro Text&quot;,Helvetica,sans-serif;text-anchor:middle;" transform="matrix(1 0 0 1 559.711 322)">Ultralight</text>
  <text style="stroke:none;fill:black;font-family:-apple-system,&quot;SF Pro Display&quot;,&quot;SF Pro Text&quot;,Helvetica,sans-serif;text-anchor:middle;" transform="matrix(1 0 0 1 856.422 322)">Thin</text>
  <text style="stroke:none;fill:black;font-family:-apple-system,&quot;SF Pro Display&quot;,&quot;SF Pro Text&quot;,Helvetica,sans-serif;text-anchor:middle;" transform="matrix(1 0 0 1 1153.13 322)">Light</text>
  <text style="stroke:none;fill:black;font-family:-apple-system,&quot;SF Pro Display&quot;,&quot;SF Pro Text&quot;,Helvetica,sans-serif;text-anchor:middle;" transform="matrix(1 0 0 1 1449.84 322)">Regular</text>
  <text style="stroke:none;fill:black;font-family:-apple-system,&quot;SF Pro Display&quot;,&quot;SF Pro Text&quot;,Helvetica,sans-serif;text-anchor:middle;" transform="matrix(1 0 0 1 1746.56 322)">Medium</text>
  <text style="stroke:none;fill:black;font-family:-apple-system,&quot;SF Pro Display&quot;,&quot;SF Pro Text&quot;,Helvetica,sans-serif;text-anchor:middle;" transform="matrix(1 0 0 1 2043.27 322)">Semibold</text>
  <text style="stroke:none;fill:black;font-family:-apple-system,&quot;SF Pro Display&quot;,&quot;SF Pro Text&quot;,Helvetica,sans-serif;text-anchor:middle;" transform="matrix(1 0 0 1 2339.98 322)">Bold</text>
  <text style="stroke:none;fill:black;font-family:-apple-system,&quot;SF Pro Display&quot;,&quot;SF Pro Text&quot;,Helvetica,sans-serif;text-anchor:middle;" transform="matrix(1 0 0 1 2636.69 322)">Heavy</text>
  <text style="stroke:none;fill:black;font-family:-apple-system,&quot;SF Pro Display&quot;,&quot;SF Pro Text&quot;,Helvetica,sans-serif;text-anchor:middle;" transform="matrix(1 0 0 1 2933.4 322)">Black</text>
  <line id="" style="fill:none;stroke:black;opacity:1;stroke-width:0.5;" x1="263" x2="3036" y1="1903" y2="1903"/>
  <g id="" transform="matrix(1 0 0 1 263 1933)">
   <path d="M9.24805 0.830078C13.5547 0.830078 17.1387-2.74414 17.1387-7.05078C17.1387-11.3574 13.5449-14.9316 9.23828-14.9316C4.94141-14.9316 1.36719-11.3574 1.36719-7.05078C1.36719-2.74414 4.95117 0.830078 9.24805 0.830078ZM9.24805-0.654297C5.70312-0.654297 2.87109-3.49609 2.87109-7.05078C2.87109-10.6055 5.69336-13.4473 9.23828-13.4473C12.793-13.4473 15.6348-10.6055 15.6445-7.05078C15.6543-3.49609 12.8027-0.654297 9.24805-0.654297ZM6.39648-6.31836L8.50586-6.31836L8.50586-4.19922C8.50586-3.75977 8.79883-3.45703 9.22852-3.45703C9.67773-3.45703 9.9707-3.75977 9.9707-4.19922L9.9707-6.31836L12.0996-6.31836C12.5391-6.31836 12.8418-6.61133 12.8418-7.04102C12.8418-7.48047 12.5391-7.7832 12.0996-7.7832L9.9707-7.7832L9.9707-9.89258C9.9707-10.3418 9.67773-10.6445 9.22852-10.6445C8.79883-10.6445 8.50586-10.3418 8.50586-9.89258L8.50586-7.7832L6.39648-7.7832C5.94727-7.7832 5.64453-7.48047 5.64453-7.04102C5.64453-6.61133 5.94727-6.31836 6.39648-6.31836Z"/>
  </g>
  <g id="" transform="matrix(1 0 0 1 281.506 1933)">
   <path d="M11.709 2.91016C17.1582 2.91016 21.6699-1.61133 21.6699-7.05078C21.6699-12.5 17.1484-17.0117 11.6992-17.0117C6.25977-17.0117 1.74805-12.5 1.74805-7.05078C1.74805-1.61133 6.26953 2.91016 11.709 2.91016ZM11.709 1.25C7.09961 1.25 3.41797-2.44141 3.41797-7.05078C3.41797-11.6602 7.08984-15.3516 11.6992-15.3516C16.3086-15.3516 20-11.6602 20.0098-7.05078C20.0195-2.44141 16.3184 1.25 11.709 1.25ZM7.98828-6.23047L10.8789-6.23047L10.8789-3.32031C10.8789-2.83203 11.2109-2.5 11.6895-2.5C12.1777-2.5 12.5195-2.83203 12.5195-3.32031L12.5195-6.23047L15.4297-6.23047C15.918-6.23047 16.25-6.5625 16.25-7.04102C16.25-7.5293 15.918-7.87109 15.4297-7.87109L12.5195-7.87109L12.5195-10.7617C12.5195-11.2695 12.1777-11.6016 11.6895-11.6016C11.2109-11.6016 10.8789-11.2598 10.8789-10.7617L10.8789-7.87109L7.98828-7.87109C7.48047-7.87109 7.14844-7.5293 7.14844-7.04102C7.14844-6.5625 7.49023-6.23047 7.98828-6.23047Z"/>
  </g>
  <g id="" transform="matrix(1 0 0 1 304.924 1933)">
   <path d="M14.9707 5.66406C21.9336 5.66406 27.6953-0.0976562 27.6953-7.05078C27.6953-14.0137 21.9238-19.7754 14.9609-19.7754C8.00781-19.7754 2.25586-14.0137 2.25586-7.05078C2.25586-0.0976562 8.01758 5.66406 14.9707 5.66406ZM14.9707 3.84766C8.93555 3.84766 4.08203-1.01562 4.08203-7.05078C4.08203-13.0957 8.92578-17.9492 14.9609-17.9492C21.0059-17.9492 25.8594-13.0957 25.8691-7.05078C25.8789-1.01562 21.0156 3.84766 14.9707 3.84766ZM10.0586-6.14258L14.0625-6.14258L14.0625-2.12891C14.0625-1.5918 14.4336-1.2207 14.9512-1.2207C15.4883-1.2207 15.8594-1.5918 15.8594-2.12891L15.8594-6.14258L19.8828-6.14258C20.4102-6.14258 20.791-6.51367 20.791-7.03125C20.791-7.56836 20.4199-7.94922 19.8828-7.94922L15.8594-7.94922L15.8594-11.9531C15.8594-12.5098 15.4883-12.8809 14.9512-12.8809C14.4336-12.8809 14.0625-12.5 14.0625-11.9531L14.0625-7.94922L10.0586-7.94922C9.50195-7.94922 9.13086-7.56836 9.13086-7.03125C9.13086-6.51367 9.51172-6.14258 10.0586-6.14258Z"/>
  </g>
  <text style="stroke:none;fill:black;font-family:-apple-system,&quot;SF Pro Display&quot;,&quot;SF Pro Text&quot;,Helvetica,sans-serif;font-weight:bold;" transform="matrix(1 0 0 1 263 1953)">Design Variations</text>
  <text style="stroke:none;fill:black;font-family:-apple-system,&quot;SF Pro Display&quot;,&quot;SF Pro Text&quot;,Helvetica,sans-serif;" transform="matrix(1 0 0 1 263 1971)">Symbols are supported in up to nine weights and three scales.</text>
  <text style="stroke:none;fill:black;font-family:-apple-system,&quot;SF Pro Display&quot;,&quot;SF Pro Text&quot;,Helvetica,sans-serif;" transform="matrix(1 0 0 1 263 1989)">For optimal layout with text and other symbols, vertically align</text>
  <text style="stroke:none;fill:black;font-family:-apple-system,&quot;SF Pro Display&quot;,&quot;SF Pro Text&quot;,Helvetica,sans-serif;" transform="matrix(1 0 0 1 263 2007)">symbols with the adjacent text.</text>
  <line id="" style="fill:none;stroke:#00AEEF;stroke-width:0.5;opacity:1.0;" x1="776" x2="776" y1="1919" y2="1933"/>
  <g id="" transform="matrix(1 0 0 1 776 1933)">
   <path d="M3.31055 0.126953C3.82812 0.126953 4.08203-0.0683594 4.26758-0.605469L5.52734-4.0625L11.2891-4.0625L12.5488-0.605469C12.7344-0.0683594 12.9883 0.126953 13.4961 0.126953C14.0137 0.126953 14.3457-0.185547 14.3457-0.673828C14.3457-0.839844 14.3164-0.986328 14.2383-1.20117L9.6582-13.3887C9.43359-13.9941 9.0332-14.2871 8.4082-14.2871C7.80273-14.2871 7.39258-13.9941 7.17773-13.3984L2.59766-1.19141C2.51953-0.976562 2.49023-0.830078 2.49023-0.664062C2.49023-0.175781 2.80273 0.126953 3.31055 0.126953ZM6.00586-5.53711L8.37891-12.1094L8.42773-12.1094L10.8008-5.53711Z"/>
  </g>
  <line id="" style="fill:none;stroke:#00AEEF;stroke-width:0.5;opacity:1.0;" x1="792.836" x2="792.836" y1="1919" y2="1933"/>
  <text style="stroke:none;fill:black;font-family:-apple-system,&quot;SF Pro Display&quot;,&quot;SF Pro Text&quot;,Helvetica,sans-serif;font-weight:bold;" transform="matrix(1 0 0 1 776 1953)">Margins</text>
  <text style="stroke:none;fill:black;font-family:-apple-system,&quot;SF Pro Display&quot;,&quot;SF Pro Text&quot;,Helvetica,sans-serif;" transform="matrix(1 0 0 1 776 1971)">Leading and trailing margins on the left and right side of each symbol</text>
  <text style="stroke:none;fill:black;font-family:-apple-system,&quot;SF Pro Display&quot;,&quot;SF Pro Text&quot;,Helvetica,sans-serif;" transform="matrix(1 0 0 1 776 1989)">can be adjusted by modifying the x-location of the margin guidelines.</text>
  <text style="stroke:none;fill:black;font-family:-apple-system,&quot;SF Pro Display&quot;,&quot;SF Pro Text&quot;,Helvetica,sans-serif;" transform="matrix(1 0 0 1 776 2007)">Modifications are automatically applied proportionally to all</text>
  <text style="stroke:none;fill:black;font-family:-apple-system,&quot;SF Pro Display&quot;,&quot;SF Pro Text&quot;,Helvetica,sans-serif;" transform="matrix(1 0 0 1 776 2025)">scales and weights.</text>
  <g id="" transform="matrix(1 0 0 1 1289 1933)">
   <path d="M2.8418 1.86523L4.54102 3.57422C5.40039 4.44336 6.38672 4.38477 7.31445 3.35938L17.4902-7.85156C17.7539-7.76367 18.0273-7.7832 18.3398-7.8418L19.4043-8.03711L20.0684-7.36328L20.0293-6.80664C19.9902-6.30859 20.1172-5.92773 20.6055-5.44922L21.3672-4.70703C21.8457-4.22852 22.4609-4.19922 22.9297-4.66797L25.8398-7.58789C26.3086-8.05664 26.2891-8.65234 25.8105-9.13086L25.0391-9.89258C24.5605-10.3711 24.1895-10.5273 23.7109-10.4883L23.1348-10.4395L22.4902-11.0742L22.7344-12.1973C22.8613-12.7637 22.7051-13.2031 22.1191-13.7891L19.9219-15.9766C16.582-19.2969 12.1484-19.2188 9.25781-16.3281C8.83789-15.918 8.80859-15.3418 9.04297-14.9512C9.27734-14.5898 9.73633-14.3555 10.3809-14.5215C11.8457-14.8633 13.3691-14.9219 14.7949-13.9844L14.209-12.5293C14.0137-12.0508 13.9844-11.6504 14.1113-11.2891L3.04688-0.898438C2.06055 0.0195312 1.98242 0.996094 2.8418 1.86523ZM10.752-15.957C13.1836-17.7344 16.4746-17.4316 18.7012-15.2051L21.1328-12.793C21.3672-12.5586 21.4062-12.373 21.3379-12.0312L21.0156-10.5469L22.5195-9.0625L23.5059-9.12109C23.7598-9.13086 23.8379-9.11133 24.0332-8.91602L24.6094-8.33984L22.168-5.89844L21.5918-6.47461C21.3965-6.66992 21.3672-6.74805 21.377-7.01172L21.4453-7.98828L19.9512-9.47266L18.4277-9.21875C18.1055-9.15039 17.959-9.17969 17.7148-9.41406L15.7129-11.416C15.459-11.6504 15.4297-11.8164 15.5859-12.1875L16.4648-14.2773C14.9023-15.7324 12.8711-16.3574 10.8398-15.7617C10.6836-15.7227 10.625-15.8496 10.752-15.957ZM5.27344 2.30469L4.10156 1.14258C3.63281 0.683594 3.74023 0.341797 4.14062-0.0195312L14.9512-10.1953L16.416-8.71094L6.42578 2.27539C6.07422 2.67578 5.74219 2.77344 5.27344 2.30469Z"/>
  </g>
  <text style="stroke:none;fill:black;font-family:-apple-system,&quot;SF Pro Display&quot;,&quot;SF Pro Text&quot;,Helvetica,sans-serif;font-weight:bold;" transform="matrix(1 0 0 1 1289 1953)">Exporting</text>
  <text style="stroke:none;fill:black;font-family:-apple-system,&quot;SF Pro Display&quot;,&quot;SF Pro Text&quot;,Helvetica,sans-serif;" transform="matrix(1 0 0 1 1289 1971)">Symbols should be outlined when exporting to ensure the</text>
  <text style="stroke:none;fill:black;font-family:-apple-system,&quot;SF Pro Display&quot;,&quot;SF Pro Text&quot;,Helvetica,sans-serif;" transform="matrix(1 0 0 1 1289 1989)">design is preserved when submitting to Xcode.</text>
  <text id="template-version" style="stroke:none;fill:black;font-family:-apple-system,&quot;SF Pro Display&quot;,&quot;SF Pro Text&quot;,Helvetica,sans-serif;text-anchor:end;" transform="matrix(1 0 0 1 3036 1933)">Template v.2.0</text>
  <text style="stroke:none;fill:black;font-family:-apple-system,&quot;SF Pro Display&quot;,&quot;SF Pro Text&quot;,Helvetica,sans-serif;text-anchor:end;" transform="matrix(1 0 0 1 3036 1951)">Requires Xcode 12 or greater</text>
  <text style="stroke:none;fill:black;font-family:-apple-system,&quot;SF Pro Display&quot;,&quot;SF Pro Text&quot;,Helvetica,sans-serif;text-anchor:end;" transform="matrix(1 0 0 1 3036 1969)">Generated from lock</text>
  <text style="stroke:none;fill:black;font-family:-apple-system,&quot;SF Pro Display&quot;,&quot;SF Pro Text&quot;,Helvetica,sans-serif;text-anchor:end;" transform="matrix(1 0 0 1 3036 1987)">Typeset at 100 points</text>
  <text style="stroke:none;fill:black;font-family:-apple-system,&quot;SF Pro Display&quot;,&quot;SF Pro Text&quot;,Helvetica,sans-serif;" transform="matrix(1 0 0 1 263 726)">Small</text>
  <text style="stroke:none;fill:black;font-family:-apple-system,&quot;SF Pro Display&quot;,&quot;SF Pro Text&quot;,Helvetica,sans-serif;" transform="matrix(1 0 0 1 263 1156)">Medium</text>
  <text style="stroke:none;fill:black;font-family:-apple-system,&quot;SF Pro Display&quot;,&quot;SF Pro Text&quot;,Helvetica,sans-serif;" transform="matrix(1 0 0 1 263 1586)">Large</text>
 </g>
 <g id="Guides">
  <g id="H-reference" style="fill:#27AAE1;stroke:none;" transform="matrix(1 0 0 1 339 696)">
   <path d="M0.976562 0L3.66211 0L12.9883-24.4629L45.752-24.4629L55.127 0L57.7637 0L30.6152-70.459L28.125-70.459ZM29.3457-67.1387L29.4434-67.1387L44.873-26.709L13.8672-26.709Z"/>
  </g>
  <line id="Baseline-S" style="fill:none;stroke:#27AAE1;opacity:1;stroke-width:0.5;" x1="263" x2="3036" y1="696" y2="696"/>
  <line id="Capline-S" style="fill:none;stroke:#27AAE1;opacity:1;stroke-width:0.5;" x1="263" x2="3036" y1="625.541" y2="625.541"/>
  <g id="H-reference" style="fill:#27AAE1;stroke:none;" transform="matrix(1 0 0 1 339 1126)">
   <path d="M0.976562 0L3.66211 0L12.9883-24.4629L45.752-24.4629L55.127 0L57.7637 0L30.6152-70.459L28.125-70.459ZM29.3457-67.1387L29.4434-67.1387L44.873-26.709L13.8672-26.709Z"/>
  </g>
  <line id="Baseline-M" style="fill:none;stroke:#27AAE1;opacity:1;stroke-width:0.5;" x1="263" x2="3036" y1="1126" y2="1126"/>
  <line id="Capline-M" style="fill:none;stroke:#27AAE1;opacity:1;stroke-width:0.5;" x1="263" x2="3036" y1="1055.54" y2="1055.54"/>
  <g id="H-reference" style="fill:#27AAE1;stroke:none;" transform="matrix(1 0 0 1 339 1556)">
   <path d="M0.976562 0L3.66211 0L12.9883-24.4629L45.752-24.4629L55.127 0L57.7637 0L30.6152-70.459L28.125-70.459ZM29.3457-67.1387L29.4434-67.1387L44.873-26.709L13.8672-26.709Z"/>
  </g>
  <line id="Baseline-L" style="fill:none;stroke:#27AAE1;opacity:1;stroke-width:0.5;" x1="263" x2="3036" y1="1556" y2="1556"/>
  <line id="Capline-L" style="fill:none;stroke:#27AAE1;opacity:1;stroke-width:0.5;" x1="263" x2="3036" y1="1485.54" y2="1485.54"/>
  <line id="left-margin" style="fill:none;stroke:#00AEEF;stroke-width:0.5;opacity:1.0;" x1="1396.62" x2="1396.62" y1="1030.79" y2="1150.12"/>
  <line id="right-margin" style="fill:none;stroke:#00AEEF;stroke-width:0.5;opacity:1.0;" x1="1503.07" x2="1503.07" y1="1030.79" y2="1150.12"/>
 </g>
 <g id="Symbols">
  <g id="Black-L" transform="matrix(1 0 0 1 2860.45 1556)">
   <path d="M41.2109 29.8828L104.688 29.8828C115.43 29.8828 120.752 24.4629 120.752 12.7441L120.752-35.791C120.752-46.2402 116.455-51.6602 107.715-52.5879L107.715-65.7715C107.715-90.625 90.2832-102.441 72.9492-102.441C55.6152-102.441 38.1836-90.625 38.1836-65.7715L38.1836-52.5879C29.4434-51.6602 25.1465-46.2402 25.1465-35.791L25.1465 12.7441C25.1465 24.4629 30.4688 29.8828 41.2109 29.8828ZM56.6895-66.6016C56.6895-77.832 63.623-84.5215 72.9492-84.5215C82.2754-84.5215 89.209-77.832 89.209-66.6016L89.209-52.7832L56.6895-52.7832ZM48.0957 12.207C45.9473 12.207 44.8242 11.084 44.8242 8.59375L44.8242-31.543C44.8242-34.0332 45.9473-35.1074 48.0957-35.1074L97.8516-35.1074C100.049-35.1074 101.074-34.0332 101.074-31.543L101.074 8.59375C101.074 11.084 100.049 12.207 97.8516 12.207Z"/>
  </g>
  <g id="Heavy-L" transform="matrix(1 0 0 1 2564.79 1556)">
   <path d="M40.7715 28.7109L103.027 28.7109C113.428 28.7109 118.555 23.5352 118.555 12.207L118.555-35.3516C118.555-45.4102 114.355-50.6348 105.957-51.5625L105.957-65.1367C105.957-89.502 89.1602-101.318 71.9238-101.318C54.6875-101.318 37.8418-89.502 37.8418-65.1367L37.8418-51.5625C29.4434-50.6348 25.293-45.4102 25.293-35.3516L25.293 12.207C25.293 23.5352 30.4199 28.7109 40.7715 28.7109ZM54.0039-66.0156C54.0039-78.418 61.7676-85.6934 71.9238-85.6934C82.0312-85.6934 89.7949-78.418 89.7949-66.0156L89.7949-51.709L54.0039-51.709ZM46.0938 13.2812C43.6035 13.2812 42.334 12.0605 42.334 9.17969L42.334-32.2266C42.334-35.1562 43.6035-36.2793 46.0938-36.2793L97.8027-36.2793C100.293-36.2793 101.465-35.1562 101.465-32.2266L101.465 9.17969C101.465 12.0605 100.293 13.2812 97.8027 13.2812Z"/>
  </g>
  <g id="Bold-L" transform="matrix(1 0 0 1 2269.23 1556)">
   <path d="M40.2832 27.3926L101.221 27.3926C111.133 27.3926 116.064 22.4609 116.064 11.6211L116.064-34.8633C116.064-44.5312 112.061-49.5117 104.004-50.3906L104.004-64.4531C104.004-88.2324 87.8418-100.098 70.752-100.098C53.6133-100.098 37.5-88.2324 37.5-64.4531L37.5-50.3906C29.4434-49.5117 25.4395-44.5312 25.4395-34.8633L25.4395 11.6211C25.4395 22.4609 30.3711 27.3926 40.2832 27.3926ZM51.0742-65.3809C51.0742-79.0527 59.7168-87.0117 70.752-87.0117C81.7871-87.0117 90.4297-79.0527 90.4297-65.3809L90.4297-50.5371L51.0742-50.5371ZM43.8477 14.502C41.0156 14.502 39.5996 13.1836 39.5996 9.81445L39.5996-33.0078C39.5996-36.4258 41.0156-37.6465 43.8477-37.6465L97.7051-37.6465C100.537-37.6465 101.904-36.4258 101.904-33.0078L101.904 9.81445C101.904 13.1836 100.537 14.502 97.7051 14.502Z"/>
  </g>
  <g id="Semibold-L" transform="matrix(1 0 0 1 1973.32 1556)">
   <path d="M39.9414 26.4648L99.9512 26.4648C109.57 26.4648 114.355 21.6797 114.355 11.1816L114.355-34.5215C114.355-43.9453 110.449-48.7305 102.637-49.6094L102.637-63.9648C102.637-87.4023 86.9629-99.2676 69.9219-99.2676C52.9297-99.2676 37.2559-87.4023 37.2559-63.9648L37.2559-49.6094C29.4434-48.7305 25.5371-43.9453 25.5371-34.5215L25.5371 11.1816C25.5371 21.6797 30.3223 26.4648 39.9414 26.4648ZM49.0234-64.8926C49.0234-79.541 58.3008-87.9395 69.9219-87.9395C81.5918-87.9395 90.8691-79.541 90.8691-64.8926L90.8691-49.707L49.0234-49.707ZM42.2852 15.332C39.209 15.332 37.6953 13.9648 37.6953 10.2539L37.6953-33.5449C37.6953-37.3047 39.209-38.5742 42.2852-38.5742L97.6562-38.5742C100.732-38.5742 102.197-37.3047 102.197-33.5449L102.197 10.2539C102.197 13.9648 100.732 15.332 97.6562 15.332Z"/>
  </g>
  <g id="Medium-L" transform="matrix(1 0 0 1 1677.22 1556)">
   <path d="M39.6973 25.7812L98.9746 25.7812C108.398 25.7812 113.037 21.1426 113.037 10.8887L113.037-34.2773C113.037-43.457 109.277-48.1445 101.611-48.9746L101.611-63.623C101.611-86.7676 86.2793-98.584 69.3359-98.584C52.3926-98.584 37.0605-86.7676 37.0605-63.623L37.0605-48.9746C29.3945-48.1445 25.6348-43.457 25.6348-34.2773L25.6348 10.8887C25.6348 21.1426 30.2734 25.7812 39.6973 25.7812ZM47.5098-64.5508C47.5098-79.8828 57.1777-88.623 69.3359-88.623C81.4453-88.623 91.1621-79.8828 91.1621-64.5508L91.1621-49.1211L47.5098-49.1211ZM41.1133 15.9668C37.8418 15.9668 36.2793 14.5508 36.2793 10.5957L36.2793-33.9844C36.2793-37.9395 37.8418-39.3066 41.1133-39.3066L97.6074-39.3066C100.879-39.3066 102.393-37.9395 102.393-33.9844L102.393 10.5957C102.393 14.5508 100.879 15.9668 97.6074 15.9668Z"/>
  </g>
  <g id="Regular-L" transform="matrix(1 0 0 1 1381.29 1556)">
   <path d="M39.3555 24.9023L97.7539 24.9023C106.836 24.9023 111.377 20.4102 111.377 10.498L111.377-33.9355C111.377-42.8711 107.666-47.4121 100.244-48.1934L100.244-63.1348C100.244-85.8887 85.4004-97.7539 68.5547-97.7539C51.6602-97.7539 36.8164-85.8887 36.8164-63.1348L36.8164-48.1934C29.3945-47.4121 25.7324-42.8711 25.7324-33.9355L25.7324 10.498C25.7324 20.4102 30.2246 24.9023 39.3555 24.9023ZM45.459-64.1113C45.459-80.3223 55.7617-89.5508 68.5547-89.5508C81.2988-89.5508 91.6016-80.3223 91.6016-64.1113L91.6016-48.291L45.459-48.291ZM39.5508 16.7969C36.084 16.7969 34.375 15.332 34.375 11.0352L34.375-34.5215C34.375-38.8184 36.084-40.2344 39.5508-40.2344L97.5586-40.2344C101.074-40.2344 102.686-38.8184 102.686-34.5215L102.686 11.0352C102.686 15.332 101.074 16.7969 97.5586 16.7969Z"/>
  </g>
  <g id="Light-L" transform="matrix(1 0 0 1 1084.8 1556)">
   <path d="M38.6719 24.707L97.998 24.707C106.641 24.707 110.938 20.5078 110.938 11.0352L110.938-34.7656C110.938-43.6035 107.178-47.8027 99.5605-48.3398L99.5605-62.8906C99.5605-84.3262 85.6934-96.7773 68.3105-96.7773C50.9277-96.7773 37.0605-84.3262 37.0605-62.8906L37.0605-48.3398C29.4922-47.8027 25.7324-43.6035 25.7324-34.7656L25.7324 11.0352C25.7324 20.5078 29.9805 24.707 38.6719 24.707ZM43.7012-63.4277C43.7012-80.127 54.248-90.4785 68.3105-90.4785C82.373-90.4785 92.9688-80.127 92.9688-63.4277L92.9688-48.3887L43.7012-48.3887ZM38.6719 18.5059C34.375 18.5059 32.373 16.8457 32.373 11.4746L32.373-35.1562C32.373-40.5273 34.375-42.1387 38.6719-42.1387L97.998-42.1387C102.295-42.1387 104.297-40.5273 104.297-35.1562L104.297 11.4746C104.297 16.8457 102.295 18.5059 97.998 18.5059Z"/>
  </g>
  <g id="Thin-L" transform="matrix(1 0 0 1 788.38 1556)">
   <path d="M37.7441 24.4629L98.3398 24.4629C106.396 24.4629 110.352 20.6543 110.352 11.8164L110.352-35.791C110.352-44.5312 106.494-48.3398 98.6816-48.4375L98.6816-62.5977C98.6816-82.2754 86.084-95.459 68.0176-95.459C49.9512-95.459 37.4023-82.2754 37.4023-62.5977L37.4023-48.4375C29.5898-48.3398 25.7324-44.5312 25.7324-35.791L25.7324 11.8164C25.7324 20.6543 29.6875 24.4629 37.7441 24.4629ZM41.3086-62.5488C41.3086-79.8828 52.1484-91.6992 68.0176-91.6992C83.8379-91.6992 94.7266-79.8828 94.7266-62.5488L94.7266-48.4375L41.3086-48.4375ZM37.4512 20.752C32.1289 20.752 29.6387 18.7988 29.6387 12.0117L29.6387-35.9863C29.6387-42.7734 32.1289-44.7266 37.4512-44.7266L98.584-44.7266C103.955-44.7266 106.396-42.7734 106.396-35.9863L106.396 12.0117C106.396 18.7988 103.955 20.752 98.584 20.752Z"/>
  </g>
  <g id="Ultralight-L" transform="matrix(1 0 0 1 491.84 1556)">
   <path d="M37.2559 24.3652L98.5352 24.3652C106.25 24.3652 110.01 20.752 110.01 12.207L110.01-36.3281C110.01-44.873 106.25-48.4863 98.5352-48.4863L98.1934-48.4863L98.1934-62.4512C98.1934-81.25 86.3281-94.7754 67.8711-94.7754C49.4629-94.7754 37.5488-81.25 37.5488-62.4512L37.5488-48.4863L37.2559-48.4863C29.4922-48.4863 25.7324-44.873 25.7324-36.3281L25.7324 12.207C25.7324 20.752 29.4922 24.3652 37.2559 24.3652ZM40.0879-62.0605C40.0879-79.7852 51.123-92.334 67.8711-92.334C84.5703-92.334 95.6543-79.7852 95.6543-62.0605L95.6543-48.4863L40.0879-48.4863ZM36.8652 21.9238C30.957 21.9238 28.2715 19.8242 28.2715 12.3047L28.2715-36.4258C28.2715-43.9453 30.957-46.0449 36.8652-46.0449L98.877-46.0449C104.785-46.0449 107.471-43.9453 107.471-36.4258L107.471 12.3047C107.471 19.8242 104.785 21.9238 98.877 21.9238Z"/>
  </g>
  <g id="Black-M" transform="matrix(1 0 0 1 2875.61 1126)">
   <path d="M32.1777 16.6992L83.4473 16.6992C92.041 16.6992 96.2891 12.4023 96.2891 2.97852L96.2891-36.6699C96.2891-45.2148 92.7246-49.5117 85.4492-50.1953L85.4492-59.6191C85.4492-78.8086 71.6797-88.2324 57.8125-88.2324C43.9453-88.2324 30.127-78.8086 30.127-59.6191L30.127-50.1953C22.8516-49.5117 19.2871-45.2148 19.2871-36.6699L19.2871 2.97852C19.2871 12.4023 23.5352 16.6992 32.1777 16.6992ZM46.4844-59.9609C46.4844-67.334 50.9766-72.3145 57.8125-72.3145C64.5996-72.3145 69.0918-67.334 69.0918-59.9609L69.0918-50.293L46.4844-50.293ZM39.502 0.976562C37.793 0.976562 36.9141 0.0976562 36.9141-1.85547L36.9141-31.7871C36.9141-33.7402 37.793-34.5215 39.502-34.5215L76.1719-34.5215C77.832-34.5215 78.6621-33.7402 78.6621-31.7871L78.6621-1.85547C78.6621 0.0976562 77.832 0.976562 76.1719 0.976562Z"/>
  </g>
  <g id="Heavy-M" transform="matrix(1 0 0 1 2579.98 1126)">
   <path d="M31.8359 15.4785L81.5918 15.4785C89.8926 15.4785 93.9941 11.3281 93.9941 2.24609L93.9941-35.9863C93.9941-44.1406 90.625-48.3398 83.7402-49.0234L83.7402-58.9844C83.7402-78.0273 70.3125-87.3047 56.7383-87.3047C43.1152-87.3047 29.7363-78.0273 29.7363-58.9844L29.7363-49.0234C22.8516-48.3398 19.4336-44.1406 19.4336-35.9863L19.4336 2.24609C19.4336 11.3281 23.5352 15.4785 31.8359 15.4785ZM44.0918-59.5215C44.0918-68.0176 49.3652-73.3887 56.7383-73.3887C64.1113-73.3887 69.3359-68.0176 69.3359-59.5215L69.3359-49.1211L44.0918-49.1211ZM37.5488 1.70898C35.6934 1.70898 34.7656 0.78125 34.7656-1.31836L34.7656-32.373C34.7656-34.4727 35.6934-35.3516 37.5488-35.3516L75.9766-35.3516C77.7832-35.3516 78.6621-34.4727 78.6621-32.373L78.6621-1.31836C78.6621 0.78125 77.7832 1.70898 75.9766 1.70898Z"/>
  </g>
  <g id="Bold-M" transform="matrix(1 0 0 1 2284.46 1126)">
   <path d="M31.4941 14.1113L79.4922 14.1113C87.5 14.1113 91.4062 10.1074 91.4062 1.41602L91.4062-35.2051C91.4062-42.9688 88.2324-46.9727 81.7871-47.7051L81.7871-58.3008C81.7871-77.0996 68.8477-86.2793 55.5176-86.2793C42.1875-86.2793 29.248-77.0996 29.248-58.3008L29.248-47.7051C22.8027-46.9727 19.6289-42.9688 19.6289-35.2051L19.6289 1.41602C19.6289 10.1074 23.5352 14.1113 31.4941 14.1113ZM41.3574-58.9844C41.3574-68.7988 47.5098-74.5605 55.5176-74.5605C63.4766-74.5605 69.6289-68.7988 69.6289-58.9844L69.6289-47.8027L41.3574-47.8027ZM35.3516 2.53906C33.3496 2.53906 32.373 1.61133 32.373-0.732422L32.373-33.0566C32.373-35.3516 33.3496-36.2793 35.3516-36.2793L75.7324-36.2793C77.7344-36.2793 78.6621-35.3516 78.6621-33.0566L78.6621-0.732422C78.6621 1.61133 77.7344 2.53906 75.7324 2.53906Z"/>
  </g>
  <g id="Semibold-M" transform="matrix(1 0 0 1 1988.58 1126)">
   <path d="M31.2988 13.1348L78.0762 13.1348C85.8398 13.1348 89.6484 9.27734 89.6484 0.878906L89.6484-34.7168C89.6484-42.1387 86.5723-46.0449 80.4199-46.7773L80.4199-57.8125C80.4199-76.4648 67.8223-85.5469 54.6875-85.5469C41.5527-85.5469 28.9551-76.4648 28.9551-57.8125L28.9551-46.7773C22.7539-46.0449 19.7266-42.1387 19.7266-34.7168L19.7266 0.878906C19.7266 9.27734 23.5352 13.1348 31.2988 13.1348ZM39.502-58.6426C39.502-69.3359 46.2891-75.3418 54.6875-75.3418C63.0859-75.3418 69.873-69.3359 69.873-58.6426L69.873-46.9238L39.502-46.9238ZM33.7891 3.125C31.7383 3.125 30.7129 2.14844 30.7129-0.341797L30.7129-33.4961C30.7129-35.9863 31.7383-36.8652 33.7891-36.8652L75.5859-36.8652C77.6855-36.8652 78.6621-35.9863 78.6621-33.4961L78.6621-0.341797C78.6621 2.14844 77.6855 3.125 75.5859 3.125Z"/>
  </g>
  <g id="Medium-M" transform="matrix(1 0 0 1 1692.5 1126)">
   <path d="M31.1035 12.4023L77.002 12.4023C84.5703 12.4023 88.2812 8.64258 88.2812 0.439453L88.2812-34.2773C88.2812-41.5527 85.3516-45.3125 79.3945-46.0938L79.3945-57.4707C79.3945-76.0254 67.041-84.9609 54.0527-84.9609C41.0645-84.9609 28.7109-76.0254 28.7109-57.4707L28.7109-46.0938C22.7539-45.3125 19.8242-41.5527 19.8242-34.2773L19.8242 0.439453C19.8242 8.64258 23.5352 12.4023 31.1035 12.4023ZM38.0859-58.3496C38.0859-69.7266 45.3125-75.9766 54.0527-75.9766C62.7441-75.9766 70.0195-69.7266 70.0195-58.3496L70.0195-46.2402L38.0859-46.2402ZM32.666 3.56445C30.5176 3.56445 29.4434 2.53906 29.4434 0L29.4434-33.8379C29.4434-36.4258 30.5176-37.3535 32.666-37.3535L75.4883-37.3535C77.6367-37.3535 78.6621-36.4258 78.6621-33.8379L78.6621 0C78.6621 2.53906 77.6367 3.56445 75.4883 3.56445Z"/>
  </g>
  <g id="Regular-M" transform="matrix(1 0 0 1 1396.62 1126)">
   <path d="M30.8594 11.4746L75.5859 11.4746C82.9102 11.4746 86.5234 7.8125 86.5234-0.146484L86.5234-33.7891C86.5234-40.7227 83.7402-44.3848 78.0762-45.166L78.0762-56.9824C78.0762-75.3906 66.0156-84.2773 53.2227-84.2773C40.4297-84.2773 28.3691-75.3906 28.3691-56.9824L28.3691-45.166C22.7051-44.3848 19.9219-40.7227 19.9219-33.7891L19.9219-0.146484C19.9219 7.8125 23.5352 11.4746 30.8594 11.4746ZM36.2305-58.0078C36.2305-70.2637 44.0918-76.7578 53.2227-76.7578C62.3535-76.7578 70.2148-70.2637 70.2148-58.0078L70.2148-45.3125L36.2305-45.3125ZM31.1523 4.15039C28.9062 4.15039 27.7832 3.125 27.7832 0.390625L27.7832-34.2773C27.7832-37.0117 28.9062-37.9883 31.1523-37.9883L75.3418-37.9883C77.5879-37.9883 78.6621-37.0117 78.6621-34.2773L78.6621 0.390625C78.6621 3.125 77.5879 4.15039 75.3418 4.15039Z"/>
  </g>
  <g id="Light-M" transform="matrix(1 0 0 1 1100.11 1126)">
   <path d="M30.2246 11.3281L75.8301 11.3281C82.7148 11.3281 86.1328 7.91016 86.1328 0.390625L86.1328-34.5215C86.1328-41.4062 83.252-44.7754 77.4414-45.3125L77.4414-56.7871C77.4414-73.9746 66.2598-83.3496 53.0273-83.3496C39.7949-83.3496 28.6133-73.9746 28.6133-56.7871L28.6133-45.3125C22.8027-44.7754 19.9219-41.4062 19.9219-34.5215L19.9219 0.390625C19.9219 7.91016 23.3398 11.3281 30.2246 11.3281ZM34.6191-57.373C34.6191-70.1172 42.6758-77.6367 53.0273-77.6367C63.3301-77.6367 71.4355-70.1172 71.4355-57.373L71.4355-45.3613L34.6191-45.3613ZM30.3711 5.66406C27.3926 5.66406 25.9766 4.44336 25.9766 0.78125L25.9766-34.8633C25.9766-38.5742 27.3926-39.7461 30.3711-39.7461L75.7324-39.7461C78.7109-39.7461 80.0781-38.5742 80.0781-34.8633L80.0781 0.78125C80.0781 4.44336 78.7109 5.66406 75.7324 5.66406Z"/>
  </g>
  <g id="Thin-M" transform="matrix(1 0 0 1 803.663 1126)">
   <path d="M29.3945 11.084L76.123 11.084C82.4707 11.084 85.5957 8.05664 85.5957 1.07422L85.5957-35.4492C85.5957-42.2363 82.666-45.2637 76.6602-45.459L76.6602-56.4941C76.6602-72.168 66.6016-82.1777 52.7832-82.1777C38.916-82.1777 28.9062-72.168 28.9062-56.4941L28.9062-45.459C22.8516-45.2637 19.9219-42.2363 19.9219-35.4492L19.9219 1.07422C19.9219 8.05664 23.0469 11.084 29.3945 11.084ZM32.5195-56.5918C32.5195-69.873 40.8691-78.7598 52.7832-78.7598C64.5996-78.7598 72.998-69.873 72.998-56.5918L72.998-45.459L32.5195-45.459ZM29.2969 7.66602C25.3418 7.66602 23.5352 6.20117 23.5352 1.26953L23.5352-35.6445C23.5352-40.5762 25.3418-42.041 29.2969-42.041L76.2695-42.041C80.1758-42.041 81.9824-40.5762 81.9824-35.6445L81.9824 1.26953C81.9824 6.20117 80.1758 7.66602 76.2695 7.66602Z"/>
  </g>
  <g id="Ultralight-M" transform="matrix(1 0 0 1 507.074 1126)">
   <path d="M29.0039 10.9863L76.2695 10.9863C82.373 10.9863 85.3516 8.10547 85.3516 1.41602L85.3516-35.9375C85.3516-42.627 82.373-45.5078 76.2695-45.5078L76.2207-45.5078L76.2207-56.3965C76.2207-71.1914 66.7969-81.5918 52.6367-81.5918C38.4766-81.5918 29.0527-71.1914 29.0527-56.3965L29.0527-45.5078L29.0039-45.5078C22.9004-45.5078 19.9219-42.627 19.9219-35.9375L19.9219 1.41602C19.9219 8.10547 22.9004 10.9863 29.0039 10.9863ZM31.4453-56.1523C31.4453-69.7754 39.8926-79.2969 52.6367-79.2969C65.2832-79.2969 73.8281-69.7754 73.8281-56.1523L73.8281-45.5078L31.4453-45.5078ZM28.7109 8.69141C24.3164 8.69141 22.3145 7.12891 22.3145 1.51367L22.3145-36.0352C22.3145-41.6504 24.3164-43.2129 28.7109-43.2129L76.5137-43.2129C80.957-43.2129 82.959-41.6504 82.959-36.0352L82.959 1.51367C82.959 7.12891 80.957 8.69141 76.5137 8.69141Z"/>
  </g>
  <g id="Black-S" transform="matrix(1 0 0 1 2888.19 696)">
   <path d="M25.1953 5.37109L65.2344 5.37109C71.9727 5.37109 75.293 2.00195 75.293-5.37109L75.293-36.2793C75.293-42.9688 72.5098-46.3379 66.8457-46.875L66.8457-54.2969C66.8457-69.3359 56.0547-76.709 45.2148-76.709C34.375-76.709 23.584-69.3359 23.584-54.2969L23.584-46.875C17.9199-46.3379 15.1367-42.9688 15.1367-36.2793L15.1367-5.37109C15.1367 2.00195 18.457 5.37109 25.1953 5.37109ZM36.2793-54.5898C36.2793-60.4492 39.8438-64.3555 45.2148-64.3555C50.5859-64.3555 54.1504-60.4492 54.1504-54.5898L54.1504-46.9238L36.2793-46.9238ZM30.8105-6.83594C29.4922-6.83594 28.8086-7.51953 28.8086-9.0332L28.8086-32.5684C28.8086-34.082 29.4922-34.7168 30.8105-34.7168L59.668-34.7168C60.9863-34.7168 61.6211-34.082 61.6211-32.5684L61.6211-9.0332C61.6211-7.51953 60.9863-6.83594 59.668-6.83594Z"/>
  </g>
  <g id="Heavy-S" transform="matrix(1 0 0 1 2592.28 696)">
   <path d="M25.0488 4.44336L63.7695 4.44336C70.3613 4.44336 73.584 1.17188 73.584-6.00586L73.584-35.6934C73.584-42.0898 70.9473-45.3613 65.5762-45.9473L65.5762-53.8574C65.5762-68.8477 54.9805-76.0742 44.4336-76.0742C33.8379-76.0742 23.2422-68.8477 23.2422-53.8574L23.2422-45.9473C17.8711-45.3613 15.2344-42.0898 15.2344-35.6934L15.2344-6.00586C15.2344 1.17188 18.5059 4.44336 25.0488 4.44336ZM34.6191-54.2969C34.6191-60.9863 38.7695-65.0879 44.4336-65.0879C50.0488-65.0879 54.1992-60.9863 54.1992-54.2969L54.1992-46.0449L34.6191-46.0449ZM29.3945-6.44531C28.0762-6.44531 27.3438-7.12891 27.3438-8.69141L27.3438-32.959C27.3438-34.5215 28.0762-35.1562 29.3945-35.1562L59.4727-35.1562C60.8398-35.1562 61.4746-34.5215 61.4746-32.959L61.4746-8.69141C61.4746-7.12891 60.8398-6.44531 59.4727-6.44531Z"/>
  </g>
  <g id="Bold-S" transform="matrix(1 0 0 1 2296.47 696)">
   <path d="M24.8535 3.41797L62.1582 3.41797C68.5059 3.41797 71.6309 0.244141 71.6309-6.68945L71.6309-35.0098C71.6309-41.1133 69.1895-44.2871 64.1602-44.9219L64.1602-53.3203C64.1602-68.3594 53.8086-75.3906 43.5059-75.3906C33.2031-75.3906 22.8516-68.3594 22.8516-53.3203L22.8516-44.9219C17.8711-44.2871 15.3809-41.1133 15.3809-35.0098L15.3809-6.68945C15.3809 0.244141 18.5059 3.41797 24.8535 3.41797ZM32.7148-54.0039C32.7148-61.6211 37.5488-65.8691 43.5059-65.8691C49.5117-65.8691 54.2969-61.6211 54.2969-54.0039L54.2969-45.0195L32.7148-45.0195ZM27.832-6.00586C26.4648-6.00586 25.7324-6.68945 25.7324-8.25195L25.7324-33.3984C25.7324-34.9609 26.4648-35.6445 27.832-35.6445L59.2773-35.6445C60.6445-35.6445 61.2793-34.9609 61.2793-33.3984L61.2793-8.25195C61.2793-6.68945 60.6445-6.00586 59.2773-6.00586Z"/>
  </g>
  <g id="Semibold-S" transform="matrix(1 0 0 1 2000.37 696)">
   <path d="M24.707 2.68555L61.084 2.68555C67.2363 2.68555 70.3125-0.439453 70.3125-7.12891L70.3125-34.5703C70.3125-40.4297 67.9688-43.5059 63.1836-44.1895L63.1836-52.9785C63.1836-67.9688 53.0273-74.9023 42.9199-74.9023C32.7637-74.9023 22.6074-67.9688 22.6074-52.9785L22.6074-44.1895C17.8223-43.5059 15.4785-40.4297 15.4785-34.5703L15.4785-7.12891C15.4785-0.439453 18.5547 2.68555 24.707 2.68555ZM31.4453-53.7598C31.4453-62.0117 36.7188-66.4062 42.9199-66.4062C49.0723-66.4062 54.3457-62.0117 54.3457-53.7598L54.3457-44.3359L31.4453-44.3359ZM26.709-5.66406C25.3418-5.66406 24.6094-6.39648 24.6094-8.00781L24.6094-33.6914C24.6094-35.3027 25.3418-35.9863 26.709-35.9863L59.1309-35.9863C60.498-35.9863 61.1816-35.3027 61.1816-33.6914L61.1816-8.00781C61.1816-6.39648 60.498-5.66406 59.1309-5.66406Z"/>
  </g>
  <g id="Medium-S" transform="matrix(1 0 0 1 1704.12 696)">
   <path d="M24.6582 2.14844L60.2051 2.14844C66.3086 2.14844 69.3359-0.927734 69.3359-7.51953L69.3359-34.2285C69.3359-39.8926 67.041-42.9688 62.4512-43.6523L62.4512-52.7344C62.4512-67.7246 52.3926-74.5605 42.4316-74.5605C32.4707-74.5605 22.4121-67.7246 22.4121-52.7344L22.4121-43.6523C17.8223-42.9688 15.5273-39.8926 15.5273-34.2285L15.5273-7.51953C15.5273-0.927734 18.5547 2.14844 24.6582 2.14844ZM30.4688-53.6133C30.4688-62.3535 36.084-66.8457 42.4316-66.8457C48.7793-66.8457 54.3945-62.3535 54.3945-53.6133L54.3945-43.7988L30.4688-43.7988ZM25.8789-5.41992C24.5117-5.41992 23.7793-6.15234 23.7793-7.76367L23.7793-33.9355C23.7793-35.5469 24.5117-36.2305 25.8789-36.2305L58.9844-36.2305C60.4004-36.2305 61.084-35.5469 61.084-33.9355L61.084-7.76367C61.084-6.15234 60.4004-5.41992 58.9844-5.41992Z"/>
  </g>
  <g id="Regular-S" transform="matrix(1 0 0 1 1408.02 696)">
   <path d="M24.5117 1.41602L59.1309 1.41602C65.0391 1.41602 68.0176-1.5625 68.0176-7.95898L68.0176-33.7402C68.0176-39.209 65.8203-42.1875 61.4746-42.9199L61.4746-52.3438C61.4746-67.3828 51.6113-74.0723 41.7969-74.0723C32.0312-74.0723 22.168-67.3828 22.168-52.3438L22.168-42.9199C17.7734-42.1875 15.625-39.209 15.625-33.7402L15.625-7.95898C15.625-1.5625 18.5547 1.41602 24.5117 1.41602ZM29.1992-53.3691C29.1992-62.7441 35.2539-67.3828 41.7969-67.3828C48.3887-67.3828 54.4434-62.7441 54.4434-53.3691L54.4434-43.1152L29.1992-43.1152ZM24.8047-5.12695C23.3887-5.12695 22.6562-5.85938 22.6562-7.51953L22.6562-34.2285C22.6562-35.8887 23.3887-36.5723 24.8047-36.5723L58.8379-36.5723C60.3027-36.5723 60.9863-35.8887 60.9863-34.2285L60.9863-7.51953C60.9863-5.85938 60.3027-5.12695 58.8379-5.12695Z"/>
  </g>
  <g id="Light-S" transform="matrix(1 0 0 1 1111.48 696)">
   <path d="M23.9746 1.26953L59.3262 1.26953C64.8926 1.26953 67.6758-1.46484 67.6758-7.51953L67.6758-34.375C67.6758-39.7949 65.4297-42.5781 60.9375-43.0664L60.9375-52.1973C60.9375-66.1133 51.8555-73.291 41.6504-73.291C31.4453-73.291 22.3633-66.1133 22.3633-52.1973L22.3633-43.0664C17.8711-42.5781 15.625-39.7949 15.625-34.375L15.625-7.51953C15.625-1.46484 18.3594 1.26953 23.9746 1.26953ZM27.7832-52.832C27.7832-62.5977 33.9844-68.1152 41.6504-68.1152C49.2676-68.1152 55.5176-62.5977 55.5176-52.832L55.5176-43.1641L27.7832-43.1641ZM24.1211-3.80859C22.0703-3.80859 21.0449-4.63867 21.0449-7.17773L21.0449-34.7168C21.0449-37.2559 22.0703-38.0859 24.1211-38.0859L59.1797-38.0859C61.2793-38.0859 62.207-37.2559 62.207-34.7168L62.207-7.17773C62.207-4.63867 61.2793-3.80859 59.1797-3.80859Z"/>
  </g>
  <g id="Thin-S" transform="matrix(1 0 0 1 815.016 696)">
   <path d="M23.2422 1.12305L59.5703 1.12305C64.6973 1.12305 67.1875-1.36719 67.1875-6.93359L67.1875-35.2051C67.1875-40.5273 64.8926-43.0176 60.2051-43.2129L60.2051-51.9531C60.2051-64.502 52.1484-72.2656 41.4062-72.2656C30.6641-72.2656 22.6074-64.502 22.6074-51.9531L22.6074-43.2129C17.9199-43.0176 15.625-40.5273 15.625-35.2051L15.625-6.93359C15.625-1.36719 18.1152 1.12305 23.2422 1.12305ZM25.8789-52.0996C25.8789-62.4512 32.373-69.0918 41.4062-69.0918C50.3906-69.0918 56.9336-62.4512 56.9336-52.0996L56.9336-43.2129L25.8789-43.2129ZM23.1445-2.00195C20.2637-2.00195 18.9453-3.07617 18.9453-6.73828L18.9453-35.4004C18.9453-39.0625 20.2637-40.1367 23.1445-40.1367L59.668-40.1367C62.5488-40.1367 63.8672-39.0625 63.8672-35.4004L63.8672-6.73828C63.8672-3.07617 62.5488-2.00195 59.668-2.00195Z"/>
  </g>
  <g id="Ultralight-S" transform="matrix(1 0 0 1 518.427 696)">
   <path d="M22.8516 0.976562L59.7168 0.976562C64.5996 0.976562 66.9434-1.26953 66.9434-6.5918L66.9434-35.6445C66.9434-40.918 64.5996-43.2129 59.8633-43.2617L59.8633-51.8555C59.8633-63.6719 52.2949-71.7285 41.3086-71.7285C30.2734-71.7285 22.7051-63.6719 22.7051-51.8555L22.7051-43.2617C18.0176-43.2617 15.625-40.9668 15.625-35.6445L15.625-6.5918C15.625-1.26953 18.0176 0.976562 22.8516 0.976562ZM24.9512-51.7578C24.9512-62.3047 31.543-69.6289 41.3086-69.6289C50.9766-69.6289 57.666-62.3047 57.666-51.7578L57.666-43.2617L24.9512-43.2617ZM22.6562-1.07422C19.3359-1.07422 17.8223-2.29492 17.8223-6.49414L17.8223-35.7422C17.8223-39.9902 19.3359-41.1621 22.6562-41.1621L59.9121-41.1621C63.2324-41.1621 64.7461-39.9902 64.7461-35.7422L64.7461-6.49414C64.7461-2.29492 63.2324-1.07422 59.9121-1.07422Z"/>
  </g>
 </g>
</svg>
