<?xml version="1.0" encoding="UTF-8"?>
<!--Generator: Apple Native CoreSVG 149-->
<!DOCTYPE svg
PUBLIC "-//W3C//DTD SVG 1.1//EN"
       "http://www.w3.org/Graphics/SVG/1.1/DTD/svg11.dtd">
<svg version="1.1" xmlns="http://www.w3.org/2000/svg" xmlns:xlink="http://www.w3.org/1999/xlink" width="3300" height="2200">
 <!--glyph: "uni1002AF.medium", point size: 100.000000, font version: "Version 16.0d18e1", template writer version: "8"-->
 <g id="Notes">
  <rect height="2200" id="artboard" style="fill:white;opacity:1" width="3300" x="0" y="0"/>
  <line id="" style="fill:none;stroke:black;opacity:1;stroke-width:0.5;" x1="263" x2="3036" y1="292" y2="292"/>
  <text style="stroke:none;fill:black;font-family:-apple-system,&quot;SF Pro Display&quot;,&quot;SF Pro Text&quot;,Helvetica,sans-serif;font-weight:bold;" transform="matrix(1 0 0 1 263 322)">Weight/Scale Variations</text>
  <text style="stroke:none;fill:black;font-family:-apple-system,&quot;SF Pro Display&quot;,&quot;SF Pro Text&quot;,Helvetica,sans-serif;text-anchor:middle;" transform="matrix(1 0 0 1 559.711 322)">Ultralight</text>
  <text style="stroke:none;fill:black;font-family:-apple-system,&quot;SF Pro Display&quot;,&quot;SF Pro Text&quot;,Helvetica,sans-serif;text-anchor:middle;" transform="matrix(1 0 0 1 856.422 322)">Thin</text>
  <text style="stroke:none;fill:black;font-family:-apple-system,&quot;SF Pro Display&quot;,&quot;SF Pro Text&quot;,Helvetica,sans-serif;text-anchor:middle;" transform="matrix(1 0 0 1 1153.13 322)">Light</text>
  <text style="stroke:none;fill:black;font-family:-apple-system,&quot;SF Pro Display&quot;,&quot;SF Pro Text&quot;,Helvetica,sans-serif;text-anchor:middle;" transform="matrix(1 0 0 1 1449.84 322)">Regular</text>
  <text style="stroke:none;fill:black;font-family:-apple-system,&quot;SF Pro Display&quot;,&quot;SF Pro Text&quot;,Helvetica,sans-serif;text-anchor:middle;" transform="matrix(1 0 0 1 1746.56 322)">Medium</text>
  <text style="stroke:none;fill:black;font-family:-apple-system,&quot;SF Pro Display&quot;,&quot;SF Pro Text&quot;,Helvetica,sans-serif;text-anchor:middle;" transform="matrix(1 0 0 1 2043.27 322)">Semibold</text>
  <text style="stroke:none;fill:black;font-family:-apple-system,&quot;SF Pro Display&quot;,&quot;SF Pro Text&quot;,Helvetica,sans-serif;text-anchor:middle;" transform="matrix(1 0 0 1 2339.98 322)">Bold</text>
  <text style="stroke:none;fill:black;font-family:-apple-system,&quot;SF Pro Display&quot;,&quot;SF Pro Text&quot;,Helvetica,sans-serif;text-anchor:middle;" transform="matrix(1 0 0 1 2636.69 322)">Heavy</text>
  <text style="stroke:none;fill:black;font-family:-apple-system,&quot;SF Pro Display&quot;,&quot;SF Pro Text&quot;,Helvetica,sans-serif;text-anchor:middle;" transform="matrix(1 0 0 1 2933.4 322)">Black</text>
  <line id="" style="fill:none;stroke:black;opacity:1;stroke-width:0.5;" x1="263" x2="3036" y1="1903" y2="1903"/>
  <g id="" transform="matrix(1 0 0 1 263 1933)">
   <path d="M9.24805 0.830078C13.5547 0.830078 17.1387-2.74414 17.1387-7.05078C17.1387-11.3574 13.5449-14.9316 9.23828-14.9316C4.94141-14.9316 1.36719-11.3574 1.36719-7.05078C1.36719-2.74414 4.95117 0.830078 9.24805 0.830078ZM9.24805-0.654297C5.70312-0.654297 2.87109-3.49609 2.87109-7.05078C2.87109-10.6055 5.69336-13.4473 9.23828-13.4473C12.793-13.4473 15.6348-10.6055 15.6445-7.05078C15.6543-3.49609 12.8027-0.654297 9.24805-0.654297ZM6.39648-6.31836L8.50586-6.31836L8.50586-4.19922C8.50586-3.75977 8.79883-3.45703 9.22852-3.45703C9.67773-3.45703 9.9707-3.75977 9.9707-4.19922L9.9707-6.31836L12.0996-6.31836C12.5391-6.31836 12.8418-6.61133 12.8418-7.04102C12.8418-7.48047 12.5391-7.7832 12.0996-7.7832L9.9707-7.7832L9.9707-9.89258C9.9707-10.3418 9.67773-10.6445 9.22852-10.6445C8.79883-10.6445 8.50586-10.3418 8.50586-9.89258L8.50586-7.7832L6.39648-7.7832C5.94727-7.7832 5.64453-7.48047 5.64453-7.04102C5.64453-6.61133 5.94727-6.31836 6.39648-6.31836Z"/>
  </g>
  <g id="" transform="matrix(1 0 0 1 281.506 1933)">
   <path d="M11.709 2.91016C17.1582 2.91016 21.6699-1.61133 21.6699-7.05078C21.6699-12.5 17.1484-17.0117 11.6992-17.0117C6.25977-17.0117 1.74805-12.5 1.74805-7.05078C1.74805-1.61133 6.26953 2.91016 11.709 2.91016ZM11.709 1.25C7.09961 1.25 3.41797-2.44141 3.41797-7.05078C3.41797-11.6602 7.08984-15.3516 11.6992-15.3516C16.3086-15.3516 20-11.6602 20.0098-7.05078C20.0195-2.44141 16.3184 1.25 11.709 1.25ZM7.98828-6.23047L10.8789-6.23047L10.8789-3.32031C10.8789-2.83203 11.2109-2.5 11.6895-2.5C12.1777-2.5 12.5195-2.83203 12.5195-3.32031L12.5195-6.23047L15.4297-6.23047C15.918-6.23047 16.25-6.5625 16.25-7.04102C16.25-7.5293 15.918-7.87109 15.4297-7.87109L12.5195-7.87109L12.5195-10.7617C12.5195-11.2695 12.1777-11.6016 11.6895-11.6016C11.2109-11.6016 10.8789-11.2598 10.8789-10.7617L10.8789-7.87109L7.98828-7.87109C7.48047-7.87109 7.14844-7.5293 7.14844-7.04102C7.14844-6.5625 7.49023-6.23047 7.98828-6.23047Z"/>
  </g>
  <g id="" transform="matrix(1 0 0 1 304.924 1933)">
   <path d="M14.9707 5.66406C21.9336 5.66406 27.6953-0.0976562 27.6953-7.05078C27.6953-14.0137 21.9238-19.7754 14.9609-19.7754C8.00781-19.7754 2.25586-14.0137 2.25586-7.05078C2.25586-0.0976562 8.01758 5.66406 14.9707 5.66406ZM14.9707 3.84766C8.93555 3.84766 4.08203-1.01562 4.08203-7.05078C4.08203-13.0957 8.92578-17.9492 14.9609-17.9492C21.0059-17.9492 25.8594-13.0957 25.8691-7.05078C25.8789-1.01562 21.0156 3.84766 14.9707 3.84766ZM10.0586-6.14258L14.0625-6.14258L14.0625-2.12891C14.0625-1.5918 14.4336-1.2207 14.9512-1.2207C15.4883-1.2207 15.8594-1.5918 15.8594-2.12891L15.8594-6.14258L19.8828-6.14258C20.4102-6.14258 20.791-6.51367 20.791-7.03125C20.791-7.56836 20.4199-7.94922 19.8828-7.94922L15.8594-7.94922L15.8594-11.9531C15.8594-12.5098 15.4883-12.8809 14.9512-12.8809C14.4336-12.8809 14.0625-12.5 14.0625-11.9531L14.0625-7.94922L10.0586-7.94922C9.50195-7.94922 9.13086-7.56836 9.13086-7.03125C9.13086-6.51367 9.51172-6.14258 10.0586-6.14258Z"/>
  </g>
  <text style="stroke:none;fill:black;font-family:-apple-system,&quot;SF Pro Display&quot;,&quot;SF Pro Text&quot;,Helvetica,sans-serif;font-weight:bold;" transform="matrix(1 0 0 1 263 1953)">Design Variations</text>
  <text style="stroke:none;fill:black;font-family:-apple-system,&quot;SF Pro Display&quot;,&quot;SF Pro Text&quot;,Helvetica,sans-serif;" transform="matrix(1 0 0 1 263 1971)">Symbols are supported in up to nine weights and three scales.</text>
  <text style="stroke:none;fill:black;font-family:-apple-system,&quot;SF Pro Display&quot;,&quot;SF Pro Text&quot;,Helvetica,sans-serif;" transform="matrix(1 0 0 1 263 1989)">For optimal layout with text and other symbols, vertically align</text>
  <text style="stroke:none;fill:black;font-family:-apple-system,&quot;SF Pro Display&quot;,&quot;SF Pro Text&quot;,Helvetica,sans-serif;" transform="matrix(1 0 0 1 263 2007)">symbols with the adjacent text.</text>
  <line id="" style="fill:none;stroke:#00AEEF;stroke-width:0.5;opacity:1.0;" x1="776" x2="776" y1="1919" y2="1933"/>
  <g id="" transform="matrix(1 0 0 1 776 1933)">
   <path d="M3.31055 0.126953C3.82812 0.126953 4.08203-0.0683594 4.26758-0.605469L5.52734-4.0625L11.2891-4.0625L12.5488-0.605469C12.7344-0.0683594 12.9883 0.126953 13.4961 0.126953C14.0137 0.126953 14.3457-0.185547 14.3457-0.673828C14.3457-0.839844 14.3164-0.986328 14.2383-1.20117L9.6582-13.3887C9.43359-13.9941 9.0332-14.2871 8.4082-14.2871C7.80273-14.2871 7.39258-13.9941 7.17773-13.3984L2.59766-1.19141C2.51953-0.976562 2.49023-0.830078 2.49023-0.664062C2.49023-0.175781 2.80273 0.126953 3.31055 0.126953ZM6.00586-5.53711L8.37891-12.1094L8.42773-12.1094L10.8008-5.53711Z"/>
  </g>
  <line id="" style="fill:none;stroke:#00AEEF;stroke-width:0.5;opacity:1.0;" x1="792.836" x2="792.836" y1="1919" y2="1933"/>
  <text style="stroke:none;fill:black;font-family:-apple-system,&quot;SF Pro Display&quot;,&quot;SF Pro Text&quot;,Helvetica,sans-serif;font-weight:bold;" transform="matrix(1 0 0 1 776 1953)">Margins</text>
  <text style="stroke:none;fill:black;font-family:-apple-system,&quot;SF Pro Display&quot;,&quot;SF Pro Text&quot;,Helvetica,sans-serif;" transform="matrix(1 0 0 1 776 1971)">Leading and trailing margins on the left and right side of each symbol</text>
  <text style="stroke:none;fill:black;font-family:-apple-system,&quot;SF Pro Display&quot;,&quot;SF Pro Text&quot;,Helvetica,sans-serif;" transform="matrix(1 0 0 1 776 1989)">can be adjusted by modifying the x-location of the margin guidelines.</text>
  <text style="stroke:none;fill:black;font-family:-apple-system,&quot;SF Pro Display&quot;,&quot;SF Pro Text&quot;,Helvetica,sans-serif;" transform="matrix(1 0 0 1 776 2007)">Modifications are automatically applied proportionally to all</text>
  <text style="stroke:none;fill:black;font-family:-apple-system,&quot;SF Pro Display&quot;,&quot;SF Pro Text&quot;,Helvetica,sans-serif;" transform="matrix(1 0 0 1 776 2025)">scales and weights.</text>
  <g id="" transform="matrix(1 0 0 1 1289 1933)">
   <path d="M2.8418 1.86523L4.54102 3.57422C5.40039 4.44336 6.38672 4.38477 7.31445 3.35938L17.4902-7.85156C17.7539-7.76367 18.0273-7.7832 18.3398-7.8418L19.4043-8.03711L20.0684-7.36328L20.0293-6.80664C19.9902-6.30859 20.1172-5.92773 20.6055-5.44922L21.3672-4.70703C21.8457-4.22852 22.4609-4.19922 22.9297-4.66797L25.8398-7.58789C26.3086-8.05664 26.2891-8.65234 25.8105-9.13086L25.0391-9.89258C24.5605-10.3711 24.1895-10.5273 23.7109-10.4883L23.1348-10.4395L22.4902-11.0742L22.7344-12.1973C22.8613-12.7637 22.7051-13.2031 22.1191-13.7891L19.9219-15.9766C16.582-19.2969 12.1484-19.2188 9.25781-16.3281C8.83789-15.918 8.80859-15.3418 9.04297-14.9512C9.27734-14.5898 9.73633-14.3555 10.3809-14.5215C11.8457-14.8633 13.3691-14.9219 14.7949-13.9844L14.209-12.5293C14.0137-12.0508 13.9844-11.6504 14.1113-11.2891L3.04688-0.898438C2.06055 0.0195312 1.98242 0.996094 2.8418 1.86523ZM10.752-15.957C13.1836-17.7344 16.4746-17.4316 18.7012-15.2051L21.1328-12.793C21.3672-12.5586 21.4062-12.373 21.3379-12.0312L21.0156-10.5469L22.5195-9.0625L23.5059-9.12109C23.7598-9.13086 23.8379-9.11133 24.0332-8.91602L24.6094-8.33984L22.168-5.89844L21.5918-6.47461C21.3965-6.66992 21.3672-6.74805 21.377-7.01172L21.4453-7.98828L19.9512-9.47266L18.4277-9.21875C18.1055-9.15039 17.959-9.17969 17.7148-9.41406L15.7129-11.416C15.459-11.6504 15.4297-11.8164 15.5859-12.1875L16.4648-14.2773C14.9023-15.7324 12.8711-16.3574 10.8398-15.7617C10.6836-15.7227 10.625-15.8496 10.752-15.957ZM5.27344 2.30469L4.10156 1.14258C3.63281 0.683594 3.74023 0.341797 4.14062-0.0195312L14.9512-10.1953L16.416-8.71094L6.42578 2.27539C6.07422 2.67578 5.74219 2.77344 5.27344 2.30469Z"/>
  </g>
  <text style="stroke:none;fill:black;font-family:-apple-system,&quot;SF Pro Display&quot;,&quot;SF Pro Text&quot;,Helvetica,sans-serif;font-weight:bold;" transform="matrix(1 0 0 1 1289 1953)">Exporting</text>
  <text style="stroke:none;fill:black;font-family:-apple-system,&quot;SF Pro Display&quot;,&quot;SF Pro Text&quot;,Helvetica,sans-serif;" transform="matrix(1 0 0 1 1289 1971)">Symbols should be outlined when exporting to ensure the</text>
  <text style="stroke:none;fill:black;font-family:-apple-system,&quot;SF Pro Display&quot;,&quot;SF Pro Text&quot;,Helvetica,sans-serif;" transform="matrix(1 0 0 1 1289 1989)">design is preserved when submitting to Xcode.</text>
  <text id="template-version" style="stroke:none;fill:black;font-family:-apple-system,&quot;SF Pro Display&quot;,&quot;SF Pro Text&quot;,Helvetica,sans-serif;text-anchor:end;" transform="matrix(1 0 0 1 3036 1933)">Template v.2.0</text>
  <text style="stroke:none;fill:black;font-family:-apple-system,&quot;SF Pro Display&quot;,&quot;SF Pro Text&quot;,Helvetica,sans-serif;text-anchor:end;" transform="matrix(1 0 0 1 3036 1951)">Requires Xcode 12 or greater</text>
  <text style="stroke:none;fill:black;font-family:-apple-system,&quot;SF Pro Display&quot;,&quot;SF Pro Text&quot;,Helvetica,sans-serif;text-anchor:end;" transform="matrix(1 0 0 1 3036 1969)">Generated from arrow.triangle.2.circlepath</text>
  <text style="stroke:none;fill:black;font-family:-apple-system,&quot;SF Pro Display&quot;,&quot;SF Pro Text&quot;,Helvetica,sans-serif;text-anchor:end;" transform="matrix(1 0 0 1 3036 1987)">Typeset at 100 points</text>
  <text style="stroke:none;fill:black;font-family:-apple-system,&quot;SF Pro Display&quot;,&quot;SF Pro Text&quot;,Helvetica,sans-serif;" transform="matrix(1 0 0 1 263 726)">Small</text>
  <text style="stroke:none;fill:black;font-family:-apple-system,&quot;SF Pro Display&quot;,&quot;SF Pro Text&quot;,Helvetica,sans-serif;" transform="matrix(1 0 0 1 263 1156)">Medium</text>
  <text style="stroke:none;fill:black;font-family:-apple-system,&quot;SF Pro Display&quot;,&quot;SF Pro Text&quot;,Helvetica,sans-serif;" transform="matrix(1 0 0 1 263 1586)">Large</text>
 </g>
 <g id="Guides">
  <g id="H-reference" style="fill:#27AAE1;stroke:none;" transform="matrix(1 0 0 1 339 696)">
   <path d="M0.976562 0L3.66211 0L12.9883-24.4629L45.752-24.4629L55.127 0L57.7637 0L30.6152-70.459L28.125-70.459ZM29.3457-67.1387L29.4434-67.1387L44.873-26.709L13.8672-26.709Z"/>
  </g>
  <line id="Baseline-S" style="fill:none;stroke:#27AAE1;opacity:1;stroke-width:0.5;" x1="263" x2="3036" y1="696" y2="696"/>
  <line id="Capline-S" style="fill:none;stroke:#27AAE1;opacity:1;stroke-width:0.5;" x1="263" x2="3036" y1="625.541" y2="625.541"/>
  <g id="H-reference" style="fill:#27AAE1;stroke:none;" transform="matrix(1 0 0 1 339 1126)">
   <path d="M0.976562 0L3.66211 0L12.9883-24.4629L45.752-24.4629L55.127 0L57.7637 0L30.6152-70.459L28.125-70.459ZM29.3457-67.1387L29.4434-67.1387L44.873-26.709L13.8672-26.709Z"/>
  </g>
  <line id="Baseline-M" style="fill:none;stroke:#27AAE1;opacity:1;stroke-width:0.5;" x1="263" x2="3036" y1="1126" y2="1126"/>
  <line id="Capline-M" style="fill:none;stroke:#27AAE1;opacity:1;stroke-width:0.5;" x1="263" x2="3036" y1="1055.54" y2="1055.54"/>
  <g id="H-reference" style="fill:#27AAE1;stroke:none;" transform="matrix(1 0 0 1 339 1556)">
   <path d="M0.976562 0L3.66211 0L12.9883-24.4629L45.752-24.4629L55.127 0L57.7637 0L30.6152-70.459L28.125-70.459ZM29.3457-67.1387L29.4434-67.1387L44.873-26.709L13.8672-26.709Z"/>
  </g>
  <line id="Baseline-L" style="fill:none;stroke:#27AAE1;opacity:1;stroke-width:0.5;" x1="263" x2="3036" y1="1556" y2="1556"/>
  <line id="Capline-L" style="fill:none;stroke:#27AAE1;opacity:1;stroke-width:0.5;" x1="263" x2="3036" y1="1485.54" y2="1485.54"/>
  <line id="left-margin" style="fill:none;stroke:#00AEEF;stroke-width:0.5;opacity:1.0;" x1="1381.44" x2="1381.44" y1="1030.79" y2="1150.12"/>
  <line id="right-margin" style="fill:none;stroke:#00AEEF;stroke-width:0.5;opacity:1.0;" x1="1518.25" x2="1518.25" y1="1030.79" y2="1150.12"/>
 </g>
 <g id="Symbols">
  <g id="Black-L" transform="matrix(1 0 0 1 2839.14 1556)">
   <path d="M171.24-45.7031L161.914-45.7031C157.227-77.2461 129.15-103.271 94.3848-103.271C77.9785-103.271 63.0371-97.0703 51.9531-87.6953C46.6797-83.4961 46.3867-77.3438 49.1699-73.3398C52.1973-68.9453 58.2031-67.1875 64.6973-72.0215C72.6562-78.6133 83.0566-82.8125 94.3848-82.8125C118.018-82.8125 136.67-66.1621 141.162-45.7031L131.299-45.7031C125.293-45.7031 123.389-40.4297 127.344-35.0098L145.557-10.2051C148.682-5.9082 153.809-6.00586 156.934-10.2051L175.195-35.0098C179.102-40.332 177.393-45.7031 171.24-45.7031ZM17.2852-24.707L26.8066-24.707C31.543 6.83594 59.6191 32.8613 94.3848 32.8613C110.791 32.8613 125.732 26.6602 136.768 17.2363C142.041 13.0371 142.334 6.88477 139.6 2.88086C136.523-1.51367 130.566-3.22266 124.072 1.5625C116.113 8.20312 105.713 12.4023 94.3848 12.4023C70.7031 12.4023 52.0996-4.24805 47.6074-24.707L57.2266-24.707C63.2324-24.707 65.0879-30.0293 61.1328-35.4004L42.9688-60.2051C39.8438-64.502 34.668-64.4043 31.5918-60.2051L13.3301-35.4004C9.42383-30.0781 11.1328-24.707 17.2852-24.707Z"/>
  </g>
  <g id="Heavy-L" transform="matrix(1 0 0 1 2544.01 1556)">
   <path d="M168.604-44.6289L159.326-44.6289C155.029-76.3184 127.1-102.197 92.7734-102.197C75.7324-102.197 60.1562-95.4102 48.9746-84.9609C44.4336-81.2012 44.2871-75.8789 46.9238-72.4121C49.7559-68.75 54.9316-67.5293 60.2539-71.6309C68.75-79.4922 80.2246-84.4727 92.7734-84.4727C117.529-84.4727 137.207-66.6992 141.309-44.6289L131.348-44.6289C125.83-44.6289 124.121-39.9414 127.686-35.1074L144.824-11.4258C147.656-7.56836 152.246-7.61719 155.029-11.4258L172.266-35.0586C175.781-39.8926 174.219-44.6289 168.604-44.6289ZM16.7969-25.7812L26.2207-25.7812C30.5176 5.85938 58.4473 31.7871 92.7734 31.7871C109.863 31.7871 125.391 24.9512 136.621 14.502C141.113 10.7422 141.26 5.37109 138.672 1.95312C135.84-1.75781 130.664-2.92969 125.293 1.2207C116.895 9.08203 105.371 14.0137 92.7734 14.0137C68.0176 14.0137 48.3398-3.71094 44.2383-25.7812L54.0039-25.7812C59.5703-25.7812 61.2305-30.4688 57.7148-35.3516L40.5273-58.9844C37.6953-62.8418 33.1543-62.793 30.3223-58.9844L13.1348-35.3516C9.57031-30.5176 11.1328-25.7812 16.7969-25.7812Z"/>
  </g>
  <g id="Bold-L" transform="matrix(1 0 0 1 2249.06 1556)">
   <path d="M165.625-43.4082L156.445-43.4082C152.539-75.2441 124.805-101.025 90.9668-101.025C73.1445-101.025 56.9824-93.5059 45.6055-81.8848C41.9434-78.6621 41.9434-74.1699 44.3848-71.4355C46.9727-68.5059 51.2207-67.8711 55.3223-71.2402C64.3066-80.4199 77.002-86.2793 90.9668-86.2793C116.943-86.2793 137.744-67.2852 141.504-43.4082L131.396-43.4082C126.416-43.4082 124.951-39.4043 128.027-35.1562L144.043-12.8418C146.533-9.42383 150.439-9.42383 152.93-12.8418L168.994-35.1074C172.07-39.3555 170.703-43.4082 165.625-43.4082ZM16.2598-27.002L25.5371-27.002C29.3945 4.78516 57.1777 30.6152 90.9668 30.6152C108.838 30.6152 125.049 23.0469 136.426 11.4746C140.039 8.20312 140.039 3.71094 137.598 0.927734C135.059-2.00195 130.762-2.58789 126.66 0.78125C117.725 10.0098 105.029 15.8691 90.9668 15.8691C65.0391 15.8691 44.1895-3.125 40.4785-27.002L50.4395-27.002C55.4199-27.002 56.8848-31.0059 53.8086-35.2539L37.793-57.5684C35.3027-61.0352 31.3965-60.9863 28.9062-57.5684L12.8418-35.3027C9.76562-31.0547 11.1816-27.002 16.2598-27.002Z"/>
  </g>
  <g id="Semibold-L" transform="matrix(1 0 0 1 1953.55 1556)">
   <path d="M163.574-42.5781L154.443-42.5781C150.83-74.4629 123.193-100.244 89.7461-100.244C71.3867-100.244 54.7852-92.2363 43.2617-79.7852C40.2344-76.9043 40.332-73.0469 42.627-70.752C45.0684-68.3105 48.6816-68.0664 51.9531-70.9961C61.2793-81.1035 74.8047-87.5 89.7461-87.5C116.553-87.5 138.135-67.7246 141.602-42.5781L131.445-42.5781C126.855-42.5781 125.488-39.0137 128.271-35.2051L143.506-13.8184C145.752-10.6934 149.219-10.6445 151.465-13.8184L166.748-35.1562C169.531-39.0137 168.213-42.5781 163.574-42.5781ZM15.8691-27.832L25.0488-27.832C28.6621 4.05273 56.2988 29.7852 89.7461 29.7852C108.154 29.7852 124.756 21.7773 136.279 9.32617C139.258 6.44531 139.16 2.53906 136.914 0.244141C134.473-2.19727 130.859-2.39258 127.588 0.537109C118.311 10.6934 104.785 17.0898 89.7461 17.0898C62.9395 17.0898 41.3574-2.68555 37.8906-27.832L47.9492-27.832C52.5879-27.832 53.9062-31.3965 51.1719-35.2051L35.8887-56.6406C33.6914-59.7656 30.2246-59.7656 27.9297-56.6406L12.6953-35.2539C9.91211-31.3965 11.1816-27.832 15.8691-27.832Z"/>
  </g>
  <g id="Medium-L" transform="matrix(1 0 0 1 1657.76 1556)">
   <path d="M162.012-41.9434L152.881-41.9434C149.561-73.9258 121.973-99.6094 88.8184-99.6094C70.0684-99.6094 53.0762-91.2598 41.5039-78.2227C38.916-75.5859 39.1113-72.168 41.3086-70.2148C43.6035-68.2129 46.7773-68.2617 49.3652-70.752C58.9844-81.5918 73.0957-88.4766 88.8184-88.4766C116.211-88.4766 138.428-68.0664 141.65-41.9434L131.494-41.9434C127.197-41.9434 125.928-38.7695 128.467-35.2051L143.115-14.502C145.166-11.6211 148.291-11.6211 150.391-14.502L165.039-35.2051C167.578-38.7207 166.357-41.9434 162.012-41.9434ZM15.5762-28.4668L24.707-28.4668C28.0762 3.51562 55.6641 29.1992 88.8184 29.1992C107.617 29.1992 124.561 20.8008 136.182 7.76367C138.721 5.12695 138.525 1.66016 136.328-0.292969C134.082-2.29492 130.908-2.19727 128.32 0.292969C118.75 11.1816 104.639 18.0664 88.8184 18.0664C61.4258 18.0664 39.209-2.34375 35.9863-28.4668L46.0938-28.4668C50.3906-28.4668 51.6602-31.6895 49.1211-35.2051L34.4727-55.9082C32.4219-58.7891 29.2969-58.7891 27.1973-55.9082L12.5488-35.2539C10.0098-31.6895 11.2305-28.4668 15.5762-28.4668Z"/>
  </g>
  <g id="Regular-L" transform="matrix(1 0 0 1 1362.25 1556)">
   <path d="M159.961-41.1133L150.928-41.1133C147.852-73.1934 120.41-98.7793 87.5977-98.7793C68.3105-98.7793 50.9277-89.9414 39.209-76.123C37.207-73.877 37.5-71.0449 39.5996-69.5312C41.6992-68.0176 44.2383-68.5059 45.9961-70.5078C55.957-82.2266 70.8984-89.6973 87.5977-89.6973C115.771-89.6973 138.818-68.5059 141.748-41.1133L131.543-41.1133C127.588-41.1133 126.514-38.3789 128.711-35.2539L142.578-15.4785C144.385-12.8906 147.07-12.8418 148.926-15.4785L162.793-35.2051C165.039-38.3789 163.965-41.1133 159.961-41.1133ZM15.2344-29.2969L24.2676-29.2969C27.2949 2.7832 54.7852 28.3691 87.5977 28.3691C106.934 28.3691 124.316 19.4824 136.035 5.66406C137.988 3.41797 137.695 0.537109 135.645-0.976562C133.545-2.49023 131.006-2.00195 129.248 0.0488281C119.287 11.8164 104.395 19.2871 87.5977 19.2871C59.375 19.2871 36.377-1.9043 33.4473-29.2969L43.6523-29.2969C47.6074-29.2969 48.6816-32.0312 46.4844-35.1562L32.6172-54.9316C30.8105-57.5195 28.125-57.5684 26.2695-54.9316L12.4023-35.2051C10.1074-32.0312 11.2305-29.2969 15.2344-29.2969Z"/>
  </g>
  <g id="Light-L" transform="matrix(1 0 0 1 1066.46 1556)">
   <path d="M158.789-39.9414L149.121-39.9414C146.68-72.1191 119.385-97.8516 86.6699-97.8516C67.2363-97.8516 49.8535-88.8184 38.2812-74.7559C36.8164-73.0469 37.0605-70.8984 38.623-69.7754C40.2344-68.6035 42.1875-68.9453 43.457-70.5078C53.7109-82.959 69.2383-90.918 86.6699-90.918C115.869-90.918 139.795-68.5547 142.188-39.9414L130.957-39.9414C127.734-39.9414 126.758-37.6953 128.613-35.0098L142.188-15.6738C143.75-13.4277 145.947-13.3789 147.559-15.6738L161.084-35.0098C163.037-37.6953 162.061-39.9414 158.789-39.9414ZM14.502-30.3711L24.1699-30.3711C26.6602 1.75781 53.9062 27.4902 86.6699 27.4902C106.104 27.4902 123.535 18.457 135.059 4.39453C136.475 2.68555 136.279 0.537109 134.717-0.634766C133.105-1.80664 131.152-1.41602 129.883 0.0976562C119.678 12.5977 104.15 20.6055 86.6699 20.6055C57.4219 20.6055 33.5449-1.80664 31.1035-30.3711L42.3828-30.3711C45.6055-30.3711 46.582-32.6172 44.6777-35.3027L31.1523-54.6875C29.5898-56.8848 27.3438-56.9336 25.7812-54.6875L12.207-35.3516C10.3027-32.6172 11.2793-30.3711 14.502-30.3711Z"/>
  </g>
  <g id="Thin-L" transform="matrix(1 0 0 1 770.997 1556)">
   <path d="M157.227-38.4277L146.777-38.4277C145.068-70.6543 118.066-96.582 85.4004-96.582C65.8203-96.582 48.3887-87.3047 37.0605-72.9004C36.3281-71.9727 36.4258-70.752 37.3535-70.0684C38.2324-69.3848 39.4043-69.5801 40.1367-70.5078C50.6836-83.9355 67.041-92.5781 85.4004-92.5781C116.016-92.5781 141.064-68.6035 142.773-38.4277L130.176-38.4277C127.93-38.4277 127.051-36.8164 128.564-34.7168L141.699-15.918C142.92-14.1602 144.482-14.1602 145.752-15.918L158.887-34.7168C160.352-36.8164 159.521-38.4277 157.227-38.4277ZM13.623-31.8359L24.0723-31.8359C25.7812 0.439453 52.7344 26.3184 85.4004 26.3184C104.98 26.3184 122.461 17.041 133.789 2.63672C134.521 1.75781 134.424 0.537109 133.496-0.146484C132.617-0.878906 131.445-0.634766 130.713 0.244141C120.166 13.6719 103.809 22.3145 85.4004 22.3145C54.834 22.3145 29.7852-1.66016 28.0762-31.8359L40.6738-31.8359C42.9199-31.8359 43.7988-33.4473 42.2852-35.5469L29.1504-54.3457C27.9297-56.0547 26.3184-56.1035 25.0977-54.3457L11.9629-35.5469C10.498-33.4473 11.3281-31.8359 13.623-31.8359Z"/>
  </g>
  <g id="Ultralight-L" transform="matrix(1 0 0 1 474.921 1556)">
   <path d="M156.445-37.6465L145.557-37.6465C144.238-69.9219 117.432-95.8984 84.7656-95.8984C65.1367-95.8984 47.6562-86.5234 36.4746-71.9727C36.084-71.4355 36.1328-70.7031 36.6699-70.2637C37.2559-69.8242 37.9883-69.9219 38.4277-70.5078C49.1211-84.4238 65.8691-93.4082 84.7656-93.4082C116.064-93.4082 141.748-68.6035 143.066-37.6465L129.785-37.6465C127.979-37.6465 127.246-36.3281 128.516-34.5703L141.406-16.0156C142.48-14.5508 143.75-14.5508 144.775-16.0156L157.715-34.5703C158.984-36.3281 158.203-37.6465 156.445-37.6465ZM13.1348-32.5684L24.0234-32.5684C25.3418-0.244141 52.1484 25.7324 84.7656 25.7324C104.443 25.7324 121.924 16.3574 133.105 1.80664C133.496 1.26953 133.447 0.537109 132.861 0.0488281C132.324-0.390625 131.543-0.244141 131.152 0.292969C120.459 14.209 103.662 23.2422 84.7656 23.2422C53.5156 23.2422 27.832-1.61133 26.5137-32.5684L39.7949-32.5684C41.5527-32.5684 42.334-33.8379 41.0645-35.6445L28.1738-54.1504C27.0996-55.6641 25.8301-55.6641 24.7559-54.1504L11.8652-35.6445C10.5957-33.8379 11.377-32.5684 13.1348-32.5684Z"/>
  </g>
  <g id="Black-M" transform="matrix(1 0 0 1 2858.74 1126)">
   <path d="M135.645-44.1895L128.076-44.1895C124.17-68.5059 102.344-88.8672 74.8047-88.8672C62.9395-88.8672 52.0996-84.8145 43.8477-78.8086C38.9648-75.2441 38.5254-69.8242 40.625-66.1133C43.0176-61.9629 48.4375-59.8633 54.6875-64.209C60.4004-68.1152 67.334-70.6055 74.8047-70.6055C92.1875-70.6055 105.713-58.5449 109.424-44.1895L101.367-44.1895C96.3867-44.1895 94.7754-39.502 98.2422-34.8633L113.525-14.2578C116.26-10.5957 120.752-10.7422 123.389-14.2578L138.77-34.8633C142.188-39.4531 140.723-44.1895 135.645-44.1895ZM13.6719-26.2207L21.5332-26.2207C25.3906-1.9043 47.2656 18.457 74.8047 18.457C86.6211 18.457 97.4609 14.4043 105.713 8.44727C110.596 4.83398 111.035-0.585938 108.936-4.29688C106.543-8.39844 101.123-10.5469 94.873-6.15234C89.1602-2.29492 82.2266 0.195312 74.8047 0.195312C57.373 0.195312 43.8477-11.8652 40.1855-26.2207L47.9492-26.2207C52.9297-26.2207 54.541-30.8594 51.0742-35.5469L35.791-56.1523C33.0566-59.7656 28.5645-59.668 25.9277-56.1523L10.5469-35.498C7.12891-30.957 8.59375-26.2207 13.6719-26.2207Z"/>
  </g>
  <g id="Heavy-M" transform="matrix(1 0 0 1 2563.52 1126)">
   <path d="M133.057-43.3105L125.684-43.3105C122.07-67.7246 100.342-87.9883 73.291-87.9883C60.7422-87.9883 49.2676-83.3008 40.7715-76.2207C36.6211-72.9492 36.3281-68.2129 38.4277-65.0391C40.6738-61.5723 45.3613-60.0586 50.5371-63.8184C56.6895-68.8477 64.6484-72.0703 73.291-72.0703C91.6504-72.0703 106.055-59.082 109.473-43.3105L101.562-43.3105C96.9727-43.3105 95.5078-39.1602 98.584-35.0098L112.842-15.5762C115.283-12.2559 119.336-12.3535 121.729-15.5762L136.035-34.9609C139.062-39.1113 137.744-43.3105 133.057-43.3105ZM13.3301-27.0996L20.8984-27.0996C24.5117-2.68555 46.2402 17.5781 73.291 17.5781C85.8398 17.5781 97.3145 12.8418 105.762 5.76172C109.912 2.53906 110.205-2.19727 108.154-5.37109C105.859-8.83789 101.172-10.3516 96.0449-6.5918C89.8926-1.5625 81.9336 1.66016 73.291 1.66016C54.9316 1.66016 40.5273-11.3281 37.0605-27.0996L44.7754-27.0996C49.4141-27.0996 50.8789-31.25 47.7539-35.4004L33.4961-54.834C31.0547-58.1543 27.0508-58.0566 24.6582-54.834L10.3516-35.4492C7.27539-31.2988 8.59375-27.0996 13.3301-27.0996Z"/>
  </g>
  <g id="Bold-M" transform="matrix(1 0 0 1 2268.44 1126)">
   <path d="M130.127-42.334L122.998-42.334C119.727-66.8945 98.0957-86.9629 71.582-86.9629C58.252-86.9629 46.0938-81.543 37.3535-73.2422C34.0332-70.459 33.9355-66.4551 35.9375-63.8672C38.0859-61.1328 41.9434-60.3027 45.8984-63.3789C52.5391-69.6777 61.6211-73.6816 71.582-73.6816C90.9668-73.6816 106.396-59.7168 109.521-42.334L101.807-42.334C97.6074-42.334 96.3379-38.7695 98.9746-35.1562L112.109-17.041C114.258-14.1113 117.676-14.1602 119.824-17.041L132.959-35.1074C135.596-38.7695 134.424-42.334 130.127-42.334ZM12.9395-28.125L20.166-28.125C23.4863-3.56445 45.0684 16.5039 71.582 16.5039C84.9609 16.5039 97.1191 11.084 105.859 2.83203C109.18 0 109.277-4.05273 107.275-6.5918C105.127-9.32617 101.27-10.1562 97.3145-7.08008C90.7227-0.732422 81.5918 3.22266 71.582 3.22266C52.1973 3.22266 36.8164-10.6934 33.6426-28.125L41.2598-28.125C45.459-28.125 46.7285-31.6406 44.043-35.3027L30.957-53.418C28.8086-56.3477 25.3906-56.2988 23.2422-53.418L10.1074-35.3027C7.42188-31.6895 8.64258-28.125 12.9395-28.125Z"/>
  </g>
  <g id="Semibold-M" transform="matrix(1 0 0 1 1972.88 1126)">
   <path d="M128.125-41.6504L121.143-41.6504C118.115-66.3086 96.582-86.2793 70.4102-86.2793C56.543-86.2793 43.8965-80.3711 35.0098-71.2402C32.2266-68.7012 32.2266-65.1855 34.2285-63.0859C36.2793-60.8398 39.5996-60.4492 42.6758-63.0859C49.6582-70.2637 59.5215-74.8047 70.4102-74.8047C90.5273-74.8047 106.641-60.1562 109.57-41.6504L101.953-41.6504C98.0469-41.6504 96.875-38.5254 99.2676-35.2051L111.621-18.0664C113.525-15.3809 116.553-15.3809 118.506-18.0664L130.811-35.2051C133.252-38.5254 132.129-41.6504 128.125-41.6504ZM12.6465-28.8086L19.7266-28.8086C22.7539-4.15039 44.2871 15.8203 70.4102 15.8203C84.375 15.8203 97.0215 9.91211 105.908 0.78125C108.643-1.80664 108.643-5.32227 106.689-7.42188C104.59-9.66797 101.318-10.0098 98.1934-7.37305C91.2598-0.195312 81.3965 4.3457 70.4102 4.3457C50.3418 4.3457 34.2285-10.2539 31.2988-28.8086L38.8184-28.8086C42.7734-28.8086 43.8965-31.9336 41.5039-35.2051L29.1992-52.3926C27.2461-55.0781 24.2188-55.0781 22.3145-52.3926L9.96094-35.2539C7.56836-31.9336 8.64258-28.8086 12.6465-28.8086Z"/>
  </g>
  <g id="Medium-M" transform="matrix(1 0 0 1 1677.02 1126)">
   <path d="M126.611-41.1133L119.775-41.1133C116.895-65.8691 95.4102-85.7422 69.5312-85.7422C55.2246-85.7422 42.2363-79.4922 33.252-69.7266C30.8594-67.3828 30.957-64.2578 32.9102-62.4512C34.9121-60.5957 37.793-60.5957 40.2344-62.8418C47.5098-70.7031 57.959-75.6348 69.5312-75.6348C90.1367-75.6348 106.787-60.5469 109.57-41.1133L102.1-41.1133C98.3398-41.1133 97.3145-38.3301 99.5117-35.3027L111.182-18.7988C112.988-16.3574 115.723-16.3086 117.48-18.7988L129.199-35.2539C131.396-38.3301 130.42-41.1133 126.611-41.1133ZM12.4512-29.3457L19.3359-29.3457C22.2168-4.58984 43.7012 15.2832 69.5312 15.2832C83.9355 15.2832 96.9238 8.98438 105.908-0.78125C108.252-3.125 108.154-6.25 106.201-8.05664C104.199-9.91211 101.367-9.91211 98.877-7.61719C91.6992 0.244141 81.25 5.17578 69.5312 5.17578C48.9746 5.17578 32.3242-9.91211 29.541-29.3457L36.9629-29.3457C40.6738-29.3457 41.748-32.1289 39.5508-35.1562L27.832-51.6602C26.0742-54.1016 23.3398-54.1504 21.582-51.6602L9.86328-35.2051C7.61719-32.1289 8.64258-29.3457 12.4512-29.3457Z"/>
  </g>
  <g id="Regular-M" transform="matrix(1 0 0 1 1381.44 1126)">
   <path d="M124.609-40.4297L117.92-40.4297C115.283-65.2832 93.8477-85.0586 68.4082-85.0586C53.5156-85.0586 40.0879-78.3203 30.9082-67.7246C29.0527-65.625 29.2969-63.0371 31.25-61.6699C33.1543-60.3027 35.4492-60.7422 37.0605-62.5488C44.6777-71.2402 55.9082-76.7578 68.4082-76.7578C89.6484-76.7578 106.982-60.9863 109.521-40.4297L102.246-40.4297C98.7793-40.4297 97.9004-38.0859 99.7559-35.4004L110.693-19.8242C112.256-17.5781 114.6-17.5293 116.211-19.8242L127.1-35.3516C129.053-38.0859 128.125-40.4297 124.609-40.4297ZM12.1582-30.0293L18.8965-30.0293C21.5332-5.17578 42.9199 14.5508 68.4082 14.5508C83.3008 14.5508 96.7773 7.76367 105.957-2.7832C107.764-4.88281 107.52-7.51953 105.615-8.88672C103.711-10.2539 101.367-9.76562 99.8047-7.95898C92.2363 0.78125 81.0059 6.25 68.4082 6.25C47.1191 6.25 29.7852-9.47266 27.2461-30.0293L34.5703-30.0293C38.0371-30.0293 38.916-32.4219 37.0605-35.0586L26.123-50.6348C24.5605-52.8809 22.2168-52.9297 20.6055-50.6348L9.66797-35.1074C7.76367-32.4219 8.64258-30.0293 12.1582-30.0293Z"/>
  </g>
  <g id="Light-M" transform="matrix(1 0 0 1 1085.58 1126)">
   <path d="M123.584-39.4043L116.357-39.4043C114.209-64.3066 92.9688-84.1797 67.5781-84.1797C52.5879-84.1797 39.1113-77.2949 30.0781-66.4551C28.7109-64.8926 28.9062-62.9395 30.3711-61.9141C31.8359-60.8398 33.5938-61.1816 34.8145-62.5488C42.627-71.875 54.3945-77.832 67.5781-77.832C89.7461-77.832 107.861-61.0352 109.961-39.4043L101.709-39.4043C98.9258-39.4043 98.0957-37.4512 99.707-35.2051L110.352-19.9707C111.67-18.0664 113.623-18.0664 114.941-19.9707L125.586-35.1562C127.246-37.4512 126.416-39.4043 123.584-39.4043ZM11.5723-31.0059L18.75-31.0059C20.9473-6.10352 42.1387 13.7695 67.5781 13.7695C82.5684 13.7695 96.0938 6.83594 105.078-3.95508C106.445-5.51758 106.25-7.51953 104.785-8.59375C103.32-9.61914 101.562-9.27734 100.342-7.86133C92.5781 1.51367 80.8105 7.4707 67.5781 7.4707C45.3613 7.4707 27.2461-9.375 25.1465-31.0059L33.3984-31.0059C36.2305-31.0059 37.0117-32.959 35.4492-35.2051L24.8047-50.4395C23.4375-52.2949 21.5332-52.3438 20.166-50.4395L9.52148-35.2539C7.91016-32.959 8.69141-31.0059 11.5723-31.0059Z"/>
  </g>
  <g id="Thin-M" transform="matrix(1 0 0 1 789.967 1126)">
   <path d="M122.168-38.0371L114.258-38.0371C112.744-62.9883 91.7969-83.0566 66.4551-83.0566C51.3184-83.0566 37.793-75.9277 29.0039-64.8438C28.2715-63.9648 28.3691-62.793 29.1992-62.1582C30.0781-61.5234 31.1523-61.7188 31.8359-62.5488C39.8926-72.7539 52.3926-79.2969 66.4551-79.2969C89.8926-79.2969 109.033-61.084 110.498-38.0371L101.025-38.0371C99.0723-38.0371 98.3887-36.6211 99.6094-34.9121L109.912-20.2148C110.938-18.75 112.305-18.75 113.33-20.2148L123.584-34.8633C124.854-36.6211 124.17-38.0371 122.168-38.0371ZM10.7422-32.2754L18.6523-32.2754C20.166-7.32422 41.1133 12.7441 66.4551 12.7441C81.5918 12.7441 95.1172 5.56641 103.955-5.51758C104.639-6.39648 104.541-7.51953 103.711-8.1543C102.881-8.78906 101.807-8.59375 101.123-7.76367C93.0176 2.44141 80.5176 8.98438 66.4551 8.98438C43.0176 8.98438 23.877-9.22852 22.4121-32.2754L31.8848-32.2754C33.8379-32.2754 34.5215-33.6914 33.3008-35.4004L22.998-50.0977C21.9727-51.5625 20.6055-51.5625 19.5801-50.0977L9.32617-35.4492C8.05664-33.6914 8.74023-32.2754 10.7422-32.2754Z"/>
  </g>
  <g id="Ultralight-M" transform="matrix(1 0 0 1 493.818 1126)">
   <path d="M121.484-37.3047L113.135-37.3047C112.012-62.3535 91.1621-82.4707 65.8691-82.4707C50.6836-82.4707 37.1582-75.1953 28.418-63.9648C28.0273-63.4766 28.0762-62.7441 28.6133-62.3047C29.1504-61.9141 29.8828-62.0117 30.2734-62.5488C38.5254-73.1934 51.3672-80.0781 65.8691-80.0781C89.9414-80.0781 109.619-61.084 110.791-37.3047L100.684-37.3047C99.1699-37.3047 98.5352-36.2305 99.5605-34.7656L109.668-20.3125C110.547-19.0918 111.621-19.0918 112.5-20.3125L122.559-34.7656C123.584-36.2305 122.998-37.3047 121.484-37.3047ZM10.3027-32.959L18.6035-32.959C19.7754-7.91016 40.5762 12.207 65.8691 12.207C81.1035 12.207 94.6289 4.93164 103.32-6.29883C103.76-6.83594 103.711-7.51953 103.174-7.95898C102.637-8.34961 101.904-8.25195 101.465-7.71484C93.2617 2.92969 80.3711 9.81445 65.8691 9.81445C41.8457 9.81445 22.168-9.17969 20.9961-32.959L31.1035-32.959C32.6172-32.959 33.252-34.0332 32.1777-35.498L22.1191-49.9512C21.2402-51.1719 20.166-51.1719 19.2871-49.9512L9.22852-35.498C8.1543-34.0332 8.78906-32.959 10.3027-32.959Z"/>
  </g>
  <g id="Black-S" transform="matrix(1 0 0 1 2874.98 696)">
   <path d="M106.104-42.1875L100.195-42.1875C97.168-61.2793 80.0293-77.1973 58.4961-77.1973C49.1699-77.1973 40.625-73.9746 34.1309-69.1895C30.3711-66.4062 30.0293-62.207 31.6895-59.3262C33.5449-56.1523 37.7441-54.541 42.5781-57.9102C47.0703-61.0352 52.5879-63.0371 58.4961-63.0371C72.2168-63.0371 82.8613-53.5156 85.7422-42.1875L79.4434-42.1875C75.5859-42.1875 74.3164-38.5742 77.002-34.9609L88.916-18.8965C91.0156-16.0645 94.5312-16.1621 96.582-18.8965L108.545-34.9609C111.182-38.5254 110.059-42.1875 106.104-42.1875ZM10.6934-28.2227L16.8457-28.2227C19.873-9.13086 36.9629 6.78711 58.4961 6.78711C67.8223 6.78711 76.3672 3.56445 82.8613-1.2207C86.6211-4.00391 86.9629-8.20312 85.3027-11.084C83.4473-14.2578 79.248-15.8691 74.4141-12.5C69.9219-9.375 64.4043-7.37305 58.4961-7.37305C44.8242-7.37305 34.1797-16.8945 31.2988-28.2227L37.3535-28.2227C41.2109-28.2227 42.4805-31.8359 39.7949-35.4492L27.8809-51.5137C25.7812-54.3457 22.2656-54.248 20.2148-51.5137L8.25195-35.4492C5.61523-31.8848 6.73828-28.2227 10.6934-28.2227Z"/>
  </g>
  <g id="Heavy-S" transform="matrix(1 0 0 1 2579.32 696)">
   <path d="M104.248-41.6504L98.5352-41.6504C95.6543-60.791 78.6133-76.6113 57.4707-76.6113C47.6074-76.6113 38.5742-72.9004 31.8848-67.334C28.6133-64.7461 28.418-60.9863 30.0781-58.4961C31.9336-55.8105 35.6445-54.6387 39.6484-57.6172C44.4824-61.5234 50.6836-64.0137 57.4707-64.0137C71.7773-64.0137 83.0078-53.9551 85.7422-41.6504L79.6875-41.6504C76.0254-41.6504 74.8535-38.3789 77.2949-35.0586L88.4766-19.873C90.3809-17.2852 93.5547-17.334 95.4102-19.873L106.641-35.0586C109.033-38.3301 108.008-41.6504 104.248-41.6504ZM10.498-28.8086L16.3574-28.8086C19.2383-9.66797 36.2793 6.15234 57.4707 6.15234C67.334 6.15234 76.3184 2.49023 83.0078-3.125C86.2793-5.66406 86.4746-9.47266 84.8145-11.9629C83.0078-14.6484 79.2969-15.7715 75.2441-12.8418C70.459-8.88672 64.209-6.39648 57.4707-6.39648C43.1641-6.39648 31.8848-16.5039 29.1504-28.8086L35.0586-28.8086C38.7207-28.8086 39.8926-32.0312 37.4512-35.3516L26.3184-50.5371C24.3652-53.1738 21.1914-53.0762 19.3359-50.5371L8.1543-35.3516C5.71289-32.0801 6.78711-28.8086 10.498-28.8086Z"/>
  </g>
  <g id="Bold-S" transform="matrix(1 0 0 1 2283.75 696)">
   <path d="M102.148-41.0156L96.6797-41.0156C93.9941-60.2539 77.002-75.9277 56.25-75.9277C45.8008-75.9277 36.2793-71.7285 29.3945-65.2344C26.6602-62.8906 26.6113-59.6191 28.3203-57.5684C30.127-55.3711 33.252-54.7852 36.377-57.2754C41.5527-62.1094 48.584-65.1367 56.25-65.1367C71.2402-65.1367 83.1543-54.4434 85.6934-41.0156L79.9316-41.0156C76.4648-41.0156 75.4883-38.1836 77.6367-35.2051L87.9395-20.9961C89.6484-18.6035 92.4316-18.6523 94.1406-20.9961L104.443-35.2051C106.592-38.1348 105.664-41.0156 102.148-41.0156ZM10.3027-29.4434L15.8691-29.4434C18.5059-10.2051 35.498 5.46875 56.25 5.46875C66.748 5.46875 76.3184 1.2207 83.1543-5.22461C85.8887-7.56836 85.9375-10.8887 84.2285-12.9395C82.4707-15.1367 79.2969-15.7227 76.1719-13.1836C71.0449-8.34961 64.0137-5.32227 56.25-5.32227C41.3086-5.32227 29.3457-16.0156 26.8066-29.4434L32.5195-29.4434C35.9375-29.4434 36.9629-32.2754 34.8145-35.2539L24.5117-49.4629C22.8027-51.8555 20.0195-51.8066 18.3105-49.4629L7.95898-35.2539C5.81055-32.3242 6.78711-29.4434 10.3027-29.4434Z"/>
  </g>
  <g id="Semibold-S" transform="matrix(1 0 0 1 1987.85 696)">
   <path d="M100.684-40.5762L95.4102-40.5762C92.8711-59.8633 75.9277-75.4883 55.4688-75.4883C44.5801-75.4883 34.668-70.8984 27.6367-63.8184C25.293-61.6211 25.3418-58.6914 27.0996-56.9336C28.8574-55.127 31.5918-54.834 34.1309-57.0312C39.5508-62.4512 47.1191-65.8691 55.4688-65.8691C70.8984-65.8691 83.252-54.7852 85.6934-40.5762L80.0781-40.5762C76.8066-40.5762 75.8789-37.9883 77.832-35.3027L87.5488-21.7285C89.1113-19.5312 91.6504-19.5312 93.2129-21.7285L102.979-35.2539C104.932-37.9883 104.053-40.5762 100.684-40.5762ZM10.1562-29.8828L15.4785-29.8828C18.0664-10.5957 34.9609 4.98047 55.4688 4.98047C66.3574 4.98047 76.2695 0.390625 83.252-6.68945C85.5957-8.88672 85.5469-11.8164 83.8379-13.5742C82.0801-15.4297 79.3457-15.625 76.8066-13.4766C71.4355-8.00781 63.8672-4.58984 55.4688-4.58984C40.0391-4.58984 27.6367-15.6738 25.1953-29.8828L30.7617-29.8828C34.0332-29.8828 34.9609-32.4707 33.0078-35.1562L23.291-48.7305C21.7285-50.9277 19.1895-50.9277 17.627-48.7305L7.86133-35.2051C5.9082-32.4707 6.78711-29.8828 10.1562-29.8828Z"/>
  </g>
  <g id="Medium-S" transform="matrix(1 0 0 1 1691.75 696)">
   <path d="M99.6094-40.2344L94.4336-40.2344C91.9922-59.6191 75.0977-75.1465 54.834-75.1465C43.6523-75.1465 33.4473-70.2637 26.3672-62.6953C24.2676-60.6445 24.4141-58.0078 26.123-56.4941C27.8809-54.8828 30.3223-54.9316 32.4219-56.8848C37.9883-62.7441 45.9961-66.4551 54.834-66.4551C70.6055-66.4551 83.3496-55.0293 85.6445-40.2344L80.2246-40.2344C77.0508-40.2344 76.1719-37.8906 77.9785-35.3516L87.2559-22.3145C88.7695-20.2637 91.0645-20.2148 92.5293-22.3145L101.855-35.3516C103.662-37.8906 102.832-40.2344 99.6094-40.2344ZM10.0098-30.2246L15.2344-30.2246C17.6758-10.8887 34.5703 4.63867 54.834 4.63867C66.0645 4.63867 76.2207-0.244141 83.3496-7.8125C85.4004-9.86328 85.2539-12.5488 83.5449-14.1113C81.7871-15.6738 79.3457-15.625 77.2949-13.6719C71.7285-7.71484 63.7207-4.00391 54.834-4.00391C39.0625-4.00391 26.3184-15.4297 24.0234-30.2246L29.3945-30.2246C32.5684-30.2246 33.4473-32.5684 31.6406-35.1074L22.3633-48.1445C20.8984-50.2441 18.6035-50.2441 17.0898-48.1445L7.8125-35.1562C5.95703-32.6172 6.78711-30.2246 10.0098-30.2246Z"/>
  </g>
  <g id="Regular-S" transform="matrix(1 0 0 1 1395.82 696)">
   <path d="M98.1934-39.8438L93.1641-39.8438C90.8691-59.2285 73.9746-74.6582 54.0039-74.6582C42.4316-74.6582 31.8848-69.4824 24.6094-61.2793C22.9492-59.4238 23.1934-57.0801 24.9023-55.8594C26.6602-54.6387 28.7109-54.9805 30.1758-56.6406C36.0352-63.1348 44.5312-67.2363 54.0039-67.2363C70.2148-67.2363 83.4473-55.3711 85.6445-39.8438L80.3711-39.8438C77.3438-39.8438 76.6113-37.7441 78.2227-35.4492L86.9141-23.0957C88.2324-21.1914 90.2832-21.1426 91.6504-23.0957L100.342-35.4004C102.002-37.7441 101.27-39.8438 98.1934-39.8438ZM9.86328-30.6641L14.8926-30.6641C17.1875-11.2305 34.0332 4.15039 54.0039 4.15039C65.6738 4.15039 76.2207-1.07422 83.4473-9.27734C85.1074-11.1328 84.8633-13.5254 83.1543-14.7461C81.4453-15.9668 79.3945-15.5273 77.9297-13.916C72.1191-7.37305 63.5742-3.27148 54.0039-3.27148C37.793-3.27148 24.6094-15.0879 22.4121-30.6641L27.6367-30.6641C30.6641-30.6641 31.4453-32.7637 29.834-35.0098L21.1426-47.4121C19.8242-49.3164 17.7734-49.3652 16.4062-47.4121L7.71484-35.0586C6.05469-32.7637 6.78711-30.6641 9.86328-30.6641Z"/>
  </g>
  <g id="Light-S" transform="matrix(1 0 0 1 1099.86 696)">
   <path d="M97.2656-38.916L91.7969-38.916C89.8926-58.3984 73.1934-73.9258 53.2715-73.9258C41.6016-73.9258 31.0059-68.5547 23.9258-60.2051C22.6562-58.7402 22.8027-56.9824 24.1699-56.0547C25.4883-55.0781 27.0508-55.3711 28.1738-56.6406C34.1797-63.7207 43.2129-68.2129 53.2715-68.2129C70.3125-68.2129 84.2285-55.4199 86.0352-38.916L79.9316-38.916C77.4902-38.916 76.8066-37.207 78.1738-35.2539L86.6211-23.2422C87.7441-21.6309 89.4043-21.582 90.5762-23.2422L99.0234-35.2539C100.391-37.207 99.7559-38.916 97.2656-38.916ZM9.32617-31.543L14.7949-31.543C16.6504-12.0605 33.3496 3.4668 53.2715 3.4668C64.9902 3.4668 75.5859-1.9043 82.7148-10.3027C83.9355-11.7188 83.7402-13.5254 82.4707-14.4531C81.1035-15.4297 79.541-15.0879 78.418-13.8184C72.4121-6.73828 63.4277-2.24609 53.2715-2.24609C36.2305-2.24609 22.3633-14.9902 20.5566-31.543L26.6602-31.543C29.1016-31.543 29.7852-33.252 28.418-35.1562L19.9707-47.2168C18.8477-48.8281 17.1387-48.877 16.0156-47.2168L7.56836-35.2051C6.15234-33.252 6.83594-31.543 9.32617-31.543Z"/>
  </g>
  <g id="Thin-S" transform="matrix(1 0 0 1 804.127 696)">
   <path d="M95.9961-37.6953L89.9414-37.6953C88.623-57.2266 72.168-72.9004 52.2949-72.9004C40.4785-72.9004 29.8828-67.3828 22.9492-58.7402C22.2656-57.9102 22.3633-56.8848 23.1445-56.2988C23.9258-55.7129 24.9023-55.8594 25.5371-56.6406C31.7871-64.4531 41.4551-69.4824 52.2949-69.4824C70.4102-69.4824 85.2539-55.4688 86.5234-37.6953L79.2969-37.6953C77.6367-37.6953 77.0508-36.4746 78.0762-35.0098L86.2305-23.3887C87.0605-22.168 88.2324-22.168 89.1113-23.3887L97.2168-35.0098C98.291-36.4746 97.7051-37.6953 95.9961-37.6953ZM8.59375-32.666L14.6484-32.666C15.9668-13.1348 32.4219 2.53906 52.2949 2.53906C64.1602 2.53906 74.707-3.02734 81.6895-11.6211C82.373-12.4512 82.2754-13.5254 81.4941-14.1113C80.7129-14.6973 79.7363-14.502 79.1016-13.7207C72.8027-5.9082 63.1836-0.878906 52.2949-0.878906C34.1797-0.878906 19.3848-14.8926 18.0664-32.666L25.293-32.666C27.002-32.666 27.5391-33.8867 26.5137-35.3516L18.4082-46.9727C17.5293-48.1934 16.3574-48.1934 15.4785-46.9727L7.37305-35.3516C6.29883-33.8867 6.88477-32.666 8.59375-32.666Z"/>
  </g>
  <g id="Ultralight-S" transform="matrix(1 0 0 1 507.904 696)">
   <path d="M95.3613-37.0605L88.9648-37.0605C87.9883-56.6406 71.6309-72.3633 51.8066-72.3633C39.8926-72.3633 29.2969-66.748 22.4609-58.0078C22.0215-57.4707 22.1191-56.7871 22.6074-56.3965C23.0957-56.0547 23.7793-56.1523 24.1699-56.6406C30.5664-64.8438 40.5762-70.166 51.8066-70.166C70.459-70.166 85.7422-55.4688 86.7676-37.0605L79.0039-37.0605C77.6855-37.0605 77.1973-36.1328 78.0762-34.9121L85.9863-23.5352C86.7188-22.5098 87.6465-22.5098 88.3789-23.5352L96.3379-34.9121C97.2168-36.1328 96.6797-37.0605 95.3613-37.0605ZM8.20312-33.252L14.5996-33.252C15.625-13.6719 31.9824 2.05078 51.8066 2.05078C63.7207 2.05078 74.2676-3.56445 81.1523-12.3535C81.543-12.8418 81.4941-13.5254 81.0059-13.916C80.4688-14.3066 79.834-14.1602 79.4434-13.6719C72.998-5.46875 63.0371-0.146484 51.8066-0.146484C33.1543-0.146484 17.8223-14.8438 16.8457-33.252L24.6094-33.252C25.9277-33.252 26.416-34.1797 25.5371-35.4492L17.5781-46.8262C16.8945-47.8516 15.918-47.8516 15.2344-46.8262L7.27539-35.4492C6.39648-34.1797 6.88477-33.252 8.20312-33.252Z"/>
  </g>
 </g>
</svg>
