<?xml version="1.0" encoding="UTF-8"?>
<!--Generator: Apple Native CoreSVG 149-->
<!DOCTYPE svg
PUBLIC "-//W3C//DTD SVG 1.1//EN"
       "http://www.w3.org/Graphics/SVG/1.1/DTD/svg11.dtd">
<svg version="1.1" xmlns="http://www.w3.org/2000/svg" xmlns:xlink="http://www.w3.org/1999/xlink" width="3300" height="2200">
 <!--glyph: "uni100175.medium", point size: 100.000000, font version: "Version 16.0d18e1", template writer version: "8"-->
 <g id="Notes">
  <rect height="2200" id="artboard" style="fill:white;opacity:1" width="3300" x="0" y="0"/>
  <line id="" style="fill:none;stroke:black;opacity:1;stroke-width:0.5;" x1="263" x2="3036" y1="292" y2="292"/>
  <text style="stroke:none;fill:black;font-family:-apple-system,&quot;SF Pro Display&quot;,&quot;SF Pro Text&quot;,Helvetica,sans-serif;font-weight:bold;" transform="matrix(1 0 0 1 263 322)">Weight/Scale Variations</text>
  <text style="stroke:none;fill:black;font-family:-apple-system,&quot;SF Pro Display&quot;,&quot;SF Pro Text&quot;,Helvetica,sans-serif;text-anchor:middle;" transform="matrix(1 0 0 1 559.711 322)">Ultralight</text>
  <text style="stroke:none;fill:black;font-family:-apple-system,&quot;SF Pro Display&quot;,&quot;SF Pro Text&quot;,Helvetica,sans-serif;text-anchor:middle;" transform="matrix(1 0 0 1 856.422 322)">Thin</text>
  <text style="stroke:none;fill:black;font-family:-apple-system,&quot;SF Pro Display&quot;,&quot;SF Pro Text&quot;,Helvetica,sans-serif;text-anchor:middle;" transform="matrix(1 0 0 1 1153.13 322)">Light</text>
  <text style="stroke:none;fill:black;font-family:-apple-system,&quot;SF Pro Display&quot;,&quot;SF Pro Text&quot;,Helvetica,sans-serif;text-anchor:middle;" transform="matrix(1 0 0 1 1449.84 322)">Regular</text>
  <text style="stroke:none;fill:black;font-family:-apple-system,&quot;SF Pro Display&quot;,&quot;SF Pro Text&quot;,Helvetica,sans-serif;text-anchor:middle;" transform="matrix(1 0 0 1 1746.56 322)">Medium</text>
  <text style="stroke:none;fill:black;font-family:-apple-system,&quot;SF Pro Display&quot;,&quot;SF Pro Text&quot;,Helvetica,sans-serif;text-anchor:middle;" transform="matrix(1 0 0 1 2043.27 322)">Semibold</text>
  <text style="stroke:none;fill:black;font-family:-apple-system,&quot;SF Pro Display&quot;,&quot;SF Pro Text&quot;,Helvetica,sans-serif;text-anchor:middle;" transform="matrix(1 0 0 1 2339.98 322)">Bold</text>
  <text style="stroke:none;fill:black;font-family:-apple-system,&quot;SF Pro Display&quot;,&quot;SF Pro Text&quot;,Helvetica,sans-serif;text-anchor:middle;" transform="matrix(1 0 0 1 2636.69 322)">Heavy</text>
  <text style="stroke:none;fill:black;font-family:-apple-system,&quot;SF Pro Display&quot;,&quot;SF Pro Text&quot;,Helvetica,sans-serif;text-anchor:middle;" transform="matrix(1 0 0 1 2933.4 322)">Black</text>
  <line id="" style="fill:none;stroke:black;opacity:1;stroke-width:0.5;" x1="263" x2="3036" y1="1903" y2="1903"/>
  <g id="" transform="matrix(1 0 0 1 263 1933)">
   <path d="M9.24805 0.830078C13.5547 0.830078 17.1387-2.74414 17.1387-7.05078C17.1387-11.3574 13.5449-14.9316 9.23828-14.9316C4.94141-14.9316 1.36719-11.3574 1.36719-7.05078C1.36719-2.74414 4.95117 0.830078 9.24805 0.830078ZM9.24805-0.654297C5.70312-0.654297 2.87109-3.49609 2.87109-7.05078C2.87109-10.6055 5.69336-13.4473 9.23828-13.4473C12.793-13.4473 15.6348-10.6055 15.6445-7.05078C15.6543-3.49609 12.8027-0.654297 9.24805-0.654297ZM6.39648-6.31836L8.50586-6.31836L8.50586-4.19922C8.50586-3.75977 8.79883-3.45703 9.22852-3.45703C9.67773-3.45703 9.9707-3.75977 9.9707-4.19922L9.9707-6.31836L12.0996-6.31836C12.5391-6.31836 12.8418-6.61133 12.8418-7.04102C12.8418-7.48047 12.5391-7.7832 12.0996-7.7832L9.9707-7.7832L9.9707-9.89258C9.9707-10.3418 9.67773-10.6445 9.22852-10.6445C8.79883-10.6445 8.50586-10.3418 8.50586-9.89258L8.50586-7.7832L6.39648-7.7832C5.94727-7.7832 5.64453-7.48047 5.64453-7.04102C5.64453-6.61133 5.94727-6.31836 6.39648-6.31836Z"/>
  </g>
  <g id="" transform="matrix(1 0 0 1 281.506 1933)">
   <path d="M11.709 2.91016C17.1582 2.91016 21.6699-1.61133 21.6699-7.05078C21.6699-12.5 17.1484-17.0117 11.6992-17.0117C6.25977-17.0117 1.74805-12.5 1.74805-7.05078C1.74805-1.61133 6.26953 2.91016 11.709 2.91016ZM11.709 1.25C7.09961 1.25 3.41797-2.44141 3.41797-7.05078C3.41797-11.6602 7.08984-15.3516 11.6992-15.3516C16.3086-15.3516 20-11.6602 20.0098-7.05078C20.0195-2.44141 16.3184 1.25 11.709 1.25ZM7.98828-6.23047L10.8789-6.23047L10.8789-3.32031C10.8789-2.83203 11.2109-2.5 11.6895-2.5C12.1777-2.5 12.5195-2.83203 12.5195-3.32031L12.5195-6.23047L15.4297-6.23047C15.918-6.23047 16.25-6.5625 16.25-7.04102C16.25-7.5293 15.918-7.87109 15.4297-7.87109L12.5195-7.87109L12.5195-10.7617C12.5195-11.2695 12.1777-11.6016 11.6895-11.6016C11.2109-11.6016 10.8789-11.2598 10.8789-10.7617L10.8789-7.87109L7.98828-7.87109C7.48047-7.87109 7.14844-7.5293 7.14844-7.04102C7.14844-6.5625 7.49023-6.23047 7.98828-6.23047Z"/>
  </g>
  <g id="" transform="matrix(1 0 0 1 304.924 1933)">
   <path d="M14.9707 5.66406C21.9336 5.66406 27.6953-0.0976562 27.6953-7.05078C27.6953-14.0137 21.9238-19.7754 14.9609-19.7754C8.00781-19.7754 2.25586-14.0137 2.25586-7.05078C2.25586-0.0976562 8.01758 5.66406 14.9707 5.66406ZM14.9707 3.84766C8.93555 3.84766 4.08203-1.01562 4.08203-7.05078C4.08203-13.0957 8.92578-17.9492 14.9609-17.9492C21.0059-17.9492 25.8594-13.0957 25.8691-7.05078C25.8789-1.01562 21.0156 3.84766 14.9707 3.84766ZM10.0586-6.14258L14.0625-6.14258L14.0625-2.12891C14.0625-1.5918 14.4336-1.2207 14.9512-1.2207C15.4883-1.2207 15.8594-1.5918 15.8594-2.12891L15.8594-6.14258L19.8828-6.14258C20.4102-6.14258 20.791-6.51367 20.791-7.03125C20.791-7.56836 20.4199-7.94922 19.8828-7.94922L15.8594-7.94922L15.8594-11.9531C15.8594-12.5098 15.4883-12.8809 14.9512-12.8809C14.4336-12.8809 14.0625-12.5 14.0625-11.9531L14.0625-7.94922L10.0586-7.94922C9.50195-7.94922 9.13086-7.56836 9.13086-7.03125C9.13086-6.51367 9.51172-6.14258 10.0586-6.14258Z"/>
  </g>
  <text style="stroke:none;fill:black;font-family:-apple-system,&quot;SF Pro Display&quot;,&quot;SF Pro Text&quot;,Helvetica,sans-serif;font-weight:bold;" transform="matrix(1 0 0 1 263 1953)">Design Variations</text>
  <text style="stroke:none;fill:black;font-family:-apple-system,&quot;SF Pro Display&quot;,&quot;SF Pro Text&quot;,Helvetica,sans-serif;" transform="matrix(1 0 0 1 263 1971)">Symbols are supported in up to nine weights and three scales.</text>
  <text style="stroke:none;fill:black;font-family:-apple-system,&quot;SF Pro Display&quot;,&quot;SF Pro Text&quot;,Helvetica,sans-serif;" transform="matrix(1 0 0 1 263 1989)">For optimal layout with text and other symbols, vertically align</text>
  <text style="stroke:none;fill:black;font-family:-apple-system,&quot;SF Pro Display&quot;,&quot;SF Pro Text&quot;,Helvetica,sans-serif;" transform="matrix(1 0 0 1 263 2007)">symbols with the adjacent text.</text>
  <line id="" style="fill:none;stroke:#00AEEF;stroke-width:0.5;opacity:1.0;" x1="776" x2="776" y1="1919" y2="1933"/>
  <g id="" transform="matrix(1 0 0 1 776 1933)">
   <path d="M3.31055 0.126953C3.82812 0.126953 4.08203-0.0683594 4.26758-0.605469L5.52734-4.0625L11.2891-4.0625L12.5488-0.605469C12.7344-0.0683594 12.9883 0.126953 13.4961 0.126953C14.0137 0.126953 14.3457-0.185547 14.3457-0.673828C14.3457-0.839844 14.3164-0.986328 14.2383-1.20117L9.6582-13.3887C9.43359-13.9941 9.0332-14.2871 8.4082-14.2871C7.80273-14.2871 7.39258-13.9941 7.17773-13.3984L2.59766-1.19141C2.51953-0.976562 2.49023-0.830078 2.49023-0.664062C2.49023-0.175781 2.80273 0.126953 3.31055 0.126953ZM6.00586-5.53711L8.37891-12.1094L8.42773-12.1094L10.8008-5.53711Z"/>
  </g>
  <line id="" style="fill:none;stroke:#00AEEF;stroke-width:0.5;opacity:1.0;" x1="792.836" x2="792.836" y1="1919" y2="1933"/>
  <text style="stroke:none;fill:black;font-family:-apple-system,&quot;SF Pro Display&quot;,&quot;SF Pro Text&quot;,Helvetica,sans-serif;font-weight:bold;" transform="matrix(1 0 0 1 776 1953)">Margins</text>
  <text style="stroke:none;fill:black;font-family:-apple-system,&quot;SF Pro Display&quot;,&quot;SF Pro Text&quot;,Helvetica,sans-serif;" transform="matrix(1 0 0 1 776 1971)">Leading and trailing margins on the left and right side of each symbol</text>
  <text style="stroke:none;fill:black;font-family:-apple-system,&quot;SF Pro Display&quot;,&quot;SF Pro Text&quot;,Helvetica,sans-serif;" transform="matrix(1 0 0 1 776 1989)">can be adjusted by modifying the x-location of the margin guidelines.</text>
  <text style="stroke:none;fill:black;font-family:-apple-system,&quot;SF Pro Display&quot;,&quot;SF Pro Text&quot;,Helvetica,sans-serif;" transform="matrix(1 0 0 1 776 2007)">Modifications are automatically applied proportionally to all</text>
  <text style="stroke:none;fill:black;font-family:-apple-system,&quot;SF Pro Display&quot;,&quot;SF Pro Text&quot;,Helvetica,sans-serif;" transform="matrix(1 0 0 1 776 2025)">scales and weights.</text>
  <g id="" transform="matrix(1 0 0 1 1289 1933)">
   <path d="M2.8418 1.86523L4.54102 3.57422C5.40039 4.44336 6.38672 4.38477 7.31445 3.35938L17.4902-7.85156C17.7539-7.76367 18.0273-7.7832 18.3398-7.8418L19.4043-8.03711L20.0684-7.36328L20.0293-6.80664C19.9902-6.30859 20.1172-5.92773 20.6055-5.44922L21.3672-4.70703C21.8457-4.22852 22.4609-4.19922 22.9297-4.66797L25.8398-7.58789C26.3086-8.05664 26.2891-8.65234 25.8105-9.13086L25.0391-9.89258C24.5605-10.3711 24.1895-10.5273 23.7109-10.4883L23.1348-10.4395L22.4902-11.0742L22.7344-12.1973C22.8613-12.7637 22.7051-13.2031 22.1191-13.7891L19.9219-15.9766C16.582-19.2969 12.1484-19.2188 9.25781-16.3281C8.83789-15.918 8.80859-15.3418 9.04297-14.9512C9.27734-14.5898 9.73633-14.3555 10.3809-14.5215C11.8457-14.8633 13.3691-14.9219 14.7949-13.9844L14.209-12.5293C14.0137-12.0508 13.9844-11.6504 14.1113-11.2891L3.04688-0.898438C2.06055 0.0195312 1.98242 0.996094 2.8418 1.86523ZM10.752-15.957C13.1836-17.7344 16.4746-17.4316 18.7012-15.2051L21.1328-12.793C21.3672-12.5586 21.4062-12.373 21.3379-12.0312L21.0156-10.5469L22.5195-9.0625L23.5059-9.12109C23.7598-9.13086 23.8379-9.11133 24.0332-8.91602L24.6094-8.33984L22.168-5.89844L21.5918-6.47461C21.3965-6.66992 21.3672-6.74805 21.377-7.01172L21.4453-7.98828L19.9512-9.47266L18.4277-9.21875C18.1055-9.15039 17.959-9.17969 17.7148-9.41406L15.7129-11.416C15.459-11.6504 15.4297-11.8164 15.5859-12.1875L16.4648-14.2773C14.9023-15.7324 12.8711-16.3574 10.8398-15.7617C10.6836-15.7227 10.625-15.8496 10.752-15.957ZM5.27344 2.30469L4.10156 1.14258C3.63281 0.683594 3.74023 0.341797 4.14062-0.0195312L14.9512-10.1953L16.416-8.71094L6.42578 2.27539C6.07422 2.67578 5.74219 2.77344 5.27344 2.30469Z"/>
  </g>
  <text style="stroke:none;fill:black;font-family:-apple-system,&quot;SF Pro Display&quot;,&quot;SF Pro Text&quot;,Helvetica,sans-serif;font-weight:bold;" transform="matrix(1 0 0 1 1289 1953)">Exporting</text>
  <text style="stroke:none;fill:black;font-family:-apple-system,&quot;SF Pro Display&quot;,&quot;SF Pro Text&quot;,Helvetica,sans-serif;" transform="matrix(1 0 0 1 1289 1971)">Symbols should be outlined when exporting to ensure the</text>
  <text style="stroke:none;fill:black;font-family:-apple-system,&quot;SF Pro Display&quot;,&quot;SF Pro Text&quot;,Helvetica,sans-serif;" transform="matrix(1 0 0 1 1289 1989)">design is preserved when submitting to Xcode.</text>
  <text id="template-version" style="stroke:none;fill:black;font-family:-apple-system,&quot;SF Pro Display&quot;,&quot;SF Pro Text&quot;,Helvetica,sans-serif;text-anchor:end;" transform="matrix(1 0 0 1 3036 1933)">Template v.2.0</text>
  <text style="stroke:none;fill:black;font-family:-apple-system,&quot;SF Pro Display&quot;,&quot;SF Pro Text&quot;,Helvetica,sans-serif;text-anchor:end;" transform="matrix(1 0 0 1 3036 1951)">Requires Xcode 12 or greater</text>
  <text style="stroke:none;fill:black;font-family:-apple-system,&quot;SF Pro Display&quot;,&quot;SF Pro Text&quot;,Helvetica,sans-serif;text-anchor:end;" transform="matrix(1 0 0 1 3036 1969)">Generated from info.circle.fill</text>
  <text style="stroke:none;fill:black;font-family:-apple-system,&quot;SF Pro Display&quot;,&quot;SF Pro Text&quot;,Helvetica,sans-serif;text-anchor:end;" transform="matrix(1 0 0 1 3036 1987)">Typeset at 100 points</text>
  <text style="stroke:none;fill:black;font-family:-apple-system,&quot;SF Pro Display&quot;,&quot;SF Pro Text&quot;,Helvetica,sans-serif;" transform="matrix(1 0 0 1 263 726)">Small</text>
  <text style="stroke:none;fill:black;font-family:-apple-system,&quot;SF Pro Display&quot;,&quot;SF Pro Text&quot;,Helvetica,sans-serif;" transform="matrix(1 0 0 1 263 1156)">Medium</text>
  <text style="stroke:none;fill:black;font-family:-apple-system,&quot;SF Pro Display&quot;,&quot;SF Pro Text&quot;,Helvetica,sans-serif;" transform="matrix(1 0 0 1 263 1586)">Large</text>
 </g>
 <g id="Guides">
  <g id="H-reference" style="fill:#27AAE1;stroke:none;" transform="matrix(1 0 0 1 339 696)">
   <path d="M0.976562 0L3.66211 0L12.9883-24.4629L45.752-24.4629L55.127 0L57.7637 0L30.6152-70.459L28.125-70.459ZM29.3457-67.1387L29.4434-67.1387L44.873-26.709L13.8672-26.709Z"/>
  </g>
  <line id="Baseline-S" style="fill:none;stroke:#27AAE1;opacity:1;stroke-width:0.5;" x1="263" x2="3036" y1="696" y2="696"/>
  <line id="Capline-S" style="fill:none;stroke:#27AAE1;opacity:1;stroke-width:0.5;" x1="263" x2="3036" y1="625.541" y2="625.541"/>
  <g id="H-reference" style="fill:#27AAE1;stroke:none;" transform="matrix(1 0 0 1 339 1126)">
   <path d="M0.976562 0L3.66211 0L12.9883-24.4629L45.752-24.4629L55.127 0L57.7637 0L30.6152-70.459L28.125-70.459ZM29.3457-67.1387L29.4434-67.1387L44.873-26.709L13.8672-26.709Z"/>
  </g>
  <line id="Baseline-M" style="fill:none;stroke:#27AAE1;opacity:1;stroke-width:0.5;" x1="263" x2="3036" y1="1126" y2="1126"/>
  <line id="Capline-M" style="fill:none;stroke:#27AAE1;opacity:1;stroke-width:0.5;" x1="263" x2="3036" y1="1055.54" y2="1055.54"/>
  <g id="H-reference" style="fill:#27AAE1;stroke:none;" transform="matrix(1 0 0 1 339 1556)">
   <path d="M0.976562 0L3.66211 0L12.9883-24.4629L45.752-24.4629L55.127 0L57.7637 0L30.6152-70.459L28.125-70.459ZM29.3457-67.1387L29.4434-67.1387L44.873-26.709L13.8672-26.709Z"/>
  </g>
  <line id="Baseline-L" style="fill:none;stroke:#27AAE1;opacity:1;stroke-width:0.5;" x1="263" x2="3036" y1="1556" y2="1556"/>
  <line id="Capline-L" style="fill:none;stroke:#27AAE1;opacity:1;stroke-width:0.5;" x1="263" x2="3036" y1="1485.54" y2="1485.54"/>
  <line id="left-margin" style="fill:none;stroke:#00AEEF;stroke-width:0.5;opacity:1.0;" x1="1391.3" x2="1391.3" y1="1030.79" y2="1150.12"/>
  <line id="right-margin" style="fill:none;stroke:#00AEEF;stroke-width:0.5;opacity:1.0;" x1="1508.39" x2="1508.39" y1="1030.79" y2="1150.12"/>
 </g>
 <g id="Symbols">
  <g id="Black-L" transform="matrix(1 0 0 1 2854.05 1556)">
   <path d="M79.3457 32.8613C116.748 32.8613 147.412 2.19727 147.412-35.2051C147.412-72.6074 116.748-103.271 79.2969-103.271C41.8945-103.271 11.2793-72.6074 11.2793-35.2051C11.2793 2.19727 41.9434 32.8613 79.3457 32.8613ZM79.4434-53.9551C73.5352-53.9551 68.6035-58.9844 68.6035-64.7949C68.6035-70.9961 73.5352-75.7812 79.4434-75.7812C85.4004-75.7812 90.2832-70.9961 90.2832-64.7949C90.2832-58.9844 85.4004-53.9551 79.4434-53.9551ZM67.041 0.292969C63.0371 0.292969 59.9121-2.49023 59.9121-6.68945C59.9121-10.5469 63.0371-13.623 67.041-13.623L73.7793-13.623L73.7793-32.2266L68.457-32.2266C64.4043-32.2266 61.2793-35.0586 61.2793-39.209C61.2793-43.0664 64.4043-46.0938 68.457-46.0938L81.6406-46.0938C86.8652-46.0938 89.5508-42.5781 89.5508-37.0605L89.5508-13.623L94.043-13.623C98.0957-13.623 101.221-10.5469 101.221-6.68945C101.221-2.49023 98.0957 0.292969 94.043 0.292969Z"/>
  </g>
  <g id="Heavy-L" transform="matrix(1 0 0 1 2558.39 1556)">
   <path d="M78.2715 31.7871C115.088 31.7871 145.312 1.5625 145.312-35.2051C145.312-72.0215 115.039-102.246 78.2715-102.246C41.4551-102.246 11.2793-72.0215 11.2793-35.2051C11.2793 1.5625 41.5039 31.7871 78.2715 31.7871ZM78.2715-55.1758C72.7539-55.1758 68.1641-59.7656 68.1641-65.2344C68.1641-70.9473 72.7539-75.4395 78.2715-75.4395C83.7891-75.4395 88.2812-70.9473 88.2812-65.2344C88.2812-59.7656 83.7891-55.1758 78.2715-55.1758ZM66.2109 0.244141C62.5977 0.244141 59.7656-2.29492 59.7656-6.05469C59.7656-9.47266 62.5977-12.2559 66.2109-12.2559L73.3887-12.2559L73.3887-33.9844L67.4805-33.9844C63.8672-33.9844 61.0352-36.5234 61.0352-40.2832C61.0352-43.7012 63.8672-46.4844 67.4805-46.4844L80.4688-46.4844C85.1074-46.4844 87.5488-43.3105 87.5488-38.3789L87.5488-12.2559L93.0176-12.2559C96.6797-12.2559 99.4629-9.47266 99.4629-6.05469C99.4629-2.29492 96.6797 0.244141 93.0176 0.244141Z"/>
  </g>
  <g id="Bold-L" transform="matrix(1 0 0 1 2262.88 1556)">
   <path d="M77.0996 30.5664C113.232 30.5664 142.92 0.878906 142.92-35.2539C142.92-71.3379 113.184-101.074 77.0508-101.074C40.9668-101.074 11.2793-71.3379 11.2793-35.2539C11.2793 0.878906 41.0156 30.5664 77.0996 30.5664ZM76.9043-56.4941C71.8262-56.4941 67.6758-60.6934 67.6758-65.7227C67.6758-70.9473 71.8262-75.0488 76.9043-75.0488C81.9824-75.0488 86.084-70.9473 86.084-65.7227C86.084-60.6934 81.9824-56.4941 76.9043-56.4941ZM65.2344 0.195312C62.0605 0.195312 59.5703-2.00195 59.5703-5.27344C59.5703-8.30078 62.0605-10.7422 65.2344-10.7422L72.9492-10.7422L72.9492-35.9375L66.3574-35.9375C63.2324-35.9375 60.7422-38.2324 60.7422-41.4551C60.7422-44.4824 63.2324-46.875 66.3574-46.875L79.1504-46.875C83.1543-46.875 85.2539-44.0918 85.2539-39.8438L85.2539-10.7422L91.8945-10.7422C95.0684-10.7422 97.5098-8.30078 97.5098-5.27344C97.5098-2.00195 95.0684 0.195312 91.8945 0.195312Z"/>
  </g>
  <g id="Semibold-L" transform="matrix(1 0 0 1 1966.97 1556)">
   <path d="M76.2695 29.7363C111.914 29.7363 141.309 0.390625 141.309-35.2539C141.309-70.8984 111.865-100.244 76.2695-100.244C40.625-100.244 11.2793-70.8984 11.2793-35.2539C11.2793 0.390625 40.6738 29.7363 76.2695 29.7363ZM75.9766-57.4219C71.2402-57.4219 67.334-61.2793 67.334-66.0645C67.334-70.9473 71.2402-74.7559 75.9766-74.7559C80.7617-74.7559 84.6191-70.9473 84.6191-66.0645C84.6191-61.2793 80.7617-57.4219 75.9766-57.4219ZM64.5508 0.195312C61.6699 0.195312 59.4727-1.85547 59.4727-4.78516C59.4727-7.4707 61.6699-9.66797 64.5508-9.66797L72.6562-9.66797L72.6562-37.3047L65.625-37.3047C62.793-37.3047 60.5469-39.3555 60.5469-42.2852C60.5469-44.9707 62.793-47.168 65.625-47.168L78.2227-47.168C81.7871-47.168 83.6914-44.6777 83.6914-40.8691L83.6914-9.66797L91.1133-9.66797C93.9453-9.66797 96.1914-7.4707 96.1914-4.78516C96.1914-1.85547 93.9453 0.195312 91.1133 0.195312Z"/>
  </g>
  <g id="Medium-L" transform="matrix(1 0 0 1 1670.87 1556)">
   <path d="M75.6836 29.1504C110.938 29.1504 140.088 0 140.088-35.2539C140.088-70.5078 110.889-99.6582 75.6348-99.6582C40.3809-99.6582 11.2793-70.5078 11.2793-35.2539C11.2793 0 40.3809 29.1504 75.6836 29.1504ZM75.293-58.1055C70.752-58.1055 67.0898-61.7676 67.0898-66.3086C67.0898-70.9473 70.752-74.5605 75.293-74.5605C79.834-74.5605 83.4473-70.9473 83.4473-66.3086C83.4473-61.7676 79.834-58.1055 75.293-58.1055ZM64.0137 0.146484C61.377 0.146484 59.375-1.70898 59.375-4.39453C59.375-6.83594 61.377-8.88672 64.0137-8.88672L72.4121-8.88672L72.4121-38.3301L65.0391-38.3301C62.4512-38.3301 60.4004-40.2344 60.4004-42.9199C60.4004-45.3613 62.4512-47.4121 65.0391-47.4121L77.5391-47.4121C80.7617-47.4121 82.5195-45.0684 82.5195-41.6504L82.5195-8.88672L90.5273-8.88672C93.1152-8.88672 95.166-6.83594 95.166-4.39453C95.166-1.70898 93.1152 0.146484 90.5273 0.146484Z"/>
  </g>
  <g id="Regular-L" transform="matrix(1 0 0 1 1374.97 1556)">
   <path d="M74.8535 28.3203C109.668 28.3203 138.477-0.488281 138.477-35.2539C138.477-70.0684 109.619-98.877 74.8047-98.877C40.0391-98.877 11.2793-70.0684 11.2793-35.2539C11.2793-0.488281 40.0879 28.3203 74.8535 28.3203ZM74.3652-59.0332C70.1172-59.0332 66.748-62.4023 66.748-66.6504C66.748-70.8984 70.1172-74.3164 74.3652-74.3164C78.6133-74.3164 81.9336-70.8984 81.9336-66.6504C81.9336-62.4023 78.6133-59.0332 74.3652-59.0332ZM63.3789 0.146484C61.0352 0.146484 59.2773-1.5625 59.2773-3.85742C59.2773-6.05469 61.0352-7.8125 63.3789-7.8125L72.1191-7.8125L72.1191-39.6973L64.3066-39.6973C62.0117-39.6973 60.2051-41.4062 60.2051-43.7012C60.2051-45.8984 62.0117-47.6562 64.3066-47.6562L76.6113-47.6562C79.4434-47.6562 80.957-45.6543 80.957-42.6758L80.957-7.8125L89.6973-7.8125C92.041-7.8125 93.8477-6.05469 93.8477-3.85742C93.8477-1.5625 92.041 0.146484 89.6973 0.146484Z"/>
  </g>
  <g id="Light-L" transform="matrix(1 0 0 1 1079.18 1556)">
   <path d="M73.9258 27.3926C108.301 27.3926 136.621-0.927734 136.621-35.2539C136.621-69.6289 108.252-97.9492 73.9258-97.9492C39.5508-97.9492 11.2793-69.6289 11.2793-35.2539C11.2793-0.927734 39.5996 27.3926 73.9258 27.3926ZM73.6328-60.0098C70.0684-60.0098 67.1875-62.8418 67.1875-66.4062C67.1875-69.9707 70.0684-72.8516 73.6328-72.8516C77.1973-72.8516 80.0293-69.9707 80.0293-66.4062C80.0293-62.8418 77.1973-60.0098 73.6328-60.0098ZM62.3535-0.488281C60.498-0.488281 59.1309-1.85547 59.1309-3.61328C59.1309-5.32227 60.498-6.73828 62.3535-6.73828L72.1191-6.73828L72.1191-41.6016L63.0371-41.6016C61.2305-41.6016 59.8633-42.9688 59.8633-44.7754C59.8633-46.4355 61.2305-47.9004 63.0371-47.9004L75.4883-47.9004C77.6367-47.9004 78.8574-46.2891 78.8574-44.1406L78.8574-6.73828L88.5742-6.73828C90.4297-6.73828 91.7969-5.32227 91.7969-3.61328C91.7969-1.85547 90.4297-0.488281 88.5742-0.488281Z"/>
  </g>
  <g id="Thin-L" transform="matrix(1 0 0 1 783.693 1556)">
   <path d="M72.7051 26.1719C106.494 26.1719 134.18-1.51367 134.18-35.2539C134.18-69.043 106.494-96.7285 72.7051-96.7285C38.9648-96.7285 11.2793-69.043 11.2793-35.2539C11.2793-1.51367 38.9648 26.1719 72.7051 26.1719ZM72.6562-61.377C70.0195-61.377 67.8223-63.4277 67.8223-66.0645C67.8223-68.75 70.0195-70.9473 72.6562-70.9473C75.293-70.9473 77.4902-68.75 77.4902-66.0645C77.4902-63.4277 75.293-61.377 72.6562-61.377ZM60.9863-1.26953C59.8145-1.26953 58.9844-2.19727 58.9844-3.27148C58.9844-4.3457 59.8145-5.27344 60.9863-5.27344L72.0703-5.27344L72.0703-44.1895L61.4258-44.1895C60.2051-44.1895 59.4238-45.0684 59.4238-46.1426C59.4238-47.2168 60.2051-48.1445 61.4258-48.1445L73.9746-48.1445C75.293-48.1445 76.0254-47.168 76.0254-46.0449L76.0254-5.27344L87.1094-5.27344C88.3301-5.27344 89.1113-4.3457 89.1113-3.27148C89.1113-2.19727 88.3301-1.26953 87.1094-1.26953Z"/>
  </g>
  <g id="Ultralight-L" transform="matrix(1 0 0 1 487.616 1556)">
   <path d="M72.1191 25.5371C105.566 25.5371 132.91-1.80664 132.91-35.2539C132.91-68.75 105.566-96.0938 72.1191-96.0938C38.623-96.0938 11.2793-68.75 11.2793-35.2539C11.2793-1.80664 38.623 25.5371 72.1191 25.5371ZM72.168-62.0605C69.9707-62.0605 68.1152-63.7207 68.1152-65.918C68.1152-68.1152 69.9707-69.9219 72.168-69.9219C74.3164-69.9219 76.1719-68.1152 76.1719-65.918C76.1719-63.7207 74.3164-62.0605 72.168-62.0605ZM60.3027-1.70898C59.4238-1.70898 58.9355-2.39258 58.9355-3.07617C58.9355-3.80859 59.4238-4.49219 60.3027-4.49219L72.0703-4.49219L72.0703-45.459L60.5469-45.459C59.668-45.459 59.1797-46.1426 59.1797-46.875C59.1797-47.6074 59.668-48.291 60.5469-48.291L73.2422-48.291C74.0723-48.291 74.6094-47.6074 74.6094-47.0215L74.6094-4.49219L86.3281-4.49219C87.207-4.49219 87.7441-3.80859 87.7441-3.07617C87.7441-2.39258 87.207-1.70898 86.3281-1.70898Z"/>
  </g>
  <g id="Black-M" transform="matrix(1 0 0 1 2870.97 1126)">
   <path d="M62.4023 18.457C91.9922 18.457 116.113-5.61523 116.113-35.2051C116.113-64.7949 91.9922-88.8672 62.4023-88.8672C32.8125-88.8672 8.74023-64.7949 8.74023-35.2051C8.74023-5.61523 32.8125 18.457 62.4023 18.457ZM62.793-48.6816C58.0566-48.6816 54.0039-52.7832 54.0039-57.4707C54.0039-62.4512 58.0566-66.3574 62.793-66.3574C67.5781-66.3574 71.582-62.4512 71.582-57.4707C71.582-52.7832 67.5781-48.6816 62.793-48.6816ZM52.5879-8.00781C49.2188-8.00781 46.582-10.3027 46.582-13.8672C46.582-17.1387 49.2188-19.7266 52.5879-19.7266L57.7148-19.7266L57.7148-31.543L53.7109-31.543C50.293-31.543 47.6562-33.9355 47.6562-37.4512C47.6562-40.6738 50.293-43.2617 53.7109-43.2617L64.3066-43.2617C68.75-43.2617 70.9961-40.332 70.9961-35.5957L70.9961-19.7266L73.6816-19.7266C77.0508-19.7266 79.6875-17.1387 79.6875-13.8672C79.6875-10.3027 77.0508-8.00781 73.6816-8.00781Z"/>
  </g>
  <g id="Heavy-M" transform="matrix(1 0 0 1 2575.19 1126)">
   <path d="M61.5234 17.5293C90.5273 17.5293 114.258-6.20117 114.258-35.2051C114.258-64.2578 90.5273-87.9883 61.4746-87.9883C32.4707-87.9883 8.74023-64.2578 8.74023-35.2051C8.74023-6.20117 32.4707 17.5293 61.5234 17.5293ZM61.6699-49.7559C57.1777-49.7559 53.418-53.5156 53.418-58.0078C53.418-62.6953 57.1777-66.3574 61.6699-66.3574C66.2109-66.3574 69.9219-62.6953 69.9219-58.0078C69.9219-53.5156 66.2109-49.7559 61.6699-49.7559ZM51.9043-7.86133C48.8281-7.86133 46.4355-10.0098 46.4355-13.2324C46.4355-16.1621 48.8281-18.5059 51.9043-18.5059L57.2754-18.5059L57.2754-32.959L52.9785-32.959C49.8535-32.959 47.4609-35.1562 47.4609-38.3301C47.4609-41.2598 49.8535-43.6035 52.9785-43.6035L63.2812-43.6035C67.2852-43.6035 69.3359-40.918 69.3359-36.6699L69.3359-18.5059L72.8516-18.5059C75.9277-18.5059 78.3203-16.1621 78.3203-13.2324C78.3203-10.0098 75.9277-7.86133 72.8516-7.86133Z"/>
  </g>
  <g id="Bold-M" transform="matrix(1 0 0 1 2279.5 1126)">
   <path d="M60.498 16.5039C88.8672 16.5039 112.207-6.83594 112.207-35.2051C112.207-63.623 88.8672-86.9629 60.4492-86.9629C32.0312-86.9629 8.74023-63.623 8.74023-35.2051C8.74023-6.83594 32.0801 16.5039 60.498 16.5039ZM60.4492-50.8789C56.25-50.8789 52.7344-54.3945 52.7344-58.5938C52.7344-62.9395 56.25-66.3574 60.4492-66.3574C64.6484-66.3574 68.1152-62.9395 68.1152-58.5938C68.1152-54.3945 64.6484-50.8789 60.4492-50.8789ZM51.1719-7.71484C48.4375-7.71484 46.2891-9.61914 46.2891-12.5C46.2891-15.0879 48.4375-17.1875 51.1719-17.1875L56.7871-17.1875L56.7871-34.5703L52.1484-34.5703C49.3652-34.5703 47.2656-36.5234 47.2656-39.3066C47.2656-41.9434 49.3652-43.9941 52.1484-43.9941L62.1582-43.9941C65.6738-43.9941 67.4805-41.6016 67.4805-37.8906L67.4805-17.1875L71.9238-17.1875C74.6582-17.1875 76.8066-15.0879 76.8066-12.5C76.8066-9.61914 74.6582-7.71484 71.9238-7.71484Z"/>
  </g>
  <g id="Semibold-M" transform="matrix(1 0 0 1 1983.5 1126)">
   <path d="M59.7656 15.8203C87.7441 15.8203 110.791-7.27539 110.791-35.2539C110.791-63.2324 87.6953-86.2793 59.7656-86.2793C31.7871-86.2793 8.74023-63.2324 8.74023-35.2539C8.74023-7.27539 31.7871 15.8203 59.7656 15.8203ZM59.5703-51.709C55.5664-51.709 52.2461-54.9805 52.2461-58.9844C52.2461-63.1348 55.5664-66.3574 59.5703-66.3574C63.5742-66.3574 66.8457-63.1348 66.8457-58.9844C66.8457-54.9805 63.5742-51.709 59.5703-51.709ZM50.6348-7.61719C48.1445-7.61719 46.1914-9.375 46.1914-11.9629C46.1914-14.3555 48.1445-16.2598 50.6348-16.2598L56.4941-16.2598L56.4941-35.6934L51.5625-35.6934C49.0723-35.6934 47.1191-37.4512 47.1191-39.9902C47.1191-42.3828 49.0723-44.2871 51.5625-44.2871L61.377-44.2871C64.5508-44.2871 66.2109-42.0898 66.2109-38.7207L66.2109-16.2598L71.2891-16.2598C73.7793-16.2598 75.7324-14.3555 75.7324-11.9629C75.7324-9.375 73.7793-7.61719 71.2891-7.61719Z"/>
  </g>
  <g id="Medium-M" transform="matrix(1 0 0 1 1687.3 1126)">
   <path d="M59.2285 15.2344C86.9141 15.2344 109.766-7.61719 109.766-35.2539C109.766-62.8906 86.8652-85.7422 59.1797-85.7422C31.543-85.7422 8.74023-62.8906 8.74023-35.2539C8.74023-7.61719 31.5918 15.2344 59.2285 15.2344ZM58.9355-52.2949C55.0293-52.2949 51.9043-55.4199 51.9043-59.2773C51.9043-63.2324 55.0293-66.3574 58.9355-66.3574C62.793-66.3574 65.8691-63.2324 65.8691-59.2773C65.8691-55.4199 62.793-52.2949 58.9355-52.2949ZM50.1953-7.56836C47.9004-7.56836 46.0938-9.22852 46.0938-11.5723C46.0938-13.7695 47.9004-15.5273 50.1953-15.5273L56.25-15.5273L56.25-36.5234L51.123-36.5234C48.8281-36.5234 47.0215-38.1836 47.0215-40.5273C47.0215-42.7246 48.8281-44.4824 51.123-44.4824L60.791-44.4824C63.7207-44.4824 65.2344-42.4316 65.2344-39.3555L65.2344-15.5273L70.8008-15.5273C73.1445-15.5273 74.9512-13.7695 74.9512-11.5723C74.9512-9.22852 73.1445-7.56836 70.8008-7.56836Z"/>
  </g>
  <g id="Regular-M" transform="matrix(1 0 0 1 1391.3 1126)">
   <path d="M58.5449 14.5508C85.791 14.5508 108.35-8.05664 108.35-35.2539C108.35-62.5 85.7422-85.0586 58.4961-85.0586C31.2988-85.0586 8.74023-62.5 8.74023-35.2539C8.74023-8.05664 31.3477 14.5508 58.5449 14.5508ZM58.0566-53.0762C54.3945-53.0762 51.4648-56.0059 51.4648-59.7168C51.4648-63.4277 54.3945-66.3574 58.0566-66.3574C61.7188-66.3574 64.5996-63.4277 64.5996-59.7168C64.5996-56.0059 61.7188-53.0762 58.0566-53.0762ZM49.707-7.4707C47.6074-7.4707 45.9961-8.98438 45.9961-11.084C45.9961-13.0371 47.6074-14.6484 49.707-14.6484L55.9082-14.6484L55.9082-37.5977L50.5371-37.5977C48.4863-37.5977 46.875-39.1113 46.875-41.2109C46.875-43.1641 48.4863-44.7754 50.5371-44.7754L60.0098-44.7754C62.5977-44.7754 63.9648-42.9199 63.9648-40.1855L63.9648-14.6484L70.166-14.6484C72.2656-14.6484 73.877-13.0371 73.877-11.084C73.877-8.98438 72.2656-7.4707 70.166-7.4707Z"/>
  </g>
  <g id="Light-M" transform="matrix(1 0 0 1 1095.42 1126)">
   <path d="M57.7148 13.7207C84.5215 13.7207 106.689-8.44727 106.689-35.2539C106.689-62.1094 84.5215-84.2285 57.666-84.2285C30.8594-84.2285 8.74023-62.1094 8.74023-35.2539C8.74023-8.44727 30.9082 13.7207 57.7148 13.7207ZM57.4219-54.0039C54.3457-54.0039 51.8555-56.4453 51.8555-59.4727C51.8555-62.5977 54.3457-65.0391 57.4219-65.0391C60.4492-65.0391 62.8906-62.5977 62.8906-59.4727C62.8906-56.4453 60.4492-54.0039 57.4219-54.0039ZM48.7793-8.00781C47.1191-8.00781 45.8984-9.22852 45.8984-10.8398C45.8984-12.3535 47.1191-13.623 48.7793-13.623L55.9082-13.623L55.9082-39.3066L49.4141-39.3066C47.8027-39.3066 46.582-40.5273 46.582-42.1387C46.582-43.6523 47.8027-44.9219 49.4141-44.9219L59.0332-44.9219C60.9863-44.9219 62.0605-43.5059 62.0605-41.4551L62.0605-13.623L69.1895-13.623C70.8008-13.623 72.0703-12.3535 72.0703-10.8398C72.0703-9.22852 70.8008-8.00781 69.1895-8.00781Z"/>
  </g>
  <g id="Thin-M" transform="matrix(1 0 0 1 799.806 1126)">
   <path d="M56.6406 12.5977C82.9102 12.5977 104.492-8.98438 104.492-35.2539C104.492-61.5723 82.9102-83.1543 56.5918-83.1543C30.3223-83.1543 8.74023-61.5723 8.74023-35.2539C8.74023-8.98438 30.3223 12.5977 56.6406 12.5977ZM56.543-55.1758C54.248-55.1758 52.4414-56.9336 52.4414-59.1797C52.4414-61.4746 54.248-63.3301 56.543-63.3301C58.7891-63.3301 60.5957-61.4746 60.5957-59.1797C60.5957-56.9336 58.7891-55.1758 56.543-55.1758ZM47.5586-8.74023C46.4844-8.74023 45.752-9.57031 45.752-10.5469C45.752-11.4746 46.4844-12.3047 47.5586-12.3047L55.8594-12.3047L55.8594-41.6016L47.9492-41.6016C46.875-41.6016 46.1426-42.4316 46.1426-43.4082C46.1426-44.3359 46.875-45.166 47.9492-45.166L57.666-45.166C58.8379-45.166 59.5215-44.2871 59.5215-43.1641L59.5215-12.3047L67.8223-12.3047C68.8965-12.3047 69.6289-11.4746 69.6289-10.5469C69.6289-9.57031 68.8965-8.74023 67.8223-8.74023Z"/>
  </g>
  <g id="Ultralight-M" transform="matrix(1 0 0 1 503.656 1126)">
   <path d="M56.0547 12.0605C82.0801 12.0605 103.369-9.22852 103.369-35.2539C103.369-61.2793 82.0801-82.5684 56.0547-82.5684C30.0293-82.5684 8.74023-61.2793 8.74023-35.2539C8.74023-9.22852 30.0293 12.0605 56.0547 12.0605ZM56.0547-55.8105C54.248-55.8105 52.6855-57.2266 52.6855-59.0332C52.6855-60.8887 54.248-62.4023 56.0547-62.4023C57.9102-62.4023 59.4238-60.8887 59.4238-59.0332C59.4238-57.2266 57.9102-55.8105 56.0547-55.8105ZM46.9727-9.13086C46.1914-9.13086 45.7031-9.7168 45.7031-10.4004C45.7031-11.0352 46.1914-11.6699 46.9727-11.6699L55.8594-11.6699L55.8594-42.7734L47.2168-42.7734C46.3867-42.7734 45.9473-43.3594 45.9473-44.043C45.9473-44.6777 46.3867-45.3125 47.2168-45.3125L56.9824-45.3125C57.7637-45.3125 58.252-44.7266 58.252-44.043L58.252-11.6699L67.1387-11.6699C67.9199-11.6699 68.4082-11.0352 68.4082-10.4004C68.4082-9.7168 67.9199-9.13086 67.1387-9.13086Z"/>
  </g>
  <g id="Black-S" transform="matrix(1 0 0 1 2884.57 696)">
   <path d="M48.8281 6.78711C71.9727 6.78711 90.8203-12.0605 90.8203-35.2051C90.8203-58.3496 71.9727-77.1973 48.8281-77.1973C25.6836-77.1973 6.83594-58.3496 6.83594-35.2051C6.83594-12.0605 25.6836 6.78711 48.8281 6.78711ZM49.1211-45.8496C45.4102-45.8496 42.2363-49.0234 42.2363-52.6855C42.2363-56.5918 45.4102-59.6191 49.1211-59.6191C52.832-59.6191 55.957-56.5918 55.957-52.6855C55.957-49.0234 52.832-45.8496 49.1211-45.8496ZM41.1621-13.8672C38.5254-13.8672 36.4746-15.6738 36.4746-18.457C36.4746-20.9961 38.5254-22.998 41.1621-22.998L45.166-22.998L45.166-32.4219L42.041-32.4219C39.3555-32.4219 37.3047-34.2773 37.3047-37.0117C37.3047-39.5508 39.3555-41.5527 42.041-41.5527L50.293-41.5527C53.7598-41.5527 55.5176-39.2578 55.5176-35.5957L55.5176-22.998L57.666-22.998C60.3027-22.998 62.3535-20.9961 62.3535-18.457C62.3535-15.6738 60.3027-13.8672 57.666-13.8672Z"/>
  </g>
  <g id="Heavy-S" transform="matrix(1 0 0 1 2588.47 696)">
   <path d="M48.2422 6.15234C70.9961 6.15234 89.5996-12.4512 89.5996-35.2051C89.5996-57.959 70.9961-76.6113 48.1934-76.6113C25.4395-76.6113 6.83594-57.959 6.83594-35.2051C6.83594-12.4512 25.4395 6.15234 48.2422 6.15234ZM48.3398-46.5332C44.7754-46.5332 41.748-49.5605 41.748-53.125C41.748-56.8848 44.7754-59.7656 48.3398-59.7656C51.9043-59.7656 54.8828-56.8848 54.8828-53.125C54.8828-49.5605 51.9043-46.5332 48.3398-46.5332ZM40.7227-13.7207C38.2812-13.7207 36.377-15.4297 36.377-17.9688C36.377-20.3125 38.2812-22.168 40.7227-22.168L44.8242-22.168L44.8242-33.3496L41.6016-33.3496C39.1113-33.3496 37.207-35.0586 37.207-37.5977C37.207-39.9414 39.1113-41.7969 41.6016-41.7969L49.6094-41.7969C52.832-41.7969 54.4434-39.6484 54.4434-36.2793L54.4434-22.168L57.1289-22.168C59.5703-22.168 61.5234-20.3125 61.5234-17.9688C61.5234-15.4297 59.5703-13.7207 57.1289-13.7207Z"/>
  </g>
  <g id="Bold-S" transform="matrix(1 0 0 1 2292.44 696)">
   <path d="M47.5586 5.46875C69.873 5.46875 88.2324-12.8906 88.2324-35.2539C88.2324-57.5684 69.873-75.9277 47.5098-75.9277C25.1953-75.9277 6.83594-57.5684 6.83594-35.2539C6.83594-12.8906 25.1953 5.46875 47.5586 5.46875ZM47.4609-47.3145C43.9941-47.3145 41.1621-50.1953 41.1621-53.6133C41.1621-57.1777 43.9941-59.9121 47.4609-59.9121C50.8789-59.9121 53.7109-57.1777 53.7109-53.6133C53.7109-50.1953 50.8789-47.3145 47.4609-47.3145ZM40.2832-13.5254C38.0371-13.5254 36.2793-15.0879 36.2793-17.4316C36.2793-19.5801 38.0371-21.2891 40.2832-21.2891L44.4824-21.2891L44.4824-34.3262L41.0645-34.3262C38.8184-34.3262 37.1094-35.9375 37.1094-38.2324C37.1094-40.3809 38.8184-42.0898 41.0645-42.0898L48.877-42.0898C51.7578-42.0898 53.2715-40.0879 53.2715-37.0605L53.2715-21.2891L56.543-21.2891C58.7891-21.2891 60.5469-19.5801 60.5469-17.4316C60.5469-15.0879 58.7891-13.5254 56.543-13.5254Z"/>
  </g>
  <g id="Semibold-S" transform="matrix(1 0 0 1 1996.2 696)">
   <path d="M47.0703 4.98047C69.0918 4.98047 87.3047-13.1836 87.3047-35.2539C87.3047-57.2754 69.0918-75.4883 47.0215-75.4883C25-75.4883 6.83594-57.2754 6.83594-35.2539C6.83594-13.1836 25.0488 4.98047 47.0703 4.98047ZM46.875-47.8516C43.5059-47.8516 40.7715-50.5859 40.7715-53.9062C40.7715-57.373 43.5059-60.0586 46.875-60.0586C50.1953-60.0586 52.8809-57.373 52.8809-53.9062C52.8809-50.5859 50.1953-47.8516 46.875-47.8516ZM39.9414-13.4277C37.8418-13.4277 36.1816-14.8926 36.1816-17.0898C36.1816-19.043 37.8418-20.6543 39.9414-20.6543L44.2383-20.6543L44.2383-35.0586L40.7227-35.0586C38.6719-35.0586 37.0117-36.5234 37.0117-38.6719C37.0117-40.6738 38.6719-42.2852 40.7227-42.2852L48.3887-42.2852C51.0742-42.2852 52.4414-40.4297 52.4414-37.5488L52.4414-20.6543L56.1523-20.6543C58.252-20.6543 59.9121-19.043 59.9121-17.0898C59.9121-14.8926 58.252-13.4277 56.1523-13.4277Z"/>
  </g>
  <g id="Medium-S" transform="matrix(1 0 0 1 1699.83 696)">
   <path d="M46.7285 4.63867C68.5547 4.63867 86.6211-13.4277 86.6211-35.2539C86.6211-57.0801 68.5059-75.1465 46.6797-75.1465C24.8535-75.1465 6.83594-57.0801 6.83594-35.2539C6.83594-13.4277 24.9023 4.63867 46.7285 4.63867ZM46.3867-48.2422C43.1152-48.2422 40.4785-50.9277 40.4785-54.1992C40.4785-57.5195 43.1152-60.1562 46.3867-60.1562C49.6582-60.1562 52.2461-57.5195 52.2461-54.1992C52.2461-50.9277 49.6582-48.2422 46.3867-48.2422ZM39.6973-13.3301C37.6953-13.3301 36.1328-14.7461 36.1328-16.7969C36.1328-18.6523 37.6953-20.166 39.6973-20.166L44.043-20.166L44.043-35.5469L40.4785-35.5469C38.5254-35.5469 36.9629-36.9629 36.9629-39.0137C36.9629-40.918 38.5254-42.4316 40.4785-42.4316L47.998-42.4316C50.4883-42.4316 51.8555-40.6738 51.8555-37.9395L51.8555-20.166L55.8594-20.166C57.8613-20.166 59.375-18.6523 59.375-16.7969C59.375-14.7461 57.8613-13.3301 55.8594-13.3301Z"/>
  </g>
  <g id="Regular-S" transform="matrix(1 0 0 1 1403.58 696)">
   <path d="M46.2402 4.15039C67.7734 4.15039 85.6934-13.7207 85.6934-35.2539C85.6934-56.7871 67.7246-74.6582 46.1914-74.6582C24.707-74.6582 6.83594-56.7871 6.83594-35.2539C6.83594-13.7207 24.7559 4.15039 46.2402 4.15039ZM45.8008-48.7793C42.627-48.7793 40.0879-51.3184 40.0879-54.4922C40.0879-57.7148 42.627-60.2539 45.8008-60.2539C48.9746-60.2539 51.4648-57.7148 51.4648-54.4922C51.4648-51.3184 48.9746-48.7793 45.8008-48.7793ZM39.3555-13.2324C37.5-13.2324 36.084-14.5508 36.084-16.4062C36.084-18.1641 37.5-19.5801 39.3555-19.5801L43.7988-19.5801L43.7988-36.2305L40.0879-36.2305C38.3301-36.2305 36.8652-37.5977 36.8652-39.4531C36.8652-41.2109 38.3301-42.627 40.0879-42.627L47.5098-42.627C49.8047-42.627 51.0254-40.9668 51.0254-38.4766L51.0254-19.5801L55.4688-19.5801C57.2754-19.5801 58.7402-18.1641 58.7402-16.4062C58.7402-14.5508 57.2754-13.2324 55.4688-13.2324Z"/>
  </g>
  <g id="Light-S" transform="matrix(1 0 0 1 1107.6 696)">
   <path d="M45.5078 3.41797C66.6992 3.41797 84.2285-14.0625 84.2285-35.2539C84.2285-56.4453 66.6504-73.9258 45.5078-73.9258C24.3164-73.9258 6.83594-56.4453 6.83594-35.2539C6.83594-14.0625 24.3652 3.41797 45.5078 3.41797ZM45.2148-49.5605C42.5781-49.5605 40.4785-51.6602 40.4785-54.2969C40.4785-56.9824 42.5781-59.082 45.2148-59.082C47.8516-59.082 49.9023-56.9824 49.9023-54.2969C49.9023-51.6602 47.8516-49.5605 45.2148-49.5605ZM38.5742-13.7207C37.1094-13.7207 35.9863-14.7461 35.9863-16.2109C35.9863-17.5781 37.1094-18.7012 38.5742-18.7012L43.7988-18.7012L43.7988-37.793L39.1113-37.793C37.6953-37.793 36.5723-38.8184 36.5723-40.2832C36.5723-41.6504 37.6953-42.7734 39.1113-42.7734L46.582-42.7734C48.3887-42.7734 49.3164-41.5039 49.3164-39.6484L49.3164-18.7012L54.541-18.7012C56.0059-18.7012 57.1289-17.5781 57.1289-16.2109C57.1289-14.7461 56.0059-13.7207 54.541-13.7207Z"/>
  </g>
  <g id="Thin-S" transform="matrix(1 0 0 1 811.867 696)">
   <path d="M44.5801 2.49023C65.2832 2.49023 82.2754-14.5508 82.2754-35.2539C82.2754-55.957 65.2344-72.998 44.5312-72.998C23.8281-72.998 6.83594-55.957 6.83594-35.2539C6.83594-14.5508 23.877 2.49023 44.5801 2.49023ZM44.4336-50.6348C42.5293-50.6348 40.9668-52.1484 40.9668-54.0527C40.9668-56.0059 42.5293-57.5684 44.4336-57.5684C46.3379-57.5684 47.9004-56.0059 47.9004-54.0527C47.9004-52.1484 46.3379-50.6348 44.4336-50.6348ZM37.5-14.3555C36.5234-14.3555 35.8887-15.0391 35.8887-15.9668C35.8887-16.7969 36.5234-17.5293 37.5-17.5293L43.75-17.5293L43.75-39.7949L37.8418-39.7949C36.9141-39.7949 36.2305-40.4785 36.2305-41.4062C36.2305-42.2363 36.9141-42.9688 37.8418-42.9688L45.4102-42.9688C46.4844-42.9688 47.1191-42.1875 47.1191-41.1133L47.1191-17.5293L53.3691-17.5293C54.3457-17.5293 55.0293-16.7969 55.0293-15.9668C55.0293-15.0391 54.3457-14.3555 53.3691-14.3555Z"/>
  </g>
  <g id="Ultralight-S" transform="matrix(1 0 0 1 515.644 696)">
   <path d="M44.043 1.95312C64.502 1.95312 81.2988-14.7949 81.2988-35.2539C81.2988-55.7129 64.502-72.4609 44.043-72.4609C23.584-72.4609 6.83594-55.7129 6.83594-35.2539C6.83594-14.7949 23.584 1.95312 44.043 1.95312ZM44.043-51.1719C42.4805-51.1719 41.2109-52.3926 41.2109-53.9551C41.2109-55.4688 42.4805-56.7871 44.043-56.7871C45.6055-56.7871 46.875-55.4688 46.875-53.9551C46.875-52.3926 45.6055-51.1719 44.043-51.1719ZM36.9629-14.6484C36.2305-14.6484 35.791-15.1855 35.791-15.8203C35.791-16.4062 36.2305-16.9434 36.9629-16.9434L43.75-16.9434L43.75-40.8203L37.1582-40.8203C36.4746-40.8203 36.0352-41.3574 36.0352-41.9434C36.0352-42.5781 36.4746-43.0664 37.1582-43.0664L44.8242-43.0664C45.5566-43.0664 45.9473-42.5293 45.9473-41.8945L45.9473-16.9434L52.7832-16.9434C53.4668-16.9434 53.9062-16.4062 53.9062-15.8203C53.9062-15.1855 53.4668-14.6484 52.7832-14.6484Z"/>
  </g>
 </g>
</svg>
