<?xml version="1.0" encoding="UTF-8"?>
<!--Generator: Apple Native CoreSVG 123-->
<!DOCTYPE svg
PUBLIC "-//W3C//DTD SVG 1.1//EN"
       "http://www.w3.org/Graphics/SVG/1.1/DTD/svg11.dtd">
<svg version="1.1" xmlns="http://www.w3.org/2000/svg" xmlns:xlink="http://www.w3.org/1999/xlink" width="3300" height="2200">
 <!--glyph: "uni100286.medium", point size: 100.000000, font version: "Version 15.0d7e11", template writer version: "5"-->
 <g id="Notes">
  <rect height="2200" id="artboard" style="fill:white;opacity:1" width="3300" x="0" y="0"/>
  <line id="" style="fill:none;stroke:black;opacity:1;stroke-width:0.5;" x1="263" x2="3036" y1="292" y2="292"/>
  <text style="stroke:none;fill:black;font-family:-apple-system,&quot;SF Pro Display&quot;,&quot;SF Pro Text&quot;,Helvetica,sans-serif;font-weight:bold;" transform="matrix(1 0 0 1 263 322)">Weight/Scale Variations</text>
  <text style="stroke:none;fill:black;font-family:-apple-system,&quot;SF Pro Display&quot;,&quot;SF Pro Text&quot;,Helvetica,sans-serif;text-anchor:middle;" transform="matrix(1 0 0 1 559.711 322)">Ultralight</text>
  <text style="stroke:none;fill:black;font-family:-apple-system,&quot;SF Pro Display&quot;,&quot;SF Pro Text&quot;,Helvetica,sans-serif;text-anchor:middle;" transform="matrix(1 0 0 1 856.422 322)">Thin</text>
  <text style="stroke:none;fill:black;font-family:-apple-system,&quot;SF Pro Display&quot;,&quot;SF Pro Text&quot;,Helvetica,sans-serif;text-anchor:middle;" transform="matrix(1 0 0 1 1153.13 322)">Light</text>
  <text style="stroke:none;fill:black;font-family:-apple-system,&quot;SF Pro Display&quot;,&quot;SF Pro Text&quot;,Helvetica,sans-serif;text-anchor:middle;" transform="matrix(1 0 0 1 1449.84 322)">Regular</text>
  <text style="stroke:none;fill:black;font-family:-apple-system,&quot;SF Pro Display&quot;,&quot;SF Pro Text&quot;,Helvetica,sans-serif;text-anchor:middle;" transform="matrix(1 0 0 1 1746.56 322)">Medium</text>
  <text style="stroke:none;fill:black;font-family:-apple-system,&quot;SF Pro Display&quot;,&quot;SF Pro Text&quot;,Helvetica,sans-serif;text-anchor:middle;" transform="matrix(1 0 0 1 2043.27 322)">Semibold</text>
  <text style="stroke:none;fill:black;font-family:-apple-system,&quot;SF Pro Display&quot;,&quot;SF Pro Text&quot;,Helvetica,sans-serif;text-anchor:middle;" transform="matrix(1 0 0 1 2339.98 322)">Bold</text>
  <text style="stroke:none;fill:black;font-family:-apple-system,&quot;SF Pro Display&quot;,&quot;SF Pro Text&quot;,Helvetica,sans-serif;text-anchor:middle;" transform="matrix(1 0 0 1 2636.69 322)">Heavy</text>
  <text style="stroke:none;fill:black;font-family:-apple-system,&quot;SF Pro Display&quot;,&quot;SF Pro Text&quot;,Helvetica,sans-serif;text-anchor:middle;" transform="matrix(1 0 0 1 2933.4 322)">Black</text>
  <line id="" style="fill:none;stroke:black;opacity:1;stroke-width:0.5;" x1="263" x2="3036" y1="1903" y2="1903"/>
  <g id="" transform="matrix(1 0 0 1 263 1933)">
   <path d="M 9.24805 0.830078 C 13.5547 0.830078 17.1387 -2.74414 17.1387 -7.05078 C 17.1387 -11.3574 13.5449 -14.9316 9.23828 -14.9316 C 4.94141 -14.9316 1.36719 -11.3574 1.36719 -7.05078 C 1.36719 -2.74414 4.95117 0.830078 9.24805 0.830078 Z M 9.24805 -0.654297 C 5.70312 -0.654297 2.87109 -3.49609 2.87109 -7.05078 C 2.87109 -10.6055 5.69336 -13.4473 9.23828 -13.4473 C 12.793 -13.4473 15.6348 -10.6055 15.6445 -7.05078 C 15.6543 -3.49609 12.8027 -0.654297 9.24805 -0.654297 Z M 9.22852 -3.42773 C 9.69727 -3.42773 9.9707 -3.74023 9.9707 -4.25781 L 9.9707 -6.31836 L 12.1973 -6.31836 C 12.6953 -6.31836 13.0371 -6.57227 13.0371 -7.04102 C 13.0371 -7.51953 12.7148 -7.7832 12.1973 -7.7832 L 9.9707 -7.7832 L 9.9707 -10.0098 C 9.9707 -10.5273 9.69727 -10.8496 9.22852 -10.8496 C 8.75977 -10.8496 8.50586 -10.5078 8.50586 -10.0098 L 8.50586 -7.7832 L 6.29883 -7.7832 C 5.78125 -7.7832 5.44922 -7.51953 5.44922 -7.04102 C 5.44922 -6.57227 5.80078 -6.31836 6.29883 -6.31836 L 8.50586 -6.31836 L 8.50586 -4.25781 C 8.50586 -3.75977 8.75977 -3.42773 9.22852 -3.42773 Z"/>
  </g>
  <g id="" transform="matrix(1 0 0 1 281.506 1933)">
   <path d="M 11.709 2.91016 C 17.1582 2.91016 21.6699 -1.60156 21.6699 -7.05078 C 21.6699 -12.4902 17.1484 -17.0117 11.6992 -17.0117 C 6.25977 -17.0117 1.74805 -12.4902 1.74805 -7.05078 C 1.74805 -1.60156 6.26953 2.91016 11.709 2.91016 Z M 11.709 1.25 C 7.09961 1.25 3.41797 -2.44141 3.41797 -7.05078 C 3.41797 -11.6504 7.08984 -15.3516 11.6992 -15.3516 C 16.3086 -15.3516 20 -11.6504 20.0098 -7.05078 C 20.0195 -2.44141 16.3184 1.25 11.709 1.25 Z M 11.6895 -2.41211 C 12.207 -2.41211 12.5195 -2.77344 12.5195 -3.33984 L 12.5195 -6.23047 L 15.5762 -6.23047 C 16.123 -6.23047 16.5039 -6.51367 16.5039 -7.03125 C 16.5039 -7.55859 16.1426 -7.86133 15.5762 -7.86133 L 12.5195 -7.86133 L 12.5195 -10.9277 C 12.5195 -11.5039 12.207 -11.8555 11.6895 -11.8555 C 11.1719 -11.8555 10.8789 -11.4844 10.8789 -10.9277 L 10.8789 -7.86133 L 7.83203 -7.86133 C 7.26562 -7.86133 6.89453 -7.55859 6.89453 -7.03125 C 6.89453 -6.51367 7.28516 -6.23047 7.83203 -6.23047 L 10.8789 -6.23047 L 10.8789 -3.33984 C 10.8789 -2.79297 11.1719 -2.41211 11.6895 -2.41211 Z"/>
  </g>
  <g id="" transform="matrix(1 0 0 1 304.924 1933)">
   <path d="M 14.9707 5.67383 C 21.9336 5.67383 27.6953 -0.078125 27.6953 -7.04102 C 27.6953 -14.0039 21.9238 -19.7559 14.9609 -19.7559 C 8.00781 -19.7559 2.25586 -14.0039 2.25586 -7.04102 C 2.25586 -0.078125 8.01758 5.67383 14.9707 5.67383 Z M 14.9707 3.85742 C 8.93555 3.85742 4.08203 -1.00586 4.08203 -7.04102 C 4.08203 -13.0762 8.92578 -17.9395 14.9609 -17.9395 C 21.0059 -17.9395 25.8594 -13.0762 25.8691 -7.04102 C 25.8789 -1.00586 21.0156 3.85742 14.9707 3.85742 Z M 14.9512 -1.06445 C 15.5176 -1.06445 15.8691 -1.45508 15.8691 -2.06055 L 15.8691 -6.13281 L 20.1074 -6.13281 C 20.6934 -6.13281 21.1133 -6.46484 21.1133 -7.02148 C 21.1133 -7.59766 20.7227 -7.93945 20.1074 -7.93945 L 15.8691 -7.93945 L 15.8691 -12.1875 C 15.8691 -12.8027 15.5176 -13.1934 14.9512 -13.1934 C 14.3848 -13.1934 14.0625 -12.7832 14.0625 -12.1875 L 14.0625 -7.93945 L 9.83398 -7.93945 C 9.21875 -7.93945 8.80859 -7.59766 8.80859 -7.02148 C 8.80859 -6.46484 9.23828 -6.13281 9.83398 -6.13281 L 14.0625 -6.13281 L 14.0625 -2.06055 C 14.0625 -1.47461 14.3848 -1.06445 14.9512 -1.06445 Z"/>
  </g>
  <text style="stroke:none;fill:black;font-family:-apple-system,&quot;SF Pro Display&quot;,&quot;SF Pro Text&quot;,Helvetica,sans-serif;font-weight:bold;" transform="matrix(1 0 0 1 263 1953)">Design Variations</text>
  <text style="stroke:none;fill:black;font-family:-apple-system,&quot;SF Pro Display&quot;,&quot;SF Pro Text&quot;,Helvetica,sans-serif;" transform="matrix(1 0 0 1 263 1971)">Symbols are supported in up to nine weights and three scales.</text>
  <text style="stroke:none;fill:black;font-family:-apple-system,&quot;SF Pro Display&quot;,&quot;SF Pro Text&quot;,Helvetica,sans-serif;" transform="matrix(1 0 0 1 263 1989)">For optimal layout with text and other symbols, vertically align</text>
  <text style="stroke:none;fill:black;font-family:-apple-system,&quot;SF Pro Display&quot;,&quot;SF Pro Text&quot;,Helvetica,sans-serif;" transform="matrix(1 0 0 1 263 2007)">symbols with the adjacent text.</text>
  <rect height="14" id="" style="fill:#00AEEF;stroke:none;opacity:0.4;" width="3" x="776" y="1919"/>
  <g id="" transform="matrix(1 0 0 1 779 1933)">
   <path d="M 10.5273 0 L 12.373 0 L 7.17773 -14.0918 L 5.43945 -14.0918 L 0.244141 0 L 2.08984 0 L 3.50586 -4.0332 L 9.11133 -4.0332 Z M 6.2793 -11.9531 L 6.33789 -11.9531 L 8.59375 -5.52734 L 4.02344 -5.52734 Z"/>
  </g>
  <rect height="14" id="" style="fill:#00AEEF;stroke:none;opacity:0.4;" width="3" x="791.617" y="1919"/>
  <text style="stroke:none;fill:black;font-family:-apple-system,&quot;SF Pro Display&quot;,&quot;SF Pro Text&quot;,Helvetica,sans-serif;font-weight:bold;" transform="matrix(1 0 0 1 776 1953)">Margins</text>
  <text style="stroke:none;fill:black;font-family:-apple-system,&quot;SF Pro Display&quot;,&quot;SF Pro Text&quot;,Helvetica,sans-serif;" transform="matrix(1 0 0 1 776 1971)">Leading and trailing margins on the left and right side of each symbol</text>
  <text style="stroke:none;fill:black;font-family:-apple-system,&quot;SF Pro Display&quot;,&quot;SF Pro Text&quot;,Helvetica,sans-serif;" transform="matrix(1 0 0 1 776 1989)">can be adjusted by modifying the width of the blue rectangles.</text>
  <text style="stroke:none;fill:black;font-family:-apple-system,&quot;SF Pro Display&quot;,&quot;SF Pro Text&quot;,Helvetica,sans-serif;" transform="matrix(1 0 0 1 776 2007)">Modifications are automatically applied proportionally to all</text>
  <text style="stroke:none;fill:black;font-family:-apple-system,&quot;SF Pro Display&quot;,&quot;SF Pro Text&quot;,Helvetica,sans-serif;" transform="matrix(1 0 0 1 776 2025)">scales and weights.</text>
  <g id="" transform="matrix(1 0 0 1 1289 1933)">
   <path d="M 2.83203 3.11523 L 4.375 4.6582 C 5.22461 5.48828 6.19141 5.41992 7.06055 4.46289 L 17.2754 -6.66016 C 17.7051 -6.36719 18.0957 -6.37695 18.5645 -6.47461 L 19.6094 -6.68945 L 20.3027 -5.99609 L 20.2539 -5.47852 C 20.1855 -4.95117 20.3516 -4.53125 20.8496 -4.0332 L 21.6602 -3.22266 C 22.168 -2.71484 22.8223 -2.68555 23.3008 -3.16406 L 26.5527 -6.41602 C 27.0312 -6.89453 27.0117 -7.54883 26.5039 -8.05664 L 25.6836 -8.87695 C 25.1855 -9.375 24.7754 -9.55078 24.2383 -9.47266 L 23.7109 -9.41406 L 23.0566 -10.0781 L 23.3398 -11.2207 C 23.4863 -11.7871 23.3398 -12.2559 22.7148 -12.8613 L 20.3027 -15.2539 C 16.7578 -18.7793 12.2266 -18.6719 9.11133 -15.5371 C 8.69141 -15.1074 8.64258 -14.5215 8.91602 -14.0918 C 9.15039 -13.7207 9.62891 -13.4961 10.2734 -13.6621 C 11.7871 -14.043 13.3008 -13.9258 14.7852 -12.9199 L 14.1602 -11.3379 C 13.9258 -10.752 13.9453 -10.2734 14.1797 -9.83398 L 3.01758 0.439453 C 2.08008 1.30859 1.97266 2.25586 2.83203 3.11523 Z M 10.6738 -15.1465 C 13.3398 -17.1387 16.6504 -16.8262 19.0527 -14.4141 L 21.6797 -11.8066 C 21.9141 -11.5723 21.9434 -11.3867 21.8848 -11.0938 L 21.5039 -9.53125 L 23.0762 -7.95898 L 24.043 -8.04688 C 24.3262 -8.07617 24.4141 -8.05664 24.6387 -7.83203 L 25.2637 -7.20703 L 22.5098 -4.46289 L 21.8848 -5.07812 C 21.6602 -5.30273 21.6406 -5.40039 21.6699 -5.68359 L 21.7578 -6.64062 L 20.1953 -8.20312 L 18.5742 -7.89062 C 18.291 -7.83203 18.1445 -7.83203 17.9102 -8.07617 L 15.7324 -10.2539 C 15.5078 -10.4883 15.4785 -10.625 15.6055 -10.9473 L 16.5527 -13.2227 C 14.9512 -14.7559 12.8418 -15.6055 10.8008 -14.9512 C 10.7129 -14.9219 10.6445 -14.9414 10.6152 -14.9805 C 10.5859 -15.0293 10.5859 -15.0781 10.6738 -15.1465 Z M 4.10156 2.41211 C 3.61328 1.91406 3.78906 1.61133 4.12109 1.30859 L 15.0781 -8.80859 L 16.3086 -7.57812 L 6.15234 3.34961 C 5.84961 3.68164 5.46875 3.7793 5.06836 3.37891 Z"/>
  </g>
  <text style="stroke:none;fill:black;font-family:-apple-system,&quot;SF Pro Display&quot;,&quot;SF Pro Text&quot;,Helvetica,sans-serif;font-weight:bold;" transform="matrix(1 0 0 1 1289 1953)">Exporting</text>
  <text style="stroke:none;fill:black;font-family:-apple-system,&quot;SF Pro Display&quot;,&quot;SF Pro Text&quot;,Helvetica,sans-serif;" transform="matrix(1 0 0 1 1289 1971)">Symbols should be outlined when exporting to ensure the</text>
  <text style="stroke:none;fill:black;font-family:-apple-system,&quot;SF Pro Display&quot;,&quot;SF Pro Text&quot;,Helvetica,sans-serif;" transform="matrix(1 0 0 1 1289 1989)">design is preserved when submitting to Xcode.</text>
  <text id="template-version" style="stroke:none;fill:black;font-family:-apple-system,&quot;SF Pro Display&quot;,&quot;SF Pro Text&quot;,Helvetica,sans-serif;text-anchor:end;" transform="matrix(1 0 0 1 3036 1933)">Template v.1.0</text>
  <text style="stroke:none;fill:black;font-family:-apple-system,&quot;SF Pro Display&quot;,&quot;SF Pro Text&quot;,Helvetica,sans-serif;text-anchor:end;" transform="matrix(1 0 0 1 3036 1951)">Generated from pause.fill</text>
  <text style="stroke:none;fill:black;font-family:-apple-system,&quot;SF Pro Display&quot;,&quot;SF Pro Text&quot;,Helvetica,sans-serif;text-anchor:end;" transform="matrix(1 0 0 1 3036 1969)">Typeset at 100 points</text>
  <text style="stroke:none;fill:black;font-family:-apple-system,&quot;SF Pro Display&quot;,&quot;SF Pro Text&quot;,Helvetica,sans-serif;" transform="matrix(1 0 0 1 263 726)">Small</text>
  <text style="stroke:none;fill:black;font-family:-apple-system,&quot;SF Pro Display&quot;,&quot;SF Pro Text&quot;,Helvetica,sans-serif;" transform="matrix(1 0 0 1 263 1156)">Medium</text>
  <text style="stroke:none;fill:black;font-family:-apple-system,&quot;SF Pro Display&quot;,&quot;SF Pro Text&quot;,Helvetica,sans-serif;" transform="matrix(1 0 0 1 263 1586)">Large</text>
 </g>
 <g id="Guides">
  <g id="H-reference" style="fill:#27AAE1;stroke:none;" transform="matrix(1 0 0 1 339 696)">
   <path d="M 54.9316 0 L 57.666 0 L 30.5664 -70.459 L 28.0762 -70.459 L 0.976562 0 L 3.66211 0 L 12.9395 -24.4629 L 45.7031 -24.4629 Z M 29.1992 -67.0898 L 29.4434 -67.0898 L 44.8242 -26.709 L 13.8184 -26.709 Z"/>
  </g>
  <line id="Baseline-S" style="fill:none;stroke:#27AAE1;opacity:1;stroke-width:0.577;" x1="263" x2="3036" y1="696" y2="696"/>
  <line id="Capline-S" style="fill:none;stroke:#27AAE1;opacity:1;stroke-width:0.577;" x1="263" x2="3036" y1="625.541" y2="625.541"/>
  <g id="H-reference" style="fill:#27AAE1;stroke:none;" transform="matrix(1 0 0 1 339 1126)">
   <path d="M 54.9316 0 L 57.666 0 L 30.5664 -70.459 L 28.0762 -70.459 L 0.976562 0 L 3.66211 0 L 12.9395 -24.4629 L 45.7031 -24.4629 Z M 29.1992 -67.0898 L 29.4434 -67.0898 L 44.8242 -26.709 L 13.8184 -26.709 Z"/>
  </g>
  <line id="Baseline-M" style="fill:none;stroke:#27AAE1;opacity:1;stroke-width:0.577;" x1="263" x2="3036" y1="1126" y2="1126"/>
  <line id="Capline-M" style="fill:none;stroke:#27AAE1;opacity:1;stroke-width:0.577;" x1="263" x2="3036" y1="1055.54" y2="1055.54"/>
  <g id="H-reference" style="fill:#27AAE1;stroke:none;" transform="matrix(1 0 0 1 339 1556)">
   <path d="M 54.9316 0 L 57.666 0 L 30.5664 -70.459 L 28.0762 -70.459 L 0.976562 0 L 3.66211 0 L 12.9395 -24.4629 L 45.7031 -24.4629 Z M 29.1992 -67.0898 L 29.4434 -67.0898 L 44.8242 -26.709 L 13.8184 -26.709 Z"/>
  </g>
  <line id="Baseline-L" style="fill:none;stroke:#27AAE1;opacity:1;stroke-width:0.577;" x1="263" x2="3036" y1="1556" y2="1556"/>
  <line id="Capline-L" style="fill:none;stroke:#27AAE1;opacity:1;stroke-width:0.577;" x1="263" x2="3036" y1="1485.54" y2="1485.54"/>
  <rect height="119.336" id="left-margin" style="fill:#00AEEF;stroke:none;opacity:0.4;" width="12.4512" x="1407.61" y="1030.79"/>
  <rect height="119.336" id="right-margin" style="fill:#00AEEF;stroke:none;opacity:0.4;" width="12.4512" x="1479.63" y="1030.79"/>
 </g>
 <g id="Symbols">
  <g id="Black-L" transform="matrix(1 0 0 1 2870.7 1556)">
   <path d="M 27.3438 20.752 L 43.6035 20.752 C 51.0742 20.752 54.8828 16.9434 54.8828 9.47266 L 54.8828 -79.9316 C 54.8828 -87.2559 51.0742 -90.9668 43.6035 -91.2109 L 27.3438 -91.2109 C 19.873 -91.2109 16.0645 -87.4023 16.0645 -79.9316 L 16.0645 9.47266 C 15.918 16.9434 19.6777 20.752 27.3438 20.752 Z M 81.7871 20.752 L 98.0469 20.752 C 105.518 20.752 109.326 16.9434 109.326 9.47266 L 109.326 -79.9316 C 109.326 -87.2559 105.518 -91.2109 98.0469 -91.2109 L 81.7871 -91.2109 C 74.3164 -91.2109 70.5078 -87.4023 70.5078 -79.9316 L 70.5078 9.47266 C 70.5078 16.9434 74.1699 20.752 81.7871 20.752 Z"/>
  </g>
  <g id="Heavy-L" transform="matrix(1 0 0 1 2576.24 1556)">
   <path d="M 26.5137 19.4824 L 42.2852 19.4824 C 49.2188 19.4824 52.7344 15.9668 52.7344 9.0332 L 52.7344 -79.4922 C 52.7344 -86.3281 49.2188 -89.7461 42.2852 -89.9414 L 26.5137 -89.9414 C 19.5801 -89.9414 16.0645 -86.4258 16.0645 -79.4922 L 16.0645 9.0332 C 15.918 15.9668 19.4336 19.4824 26.5137 19.4824 Z M 78.6133 19.4824 L 94.3848 19.4824 C 101.318 19.4824 104.834 15.9668 104.834 9.0332 L 104.834 -79.4922 C 104.834 -86.3281 101.318 -89.9414 94.3848 -89.9414 L 78.6133 -89.9414 C 71.6797 -89.9414 68.1641 -86.4258 68.1641 -79.4922 L 68.1641 9.0332 C 68.1641 15.9668 71.5332 19.4824 78.6133 19.4824 Z"/>
  </g>
  <g id="Bold-L" transform="matrix(1 0 0 1 2282.07 1556)">
   <path d="M 25.5859 18.0176 L 40.7715 18.0176 C 47.1191 18.0176 50.293 14.8438 50.293 8.49609 L 50.293 -78.9551 C 50.293 -85.3516 47.1191 -88.3789 40.7715 -88.5254 L 25.5859 -88.5254 C 19.2871 -88.5254 16.0645 -85.3027 16.0645 -78.9551 L 16.0645 8.49609 C 15.9668 14.8438 19.1895 18.0176 25.5859 18.0176 Z M 75.0488 18.0176 L 90.2344 18.0176 C 96.582 18.0176 99.7559 14.8438 99.7559 8.49609 L 99.7559 -78.9551 C 99.7559 -85.3516 96.582 -88.5254 90.2344 -88.5254 L 75.0488 -88.5254 C 68.75 -88.5254 65.5273 -85.3027 65.5273 -78.9551 L 65.5273 8.49609 C 65.5273 14.8438 68.6523 18.0176 75.0488 18.0176 Z"/>
  </g>
  <g id="Semibold-L" transform="matrix(1 0 0 1 1987.09 1556)">
   <path d="M 24.9512 17.041 L 39.7461 17.041 C 45.6543 17.041 48.6328 14.0625 48.6328 8.1543 L 48.6328 -78.6133 C 48.6328 -84.6191 45.6543 -87.4512 39.7461 -87.5488 L 24.9512 -87.5488 C 19.043 -87.5488 16.0645 -84.5703 16.0645 -78.6133 L 16.0645 8.1543 C 16.0156 14.0625 18.9941 17.041 24.9512 17.041 Z M 72.6074 17.041 L 87.4023 17.041 C 93.3105 17.041 96.2891 14.0625 96.2891 8.1543 L 96.2891 -78.6133 C 96.2891 -84.6191 93.3105 -87.5488 87.4023 -87.5488 L 72.6074 -87.5488 C 66.6992 -87.5488 63.7207 -84.5703 63.7207 -78.6133 L 63.7207 8.1543 C 63.7207 14.0625 66.6504 17.041 72.6074 17.041 Z"/>
  </g>
  <g id="Medium-L" transform="matrix(1 0 0 1 1691.7 1556)">
   <path d="M 24.5117 16.3086 L 38.9648 16.3086 C 44.5801 16.3086 47.4121 13.4766 47.4121 7.86133 L 47.4121 -78.3691 C 47.4121 -84.1309 44.5801 -86.7676 38.9648 -86.7676 L 24.5117 -86.7676 C 18.8965 -86.7676 16.0645 -83.9844 16.0645 -78.3691 L 16.0645 7.86133 C 16.0156 13.4766 18.8477 16.3086 24.5117 16.3086 Z M 70.752 16.3086 L 85.2539 16.3086 C 90.8691 16.3086 93.6523 13.4766 93.6523 7.86133 L 93.6523 -78.3691 C 93.6523 -84.1309 90.8691 -86.7676 85.2539 -86.7676 L 70.752 -86.7676 C 65.1367 -86.7676 62.3535 -83.9844 62.3535 -78.3691 L 62.3535 7.86133 C 62.3535 13.4766 65.1367 16.3086 70.752 16.3086 Z"/>
  </g>
  <g id="Regular-L" transform="matrix(1 0 0 1 1396.7 1556)">
   <path d="M 23.877 15.332 L 37.9395 15.332 C 43.1641 15.332 45.752 12.7441 45.752 7.51953 L 45.752 -78.0273 C 45.752 -83.3984 43.1641 -85.8398 37.9395 -85.8398 L 23.877 -85.8398 C 18.6523 -85.8398 16.0645 -83.2031 16.0645 -78.0273 L 16.0645 7.51953 C 16.0645 12.7441 18.6523 15.332 23.877 15.332 Z M 68.3594 15.332 L 82.4219 15.332 C 87.6465 15.332 90.2344 12.7441 90.2344 7.51953 L 90.2344 -78.0273 C 90.2344 -83.3984 87.6465 -85.8398 82.4219 -85.8398 L 68.3594 -85.8398 C 63.1348 -85.8398 60.5469 -83.2031 60.5469 -78.0273 L 60.5469 7.51953 C 60.5469 12.7441 63.1348 15.332 68.3594 15.332 Z"/>
  </g>
  <g id="Light-L" transform="matrix(1 0 0 1 1101.86 1556)">
   <path d="M 23.0469 14.3066 L 36.8164 14.3066 C 41.5527 14.3066 43.7988 12.1094 43.7988 7.32422 L 43.7988 -77.832 C 43.7988 -82.7148 41.5527 -84.8145 36.8164 -84.8145 L 23.0469 -84.8145 C 18.3105 -84.8145 16.0645 -82.6172 16.0645 -77.832 L 16.0645 7.32422 C 16.0645 12.1094 18.3105 14.3066 23.0469 14.3066 Z M 65.7715 14.3066 L 79.4922 14.3066 C 84.2773 14.3066 86.4746 12.1094 86.4746 7.32422 L 86.4746 -77.832 C 86.4746 -82.7148 84.2773 -84.8145 79.4922 -84.8145 L 65.7715 -84.8145 C 60.9863 -84.8145 58.7402 -82.6172 58.7402 -77.832 L 58.7402 7.32422 C 58.7402 12.1094 60.9863 14.3066 65.7715 14.3066 Z"/>
  </g>
  <g id="Thin-L" transform="matrix(1 0 0 1 807.619 1556)">
   <path d="M 21.9727 12.9883 L 35.3027 12.9883 C 39.4531 12.9883 41.2109 11.2793 41.2109 7.08008 L 41.2109 -77.6367 C 41.2109 -81.8359 39.4531 -83.5449 35.3027 -83.5449 L 21.9727 -83.5449 C 17.8223 -83.5449 16.0645 -81.7871 16.0645 -77.6367 L 16.0645 7.08008 C 16.0645 11.2793 17.8223 12.9883 21.9727 12.9883 Z M 62.3047 12.9883 L 75.6348 12.9883 C 79.834 12.9883 81.543 11.2793 81.543 7.08008 L 81.543 -77.6367 C 81.543 -81.8359 79.834 -83.5449 75.6348 -83.5449 L 62.3047 -83.5449 C 58.1543 -83.5449 56.3965 -81.7871 56.3965 -77.6367 L 56.3965 7.08008 C 56.3965 11.2793 58.1543 12.9883 62.3047 12.9883 Z"/>
  </g>
  <g id="Ultralight-L" transform="matrix(1 0 0 1 512.177 1556)">
   <path d="M 21.4355 12.3535 L 34.5215 12.3535 C 38.3789 12.3535 39.8926 10.8398 39.8926 6.98242 L 39.8926 -77.5391 C 39.8926 -81.3477 38.3789 -82.8613 34.5215 -82.8613 L 21.4355 -82.8613 C 17.5293 -82.8613 16.0645 -81.3965 16.0645 -77.5391 L 16.0645 6.98242 C 16.0645 10.8398 17.5293 12.3535 21.4355 12.3535 Z M 60.5957 12.3535 L 73.6328 12.3535 C 77.5391 12.3535 79.0039 10.8398 79.0039 6.98242 L 79.0039 -77.5391 C 79.0039 -81.3477 77.5391 -82.8613 73.6328 -82.8613 L 60.5957 -82.8613 C 56.6895 -82.8613 55.2246 -81.3965 55.2246 -77.5391 L 55.2246 6.98242 C 55.2246 10.8398 56.6895 12.3535 60.5957 12.3535 Z"/>
  </g>
  <g id="Black-M" transform="matrix(1 0 0 1 2882.77 1126)">
   <path d="M 21.875 9.32617 L 35.0098 9.32617 C 41.2598 9.32617 44.3848 6.20117 44.3848 -0.0488281 L 44.3848 -70.4102 C 44.3848 -76.416 41.2598 -79.541 35.0098 -79.7852 L 21.875 -79.7852 C 15.5762 -79.7852 12.4512 -76.6602 12.4512 -70.4102 L 12.4512 -0.0488281 C 12.2559 6.20117 15.3809 9.32617 21.875 9.32617 Z M 66.3086 9.32617 L 79.4434 9.32617 C 85.6934 9.32617 88.8184 6.20117 88.8184 -0.0488281 L 88.8184 -70.4102 C 88.8184 -76.416 85.6934 -79.7852 79.4434 -79.7852 L 66.3086 -79.7852 C 60.0098 -79.7852 56.8848 -76.6602 56.8848 -70.4102 L 56.8848 -0.0488281 C 56.8848 6.20117 59.8145 9.32617 66.3086 9.32617 Z"/>
  </g>
  <g id="Heavy-M" transform="matrix(1 0 0 1 2588.03 1126)">
   <path d="M 21.1914 8.20312 L 33.8379 8.20312 C 39.6484 8.20312 42.5293 5.27344 42.5293 -0.537109 L 42.5293 -69.9219 C 42.5293 -75.5859 39.6484 -78.4668 33.8379 -78.6621 L 21.1914 -78.6621 C 15.3809 -78.6621 12.4512 -75.7324 12.4512 -69.9219 L 12.4512 -0.537109 C 12.3047 5.27344 15.2344 8.20312 21.1914 8.20312 Z M 63.4766 8.20312 L 76.1719 8.20312 C 81.9336 8.20312 84.8633 5.27344 84.8633 -0.537109 L 84.8633 -69.9219 C 84.8633 -75.5859 81.9336 -78.6621 76.1719 -78.6621 L 63.4766 -78.6621 C 57.7148 -78.6621 54.7852 -75.7324 54.7852 -69.9219 L 54.7852 -0.537109 C 54.7852 5.27344 57.5684 8.20312 63.4766 8.20312 Z"/>
  </g>
  <g id="Bold-M" transform="matrix(1 0 0 1 2293.54 1126)">
   <path d="M 20.4102 6.93359 L 32.5195 6.93359 C 37.793 6.93359 40.4785 4.24805 40.4785 -1.02539 L 40.4785 -69.4336 C 40.4785 -74.707 37.793 -77.2461 32.5195 -77.3926 L 20.4102 -77.3926 C 15.1367 -77.3926 12.4512 -74.707 12.4512 -69.4336 L 12.4512 -1.02539 C 12.3535 4.24805 15.0391 6.93359 20.4102 6.93359 Z M 60.3516 6.93359 L 72.4609 6.93359 C 77.7832 6.93359 80.4199 4.24805 80.4199 -1.02539 L 80.4199 -69.4336 C 80.4199 -74.707 77.7832 -77.3926 72.4609 -77.3926 L 60.3516 -77.3926 C 55.0781 -77.3926 52.3926 -74.707 52.3926 -69.4336 L 52.3926 -1.02539 C 52.3926 4.24805 54.9805 6.93359 60.3516 6.93359 Z"/>
  </g>
  <g id="Semibold-M" transform="matrix(1 0 0 1 1998.34 1126)">
   <path d="M 19.873 6.05469 L 31.6406 6.05469 C 36.5723 6.05469 39.0625 3.51562 39.0625 -1.36719 L 39.0625 -69.0918 C 39.0625 -74.0723 36.5723 -76.416 31.6406 -76.5137 L 19.873 -76.5137 C 14.9414 -76.5137 12.4512 -74.0234 12.4512 -69.0918 L 12.4512 -1.36719 C 12.4023 3.51562 14.8926 6.05469 19.873 6.05469 Z M 58.2031 6.05469 L 69.9707 6.05469 C 74.8535 6.05469 77.3926 3.51562 77.3926 -1.36719 L 77.3926 -69.0918 C 77.3926 -74.0723 74.8535 -76.5137 69.9707 -76.5137 L 58.2031 -76.5137 C 53.2715 -76.5137 50.7812 -74.0234 50.7812 -69.0918 L 50.7812 -1.36719 C 50.7812 3.51562 53.2227 6.05469 58.2031 6.05469 Z"/>
  </g>
  <g id="Medium-M" transform="matrix(1 0 0 1 1702.81 1126)">
   <path d="M 19.4824 5.37109 L 30.957 5.37109 C 35.5957 5.37109 37.9883 2.97852 37.9883 -1.66016 L 37.9883 -68.8477 C 37.9883 -73.584 35.5957 -75.8301 30.957 -75.8789 L 19.4824 -75.8789 C 14.8438 -75.8789 12.4512 -73.4863 12.4512 -68.8477 L 12.4512 -1.66016 C 12.4023 2.97852 14.7949 5.37109 19.4824 5.37109 Z M 56.5918 5.37109 L 68.0176 5.37109 C 72.6562 5.37109 75.0488 2.97852 75.0488 -1.66016 L 75.0488 -68.8477 C 75.0488 -73.584 72.6562 -75.8789 68.0176 -75.8789 L 56.5918 -75.8789 C 51.9043 -75.8789 49.5605 -73.4863 49.5605 -68.8477 L 49.5605 -1.66016 C 49.5605 2.97852 51.9043 5.37109 56.5918 5.37109 Z"/>
  </g>
  <g id="Regular-M" transform="matrix(1 0 0 1 1407.61 1126)">
   <path d="M 18.9453 4.54102 L 30.0781 4.54102 C 34.3262 4.54102 36.5723 2.29492 36.5723 -2.00195 L 36.5723 -68.5059 C 36.5723 -72.9492 34.3262 -75 30.0781 -75 L 18.9453 -75 C 14.6973 -75 12.4512 -72.7539 12.4512 -68.5059 L 12.4512 -2.00195 C 12.4512 2.29492 14.6973 4.54102 18.9453 4.54102 Z M 54.4434 4.54102 L 65.5273 4.54102 C 69.8242 4.54102 72.0215 2.29492 72.0215 -2.00195 L 72.0215 -68.5059 C 72.0215 -72.9492 69.8242 -75 65.5273 -75 L 54.4434 -75 C 50.1465 -75 47.9004 -72.7539 47.9004 -68.5059 L 47.9004 -2.00195 C 47.9004 2.29492 50.1465 4.54102 54.4434 4.54102 Z"/>
  </g>
  <g id="Light-M" transform="matrix(1 0 0 1 1112.56 1126)">
   <path d="M 18.2129 3.61328 L 29.0527 3.61328 C 32.9102 3.61328 34.8145 1.75781 34.8145 -2.14844 L 34.8145 -68.3105 C 34.8145 -72.3633 32.9102 -74.1211 29.0527 -74.1211 L 18.2129 -74.1211 C 14.3555 -74.1211 12.4512 -72.2168 12.4512 -68.3105 L 12.4512 -2.14844 C 12.4512 1.75781 14.3555 3.61328 18.2129 3.61328 Z M 52.0996 3.61328 L 62.9395 3.61328 C 66.7969 3.61328 68.7012 1.75781 68.7012 -2.14844 L 68.7012 -68.3105 C 68.7012 -72.3633 66.7969 -74.1211 62.9395 -74.1211 L 52.0996 -74.1211 C 48.2422 -74.1211 46.3379 -72.2168 46.3379 -68.3105 L 46.3379 -2.14844 C 46.3379 1.75781 48.2422 3.61328 52.0996 3.61328 Z"/>
  </g>
  <g id="Thin-M" transform="matrix(1 0 0 1 818.068 1126)">
   <path d="M 17.2852 2.44141 L 27.6855 2.44141 C 31.0547 2.44141 32.4707 0.976562 32.4707 -2.39258 L 32.4707 -68.1152 C 32.4707 -71.5332 31.0547 -72.9492 27.6855 -72.9492 L 17.2852 -72.9492 C 13.916 -72.9492 12.4512 -71.4844 12.4512 -68.1152 L 12.4512 -2.39258 C 12.4512 0.976562 13.916 2.44141 17.2852 2.44141 Z M 49.0234 2.44141 L 59.4727 2.44141 C 62.793 2.44141 64.2578 0.976562 64.2578 -2.39258 L 64.2578 -68.1152 C 64.2578 -71.5332 62.793 -72.9492 59.4727 -72.9492 L 49.0234 -72.9492 C 45.7031 -72.9492 44.2383 -71.4844 44.2383 -68.1152 L 44.2383 -2.39258 C 44.2383 0.976562 45.7031 2.44141 49.0234 2.44141 Z"/>
  </g>
  <g id="Ultralight-M" transform="matrix(1 0 0 1 522.48 1126)">
   <path d="M 16.7969 1.85547 L 27.002 1.85547 C 30.0781 1.85547 31.2988 0.585938 31.2988 -2.49023 L 31.2988 -68.0176 C 31.2988 -71.1426 30.0781 -72.3633 27.002 -72.3633 L 16.7969 -72.3633 C 13.6719 -72.3633 12.4512 -71.1426 12.4512 -68.0176 L 12.4512 -2.49023 C 12.4512 0.585938 13.6719 1.85547 16.7969 1.85547 Z M 47.4609 1.85547 L 57.666 1.85547 C 60.791 1.85547 62.0117 0.585938 62.0117 -2.49023 L 62.0117 -68.0176 C 62.0117 -71.1426 60.791 -72.3633 57.666 -72.3633 L 47.4609 -72.3633 C 44.3848 -72.3633 43.1641 -71.1426 43.1641 -68.0176 L 43.1641 -2.49023 C 43.1641 0.585938 44.3848 1.85547 47.4609 1.85547 Z"/>
  </g>
  <g id="Black-S" transform="matrix(1 0 0 1 2893.85 696)">
   <path d="M 17.0898 -0.390625 L 27.3438 -0.390625 C 32.2266 -0.390625 34.668 -2.83203 34.668 -7.71484 L 34.668 -62.7441 C 34.668 -67.4316 32.2266 -69.873 27.3438 -70.0684 L 17.0898 -70.0684 C 12.207 -70.0684 9.76562 -67.627 9.76562 -62.7441 L 9.76562 -7.71484 C 9.61914 -2.83203 12.0605 -0.390625 17.0898 -0.390625 Z M 51.7578 -0.390625 L 62.0117 -0.390625 C 66.8945 -0.390625 69.3359 -2.83203 69.3359 -7.71484 L 69.3359 -62.7441 C 69.3359 -67.4316 66.8945 -70.0684 62.0117 -70.0684 L 51.7578 -70.0684 C 46.875 -70.0684 44.4336 -67.627 44.4336 -62.7441 L 44.4336 -7.71484 C 44.4336 -2.83203 46.7285 -0.390625 51.7578 -0.390625 Z"/>
  </g>
  <g id="Heavy-S" transform="matrix(1 0 0 1 2598.46 696)">
   <path d="M 16.6504 -1.17188 L 26.5625 -1.17188 C 31.1523 -1.17188 33.4473 -3.4668 33.4473 -8.05664 L 33.4473 -62.4023 C 33.4473 -66.8945 31.1523 -69.1406 26.5625 -69.2871 L 16.6504 -69.2871 C 12.0605 -69.2871 9.76562 -66.9922 9.76562 -62.4023 L 9.76562 -8.05664 C 9.66797 -3.4668 11.9629 -1.17188 16.6504 -1.17188 Z M 49.9023 -1.17188 L 59.8145 -1.17188 C 64.3555 -1.17188 66.6992 -3.4668 66.6992 -8.05664 L 66.6992 -62.4023 C 66.6992 -66.8945 64.3555 -69.2871 59.8145 -69.2871 L 49.9023 -69.2871 C 45.3125 -69.2871 43.0176 -66.9922 43.0176 -62.4023 L 43.0176 -8.05664 C 43.0176 -3.4668 45.2148 -1.17188 49.9023 -1.17188 Z"/>
  </g>
  <g id="Bold-S" transform="matrix(1 0 0 1 2303.23 696)">
   <path d="M 16.1621 -2.00195 L 25.6836 -2.00195 C 29.9316 -2.00195 32.0801 -4.19922 32.0801 -8.39844 L 32.0801 -62.0605 C 32.0801 -66.2598 29.9316 -68.3594 25.6836 -68.457 L 16.1621 -68.457 C 11.9629 -68.457 9.76562 -66.2598 9.76562 -62.0605 L 9.76562 -8.39844 C 9.7168 -4.19922 11.8652 -2.00195 16.1621 -2.00195 Z M 47.7539 -2.00195 L 57.3242 -2.00195 C 61.5234 -2.00195 63.7207 -4.19922 63.7207 -8.39844 L 63.7207 -62.0605 C 63.7207 -66.2598 61.5234 -68.457 57.3242 -68.457 L 47.7539 -68.457 C 43.5547 -68.457 41.4062 -66.2598 41.4062 -62.0605 L 41.4062 -8.39844 C 41.4062 -4.19922 43.5059 -2.00195 47.7539 -2.00195 Z"/>
  </g>
  <g id="Semibold-S" transform="matrix(1 0 0 1 2007.55 696)">
   <path d="M 15.8203 -2.63672 L 25.0977 -2.63672 C 29.1016 -2.63672 31.1523 -4.6875 31.1523 -8.64258 L 31.1523 -61.8164 C 31.1523 -65.8203 29.1016 -67.7734 25.0977 -67.8223 L 15.8203 -67.8223 C 11.8652 -67.8223 9.76562 -65.7715 9.76562 -61.8164 L 9.76562 -8.64258 C 9.7168 -4.6875 11.8164 -2.63672 15.8203 -2.63672 Z M 46.3379 -2.63672 L 55.6152 -2.63672 C 59.5703 -2.63672 61.6699 -4.6875 61.6699 -8.64258 L 61.6699 -61.8164 C 61.6699 -65.8203 59.5703 -67.8223 55.6152 -67.8223 L 46.3379 -67.8223 C 42.334 -67.8223 40.2832 -65.7715 40.2832 -61.8164 L 40.2832 -8.64258 C 40.2832 -4.6875 42.2852 -2.63672 46.3379 -2.63672 Z"/>
  </g>
  <g id="Medium-S" transform="matrix(1 0 0 1 1711.62 696)">
   <path d="M 15.5762 -3.07617 L 24.6582 -3.07617 C 28.4668 -3.07617 30.4199 -5.07812 30.4199 -8.83789 L 30.4199 -61.6211 C 30.4199 -65.5273 28.4668 -67.3828 24.6582 -67.3828 L 15.5762 -67.3828 C 11.7676 -67.3828 9.76562 -65.3809 9.76562 -61.6211 L 9.76562 -8.83789 C 9.7168 -5.07812 11.7188 -3.07617 15.5762 -3.07617 Z M 45.2148 -3.07617 L 54.2969 -3.07617 C 58.1055 -3.07617 60.1074 -5.07812 60.1074 -8.83789 L 60.1074 -61.6211 C 60.1074 -65.5273 58.1055 -67.3828 54.2969 -67.3828 L 45.2148 -67.3828 C 41.4062 -67.3828 39.4043 -65.3809 39.4043 -61.6211 L 39.4043 -8.83789 C 39.4043 -5.07812 41.4062 -3.07617 45.2148 -3.07617 Z"/>
  </g>
  <g id="Regular-S" transform="matrix(1 0 0 1 1415.93 696)">
   <path d="M 15.2344 -3.66211 L 24.0723 -3.66211 C 27.5879 -3.66211 29.4922 -5.56641 29.4922 -9.13086 L 29.4922 -61.377 C 29.4922 -65.0879 27.5879 -66.7969 24.0723 -66.7969 L 15.2344 -66.7969 C 11.6699 -66.7969 9.76562 -64.8926 9.76562 -61.377 L 9.76562 -9.13086 C 9.76562 -5.56641 11.6699 -3.66211 15.2344 -3.66211 Z M 43.7988 -3.66211 L 52.6367 -3.66211 C 56.1523 -3.66211 58.0566 -5.56641 58.0566 -9.13086 L 58.0566 -61.377 C 58.0566 -65.0879 56.1523 -66.7969 52.6367 -66.7969 L 43.7988 -66.7969 C 40.2344 -66.7969 38.3301 -64.8926 38.3301 -61.377 L 38.3301 -9.13086 C 38.3301 -5.56641 40.2344 -3.66211 43.7988 -3.66211 Z"/>
  </g>
  <g id="Light-S" transform="matrix(1 0 0 1 1120.69 696)">
   <path d="M 14.5508 -4.44336 L 23.1445 -4.44336 C 26.3672 -4.44336 27.9785 -6.05469 27.9785 -9.27734 L 27.9785 -61.2305 C 27.9785 -64.5508 26.3672 -66.0156 23.1445 -66.0156 L 14.5508 -66.0156 C 11.377 -66.0156 9.76562 -64.4043 9.76562 -61.2305 L 9.76562 -9.27734 C 9.76562 -6.05469 11.377 -4.44336 14.5508 -4.44336 Z M 41.748 -4.44336 L 50.293 -4.44336 C 53.5156 -4.44336 55.127 -6.05469 55.127 -9.27734 L 55.127 -61.2305 C 55.127 -64.5508 53.5156 -66.0156 50.293 -66.0156 L 41.748 -66.0156 C 38.5254 -66.0156 36.9141 -64.4043 36.9141 -61.2305 L 36.9141 -9.27734 C 36.9141 -6.05469 38.5254 -4.44336 41.748 -4.44336 Z"/>
  </g>
  <g id="Thin-S" transform="matrix(1 0 0 1 825.929 696)">
   <path d="M 13.7207 -5.46875 L 21.9727 -5.46875 C 24.707 -5.46875 25.9277 -6.68945 25.9277 -9.42383 L 25.9277 -61.0352 C 25.9277 -63.8184 24.707 -64.9902 21.9727 -64.9902 L 13.7207 -64.9902 C 10.9863 -64.9902 9.76562 -63.7695 9.76562 -61.0352 L 9.76562 -9.42383 C 9.76562 -6.68945 10.9863 -5.46875 13.7207 -5.46875 Z M 39.0137 -5.46875 L 47.2656 -5.46875 C 50 -5.46875 51.2207 -6.68945 51.2207 -9.42383 L 51.2207 -61.0352 C 51.2207 -63.8184 50 -64.9902 47.2656 -64.9902 L 39.0137 -64.9902 C 36.2793 -64.9902 35.0586 -63.7695 35.0586 -61.0352 L 35.0586 -9.42383 C 35.0586 -6.68945 36.2793 -5.46875 39.0137 -5.46875 Z"/>
  </g>
  <g id="Ultralight-S" transform="matrix(1 0 0 1 530.243 696)">
   <path d="M 13.2812 -6.00586 L 21.3379 -6.00586 C 23.8281 -6.00586 24.8535 -7.03125 24.8535 -9.57031 L 24.8535 -60.9375 C 24.8535 -63.4766 23.8281 -64.4531 21.3379 -64.4531 L 13.2812 -64.4531 C 10.791 -64.4531 9.76562 -63.4766 9.76562 -60.9375 L 9.76562 -9.57031 C 9.76562 -7.03125 10.791 -6.00586 13.2812 -6.00586 Z M 37.6465 -6.00586 L 45.6543 -6.00586 C 48.1934 -6.00586 49.1699 -7.03125 49.1699 -9.57031 L 49.1699 -60.9375 C 49.1699 -63.4766 48.1934 -64.4531 45.6543 -64.4531 L 37.6465 -64.4531 C 35.1074 -64.4531 34.082 -63.4766 34.082 -60.9375 L 34.082 -9.57031 C 34.082 -7.03125 35.1074 -6.00586 37.6465 -6.00586 Z"/>
  </g>
 </g>
</svg>
