<?xml version="1.0" encoding="UTF-8"?>
<!--Generator: Apple Native CoreSVG 123-->
<!DOCTYPE svg
PUBLIC "-//W3C//DTD SVG 1.1//EN"
       "http://www.w3.org/Graphics/SVG/1.1/DTD/svg11.dtd">
<svg version="1.1" xmlns="http://www.w3.org/2000/svg" xmlns:xlink="http://www.w3.org/1999/xlink" width="3300" height="2200">
 <!--glyph: "uni1003A0.medium", point size: 100.000000, font version: "Version 15.0d7e11", template writer version: "5"-->
 <g id="Notes">
  <rect height="2200" id="artboard" style="fill:white;opacity:1" width="3300" x="0" y="0"/>
  <line id="" style="fill:none;stroke:black;opacity:1;stroke-width:0.5;" x1="263" x2="3036" y1="292" y2="292"/>
  <text style="stroke:none;fill:black;font-family:-apple-system,&quot;SF Pro Display&quot;,&quot;SF Pro Text&quot;,Helvetica,sans-serif;font-weight:bold;" transform="matrix(1 0 0 1 263 322)">Weight/Scale Variations</text>
  <text style="stroke:none;fill:black;font-family:-apple-system,&quot;SF Pro Display&quot;,&quot;SF Pro Text&quot;,Helvetica,sans-serif;text-anchor:middle;" transform="matrix(1 0 0 1 559.711 322)">Ultralight</text>
  <text style="stroke:none;fill:black;font-family:-apple-system,&quot;SF Pro Display&quot;,&quot;SF Pro Text&quot;,Helvetica,sans-serif;text-anchor:middle;" transform="matrix(1 0 0 1 856.422 322)">Thin</text>
  <text style="stroke:none;fill:black;font-family:-apple-system,&quot;SF Pro Display&quot;,&quot;SF Pro Text&quot;,Helvetica,sans-serif;text-anchor:middle;" transform="matrix(1 0 0 1 1153.13 322)">Light</text>
  <text style="stroke:none;fill:black;font-family:-apple-system,&quot;SF Pro Display&quot;,&quot;SF Pro Text&quot;,Helvetica,sans-serif;text-anchor:middle;" transform="matrix(1 0 0 1 1449.84 322)">Regular</text>
  <text style="stroke:none;fill:black;font-family:-apple-system,&quot;SF Pro Display&quot;,&quot;SF Pro Text&quot;,Helvetica,sans-serif;text-anchor:middle;" transform="matrix(1 0 0 1 1746.56 322)">Medium</text>
  <text style="stroke:none;fill:black;font-family:-apple-system,&quot;SF Pro Display&quot;,&quot;SF Pro Text&quot;,Helvetica,sans-serif;text-anchor:middle;" transform="matrix(1 0 0 1 2043.27 322)">Semibold</text>
  <text style="stroke:none;fill:black;font-family:-apple-system,&quot;SF Pro Display&quot;,&quot;SF Pro Text&quot;,Helvetica,sans-serif;text-anchor:middle;" transform="matrix(1 0 0 1 2339.98 322)">Bold</text>
  <text style="stroke:none;fill:black;font-family:-apple-system,&quot;SF Pro Display&quot;,&quot;SF Pro Text&quot;,Helvetica,sans-serif;text-anchor:middle;" transform="matrix(1 0 0 1 2636.69 322)">Heavy</text>
  <text style="stroke:none;fill:black;font-family:-apple-system,&quot;SF Pro Display&quot;,&quot;SF Pro Text&quot;,Helvetica,sans-serif;text-anchor:middle;" transform="matrix(1 0 0 1 2933.4 322)">Black</text>
  <line id="" style="fill:none;stroke:black;opacity:1;stroke-width:0.5;" x1="263" x2="3036" y1="1903" y2="1903"/>
  <g id="" transform="matrix(1 0 0 1 263 1933)">
   <path d="M 9.24805 0.830078 C 13.5547 0.830078 17.1387 -2.74414 17.1387 -7.05078 C 17.1387 -11.3574 13.5449 -14.9316 9.23828 -14.9316 C 4.94141 -14.9316 1.36719 -11.3574 1.36719 -7.05078 C 1.36719 -2.74414 4.95117 0.830078 9.24805 0.830078 Z M 9.24805 -0.654297 C 5.70312 -0.654297 2.87109 -3.49609 2.87109 -7.05078 C 2.87109 -10.6055 5.69336 -13.4473 9.23828 -13.4473 C 12.793 -13.4473 15.6348 -10.6055 15.6445 -7.05078 C 15.6543 -3.49609 12.8027 -0.654297 9.24805 -0.654297 Z M 9.22852 -3.42773 C 9.69727 -3.42773 9.9707 -3.74023 9.9707 -4.25781 L 9.9707 -6.31836 L 12.1973 -6.31836 C 12.6953 -6.31836 13.0371 -6.57227 13.0371 -7.04102 C 13.0371 -7.51953 12.7148 -7.7832 12.1973 -7.7832 L 9.9707 -7.7832 L 9.9707 -10.0098 C 9.9707 -10.5273 9.69727 -10.8496 9.22852 -10.8496 C 8.75977 -10.8496 8.50586 -10.5078 8.50586 -10.0098 L 8.50586 -7.7832 L 6.29883 -7.7832 C 5.78125 -7.7832 5.44922 -7.51953 5.44922 -7.04102 C 5.44922 -6.57227 5.80078 -6.31836 6.29883 -6.31836 L 8.50586 -6.31836 L 8.50586 -4.25781 C 8.50586 -3.75977 8.75977 -3.42773 9.22852 -3.42773 Z"/>
  </g>
  <g id="" transform="matrix(1 0 0 1 281.506 1933)">
   <path d="M 11.709 2.91016 C 17.1582 2.91016 21.6699 -1.60156 21.6699 -7.05078 C 21.6699 -12.4902 17.1484 -17.0117 11.6992 -17.0117 C 6.25977 -17.0117 1.74805 -12.4902 1.74805 -7.05078 C 1.74805 -1.60156 6.26953 2.91016 11.709 2.91016 Z M 11.709 1.25 C 7.09961 1.25 3.41797 -2.44141 3.41797 -7.05078 C 3.41797 -11.6504 7.08984 -15.3516 11.6992 -15.3516 C 16.3086 -15.3516 20 -11.6504 20.0098 -7.05078 C 20.0195 -2.44141 16.3184 1.25 11.709 1.25 Z M 11.6895 -2.41211 C 12.207 -2.41211 12.5195 -2.77344 12.5195 -3.33984 L 12.5195 -6.23047 L 15.5762 -6.23047 C 16.123 -6.23047 16.5039 -6.51367 16.5039 -7.03125 C 16.5039 -7.55859 16.1426 -7.86133 15.5762 -7.86133 L 12.5195 -7.86133 L 12.5195 -10.9277 C 12.5195 -11.5039 12.207 -11.8555 11.6895 -11.8555 C 11.1719 -11.8555 10.8789 -11.4844 10.8789 -10.9277 L 10.8789 -7.86133 L 7.83203 -7.86133 C 7.26562 -7.86133 6.89453 -7.55859 6.89453 -7.03125 C 6.89453 -6.51367 7.28516 -6.23047 7.83203 -6.23047 L 10.8789 -6.23047 L 10.8789 -3.33984 C 10.8789 -2.79297 11.1719 -2.41211 11.6895 -2.41211 Z"/>
  </g>
  <g id="" transform="matrix(1 0 0 1 304.924 1933)">
   <path d="M 14.9707 5.67383 C 21.9336 5.67383 27.6953 -0.078125 27.6953 -7.04102 C 27.6953 -14.0039 21.9238 -19.7559 14.9609 -19.7559 C 8.00781 -19.7559 2.25586 -14.0039 2.25586 -7.04102 C 2.25586 -0.078125 8.01758 5.67383 14.9707 5.67383 Z M 14.9707 3.85742 C 8.93555 3.85742 4.08203 -1.00586 4.08203 -7.04102 C 4.08203 -13.0762 8.92578 -17.9395 14.9609 -17.9395 C 21.0059 -17.9395 25.8594 -13.0762 25.8691 -7.04102 C 25.8789 -1.00586 21.0156 3.85742 14.9707 3.85742 Z M 14.9512 -1.06445 C 15.5176 -1.06445 15.8691 -1.45508 15.8691 -2.06055 L 15.8691 -6.13281 L 20.1074 -6.13281 C 20.6934 -6.13281 21.1133 -6.46484 21.1133 -7.02148 C 21.1133 -7.59766 20.7227 -7.93945 20.1074 -7.93945 L 15.8691 -7.93945 L 15.8691 -12.1875 C 15.8691 -12.8027 15.5176 -13.1934 14.9512 -13.1934 C 14.3848 -13.1934 14.0625 -12.7832 14.0625 -12.1875 L 14.0625 -7.93945 L 9.83398 -7.93945 C 9.21875 -7.93945 8.80859 -7.59766 8.80859 -7.02148 C 8.80859 -6.46484 9.23828 -6.13281 9.83398 -6.13281 L 14.0625 -6.13281 L 14.0625 -2.06055 C 14.0625 -1.47461 14.3848 -1.06445 14.9512 -1.06445 Z"/>
  </g>
  <text style="stroke:none;fill:black;font-family:-apple-system,&quot;SF Pro Display&quot;,&quot;SF Pro Text&quot;,Helvetica,sans-serif;font-weight:bold;" transform="matrix(1 0 0 1 263 1953)">Design Variations</text>
  <text style="stroke:none;fill:black;font-family:-apple-system,&quot;SF Pro Display&quot;,&quot;SF Pro Text&quot;,Helvetica,sans-serif;" transform="matrix(1 0 0 1 263 1971)">Symbols are supported in up to nine weights and three scales.</text>
  <text style="stroke:none;fill:black;font-family:-apple-system,&quot;SF Pro Display&quot;,&quot;SF Pro Text&quot;,Helvetica,sans-serif;" transform="matrix(1 0 0 1 263 1989)">For optimal layout with text and other symbols, vertically align</text>
  <text style="stroke:none;fill:black;font-family:-apple-system,&quot;SF Pro Display&quot;,&quot;SF Pro Text&quot;,Helvetica,sans-serif;" transform="matrix(1 0 0 1 263 2007)">symbols with the adjacent text.</text>
  <rect height="14" id="" style="fill:#00AEEF;stroke:none;opacity:0.4;" width="3" x="776" y="1919"/>
  <g id="" transform="matrix(1 0 0 1 779 1933)">
   <path d="M 10.5273 0 L 12.373 0 L 7.17773 -14.0918 L 5.43945 -14.0918 L 0.244141 0 L 2.08984 0 L 3.50586 -4.0332 L 9.11133 -4.0332 Z M 6.2793 -11.9531 L 6.33789 -11.9531 L 8.59375 -5.52734 L 4.02344 -5.52734 Z"/>
  </g>
  <rect height="14" id="" style="fill:#00AEEF;stroke:none;opacity:0.4;" width="3" x="791.617" y="1919"/>
  <text style="stroke:none;fill:black;font-family:-apple-system,&quot;SF Pro Display&quot;,&quot;SF Pro Text&quot;,Helvetica,sans-serif;font-weight:bold;" transform="matrix(1 0 0 1 776 1953)">Margins</text>
  <text style="stroke:none;fill:black;font-family:-apple-system,&quot;SF Pro Display&quot;,&quot;SF Pro Text&quot;,Helvetica,sans-serif;" transform="matrix(1 0 0 1 776 1971)">Leading and trailing margins on the left and right side of each symbol</text>
  <text style="stroke:none;fill:black;font-family:-apple-system,&quot;SF Pro Display&quot;,&quot;SF Pro Text&quot;,Helvetica,sans-serif;" transform="matrix(1 0 0 1 776 1989)">can be adjusted by modifying the width of the blue rectangles.</text>
  <text style="stroke:none;fill:black;font-family:-apple-system,&quot;SF Pro Display&quot;,&quot;SF Pro Text&quot;,Helvetica,sans-serif;" transform="matrix(1 0 0 1 776 2007)">Modifications are automatically applied proportionally to all</text>
  <text style="stroke:none;fill:black;font-family:-apple-system,&quot;SF Pro Display&quot;,&quot;SF Pro Text&quot;,Helvetica,sans-serif;" transform="matrix(1 0 0 1 776 2025)">scales and weights.</text>
  <g id="" transform="matrix(1 0 0 1 1289 1933)">
   <path d="M 2.83203 3.11523 L 4.375 4.6582 C 5.22461 5.48828 6.19141 5.41992 7.06055 4.46289 L 17.2754 -6.66016 C 17.7051 -6.36719 18.0957 -6.37695 18.5645 -6.47461 L 19.6094 -6.68945 L 20.3027 -5.99609 L 20.2539 -5.47852 C 20.1855 -4.95117 20.3516 -4.53125 20.8496 -4.0332 L 21.6602 -3.22266 C 22.168 -2.71484 22.8223 -2.68555 23.3008 -3.16406 L 26.5527 -6.41602 C 27.0312 -6.89453 27.0117 -7.54883 26.5039 -8.05664 L 25.6836 -8.87695 C 25.1855 -9.375 24.7754 -9.55078 24.2383 -9.47266 L 23.7109 -9.41406 L 23.0566 -10.0781 L 23.3398 -11.2207 C 23.4863 -11.7871 23.3398 -12.2559 22.7148 -12.8613 L 20.3027 -15.2539 C 16.7578 -18.7793 12.2266 -18.6719 9.11133 -15.5371 C 8.69141 -15.1074 8.64258 -14.5215 8.91602 -14.0918 C 9.15039 -13.7207 9.62891 -13.4961 10.2734 -13.6621 C 11.7871 -14.043 13.3008 -13.9258 14.7852 -12.9199 L 14.1602 -11.3379 C 13.9258 -10.752 13.9453 -10.2734 14.1797 -9.83398 L 3.01758 0.439453 C 2.08008 1.30859 1.97266 2.25586 2.83203 3.11523 Z M 10.6738 -15.1465 C 13.3398 -17.1387 16.6504 -16.8262 19.0527 -14.4141 L 21.6797 -11.8066 C 21.9141 -11.5723 21.9434 -11.3867 21.8848 -11.0938 L 21.5039 -9.53125 L 23.0762 -7.95898 L 24.043 -8.04688 C 24.3262 -8.07617 24.4141 -8.05664 24.6387 -7.83203 L 25.2637 -7.20703 L 22.5098 -4.46289 L 21.8848 -5.07812 C 21.6602 -5.30273 21.6406 -5.40039 21.6699 -5.68359 L 21.7578 -6.64062 L 20.1953 -8.20312 L 18.5742 -7.89062 C 18.291 -7.83203 18.1445 -7.83203 17.9102 -8.07617 L 15.7324 -10.2539 C 15.5078 -10.4883 15.4785 -10.625 15.6055 -10.9473 L 16.5527 -13.2227 C 14.9512 -14.7559 12.8418 -15.6055 10.8008 -14.9512 C 10.7129 -14.9219 10.6445 -14.9414 10.6152 -14.9805 C 10.5859 -15.0293 10.5859 -15.0781 10.6738 -15.1465 Z M 4.10156 2.41211 C 3.61328 1.91406 3.78906 1.61133 4.12109 1.30859 L 15.0781 -8.80859 L 16.3086 -7.57812 L 6.15234 3.34961 C 5.84961 3.68164 5.46875 3.7793 5.06836 3.37891 Z"/>
  </g>
  <text style="stroke:none;fill:black;font-family:-apple-system,&quot;SF Pro Display&quot;,&quot;SF Pro Text&quot;,Helvetica,sans-serif;font-weight:bold;" transform="matrix(1 0 0 1 1289 1953)">Exporting</text>
  <text style="stroke:none;fill:black;font-family:-apple-system,&quot;SF Pro Display&quot;,&quot;SF Pro Text&quot;,Helvetica,sans-serif;" transform="matrix(1 0 0 1 1289 1971)">Symbols should be outlined when exporting to ensure the</text>
  <text style="stroke:none;fill:black;font-family:-apple-system,&quot;SF Pro Display&quot;,&quot;SF Pro Text&quot;,Helvetica,sans-serif;" transform="matrix(1 0 0 1 1289 1989)">design is preserved when submitting to Xcode.</text>
  <text id="template-version" style="stroke:none;fill:black;font-family:-apple-system,&quot;SF Pro Display&quot;,&quot;SF Pro Text&quot;,Helvetica,sans-serif;text-anchor:end;" transform="matrix(1 0 0 1 3036 1933)">Template v.1.0</text>
  <text style="stroke:none;fill:black;font-family:-apple-system,&quot;SF Pro Display&quot;,&quot;SF Pro Text&quot;,Helvetica,sans-serif;text-anchor:end;" transform="matrix(1 0 0 1 3036 1951)">Generated from lock</text>
  <text style="stroke:none;fill:black;font-family:-apple-system,&quot;SF Pro Display&quot;,&quot;SF Pro Text&quot;,Helvetica,sans-serif;text-anchor:end;" transform="matrix(1 0 0 1 3036 1969)">Typeset at 100 points</text>
  <text style="stroke:none;fill:black;font-family:-apple-system,&quot;SF Pro Display&quot;,&quot;SF Pro Text&quot;,Helvetica,sans-serif;" transform="matrix(1 0 0 1 263 726)">Small</text>
  <text style="stroke:none;fill:black;font-family:-apple-system,&quot;SF Pro Display&quot;,&quot;SF Pro Text&quot;,Helvetica,sans-serif;" transform="matrix(1 0 0 1 263 1156)">Medium</text>
  <text style="stroke:none;fill:black;font-family:-apple-system,&quot;SF Pro Display&quot;,&quot;SF Pro Text&quot;,Helvetica,sans-serif;" transform="matrix(1 0 0 1 263 1586)">Large</text>
 </g>
 <g id="Guides">
  <g id="H-reference" style="fill:#27AAE1;stroke:none;" transform="matrix(1 0 0 1 339 696)">
   <path d="M 54.9316 0 L 57.666 0 L 30.5664 -70.459 L 28.0762 -70.459 L 0.976562 0 L 3.66211 0 L 12.9395 -24.4629 L 45.7031 -24.4629 Z M 29.1992 -67.0898 L 29.4434 -67.0898 L 44.8242 -26.709 L 13.8184 -26.709 Z"/>
  </g>
  <line id="Baseline-S" style="fill:none;stroke:#27AAE1;opacity:1;stroke-width:0.577;" x1="263" x2="3036" y1="696" y2="696"/>
  <line id="Capline-S" style="fill:none;stroke:#27AAE1;opacity:1;stroke-width:0.577;" x1="263" x2="3036" y1="625.541" y2="625.541"/>
  <g id="H-reference" style="fill:#27AAE1;stroke:none;" transform="matrix(1 0 0 1 339 1126)">
   <path d="M 54.9316 0 L 57.666 0 L 30.5664 -70.459 L 28.0762 -70.459 L 0.976562 0 L 3.66211 0 L 12.9395 -24.4629 L 45.7031 -24.4629 Z M 29.1992 -67.0898 L 29.4434 -67.0898 L 44.8242 -26.709 L 13.8184 -26.709 Z"/>
  </g>
  <line id="Baseline-M" style="fill:none;stroke:#27AAE1;opacity:1;stroke-width:0.577;" x1="263" x2="3036" y1="1126" y2="1126"/>
  <line id="Capline-M" style="fill:none;stroke:#27AAE1;opacity:1;stroke-width:0.577;" x1="263" x2="3036" y1="1055.54" y2="1055.54"/>
  <g id="H-reference" style="fill:#27AAE1;stroke:none;" transform="matrix(1 0 0 1 339 1556)">
   <path d="M 54.9316 0 L 57.666 0 L 30.5664 -70.459 L 28.0762 -70.459 L 0.976562 0 L 3.66211 0 L 12.9395 -24.4629 L 45.7031 -24.4629 Z M 29.1992 -67.0898 L 29.4434 -67.0898 L 44.8242 -26.709 L 13.8184 -26.709 Z"/>
  </g>
  <line id="Baseline-L" style="fill:none;stroke:#27AAE1;opacity:1;stroke-width:0.577;" x1="263" x2="3036" y1="1556" y2="1556"/>
  <line id="Capline-L" style="fill:none;stroke:#27AAE1;opacity:1;stroke-width:0.577;" x1="263" x2="3036" y1="1485.54" y2="1485.54"/>
  <rect height="119.336" id="left-margin" style="fill:#00AEEF;stroke:none;opacity:0.4;" width="19.9219" x="1396.62" y="1030.79"/>
  <rect height="119.336" id="right-margin" style="fill:#00AEEF;stroke:none;opacity:0.4;" width="19.9219" x="1483.15" y="1030.79"/>
 </g>
 <g id="Symbols">
  <g id="Black-L" transform="matrix(1 0 0 1 2860.45 1556)">
   <path d="M 41.2109 29.8828 L 104.688 29.8828 C 115.43 29.8828 120.752 24.4629 120.752 12.7441 L 120.752 -35.791 C 120.752 -46.2402 116.455 -51.6602 107.715 -52.5879 L 107.715 -65.7715 C 107.715 -90.625 90.2832 -102.441 72.9492 -102.441 C 55.6152 -102.441 38.1836 -90.625 38.1836 -65.7715 L 38.1836 -52.5879 C 29.4434 -51.6602 25.1465 -46.2402 25.1465 -35.791 L 25.1465 12.7441 C 25.1465 24.4629 30.4688 29.8828 41.2109 29.8828 Z M 56.6895 -66.6016 C 56.6895 -77.832 63.623 -84.5215 72.9492 -84.5215 C 82.2754 -84.5215 89.209 -77.832 89.209 -66.6016 L 89.209 -52.7832 L 56.6895 -52.7832 Z M 48.0957 12.207 C 45.9473 12.207 44.8242 11.084 44.8242 8.59375 L 44.8242 -31.543 C 44.8242 -34.0332 45.9473 -35.1074 48.0957 -35.1074 L 97.8516 -35.1074 C 100.049 -35.1074 101.074 -34.0332 101.074 -31.543 L 101.074 8.59375 C 101.074 11.084 100.049 12.207 97.8516 12.207 Z"/>
  </g>
  <g id="Heavy-L" transform="matrix(1 0 0 1 2564.79 1556)">
   <path d="M 40.7715 28.7109 L 103.027 28.7109 C 113.428 28.7109 118.555 23.5352 118.555 12.207 L 118.555 -35.3516 C 118.555 -45.4102 114.355 -50.6348 105.957 -51.5625 L 105.957 -65.1367 C 105.957 -89.502 89.1602 -101.318 71.9238 -101.318 C 54.6875 -101.318 37.8418 -89.502 37.8418 -65.1367 L 37.8418 -51.5625 C 29.4434 -50.6348 25.293 -45.4102 25.293 -35.3516 L 25.293 12.207 C 25.293 23.5352 30.4199 28.7109 40.7715 28.7109 Z M 54.0039 -66.0156 C 54.0039 -78.418 61.7676 -85.6934 71.9238 -85.6934 C 82.0312 -85.6934 89.7949 -78.418 89.7949 -66.0156 L 89.7949 -51.709 L 54.0039 -51.709 Z M 46.0938 13.2812 C 43.6035 13.2812 42.334 12.0605 42.334 9.17969 L 42.334 -32.2266 C 42.334 -35.1562 43.6035 -36.2793 46.0938 -36.2793 L 97.8027 -36.2793 C 100.293 -36.2793 101.465 -35.1562 101.465 -32.2266 L 101.465 9.17969 C 101.465 12.0605 100.293 13.2812 97.8027 13.2812 Z"/>
  </g>
  <g id="Bold-L" transform="matrix(1 0 0 1 2269.23 1556)">
   <path d="M 40.2832 27.3926 L 101.221 27.3926 C 111.133 27.3926 116.064 22.4609 116.064 11.6211 L 116.064 -34.8633 C 116.064 -44.5312 112.061 -49.5117 104.004 -50.3906 L 104.004 -64.4531 C 104.004 -88.2324 87.8418 -100.098 70.752 -100.098 C 53.6133 -100.098 37.5 -88.2324 37.5 -64.4531 L 37.5 -50.3906 C 29.4434 -49.5117 25.4395 -44.5312 25.4395 -34.8633 L 25.4395 11.6211 C 25.4395 22.4609 30.3711 27.3926 40.2832 27.3926 Z M 51.0742 -65.3809 C 51.0742 -79.0527 59.7168 -87.0117 70.752 -87.0117 C 81.7871 -87.0117 90.4297 -79.0527 90.4297 -65.3809 L 90.4297 -50.5371 L 51.0742 -50.5371 Z M 43.8477 14.502 C 41.0156 14.502 39.5996 13.1836 39.5996 9.81445 L 39.5996 -33.0078 C 39.5996 -36.4258 41.0156 -37.6465 43.8477 -37.6465 L 97.7051 -37.6465 C 100.537 -37.6465 101.904 -36.4258 101.904 -33.0078 L 101.904 9.81445 C 101.904 13.1836 100.537 14.502 97.7051 14.502 Z"/>
  </g>
  <g id="Semibold-L" transform="matrix(1 0 0 1 1973.32 1556)">
   <path d="M 39.9414 26.4648 L 99.9512 26.4648 C 109.57 26.4648 114.355 21.6797 114.355 11.1816 L 114.355 -34.5215 C 114.355 -43.9453 110.449 -48.7305 102.637 -49.6094 L 102.637 -63.9648 C 102.637 -87.4023 86.9629 -99.2676 69.9219 -99.2676 C 52.9297 -99.2676 37.2559 -87.4023 37.2559 -63.9648 L 37.2559 -49.6094 C 29.4434 -48.7305 25.5371 -43.9453 25.5371 -34.5215 L 25.5371 11.1816 C 25.5371 21.6797 30.3223 26.4648 39.9414 26.4648 Z M 49.0234 -64.8926 C 49.0234 -79.541 58.3008 -87.9395 69.9219 -87.9395 C 81.5918 -87.9395 90.8691 -79.541 90.8691 -64.8926 L 90.8691 -49.707 L 49.0234 -49.707 Z M 42.2852 15.332 C 39.209 15.332 37.6953 13.9648 37.6953 10.2539 L 37.6953 -33.5449 C 37.6953 -37.3047 39.209 -38.5742 42.2852 -38.5742 L 97.6562 -38.5742 C 100.732 -38.5742 102.197 -37.3047 102.197 -33.5449 L 102.197 10.2539 C 102.197 13.9648 100.732 15.332 97.6562 15.332 Z"/>
  </g>
  <g id="Medium-L" transform="matrix(1 0 0 1 1677.22 1556)">
   <path d="M 39.6973 25.7812 L 98.9746 25.7812 C 108.398 25.7812 113.037 21.1426 113.037 10.8887 L 113.037 -34.2773 C 113.037 -43.457 109.277 -48.1445 101.611 -48.9746 L 101.611 -63.623 C 101.611 -86.7676 86.2793 -98.584 69.3359 -98.584 C 52.3926 -98.584 37.0605 -86.7676 37.0605 -63.623 L 37.0605 -48.9746 C 29.3945 -48.1445 25.6348 -43.457 25.6348 -34.2773 L 25.6348 10.8887 C 25.6348 21.1426 30.2734 25.7812 39.6973 25.7812 Z M 47.5098 -64.5508 C 47.5098 -79.8828 57.1777 -88.623 69.3359 -88.623 C 81.4453 -88.623 91.1621 -79.8828 91.1621 -64.5508 L 91.1621 -49.1211 L 47.5098 -49.1211 Z M 41.1133 15.9668 C 37.8418 15.9668 36.2793 14.5508 36.2793 10.5957 L 36.2793 -33.9844 C 36.2793 -37.9395 37.8418 -39.3066 41.1133 -39.3066 L 97.6074 -39.3066 C 100.879 -39.3066 102.393 -37.9395 102.393 -33.9844 L 102.393 10.5957 C 102.393 14.5508 100.879 15.9668 97.6074 15.9668 Z"/>
  </g>
  <g id="Regular-L" transform="matrix(1 0 0 1 1381.29 1556)">
   <path d="M 39.3555 24.9023 L 97.7539 24.9023 C 106.836 24.9023 111.377 20.4102 111.377 10.498 L 111.377 -33.9355 C 111.377 -42.8711 107.666 -47.4121 100.244 -48.1934 L 100.244 -63.1348 C 100.244 -85.8887 85.4004 -97.7539 68.5547 -97.7539 C 51.6602 -97.7539 36.8164 -85.8887 36.8164 -63.1348 L 36.8164 -48.1934 C 29.3945 -47.4121 25.7324 -42.8711 25.7324 -33.9355 L 25.7324 10.498 C 25.7324 20.4102 30.2246 24.9023 39.3555 24.9023 Z M 45.459 -64.1113 C 45.459 -80.3223 55.7617 -89.5508 68.5547 -89.5508 C 81.2988 -89.5508 91.6016 -80.3223 91.6016 -64.1113 L 91.6016 -48.291 L 45.459 -48.291 Z M 39.5508 16.7969 C 36.084 16.7969 34.375 15.332 34.375 11.0352 L 34.375 -34.5215 C 34.375 -38.8184 36.084 -40.2344 39.5508 -40.2344 L 97.5586 -40.2344 C 101.074 -40.2344 102.686 -38.8184 102.686 -34.5215 L 102.686 11.0352 C 102.686 15.332 101.074 16.7969 97.5586 16.7969 Z"/>
  </g>
  <g id="Light-L" transform="matrix(1 0 0 1 1084.8 1556)">
   <path d="M 38.6719 24.707 L 97.998 24.707 C 106.641 24.707 110.938 20.5078 110.938 11.0352 L 110.938 -34.7656 C 110.938 -43.6035 107.178 -47.8027 99.5605 -48.3398 L 99.5605 -62.8906 C 99.5605 -84.3262 85.6934 -96.7773 68.3105 -96.7773 C 50.9277 -96.7773 37.0605 -84.3262 37.0605 -62.8906 L 37.0605 -48.3398 C 29.4922 -47.8027 25.7324 -43.6035 25.7324 -34.7656 L 25.7324 11.0352 C 25.7324 20.5078 29.9805 24.707 38.6719 24.707 Z M 43.7012 -63.4277 C 43.7012 -80.127 54.248 -90.4785 68.3105 -90.4785 C 82.373 -90.4785 92.9688 -80.127 92.9688 -63.4277 L 92.9688 -48.3887 L 43.7012 -48.3887 Z M 38.6719 18.5059 C 34.375 18.5059 32.373 16.8457 32.373 11.4746 L 32.373 -35.1562 C 32.373 -40.5273 34.375 -42.1387 38.6719 -42.1387 L 97.998 -42.1387 C 102.295 -42.1387 104.297 -40.5273 104.297 -35.1562 L 104.297 11.4746 C 104.297 16.8457 102.295 18.5059 97.998 18.5059 Z"/>
  </g>
  <g id="Thin-L" transform="matrix(1 0 0 1 788.38 1556)">
   <path d="M 37.7441 24.4629 L 98.3398 24.4629 C 106.396 24.4629 110.352 20.6543 110.352 11.8164 L 110.352 -35.791 C 110.352 -44.5312 106.494 -48.3398 98.6816 -48.4375 L 98.6816 -62.5977 C 98.6816 -82.2754 86.084 -95.459 68.0176 -95.459 C 49.9512 -95.459 37.4023 -82.2754 37.4023 -62.5977 L 37.4023 -48.4375 C 29.5898 -48.3398 25.7324 -44.5312 25.7324 -35.791 L 25.7324 11.8164 C 25.7324 20.6543 29.6875 24.4629 37.7441 24.4629 Z M 41.3086 -62.5488 C 41.3086 -79.8828 52.1484 -91.6992 68.0176 -91.6992 C 83.8379 -91.6992 94.7266 -79.8828 94.7266 -62.5488 L 94.7266 -48.4375 L 41.3086 -48.4375 Z M 37.4512 20.752 C 32.1289 20.752 29.6387 18.7988 29.6387 12.0117 L 29.6387 -35.9863 C 29.6387 -42.7734 32.1289 -44.7266 37.4512 -44.7266 L 98.584 -44.7266 C 103.955 -44.7266 106.396 -42.7734 106.396 -35.9863 L 106.396 12.0117 C 106.396 18.7988 103.955 20.752 98.584 20.752 Z"/>
  </g>
  <g id="Ultralight-L" transform="matrix(1 0 0 1 491.84 1556)">
   <path d="M 37.2559 24.3652 L 98.5352 24.3652 C 106.25 24.3652 110.01 20.752 110.01 12.207 L 110.01 -36.3281 C 110.01 -44.873 106.25 -48.4863 98.5352 -48.4863 L 98.1934 -48.4863 L 98.1934 -62.4512 C 98.1934 -81.25 86.3281 -94.7754 67.8711 -94.7754 C 49.4629 -94.7754 37.5488 -81.25 37.5488 -62.4512 L 37.5488 -48.4863 L 37.2559 -48.4863 C 29.4922 -48.4863 25.7324 -44.873 25.7324 -36.3281 L 25.7324 12.207 C 25.7324 20.752 29.4922 24.3652 37.2559 24.3652 Z M 40.0879 -62.0605 C 40.0879 -79.7852 51.123 -92.334 67.8711 -92.334 C 84.5703 -92.334 95.6543 -79.7852 95.6543 -62.0605 L 95.6543 -48.4863 L 40.0879 -48.4863 Z M 36.8652 21.9238 C 30.957 21.9238 28.2715 19.8242 28.2715 12.3047 L 28.2715 -36.4258 C 28.2715 -43.9453 30.957 -46.0449 36.8652 -46.0449 L 98.877 -46.0449 C 104.785 -46.0449 107.471 -43.9453 107.471 -36.4258 L 107.471 12.3047 C 107.471 19.8242 104.785 21.9238 98.877 21.9238 Z"/>
  </g>
  <g id="Black-M" transform="matrix(1 0 0 1 2875.61 1126)">
   <path d="M 32.1777 16.6992 L 83.4473 16.6992 C 92.041 16.6992 96.2891 12.4023 96.2891 2.97852 L 96.2891 -36.6699 C 96.2891 -45.2148 92.7246 -49.5117 85.4492 -50.1953 L 85.4492 -59.6191 C 85.4492 -78.8086 71.6797 -88.2324 57.8125 -88.2324 C 43.9453 -88.2324 30.127 -78.8086 30.127 -59.6191 L 30.127 -50.1953 C 22.8516 -49.5117 19.2871 -45.2148 19.2871 -36.6699 L 19.2871 2.97852 C 19.2871 12.4023 23.5352 16.6992 32.1777 16.6992 Z M 46.4844 -59.9609 C 46.4844 -67.334 50.9766 -72.3145 57.8125 -72.3145 C 64.5996 -72.3145 69.0918 -67.334 69.0918 -59.9609 L 69.0918 -50.293 L 46.4844 -50.293 Z M 39.502 0.976562 C 37.793 0.976562 36.9141 0.0976562 36.9141 -1.85547 L 36.9141 -31.7871 C 36.9141 -33.7402 37.793 -34.5215 39.502 -34.5215 L 76.1719 -34.5215 C 77.832 -34.5215 78.6621 -33.7402 78.6621 -31.7871 L 78.6621 -1.85547 C 78.6621 0.0976562 77.832 0.976562 76.1719 0.976562 Z"/>
  </g>
  <g id="Heavy-M" transform="matrix(1 0 0 1 2579.98 1126)">
   <path d="M 31.8359 15.4785 L 81.5918 15.4785 C 89.8926 15.4785 93.9941 11.3281 93.9941 2.24609 L 93.9941 -35.9863 C 93.9941 -44.1406 90.625 -48.3398 83.7402 -49.0234 L 83.7402 -58.9844 C 83.7402 -78.0273 70.3125 -87.3047 56.7383 -87.3047 C 43.1152 -87.3047 29.7363 -78.0273 29.7363 -58.9844 L 29.7363 -49.0234 C 22.8516 -48.3398 19.4336 -44.1406 19.4336 -35.9863 L 19.4336 2.24609 C 19.4336 11.3281 23.5352 15.4785 31.8359 15.4785 Z M 44.0918 -59.5215 C 44.0918 -68.0176 49.3652 -73.3887 56.7383 -73.3887 C 64.1113 -73.3887 69.3359 -68.0176 69.3359 -59.5215 L 69.3359 -49.1211 L 44.0918 -49.1211 Z M 37.5488 1.70898 C 35.6934 1.70898 34.7656 0.78125 34.7656 -1.31836 L 34.7656 -32.373 C 34.7656 -34.4727 35.6934 -35.3516 37.5488 -35.3516 L 75.9766 -35.3516 C 77.7832 -35.3516 78.6621 -34.4727 78.6621 -32.373 L 78.6621 -1.31836 C 78.6621 0.78125 77.7832 1.70898 75.9766 1.70898 Z"/>
  </g>
  <g id="Bold-M" transform="matrix(1 0 0 1 2284.46 1126)">
   <path d="M 31.4941 14.1113 L 79.4922 14.1113 C 87.5 14.1113 91.4062 10.1074 91.4062 1.41602 L 91.4062 -35.2051 C 91.4062 -42.9688 88.2324 -46.9727 81.7871 -47.7051 L 81.7871 -58.3008 C 81.7871 -77.0996 68.8477 -86.2793 55.5176 -86.2793 C 42.1875 -86.2793 29.248 -77.0996 29.248 -58.3008 L 29.248 -47.7051 C 22.8027 -46.9727 19.6289 -42.9688 19.6289 -35.2051 L 19.6289 1.41602 C 19.6289 10.1074 23.5352 14.1113 31.4941 14.1113 Z M 41.3574 -58.9844 C 41.3574 -68.7988 47.5098 -74.5605 55.5176 -74.5605 C 63.4766 -74.5605 69.6289 -68.7988 69.6289 -58.9844 L 69.6289 -47.8027 L 41.3574 -47.8027 Z M 35.3516 2.53906 C 33.3496 2.53906 32.373 1.61133 32.373 -0.732422 L 32.373 -33.0566 C 32.373 -35.3516 33.3496 -36.2793 35.3516 -36.2793 L 75.7324 -36.2793 C 77.7344 -36.2793 78.6621 -35.3516 78.6621 -33.0566 L 78.6621 -0.732422 C 78.6621 1.61133 77.7344 2.53906 75.7324 2.53906 Z"/>
  </g>
  <g id="Semibold-M" transform="matrix(1 0 0 1 1988.58 1126)">
   <path d="M 31.2988 13.1348 L 78.0762 13.1348 C 85.8398 13.1348 89.6484 9.27734 89.6484 0.878906 L 89.6484 -34.7168 C 89.6484 -42.1387 86.5723 -46.0449 80.4199 -46.7773 L 80.4199 -57.8125 C 80.4199 -76.4648 67.8223 -85.5469 54.6875 -85.5469 C 41.5527 -85.5469 28.9551 -76.4648 28.9551 -57.8125 L 28.9551 -46.7773 C 22.7539 -46.0449 19.7266 -42.1387 19.7266 -34.7168 L 19.7266 0.878906 C 19.7266 9.27734 23.5352 13.1348 31.2988 13.1348 Z M 39.502 -58.6426 C 39.502 -69.3359 46.2891 -75.3418 54.6875 -75.3418 C 63.0859 -75.3418 69.873 -69.3359 69.873 -58.6426 L 69.873 -46.9238 L 39.502 -46.9238 Z M 33.7891 3.125 C 31.7383 3.125 30.7129 2.14844 30.7129 -0.341797 L 30.7129 -33.4961 C 30.7129 -35.9863 31.7383 -36.8652 33.7891 -36.8652 L 75.5859 -36.8652 C 77.6855 -36.8652 78.6621 -35.9863 78.6621 -33.4961 L 78.6621 -0.341797 C 78.6621 2.14844 77.6855 3.125 75.5859 3.125 Z"/>
  </g>
  <g id="Medium-M" transform="matrix(1 0 0 1 1692.5 1126)">
   <path d="M 31.1035 12.4023 L 77.002 12.4023 C 84.5703 12.4023 88.2812 8.64258 88.2812 0.439453 L 88.2812 -34.2773 C 88.2812 -41.5527 85.3516 -45.3125 79.3945 -46.0938 L 79.3945 -57.4707 C 79.3945 -76.0254 67.041 -84.9609 54.0527 -84.9609 C 41.0645 -84.9609 28.7109 -76.0254 28.7109 -57.4707 L 28.7109 -46.0938 C 22.7539 -45.3125 19.8242 -41.5527 19.8242 -34.2773 L 19.8242 0.439453 C 19.8242 8.64258 23.5352 12.4023 31.1035 12.4023 Z M 38.0859 -58.3496 C 38.0859 -69.7266 45.3125 -75.9766 54.0527 -75.9766 C 62.7441 -75.9766 70.0195 -69.7266 70.0195 -58.3496 L 70.0195 -46.2402 L 38.0859 -46.2402 Z M 32.666 3.56445 C 30.5176 3.56445 29.4434 2.53906 29.4434 0 L 29.4434 -33.8379 C 29.4434 -36.4258 30.5176 -37.3535 32.666 -37.3535 L 75.4883 -37.3535 C 77.6367 -37.3535 78.6621 -36.4258 78.6621 -33.8379 L 78.6621 0 C 78.6621 2.53906 77.6367 3.56445 75.4883 3.56445 Z"/>
  </g>
  <g id="Regular-M" transform="matrix(1 0 0 1 1396.62 1126)">
   <path d="M 30.8594 11.4746 L 75.5859 11.4746 C 82.9102 11.4746 86.5234 7.8125 86.5234 -0.146484 L 86.5234 -33.7891 C 86.5234 -40.7227 83.7402 -44.3848 78.0762 -45.166 L 78.0762 -56.9824 C 78.0762 -75.3906 66.0156 -84.2773 53.2227 -84.2773 C 40.4297 -84.2773 28.3691 -75.3906 28.3691 -56.9824 L 28.3691 -45.166 C 22.7051 -44.3848 19.9219 -40.7227 19.9219 -33.7891 L 19.9219 -0.146484 C 19.9219 7.8125 23.5352 11.4746 30.8594 11.4746 Z M 36.2305 -58.0078 C 36.2305 -70.2637 44.0918 -76.7578 53.2227 -76.7578 C 62.3535 -76.7578 70.2148 -70.2637 70.2148 -58.0078 L 70.2148 -45.3125 L 36.2305 -45.3125 Z M 31.1523 4.15039 C 28.9062 4.15039 27.7832 3.125 27.7832 0.390625 L 27.7832 -34.2773 C 27.7832 -37.0117 28.9062 -37.9883 31.1523 -37.9883 L 75.3418 -37.9883 C 77.5879 -37.9883 78.6621 -37.0117 78.6621 -34.2773 L 78.6621 0.390625 C 78.6621 3.125 77.5879 4.15039 75.3418 4.15039 Z"/>
  </g>
  <g id="Light-M" transform="matrix(1 0 0 1 1100.11 1126)">
   <path d="M 30.2246 11.3281 L 75.8301 11.3281 C 82.7148 11.3281 86.1328 7.91016 86.1328 0.390625 L 86.1328 -34.5215 C 86.1328 -41.4062 83.252 -44.7754 77.4414 -45.3125 L 77.4414 -56.7871 C 77.4414 -73.9746 66.2598 -83.3496 53.0273 -83.3496 C 39.7949 -83.3496 28.6133 -73.9746 28.6133 -56.7871 L 28.6133 -45.3125 C 22.8027 -44.7754 19.9219 -41.4062 19.9219 -34.5215 L 19.9219 0.390625 C 19.9219 7.91016 23.3398 11.3281 30.2246 11.3281 Z M 34.6191 -57.373 C 34.6191 -70.1172 42.6758 -77.6367 53.0273 -77.6367 C 63.3301 -77.6367 71.4355 -70.1172 71.4355 -57.373 L 71.4355 -45.3613 L 34.6191 -45.3613 Z M 30.3711 5.66406 C 27.3926 5.66406 25.9766 4.44336 25.9766 0.78125 L 25.9766 -34.8633 C 25.9766 -38.5742 27.3926 -39.7461 30.3711 -39.7461 L 75.7324 -39.7461 C 78.7109 -39.7461 80.0781 -38.5742 80.0781 -34.8633 L 80.0781 0.78125 C 80.0781 4.44336 78.7109 5.66406 75.7324 5.66406 Z"/>
  </g>
  <g id="Thin-M" transform="matrix(1 0 0 1 803.663 1126)">
   <path d="M 29.3945 11.084 L 76.123 11.084 C 82.4707 11.084 85.5957 8.05664 85.5957 1.07422 L 85.5957 -35.4492 C 85.5957 -42.2363 82.666 -45.2637 76.6602 -45.459 L 76.6602 -56.4941 C 76.6602 -72.168 66.6016 -82.1777 52.7832 -82.1777 C 38.916 -82.1777 28.9062 -72.168 28.9062 -56.4941 L 28.9062 -45.459 C 22.8516 -45.2637 19.9219 -42.2363 19.9219 -35.4492 L 19.9219 1.07422 C 19.9219 8.05664 23.0469 11.084 29.3945 11.084 Z M 32.5195 -56.5918 C 32.5195 -69.873 40.8691 -78.7598 52.7832 -78.7598 C 64.5996 -78.7598 72.998 -69.873 72.998 -56.5918 L 72.998 -45.459 L 32.5195 -45.459 Z M 29.2969 7.66602 C 25.3418 7.66602 23.5352 6.20117 23.5352 1.26953 L 23.5352 -35.6445 C 23.5352 -40.5762 25.3418 -42.041 29.2969 -42.041 L 76.2695 -42.041 C 80.1758 -42.041 81.9824 -40.5762 81.9824 -35.6445 L 81.9824 1.26953 C 81.9824 6.20117 80.1758 7.66602 76.2695 7.66602 Z"/>
  </g>
  <g id="Ultralight-M" transform="matrix(1 0 0 1 507.074 1126)">
   <path d="M 29.0039 10.9863 L 76.2695 10.9863 C 82.373 10.9863 85.3516 8.10547 85.3516 1.41602 L 85.3516 -35.9375 C 85.3516 -42.627 82.373 -45.5078 76.2695 -45.5078 L 76.2207 -45.5078 L 76.2207 -56.3965 C 76.2207 -71.1914 66.7969 -81.5918 52.6367 -81.5918 C 38.4766 -81.5918 29.0527 -71.1914 29.0527 -56.3965 L 29.0527 -45.5078 L 29.0039 -45.5078 C 22.9004 -45.5078 19.9219 -42.627 19.9219 -35.9375 L 19.9219 1.41602 C 19.9219 8.10547 22.9004 10.9863 29.0039 10.9863 Z M 31.4453 -56.1523 C 31.4453 -69.7754 39.8926 -79.2969 52.6367 -79.2969 C 65.2832 -79.2969 73.8281 -69.7754 73.8281 -56.1523 L 73.8281 -45.5078 L 31.4453 -45.5078 Z M 28.7109 8.69141 C 24.3164 8.69141 22.3145 7.12891 22.3145 1.51367 L 22.3145 -36.0352 C 22.3145 -41.6504 24.3164 -43.2129 28.7109 -43.2129 L 76.5137 -43.2129 C 80.957 -43.2129 82.959 -41.6504 82.959 -36.0352 L 82.959 1.51367 C 82.959 7.12891 80.957 8.69141 76.5137 8.69141 Z"/>
  </g>
  <g id="Black-S" transform="matrix(1 0 0 1 2888.19 696)">
   <path d="M 25.1953 5.37109 L 65.2344 5.37109 C 71.9727 5.37109 75.293 2.00195 75.293 -5.37109 L 75.293 -36.2793 C 75.293 -42.9688 72.5098 -46.3379 66.8457 -46.875 L 66.8457 -54.2969 C 66.8457 -69.3359 56.0547 -76.709 45.2148 -76.709 C 34.375 -76.709 23.584 -69.3359 23.584 -54.2969 L 23.584 -46.875 C 17.9199 -46.3379 15.1367 -42.9688 15.1367 -36.2793 L 15.1367 -5.37109 C 15.1367 2.00195 18.457 5.37109 25.1953 5.37109 Z M 36.2793 -54.5898 C 36.2793 -60.4492 39.8438 -64.3555 45.2148 -64.3555 C 50.5859 -64.3555 54.1504 -60.4492 54.1504 -54.5898 L 54.1504 -46.9238 L 36.2793 -46.9238 Z M 30.8105 -6.83594 C 29.4922 -6.83594 28.8086 -7.51953 28.8086 -9.0332 L 28.8086 -32.5684 C 28.8086 -34.082 29.4922 -34.7168 30.8105 -34.7168 L 59.668 -34.7168 C 60.9863 -34.7168 61.6211 -34.082 61.6211 -32.5684 L 61.6211 -9.0332 C 61.6211 -7.51953 60.9863 -6.83594 59.668 -6.83594 Z"/>
  </g>
  <g id="Heavy-S" transform="matrix(1 0 0 1 2592.28 696)">
   <path d="M 25.0488 4.44336 L 63.7695 4.44336 C 70.3613 4.44336 73.584 1.17188 73.584 -6.00586 L 73.584 -35.6934 C 73.584 -42.0898 70.9473 -45.3613 65.5762 -45.9473 L 65.5762 -53.8574 C 65.5762 -68.8477 54.9805 -76.0742 44.4336 -76.0742 C 33.8379 -76.0742 23.2422 -68.8477 23.2422 -53.8574 L 23.2422 -45.9473 C 17.8711 -45.3613 15.2344 -42.0898 15.2344 -35.6934 L 15.2344 -6.00586 C 15.2344 1.17188 18.5059 4.44336 25.0488 4.44336 Z M 34.6191 -54.2969 C 34.6191 -60.9863 38.7695 -65.0879 44.4336 -65.0879 C 50.0488 -65.0879 54.1992 -60.9863 54.1992 -54.2969 L 54.1992 -46.0449 L 34.6191 -46.0449 Z M 29.3945 -6.44531 C 28.0762 -6.44531 27.3438 -7.12891 27.3438 -8.69141 L 27.3438 -32.959 C 27.3438 -34.5215 28.0762 -35.1562 29.3945 -35.1562 L 59.4727 -35.1562 C 60.8398 -35.1562 61.4746 -34.5215 61.4746 -32.959 L 61.4746 -8.69141 C 61.4746 -7.12891 60.8398 -6.44531 59.4727 -6.44531 Z"/>
  </g>
  <g id="Bold-S" transform="matrix(1 0 0 1 2296.47 696)">
   <path d="M 24.8535 3.41797 L 62.1582 3.41797 C 68.5059 3.41797 71.6309 0.244141 71.6309 -6.68945 L 71.6309 -35.0098 C 71.6309 -41.1133 69.1895 -44.2871 64.1602 -44.9219 L 64.1602 -53.3203 C 64.1602 -68.3594 53.8086 -75.3906 43.5059 -75.3906 C 33.2031 -75.3906 22.8516 -68.3594 22.8516 -53.3203 L 22.8516 -44.9219 C 17.8711 -44.2871 15.3809 -41.1133 15.3809 -35.0098 L 15.3809 -6.68945 C 15.3809 0.244141 18.5059 3.41797 24.8535 3.41797 Z M 32.7148 -54.0039 C 32.7148 -61.6211 37.5488 -65.8691 43.5059 -65.8691 C 49.5117 -65.8691 54.2969 -61.6211 54.2969 -54.0039 L 54.2969 -45.0195 L 32.7148 -45.0195 Z M 27.832 -6.00586 C 26.4648 -6.00586 25.7324 -6.68945 25.7324 -8.25195 L 25.7324 -33.3984 C 25.7324 -34.9609 26.4648 -35.6445 27.832 -35.6445 L 59.2773 -35.6445 C 60.6445 -35.6445 61.2793 -34.9609 61.2793 -33.3984 L 61.2793 -8.25195 C 61.2793 -6.68945 60.6445 -6.00586 59.2773 -6.00586 Z"/>
  </g>
  <g id="Semibold-S" transform="matrix(1 0 0 1 2000.37 696)">
   <path d="M 24.707 2.68555 L 61.084 2.68555 C 67.2363 2.68555 70.3125 -0.439453 70.3125 -7.12891 L 70.3125 -34.5703 C 70.3125 -40.4297 67.9688 -43.5059 63.1836 -44.1895 L 63.1836 -52.9785 C 63.1836 -67.9688 53.0273 -74.9023 42.9199 -74.9023 C 32.7637 -74.9023 22.6074 -67.9688 22.6074 -52.9785 L 22.6074 -44.1895 C 17.8223 -43.5059 15.4785 -40.4297 15.4785 -34.5703 L 15.4785 -7.12891 C 15.4785 -0.439453 18.5547 2.68555 24.707 2.68555 Z M 31.4453 -53.7598 C 31.4453 -62.0117 36.7188 -66.4062 42.9199 -66.4062 C 49.0723 -66.4062 54.3457 -62.0117 54.3457 -53.7598 L 54.3457 -44.3359 L 31.4453 -44.3359 Z M 26.709 -5.66406 C 25.3418 -5.66406 24.6094 -6.39648 24.6094 -8.00781 L 24.6094 -33.6914 C 24.6094 -35.3027 25.3418 -35.9863 26.709 -35.9863 L 59.1309 -35.9863 C 60.498 -35.9863 61.1816 -35.3027 61.1816 -33.6914 L 61.1816 -8.00781 C 61.1816 -6.39648 60.498 -5.66406 59.1309 -5.66406 Z"/>
  </g>
  <g id="Medium-S" transform="matrix(1 0 0 1 1704.12 696)">
   <path d="M 24.6582 2.14844 L 60.2051 2.14844 C 66.3086 2.14844 69.3359 -0.927734 69.3359 -7.51953 L 69.3359 -34.2285 C 69.3359 -39.8926 67.041 -42.9688 62.4512 -43.6523 L 62.4512 -52.7344 C 62.4512 -67.7246 52.3926 -74.5605 42.4316 -74.5605 C 32.4707 -74.5605 22.4121 -67.7246 22.4121 -52.7344 L 22.4121 -43.6523 C 17.8223 -42.9688 15.5273 -39.8926 15.5273 -34.2285 L 15.5273 -7.51953 C 15.5273 -0.927734 18.5547 2.14844 24.6582 2.14844 Z M 30.4688 -53.6133 C 30.4688 -62.3535 36.084 -66.8457 42.4316 -66.8457 C 48.7793 -66.8457 54.3945 -62.3535 54.3945 -53.6133 L 54.3945 -43.7988 L 30.4688 -43.7988 Z M 25.8789 -5.41992 C 24.5117 -5.41992 23.7793 -6.15234 23.7793 -7.76367 L 23.7793 -33.9355 C 23.7793 -35.5469 24.5117 -36.2305 25.8789 -36.2305 L 58.9844 -36.2305 C 60.4004 -36.2305 61.084 -35.5469 61.084 -33.9355 L 61.084 -7.76367 C 61.084 -6.15234 60.4004 -5.41992 58.9844 -5.41992 Z"/>
  </g>
  <g id="Regular-S" transform="matrix(1 0 0 1 1408.02 696)">
   <path d="M 24.5117 1.41602 L 59.1309 1.41602 C 65.0391 1.41602 68.0176 -1.5625 68.0176 -7.95898 L 68.0176 -33.7402 C 68.0176 -39.209 65.8203 -42.1875 61.4746 -42.9199 L 61.4746 -52.3438 C 61.4746 -67.3828 51.6113 -74.0723 41.7969 -74.0723 C 32.0312 -74.0723 22.168 -67.3828 22.168 -52.3438 L 22.168 -42.9199 C 17.7734 -42.1875 15.625 -39.209 15.625 -33.7402 L 15.625 -7.95898 C 15.625 -1.5625 18.5547 1.41602 24.5117 1.41602 Z M 29.1992 -53.3691 C 29.1992 -62.7441 35.2539 -67.3828 41.7969 -67.3828 C 48.3887 -67.3828 54.4434 -62.7441 54.4434 -53.3691 L 54.4434 -43.1152 L 29.1992 -43.1152 Z M 24.8047 -5.12695 C 23.3887 -5.12695 22.6562 -5.85938 22.6562 -7.51953 L 22.6562 -34.2285 C 22.6562 -35.8887 23.3887 -36.5723 24.8047 -36.5723 L 58.8379 -36.5723 C 60.3027 -36.5723 60.9863 -35.8887 60.9863 -34.2285 L 60.9863 -7.51953 C 60.9863 -5.85938 60.3027 -5.12695 58.8379 -5.12695 Z"/>
  </g>
  <g id="Light-S" transform="matrix(1 0 0 1 1111.48 696)">
   <path d="M 23.9746 1.26953 L 59.3262 1.26953 C 64.8926 1.26953 67.6758 -1.46484 67.6758 -7.51953 L 67.6758 -34.375 C 67.6758 -39.7949 65.4297 -42.5781 60.9375 -43.0664 L 60.9375 -52.1973 C 60.9375 -66.1133 51.8555 -73.291 41.6504 -73.291 C 31.4453 -73.291 22.3633 -66.1133 22.3633 -52.1973 L 22.3633 -43.0664 C 17.8711 -42.5781 15.625 -39.7949 15.625 -34.375 L 15.625 -7.51953 C 15.625 -1.46484 18.3594 1.26953 23.9746 1.26953 Z M 27.7832 -52.832 C 27.7832 -62.5977 33.9844 -68.1152 41.6504 -68.1152 C 49.2676 -68.1152 55.5176 -62.5977 55.5176 -52.832 L 55.5176 -43.1641 L 27.7832 -43.1641 Z M 24.1211 -3.80859 C 22.0703 -3.80859 21.0449 -4.63867 21.0449 -7.17773 L 21.0449 -34.7168 C 21.0449 -37.2559 22.0703 -38.0859 24.1211 -38.0859 L 59.1797 -38.0859 C 61.2793 -38.0859 62.207 -37.2559 62.207 -34.7168 L 62.207 -7.17773 C 62.207 -4.63867 61.2793 -3.80859 59.1797 -3.80859 Z"/>
  </g>
  <g id="Thin-S" transform="matrix(1 0 0 1 815.016 696)">
   <path d="M 23.2422 1.12305 L 59.5703 1.12305 C 64.6973 1.12305 67.1875 -1.36719 67.1875 -6.93359 L 67.1875 -35.2051 C 67.1875 -40.5273 64.8926 -43.0176 60.2051 -43.2129 L 60.2051 -51.9531 C 60.2051 -64.502 52.1484 -72.2656 41.4062 -72.2656 C 30.6641 -72.2656 22.6074 -64.502 22.6074 -51.9531 L 22.6074 -43.2129 C 17.9199 -43.0176 15.625 -40.5273 15.625 -35.2051 L 15.625 -6.93359 C 15.625 -1.36719 18.1152 1.12305 23.2422 1.12305 Z M 25.8789 -52.0996 C 25.8789 -62.4512 32.373 -69.0918 41.4062 -69.0918 C 50.3906 -69.0918 56.9336 -62.4512 56.9336 -52.0996 L 56.9336 -43.2129 L 25.8789 -43.2129 Z M 23.1445 -2.00195 C 20.2637 -2.00195 18.9453 -3.07617 18.9453 -6.73828 L 18.9453 -35.4004 C 18.9453 -39.0625 20.2637 -40.1367 23.1445 -40.1367 L 59.668 -40.1367 C 62.5488 -40.1367 63.8672 -39.0625 63.8672 -35.4004 L 63.8672 -6.73828 C 63.8672 -3.07617 62.5488 -2.00195 59.668 -2.00195 Z"/>
  </g>
  <g id="Ultralight-S" transform="matrix(1 0 0 1 518.427 696)">
   <path d="M 22.8516 0.976562 L 59.7168 0.976562 C 64.5996 0.976562 66.9434 -1.26953 66.9434 -6.5918 L 66.9434 -35.6445 C 66.9434 -40.918 64.5996 -43.2129 59.8633 -43.2617 L 59.8633 -51.8555 C 59.8633 -63.6719 52.2949 -71.7285 41.3086 -71.7285 C 30.2734 -71.7285 22.7051 -63.6719 22.7051 -51.8555 L 22.7051 -43.2617 C 18.0176 -43.2617 15.625 -40.9668 15.625 -35.6445 L 15.625 -6.5918 C 15.625 -1.26953 18.0176 0.976562 22.8516 0.976562 Z M 24.9512 -51.7578 C 24.9512 -62.3047 31.543 -69.6289 41.3086 -69.6289 C 50.9766 -69.6289 57.666 -62.3047 57.666 -51.7578 L 57.666 -43.2617 L 24.9512 -43.2617 Z M 22.6562 -1.07422 C 19.3359 -1.07422 17.8223 -2.29492 17.8223 -6.49414 L 17.8223 -35.7422 C 17.8223 -39.9902 19.3359 -41.1621 22.6562 -41.1621 L 59.9121 -41.1621 C 63.2324 -41.1621 64.7461 -39.9902 64.7461 -35.7422 L 64.7461 -6.49414 C 64.7461 -2.29492 63.2324 -1.07422 59.9121 -1.07422 Z"/>
  </g>
 </g>
</svg>
